<svg version="1.1" id="Calque_1" xmlns="http://www.w3.org/2000/svg" xmlns:xlink="http://www.w3.org/1999/xlink" x="0px" y="0px"
	 width="432px" height="432px" viewBox="0 0 432 432" enable-background="new 0 0 432 432" xml:space="preserve">
<path fill-rule="evenodd" clip-rule="evenodd" d="M234.486,100.848c-0.183-0.051-0.59-0.337-0.679-0.068
	C233.884,100.892,234.445,101.131,234.486,100.848z"/>
<path fill-rule="evenodd" clip-rule="evenodd" d="M236.303,101.588c0.053-0.254-0.301-0.239-0.401-0.136
	C235.837,101.696,236.167,101.546,236.303,101.588z"/>
<path fill-rule="evenodd" clip-rule="evenodd" d="M236.504,101.52c0.142,0.222,0.448,0.269,0.814,0.271
	C237.218,101.546,236.734,101.41,236.504,101.52z"/>
<path fill-rule="evenodd" clip-rule="evenodd" d="M238.799,101.992c-0.189-0.021-0.507-0.299-0.608,0
	C238.309,102.083,238.728,102.257,238.799,101.992z"/>
<path fill-rule="evenodd" clip-rule="evenodd" d="M221.277,104.552c0.03-0.253-0.053-0.395-0.271-0.403
	C220.852,104.322,221.07,104.528,221.277,104.552z"/>
<path fill-rule="evenodd" clip-rule="evenodd" d="M196.274,139.729c-0.088,0-0.147-0.035-0.201-0.07
	c-0.059,0.079-0.088,0.183-0.065,0.339C196.215,140.026,196.198,139.826,196.274,139.729z"/>
<path fill-rule="evenodd" clip-rule="evenodd" d="M170.741,145.05c0.088-0.006,0.088-0.085,0.2-0.067c0-0.089,0-0.181,0-0.269
	c-0.088-0.095-0.383-0.095-0.472,0C170.452,144.932,170.546,145.038,170.741,145.05z"/>
<path fill-rule="evenodd" clip-rule="evenodd" d="M174.576,151.047c0.242,0.147,0.366,0.101,0.678,0.067
	C175.366,150.672,174.54,150.654,174.576,151.047z"/>
<path fill-rule="evenodd" clip-rule="evenodd" d="M208.274,157.451c-0.153,0.1-0.23,0.472,0.13,0.401
	C208.499,157.767,208.422,157.495,208.274,157.451z"/>
<path fill-rule="evenodd" clip-rule="evenodd" d="M158.204,164.324c0.307-0.26,0.861-0.263,1.009-0.676
	c1.623-0.622,3.764,0.121,4.584,1.145c0.101,0.2-0.053,0.23,0.065,0.404c1.268,0.088,2.424,0.489,2.631,1.82
	c0.555,0.271,0.891-0.036,1.28-0.269c-0.679-0.626,0.543-0.803,0.808-1.28c0.49-0.026,0.879-0.257,1.416-0.204
	c0.437,0.042,0.738,0.346,1.08,0.269c0.62-0.139,0.608-0.85,0.873-1.345c-1.191-0.384-2.82-0.324-4.177-0.54
	c-0.442-0.723-1.799-0.543-2.561-0.944c0.059-0.483-0.194-0.66-0.271-1.012c-0.525-0.012-0.631-0.445-1.009-0.607
	c-0.472,0.109-0.542-0.165-1.08-0.133c-0.165,0.109-0.218,0.315-0.401,0.404c-0.13-0.029-0.124-0.191-0.336-0.136
	c-0.372,0.372-0.944,0.543-1.351,0.879c-1.026-0.48-2.584-0.425-3.434-1.079c0.295-0.508-0.336-0.941-0.743-0.741
	c-0.136,0.248,0.029,0.416,0.201,0.54c-0.095,0.13-0.218,0.431-0.065,0.604c-0.413,0.213-0.596,0.858-0.537,1.349
	C156.293,163.781,157.414,164.044,158.204,164.324z"/>
<path fill-rule="evenodd" clip-rule="evenodd" d="M171.414,165.873c-0.171-0.013-0.325-0.013-0.401,0.064c0,0.07,0,0.136,0,0.203
	C171.26,166.168,171.402,166.088,171.414,165.873z"/>
<path fill-rule="evenodd" clip-rule="evenodd" d="M184.953,174.294c0.065,0.115,0.224,0.136,0.271,0.271
	c-0.118,0.242-0.507,0.944,0,1.009c0.088-0.437,0.159-0.876,0.271-1.28c-0.183-0.194-0.189-0.13-0.071-0.403
	C185.195,173.722,184.994,174.056,184.953,174.294z"/>
<path fill-rule="evenodd" clip-rule="evenodd" d="M263.394,180.967c-0.383-0.18-0.702,0.224-0.814,0.537
	C263.064,181.536,263.335,181.359,263.394,180.967z"/>
<path fill-rule="evenodd" clip-rule="evenodd" d="M274.309,184.132c0.029,0.304-0.396,0.147-0.472,0.339
	c-0.077,0.461,0.23,0.528,0.407,0.741c0.183-0.089,0.413-0.121,0.537-0.271c0.006-0.346-0.253-0.422-0.407-0.605
	C274.562,184.314,274.515,184.103,274.309,184.132z"/>
<path fill-rule="evenodd" clip-rule="evenodd" d="M276.468,185.479c0.283-0.006,0.466-0.111,0.802-0.064
	c0.006-0.2,0.177-0.233,0.201-0.404c-0.348-0.112-0.224-0.61-0.602-0.676c-0.047-0.009-0.289,0.083-0.472,0.136
	C276.656,184.769,276.143,185.111,276.468,185.479z"/>
<path fill-rule="evenodd" clip-rule="evenodd" d="M150.452,185.415c-0.1-0.213,0.036-0.661-0.2-0.743
	c-0.166,0.1-0.254,0.283-0.336,0.472C150.104,185.218,150.246,185.571,150.452,185.415z"/>
<path fill-rule="evenodd" clip-rule="evenodd" d="M275.323,184.739c-0.283-0.056-0.401,0.26-0.277,0.404
	C275.27,185.141,275.306,184.952,275.323,184.739z"/>
<path fill-rule="evenodd" clip-rule="evenodd" d="M150.187,186.424c1.044,0.216,1.428,1.086,2.36,1.416
	c0.519-0.056,0.602-0.139,1.145-0.136c0.242,0.053,0.206,0.375,0.542,0.336c0.13-0.064,0.283-0.114,0.336-0.271
	c-0.384-0.2-0.69-0.478-1.08-0.669c-0.997,0.209-2.649-0.705-2.431-1.685C150.535,185.513,150.187,185.796,150.187,186.424z"/>
<path fill-rule="evenodd" clip-rule="evenodd" d="M274.102,188.58c0.1,0.104,0.348,0.059,0.542,0.068
	c0.012,0.327,0.26,0.418,0.537,0.472c0.059-0.33,0.555-0.619,0.207-0.944c0.513-0.383,0.542-1.064,0.537-1.685
	c0.065,0,0.136,0,0.201,0c-0.071-0.365,0.183-0.4,0.136-0.74c-0.46-0.434-0.542,0.419-1.015,0.404
	c-0.006,0.098,0.029,0.248-0.065,0.269c-0.083-0.006-0.088-0.086-0.201-0.067C274.663,187.07,274.32,187.757,274.102,188.58z"/>
<path fill-rule="evenodd" clip-rule="evenodd" d="M277.406,186.02c-0.283,0.029-0.731-0.104-0.744,0.201
	C276.857,186.365,277.417,186.303,277.406,186.02z"/>
<path fill-rule="evenodd" clip-rule="evenodd" d="M254.498,187.365c0.083-0.216-0.218-0.051-0.136-0.266
	c0.106-0.101,0.136-0.274,0.401-0.204c-0.1-0.395,0.331-0.256,0.336-0.539c-0.248-0.065-0.372-0.254-0.738-0.201
	c-0.012,0.074-0.077,0.104-0.136,0.133c0.242,0.729-0.431,0.788-0.537,1.348C253.872,187.704,254.262,187.471,254.498,187.365z"/>
<path fill-rule="evenodd" clip-rule="evenodd" d="M179.632,188.38c-0.832-0.133-1.434,0.162-1.817,0.2
	c0.283,0.381,0.731,0.752,0.673,1.28c0.136,0,0.271,0,0.407,0c0.23,0.431,0.643,0.525,1.145,0.607
	c0.277,0.045,0.643,0.192,0.874,0.337c0.136,0.079,0.224,0.321,0.401,0.403c0.094,0.042,0.254-0.047,0.342,0
	c0.171,0.092,0.248,0.328,0.472,0.337c0.289-0.026,0.696,0.064,0.874-0.068c0.289,0.322,1.003,0.213,1.015,0.812
	c0.248-0.023,0.596,0.056,0.737-0.071c0.083-0.304-0.183-0.262-0.136-0.536c0.36-0.298,0.944-0.354,1.351-0.271
	c-0.006-0.112,0.136-0.251,0.407-0.269c0.088,0.018,0.077,0.15,0.13,0.203c0.224-0.159,0.554-0.212,0.808-0.339
	c0.018-0.33,0.077-0.363,0.207-0.673c-0.283-0.053-0.348,0.104-0.614,0.068c0.212-0.34-0.118-0.434-0.195-0.676
	c0.195-0.251,0.195-0.685-0.07-0.809c0.224-0.38-0.036-0.551,0.136-1.076c-0.679-0.286-1.121-0.366-1.888-0.136
	c-0.277-0.257-0.142-0.936-0.608-1.009c-0.006,0.124-0.041,0.224-0.129,0.269c-0.13-0.009-0.053-0.225-0.207-0.204
	c-0.183,0.563-0.809,0.741-1.28,0.34c-0.195,0.755-2.035,0.41-1.616,1.345C180.664,188.621,179.998,188.436,179.632,188.38z"/>
<path fill-rule="evenodd" clip-rule="evenodd" d="M276.733,187.031c0.07,0,0.136,0,0.2,0c0.018-0.153-0.018-0.257-0.13-0.271
	C276.78,186.852,276.704,186.89,276.733,187.031z"/>
<path fill-rule="evenodd" clip-rule="evenodd" d="M274.244,192.017c0.313,0.41,0.667,0.05,1.08-0.136c0.13-0.059,0.212,0.077,0.33,0
	c0.201-0.127,0.047-0.248,0.201-0.336c0.071,0,0.083-0.054,0.136-0.068c0.006,0.127,0.224,0.048,0.207,0.204
	c0.318-0.159,0.69-0.071,0.873-0.473c-0.289,0.003-0.336-0.241-0.602-0.403c0.224-0.283,0.708,0.12,0.802-0.271
	c-0.023-0.13-0.259-0.054-0.201-0.269c0.289-0.514,0.655-0.915,1.145-1.28c0.454-0.336,1.18-0.502,1.145-1.216
	c-0.218-0.035-0.313,0.048-0.472,0.071c0.088-0.089,0.088-0.251,0-0.339c-0.289,0.091-0.348,0.015-0.401-0.269
	c-0.407-0.071-0.442,0.232-0.743,0.269c-0.053,0.215,0.059,0.256,0.136,0.339c-0.484,0.064,0.076,0.431-0.336,0.604
	c-0.1-0.079-0.171-0.079-0.271,0c-0.195,0.823-1.056,1.483-1.947,1.82c-0.095,0.171,0.26,0.209,0.065,0.269
	c-0.336,0.07-0.679,0.339-0.543,0.675c-0.112,0-0.224,0-0.336,0C274.214,191.421,274.456,191.777,274.244,192.017z"/>
<path fill-rule="evenodd" clip-rule="evenodd" d="M276.261,188.78c0.307,0.083,0.212-0.232,0.401-0.268
	c0.26-0.147,0.655-0.156,0.608-0.608c-0.395-0.238-0.584,0.248-0.944,0.271C276.35,188.421,276.32,188.615,276.261,188.78z"/>
<path fill-rule="evenodd" clip-rule="evenodd" d="M151.939,188.513c-0.283-0.006-0.372,0.13-0.271,0.336
	C151.862,188.837,151.957,188.733,151.939,188.513z"/>
<path fill-rule="evenodd" clip-rule="evenodd" d="M193.242,190.533c-0.112,0.277,0.064,0.419,0.071,0.607
	c0.425-0.077-0.077-0.313,0.135-0.607C193.378,190.533,193.313,190.533,193.242,190.533z"/>
<path fill-rule="evenodd" clip-rule="evenodd" d="M193.578,191.208c0.083,0.594,0.484,0.867,1.015,1.009
	c0.024-0.162-0.124-0.145-0.064-0.336C194.027,192.031,194.039,191.3,193.578,191.208z"/>
<path fill-rule="evenodd" clip-rule="evenodd" d="M247.625,195.317c0.112-0.628-0.696-0.46-1.28-0.336
	c-0.094,0.359,0.224,0.313,0.13,0.675C247.117,195.678,247.56,195.687,247.625,195.317z"/>
<path fill-rule="evenodd" clip-rule="evenodd" d="M256.45,197.002c-0.018,0.359,0.289,0.384,0.608,0.404
	C257.188,196.961,256.692,196.863,256.45,197.002z"/>
<path fill-rule="evenodd" clip-rule="evenodd" d="M247.489,198.217c0.018-0.18-0.094-0.224-0.271-0.203
	C247.152,198.238,247.312,198.234,247.489,198.217z"/>
<path fill-rule="evenodd" clip-rule="evenodd" d="M252.338,198.754c-0.012,0.186,0.224,0.257,0.201,0.472
	c0.342,0.012,0.018-0.227,0.271-0.268c0.142,0.038,0.194,0.168,0.401,0.132c0.153-0.142-0.159-0.415,0.271-0.336
	c-0.065-0.274,0.207-0.469-0.13-0.469c-0.106,0.486-0.484,0.098-0.879,0.136C252.698,198.627,252.338,198.766,252.338,198.754z"/>
<path fill-rule="evenodd" clip-rule="evenodd" d="M254.025,199.161c0.101-0.197,0.366-0.219,0.472-0.407
	c-0.23-0.206-0.731-0.448-0.808,0.068C253.831,198.901,253.819,199.141,254.025,199.161z"/>
<path fill-rule="evenodd" clip-rule="evenodd" d="M211.437,199.565c-0.089-0.006-0.089-0.089-0.201-0.071
	c-0.478,0.59-1.162,0.563-1.817,0.944c0.006,0.168,0.006,0.327-0.065,0.407c-0.224-0.06-0.325-0.493-0.543-0.34
	c0.189,0.439,0.578,0.685,0.543,1.349c0.33-0.156,0.542-0.026,0.938-0.136C210.675,201.002,211.1,200.329,211.437,199.565z"/>
<path fill-rule="evenodd" clip-rule="evenodd" d="M212.646,200.034c-0.13,0.159-0.148,0.431-0.13,0.74
	C212.976,200.866,213.077,200.069,212.646,200.034z"/>
<path fill-rule="evenodd" clip-rule="evenodd" d="M213.389,200.237c-0.065,0-0.13,0-0.201,0c-0.242,0.322-0.035,0.735,0.271,0.877
	C213.832,200.84,213.431,200.633,213.389,200.237z"/>
<path fill-rule="evenodd" clip-rule="evenodd" d="M213.796,200.642c0.088-0.091,0.088-0.25-0.071-0.269
	C213.643,200.462,213.643,200.624,213.796,200.642z"/>
<path fill-rule="evenodd" clip-rule="evenodd" d="M240.345,211.017c-0.106,0.395,0.23,0.377,0,0.811
	c1.215-0.203,1.428,0.944,1.28,2.225c0.543,0.218,1.18,0.345,1.08,1.212c0.212,0.033,0.242-0.12,0.472-0.067
	c0.212-0.575,0.696-0.87,1.215-1.145c-0.183,0.448,0.318,0.218,0.336,0.472c-0.566,0.331-1.003,0.8-1.215,1.481
	c0.041,0.094,0.259,0.012,0.271,0.135c-0.089,0.136-0.325,0.121-0.271,0.404c0.1,0.042,0.619,0.023,0.808-0.067
	c0.071-0.171-0.207-0.321,0-0.404c0.212,0.197,0.761,0.266,0.879-0.133c-0.153-0.239-0.295,0.216-0.407,0
	c0.083-0.283,0.401-0.318,0.472-0.61c0.13,0.032,0.165,0.15,0.336,0.136c0.106-0.162,0.242-0.298,0.407-0.404
	c0.053-0.206-0.188-0.127-0.135-0.336c0.129-0.027,0.118-0.192,0.336-0.136c0.03,0.165-0.124,0.147-0.071,0.339
	c0.277,0.026,0.472-0.023,0.478-0.269c0.023-0.165-0.313,0.035-0.207-0.203c0.077-0.168,0.271-0.225,0.271-0.473
	c-0.018-0.139-0.254-0.062-0.271-0.203c0.201-0.191-0.13-0.209-0.065-0.469c0.147,0.097,0.289,0.203,0.537,0.2
	c0.077-0.079,0.077-0.239,0.065-0.404c0.159,0.165,0.13-0.1,0.336-0.067c-0.419,0.549,0.49,0.51,0.142,0.943
	c0.69,0.302,1.31-0.307,1.617-0.808c-0.083,0.48,0.478,0.324,0.537,0.673c0.153-0.021,0.277-0.08,0.407-0.133
	c0-0.384,0-0.765,0-1.145c-0.407-0.142-0.82-0.039-1.08-0.207c0.266-0.095,0.519-0.197,0.743-0.333
	c-0.047-0.313-0.313-0.41-0.478-0.607c0.507-0.009,0.584,0.409,0.944,0.536c0.289,0.021,0.224-0.315,0.472-0.333
	c0.006,0.106-0.006,0.233,0.142,0.2c0.401-0.111,0.49-0.536,0.531-1.012c-0.189-0.212-0.685-0.117-0.673-0.539
	c0.277,0.091,0.271,0.117,0.608,0.07c-0.047,0.363,0.548,0.08,0.537,0.404c0.289-0.186,0.549-0.257,0.809,0
	c0.153-0.593,0.413-1.08,0.944-1.283c-0.012-0.304-0.083-0.336,0.071-0.537c-0.496,0.257-0.991-0.186-1.345,0
	c0.024-0.177,0.195-0.203,0.201-0.404c-0.147-0.224-0.425,0.147-0.472,0c0.136-0.448,0.874-0.292,1.145-0.607
	c-0.142-0.401-0.1-0.604-0.129-1.147c-0.348,0.009-0.484-0.191-0.744-0.269c0.124-0.127-0.042-0.121,0-0.336
	c-0.259,0.073-0.242-0.239-0.407-0.068c-0.024,0.133,0.088,0.136,0.135,0.204c-0.442-0.127-0.159,0.469-0.542,0.404
	c-0.106-0.006-0.047-0.175-0.201-0.136c-0.266,0.186-0.455,0.442-0.672,0.675c-0.13-0.221-0.336,0.021-0.407-0.203
	c0.277-0.222,0.537-0.457,0.613-0.876c-0.047-0.095-0.259-0.009-0.271-0.133c0.088-0.041,0.012-0.26,0.129-0.271
	c0.466,0.142,0.531-0.401,0.744-0.604c-0.018,0.153,0.012,0.257,0.065,0.336c0.307,0.038,0.224-0.318,0.478-0.336
	c0.602,0.064,0.566,0.215,1.08,0c0.088-0.295-0.166-0.245-0.207-0.404c0.136-0.018,0.06-0.254,0.207-0.271
	c0.183,0.375,0.442,0.271,0.737,0.54c0.301-0.121,0.289-0.563,0.672-0.607c-0.006-0.594,0.207-0.886-0.136-1.213
	c-0.129,0.236-0.336,0.434-0.537,0.271c0.006-0.174,0.26-0.098,0.266-0.271c-0.154-0.088-0.201-0.289-0.401-0.336
	c-0.177,0.047-0.207,0.242-0.407,0.269c-0.124-0.301-0.372-0.688-0.737-0.54c-0.124,0.124-0.018,0.483-0.201,0.54
	c-0.248-0.104-0.336-0.21-0.478-0.54c0.702-0.324,0.85-1.112,0.95-1.616c-0.455-0.018-0.791,0.05-1.08,0.336
	c-0.136-0.124-0.024-0.248,0-0.404c-0.095,0-0.183,0-0.271,0c-0.153,0.46-0.826,0.632-0.407,1.28
	c-0.537,0.071-0.596,0.74-1.209,0.54c-0.065,0.401,0.336,0.336,0.401,0.607c-0.159,0.153-0.242-0.15-0.537-0.067
	c-0.159,0.156,0.012,0.33,0,0.539c-0.159-0.111-0.318-0.224-0.607-0.203c-0.095,0.177-0.307,0.233-0.336,0.472
	c0.106,0.118,0.313,0.139,0.336,0.337c-0.189,0.082-0.643-0.289-0.873,0c0,0.156,0,0.315,0,0.472
	c-0.655-0.112-0.643,0.437-1.009,0.607c-0.036,0.304,0.354,0.18,0.336,0.472c-0.366-0.138-0.083,0.366-0.271,0.401
	c-0.053-0.097-0.171-0.145-0.336-0.133c-0.053,0.286-0.283,0.393-0.407,0.608c0.401-0.045,0.531,0.188,0.679,0.403
	c-0.508-0.15-0.124,0.49-0.271,0.537c-0.071,0-0.083,0.057-0.136,0.068c0.006-0.431-0.401-0.449-0.401-0.873
	c-0.619,0.168-1.498,0.076-1.758,0.604c0.065,0.238-0.059,0.651,0.136,0.943c0.407-0.021,0.726-0.032,1.015,0.269
	c-0.271,0-0.537,0-0.809,0c-0.064,0.283,0.065,0.381,0.195,0.473c-0.083,0.159-0.171,0.321-0.265,0.469
	c-0.354-0.071-0.336-0.514-0.336-0.941c-0.13-0.029-0.171-0.145-0.336-0.133c-0.207-0.053-0.13,0.187-0.336,0.133
	c-0.667-0.351-1.393,0.165-1.752,0.537c-0.136,0-0.271,0-0.407,0c0,0.092,0,0.183,0,0.271c-0.46,0.188-0.714,0.59-0.938,1.012
	c-0.035,0.162,0.118,0.145,0.065,0.336C240.669,211.031,240.51,211.028,240.345,211.017z"/>
<path fill-rule="evenodd" clip-rule="evenodd" d="M214.947,201.179c-0.094-0.018-0.136-0.095-0.271-0.064
	c-0.13,0.126,0.042,0.12,0,0.336c0.083,0,0.177,0,0.271,0C214.947,201.361,214.947,201.273,214.947,201.179z"/>
<path fill-rule="evenodd" clip-rule="evenodd" d="M246.616,201.385c0.018-0.18-0.03-0.292-0.207-0.271
	C246.262,201.294,246.386,201.539,246.616,201.385z"/>
<path fill-rule="evenodd" clip-rule="evenodd" d="M213.124,201.45c0.065,0,0.136,0,0.201,0c0.012-0.147-0.053-0.216-0.201-0.2
	C213.124,201.314,213.124,201.385,213.124,201.45z"/>
<path fill-rule="evenodd" clip-rule="evenodd" d="M252.952,201.99c0.083,0.085,0.248,0.088,0.259-0.068
	C253.129,201.834,252.964,201.834,252.952,201.99z"/>
<path fill-rule="evenodd" clip-rule="evenodd" d="M255.306,204.011c-0.466-0.277-0.702,0.112-0.672,0.673
	c0.083,0.009,0.159,0.021,0.13,0.135C255.176,204.783,255.365,204.518,255.306,204.011z"/>
<path fill-rule="evenodd" clip-rule="evenodd" d="M344.52,210.144c0.035-0.101,0.106-0.169,0.136-0.271
	C344.39,209.792,344.29,210.107,344.52,210.144z"/>
<path fill-rule="evenodd" clip-rule="evenodd" d="M252.61,211.155c0.289,0.062,0.342-0.112,0.407-0.271
	c-0.088-0.092-0.324-0.092-0.407,0C252.61,210.975,252.61,211.063,252.61,211.155z"/>
<path fill-rule="evenodd" clip-rule="evenodd" d="M163.325,212.3c-0.088,0.085-0.065,0.292-0.065,0.472
	c0.543-0.121,0.348,0.501,0.744,0.54c0.307-0.074,0.177-0.584,0.602-0.54c-0.029-0.434,0.301-0.508,0.336-0.876
	c-0.413-0.006-0.495,0.31-0.873,0.336C163.803,211.978,163.585,212.358,163.325,212.3z"/>
<path fill-rule="evenodd" clip-rule="evenodd" d="M231.247,214.456c-0.018,0.153,0.018,0.254,0.136,0.269
	C231.365,214.606,231.454,214.385,231.247,214.456z"/>
<path fill-rule="evenodd" clip-rule="evenodd" d="M229.967,215.264c0.047,0,0.089,0,0.136,0c0-0.067,0.059-0.082,0.065-0.136
	c-0.083-0.003-0.088-0.085-0.201-0.067C229.967,215.128,229.967,215.196,229.967,215.264z"/>
<path fill-rule="evenodd" clip-rule="evenodd" d="M229.696,215.264c-0.283-0.062-0.283,0.159-0.266,0.404
	C229.678,215.691,229.631,215.42,229.696,215.264z"/>
<path fill-rule="evenodd" clip-rule="evenodd" d="M230.103,215.465c-0.077,0.377,0.289,0.393,0.336,0.136
	C230.315,215.571,230.315,215.408,230.103,215.465z"/>
<path fill-rule="evenodd" clip-rule="evenodd" d="M227.613,216.005c0.165,0.009,0.206,0.129,0.265-0.065
	C227.79,215.848,227.631,215.848,227.613,216.005z"/>
<path fill-rule="evenodd" clip-rule="evenodd" d="M229.501,216.14c0-0.168,0.124-0.212-0.071-0.271
	C229.336,215.986,229.212,216.137,229.501,216.14z"/>
<path fill-rule="evenodd" clip-rule="evenodd" d="M167.166,217.688c0.112,0,0.224,0,0.336,0c0.101-0.266,0.484-0.229,0.543-0.536
	c-0.095-0.045-0.13-0.145-0.142-0.269c-0.401,0.111-0.95,0.021-1.546,0C166.399,217.379,167.019,217.297,167.166,217.688z"/>
<path fill-rule="evenodd" clip-rule="evenodd" d="M243.984,216.948c-0.672,0.003-1.186-0.015-1.48,0.472
	c-0.147-0.073-0.183-0.265-0.336-0.336c-0.142,0.032-0.289-0.044-0.478,0c-0.442,0.101-1.888,1.292-1.074,1.752
	c0.531-0.48,1.109-0.911,1.817-1.212c0.13,0.563,0.791,0.371,1.145,0.333c0.496-0.05,1.316,0.147,1.416-0.333
	c0-0.092,0-0.183,0-0.271c-0.454-0.012-0.419,0.062-0.808,0.067C244.156,217.226,243.949,217.211,243.984,216.948z"/>
<path fill-rule="evenodd" clip-rule="evenodd" d="M227.813,217.624c0.525,0.521,1.186-0.263,1.882,0.133
	C229.625,216.939,227.949,216.922,227.813,217.624z"/>
<path fill-rule="evenodd" clip-rule="evenodd" d="M225.861,217.688c-0.059,0.051-0.153,0.378,0,0.404
	C225.961,217.957,226.191,217.754,225.861,217.688z"/>
<path fill-rule="evenodd" clip-rule="evenodd" d="M224.846,219.645c0.419,0.393,0.826-0.133,0.808-0.537
	c-0.006-0.221-0.383-0.359-0.2-0.61c-0.207,0.05-0.248-0.068-0.401-0.068c-0.095,0.216-0.159,0.903,0.065,1.013
	C225.147,219.627,224.87,219.506,224.846,219.645z"/>
<path fill-rule="evenodd" clip-rule="evenodd" d="M344.655,218.7c-0.165,0.027-0.142-0.124-0.336-0.067
	c-0.006,0.118,0.012,0.209,0.065,0.271C344.555,218.913,344.596,218.798,344.655,218.7z"/>
<path fill-rule="evenodd" clip-rule="evenodd" d="M230.504,219.98c-0.136,0.263-0.248,0.814,0.207,0.812
	c0.218-0.315,0.012-0.563,0.065-0.812C230.687,219.98,230.598,219.98,230.504,219.98z"/>
<path fill-rule="evenodd" clip-rule="evenodd" d="M224.174,220.653c-0.042-0.142-0.413-0.062-0.472,0c0,0.047,0,0.092,0,0.139
	C223.784,220.862,224.286,220.978,224.174,220.653z"/>
<path fill-rule="evenodd" clip-rule="evenodd" d="M230.71,221.193c0.088,0.206,0.047,0.263-0.065,0.404
	c0.13,0.183,0.324,0.304,0.537,0.403c0.188-0.18-0.166-0.545,0.2-0.469c0.042-0.242-0.077-0.327-0.136-0.475
	C231,221.034,230.875,221.134,230.71,221.193z"/>
<path fill-rule="evenodd" clip-rule="evenodd" d="M209.619,221.868c0-0.006,0.225,0.042,0.201,0.068
	C209.979,221.774,209.602,221.76,209.619,221.868z"/>
<path fill-rule="evenodd" clip-rule="evenodd" d="M220.062,223.621c0.289,0.038,0.23-0.266,0.478-0.271
	c0.077-0.219-0.224-0.054-0.142-0.269c0.342-0.044,0.537,0.327,0.808,0.136c-0.006-0.483-0.584-0.404-0.602-0.876
	c-0.112,0-0.224,0-0.336,0c-0.1,0.254,0.301,0.012,0.195,0.269C220.044,222.736,220.079,223.243,220.062,223.621z"/>
<path fill-rule="evenodd" clip-rule="evenodd" d="M235.631,223.146c0.035,0.216,0.118,0.378,0.2,0.54
	c0.354-0.082,0.401,0.142,0.673,0.136c0.383-0.286,0.059-0.879,0.2-1.348C236.144,222.058,236.179,223.131,235.631,223.146z"/>
<path fill-rule="evenodd" clip-rule="evenodd" d="M216.356,229.414c0.283,0.106,0.52-0.026,0.879,0.068
	c-0.106,0.262,0.171,0.139,0.201,0.271c-0.047,0.159-0.195,0.406-0.071,0.536c0.378,0.018,0.478-0.241,0.744-0.336
	c0.012-0.216-0.177-0.228-0.13-0.472c0.124-0.027,0.283-0.024,0.26-0.204c-0.354-0.28-0.861-0.041-1.145-0.336
	c0.147-0.115,0.236-0.649,0-0.74c0.224-0.225,0.018-0.511,0.207-0.809c-0.065,0-0.136,0-0.207,0c0.012,0.569-0.59,0.531-0.466,1.213
	c-0.088,0-0.183,0-0.271,0C216.428,228.954,216.38,229.046,216.356,229.414z"/>
<path fill-rule="evenodd" clip-rule="evenodd" d="M213.596,230.898c0.46,0.035,0.118-0.735,0.607-0.676c0-0.092,0-0.18,0-0.269
	c0.437-0.104,0.449-0.625,0.938-0.676c0.064-0.124-0.195-0.224,0-0.269c0.159,0.101,0.289-0.023,0.342,0.068
	c-0.147,0.206-0.218,0.628,0.201,0.604c0.147-0.139-0.036-0.191,0-0.404c0.336,0.023,0.437-0.188,0.537-0.404
	c0.012-0.168-0.1-0.209-0.2-0.268c-0.077,0.1-0.083,0.276-0.201,0.336c-0.1-0.012-0.248,0.023-0.271-0.068
	c0.136-0.108,0.16-0.336,0.136-0.604c-0.1-0.038-0.348,0.08-0.336-0.067c0.095-0.175,0.248-0.292,0.201-0.608
	c-0.743-0.483-0.342,0.864-1.209,0.473c-0.124,0.238,0.225,0.348,0.065,0.404c-0.348-0.21-0.354,0.253-0.678,0.268
	c0.106,0.398,0.012,0.608,0.342,0.812c-0.129,0.095-0.206,0.242-0.407,0.269c-0.006,0.118,0.018,0.209,0.065,0.271
	c-0.083,0.067-0.248,0.064-0.336,0.133C213.324,230.582,213.507,230.691,213.596,230.898z"/>
<path fill-rule="evenodd" clip-rule="evenodd" d="M206.25,228.202c0.425,0.221,0.985,0.015,1.009-0.54
	C206.977,227.665,206.168,227.621,206.25,228.202z"/>
<path fill-rule="evenodd" clip-rule="evenodd" d="M208.204,227.934c-0.313-0.003-0.69-0.063-0.673,0.269
	c0.147,0.191,0.301,0.371,0.673,0.336C208.292,228.329,208.25,228.116,208.204,227.934z"/>
<path fill-rule="evenodd" clip-rule="evenodd" d="M216.356,228.134c-0.106,0.101-0.1,0.384,0.136,0.337
	C216.634,228.338,216.498,228.182,216.356,228.134z"/>
<path fill-rule="evenodd" clip-rule="evenodd" d="M214.604,230.358c0.053-0.23-0.065-0.298-0.201-0.337
	C214.274,230.151,214.333,230.435,214.604,230.358z"/>
<path fill-rule="evenodd" clip-rule="evenodd" d="M215.212,230.154c0.112,0.006,0.177-0.05,0.201-0.133
	C215.307,230.027,215.177,230.013,215.212,230.154z"/>
<path fill-rule="evenodd" clip-rule="evenodd" d="M218.109,230.898c0.484,0.056,0.708-0.354,0.608-0.676
	C218.015,229.904,217.726,230.44,218.109,230.898z"/>
<path fill-rule="evenodd" clip-rule="evenodd" d="M202.41,230.763c-0.153-0.021-0.254,0.015-0.271,0.136
	C202.239,231.001,202.439,230.972,202.41,230.763z"/>
<path fill-rule="evenodd" clip-rule="evenodd" d="M215.548,231.234c0.018,0.098,0.112,0.115,0.136,0.203
	c0.295-0.023,0.407-0.218,0.608-0.339C216.209,230.688,215.619,230.901,215.548,231.234z"/>
<path fill-rule="evenodd" clip-rule="evenodd" d="M202.61,230.898c0,0.064,0,0.135,0,0.2
	C202.805,231.199,202.805,230.798,202.61,230.898z"/>
<path fill-rule="evenodd" clip-rule="evenodd" d="M203.891,230.898c0,0.044,0,0.088,0,0.135c0.065,0,0.136,0,0.201,0
	c0-0.047,0-0.091,0-0.135C204.026,230.898,203.956,230.898,203.891,230.898z"/>
<path fill-rule="evenodd" clip-rule="evenodd" d="M216.693,230.963c-0.118,0.304-0.059,0.652,0.065,0.812
	c0.336,0.038,0.519-0.068,0.478-0.407C217.006,231.284,216.964,231.013,216.693,230.963z"/>
<path fill-rule="evenodd" clip-rule="evenodd" d="M201.201,231.166c0,0.092,0,0.181,0,0.271c0.035,0,0.083,0,0.13,0
	c0-0.091,0-0.18,0-0.271C201.283,231.166,201.236,231.166,201.201,231.166z"/>
<path fill-rule="evenodd" clip-rule="evenodd" d="M187.791,235.275c-0.425-0.142-1.115-0.136-1.222,0.472
	c0.301,0.042,0.236,0.439,0.407,0.608c-0.295-0.098-0.177,0.227-0.407,0.2c-0.112-0.263-0.389-0.369-0.667-0.469
	c0-0.228,0-0.451,0-0.676c-0.242-0.233-0.342,0.05-0.607-0.064c-0.053,0.15,0.124,0.521-0.136,0.469
	c-0.147-0.006-0.03-0.286-0.071-0.404c-0.183-0.136-0.271-0.118-0.537-0.064c-0.36,0.521,0.166,0.908-0.064,1.345
	c0.106,0.228,0.289,0.384,0.336,0.676c0.372-0.077,0.637-0.236,0.873,0.067c0.36-0.39,0.974-0.229,1.28-0.743
	c0.006,0.174,0.224,0.136,0.407,0.136c0.413-0.038,0.242-0.655,0.808-0.54c0-0.112,0-0.224,0-0.336
	c-0.183-0.153-0.726,0.047-0.743-0.269C187.537,235.518,187.791,235.526,187.791,235.275z"/>
<path fill-rule="evenodd" clip-rule="evenodd" d="M190.546,236.087c0.124,0.1,0.212,0.241,0.472,0.2
	c-0.053-0.257,0.236-0.104,0.271-0.404C191.095,235.603,190.664,235.883,190.546,236.087z"/>
<path fill-rule="evenodd" clip-rule="evenodd" d="M188.871,236.895c-0.608-0.12-1.563-0.041-1.693,0.54
	c0.236,0.165,0.555-0.047,0.614-0.269c0.501-0.124,0.548,0.21,0.938,0.201c0.171-0.033,0.188-0.216,0.271-0.337
	c0.366,0.121,0.667,0.147,1.28,0.136c0.118-0.2,0.384-0.527,0.266-0.743C190.027,236.62,189.071,236.385,188.871,236.895z"/>
<path fill-rule="evenodd" clip-rule="evenodd" d="M177.407,242.148c-0.059,0.015-0.212,0.186-0.265,0.203
	c-0.1,0.036-0.236-0.032-0.342,0c-0.342,0.112-0.46,0.563-0.873,0.608c0.053,0.188-0.101,0.171-0.065,0.336
	c0.372,0.095,0.802,0.127,1.145,0.404c0.23,0.009,0.153-0.295,0.336-0.336c0.218,0.029,0.236,0.256,0.472,0.268
	c0.124-0.117-0.094-0.206,0.13-0.268c0.136,0.026,0.177,0.145,0.342,0.136c0.313-0.027,0.253-0.705,0.607-0.476
	c0.101-0.136,0.124-0.578,0.401-0.336c-0.036-0.484,0.596-0.301,0.743-0.604c0.16,0.021,0.124,0.232,0.336,0.2
	c0.029-0.08,0.071-0.153,0.136-0.2c0.188,0.333,0.572-0.089,0.944,0c0.13-0.048-0.018-0.378,0.13-0.404
	c0.165-0.029,0.147,0.121,0.342,0.064c0.083-0.26,0.077-0.46,0.401-0.336c-0.029-0.213,0.124-0.239,0.065-0.472
	c0.095,0.023,0.136,0.097,0.271,0.067c0.147-0.142-0.088-0.197-0.065-0.404c0.655-0.133,0.932-0.232,1.345-0.604
	c0.313-0.006,0.472-0.162,0.478-0.475c0.065,0,0.13,0,0.195,0c0.042-0.216-0.047-0.313-0.065-0.47
	c0.201-0.091,0.419-0.168,0.472-0.403c-0.253-0.074-0.195,0.165-0.407,0.133c-0.554-0.13-0.896,0.539-1.481,0.607
	c-0.029-0.817,1.115-0.457,1.08-1.28c-0.236-0.015-0.295-0.201-0.336-0.404c-0.271-0.067-0.201,0.203-0.472,0.133
	c0.089-0.086,0.089-0.245,0-0.336c-0.448,0.023-0.442,0.504-0.607,0.811c-0.088-0.18-0.354-0.07-0.407-0.136
	c0-0.159,0-0.315,0-0.472c-0.26-0.375-1.003-0.236-1.209-0.203c-0.018-0.054,0-0.133-0.065-0.133
	c-0.142,0.062-0.059,0.348-0.271,0.336c-0.106-0.076-0.142-0.222-0.336-0.203c-0.254-0.003-0.165,0.33-0.407,0.336
	c0.006-0.115-0.012-0.209-0.065-0.269c-0.265-0.018-0.466,0.023-0.542,0.204c0.401,0.103-0.401,0.542,0.071,0.74
	c-0.118,0.133-0.277,0.218-0.207,0.539c0.318,0.065,0.383,0.381,0.613,0.54c0.124,0.029,0.401-0.091,0.336,0.133
	c-0.171,0.106-0.419,0.121-0.542,0.271c-0.118,0.257,0.2,0.419,0.064,0.469c-0.33-0.038-0.489,0.089-0.537,0.34
	c0.088,0.159,0.165,0.327,0.201,0.536c-0.531-0.139-0.101,0.334-0.472,0.404c-0.124-0.053-0.242-0.112-0.401-0.136
	c-0.071,0.136-0.118,0.292-0.271,0.34c-0.236-0.15-0.159,0.136-0.472,0C177.756,242.175,177.525,242.128,177.407,242.148z"/>
<path fill-rule="evenodd" clip-rule="evenodd" d="M184.08,237.771c0,0.064,0,0.135,0,0.2c0.342,0.218,0.791,0.121,0.873-0.269
	C184.711,237.718,184.251,237.364,184.08,237.771z"/>
<path fill-rule="evenodd" clip-rule="evenodd" d="M171.414,244.98c-0.124,0.478-0.726,0.203-0.808,0.607
	c0.035,0.115,0.318-0.006,0.336,0.133c-0.1,0.171-0.336,0.206-0.542,0.271c-0.053,0.245,0.124,0.359,0,0.472
	c-0.13,0-0.271,0-0.401,0c0.018,0.307-0.36,0.222-0.336,0.537c0.213,0.018,0.283-0.118,0.537-0.068
	c0.012-0.079-0.012-0.191,0.071-0.2c0.325-0.059,0.519-0.313,1.009-0.472c0,0.044,0,0.091,0,0.133
	c0.395-0.006,0.525-0.283,0.808-0.401c-0.035-0.641,0.761-0.661,1.074-0.743c0.036-0.162-0.118-0.145-0.065-0.337
	c0.496-0.215,0.514-0.896,0.879-1.212c0.165-0.145,0.424-0.197,0.672-0.2c0.071-0.092,0.106-0.204,0.201-0.271
	c0.207,0.05,0.248-0.068,0.407-0.068c0.024-0.115-0.1-0.174,0-0.2c0.225,0.044,0.644-0.301,0.944-0.404
	c0.077-0.28-0.147-0.263-0.136-0.472c0.136-0.216,0.431-0.431,0.271-0.744c-0.466,0.039-0.861,0.006-0.95-0.336
	c-0.985-0.047-1.664,0.499-2.224,1.08c0.053,0.457,0.047,0.622-0.129,0.94c0.188,0.054,0.478,0.233,0.336,0.404
	c-0.177-0.023-0.572-0.269-0.743,0.071c-0.165-0.039-0.142-0.263-0.401-0.204C171.886,243.759,170.806,244.204,171.414,244.98z"/>
<path fill-rule="evenodd" clip-rule="evenodd" d="M166.759,246.057c0.224-0.159,0.366-0.4,0.342-0.808
	c-0.083-0.077-0.236-0.074-0.407-0.065c0.147-0.142-0.006-0.221-0.065-0.336c-0.218-0.021-0.324,0.076-0.336,0.269
	C166.835,245.163,166.192,246.013,166.759,246.057z"/>
<path fill-rule="evenodd" clip-rule="evenodd" d="M82.802,246.801c0.009,0.171,0.015,0.348,0.203,0.336
	c0.239-0.056,0.23-0.398,0.54-0.204c0.015-0.304-0.372-0.209-0.54-0.336c0.219-0.269-0.174-0.374-0.139-0.673
	c-0.324,0.065-0.554-0.268-0.802-0.472c-0.321,0.086-0.793,0.015-0.947,0.269c-0.183-0.236-0.688-0.634-0.941-0.2
	c-0.602-0.198-1.201,0.188-1.283,0.74c0.504,0.304,1.566,0.257,1.416,1.012c0.277,0.053,0.345-0.106,0.61-0.071
	c0.094,0.104,0.015,0.387,0.263,0.34c0.245-0.115,0.336-0.384,0.54-0.54c0.133,0.183,0.342,0.292,0.679,0.271
	C82.477,247.057,82.492,246.776,82.802,246.801z"/>
<path fill-rule="evenodd" clip-rule="evenodd" d="M164.676,246.261c0.083,0.271,0.23,0.486,0.602,0.472
	c-0.23,0.486,0.584,0.708,0.879,0.339c0.342-0.032,0.342,0.283,0.602,0.337c0.088-0.006,0.1-0.089,0.207-0.071
	c-0.071-0.404,0.189-0.301,0.136-0.805c-0.331-0.301-0.938-0.316-1.215,0.064c-0.26-0.067-0.277,0.035-0.466-0.064
	c0.053-0.08,0.083-0.184,0.065-0.34C165.26,245.972,164.835,246.057,164.676,246.261z"/>
<path fill-rule="evenodd" clip-rule="evenodd" d="M169.661,246.328c0.053-0.26-0.324-0.26-0.271,0
	C169.525,246.44,169.479,246.322,169.661,246.328z"/>
<path fill-rule="evenodd" clip-rule="evenodd" d="M168.983,247.408c0.253,0.162,0.572-0.08,0.614-0.337
	C169.384,246.942,169.089,247.207,168.983,247.408z"/>
<path fill-rule="evenodd" clip-rule="evenodd" d="M164.47,247.137c0.023,0.271-0.118,0.375-0.065,0.676
	c0.448,0.064,0.879,0.067,0.808-0.54C164.895,247.184,164.865,247.019,164.47,247.137z"/>
<path fill-rule="evenodd" clip-rule="evenodd" d="M86.577,247.813c-0.009-0.467-0.499-0.452-0.876-0.54
	C85.736,247.703,86.226,247.686,86.577,247.813z"/>
<path fill-rule="evenodd" clip-rule="evenodd" d="M86.642,247.813c0.16,0.133,0.455,0.133,0.672,0.2
	C87.421,247.452,86.698,247.325,86.642,247.813z"/>
<path fill-rule="evenodd" clip-rule="evenodd" d="M162.718,248.148c-0.047-0.018-0.077-0.056-0.065-0.136
	c-0.572-0.492-0.92,0.177-1.416,0.336c0.035,0.308-0.118,0.422-0.071,0.744c0.2-0.019,0.212,0.15,0.407,0.132
	C161.75,248.547,162.729,249.051,162.718,248.148z"/>
<path fill-rule="evenodd" clip-rule="evenodd" d="M89.203,248.349c-0.065,0-0.133,0-0.204,0c0,0.068,0,0.136,0,0.204
	c0.071,0,0.139,0,0.204,0C89.203,248.484,89.203,248.417,89.203,248.349z"/>
<path fill-rule="evenodd" clip-rule="evenodd" d="M159.957,249.093c0.136-0.531-0.507-0.47-0.401,0
	C159.685,249.093,159.827,249.093,159.957,249.093z"/>
<path fill-rule="evenodd" clip-rule="evenodd" d="M158.942,249.966c0.159,0,0.318,0,0.478,0c0.023-0.225,0.188-0.298,0.135-0.605
	c-0.201-0.029-0.212-0.238-0.472-0.203C158.895,249.267,158.788,249.721,158.942,249.966z"/>
<path fill-rule="evenodd" clip-rule="evenodd" d="M83.273,250.237c0.301,0.46,1.472,0.183,1.817,0.403
	c0.083-0.362,0.053-0.575-0.065-0.876c0.245-0.003,0.295-0.197,0.269-0.472c-0.351-0.038-0.507,0.118-0.873,0.067
	C84.22,249.836,83.474,249.759,83.273,250.237z"/>
<path fill-rule="evenodd" clip-rule="evenodd" d="M142.099,253.47c0.277-0.197,0.69-0.251,1.079-0.336
	c-0.006,0.118,0.018,0.209,0.065,0.271c0.2-0.063,0.212-0.063,0.407,0c0.171-0.26,0.177-0.676,0.472-0.812
	c0.1,0.08,0.277,0.086,0.336,0.203c0.225-0.044,0.331-0.209,0.543-0.268c0.254,0.229,0.832-0.024,0.938,0.472
	c0.248,0.021,0.407,0.133,0.608,0.2c0.271-0.28,0.731-0.018,1.08-0.136c0.112,0.136,0.313,0.187,0.472,0.269
	c0.207,0.035,0.177-0.18,0.336-0.2c0.649,0.038,1.941-0.352,2.496-0.204c0.006-0.165,0.006-0.321-0.065-0.4
	c-0.62,0.123-1.445-0.257-1.959,0.064c-0.07-0.304-0.483-0.194-0.808-0.133c0.024-0.156-0.012-0.26-0.071-0.339
	c-0.572-0.142-1.404,0.599-1.752,0.067c-0.561,0.257-1.251,0.162-1.345-0.469c0.153,0,0.313,0,0.472,0
	c0.1-0.304,0.36-0.448,0.472-0.743c-0.094-1.089-1.858-1.26-1.953-0.271c-0.69,0.021-0.684,0.702-0.608,1.145
	c-0.083,0.079-0.236,0.079-0.407,0.07c-0.088,0.384-0.401,0.667-0.873,0.47c-0.16,0.333-0.602,0.114-0.876,0
	c-0.056,0.268-0.315,0.434-0.604,0.271c-0.162,0.49-1.289,0.068-1.552,0.608C139.921,253.909,141.24,252.782,142.099,253.47z"/>
<path fill-rule="evenodd" clip-rule="evenodd" d="M154.157,250.706c-0.519-0.82-1.793-0.31-1.746,0.743
	C153.125,251.582,153.921,251.267,154.157,250.706z"/>
<path fill-rule="evenodd" clip-rule="evenodd" d="M95.94,250.842c0.221,0.018,0.328-0.08,0.336-0.266
	c-0.036-0.213-0.561-0.292-0.737-0.139C95.716,250.526,95.671,250.845,95.94,250.842z"/>
<path fill-rule="evenodd" clip-rule="evenodd" d="M140.146,251.785c0-0.064,0-0.136,0-0.2c-0.068,0-0.133,0-0.203,0
	C139.93,251.729,139.998,251.797,140.146,251.785z"/>
<path fill-rule="evenodd" clip-rule="evenodd" d="M138.258,252.261c0.015-0.057,0.059-0.08,0.136-0.071
	c0.021-0.153-0.009-0.26-0.065-0.339c-0.071,0-0.139,0-0.204,0C137.978,251.998,138.099,252.222,138.258,252.261z"/>
<path fill-rule="evenodd" clip-rule="evenodd" d="M142.706,251.989c-0.171-0.009-0.324-0.012-0.336,0.133
	C142.505,252.264,142.659,252.125,142.706,251.989z"/>
<path fill-rule="evenodd" clip-rule="evenodd" d="M102.949,254.886c0.118-0.292,0.026-0.784,0.407-0.812
	c0.325,0.228,0.443-0.056,0.941,0.071c-0.021-0.292,0.398-0.145,0.54-0.271c-0.112-0.245-0.434-0.387-0.604-0.2
	c-0.027-0.62,0.634-0.54,0.469-1.08c-0.062-0.212-0.315-0.354-0.469-0.333c-0.419,0.044-0.428,0.958-0.679,1.209
	c-0.212-0.015-0.283,0.121-0.54,0.068c-0.109,0.425-0.649,0.425-0.803,0.808C102.527,254.458,102.583,254.827,102.949,254.886z"/>
<path fill-rule="evenodd" clip-rule="evenodd" d="M131.249,256.773c0.177-0.206,0.204-0.563,0.472-0.676
	c-0.024,0.271,0,0.496,0.204,0.54c0.073-0.194,0.203-0.224,0.404-0.136c0.091-0.085,0.065-0.292,0.065-0.472
	c0.162,0.023,0.127,0.236,0.342,0.203c0.121-0.439,0.59-0.215,0.672-0.604c0.472,0.003,1.23,0.15,1.28-0.676
	c0.183,0.086,0.209,0.325,0.404,0.404c0.248-0.244,0.431-0.48,0.808-0.269c0.05-0.206-0.071-0.247-0.068-0.403
	c0.28,0.053,0.348-0.106,0.336-0.34c-0.112-0.156-0.298-0.241-0.401-0.401c0.331-0.05,0.006-0.406,0-0.539
	c0.015-0.121,0.112-0.156,0.269-0.136c-0.136-0.982-1.26-1.086-1.348-0.34c0-0.021,0.071,0.514,0.133,0.608
	c0.047,0.067,0.174-0.042,0.204,0.067c0.021,0.083-0.147,0.219-0.065,0.339c0.318,0.016,0.366,0.098,0.54,0.13
	c-0.28,0.068-0.295,0.251-0.342,0.407c-0.056-0.147-0.163-0.238-0.401-0.203c-0.091,0.041-0.012,0.26-0.139,0.271
	c-0.504-0.525-1.165,0.304-1.817-0.136c0-0.228,0.266-0.184,0.401-0.269c-0.094-0.343,0.104-0.581-0.129-0.812
	c-0.307-0.035-0.372,0.171-0.475,0.34c-0.218-0.003-0.336-0.115-0.605-0.068c-0.295,0.18-0.209,0.67,0,0.876
	c-0.197,0.026-0.133,0.315-0.271,0.404c-0.053-0.145-0.163-0.239-0.401-0.2c-0.153,0.377,0.033,0.634,0.133,0.943
	c-0.209,0.104-0.351,0.274-0.54,0.401C130.898,256.408,130.883,256.779,131.249,256.773z"/>
<path fill-rule="evenodd" clip-rule="evenodd" d="M107.264,253.538c0.077-0.762-0.879-0.702-0.675-0.068
	C106.751,253.605,107.04,253.649,107.264,253.538z"/>
<path fill-rule="evenodd" clip-rule="evenodd" d="M136.44,253.001c-0.153-0.021-0.253,0.015-0.271,0.133
	c0.091,0.021,0.126,0.094,0.271,0.067C136.44,253.134,136.44,253.065,136.44,253.001z"/>
<path fill-rule="evenodd" clip-rule="evenodd" d="M115.081,253.674c-0.239-0.233-0.499-0.452-0.808-0.608
	c-0.322,0.109-0.475,0.381-0.811,0.473c0.012,0.165,0.012,0.324-0.065,0.406C113.739,254.706,114.96,254.529,115.081,253.674z"/>
<path fill-rule="evenodd" clip-rule="evenodd" d="M149.715,253.334c0,0.071,0,0.136,0,0.204c0.071,0,0.136,0,0.201,0
	c0-0.068,0-0.133,0-0.204C149.851,253.334,149.786,253.334,149.715,253.334z"/>
<path fill-rule="evenodd" clip-rule="evenodd" d="M135.966,253.47c0,0.068,0,0.136,0,0.204c0.434,0.018,0.519,0.448,0.876,0.472
	c0.407,0.026,0.702-0.493,1.145-0.34c-0.065-0.227-0.534-0.147-0.876-0.268c-0.065,0.091-0.059,0.25-0.198,0.268
	c-0.08-0.079-0.077-0.235-0.071-0.4C136.556,253.429,136.148,253.337,135.966,253.47z"/>
<path fill-rule="evenodd" clip-rule="evenodd" d="M138.258,253.605c0.085,0.147,0.519,0.074,0.472-0.136
	C138.618,253.366,138.261,253.396,138.258,253.605z"/>
<path fill-rule="evenodd" clip-rule="evenodd" d="M107.869,253.944c0.097-0.035,0.168-0.103,0.271-0.139
	c-0.021-0.315-0.377-0.298-0.678-0.336C107.459,253.768,107.707,253.815,107.869,253.944z"/>
<path fill-rule="evenodd" clip-rule="evenodd" d="M109.22,253.806c-0.103-0.406-1.05-0.527-0.947,0.139
	C108.485,254.328,109.179,254.414,109.22,253.806z"/>
<path fill-rule="evenodd" clip-rule="evenodd" d="M127.341,255.629c0.132,0.186,0.064,0.561,0.268,0.67
	c0.18-0.047,0.18-0.271,0.271-0.404c0.416,0.015,0.717-0.07,1.15-0.266c0.209,0.077,0.189,0.393,0.469,0.401
	c0.318-0.041,0.463-0.254,0.808-0.269c0.029-0.378,0.177-0.466,0-0.876c0.192-0.209,0.372-0.437,0.472-0.74
	c-0.228-0.18-0.393-0.422-0.874-0.34c-0.091,0.316-0.129,0.685-0.139,1.08c-0.472,0.289-1.262,0.266-1.619,0.673
	c-0.094-0.104-0.26-0.139-0.466-0.133C127.615,255.538,127.467,255.573,127.341,255.629z"/>
<path fill-rule="evenodd" clip-rule="evenodd" d="M125.32,254.818c0.047,0.451,0.717,0.273,0.808,0.675
	c-0.268,0.101-0.401,0.269-0.74,0.136c-0.091,0.086-0.068,0.289-0.068,0.469c0.31,0.007,0.413,0.219,0.744,0.201
	c-0.006,0.191,0.174,0.478,0.472,0.339c-0.038-0.162-0.094-0.307-0.071-0.54c0.218-0.07,0.295-0.009,0.475-0.203
	c-0.147-0.457,0.177-0.607,0.269-0.876c0.392-0.009,0.714-0.092,0.672-0.537c-0.531,0.165-0.717,0.159-1.277,0
	c-0.047-0.775-0.855-0.393-1.62-0.472c-0.029,0.194-0.239,0.212-0.203,0.472C124.919,254.638,124.983,254.865,125.32,254.818z"/>
<path fill-rule="evenodd" clip-rule="evenodd" d="M128.556,253.944c-0.035,0.251-0.094,0.316,0.068,0.47
	C128.975,254.452,128.995,253.827,128.556,253.944z"/>
<path fill-rule="evenodd" clip-rule="evenodd" d="M136.44,254.686c0-0.071,0-0.136,0-0.204c-0.067,0-0.132,0-0.203,0
	c0,0.068,0,0.133,0,0.204C136.308,254.686,136.373,254.686,136.44,254.686z"/>
<path fill-rule="evenodd" clip-rule="evenodd" d="M122.155,255.493c0.623-0.159,0.009-1.348-0.54-0.675
	C121.55,255.322,121.866,255.567,122.155,255.493z"/>
<path fill-rule="evenodd" clip-rule="evenodd" d="M107.193,254.686c0.036,0.368,0.472,0.333,0.54,0.672c0.156,0,0.315,0,0.472,0
	C108.058,254.944,107.757,254.683,107.193,254.686z"/>
<path fill-rule="evenodd" clip-rule="evenodd" d="M109.22,256.369c0.437,0.322,0.853,0.67,1.546,0.741
	c0.377,0.501,0.773,0.981,1.348,1.279c0,0.092,0,0.181,0,0.269c0.419-0.053,0.625-0.315,1.212-0.2
	c0.023-0.251-0.271-0.177-0.201-0.472c-0.401,0.103-0.611-0.349-0.74,0.067c0.056-0.304-0.16-0.336-0.204-0.54
	c-0.968-0.289-1.121-1.395-2.425-1.348c-0.106-0.098-0.263-0.142-0.407-0.203C109.314,256.104,109.182,256.154,109.22,256.369z"/>
<path fill-rule="evenodd" clip-rule="evenodd" d="M123.234,256.57c-0.174-0.271-0.961-0.269-0.678,0.203
	C122.813,256.729,123.27,256.9,123.234,256.57z"/>
<path fill-rule="evenodd" clip-rule="evenodd" d="M120.942,256.906c0.053-0.233-0.065-0.295-0.204-0.336
	C120.583,256.724,120.724,256.927,120.942,256.906z"/>
<path fill-rule="evenodd" clip-rule="evenodd" d="M121.818,257.11c0.209-0.016,0.496,0.044,0.605-0.068
	c-0.136-0.356-0.39-0.225-0.741-0.404c0.003,0.092-0.032,0.147-0.067,0.201C121.916,256.845,121.704,256.995,121.818,257.11z"/>
<path fill-rule="evenodd" clip-rule="evenodd" d="M124.715,257.514c-0.106-0.111-0.31-0.197-0.336,0.065
	C124.477,257.544,124.724,257.658,124.715,257.514z"/>
<path fill-rule="evenodd" clip-rule="evenodd" d="M121.143,258.927c0.283-0.091,0.451-0.905-0.068-0.873
	c-0.077,0.191-0.254,0.28-0.269,0.54C121.037,258.591,120.934,258.915,121.143,258.927z"/>
<path fill-rule="evenodd" clip-rule="evenodd" d="M120.267,259.67c0.392,0.121,0.31-0.229,0.604-0.203
	c0.077-0.321-0.207-0.283-0.133-0.604c-0.289-0.021-0.542-0.006-0.537,0.269C120.435,259.236,120.217,259.381,120.267,259.67z"/>
<path fill-rule="evenodd" clip-rule="evenodd" d="M352.543,214.388c0.165-0.235,0.384-0.628,0.271-0.943
	c-0.531-0.201-1.404-0.145-1.688-0.54c0.171-0.162,0.171-0.499,0.466-0.54c-0.596-0.841-1.039-1.826-1.747-2.558
	c-0.029-0.543-0.542-0.758-0.814-1.145c-0.431-0.625-0.684-1.345-1.145-2.023c-0.614-0.92-1.074-2.109-1.817-2.764
	c-0.319-0.918-0.932-1.534-1.416-2.289c-0.101-0.369-0.224-1.186-0.737-0.876c-0.089-0.298-0.431-0.337-0.608-0.54
	c0.094-0.012,0.059-0.162,0.065-0.269c-0.194-0.079-0.383-0.153-0.537-0.271c-0.242-0.035-0.171,0.239-0.401,0.204
	c-0.159-0.207-0.496-0.23-0.678-0.404c0.348-0.398-0.396-0.525-0.136-1.08c-0.106-0.097-0.313-0.088-0.401-0.2
	c0.218-0.286,0.018-0.442-0.136-0.676c-0.266-0.009-0.619,0.083-0.537-0.269c-0.147-0.041-0.443,0.086-0.478-0.067
	c0.059-0.077,0.094-0.18,0.071-0.337c-0.319-0.241-0.625-0.495-1.145-0.539c-0.1-0.476-0.614-0.575-1.009-0.404
	c-0.212-0.204-0.177-0.749,0.13-0.809c0.035-0.238-0.236-0.165-0.201-0.407c0.425-0.277-0.006-1.114-0.136-1.48
	c-0.372-0.023-0.466,0.074-0.743,0c-0.283-0.489-0.266-1.251-1.209-1.009c0-0.067,0-0.136,0-0.203
	c-0.313,0.105-0.513,0.006-0.808-0.068c-0.095,0.245-0.531,0.147-0.407,0.607c-0.212,0.127-0.437,0.236-0.673,0.337
	c-0.242,0.038-0.165-0.239-0.401-0.201c-0.572,0.407-2.03,0.071-2.159,0.873c0.248,0.098,0.472-0.026,0.672,0.204
	c0,0.067,0,0.136,0,0.2c-0.354,0.168-0.584,0.448-0.808,0.74c-0.336-0.091-0.354,0.142-0.608,0.136
	c-0.118,0.239-0.047,0.558,0,0.809c0.171,0.009,0.348,0.015,0.336,0.203c0.012,0.322-0.277,0.352-0.336,0.608
	c-0.342-0.074-0.413,0.124-0.537,0.269c-0.661,0.053-1.386,0.05-1.688,0.472c-0.159,0.159,0.101,0.127,0.071,0.336
	c-0.561,0.239-1.08,0.104-1.616,0.472c0.188,0.481-0.419,0.511-0.608,0.809c-0.153-0.313-0.525,0.077-0.672-0.067
	c-0.042-0.442,0-0.806,0.2-1.009c-0.159-0.924-0.383-1.776-1.145-2.092c-0.018,0.121-0.118,0.156-0.271,0.136
	c-0.189-0.124-0.313-0.315-0.537-0.404c0.271-0.968-1.026-0.664-1.351-1.145c0-0.159,0.118-0.197,0.065-0.404
	c-0.259-0.232-0.478-0.425-0.873-0.2c-0.053-0.301-0.472-0.245-0.537-0.54c0.153-0.009,0.029-0.286,0.071-0.404
	c-0.702-0.292-1.115-0.864-1.286-1.687c-0.377,0.212-0.755,0.059-1.08-0.133c-0.012-0.127,0.077-0.147,0.07-0.271
	c-0.318-0.277-0.548-0.349-1.009-0.201c-0.177-0.159-0.407-0.269-0.472-0.539c0.549-0.502-0.177-1.077,0.266-1.685
	c0.171,0.009,0.212,0.127,0.336,0c0.159-0.162,0.218-0.664,0-0.809c-0.672-0.044-1.139,0.118-1.817,0.065
	c-0.171,0.301-0.472,0.475-1.009,0.403c-0.106-0.097-0.024-0.383-0.271-0.333c-0.289,0.095-0.614,0.352-0.401,0.74
	c-0.313,0.054-0.36,0.363-0.608,0.473c-0.542-0.266-1.204,0.301-1.681-0.204c0-0.112,0-0.224,0-0.336
	c-0.36-0.183-0.75-0.331-1.145-0.473c-0.225,0.192-0.225,0.499-0.478,0.673c-0.136,0.095-0.449,0.083-0.602,0.204
	c-0.07-0.198-0.437-0.106-0.613-0.204c0-0.112,0-0.221,0-0.333c-0.396-0.274-0.649-0.136-1.074,0
	c-0.236-3.174-0.136-6.861-0.136-10.313c0-21.229,0.053-42.687-0.065-63.678c-0.667,0-1.416,0.434-1.688-0.067
	c0.024-0.104,0.213-0.057,0.136-0.269c-0.283-0.053-0.554-0.191-0.814-0.336c-0.248-0.145-0.46-0.384-0.737-0.473
	c-0.189-0.062-0.867-0.206-0.944-0.203c-0.024,0-0.065,0.153-0.136,0.136c-0.166-0.041-0.39-0.289-0.602-0.337
	c-0.135-0.029-0.248,0.021-0.407,0c0.029-0.177-0.177-0.165-0.271-0.203c-0.271-0.112-0.454-0.257-0.809-0.269
	c-0.418-0.413-1.25-0.749-1.882-1.012c-0.483-0.197-0.814-0.413-1.215-0.136c-0.071-0.062-0.023-0.248-0.201-0.2
	c-0.837,0.059-1.021-0.496-1.687-0.337c0.083,0.006,0.159,0.019,0.136,0.133c-0.277,0.009-0.791,0.298-0.944,0
	c0.177,0,0.36,0,0.542,0c-0.277-0.38-0.837-0.386-1.286-0.336c-0.566,0.062-1.215,0.404-1.746,0.407
	c-0.012,0.076,0.006,0.188-0.071,0.2c-0.183,0-0.36,0-0.537,0c-0.094,0.042-0.012,0.26-0.136,0.269
	c-0.094-0.018-0.301-0.029-0.478-0.136c-0.224,0.31-0.52,0.13-0.873,0.204c-0.384,0.082-0.673,0.422-1.009,0.472
	c-0.484,0.07-0.874-0.194-1.416-0.204c-0.095,0.157,0.177,0.254,0,0.269c-0.242-0.203-0.667-0.224-1.145-0.2
	c-0.124-0.13,0.035-0.121,0-0.336c-0.673,0.132-1.298,0.07-1.682-0.404c-0.796,0.029-1.115-0.413-1.616-0.673
	c-0.225-0.041-0.319,0.044-0.478,0.065c-0.036-0.366-0.49-0.319-0.808-0.404c-0.065,0.587,0.542,0.085,0.678,0.472
	c-0.36,0.086-0.726-0.089-0.879-0.133c-0.974-0.292-2.201-0.109-3.64-0.203c-0.36,0.31-1.321,0.448-1.688,0
	c0.083-0.101,0.283-0.08,0.271-0.269c-0.153-0.095-0.301-0.195-0.537-0.204c-0.077,0.812-1.493,0.216-2.36,0.271
	c-0.077-0.383-0.065-0.374-0.065-0.607c-0.36-0.077-0.49-0.266-0.808-0.067c-0.283-0.198-0.702-0.381-1.015-0.404
	c-0.52-0.045-0.897,0.345-1.546,0.336c-0.425-1.233-2.377-0.463-3.032-1.28c0.077-0.012,0.07-0.106,0.064-0.2
	c-0.478-0.178-0.873-0.349-1.351-0.271c-0.047,0.209,0.236,0.082,0.142,0.336c-0.325-0.136-0.549,0.057-0.95-0.2
	c-0.377,0.289-1.156-0.142-1.545,0.2c-0.112-0.115-0.277-0.165-0.537-0.133c-0.472,0.363-1.003,0.658-1.958,0.537
	c-0.023-0.174-0.195-0.203-0.201-0.404c-0.956-0.101-1.239-0.064-2.224-0.064c-0.112,0.041-0.112,0.203-0.201,0.269
	c-0.59,0.009-1.174,0.123-1.752,0.2c-0.118,0.106-0.088,0.363-0.201,0.475c-0.72-0.513-1.958-0.434-2.761-0.475
	c-0.142-0.006-0.52,0.174-0.543-0.136c0.372-0.053,0.785-0.064,1.08-0.2c-0.112-0.236-0.171-0.328,0-0.54
	c-0.207-0.174-0.478,0.021-0.744,0c-0.142-0.26-0.548-0.257-0.873-0.333c-0.106,0.047,0.012,0.327-0.206,0.268
	c0-0.094,0.029-0.15,0.07-0.203c-0.802-0.003-1.262-0.245-1.958-0.269c0.024-0.197-0.153-0.206-0.13-0.407
	c0.472-0.085,0.501-0.613,0.874-0.805c0.277,0.026,0.472-0.027,0.472-0.269c-0.283-0.277-0.838-0.431-1.345-0.54
	c-0.501-0.109-0.991-0.044-1.416-0.07c-0.644-0.036-1.222-0.286-1.688-0.133c-0.313-0.499-0.838-0.042-1.345,0.067
	c-0.307,0.065-0.631-0.104-0.808,0.136c-0.431-0.257-1.416-0.124-1.953-0.07c-0.319,0.448-0.744,0.79-1.351,0.943
	c-0.212-0.643-1.062-0.513-1.817-0.469c-0.064-0.228-0.248-0.337-0.407-0.475c0.295,0.047,0.183-0.313,0.201-0.537
	c0.053-0.106,0.218-0.101,0.206-0.269c-0.501-0.566-1.434-1.186-2.159-0.944c0.036-0.324-0.236-0.345-0.537-0.339
	c-0.118,0.044,0.006,0.321-0.136,0.339c-0.153-0.229-0.72,0.136-0.808,0.404c0.13,0.095,0.413,0.035,0.336,0.336
	c-0.501-0.313-0.92,0.479-1.48,0.54c0,0.34,0.124,0.416,0.136,0.604c-0.26,0.08-0.384,0.289-0.673,0.34
	c-0.147-0.378-0.885,0.059-1.351,0c-0.088-0.448-0.242-0.419-0.271-0.944c0.466-0.118,0.802,0.045,1.145-0.2
	c0.059,0.188-0.095,0.171-0.065,0.336c0.142,0.127,0.349,0.192,0.543,0.269c0.083-0.215,0.212-0.525,0-0.676
	c0.183-0.003,0.13,0.112,0.266,0c0.147-0.142-0.083-0.197-0.071-0.403c0.177-0.121,0.466-0.121,0.478-0.404
	c-0.095-0.289-0.325-0.442-0.336-0.809c-0.655-0.2-1.458,0.044-1.823-0.336c-0.088,0.136-0.153,0.292-0.336,0.336
	c-0.207-0.599-1.056-0.699-1.752-0.607c-0.271-0.327-0.761-0.074-0.938-0.537c0.519-0.162,0.549-0.283,1.074-0.067
	c-0.047-0.313-0.372-0.352-0.672-0.404c-0.224,0.315-0.802,0.28-1.145,0.472c-0.301-0.26-0.531-0.147-0.944-0.067
	c-0.042,0.162-0.071,0.38-0.071,0.74c-1.84,1.596-3.817,3.546-7.345,3.304c-0.189-0.012-0.507-0.283-0.673,0
	c0.042,0.091,0.26,0.009,0.271,0.136c-0.454,0.159-1.197,0.186-1.888,0.133c-0.501-0.042-1.168-0.133-1.351-0.404
	c0.419-0.346,1.404-0.13,1.688-0.607c-1.133,0.088-2.242,0.46-3.097,0.672c-0.349,0.089-0.702,0.071-1.009,0.207
	c-0.684,0.289-1.239,0.929-1.888,1.209c-0.094,0-0.183,0-0.271,0c-1.404,1.563-3.764,2.168-6.065,2.832
	c-0.778-0.197-2.041-0.162-2.967-0.404c-0.136,0.083-0.259,0.186-0.401,0.269c-1.05,0.277-1.806,0.844-2.625,1.348
	c-0.218,0.378-0.401,0.635-0.679,0.944c-0.596,0.655-1.427,1.056-1.953,1.685c-0.183,0.218-0.171,0.563-0.472,0.672
	c0.088,0.398-0.171,0.696-0.201,0.944c-0.071,0.531,0.083,1.023,0,1.483c-0.136,0.759-0.69,1.036-1.215,1.481
	c-0.637,0.546-1.127,1.274-2.023,1.416c-0.638,0.489-1.505,0.926-2.49,1.012c-0.472,0.038-0.95-0.057-1.416,0
	c-0.271,0.032-0.525,0.159-0.808,0.203c-2.366,0.352-4.962,0.431-7.074,0.065c0.083,1.015,0,1.695-0.136,2.628
	c-0.171,0.212-0.425,0.339-0.342,0.809c-0.655,0.445-1.841,0.561-2.561,0.74c0.018,0.127-0.07,0.147-0.064,0.271
	c0.142,0.203,0.448,0.136,0.607,0c1.552,0.221,3.044,0.507,3.705,1.616c0.431,0.321,0.908,0.239,1.416,0.336
	c2,0.384,3.41,1.67,4.985,2.496c0.018-0.08,0.106-0.074,0.207-0.071c0.189,0.216,0.437,0.375,0.537,0.676
	c0.307-0.08,0.613,0.056,0.808,0.269c0.507,0.026,0.873,0.266,1.145,0.472c0.313,0.233,0.466,0.372,0.743,0.743
	c0.608,0.809,1.15,1.915,1.074,3.101c1.487,0.422,3.304,0.517,4.72,1.009c0.207-0.18-0.177-0.257,0-0.404
	c0.207,0.048,0.248-0.067,0.407-0.067c0.188,0.076,0.218,0.318,0.401,0.407c0.377-0.095,0.631-0.057,0.874,0.129
	c0.395-0.085,0.778,0.003,1.145-0.064c0.708-0.133,1.41-0.558,1.958-0.472c0.336,0.053,0.442,0.397,0.808,0.472
	c-0.118,0.445-0.678,0.445-0.607,1.08c-0.118,0.105-0.313,0.132-0.401,0.268c0.035,0.357-0.047,0.525-0.071,0.812
	c0.596,0.593,1.475,0.905,2.023,1.549c0.236-0.106,0.584-0.035,0.809,0.064c-1.009,0.797-2.088-0.023-2.962-0.469
	c-0.088-0.41-0.484-0.514-0.672-0.812c-0.059-0.315,0.36-0.46,0.336-0.943c-0.879-0.136-1.109-0.918-1.622-1.413
	c-0.189,0.059-0.242,0.248-0.472,0.269c-0.248-0.304-0.59-0.156-1.08-0.269c-0.253,0.101-0.212,0.501-0.672,0.404
	c0.201,0.292,0.159,0.802,0.336,0.943c0.118-0.041-0.006-0.321,0.142-0.339c0.578,0.023,0.726,0.483,0.873,0.944
	c1.015-0.024,1.764,0.209,1.953,1.012c1.209,0.221,1.209,1.274,0.672,2.156c0.212,0.012,0.23,0.221,0.207,0.472
	c0.189-0.009,0.443,0.035,0.537-0.071c-0.118-0.356-0.236-0.301-0.336-0.669c0.396,0.044,0.649-0.28,1.074-0.34
	c0.448-0.062,0.744,0.118,1.08,0.204c0.52,0.13,1.239,0.136,1.552,0.336c0.277,0.18,0.413,0.604,0.537,0.74
	c-0.525-0.235-1.404,0.422-1.551-0.336c-1.363-0.356-1.393,0.982-1.953,1.213c0-0.245,0-0.493,0-0.741
	c-0.348,0.036-0.313-0.313-0.737-0.203c0.153,0.333,0.112,0.705,0.271,1.147c-0.071,0-0.142,0-0.207,0
	c-0.047,0.171,0.266,0.31,0.065,0.404c-0.915-0.363-1.729-0.337-2.555,0.067c-0.188-0.012-0.088-0.321-0.336-0.269
	c-0.336,0.048-0.572,0.189-1.015,0.133c-0.029-0.215-0.289-0.203-0.336-0.404c-0.472-0.032-0.809,0.151-1.209,0
	c-0.761,0.528-1.64-0.021-2.696,0.068c-0.873,0.507-1.758-0.236-1.958-1.012c0.248-0.183,0.513-0.346,0.607-0.673
	c-0.885-0.439,0.189-1.106,0.336-1.552c0.077-0.25-0.165-0.191-0.136-0.403c0.336-0.063,0.59,0.194,0.743-0.065
	c-0.607-0.387-1.593-0.387-2.56-0.339c-1.369,0.064-2.331,0.209-3.439,0.472c-2.283,0.54-4.614,1.46-6.13,2.156
	c-0.012-0.101-0.165-0.062-0.271-0.067c-0.129,0.132-0.218,0.318-0.401,0.403c-3.009,0.853-5.274,2.803-8.153,3.708
	c-0.566,0.178-1.08,0.204-1.487,0.673c0,0.2,0,0.404,0,0.607c0.059,0.015,0.083,0.057,0.071,0.133
	c1.221,0.369,2.366,0.823,3.298,1.484c0.743,0.088,1.357,0.05,2.029,0.135c0.797,0.101,1.499,0.711,2.419,0.401
	c0.224,0.325,0.726-0.012,0.879,0.404c-0.183,0.136-0.401,0.23-0.607,0.339c-0.029,0.213,0.124,0.236,0.071,0.473
	c-0.561,0.298-1.734,0.714-2.088-0.068c0.006-0.368,0.584-0.466,0.401-0.808c-0.443-0.112-0.667,0.533-0.738,1.009
	c0.224,0.536,0.82,0.702,1.274,1.012c0.13,0.864,1.351,0.634,1.487,1.483c-0.053,0.153-0.207,0.2-0.336,0.269
	c-0.006,0.292,0.124,0.378-0.071,0.54c0.383,1.215,1.616,1.386,3.097,1.616c0.903,0.139,1.9,0.242,2.631,0.404
	c0.401,0.091,1.233,0.451,1.623,0.472c1.18,0.065,1.929-0.693,2.891-0.943c0.077-0.021,0.1,0.085,0.207,0.067
	c0.472-0.08,0.761-0.174,1.145-0.136c0.643,0.068,1.25-0.118,1.61-0.136c0.962-0.035,1.782,0.327,2.566,0.676
	c0.254,0.263,0.354,0.682,0.809,0.74c0.2-0.089,0.318-0.263,0.265-0.604c0.472,0.153,0.248-0.384,0.407-0.54
	c0.395-0.032,0.419,0.301,0.672,0.404c-0.236,0.313,0.242,0.478,0.271,0.74c-0.136,0.177-0.059,0.558,0.136,0.607
	c0.266-0.159,0.366-0.486,0.808-0.472c0.077-1.203,0.991-1.563,1.958-1.888c0.195-1.012,2.095-0.324,2.419-1.213
	c0.207,0.048,0.248-0.067,0.407-0.064c0.283,0.023,0.396,0.327,0.607,0.333c-0.029,0,0.201-0.18,0.266-0.2
	c0.195-0.06,0.366,0.003,0.543-0.068c0.065-0.654,0.785-0.654,0.938-1.212c0.23,0.466,0.72,0.679,1.286,0.808
	c0.259,0.476,0.72,0.944,0.466,1.549c-0.466,0.136-0.862,0.759-1.339,0.476c-0.142,0.044,0.012,0.374-0.142,0.403
	c-0.59,0.027-0.979-0.145-1.345-0.339c-0.106,0.145-0.301,0.194-0.472,0.271c0.006,0.48-0.336,0.61-0.265,1.145
	c0.271-0.015,0.206-0.372,0.537-0.336c0.271,0.018,0.366,0.212,0.738,0.136c0.324,0.723,1.315,0.796,1.551,1.616
	c0.083,0.292-0.065,0.693,0,1.012c0.018,0.082,0.177,0.206,0.201,0.333c0.112,0.454,0.289,0.614,0.472,0.947
	c-0.142-0.015-0.029,0.239-0.064,0.333c0.136,0.041,0.23,0.13,0.271,0.271c0.071,0.602-0.708,1.457-1.215,1.483
	c-0.289,0.853-1.168,1.416-2.295,1.213c-0.171,0.026-0.194,0.2-0.401,0.2c-0.584-0.336-1.322,0.162-2.16,0
	c0.065-0.118,0.189-0.168,0.142-0.404c-0.442-0.029-1.274-0.397-1.752-0.403c0.147-0.28-0.059-0.499-0.207-0.676
	c-0.301-0.074-0.336,0.115-0.537,0.136c-0.425-0.354-0.95,0.171-1.209,0.404c0.501,0.194,0.967,0.428,1.145,0.943
	c0.023-0.229-0.036-0.374-0.071-0.536c0.159,0.026,0.147-0.124,0.336-0.068c-0.253,0.257-0.041,0.493,0.136,0.673
	c-0.153-0.018-0.253,0.018-0.271,0.133c0.1,0.059,0.147,0.171,0.135,0.339c-0.596,0.483-0.808,1.351-1.888,1.348
	c-0.053,0.147-0.171,0.23-0.136,0.473c-0.454,0.112-0.696,0.575-1.145,0.74c-0.307,0.115-0.72,0.064-1.145,0.136
	c-0.59-0.422-0.802-0.812-1.687-0.944c-0.006-0.235-0.236-0.257-0.266-0.472c-0.248,0-0.496,0-0.743,0
	c-1.404-0.855-3.345,0.212-3.906,1.08c-0.053,0.206,0.112,0.197,0.065,0.403c-0.336,0.178-0.714,0.464-0.873,0.876
	c-0.059,0.148-0.006,0.372-0.071,0.54c-0.065,0.174-0.248,0.328-0.271,0.47c-0.053,0.383,0.101,0.764,0.207,1.079
	c-0.248-0.015-0.26-0.095-0.472,0c-0.118-0.041,0-0.321-0.136-0.339c-0.047,0.324-0.242,0.437-0.472,0.404
	c0.094,0.221,0.065,0.568,0.071,0.879c-0.455,0.224-0.731,0.619-1.145,0.876c0.012,0.263-0.248,0.247-0.207,0.54
	c-0.478,0.177-0.82,0.84-1.145,1.209c-0.195,0.222-0.466,0.354-0.607,0.54c-0.543,0.711-0.566,1.69,0.265,2.224
	c-0.253-0.085-0.448,0.171-0.737,0.204c-0.59,0.064-1.192-0.139-1.617,0.064c0.112,0.336-0.236,0.216-0.2,0.472
	c-0.106,0.47-0.39,1.419-0.136,2.089c0.242,0.026,0.318,0.219,0.672,0.136c0.124-0.127-0.042-0.121,0-0.336
	c0.531-0.21,1.274-0.086,1.351,0.539c-0.372,0.009-0.537,0.23-0.879,0.269c0.012,0.46,0.23,0.717,0.401,1.012
	c0.36,0.074,0.802-0.012,1.08,0.269c-0.13,0.502,0.112,1.127,0.336,1.481c0.419,0.015,0.69,0.168,1.15,0.135
	c0.166-0.174-0.053-0.72,0.201-0.805c0.708,0.124,0.785,1.156,1.681,0.873c-0.348,0.41-1.15,0.035-1.209,0.607
	c-0.053,0.445,0.714,0.723,1.08,0.607c-0.372,0.378-0.348,1.098,0,1.481c-0.23,0.041-0.625-0.089-0.744,0.067
	c0.083,0.032,0.153,0.071,0.201,0.136c-0.236,0.321-0.731,0.39-0.938,0.74c-0.377-0.038-0.649,0.03-0.678,0.337
	c0.029,0.13,0.147,0.171,0.135,0.336c0.767,0.369,1.292-0.023,2.024-0.203c-0.024,0.434-0.36,0.539-0.809,0.539
	c0.047,0.311,0.354,0.738,0.602,0.944c0.437,0.369,1.038,0.46,1.752,0.54c0.059,0.437,0.449,0.543,0.744,0.74
	c0.265,0.941,1.315,0.968,1.817,1.619c-0.26-0.059-0.242,0.162-0.401,0.201c0.053,0.348,0.271,0.533,0.336,0.876
	c1.77,0.832,4.814,0.396,6.194-0.54c0.455-0.086,0.891-0.186,1.08-0.537c0.265,0.142,0.808,0.065,1.015-0.067
	c0.313-0.61,0.012-1.086,0.271-1.752c-0.207-0.092-0.455-0.136-0.543-0.34c0.236-0.133,0.053-0.336,0.065-0.604
	c0.218-0.083,0.513-0.434,0.743-0.269c-0.065,0.248-0.383,0.242-0.472,0.469c0.012,0.461,0.56,0.384,0.607,0.812
	c-0.242,0.177-0.118,0.667,0.201,0.673c0.183-0.086,0.271-0.269,0.401-0.404c0.248,0.174,0,0.434-0.13,0.604
	c0.118,0.534,0.425,0.876,0.743,1.216c-0.059,0.253,0.083,0.321,0.065,0.539c0.561,0.428,0.838,1.142,1.009,1.953
	c0.277,0.292,0.738,0.734,0.744,1.08c-0.189,0.053-0.171-0.098-0.336-0.068c-0.094,0.596-0.867,0.528-0.808,1.277
	c-0.295,0.064-0.431,0.292-0.543,0.54c0.307,0.286,0.177,0.637,0.336,0.943c0.177,0.325,0.555,0.514,0.744,0.812
	c0.124,0.188,0.059,0.514,0.336,0.604c-0.147,0.578,0.177,0.746,0.136,1.145c-0.053,0.505-0.555,0.581-0.608,0.876
	c0,0.018,0.377,0.304,0.071,0.269c-0.289,0.183-0.13-0.2-0.472-0.133c-0.313,0.162-0.655,0.292-0.944,0.473
	c0.496,0.307,1.245-0.048,1.817,0.136c0.064,0.265,0.147,0.247,0.064,0.539c0.219-0.018,0.502,0.042,0.608-0.07
	c0.118-0.086,0.088-0.318,0.271-0.334c0.118,0,0.23,0,0.342,0c0.165-0.504,1.097-0.247,1.274-0.743
	c-0.106-0.197-0.349,0.109-0.401-0.067c0.136-0.216,0.348-0.457,0.537-0.54c0.596-0.248,1.257-0.59,1.817-0.873
	c0.195,0.186,0.195,0.263,0.142,0.604c0.313-0.088,0.336-0.469,0.466-0.74c0.661-0.398,1.215-0.902,1.953-1.215
	c0.136,0.165,0.384,0.206,0.407,0.475c-0.188,0.009-0.283,0.115-0.266,0.336c0.625,0.15,0.147,1.009,0.873,1.009
	c0.042-0.118-0.2-0.28,0-0.336c0.343,0.145,0.354-0.038,0.602-0.133c0.018,0.053,0.059,0.076,0.142,0.064
	c-0.042,0.49,0.301,0.597,0.466,0.88c0.737-0.192,0.79-0.841,1.079-1.352c0.242-0.035,0.349,0.057,0.407,0.204
	c-0.077,0.197-0.283,0.253-0.271,0.536c0.236,0.077,0.555,0.074,0.809,0.136c0.873,0.882,1.428,2.077,2.088,3.168
	c0.448,0.145,0.997,0.401,1.481,0.136c0.124-0.307,0.342-0.513,0.472-0.811c-0.266-0.089-0.407-0.311-0.336-0.738
	c-0.401-0.07-0.396-0.551-0.472-0.946c0.277-0.038,0.389-0.239,0.472-0.469c-0.177-0.16-0.106-0.366-0.065-0.608
	c0.655-0.153,0.868-0.746,1.28-1.145c0.183,0.283-0.153,0.502-0.064,1.077c-0.342-0.071-0.354,0.188-0.336,0.472
	c0.542,0.266,1.268,0.34,1.209,1.213c0.566,0.59,1.746,0.18,2.159-0.133c0.324,0.445,0.785-0.057,1.08,0.2
	c0.036-0.142-0.088-0.442,0.065-0.472c0.153,0.498,0.324,0.356,0.672,0.472c0.059-0.28-0.153-0.829,0.201-0.809
	c0.36,0.089-0.177,0.699,0.207,0.809c0.142-0.056-0.03-0.431,0.13-0.472c0.012,0.507,0.578,0.472,0.808,0.404
	c-0.242,0.451-0.49,0.902-1.08,1.012c-0.242,0.539-0.484,1.079-0.401,1.952c0.188,0.286,0.478,0.464,0.672,0.741
	c-0.319,0.073-0.407-0.083-0.537-0.201c-0.448,0.543-0.431,1.239-0.542,2.089c-0.106,0.828-0.419,1.613-0.466,2.425
	c0.425,0.079,0.897,0.469,0.537,0.943c-0.183-0.165-0.212-0.33-0.136-0.607c-0.744-0.023-0.903,0.537-1.481,0.676
	c-0.106,0.145-0.194,0.301-0.271,0.472c-0.212,0.191-0.507,0.304-0.678,0.537c-0.136,0.127-0.396,0.091-0.602,0.203
	c-0.596,0.33-2.023,2.188-2.224,2.764c-0.23,0.661,0.259,0.977,0.342,1.481c-0.454,0.168-1.233,0.183-1.286-0.404
	c0.218-0.029,0.413-0.083,0.478-0.269c-0.413-0.209-0.637,0.292-0.885,0.472c-0.46,0.23-0.855,0.531-1.339,0.741
	c-0.189,0.628-0.419,0.421-0.679,0.403c-0.236,0.018,0.166,0.254-0.064,0.271c-0.077-0.056-0.183-0.091-0.336-0.067
	c-0.507,0.396-1.168,0.628-1.823,0.876c-0.442,0.407-0.69,1.015-1.481,1.079c-0.654,0.738-1.522,1.263-1.616,2.558
	c-0.26,0.216-0.448,0.499-0.543,0.876c0.006,0.112,0.189,0.039,0.207,0.136c-0.071,0.156-0.236,0.216-0.207,0.473
	c0.531-0.313,1.033,0.289,1.487,0.472c-0.242,0.124,0.03,0.416-0.201,0.472c-0.118-0.206-0.466-0.286-0.607-0.271
	c0.159-0.209-0.106-0.439-0.271-0.539c-0.389,0.235-1.068,0.123-1.345-0.133c0.088-0.476-0.389-0.378-0.336-0.809
	c-0.024-0.18,0.372,0.064,0.265-0.203c-0.2-0.063-0.613,0.174-0.873,0.271c0.047,0.151-0.277,0.308-0.472,0.337
	c-0.065,0.009-0.095-0.115-0.207-0.136c-0.212-0.035-0.455,0.206-0.537,0c0.136-0.327,0.501-0.038,0.744-0.201
	c-0.325-0.483-0.938,0.08-1.487,0c0.047,0.181-0.136,0.13-0.201,0.201c-0.861,0.168-1.463,0.599-2.289,0.809
	c-0.236,0.327-0.549,0.575-1.015,0.675c-0.065,0.463-0.667,0.525-0.873,0.74c-0.225,0.239-0.23,0.439-0.401,0.673
	c-0.348,0.469-0.838,0.882-1.286,1.145c-0.147,0.511-0.401,0.905-0.873,1.08c-0.625-0.354-0.968,0.183-1.215,0.472
	c-0.201-0.48-0.649,0.142-0.802,0.336c0.136,0.042,0.442-0.082,0.466,0.068c-0.649,0.377-1.357,0.708-1.817,1.283
	c-0.832-0.071-1.422-0.115-2.224,0c-0.177,0.271-0.442,0.454-0.743,0.604c-0.189,0.056-0.171-0.095-0.336-0.068
	c-0.26,0.257-0.525,0.514-0.944,0.608c-0.289-0.454-0.92-0.21-1.215,0.064c-0.124,0.794-0.449,1.39-0.874,1.888
	c-0.354,0.03-0.778,0.269-1.08,0.54c0.042,0.841,0.478,1.734,1.623,1.685c0.478-0.26,1.269-0.213,1.546-0.673
	c0.059-0.191,0.083-0.419,0.136-0.607c0.578-0.563,1.711-0.82,2.896-0.673c0.201,0.023,0.354,0.153,0.537,0.133
	c0.407-0.047,0.661-0.41,1.015-0.404c0.035-0.356-0.153-0.542,0.13-0.672c0.212,0.183,0.348,0.445,0.342,0.672
	c0.266-0.286,0.342-0.009,0.673-0.269c-0.077,0.098-0.077,0.172,0,0.269c0.277-0.053,0.348,0.106,0.607,0.068
	c-0.041-0.59-0.366-0.894-0.737-1.147c-0.106,0.165-0.295,0.254-0.543,0.271c-0.124-0.063-0.207-0.15-0.266-0.271
	c0.738-0.198,1.044-0.835,1.682-1.145c-0.041-0.543-0.649-0.522-0.944-0.809c-0.006-0.365,0.372-0.342,0.602-0.472
	c0.118,0.183,0.49,0.295,0.543,0.607c0.006,0.003-0.124,0.162-0.071,0.269c0.112,0.209,0.407,0.33,0.478,0.54
	c0.006,0.032-0.295,0.413,0.065,0.271c0.189-0.525,0.932-0.133,1.015-0.812c0.407-0.071,0.218,0.451,0.667,0.336
	c-0.036-0.566-0.525-1.13-0.13-1.548c-0.13-0.34-0.425-0.52-0.678-0.741c0.112-0.339,0.802-0.212,0.879,0.068
	c-0.095,0.448,0.212,0.504,0.266,0.805c-0.23-0.123-0.219,0.057-0.401,0.136c0.035,0.844,1.044,0.396,1.351,0.88
	c-0.366-0.115-0.455,0.445-0.879,0.268c-0.112,0.67,0.366,0.756,0.472,1.213c0.396-0.029,0.49-0.36,0.744-0.54
	c-0.012-0.289-0.142-0.489,0.064-0.604c0.147,0.209,0.212,0.507,0.472,0.604c0.183-0.221,0.242-0.566,0.207-1.012
	c0.053-0.118,0.224-0.206,0-0.269c0,0.307-0.242,0.006-0.407,0.068c-0.153,0.162-0.253,0.377-0.478,0.472
	c0.023-0.48,0.483-0.673,0.142-1.145c0.136-0.021,0.177-0.136,0.265-0.203c-0.112,0.469,0.301,0.415,0.407,0.672
	c0.236,0.035,0.165-0.238,0.407-0.2c0.036,0.186,0.071,0.377,0.336,0.336c0.042-0.248-0.147-0.26-0.142-0.472
	c0.207,0.266,0.437,0.101,0.614,0.136c0.159,0.082,0.177,0.313,0.401,0.336c0.277-0.056,0.377-0.298,0.607-0.404
	c-0.023,0.156,0.006,0.26,0.065,0.34c0.212,0.029,0.265-0.098,0.407-0.136c0.012-0.463-0.661-0.398-0.879-0.607
	c-0.047-0.051,0.006-0.172-0.065-0.201c-0.201-0.092-0.496-0.118-0.743-0.136c-0.124,0.118-0.165,0.324-0.336,0.404
	c-0.035-0.236-0.448-0.454-0.266-0.676c0.248-0.003,0.201,0.292,0.537,0.204c0.077-0.646,0.708-1.065,1.009-1.685
	c-0.194-0.381,0.065-0.696,0.271-0.876c-0.307-0.15,0.13-0.479,0.201-0.676c0.147-0.142,0.726-0.212,0.944-0.064
	c-0.053,0.483-0.366,0.714-0.607,1.009c0.224,0.318-0.077,0.684-0.13,0.943c0.407,0.354,0.678-0.091,0.938-0.067
	c0.023,0.003,0.136,0.183,0.207,0.203c0.183,0.054,0.259-0.038,0.466,0c0.295-0.315,0.85-0.362,1.15-0.675
	c0.124-0.28,0.136-0.67,0.608-0.605c-0.012,0.165-0.012,0.325,0.065,0.401c0.171,0.165,0.531,0.145,0.873,0.139
	c0.419-0.245-0.171-0.82,0.336-0.944c0.006,0.313,0.26,0.372,0.207,0.741c0.166,0.006,0.325,0.009,0.401-0.065
	c-0.083,0.555,0.578,0.366,0.678,0.737c-0.083,0.098-0.236,0.13-0.413,0.136c-0.124-0.026-0.047-0.263-0.266-0.203
	c-0.012,0.082,0.012,0.191-0.065,0.203c-0.112-0.115-0.177-0.271-0.407-0.269c-0.147,0.048-0.147,0.257-0.336,0.269
	c0-0.088,0-0.18,0-0.269c-0.59-0.356-0.903,0.225-1.215,0.54c0.177,0.558,0.077,1.318,0.336,1.817
	c0.242-0.147,0.212-0.552,0.472-0.673c0.236,0.413,0.726,0.283,1.015,0.54c0.059-0.233,0.212-0.369,0.336-0.54
	c-0.13-0.257-0.478-0.643-0.472-0.808c0.514-0.019,0.744,0.244,1.08,0.403c0.218-0.392,0.053-0.602,0.136-0.943
	c0.254,0.186,0.413,0.062,0.808,0.067c-0.047,0.36,0.254,0.372,0.466,0.473c0.224,0.05,0-0.311,0.071-0.473
	c0.006-0.018,0.201,0.015,0.201,0c0.053-0.295,0.018-0.549-0.13-0.808c-0.425,0.038-1.062-0.269-1.487-0.071
	c-0.059-0.378-0.448-0.336-0.672-0.401c0-0.091,0-0.18,0-0.269c0.212-0.015,0.224,0.178,0.472,0.133
	c0.082-0.348-0.236-0.191-0.266-0.269c0.147-0.256,0.407-0.406,0.266-0.607c0.389,0.23,0.778-0.118,1.145-0.133
	c0.165-0.082-0.136-0.256,0.07-0.339c0.071,0.056,0.183,0.089,0.331,0.067c0.301-0.241,0.077-0.495,0.142-0.74
	c0.23,0.174,0.49,0.003,0.873,0c0.012-0.191-0.059-0.463,0.136-0.472c0.301,0.056,0.649,0.07,0.808,0.269
	c-0.366,0.315-0.094,0.855-0.401,1.215c-0.036,0.159,0.301-0.038,0.201,0.201c-0.089,0.094-0.319,0.041-0.407,0.136
	c-0.053,0.206,0.118,0.197,0.065,0.403c0.372-0.026,0.466-0.067,0.808,0c-0.254-0.439,0.271-0.489,0.336-0.808
	c-0.147-0.493,0.277-0.623,0.271-1.147c0,0.327,0.242,0.162,0.342,0.271c0.083,0.289-0.342,0.466,0,0.604
	c0.124-0.254,0.425-0.333,0.673-0.469c-0.012-0.396-0.295-0.514-0.472-0.744c0.372,0.216,0.437-0.486,0.873-0.2
	c0.053,0.207-0.183,0.13-0.13,0.333c0.16,0.063,0.289,0.16,0.537,0.136c0.313-0.156,0.177-0.431,0.201-0.604
	c0.106,0.026,0.059,0.21,0.265,0.136c0.118-0.041-0.006-0.321,0.142-0.339c0.207-0.051,0.124,0.186,0.336,0.136
	c0.083-0.251,0.142-0.531,0.331-0.673c0.012,0.171,0.26,0.156,0.342,0.064c0,0.089,0,0.181,0,0.271c0.313-0.038,0.407,0.092,0.608,0
	c0.189-0.218-0.006-0.602,0.201-0.675c0.266,0.07,0.224,0.451,0.537,0.472c0.124-0.239,0.124-0.18,0.342-0.068
	c0.195-0.224,0.212-0.634,0.195-1.076c0.242,0.218,0.271-0.183,0.407-0.271c0.478-0.109,0.838-0.333,1.009-0.74
	c-0.207-0.228-0.419,0.2-0.602,0c0.171-0.213,0.212-0.292,0.065-0.537c0.088,0,0.183,0,0.266,0
	c-0.006-0.599,0.077-1.101,0.342-1.419c0.555-0.082,0.649,0.298,1.145,0.271c0.106-0.254,0.265-0.451,0.2-0.876
	c-0.295-0.168-0.708-0.062-0.873-0.068c0.118-0.126,0.236-0.253,0.336-0.4c0.372,0.076,0.466-0.222,0.808-0.34
	c0.042,0.277,0.212,0.416,0.342,0.608c0.307-0.074,0.861-0.147,1.074,0.067c0-0.431,0.372-0.165,0.407-0.475
	c-0.142-0.242-0.602-0.159-0.744-0.401c-0.035-0.593,0.431-0.274,0.744-0.475c0.053-0.325-0.201-0.34-0.271-0.54
	c-0.006-0.112,0.047-0.168,0.13-0.201c0.578,0.142,0.802,1.106,1.422,0.608c0.183-0.101-0.118-0.277,0.064-0.337
	c0.095,0.021,0.13,0.098,0.271,0.065c0.089-0.381,0.165-0.773,0.673-0.74c-0.012-0.166-0.012-0.325,0.136-0.337
	c0.124,0.168,0.124,0.46,0.401,0.473c0.136,0,0.088-0.184,0.271-0.136c-0.166-0.283,0.165-0.254,0-0.54
	c0.271,0.095,0.212-0.145,0.407-0.133c0.248,0.041,0.396,0.183,0.738,0.133c0.053-0.188-0.094-0.171-0.065-0.336
	c0.159,0.076,0.324,0.383,0.537,0.203c-0.065-0.23-0.342-0.239-0.271-0.607c0.206-0.048,0.2,0.118,0.407,0.067
	c0.059-0.215-0.112-0.209-0.136-0.336c0.153-0.274,0.507-0.346,0.607-0.676c-0.065-0.221-0.324,0.023-0.336-0.336
	c0.26-0.077,0.348-0.454,0.271-0.673c0.26-0.292,0.561-0.561,0.808-0.876c-0.083-0.101-0.295-0.065-0.206-0.339
	c0.307,0.035,0.359,0.321,0.607,0.403c-0.012-0.145,0.236-0.029,0.336-0.064c0.177-0.26-0.283-0.646,0.071-0.879
	c0.466,0.257,0.69-0.183,1.345,0c-0.224-0.835,0.478-0.734,0.744-1.074c0.065-0.292-0.26-0.197-0.271-0.407
	c0.236,0.033,0.042-0.365,0.201-0.403c0.253,0.218,0.826,0.117,0.814,0.607c0.519,0.006,0.732-0.298,0.873-0.676
	c-0.083-0.009-0.194,0.012-0.207-0.067c0.248-0.476,1.092-0.346,1.216-0.944c-0.089-0.064-0.254-0.062-0.271-0.2
	c0.307-0.012,0.401-0.23,0.472-0.473c0.49-0.232,0.761,0.092,1.351,0c0.059-0.117,0.018-0.336,0.13-0.4
	c0.207,0.111,0.325,0.31,0.614,0.336c0.083-0.298,0.431-0.33,0.808-0.336c0.088-0.169-0.201-0.28,0-0.34
	c0.195,0.015,0.331,0.266,0.466,0.136c0.101-0.206,0.03-0.304-0.065-0.472c0.147,0.156,0.225,0.109,0.401,0
	c0.189-0.104-0.118-0.277,0.071-0.339c0.289,0.07,0.307-0.136,0.472-0.201c-0.065-0.342-0.065-0.425,0.2-0.54
	c0.012-0.28-0.33-0.206-0.271-0.539c0.407,0.003,0.69-0.118,0.814-0.404c-0.012-0.301-0.419-0.21-0.407-0.54
	c0.159,0.023,0.254,0.109,0.472,0.07c-0.171-0.279,0.212-0.238,0.336-0.406c-0.059-0.452,0.236-0.555,0.2-0.809
	c0.649,0.15,1.428-0.023,1.552-0.604c0.708-0.077,0.896-0.676,1.08-1.28c0.142,0.145,0.372,0.032,0.472-0.068
	c-0.018-0.342-0.537-0.186-0.407-0.675c-0.354-0.118-0.561-0.378-0.808-0.605c-0.443,0.292-0.897-0.227-1.009-0.675
	c-0.773,0.18-1.074,0.263-1.888,0.067c-0.23,0.086-0.183,0.445-0.537,0.407c0.041-0.339,0.307-0.711-0.136-0.812
	c0.118-0.356,0.466-0.298,0.672-0.269c-0.147-0.279-0.389-0.516-0.2-0.943c0.395-0.026,0.448-0.401,0.873-0.404
	c-0.153-0.879,1.15-0.289,1.215-0.941c0.006-0.289-0.419-0.395-0.271-0.61c0.307,0,0.661,0.032,0.873-0.064
	c0.047-0.239,0.147-0.419,0.142-0.54c0.389-0.174,0.531-0.139,0.873,0.064c0.59-0.177,1.085-0.315,1.617-0.669
	c0.142-0.327,0.289-0.956,0.2-1.283c-0.124,0.015-0.442,0.177-0.542,0c0.147-0.08,0.313-0.139,0.478-0.201
	c0.413,0.28,0.997,0.074,1.41-0.136c0.348-0.646,0.868-1.111,0.879-2.088c-0.242-0.156-0.478-0.266-0.738-0.068
	c-0.106-0.082-0.49-0.224-0.336-0.336c0.171,0.18,0.201-0.082,0.401-0.067c0.625,0.507,0.584-0.449,1.28-0.404
	c0.147-0.457,0.513-0.693,0.944-0.876c-0.006-0.331-0.466-0.207-0.472-0.537c0.059-0.59,0.478-0.832,1.009-0.944
	c0.259-0.212,0.212-0.702,0.607-0.74c0.313-0.032,0.496,0.204,0.608,0.604c0.401-0.006,0.36-0.451,0.873-0.336
	c0.13-0.643-0.207-1.171-0.466-1.752c0.667-0.457,0.973-1.271,2.224-1.145c0.166-0.28,0.738-0.159,1.003-0.34
	c0.242-0.392,0.271-0.761,0.608-1.012c0.49-0.354,1.263-0.139,1.758-0.539c0.035-0.095-0.083-0.349,0.064-0.334
	c0.236,0.095,0.307,0.369,0.472,0.537c0.472,0.092,0.897-0.15,1.209-0.269c0.124,0.301,0.631,0.434,1.015,0.269
	c-0.053,0.242,0.153,0.327,0,0.472c0.396,0.142,0.46,0.617,1.074,0.54c0.377,0.936,1.723,0.655,2.295,1.28
	c-0.442,0.029-0.607-0.26-1.08-0.136c-0.672-0.784-1.41,0.13-2.224,0.136c-0.572,0.003-1.044-0.257-1.215-0.944
	c-0.602-0.183-1.062,0.481-1.817,0.54c-0.513,0.587-1.274,0.924-1.888,1.413c-0.531-0.041-0.973,0.015-1.145,0.339
	c-0.289-0.021-0.442,0.095-0.607,0.201c-0.089,0.46,0.118,0.475-0.065,0.879c0.755,0.271,0.844,0.806,0.608,1.749
	c-0.142,0.063-0.301,0.106-0.401,0.201c-0.029,0.472,0.059,1.053-0.071,1.415c-0.254,0.201-0.614,0.286-0.738,0.608
	c-0.418,0.124-0.648,0.434-0.885,0.74c0,0.136,0,0.271,0,0.404c-0.466,0.295-0.389,1.133-0.737,1.552
	c0.1,0.646,0.785,0.698,1.145,1.076c-0.23,0.21-0.153,0.924,0,1.147c-0.313,0.044-0.401,0.315-0.809,0.269
	c-0.23,0.139-0.2,0.511-0.401,0.809c-0.171,0.25-0.46,0.295-0.472,0.539c-0.018,0.442,0.455,0.496,0.809,0.809
	c-0.136,0.064-0.319,0.083-0.336,0.269c0.13,0.118,0.377,0.118,0.537,0.203c0.095-0.041,0.012-0.26,0.136-0.269
	c0.047,0.089,0.142,0.124,0.271,0.133c-0.118,0.145-0.153,0.201-0.071,0.404c0.283,0.015,0.561,0.023,0.608-0.2
	c-0.065-0.139-0.348-0.06-0.336-0.271c0.242,0.023,0.437-0.009,0.608-0.065c-0.23-0.351,0.377-0.123,0.537-0.271
	c-0.053-0.23,0.065-0.299,0.207-0.337c0.483,0.298,0.85,0.387,1.48,0.269c0.147-0.098-0.041-0.531,0.201-0.537
	c0.212,0.012,0.112,0.334,0.136,0.537c0.207-0.006,0.189,0.213,0.472,0.136c0.023-0.162-0.124-0.147-0.071-0.336
	c0.142,0.142,0.265-0.08,0.407-0.136c-0.047-0.451,0.112-0.693,0.401-0.809c0,0.112,0,0.228,0,0.336
	c0.201-0.018,0.207,0.153,0.407,0.136c0.549-0.289,0.537-0.902,0.737-1.413c0.277,0.204,0.437,0.086,0.679-0.07
	c-0.065,0.342-0.189,0.619-0.142,1.08c0.142,0,0.271,0,0.413,0c0-0.222,0.106-0.337,0.065-0.608c0.112,0,0.224,0,0.336,0
	c-0.042-0.648,0.69-0.726,0.672-1.145c0.159-0.021,0.277-0.082,0.401-0.136c0.088-0.165-0.195-0.28,0-0.336
	c0.13,0.133,0.254,0.021,0.407,0c-0.012-0.215,0.147-0.191,0.336-0.339c0.112-0.153-0.035-0.575,0.271-0.537
	c0.071,0.442,0.023,0.95,0.607,1.012c-0.118-0.327,0.053-0.222,0.201-0.404c0.218,0.115,0.301,0.168,0.2,0.469
	c0.248-0.038,0.537,0.23,0.537-0.136c-0.012-0.235-0.295,0.124-0.266-0.064c0-0.156,0.118-0.197,0.065-0.404
	c-0.189-0.104-0.319-0.263-0.401-0.472c0.342-0.056,0.307,0.274,0.537,0.336c0.212,0.051,0.136-0.186,0.336-0.133
	c-0.047-0.336-0.047-0.359,0.064-0.607c-0.171-0.26-0.519,0.077-0.537-0.336c0.124-0.222,0.242-0.434,0.342-0.676
	c0.124-0.124,0.165-0.006,0.336,0c0.077-0.274,0.254-0.463,0.401-0.673c-0.101-0.156-0.437-0.74,0-0.808
	c0.071,0.336,0.1,0.711,0.201,1.009c-0.189,0.31-0.36,0.628-0.472,1.012c0.13,0.029,0.124,0.191,0.342,0.136
	c0.147-0.101-0.042-0.534,0.195-0.54c0.083,0.101,0.064,0.301,0.271,0.269c0.359-0.381,0.224-1.26,0.879-1.346
	c0.018,0.263-0.289,0.207-0.271,0.47c0.236,0.194,0.749,0.274,1.015,0.07c0.13,0.133,0.242,0.292,0.407,0.401
	c0.26,0.021,0.2-0.289,0.466-0.269c0.225,0.047,0.354,0.186,0.537,0.269c0.454,0.009,0.49-0.41,0.743-0.604
	c-0.029,0.274,0.065,0.425,0.336,0.404c0.437-0.455,0.159-1.271,0.607-1.62c0.047,0.502,0.036,0.608-0.135,0.944
	c0.112,0.142,0.336,0.159,0.607,0.136c-0.13,0.162-0.177,0.407-0.271,0.607c0.897-0.012,2.147-0.006,2.295-1.079
	c-0.094-0.181-0.336-0.163-0.407-0.204c0.136-0.124,0.024-0.245,0-0.404c-0.655-0.082-0.667-0.819-1.41-0.805
	c0-0.092,0-0.184,0-0.271c-0.16-0.095-0.26,0.174-0.271,0c0.159-0.063,0.171-0.274,0.271-0.404c-0.077,0.292,0.136,0.31,0.195,0.472
	c0.206,0,0.407,0,0.607,0c0.012-0.398,0.313-0.699,0.136-1.076c0.501-0.077,0.083-0.658,0.336-0.944
	c-0.554,0.018-0.519-0.558-0.938-0.676c-0.177-0.026-0.271,0.352-0.413,0.136c0.047-0.292,0.413-0.271,0.542-0.472
	c0.088-0.54-0.129-0.77-0.336-1.012c0.678,0.209,1.032-0.254,1.416-0.269c0.012,0.127-0.077,0.147-0.064,0.269
	c0.354-0.147,0.407-0.248,0.743,0c0.1-0.098,0.26-0.139,0.401-0.2c0.012-0.127-0.077-0.15-0.071-0.271
	c0.325,0.073,0.289-0.207,0.608-0.133c-0.065-0.295,0.147-0.301,0.271-0.407c0.047,0.236-0.101,0.26-0.065,0.472
	c0.631-0.304,1.115-0.035,1.882,0c0.047-0.18,0.283-0.165,0.266-0.401c-0.071-0.153-0.331-0.12-0.401-0.271
	c0.201,0-0.094-0.502,0.207-0.404c0.112,0.067,0.071,0.286,0.13,0.404c1.133,0.371,1.08-0.853,1.958-0.944
	c-0.224,0.18-0.183,0.628-0.542,0.676c-0.012,0.256,0.171,0.321,0.207,0.539c-0.16,0-0.201-0.117-0.407-0.07
	c0.171,0.375-0.159,0.239-0.201,0.54c0.166,0.168,0.242,0.428,0.672,0.336c0.171-0.098,0.077-0.46,0.336-0.469
	c0.177,0.056-0.129,0.295,0.071,0.404c0.248,0.07,0.101-0.254,0.336-0.204c-0.1,0.324,0.307,0.139,0.265,0.404
	c-0.165-0.08-0.507,0.139-0.672,0.269c-0.147-0.13-0.484-0.035-0.472,0.203c0.49,0.49,1.517,0.605,2.024,0.068
	c0.372,0.315,0.714-0.327,0.873,0c-0.177,0.28-0.714,0.301-0.537,0.743c0.613,0.13,0.944-0.342,1.28-0.271
	c-0.012,0.165-0.124,0.207,0,0.336c0.118,0.184,0.401-0.218,0.542,0c-0.566,0.337-1.15,0.652-2.029,0.676
	c-0.095,0.08-0.101,0.254-0.195,0.336c-0.26-0.147-0.767,0.074-1.221-0.135c-0.313,0.31-0.672,0.581-0.738,1.145
	c0.071,0.238,0.419,0.209,0.608,0.339c-0.177,0.067-0.389,0.109-0.407,0.336c-0.03,0.21,0.183,0.177,0.206,0.337
	c0.867-0.051,1.092-0.747,1.888-0.877c0.418,0.36,0.661-0.4,1.145-0.403c-0.047-0.352-0.431-0.366-0.478-0.537
	c0.295,0.041,0.377-0.118,0.543-0.204c0.018,0.092,0.094,0.13,0.064,0.269c0.425-0.015,1.056,0.159,1.487-0.136
	c0.295,0.039,0.455,0.219,0.808,0.204c0.455,0.69,1.245,1.05,2.219,1.212c0.177-0.206,0.395-0.374,0.472-0.675
	c-0.083-0.166-0.201,0.123-0.266-0.065c0.195-0.121-0.153-0.416,0-0.472c0.319,0.153,0.455-0.012,0.873,0.203
	c-0.206,0.178-0.224,0.36-0.064,0.604c-0.142,0.083-0.313,0.346-0.207,0.473c0.389,0.064,0.902-0.048,1.08,0.136
	c-0.218,0.073-0.39,0.235-0.466,0.269c0.16,0.168,0.348,0.277,0.466,0c0.153,0.277,0.549,0.307,0.808,0.472
	c0.431-0.257,0.979,0.194,1.015,0.74c0.431-0.07,0.207-0.537,0.065-0.74c0.136,0,0.271,0,0.401,0
	c-0.018,0.156,0.018,0.26,0.071,0.336c0.507,0.032,0.731,0.352,1.009,0.607c-0.366,0.013-0.808-0.047-1.08,0.065
	c-0.006,0.104,0.029,0.251-0.065,0.271c-0.159-0.021-0.26,0.009-0.336,0.067c0.023-0.266-0.023-0.469-0.2-0.539
	c-0.183,0.235-0.136,0.554,0.064,0.74c-0.519,0.356-1.009,0.743-1.209,1.416c0.501,0.009,0.743-0.611,1.145-0.944
	c0.283-0.233,0.631-0.363,0.943-0.537c0.012-0.127,0.042-0.227,0.136-0.271c0.466-0.253,0.82,0.242,1.28,0.271
	c0.336,0.018,0.803-0.266,1.28-0.339c0.52-0.08,1.156-0.174,1.752-0.201c0.283-0.012,0.602,0.095,0.873,0.065
	c0.561-0.053,1.091-0.387,1.623-0.404c0.46-0.015,0.902,0.194,1.345,0.136c0.166,0.08,0.225,0.269,0.472,0.269
	c0.702-0.191,1.08,0.106,1.681,0.203c0.254,0.039,0.543,0.009,0.744,0.068c0.36,0.106,0.637,0.486,0.944,0.54
	c0.354,0.062,0.867-0.257,1.08-0.337c0.266-0.105,0.602-0.067,0.808-0.271c0.083-0.168-0.2-0.277,0-0.336
	c0.295,0.092,0.496,0.711,0.13,0.876c0.018-0.147-0.053-0.215-0.194-0.203c-0.089,0.38-0.266,0.277-0.614,0.339
	c0,0.133,0,0.269,0,0.401c1.032,0.451,2.265,0.705,3.174,1.283c1.015-0.057,1.805,0.368,2.625,0.269
	c0.507-0.063,0.661-0.393,1.074-0.537c0.561-0.197,0.991-0.363,1.487-0.54c0.147-0.422,0.478-1.003,0.944-0.876
	c-0.478,0.352,0.023,1.023,0.129,1.416c-0.147-0.015-0.212,0.053-0.2,0.2c0.012,0.187,0.253,0.153,0.342,0.269
	c-0.118,0.159-0.253,0.286-0.342,0.473c-0.295-0.157,0.207-0.36-0.201-0.404c-0.142,0.018-0.018,0.298-0.136,0.336
	c-0.13,0-0.088-0.183-0.271-0.133c-0.177,0.381-0.525,0.593-0.737,0.944c0.555,0.431,1.475,0.495,1.817,1.145
	c0.313,0.118,0.673,0.218,0.873,0.336c0.52,0.301,1.575,0.584,2.095,0.944c0.053,0.035,0.153,0.041,0.2,0.064
	c0.767,0.41,1.186,1.08,2.024,0.944c0.118,0.062,0.207,0.153,0.271,0.271c0.454-0.016,0.649,0.241,1.003,0.336
	c0.318,0.537,1.038,0.667,1.286,1.28c0.089,0.203-0.035,0.239,0,0.54c0.307,0.584,1.263,0.53,1.274,1.416
	c1.092,0.548,2.036,1.244,2.968,1.952c0.147-0.121,0.277-0.266,0.607-0.203c0.26,0.439,0.531,0.864,1.08,1.012
	c0.023,0.2,0.106,0.342,0.2,0.472c0.201,0,0.401,0,0.608,0c-0.018-0.242,0.201-0.248,0.201-0.472
	c-0.071-0.242-0.313-0.315-0.336-0.607c0.726,0.018,0.484,1,0.743,1.483c0.088-0.228-0.035-0.428,0.065-0.607
	c0.101,0.038,0.348-0.08,0.336,0.067c-0.201,0.044-0.289,0.425-0.136,0.607c-0.289,0.222-0.389,0.23-0.744,0.337
	c-0.047,0.365-0.318,0.669,0,0.876c-0.147,0.095-0.194,0.507-0.129,0.604c0.018,0.142,0.295,0.018,0.336,0.136
	c0.118,0.534,0.613,0.688,0.938,1.012c0.095,0.575,0.407,0.761,0.478,1.213c0.242,0.056,0.325-0.154,0.472,0
	c-0.006,0.105-0.171,0.053-0.136,0.2c0.13,0.127,0.118-0.038,0.336,0c0.083,0.637,0.502,0.938,0.879,1.283c0,0.089,0,0.177,0,0.269
	c0.259-0.077,0.572,0.18,0.808,0.336c-0.124-0.067-0.561-0.006-0.678,0.136c0.259,0.251,0.029,0.602,0,0.944
	c0.277,0.079,0.248,0.07,0.207,0.404c0.112,0.088,0.425-0.024,0.401,0.2c-0.088,0.159-0.301,0.194-0.466,0.271
	c0.047,0.365-0.088,0.546-0.076,0.876c0.407,0.203,0.784-0.147,1.286-0.068c0.165-0.439,0.236-0.853,0.472-1.079
	c0.023,0.115,0.088-0.015,0.201,0c-0.036,0.142-0.171,0.194-0.136,0.407c0.106,0.012,0.253-0.023,0.271,0.067
	c0.035,0.531,0.484,0.785-0.065,1.077c0.053,0.145,0.425-0.026,0.466,0.133c-0.236,0.127-0.165,0.221-0.537,0.136
	c-0.071,0.253,0.253,0.105,0.201,0.336c-0.289,0.225-0.366-0.23-0.744-0.133c0,0.112,0,0.225,0,0.336
	c0.525,0.003,0.773,0.431,1.215,0.676c0.124,0.39,0.425,0.604,0.814,0.74c0.012,0.095,0.112,0.112,0.13,0.204
	c0.029,0.159-0.124,0.145-0.065,0.336c0.16,0,0.313,0,0.472,0c-0.094,0.13,0.047,0.269-0.071,0.469
	c0.23,0.36,0.584,0.788,0.537,1.216c0.566,0.537,0.737,1.466,1.551,1.749c0.124-0.212,0.112-0.566,0.336-0.673
	c-0.366-0.584,0.065-1.723-0.336-2.356c0.218,0.076,0.166-0.109,0.271-0.136c0.083-1.115-0.248-1.82-0.407-2.696
	c0.1,0.077,0.171,0.077,0.271,0c0.018-0.351,0-0.673-0.065-0.943c0.189,0.259,0.407-0.086,0.809,0
	c0.047-0.398,0.69-0.207,0.607-0.741c0.318-0.18,0.903-0.348,1.074-0.672c0.03-0.054-0.042-0.233,0-0.271
	c0.118-0.104,0.36-0.147,0.543-0.133c0.012-0.127-0.077-0.147-0.065-0.271c0.36,0.239,0.483-0.251,0.808-0.269
	c-0.053,0.206,0.065,0.245,0.065,0.404c0.501-0.083,0.702-0.466,0.944-0.809c-0.177-0.097-0.183-0.359-0.336-0.472
	c-0.236-0.053-0.259,0.101-0.478,0.064c0.23-0.259-0.254-0.657-0.13-0.808c0.242,0,0.496,0,0.737,0
	c0.059-0.251,0.23-0.401,0.537-0.404c0.029,0.359,0.194,0.313,0,0.607c0.372,0.065,0.72,0.522,0.607,1.08
	c0.171,0.253,0.69,0.168,0.879,0.4c-0.359,0.083-0.596,0.08-0.879-0.064c-0.248,0.318-0.555,0.673-0.531,1.08
	c0.1,0.094,0.307,0.088,0.401,0.2c-0.336,0,0.024,0.699-0.206,0.809c-0.166-0.178-0.024-0.525-0.466-0.54
	c-0.395,0.525-1.457-0.165-1.953,0.404c0.041,0.206-0.077,0.244-0.077,0.404c0.366,0.183,0.537,0.548,0.743,0.876
	c-0.083,0.094-0.331,0.029-0.331,0.203c0.147,0.162,0.496,0.127,0.537,0.401c-0.183-0.28-0.171,0.168-0.336,0.136
	c-0.242-0.048-0.46-0.629-0.201-0.876c-0.218-0.26-0.572-0.147-0.95-0.334c-0.012,0.098,0.024,0.245-0.065,0.269
	c-0.566-0.386-0.885,0.396-1.28,0.604c-0.064,1.057,0.761,1.741,0.543,2.36c0.501-0.012,0.855,0.486,0.873,0.74
	c-0.271,0.047-0.165-0.283-0.407-0.271c-0.129,0.26-0.206,0.549-0.064,0.743c-0.637,0.549,0.018,1.245-0.136,2.225
	c0.153,0.109,0.253,0.177,0.136,0.404c0.295,0.15,0.431,0.466,0.607,0.74c-0.147,0.209-0.218,0.501-0.607,0.472
	c0-0.067,0-0.136,0-0.2c-0.336,0.062-0.466-0.032-0.673,0.2c0.23,0.257,0.077,0.49,0.271,0.74c0.431-0.147,0.708-0.457,1.145-0.604
	c-0.047-0.339,0.035-0.546,0.13-0.74c-0.319-0.095-0.112-0.72,0.065-0.879c0.183,0.05,0.259,0.401,0.478,0.203
	c0.183-0.227,0.201-0.646,0.266-0.808c0.094,0.021,0.13,0.097,0.271,0.067c-0.342-0.327,0.029-0.817,0.207-1.283
	c-0.165-0.203-0.271-0.401-0.271-0.604c0.248-0.026,0.171,0.271,0.466,0.203c0.095-0.336-0.2-0.286-0.194-0.539
	c0.118,0.003,0.206-0.016,0.266-0.068c0.018-0.266-0.289-0.206-0.266-0.472c0.437,0.112,0.188-0.204,0.401-0.204
	c0.283,0.054,0.177,0.499,0.201,0.812c0.419,0.286,1.398,0.136,1.481-0.336c0.277,0.504,1.221,0.266,1.687,0.269
	c0.118-0.343-0.289-0.157-0.271-0.404c0.36-0.057,0.803-0.06,1.015,0.2c-0.708,0.086-1.322,1.186-0.472,1.483
	c-0.23,0.039-0.035,0.502-0.207,0.605c-0.147-0.431-0.501-0.661-0.672-1.074c-0.743,0.086-1.516,0.054-2.289-0.203
	c-0.425,0.333,0.136,0.979-0.271,1.277c0.071,0.315,0.655,0.115,0.607,0.539c-0.188,0.057-0.171-0.094-0.336-0.067
	c-0.331,0.561-0.808,1.286-1.015,1.752c-0.466-0.419-0.549,0.334-0.737,0.473c0.932,0.301,1.545,0.648,1.817,1.687
	c-0.083-0.006-0.088-0.088-0.201-0.067c0.136,0.248-0.065,0.422,0.071,0.673c-0.49,0.165-0.542,0.764-0.95,1.012
	c-0.112,0.422-0.042,0.781,0.142,1.076c0.236,0.023,0.324,0.104,0.537,0c0.147,0.28,0.195,0.661,0.543,0.74
	c0.112-0.397,0.006-0.61,0.331-0.808c-0.03,0.186,0.253,0.064,0.271,0.203c0.006,0.31-0.053,0.682,0.136,0.809
	c0.448-0.15,0.478,0.064,0.944-0.068c-0.218,0.304,0.018,0.271,0.136,0.54c-0.401,0.596,0.496,1.018,0.201,1.549
	c0.649,0.336,0.808,1.168,1.416,1.552c-0.006,0.206,0.083,0.321,0.129,0.472c0.342,0.059,0.685,0.419,1.08,0.2
	c-0.153-0.266-0.201-0.569-0.201-0.74c0.189,0.13,0.289,0.13,0.472,0c-0.065-0.486-0.118-0.59-0.065-1.147
	c-0.206-0.136-0.425-0.251-0.542-0.469c0.118-0.242,0.159-0.499,0.336-0.812c0.088,0.607,0.194,1.029,0.678,1.352
	c0.212,0.021,0.655,0.064,0.808,0.333c-0.088,0.186-0.366,0.177-0.613,0.203c0.053,0.534,0.702,0.476,0.814,0.944
	c0.407-0.188,0.525,0.092,0.808,0.2c0.325-0.032,0.566-0.041,0.744-0.064c0.153-0.489,0.142-0.974,0.13-1.483
	c-0.036-3.118,0.065-8.34,0.071-12.13c0-1.602,0.136-3.36-0.201-4.245C352.708,214.3,352.596,214.586,352.543,214.388z"/>
<path fill-rule="evenodd" clip-rule="evenodd" d="M201.059,234.738c0.13-0.009,0.047-0.221,0.207-0.203
	c0.142,0.13,0.342,0.194,0.537,0.271c-0.041,0.062-0.153,0.248,0.065,0.2c0.212-0.064-0.071-0.177-0.065-0.269
	c0.094,0,0.147-0.032,0.201-0.067c0.318-0.006,0.271,0.354,0.607,0.336c-0.029-0.472,0.378-0.097,0.543-0.336
	c-0.106-0.274-0.36-0.407-0.743-0.404c-0.018,0.121,0.065,0.339-0.136,0.269c-0.112-0.72-0.962-0.702-1.617-0.873
	C200.581,234.328,200.516,234.515,201.059,234.738z"/>
</svg>
