<svg version="1.1" id="Calque_1" xmlns="http://www.w3.org/2000/svg" xmlns:xlink="http://www.w3.org/1999/xlink" x="0px" y="0px"
	 width="432px" height="432px" viewBox="0 0 432 432" enable-background="new 0 0 432 432" xml:space="preserve">
<path fill-rule="evenodd" clip-rule="evenodd" d="M164.923,260.183c0.184-0.021,0.16-0.242,0.343-0.26
	c-0.112-0.127-0.06-0.274,0.091-0.345c0.012,0.145-0.059,0.374,0.133,0.345c0.281-0.047,0.198-0.463,0.343-0.648
	c0.209,0.158,0.419,0.067,0.607,0.129c0.136,0.045,0.233,0.131,0.39,0.219c0.053,0.174,0.133,0.328,0.218,0.475
	c-0.097,0.095-0.165,0.21-0.132,0.434c0.342-0.111,0.58,0.184,0.736-0.129c0.08-0.258-0.229-0.113-0.301-0.219
	c0.109-0.063,0.115-0.23,0.216-0.301c0.188-0.027,0.026-0.277,0.171-0.26c0.213,0.127-0.086,0.277,0.045,0.431
	c0.339-0.015,0.598,0.248,0.867,0.044c0.047,0.162,0.212,0.106,0.348,0.174c0.094,0.048,0.188,0.175,0.304,0.216
	c0.112,0.038,0.233-0.015,0.343,0.044c0.176,0.089,0.289,0.328,0.48,0.346c0.232,0.023,0.406-0.242,0.689-0.215
	c-0.164,0.103-0.1,0.451-0.17,0.651c-0.012,0.147-0.245,0.071-0.26,0.212c-0.127,0.184,0.174,0.242,0.215,0.393
	c-0.133,0.165-0.304,0.316-0.133,0.475c0.209,0.124,0.428-0.109,0.652-0.174c0.256-0.068,0.581-0.012,0.734-0.213
	c0.053-0.203-0.289-0.412,0.092-0.519c0.006,0.121-0.145,0.079-0.092,0.257c0.08,0.098,0.221,0.104,0.348,0.044
	c-0.336,0.104-0.348,0.841,0,0.953c0.295-0.188,0.197-0.483,0.305-0.782c0.076-0.209,0.229-0.393,0.348-0.604
	c0.105-0.191,0.248-0.422,0.304-0.651c0.079-0.337,0.006-0.697,0.038-1.08c0.039-0.348,0.219-0.894,0.136-1.346
	c0.133-0.17,0.257-0.209,0.257-0.392c0-0.251-0.387-0.351-0.348-0.561c0.111-0.183,0.229-0.216,0.262-0.434
	c0.054-0.362-0.229-0.826-0.171-1.216c0.056-0.383,0.407-0.545,0.561-0.905c0.229-0.536,0.015-0.987-0.085-1.386
	c0.441-0.352,0.787-0.803,0.952-1.434c-0.127-0.334-0.091-0.832-0.13-1.258c0.21-0.15,0.162-0.356,0.26-0.56
	c0.271-0.124,0.346-0.098,0.48-0.304c0.054-0.089,0.08-0.195,0.127-0.26c-0.009,0.221-0.021,0.454,0.13,0.52
	c0.442,0.008,0.437-0.41,0.219-0.693c-0.104-0.13-0.257-0.139-0.219-0.216c0.257-0.085,0.349,0.194,0.604,0.301
	c0.52,0.219,1.269,0.095,1.734,0.393c0.162,0.026,0.313-0.206,0.393,0c-0.003,0.139-0.218,0.073-0.177,0.26
	c0.101,0.218,0.372,0.265,0.304,0.649c0.074,0.085,0.197,0.12,0.304,0.174c-0.269,0.279,0.092,0.495,0.133,0.736
	c0.048,0.331-0.159,0.699-0.133,0.998c0.032,0.315,0.283,0.495,0.349,0.734c0.067,0.266,0.079,0.784,0,0.955
	c-0.092,0.198-0.184,0.445-0.305,0.693c-0.105,0.21-0.318,0.401-0.392,0.602c-0.036,0.106,0,0.254-0.038,0.349
	c-0.063,0.139-0.277,0.235-0.266,0.434c0.135,0.112,0.348,0.147,0.437,0.304c0.133,0.746,0.354,1.404,0.386,2.254
	c0.699,0.393,1.178,1.439,2.21,1.213c0.035-0.325-0.165-0.408-0.216-0.649c0.172-0.188,0.322-0.401,0.438-0.649
	c0.253,0.162,0.146,0.688,0.389,0.864c-0.174-0.041-0.254-0.032-0.389,0.044c-0.039,0.378-0.275,0.464-0.26,0.779
	c0.008,0.215,0.333,0.643,0.43,0.779c0.239,0.339,0.502,0.584,0.824,0.822c0.244,0.184,0.566,0.298,0.736,0.48
	c0.242,0.254,0.178,0.602,0.52,0.693c0.219-0.05,0.033-0.374,0.434-0.307c0.153,0.003,0.035,0.286,0.127,0.346
	c-0.1-0.039-0.112-0.174-0.304-0.131c-0.085,0.198-0.218,0.379-0.343,0.566c-0.127,0.187-0.218,0.432-0.392,0.564
	c-0.36,0.279-0.87,0.206-1.514,0.174c-0.153,0.186-0.386,0.133-0.607,0.213c-0.142,0.055-0.21,0.164-0.349,0.221
	c-0.285,0.111-0.92,0.186-1.342,0.082c-0.412-0.097-0.672-0.755-1.082-0.775c-0.15-0.009-0.349,0.162-0.475,0.127
	c-0.083,0.215-0.045,0.324-0.349,0.346c-0.089,0.209,0.171,0.289,0.089,0.348c-0.239-0.068-0.546,0.012-0.867,0.044
	c-0.346,0.036-0.732,0.077-1.086,0.175c0.041,0.186-0.324,0.313-0.174,0.604c0.666,0.057,1.238-0.291,1.908-0.345
	c1.118-0.089,2.357,0,3.596,0c0.841,0,1.566,0.032,2.295-0.085c0.643-0.106,1.236-0.366,1.861-0.438
	c0.124-0.008,0.269,0.021,0.393,0c0.33-0.053,0.634-0.183,0.953-0.212c0.566-0.056,0.855-0.095,1.256-0.218
	c0.245-0.074,0.461-0.181,0.693-0.26c0.451-0.16,1.003-0.15,1.298-0.52c-0.064-0.195-0.077-0.428-0.127-0.52
	c0.286-0.115,0.346-0.032,0.608,0.039c0.152-0.363,0.896-0.137,0.867-0.69c-0.484-0.375-0.803,0.253-1.216,0.345
	c-0.103-0.1-0.168-0.232-0.392-0.215c-0.219,0.104-0.258,0.313-0.52,0.348c-0.286,0.033-0.602-0.244-0.867-0.174
	c0.127-0.31,0.537-0.334,0.563-0.737c-0.206-0.169-0.428-0.302-0.303-0.693c-0.131-0.003-0.26,0.006-0.26-0.127
	c0.221,0.139,0.2-0.127,0.348-0.174c0.098,0.145,0.15,0.524,0.348,0.431c0.242-0.063-0.014-0.619,0.387-0.52
	c-0.021,0.283-0.327,0.607-0.342,0.908c-0.023,0.325,0.021,0.641,0.342,0.779c0.186-0.003,0.139-0.238,0.222-0.346
	c0.159-0.029,0.162,0.092,0.304,0.086c0.139-0.111-0.106-0.354,0.082-0.389c0.137,0.168,0.045,0.566,0.393,0.519
	c0.118-0.018,0.178-0.2,0.086-0.301c0.244,0.073,0.053-0.292,0.174-0.349c0.142,0.051,0.26,0.293,0.431,0.175
	c0.136-0.198,0.194-0.476,0.222-0.782c0.002-0.117-0.269,0.039-0.26-0.086c0.248-0.091,0.1-0.406,0.171-0.604
	c0.274,0.103-0.026,0.775,0.304,0.826c0.437-0.104,0.029-0.747,0.171-1.045c0.194,0.197,0.019,0.762,0.216,0.953
	c0.445-0.074,0.466-0.576,0.867-0.693c0.05-0.328,0.221-0.531,0.393-0.734c-0.012-0.148-0.071-0.248-0.045-0.434
	c0.251-0.313,0.457-0.673,0.782-0.912c0.669,0.18,0.908-0.365,0.952-0.953c-0.563-0.314-1.646-0.802-1.127-1.646
	c-0.197-0.15-0.044-0.15,0-0.349c-0.397-0.301-0.424-0.784-0.392-1.342c0.315-0.012,0.304-0.348,0.304-0.563
	c0.171-0.083,0.215-0.301,0.478-0.305c0.054-0.197-0.12-0.168-0.085-0.345c0.059-0.101,0.244-0.067,0.342-0.13
	c0.074-0.799,0.561-1.407,0.348-2.34c0.127-0.168,0.166-0.265,0.172-0.477c0-0.189-0.322-0.051-0.301-0.26
	c0.056-0.322-0.021-0.384-0.086-0.649c-0.469-0.156-0.654-0.628-1.171-0.519c-0.15-0.083-0.106-0.354-0.304-0.393
	c-0.248-0.063-0.242,0.135-0.475,0.088c-0.068-0.221-0.163-0.174-0.172-0.478c-0.404-0.218-0.844-0.401-1.044-0.823
	c-0.26,0.009-0.384-0.236-0.52-0.304c-0.062-0.029-0.247,0.077-0.215-0.085c-0.145-0.213,0.118-0.328,0.044-0.608
	c-0.076-0.133-0.304,0.003-0.304-0.13c-0.198-0.156,0.035-0.277,0-0.52c-0.067-0.123-0.28-0.123-0.349-0.129
	c-0.241-0.537-0.725-1.239-1.386-1.342c-0.054-0.204-0.104-0.242-0.044-0.479c-0.184-0.105-0.473-0.104-0.605-0.263
	c0.172-0.431-0.215-0.519-0.345-0.775c0.171-0.236,0.162-0.646,0.431-0.782c0.018-0.561,0.074-0.816,0.348-1.127
	c-0.035-0.295,0.041-0.475,0.133-0.646c0.018-0.06,0.184,0.047,0.216-0.091c0.118-0.216,0.035-0.366,0.126-0.605
	c0.013-0.1,0.21-0.026,0.178-0.174c0.012-0.537-0.203-0.838-0.222-1.342c0.169-0.01,0.222-0.133,0.304-0.219
	c25.768-0.029,51.646,0.059,77.338-0.041c-0.283-0.566-0.127-1.239-0.348-1.82c-0.118-0.318-0.416-0.52-0.475-0.826
	c-0.039-0.213,0.035-0.369,0-0.52c-0.124-0.568-0.461-0.64-0.734-1.037c-0.311-0.449-0.378-1.119-0.915-1.428
	c-0.112-0.104-0.422-0.012-0.475-0.175c0-0.204,0-0.407,0-0.607c-0.065-0.139-0.228-0.206-0.257-0.39
	c-0.059-0.315,0.191-0.46,0.257-0.781c0.165-0.812-0.572-1.425-0.472-2.254c0.539-0.162,0.637-0.434,0.775-1.038
	c0.05-0.213,0.133-0.452,0.13-0.608c0-0.111-0.115-0.244-0.13-0.389c-0.021-0.18,0.068-0.381,0.044-0.52
	c-0.032-0.194-0.215-0.315-0.218-0.475c0.105-0.369,0.351-0.607,0.437-0.997c0.085-0.404-0.06-0.929,0.085-1.257
	c0.098-0.063,0.269-0.047,0.263-0.219c0.032-0.707-0.229-1.303-0.044-1.775c0.064-0.174,0.209-0.359,0.301-0.561
	c0.098-0.221,0.145-0.463,0.307-0.61c-0.056-0.47,0.118-0.714,0.213-1.038c-0.112-0.318-0.387-0.602-0.473-0.997
	c-0.073-0.31-0.059-0.817-0.088-1.083c-0.018-0.129-0.092-0.318-0.089-0.389c0.003-0.104,0.098-0.154,0.089-0.26
	c-0.012-0.086-0.168-0.166-0.089-0.263c-0.067-0.121-0.266-0.106-0.39-0.171c-0.079-0.168-0.277-0.219-0.348-0.39
	c0.032-0.156,0.165-0.212,0.13-0.437c-0.466-0.498-1.05-0.959-1.254-1.558c-0.165-0.476,0.112-0.729,0.124-1.171
	c0.012-0.219-0.165-0.508-0.213-0.867c-0.018-0.147,0.004-0.305,0-0.431c-0.008-0.263-0.365-0.404-0.43-0.566
	c0.229-0.476,0.351-0.994,0.215-1.558c-0.045-0.178-0.171-0.289-0.171-0.479c-0.006-0.103,0.101-0.218,0.126-0.389
	c0.021-0.147-0.025-0.313,0-0.434c0.039-0.18,0.163-0.298,0.172-0.475c0.012-0.186-0.027-0.36-0.086-0.564
	c0.248,0.03,0.363-0.076,0.611-0.043c0.174-0.21,0.018-0.629,0-0.735c0.183-0.091,0.295-0.31,0.472-0.522
	c0.171-0.194,0.407-0.333,0.434-0.563c0.021-0.178-0.118-0.299-0.086-0.52c0.139-0.18,0.407-0.23,0.522-0.434
	c-0.021-0.369-0.142-0.521-0.089-0.864c0.056-0.372,0.404-0.61,0.437-0.911c0.006-0.143-0.073-0.287-0.088-0.434
	c-0.045-0.381,0.056-0.752,0.088-1.125c0.006-0.164-0.047-0.271,0-0.436c0.045-0.178,0.242-0.378,0.26-0.564
	c0.012-0.212-0.162-0.463-0.221-0.692c-0.071-0.271-0.112-0.528-0.127-0.778c0.584-0.455,0.961-1.115,1.431-1.691
	c0.298-0.229,1.51-0.277,1.425-0.736c-0.047-0.287-0.349-0.033-0.432-0.346c0.352-0.439,1.225-0.094,1.514-0.304
	c0.086-0.425,0.455-0.767,0.348-1.127c0.192,0.073,0.446-0.121,0.476-0.345c0.145-0.006,0.336,0.041,0.304-0.13
	c-0.074-0.393-0.531-0.483-0.779-0.693c-0.307-0.266-0.471-0.657-0.819-0.867c-0.36-0.071-0.67-0.263-1.042-0.434
	c-0.359-0.163-0.822-0.286-0.822-0.69c0-0.604,0.726-0.498,0.69-1.215c0.215-0.143,0.359-0.068,0.348-0.301
	c-0.015-0.289-0.245-0.127-0.431-0.307c0.118-0.096,0.448,0.018,0.52-0.131c0.021-0.313-0.334-0.313-0.305-0.604
	c0.019-0.188,0.189-0.162,0.305-0.307c0.619-0.79-0.528-0.997-0.779-1.558c0.051-0.162,0.18-0.248,0.216-0.434
	c-0.343-0.348-0.188-1.156-0.349-1.516c-0.26-0.596-0.923-1.21-1.342-1.691c-0.177-0.203-0.289-0.441-0.434-0.604
	c-0.183-0.207-0.381-0.271-0.479-0.52c-0.082-0.225,0.01-0.549-0.041-0.74c-0.038-0.139-0.277-0.28-0.304-0.475
	c0.08-0.089,0.2-0.287,0.086-0.432c-0.194-0.064-0.458-0.062-0.563-0.218c0.098-0.336,0.387-0.218,0.434-0.52
	c0.064-0.395-0.48-0.743-0.652-1.041c-0.085-0.36-0.244-0.646-0.256-1.085c0.127-0.257,0.283-0.354,0.215-0.649
	c-0.064-0.313-0.492-0.401-0.779-0.475c-0.025-0.15-0.146-0.201-0.126-0.389c0.101-0.301,0.575-0.233,0.599-0.605
	c-0.076-0.198-0.304-0.242-0.473-0.348c-0.138-0.174-0.094-0.301-0.259-0.434c-0.183-0.145-0.401-0.074-0.52-0.259
	c-0.15-0.23,0.042-0.531-0.136-0.867c0.67-0.393,0.455-1.121-0.428-0.997c-0.059-0.257-0.203-0.434-0.171-0.779
	c-0.032-0.115-0.245-0.047-0.224-0.218c-4.133-24.961-8.274-49.922-12.431-74.866c-2.28-0.121-4.599,0.021-6.933-0.085
	c-2.463-0.112-4.943-0.015-7.41-0.133c-4.772-0.221-9.459-0.05-14.164-0.259c-4.538-0.198-8.974-0.021-13.387-0.215
	c-1.613-0.071-3.215,0.026-4.814-0.044c-6.158-0.277-12.318-0.077-18.367-0.348c-2.67-0.115-5.337,0.039-7.968-0.083
	c-1.239-0.059-2.555,0.065-3.597-0.088c-0.32-0.047-0.648,0-0.958,0.044c-0.085,0.18,0.062,0.328,0.133,0.475
	c0.065,0.142,0.13,0.328,0.216,0.478c0.158,0.286,0.459,0.496,0.609,0.779c0.16,0.313,0.204,0.693,0.385,0.997
	c0.091,0.154,0.283,0.269,0.436,0.434c0.148,0.162,0.251,0.372,0.39,0.475c0.271,0.212,0.646,0.263,0.953,0.478
	c-0.074,0.38-0.074,0.584-0.086,0.997c-0.041,0.168,0.187,0.071,0.133,0.259c-0.988,10.295-2.097,20.681-3.124,31.15
	c-1.018,10.357-2.029,20.793-3.165,31.197c-0.817,7.551-1.466,15.224-2.292,22.832c-0.734,6.684-1.339,13.395-1.997,20.017
	c-0.097,0.965-0.253,1.915-0.301,2.858c-0.053,1.047,0.086,2.104,0.13,3.035C163.463,227.054,164.154,243.507,164.923,260.183z"/>
</svg>
