<svg version="1.1" id="Calque_1" xmlns="http://www.w3.org/2000/svg" xmlns:xlink="http://www.w3.org/1999/xlink" x="0px" y="0px"
	 width="432px" height="432px" viewBox="0 0 432 432" enable-background="new 0 0 432 432" xml:space="preserve">
<path fill-rule="evenodd" clip-rule="evenodd" d="M130.064,147.636c0.176,1.307,0.176,2.478,0.076,3.551
	c-0.147,1.514-0.053,3.115-0.159,4.714c-0.101,1.637-0.159,3.31-0.224,4.941c-0.137,3.118-0.319,6.301-0.467,9.038
	c-0.029,0.419,0.094,0.823,0.082,1.239c-0.018,0.204-0.141,0.41-0.158,0.616c-0.184,1.923-0.029,3.92-0.154,5.873
	c-0.094,1.446-0.247,2.894-0.313,4.325c-0.082,1.908-0.123,3.885-0.153,5.64c-0.006,0.407-0.142,0.817-0.153,1.233
	c-0.225,5.138-0.49,10.593-0.701,15.451c-0.385,9.23-0.738,17.743-1.074,26.652c0.271,0.342,0.902,0.321,1.074,0.772
	c-0.013,0.546-0.508,0.617-0.614,1.083c0.46,0.138,0.885,0.165,1.239,0.383c0.725,0.454,1.221,1.628,1.929,2.009
	c0.401,0.221,0.861,0.218,1.387,0.233c0.33-0.118-0.03-0.909,0.313-1.006c0.39,0.097,0.301,0.676,0.696,0.773
	c0.502-0.451,0.949-0.95,1.469-1.389c0.254,0.174,0.425,0.442,0.69,0.616c0.39-0.437,0.495-0.776,1.085-0.77
	c0.438,0,0.791,0.325,1.233,0.304c0.372-0.009,0.685-0.634,1.079-0.617c0.455,0.023,0.691,0.909,1.086,1.083
	c0.348,0.153,0.932,0.097,1.311,0.08c0.85-0.05,1.651-0.416,2.4,0.077c0.377,0.729,0.166,1.407,0.153,2.16
	c-0.13,7.053,0.03,15.472,0.077,22.79c36.795,0,73.592,0,110.387,0c0.98-0.434,1.812-1.269,1.08-2.239
	c-0.118-0.162-0.301-0.413-0.467-0.542c-0.33-0.271-0.861-0.354-1.232-0.617c-0.607-0.431-0.82-1.018-1.156-1.392
	c0.572-0.245,0.525-0.95,1.08-1.006c0.307-0.027,0.707,0.442,1.232,0.542c0.467,0.092,0.768-0.032,1.316,0
	c0.164-0.321,0.578-0.398,0.85-0.616c0.105-1.286,0.047-2.407-0.313-3.401c0.325-0.218,0.838-0.245,1.245-0.383
	c-0.023-0.496,0.549-0.885,0.607-1.392c0.082-0.563-0.177-0.936-0.454-1.39c-0.337,0.162-0.755,0.233-1.085,0.39
	c0.029,0.298-0.242,0.696-0.313,1.153c-0.047,0.339-0.029,0.575,0,0.85c-1.18-1.139-2.171-2.853-1.929-5.174
	c0.826-0.602,1.327-1.496,2.006-2.242c0.631-0.679,1.104-0.95,1.168-1.776c-0.378,0.039-0.295-0.377-0.467-0.54
	c-0.17-0.228-0.406,0.009-0.701-0.157c-0.301,0.292-0.318,0.861-0.69,1.083c-0.591-1.163-1.115-2.39-2.242-3.012
	c-0.277,0.271-0.79,0.301-1.233,0.387c-0.465,0.088-1.014,0.269-1.475,0.077c0.089-0.696,0.089-1.31,0-2.009
	c-0.478,0.13-0.478-0.631-0.613-1.083c0.678-0.422,1.498-0.664,2.088-1.003c0.473-0.271,0.963-0.363,1.699-0.384
	c0.143-0.377,0.62-0.407,0.69-0.849c-0.524-1.248-1.451-2.101-3.085-2.242c-0.148-0.448-0.613-0.82-0.543-1.389
	c0.035-0.28,0.277-0.419,0.389-0.699c0.756,0.224,1.198-0.454,1.854-0.307c0.377,0.083,0.519,0.602,0.85,0.929
	c0.17,0.165,0.513,0.324,0.772,0.537c0.602,0.499,0.673,0.617,1.31,0.696c0.572-0.404,1.558-0.404,2.006-0.929
	c-0.006-0.764-0.401-1.256-0.997-1.62c-0.542,0.154-1.198,0.387-1.699,0.233c-0.301-0.095-0.655-0.106-1.009-0.233
	c0.023-0.407-0.359-0.407-0.46-0.696c0.159-0.555-0.343-2.174,0.384-2.393c0.283-0.097,0.478,0.269,0.85,0.307
	c0.418,0.041,0.896-0.186,1.393-0.157c0.766,0.05,1.209,0.384,1.775,0.623c0.572-0.304,1.41-0.342,1.315-1.315
	c-0.743-0.163-1.003-0.664-1.705-0.693c-0.537-0.77-1.31-1.363-1.31-2.395c0-1.316,1.003-1.407,1.545-2.242
	c0.632-0.973,0.697-1.823,1.162-2.548c0.354,0.085,0.715-0.115,1.157-0.153c0-1.056-0.679-1.437-0.702-2.472
	c1.315-0.085,2.437,0.207,3.48-0.543c-0.111-1.074,0.844-1.793,0.307-2.932c-0.932-0.047-1.634-0.318-2.389-0.542
	c0.188-0.478-0.207-0.882-0.077-1.546c0.366-0.483,0.755-0.947,1.31-1.236c0.555,0.322,0.974,1.077,1.623,1.313
	c0.66,0.239,1.297-0.115,1.935-0.537c0.142-0.345,0.136-0.838,0.229-1.239c-0.199-0.301-0.465-0.221-0.695-0.31
	c-0.219-0.083-0.714-0.133-0.85-0.383c-0.023-0.039,0.07-0.168,0.076-0.31c0.065-1.41,0.479-3.396,1.239-3.864
	c0.708,0.085,1.145,0.445,1.616,0.772c0.33-0.245,0.927-0.206,1.233-0.463c0.188-0.23,0.235-0.599,0.466-0.773
	c-0.406-0.51-0.596-1.212-0.996-1.699c-0.266-0.315-0.656-0.424-0.855-0.77c0.193-1.192,1.156-0.982,2.477-1.083
	c0.626-0.05,1.316-0.068,1.699-0.233c0.189-0.085,0.16-0.191,0.308-0.31c0.507-0.428,1.103-0.552,1.853-0.696
	c0.289-0.69,1.021-0.746,1.156-1.466c0.165-0.85-0.632-1.466-0.696-2.396c-0.071-1.1,0.448-1.534,1.009-2.395
	c0.177-0.307,0.478,0.292,0.466-0.077c0.472-1.747-0.743-2.145-1.162-3.242c-0.266-0.688-0.206-1.289-0.236-2.322
	c0.295-0.198,0.372-0.607,0.779-0.693c0.177,0.201,0.136,0.628,0.307,0.85c0.212-0.003,0.472,0.608,0.69,0.85
	c0.283-0.112,0.543-0.23,0.932-0.233c0.561-0.699,1.346-1.177,1.776-2.006c-0.325-0.139-0.325-0.605-0.467-0.926
	c-1.286-0.083-2.714-0.018-3.397-0.699c0.289-0.212-0.048-0.375-0.077-0.693c0.466-0.301,0.566-0.679,1.08-0.696
	c0.831-0.023,0.59,0.531,1.162,0.773c0.53,0.221,0.926,0.112,1.546-0.077c0.377-0.797,0.105-1.54-0.154-2.163
	c-0.483-1.139-0.142-1.501,0.696-2.165c1.109-0.103,1.9-1.147,2.933-0.31c-0.018-0.342-0.153-0.561-0.153-0.926
	c0.737-0.269,1.428-0.578,2.241-0.773c0.39-1.074,1.806-1.127,2.467-1.932c0.147-2.124-1.428-2.531-2.236-3.708
	c0.543-0.1,0.631-0.655,1.003-0.923c0.696-0.15,1.263-0.442,2.006-0.542c0.242-0.301,0.46-0.62,0.778-0.85
	c-0.006-0.802,0.366-1.23,0.39-2.009c0.023-0.251,0.324-0.242,0.454-0.383c-0.395-1.136,1.292-2.372,1.936-2.398
	c0.495-0.018,0.85,0.38,1.31,0.543c0.206-0.546,0.861-0.788,1.009-1.469c0.095-0.454,0.047-1.481-0.153-2.083
	c-0.194-0.578-1.363-1.97-1.781-2.088c-0.461-0.13-0.892,0.097-1.311,0c-0.448-0.422-1.339-0.979-0.85-1.853
	c0.597-0.333,1.481-0.375,1.93-0.85c-0.153-1.737,0.673-2.236,0.92-3.398c0.714-0.416,1.133-1.325,1.858-1.699
	c0.396-0.207,0.838-0.059,1.162-0.389c-0.018-0.584,0.019-1.112,0.154-1.543c-0.425-0.655-0.154-1.463,0.082-2.165
	c0.625-0.006,1.404-0.289,2.083-0.233c0.431,0.038,0.684,0.268,1.003,0.233c0.2-0.104,0.295-0.325,0.542-0.384
	c0.343-1.69-0.548-3.348,0.153-4.557c0.172-0.304,0.561-0.455,0.768-0.699c0.489-0.566,0.584-1.218,0.082-1.699
	c-0.419,0.009-0.761,0.723-1.315,0.85c-0.654-0.142-1.232-0.363-1.54-0.85c0.349-0.307,0.077-0.761,0.23-1.233
	c0.271-0.318,0.472-0.714,0.767-1.006c0.248,0.127,0.419,0.036,0.702,0c0.442-0.767,0.95-1.46,2.165-1.469
	c1.139-0.679,0.979-2.549,2.23-2.782c0.472-0.085,0.95,0.342,1.398,0.233c0.124-0.029,0.229-0.195,0.454-0.233
	c0.188-0.295,0.437-0.879,0.39-1.156c-0.638-0.602-1.646-0.826-2.396-1.316c-0.147-1.1,0.442-1.861,1.086-1.929
	c0.094-0.009,1.067,0.198,1.156,0.233c0.142,0.053,0.082,0.2,0.229,0.31c0.396,0.289,1.003,0.372,1.233,0.616
	c0.313-0.159,0.714-0.218,0.932-0.466c-0.1-1.531-1.304-2.065-2.318-3.088c-0.519-0.531-1.021-1.552-1.622-1.699
	c-0.543-0.136-1.658,0.033-2.696,0.08c-3.64,0.159-7.522,0.106-11.05,0.304c-2.785,0.16-6.555,0.363-9.428,0.233
	c0.242-0.696,0.814-1.065,0.625-2.009c0.555-0.517,1.098-1.053,1.233-2.006c0.454-0.198,0.442-0.59,0.767-0.926
	c0.909-0.935,2.531-1.174,2.396-2.935c0.483-0.51,0.891-1.006,1.469-1.466c0.655-0.528,1.528-0.896,2.006-1.548
	c0.172-0.23,0.165-0.628,0.39-0.926c0.219-0.289,0.661-0.469,0.927-0.773c0.064-0.083,0.006-0.218,0.076-0.31
	c0.059-0.08,0.248-0.074,0.307-0.154c0.36-0.445,0.466-0.855,0.543-1.469c-0.767-0.926,0.188-2.159,0-3.242
	c-0.301-0.369-0.673-0.67-0.997-1.006c-0.814-0.171-1.475-0.49-1.935-1.003c0.383-0.23,0.165-0.747,0.307-1.083
	c-0.384-0.492-0.578-1.168-1.003-1.622c-4.242,0.109-8.419-0.033-12.667,0.156c-3.652,0.159-7.327-0.071-10.973,0.077
	c-3.9,0.153-8.496-0.032-12.201,0.233c-3.145,0.221-6.324-0.062-9.428,0.074c-3.197,0.142-6.383-0.071-9.734,0.077
	c-5.162,0.23-10.336,0.021-15.45,0.233c-0.696,0.032-1.404-0.065-2.083,0c-0.295,0.026-0.395,0.156-0.701,0.156
	c-0.295,0-0.614-0.136-0.921-0.156c-1.434-0.098-2.927,0.062-4.407,0.077c-2.194,0.026-4.619-0.044-6.643,0.08
	c-6.254,0.377-12.142,0.006-17.841-0.08c-1.675-0.027-3.421-0.074-5.097,0c-2.16,0.094-4.378-0.056-6.106-0.077
	c-2.755-0.033-5.705,0.2-8.343,0c-5.368-0.41-11.168,0.126-16.684-0.157c-0.46-0.023-0.949-0.129-1.393-0.153
	c-3.457-0.153-6.996,0.204-10.424-0.074c-2.997-0.248-6.301,0.006-9.428-0.156c-0.726-0.038-1.575-0.174-2.473-0.077
	c0.467,4.174,0.873,8.218,1.393,12.513C127.261,124.695,128.536,136.079,130.064,147.636z"/>
</svg>
