<?xml version="1.0" encoding="utf-8"?>
<!-- Generator: Adobe Illustrator 16.0.0, SVG Export Plug-In . SVG Version: 6.00 Build 0)  -->
<!DOCTYPE svg PUBLIC "-//W3C//DTD SVG 1.1//EN" "http://www.w3.org/Graphics/SVG/1.1/DTD/svg11.dtd">
<svg version="1.1" id="Calque_1" xmlns="http://www.w3.org/2000/svg" xmlns:xlink="http://www.w3.org/1999/xlink" x="0px" y="0px"
	 width="432px" height="432px" viewBox="0 0 432 432" enable-background="new 0 0 432 432" xml:space="preserve">
<path fill-rule="evenodd" clip-rule="evenodd" d="M142.071,231.438c1.705,0.773,3.498,1.339,5.227,2.059
	c1.765,0.737,3.575,1.307,5.363,1.982c1.752,0.669,3.463,1.448,5.215,2.132c3.517,1.378,7.063,2.693,10.726,3.894
	c0.466,0.153,0.944,0.274,1.398,0.442c0.437,0.159,0.814,0.434,1.251,0.587c1.864,0.658,3.64,1.266,5.439,1.912
	c1.841,0.664,3.675,1.236,5.428,1.909c0.885,0.342,1.704,0.752,2.578,1.106c2.171,0.879,4.454,1.578,6.689,2.348
	c2.207,0.761,4.372,1.61,6.537,2.499c1.067,0.437,2.07,0.932,3.156,1.327c2.266,0.812,4.543,1.611,6.69,2.422
	c1.139,0.428,2.229,0.808,3.386,1.177c4.466,1.437,8.726,3.428,13.15,4.994c1.074,0.384,2.159,0.85,3.228,1.251
	c3.416,1.28,6.731,2.321,9.929,3.746c17.51,0,35.02,0,52.542,0c0-58.152,0-116.296,0-174.448c-42.701,0-85.396,0-128.086,0
	c-0.083,0.009-0.083,0.112-0.071,0.218c-0.112,3.997,0.012,8.333,0,12.64c-0.006,0.87-0.153,1.77-0.153,2.649
	c0.006,2.044,0.147,4.083,0.153,6.023c0,0.758,0.077,1.84-0.076,2.569c-0.083,0.377-0.484,0.734-0.738,1.18
	c-0.726,1.289-1.475,2.569-1.687,4.115c-0.584,0.207-1.352,0.599-1.835,0.658c-0.543-0.021-0.773-0.446-1.104-0.658
	c-0.354-0.227-0.796-0.242-1.104-0.59c-0.4-1.212-1.044-2.513-2.354-2.646c-0.401-0.044-0.726,0.198-1.174,0.221
	c-0.59,0.027-1.162-0.242-1.617,0.074c-0.218-0.047,0.124-0.664-0.295-0.513c-1.003-0.18-1.634,0.106-2.501,0.366
	c-1.363,0.413-2.809,0.867-3.823,1.543c0.313,0.864,0.537,1.82,0.814,2.72c0.076,0.295-0.207,0.056-0.295,0.145
	c-0.142,0.139,0.018,0.195,0,0.369c-0.118,1.165,1.015,2.587,1.469,3.383c-0.124,0.331-0.561,0.561-0.661,1.027
	c-0.059,0.265-0.023,0.982,0,1.542c0.019,0.46,0.207,0.965,0.219,1.469c0.023,0.454-0.118,0.917-0.077,1.324
	c0.06,0.501,0.242,1.404,0.372,1.835c0.153,0.516,0.514,0.85,0.661,1.177c-0.136,1.274-0.644,2.617-0.437,3.823
	c0.047,0.295,0.289,0.631,0.437,0.953c0.46,1.021,1.038,1.994,1.321,3.015c0.242,0.858,0.289,1.947,0.442,3.015
	c0.142,0.988,0.514,2.106,0.372,3.085c-0.083,0.552-0.442,0.67-0.514,1.101c-0.059,0.268,0.106,0.407,0.142,0.661
	c0.035,0.259,0,0.496-0.07,0.737c-0.23,0.731-0.95,0.649-1.104,1.248c-0.124,0.484,0.13,1.422,0.147,2.204
	c0.012,0.796-0.188,1.69-0.071,2.277c0.153,0.796,0.844,1.103,1.169,1.62c-0.024,0.478,0.359,0.873,0.59,1.245
	c0.241,0.386,0.501,0.879,0.808,1.251c0.448,0.54,1.127,0.837,1.54,1.401c0.177,0.221,0.219,0.566,0.442,0.731
	c0.159,0.885,0.384,1.853,0.814,2.867c0.39,0.917,1.003,1.658,1.103,2.499c0.095,0.796-0.324,2.233,0.88,1.909
	c0.2,0.333,0.53,0.269,0.808,0.442c0.396,0.242,0.72,0.658,1.104,0.953c0.212,0.166,0.431,0.271,0.59,0.443
	c0.425,0.454,0.772,1.003,1.534,1.026c0.625,0.882,1.451,1.54,1.693,2.796c-0.62,0.484-1.198,0.802-1.759,1.395
	c-0.519,0.546-0.938,1.277-1.616,1.614c-0.489,0.245-1.062,0.354-1.699,0.516c-0.749,0.782-2.106,0.977-2.79,1.838
	c-0.018,0.607-0.337,1.372-0.437,2.13c-0.525,0.183-0.638,0.805-1.033,1.321c-0.318,0.428-0.996,0.743-1.103,1.25
	c0.006-0.018,0.147,0.118,0.153,0.148c0.012,0.094-0.101,0.138-0.077,0.295c0.095,0.557,0.401,1.094,0.52,1.69
	c-0.2,0.333-0.425,0.277-0.52,0.735c-0.194,1.006,0.572,1.834,0.661,2.424c0.106,0.693-0.277,1.269,0.224,1.69
	c-0.342,0.328-0.584,0.737-0.961,1.029c0.778,1.304-0.638,2.581-0.071,3.744c-0.985,1.315-2.012,2.59-2.643,4.265
	c-0.484,0.036-0.95,0.077-1.393,0.145c0.183,0.463-0.2,0.646-0.442,0.885c-0.053,0.271,0.07,0.445,0.07,0.734
	c-0.012,0.604-0.271,1.088-0.289,1.472c-0.023,0.292,0.024,0.496,0,0.803c0.154,0.206,0.366,0.259,0.585,0.442
	c0.218,0.186,0.431,0.301,0.519,0.664c0.054,0.271-0.07,0.634-0.076,1.029c-0.006,0.398,0.111,0.785,0.076,1.098
	c-0.112,0.947-0.808,1.843-0.814,2.575c0.378,0.723,0.82,1.389,1.245,2.059c0.136,0.147,0.159-0.059,0.23-0.074
	c0.313-0.088,0.566,0.328,1.021,0.366c0.52,0.042,1.085-0.318,1.77-0.145c0.49,0.487,1.139,0.814,1.174,1.761
	c0.26,0.083,0.525,0.162,0.661,0.369c-0.136,1.162,0.194,1.75,0.077,2.941c-0.572,0.685-0.933,1.566-1.623,2.13
	c-0.006,0.457-0.2,0.912-0.442,1.321c-1.097,0.446-2.572,0.941-3.816,0.292c-0.803,0.729-1.109,1.799-1.693,2.719
	c-0.366,0.584-0.95,1.009-1.245,1.62c-0.106,0.26,0.112,0.239,0.147,0.366c0.106,0.404-0.33,0.953-0.372,1.469
	C141.965,230.498,142.184,230.922,142.071,231.438z"/>
</svg>
