<?xml version="1.0" encoding="utf-8"?>
<!-- Generator: Adobe Illustrator 16.0.0, SVG Export Plug-In . SVG Version: 6.00 Build 0)  -->
<!DOCTYPE svg PUBLIC "-//W3C//DTD SVG 1.1//EN" "http://www.w3.org/Graphics/SVG/1.1/DTD/svg11.dtd">
<svg version="1.1" id="Calque_1" xmlns="http://www.w3.org/2000/svg" xmlns:xlink="http://www.w3.org/1999/xlink" x="0px" y="0px"
	 width="432px" height="432px" viewBox="0 0 432 432" enable-background="new 0 0 432 432" xml:space="preserve">
<path fill-rule="evenodd" clip-rule="evenodd" d="M161.709,127.251c0.047,0.342-0.177,0.717-0.124,0.968
	c0.106,0.575,1.198,1.274,1.806,1.419c0.755,1.109,2.685,1.05,2.572,3.029c0.643,0.389,1.085,1.121,1.61,1.802
	c0.437,0.563,1.28,1.342,1.486,2c0.106,0.351,0.024,0.752,0.13,1.097c0.136,0.428,0.448,0.711,0.578,1.16
	c-0.076,0.486,0.112,1.2,0.26,1.675c-0.177,0.336-0.183,0.672-0.26,0.967c-0.088,0.333-0.259,0.617-0.318,0.903
	c-0.401,1.746,0.101,3.05,0.644,4.383c0.383,0.95,0.973,1.903,0.967,2.835c-0.006,0.593-0.501,1.207-0.519,1.613
	c-0.018,0.643,0.66,1.071,0.902,1.611c1.074,0.85,2,1.708,3.026,2.708c0.508,0.49,0.885,1.032,1.292,1.61
	c0.372,0.531,0.867,1.18,1.357,1.546c0.59,0.445,1.345,0.631,1.864,1.162c0.689,0.693,0.926,1.743,1.422,2.578
	c0.324,0.018,0.507,0.118,0.767,0.322c-0.095,0.672,0.442,1.144,0.52,1.74c0.117,0.902-0.431,1.667-0.52,2.578
	c0.938,0.262,1.787,0.106,2.454,0.516c0.737,0.451,1.026,1.581,1.936,1.932c0.153,0.062,0.354,0.026,0.513,0.065
	c0.537,0.127,0.768,0.227,1.156,0.581c-0.396,0.466-0.277,0.569-0.318,1.224c0.225,0.251,0.679,0.274,1.162,0.257
	c-0.012,0.25,0,0.478,0.06,0.646c0.707,0.908,1.103,2.124,1.746,3.094c-0.307,0.428-0.566,1.274-0.52,2.127
	c0.041,0.604,0.26,1.25,0.26,1.867c0.006,0.499-0.106,0.958-0.065,1.354c0.095,0.811,1.121,1.599,1.546,2
	c0.242-0.183,0.349-0.572,0.325-0.838c0.153,0.548,0.383,1.59,0.778,2.127c0.561,0.781,1.546,1.437,2.637,1.029
	c0.425,0.375,1.086,0.507,1.936,0.451c0.384,0.245,0.731,0.614,1.026,1.033c0.26,0.363,0.638,0.873,0.714,1.354
	c0.171,1.129-0.437,2.274-0.514,3.416c-0.412,0.233-0.772,0.522-1.162,0.773c-0.136,1.147,0.024,1.935,0.448,2.646
	c0.254,0.012,0.525,0.068,0.838,0.062c0.277-0.006,0.644-0.218,0.714,0c-0.142,0.259-0.555,0.103-0.838,0.13
	c-0.313,0.029-0.602,0.129-0.843,0.129c-0.112,0.463-0.042,1.115-0.06,1.676c1.08,1.499,2.979,2.174,3.994,3.74
	c0.053,0.59,0.431,0.855,0.578,1.354c0.307,0.127,0.661,0.195,0.968,0.321c0.489,0.64,0.359,1.452,0.708,2.062
	c0.2,0.351,0.666,0.667,0.974,0.968c0.348,0.348,0.666,0.607,0.902,1.029c-0.041,0.339,0.112,0.49,0.059,0.841
	c0.431,0.678,1.068,1.012,1.746,1.416c0.903,0.537,1.464,1.1,1.865,2.126c0.424,0.236,0.519,0.614,0.967,0.903
	c0.661,0.428,1.894,0.558,1.994,1.354c0.077,0.531-0.478,1.274-0.448,1.805c0.071,1.094,1.15,1.304,1.87,2.062
	c0.731-0.339,1.304-0.05,1.616,0.516c-0.478,0.104-0.755,0.322-0.648,0.773c0.095,0.428,0.478,0.389,0.838,0.386
	c-0.106,0.652-0.189,1.183-0.325,1.806c-0.047,0.221-0.206,0.448-0.194,0.581c0.035,0.304,0.478,0.613,0.584,1.029
	c0.124,0.507-0.13,1.15-0.064,1.675c0.035,0.28,0.283,0.531,0.318,0.841c-0.207,0.737-0.561,1.661-0.508,2.448
	c0.555,0.452,1.269,0.31,1.735,0.773c0.437,0.434,0.513,1.062,0.967,1.484c1.971-0.62,5.233-0.496,7.026,0.065
	c0.626,0.197,1.316,0.36,1.806,0.578c0.271,0.121,0.431,0.354,0.708,0.386c0.354,0.044,0.914-0.112,1.286-0.192
	c0.431-0.088,0.832-0.324,1.227-0.324c0.814,0.003,1.6,0.572,2.195,0.903c0.714,0.398,1.292,0.873,1.87,1.292
	c0.248,0.135,0.607,0.162,0.838,0.321c0.218,0.458,0.218,1.05,0.448,1.481c0.206,0.383,1.156,1.271,1.486,1.419
	c0.46,0.209,1.098,0.174,1.604,0.386c0.254,0.106,0.401,0.348,0.644,0.451c0.861,0.378,1.917,0.307,2.454,0.838
	c0.142-0.292,0.572-0.212,0.838-0.257c0.997-0.168,1.994-0.298,3.091-0.259c1.045,0.616,1.511,1.805,2,2.964
	c-0.023,0.519-0.33,1.519-0.13,2.065c0.095,0.248,0.036,0.331,0.39,0.257c0.502-0.101-0.519-0.443-0.194-0.581
	c0.72,0.094,0.778,0.861,1.292,1.162c0.431-0.142,1.085-0.071,1.091-0.646c-0.006,0.333,0.013,0.634,0.13,0.837
	c0.083-0.271,0.112-0.85,0.325-1.029c0.466-0.398,1.593,0.103,1.994,0.451c0.383,0.325,0.637,0.855,1.032,1.224
	c0.507,0.466,1.186,0.738,1.805,1.095c0.626,0.363,1.063,0.858,1.617,1.354c1.127,1.023,2.4,1.702,3.15,2.772
	c0.495-0.018,1.362,0.083,1.876,0.26c0.165,0.499-0.254,1.059-0.13,1.61c0.053,0.23,0.401,0.522,0.578,0.838
	c0.513,0.894,0.714,1.658,1.026,2.838c0.188,0.693,0.472,1.431,0.46,1.997c-0.012,0.206-0.171,0.372-0.2,0.581
	c-0.006,0.083,0.064,0.256,0.064,0.386c0.036,0.823,0.313,1.133,0.39,1.805c0.041,0.354-0.083,0.744,0,0.903
	c0.188,0.363,1.298,0.516,1.351,0.903c0.213,0.542,0.266,1.242,0.52,1.74c0.772,0.053,1.404-0.269,2.065-0.325
	c1.545-0.129,3.144-0.327,4.767-0.256c1.133,0.047,2.313-0.192,3.546-0.322c3.492-0.375,7.221-0.69,10.695-1.032
	c4.177-0.413,8.366-0.569,12.448-1.094c0.902-0.121,1.788-0.46,2.838-0.325c0.566-0.289,1.021-0.693,1.086-1.481
	c0.53-0.08,0.761-0.451,0.973-0.837c-0.147-0.62-0.241-1.28-0.13-2c-0.365-0.387-0.377-0.873-0.843-1.095
	c-0.49-0.242-1.104,0.209-1.67,0c-0.254-0.097-0.396-0.431-0.52-0.581c-0.159-0.207-0.354-0.333-0.442-0.643
	c0.283-0.767,0.531-1.569,0.442-2.708c-0.307-0.186-0.536-0.455-0.702-0.776c0.153-0.378,0.13-0.938,0.124-1.484
	c0.407-0.13,0.803-0.271,1.222-0.383c0.342-0.87,0.813-1.596,1.422-2.195c0.053-1.977,0.136-4.717,0-6.896
	c0.696-0.608,1.498-1.124,1.61-2.319c0.761-0.64,1.581-1.215,2.584-1.613c0.555-0.605,0.944-1.372,1.929-1.546
	c-0.142-0.304-0.235-0.558-0.383-0.838c-0.147-0.265-0.349-0.486-0.454-0.772c-1.021-0.702-1.9-1.543-3.027-2.13
	c0.048-0.929-0.183-1.575-0.584-2.062c-0.1-0.731-0.478-1.191-0.643-1.867c-0.378-0.331-0.915-0.313-1.162-0.776
	c-0.071-0.133-0.13-0.51-0.189-0.772c-0.135-0.537-0.271-1.024-0.259-1.611c-0.313,0.006-0.118,0.525-0.455,0.516
	c-0.548-0.342-0.301-1.793-0.253-2.513c-1.063-0.613-1.858-1.59-2.708-2.451c-0.867-0.873-1.847-1.652-2.708-2.513
	c-2.59-2.593-5.292-5.097-7.864-7.669c-1.74-1.741-3.492-3.422-5.286-5.094c-0.914-0.85-2.006-1.602-2.708-2.514
	c-0.153-0.194-0.266-0.404-0.324-0.708c-0.779,0.091-1.092-0.723-1.546-1.16c-0.206-0.112,0.254-0.256-0.064-0.259
	c-0.95-0.233-1.493-0.873-1.87-1.676c-0.16,0.018-0.213,0.239-0.384,0.065c-0.873-0.829-1.8-1.59-2.708-2.386
	c-0.908-0.793-1.858-1.602-2.578-2.578c-0.637-0.121-0.985-0.705-1.422-1.097c-3.28-2.979-6.625-5.793-9.858-8.767
	c-0.92-0.841-1.799-1.731-2.772-2.513c-0.979-0.785-1.947-1.602-2.902-2.448c-8.448-7.49-17.009-14.941-25.781-22.044
	c-0.72-0.578-1.563-1.195-2.13-1.87c-0.23-0.283-0.318-0.596-0.578-0.773c-0.254-0.174-0.632-0.165-0.838-0.386
	c-0.213-17.074-0.112-34.371-0.065-51.182c-0.689-0.876-2.012-0.581-3.032-0.581c-3.628,0-7.292,0-10.825,0
	c-4.779,0-9.711,0.215-14.437,0c-2.254-0.1-4.702-0.023-7.092-0.127c-3.616-0.162-7.403-0.1-11.085,0.065
	c-4.767,0.207-9.528-0.201-13.929,0.062c-0.06,0.263-0.319,0.584-0.384,0.903c-0.07,0.363-0.029,0.935-0.13,1.418
	c-0.101,0.501-0.365,0.988-0.324,1.289c0.082,0.484,0.902,0.812,1.162,1.289c0.136,0.251,0.101,0.514,0.194,0.773
	c0.147,0.398,0.461,0.75,0.578,1.098c0.178,0.516,0.236,1.1,0.325,1.61c0.088,0.584,0.259,1.183,0.259,1.675
	c-0.006,1.555-1.044,3.006-0.454,4.513c-0.92,0.425,0.048,1.325,0.195,2.062c0.053,0.292-0.112,0.566,0,0.838
	c-0.147,0.094-0.118,0.307-0.195,0.451c-0.389,0.761-1.021,1.507-1.48,1.932c-0.035,0.23-0.095,0.422-0.065,0.711
	c-0.354,0.463-0.489,1.142-0.967,1.481c0,0.395-0.283,0.74-0.454,1.097c-0.178,0.38-0.319,0.811-0.514,1.224
	c-0.431,0.938-1.121,2.209-0.708,3.289C161.278,126.47,161.662,126.848,161.709,127.251z"/>
<path fill-rule="evenodd" clip-rule="evenodd" d="M219.012,234.898c-0.064,0-0.124,0-0.188,0c-0.041,0.401-0.407,0.569-0.649,0.579
	c-0.1,0.183-0.153,0.404-0.318,0.516c0.566,0.147,1.315,0.292,1.936,0.194c-0.083-0.268,0.1-0.283,0.123-0.451
	C219.543,235.53,219.124,235.368,219.012,234.898z"/>
<path fill-rule="evenodd" clip-rule="evenodd" d="M225.974,236.831c0.437,0.295,1.263,0.404,2.13,0.324
	c0.66-0.062,0.943-0.351,1.356-0.451c0.478-0.118,0.956-0.012,1.352-0.195c0.076-0.204,0.2-0.357,0.318-0.516
	c-0.118-0.354-0.283-0.655-0.644-0.773c-0.354,0.227-0.778,0.383-1.026,0.708c-0.861,0.065-1.522-0.956-2.454-0.578
	c-0.442-0.339-1.558-0.528-1.74,0c-0.124,0.366,0.472,0.389,0.648,0.773C225.714,236.368,225.985,236.574,225.974,236.831z"/>
<path fill-rule="evenodd" clip-rule="evenodd" d="M223.72,235.801c-0.855-0.266-1.563,0.439-2.578,0.257
	c-0.2,0.147-0.372,0.318-0.52,0.516c0.207-0.029,0.266,0.083,0.331,0.195c0.266,0.516,0.991,1.236,1.545,1.286
	c0.508,0.05,1.01-0.348,1.546-0.514c0.295-0.091,0.543,0.006,0.773-0.194c-0.03-0.269-0.307-0.351-0.13-0.643
	C224.08,236.692,223.974,236.173,223.72,235.801z"/>
<path fill-rule="evenodd" clip-rule="evenodd" d="M248.923,248.114c-0.318-0.646-0.803-1.133-1.222-1.675
	c-1.397-0.059-2.165-1.625-3.415-1.033c0.177,0.617,0.672,0.92,1.351,1.033c0.502,0.422,0.561,1.28,0.902,1.867
	c0.608-0.077,1.375,0.2,2.124,0.194C248.77,248.391,248.805,248.211,248.923,248.114z"/>
<path fill-rule="evenodd" clip-rule="evenodd" d="M232.552,249.595c-0.525-0.702-1.664-0.799-2.384-0.838
	c0.13,0.13,0.236,0.242,0.13,0.451C230.746,249.621,231.914,250.347,232.552,249.595z"/>
<path fill-rule="evenodd" clip-rule="evenodd" d="M245.955,254.173c0.012,0.139-0.224,0.029-0.318,0.065
	c-0.183-0.64-0.531-1.375-1.228-1.289c-0.171,0.513,0.071,0.587,0.26,1.029c0.289,0.684,0.343,1.023,0.644,1.549
	c0.495,0.832,1.026,1.395,1.87,1.675c0.159-0.209,0.666-0.068,0.902-0.192C247.885,255.55,246.351,255.435,245.955,254.173z"/>
<path fill-rule="evenodd" clip-rule="evenodd" d="M303.258,221.622c-0.365,0.227-0.625-0.41-0.831-0.324
	c0.183,0.118,0.241,0.357,0.389,0.516C303.063,221.852,303.146,221.719,303.258,221.622z"/>
</svg>
