<?xml version="1.0" encoding="utf-8"?>
<!-- Generator: Adobe Illustrator 16.0.0, SVG Export Plug-In . SVG Version: 6.00 Build 0)  -->
<!DOCTYPE svg PUBLIC "-//W3C//DTD SVG 1.1//EN" "http://www.w3.org/Graphics/SVG/1.1/DTD/svg11.dtd">
<svg version="1.1" id="Calque_1" xmlns="http://www.w3.org/2000/svg" xmlns:xlink="http://www.w3.org/1999/xlink" x="0px" y="0px"
	 width="432px" height="432px" viewBox="0 0 432 432" enable-background="new 0 0 432 432" xml:space="preserve">
<path fill-rule="evenodd" clip-rule="evenodd" d="M117.196,238.738c0.054-0.029,0.927,0.059,1.499,0.121
	c15.168,1.59,30.79,3.064,45.704,4.622c15.781,1.649,31.634,3.159,47.144,4.805c7.876,0.835,15.74,1.605,23.604,2.342
	c23.586,2.218,47.314,4.923,70.807,7.147c0.059,0,0.071-0.047,0.118-0.059c2.926-45.887,6.018-91.603,8.949-137.473
	c-1.858-0.221-3.687-0.407-5.581-0.602c-2-0.204-4.029-0.023-6.07-0.118c-4-0.188-8.047-0.183-12.012-0.422
	c-3.87-0.233-7.74-0.483-11.587-0.84c-3.923-0.363-7.858-0.49-11.775-0.661c-23.545-1.035-46.884-2.97-68.942-5.584
	c-14.726-1.746-29.257-4.044-43.186-6.545c-7.056-1.271-14.094-2.782-21.616-3.245c-0.07,0.009-0.064,0.094-0.059,0.18
	c-5.528,45.014-11.486,90.09-16.938,135.009c-0.083,0.693-0.378,1.387-0.242,2.104C117.037,239.101,116.979,238.862,117.196,238.738
	z"/>
</svg>
