<?xml version="1.0" encoding="utf-8"?>
<!-- Generator: Adobe Illustrator 16.0.0, SVG Export Plug-In . SVG Version: 6.00 Build 0)  -->
<!DOCTYPE svg PUBLIC "-//W3C//DTD SVG 1.1//EN" "http://www.w3.org/Graphics/SVG/1.1/DTD/svg11.dtd">
<svg version="1.1" id="Calque_1" xmlns="http://www.w3.org/2000/svg" xmlns:xlink="http://www.w3.org/1999/xlink" x="0px" y="0px"
	 width="432px" height="432px" viewBox="0 0 432 432" enable-background="new 0 0 432 432" xml:space="preserve">
<path fill-rule="evenodd" clip-rule="evenodd" d="M116.018,255.63c-0.369,0.543-0.564,1.519-0.287,2.301
	c1.104-0.198,1.254-1.625,2.661-1.295c0.935-0.369,1.274-1.434,2.156-1.87c0.393-0.192,0.841-0.171,1.222-0.501
	c0.15-0.448,0.321-0.879,0.648-1.15c0.283,0.026,0.688-0.068,0.861,0.071c-0.295,0.425-0.336,1.103-0.575,1.581
	c1.39-0.023,1.944-0.882,2.95-1.292c0.676,0.236-0.035,0.891,0.215,1.437c0.947-0.298,1.352-1.142,1.797-1.941
	c0.844-0.186,1.142-0.92,1.654-1.437c0.254,0.191,0.54,0.165,0.791,0.215c0.236,0.513,0.053,1.233,0.215,1.867
	c0.23-0.03,1.086-0.003,1.295-0.286c-0.15-0.74-0.056-1.283-0.359-1.87c0.59-0.248,1.156-0.519,1.51-1.006
	c0.258-0.605,0.216-1.51,0.646-1.941c0.209,0.174,0.635,0.133,0.864,0.286c0.198,1.074,0.39,2.15,1.437,2.375
	c0.401-0.903,1.384-1.499,1.15-2.805c0.153-0.301,0.611-0.301,0.936-0.431c0.273,0.274,0.418,0.684,0.504,1.15
	c0.41-0.095,0.451-0.555,0.861-0.649c0.375,0.292,0.752-0.112,1.295-0.071c0.299-0.688,0.889-1.077,1.511-1.439
	c-0.159-0.458,0.067-0.865,0.36-1.077c0.796-0.003,1.447-0.097,1.58-0.575c0.115-0.418-0.393-0.788-0.43-1.366
	c-0.039-0.537,0.174-0.667,0.359-1.15c0.563,0.466,1.197,0.861,2.082,1.006c0.174-0.283,0.092-0.82,0.36-1.006
	c0.507,0.044,1.599,0.133,1.8-0.36c-0.198-0.354-0.829-0.274-1.006-0.649c0.422-0.271,0.244-0.708,0.43-1.221
	c0.293,0.174,0.354-0.121,0.721-0.071c0.527,0.183,0.654,0.796,1.221,0.861c0.277,0.033,0.855-0.165,1.15-0.286
	c0.396-0.162,0.676-0.478,1.006-0.575c0.342,0.159,0.283,0.723,0.791,0.717c0.25-0.437,0.731-0.729,1.15-1.006
	c0.527-0.348,0.731-0.239,1.295-0.36c0.896-0.192,1.029-0.847,1.581-1.221c0.097-0.065,0.362-0.083,0.504-0.145
	c0.483-0.215,0.693-0.177,1.222-0.071c0.418,0.59,0.965,1.428,1.87,1.295c0.241-0.038,0.563-0.372,0.864-0.575
	c0.637-0.437,1.215-0.729,1.581-1.295c0.174-0.274,0.174-0.61,0.36-0.864c0.194-0.263,0.598-0.555,0.79-0.717
	c0.519-0.448,1.041-0.832,1.511-1.153c0.253,0.026,0.177,0.201,0.43,0.074c0.36-0.336,0.608-0.785,1.006-1.08
	c0.823-0.115,1.133-0.785,2.016-0.646c0.324-0.396,0.383-1.056,0.504-1.655c0.522,0.221,1.057,0.431,1.437,0.791
	c0.222,0.33,0.062,1.041,0.216,1.439c0.15,0.209,0.469,0.25,0.863,0.215c0.26,0.053,0.204,0.416,0.502,0.431
	c0.266,0,0.528,0,0.791,0c0.492,0.516,1.298,0.717,2.374,0.649c0.434-0.263,1.015-0.428,1.511-0.434
	c0.197-0.136,0.377-0.292,0.575-0.431c-0.042-0.702,0.133-1.62-0.216-2.012c-0.315-0.189-0.705-0.304-1.009-0.504
	c0.163-0.569-0.507-0.69-0.359-1.006c0.648,0.439,1.517,0.48,2.374,0.215c0.638-0.947,1.484-1.682,2.301-2.446
	c1.324-0.351,1.906-1.451,2.732-2.301c0.377-0.08,0.663-0.248,0.935-0.431c0.345,0.277,0.688,0.947,1.224,1.006
	c0.408,0.047,0.644-0.239,1.077-0.36c0.646,0.85,1.679-0.029,2.156-0.431c0.168-0.935,0.876-1.33,1.224-2.085
	c0.927-0.318,1.305-1.188,2.446-1.295c0.362-0.69,1.021-1.085,1.221-1.941c0.537-0.253,0.753-0.832,1.222-1.15
	c0.171,0.023,0.271,0.115,0.504,0.071c0.378-0.46,1.154-0.522,1.655-0.861c-0.153-0.522,0.229-0.664,0.216-1.08
	c-0.016-0.386-0.41-0.667-0.36-1.077c0.071-0.575,1.056-1.08,1.366-1.366c0.554-0.516,0.819-1.08,1.15-1.655
	c0.133,0.419,0.533,0.569,0.861,0.791c-0.308,0.705,0.489,1.758,0.145,2.516c0.203,0.782,0.805,1.159,1.079,1.87
	c-0.233,0.51-0.622,0.864-0.864,1.366c0.558,0.121,0.74,0.737,1.225,0.935c0.943,0.383,1.875-0.245,2.66,0.071
	c0.569-0.386,1.009-0.906,1.292-1.581c0.575,0.094,0.622-0.336,1.079-0.36c0.36,0.313,0.649,0.693,0.791,1.224
	c0.664-0.321,0.648-1.318,1.08-1.87c0.313,0.094,0.504-0.042,0.79-0.145c0.228,0.876,0.517,1.69,1.222,2.085
	c0.51-0.354,0.896-0.832,1.295-1.295c0.797-0.021,1.348-0.838,2.015-1.221c0.8,0.331,1.841-0.174,2.661-0.289
	c0.486,0.112,0.77,0.428,1.076,0.72c0.088,0.059,0.508-0.162,0.864-0.071c0.396,0.209,0.708,0.599,1.222,0.575
	c0.46-0.023,0.602-0.377,1.006-0.504c0.235,0.678,0.846,0.977,1.15,1.581c-0.266,0.239-0.225,0.782-0.287,1.224
	c1.676-0.445,2.67-1.487,3.738-2.59c0.398-0.407,0.896-1.077,1.368-1.15c0.325-0.05,0.661,0.18,1.006,0.215
	c1.08,0.118,2.06-0.18,2.947-0.575c0.563,0.401,1.422,0.044,2.301,0.145c0.404,0.047,0.726,0.227,1.079,0.215
	c0.723-0.021,1.445-0.419,2.086-0.36c0.439,0.041,0.779,0.484,1.221,0.36c0.16,0.439,0.635,0.566,1.006,0.791
	c0.402,0.847,1.131,1.366,1.871,1.87c0.123-0.26,0.498-0.271,0.574-0.575c-0.111-0.342-0.568-0.339-0.574-0.791
	c0.313-0.407,0.521-0.917,0.935-1.224c0.313,0.327,0.711-0.142,1.006,0c0.771,0.46,1.168,1.658,2.086,1.729
	c0.124-0.263,0.188-0.578,0.215-0.935c0.493,0.032,0.472-0.442,0.794-0.575c0.431-0.08,0.726-0.348,1.15-0.434
	c0.625-0.124,1.33,0.059,1.941-0.142c0.565-0.189,1.059-0.909,1.725-1.15c0.322-0.118,0.629,0.021,0.936-0.215
	c0.219,0.188,0.552,0.259,1.006,0.215c0.304,0.342,0.829,0.466,1.365,0.575c0.168-0.071,0.118-0.36,0.36-0.36
	c0.655-0.271,1.336-0.091,2.085-0.215c0.148,0.194,0.396,0.15,0.576,0.286c0.678,0.519,0.935,1.902,1.869,2.015
	c0.461,0.056,0.652-0.263,1.222-0.289c0.26-0.838,0.062-1.956,0.864-2.372c0.295,0.307,0.717-0.201,1.15,0.071
	c-0.012-0.348-0.115-0.605-0.219-0.861c-0.279,0.15-0.592,0.269-1.006,0.286c-0.111-0.245-0.279-0.437-0.359-0.72
	c0.184-0.224,0.463-0.351,0.72-0.501c0.451-0.793,0.428-2.065,1.006-2.735c0.354,0.342,0.772,0.62,1.009,1.08
	c-0.174,0.469,0.112,0.613,0.216,1.006c0.059,0.23,0.009,0.504,0.07,0.649c0.127,0.292,0.478,0.681,0.72,1.006
	c0.283,0.38,0.578,0.799,0.861,0.935c0.661,0.31,1.197-0.015,1.871-0.071c0.421-0.036,0.891,0.044,1.295,0
	c1.141-0.133,2.212-0.876,3.521-0.649c0.177-0.042-0.032-0.466,0.215-0.431c1.012-0.404,1.432-1.401,2.301-1.941
	c0.768,0.413,1.525-0.124,2.375-0.074c0.679,0.545,0.855,1.59,1.87,1.799c0.274-0.36,0.018-0.888-0.073-1.295
	c0.273-0.623-0.136-1.449,0-2.372c0.4-0.871,1.339-1.204,2.156-1.655c0.203,0.254,0.545,0.366,0.938,0.431
	c0.077,0.452,0.342,0.897,0.575,1.225c0.233,0.327,0.569,0.675,1.006,0.791c0.28-0.755,0.661-1.779,1.511-1.726
	c-0.295,1.015,0.616,1.936,1.15,2.587c0.767,0,1.533,0,2.301,0c0.879-0.319,1.67-0.726,2.371-1.221
	c0.131-0.782,0.667-1.154,0.721-2.015c-0.522-0.268-0.59-0.991-0.865-1.51c0.434-0.87,0.08-2.112,0.216-3.307
	c0.188-0.242,0.422-0.442,0.72-0.575c0.195,0.26,0.383,0.528,0.648,0.72c0,0.168-0.123,0.212-0.073,0.431
	c0.72,1.248,0.632,3.301,1.15,4.746c0.478,0.047,0.761-0.103,1.15-0.145c1.077-1.885,2.109,1.189,3.667,1.006
	c0.345-0.23,0.442-0.708,0.79-0.932c-0.053-0.427-0.079-0.667,0.145-0.935c0.321,0.109,0.599,0.263,0.864,0.431
	c-0.012,0.608,0.071,1.685,0.505,2.086c0.289-0.236,0.289-0.764,0.356-1.222c0.619-0.318,0.965-0.781,1.871-0.649
	c0.424-0.655,0.168-1.991,1.51-1.726c0.191,0.372,0.646,0.823,1.006,0.791c0.242-0.572,0.225-1.407,0.504-1.941
	c0.588,0.69,1.8,0.977,2.588,0.36c0.519,0.416,1.247,0.623,1.799,1.006c0.407-0.445,0.643-1.103,0.359-1.87
	c0.452-0.215,0.933-0.407,1.511-0.501c-0.197,0.528-0.204,1.608-0.073,2.227c0.566,0.127,0.967-0.445,1.15-0.935
	c0.561-0.253,0.949-0.678,1.439-1.006c0.224,0.711,0.758,1.109,1.51,1.295c0.006,0.522,0.266,0.788,0.286,1.295
	c1.012,0.393,1.337-0.094,2.015-0.504c0.375-0.224,0.829-0.377,1.077-0.575c0.18-0.142,0.28-0.419,0.431-0.575
	c0.2-0.201,0.537-0.221,0.504-0.501c-0.238-0.304-0.171-0.496-0.145-1.009c-0.486-0.445-0.584-1.286-0.79-2.012
	c0.504-0.457,0.835-2.1,0.575-3.236c-0.021-0.091-0.428-0.858-0.431-0.864c-0.156-0.189-0.478-0.136-0.505-0.36
	c-0.026-0.796-0.495-1.658-0.286-2.372c0.092-0.316,0.425-0.458,0.502-0.791c1.56-0.118,3.142-0.215,4.675-0.36
	c0.029-1.145,0.168-2.277,0.216-3.381c0.097-2.224,0.062-4.416,0.216-6.687c0.268-3.944,0.145-8.643,0.145-13.23
	c0-2.009,0-4.08,0-6.112c0-2.1,0.162-4.209,0-6.183c-0.316-3.855,0.038-8.077-0.145-12.08c-0.629-13.814-1.092-27.911-1.655-41.633
	c-2.985-0.118-5.979-0.083-8.988-0.215c-4.431-0.195-8.914,0.124-13.227-0.071c-3.445-0.157-6.778,0.015-10.286-0.145
	c-5.174-0.236-10.59-0.053-15.746-0.29c-1.348-0.059-2.737-0.009-4.098-0.07c-6.887-0.313-13.692-0.286-20.781-0.286
	c-3.279,0-6.539-0.212-9.418,0c-2.127,0.153-3.552,1.41-6.112,1.077c-0.239-0.168-0.127-0.688-0.431-0.791
	c-1.145-0.151-2.39,0.129-3.667,0.07c-1.165-0.053-2.351-0.486-3.596-0.575c-3.012-0.209-5.849-0.339-8.628,0.074
	c0.15,0.265-0.039,0.315-0.215,0.431c0.07,0.575-0.121,0.888-0.219,1.295c-0.184-0.095-0.558-0.254-0.791-0.074
	c-0.104,0.631,0.528,0.528,0.649,0.935c-0.546,0.46-0.245,1.174-0.649,1.655c-0.448,0.537-1.816,0.507-2.731,0.646
	c-1.088,0.168-2.124,0.442-2.876,0.36c0.118-1.685,0.121-3.853,0-5.537c-10.725,0.168-21.168-0.407-31.494-0.862
	c-8.982-0.395-17.885-0.743-26.82-1.08c-2.761-0.103-5.599-0.242-8.412-0.36c-1.013-0.041-2.246-0.053-2.947-0.145
	c-1.041-0.132-2.313,0.101-3.236,0c-2.977,37.244-5.787,74.651-8.772,111.883c2.511,3.843,5.15,7.554,7.622,11.433
	c-2.2,1.493-4.543,2.785-6.832,4.171c-6.273,3.796-12.752,7.469-18.981,11.218c-0.561,0.336-1.181,0.679-1.655,1.15
	c2.109,3.584,4.428,7.383,6.617,11C115.596,253.934,116.029,254.524,116.018,255.63z"/>
</svg>
