<svg version="1.1" id="Calque_1" xmlns="http://www.w3.org/2000/svg" xmlns:xlink="http://www.w3.org/1999/xlink" x="0px" y="0px"
	 width="432px" height="432px" viewBox="0 0 432 432" enable-background="new 0 0 432 432" xml:space="preserve">
<path fill-rule="evenodd" clip-rule="evenodd" d="M177.248,145.297c2.762,42.002,5.346,83.748,8.117,125.759
	c22.395,0.445,44.307,0.929,66.643,1.387c0.135-0.419-0.307-0.274-0.289-0.584c0.467-0.077,0.041-0.652,0.436-0.802
	c0.662-0.253,0.957,0.741,1.465,1.023c0.199,0.106,0.418,0.08,0.66,0.145c0.809,0.213,1.746,0.407,2.779,0.292
	c0.471-1.224-0.107-2.472-0.148-3.655c-0.012-0.416,0.07-0.829,0.076-1.248c0-1.068-0.123-2.08-0.076-3.145
	c0.047-1.056,0.33-2.047,0.219-2.853c-0.076-0.581-0.402-1.109-0.508-1.681c-0.172-0.912-0.141-1.944-0.219-2.926
	c-0.076-0.953-0.406-1.902-0.441-2.782c-0.023-0.646,0.211-1.268,0.146-1.902c-0.047-0.472-0.336-0.941-0.365-1.463
	c-0.514-0.186-0.4-0.678-0.879-0.584c-0.68,0.136-0.596,1.269-0.584,1.829c0.018,0.95,0.395,2.009,0.436,2.56
	c-0.488-0.065-0.832-0.389-1.314-0.292c-0.336,0.068-1.18,0.941-1.246,1.242c-0.082,0.372,0.266,0.905,0.219,1.392
	c-0.006,0.13-0.176,0.333-0.219,0.437c-0.064,0.186-0.029,0.393-0.217,0.513c-0.307-0.619-0.779-1.074-1.168-1.61
	c-0.307-1.177-1.068-1.909-1.535-2.926c-1.25-0.077-2.053-0.009-2.855,0.369c-0.754,0.354-1.162,1.463-2.342,1.242
	c-1.008,0.676-1.781,1.578-3.002,2.047c0.164,1.36-0.479,2.295-1.021,2.708c0-1.097,0.041-2.233-0.146-3.145
	c0.371-0.118,0.453-0.525,0.73-0.731c1.369,0.215,1.393-0.69,0.809-1.319c-1.641-0.068-3.01-0.404-4.756-0.366
	c-0.318,0.133-0.465,0.478-0.879,0.584c-0.707,0.183-1.723-0.106-2.561-0.071c-0.141-0.445-0.537-0.637-0.59-1.171
	c0.867,0.136,1.688-0.124,2.49-0.147c0.283-0.006,0.596,0.106,0.879,0.077c0.324-0.039,0.625-0.248,0.949-0.295
	c0.885-0.127,1.824,0.183,2.785,0.145c0.867-0.036,1.635-0.266,2.555-0.145c0.879-0.737,1.822-1.392,2.418-2.416
	c1.193,0.13,2.035-0.233,2.998-0.289c0.607-0.038,1.279,0.039,1.688-0.074c0.76-0.218,1.303-1.015,1.752-1.463
	c0.182-0.183,0.484-0.286,0.508-0.587c-0.65-0.646-2.078-0.508-3.363-0.511c-1.711-0.678-2.301-2.478-4.537-2.634
	c-0.094-0.345-0.449-0.425-0.654-0.661c0.254-0.106,0.318-0.416,0.508-0.584c0.867,0.106,1.373,0.867,2.123,1.171
	c0.348,0.142,0.756,0.129,1.098,0.295c0.436,0.207,0.791,0.758,1.393,0.581c0.607-0.82,0.023-1.853-0.438-2.413
	c0.047-0.555-0.064-1.059-0.301-1.463c-0.441-0.773-1.563-1.153-1.311-2.047c0.615-0.38,1.08,0.457,1.83,0.51
	c0.484,0.039,1.221-0.28,2.047-0.366c1.15-0.118,2.266,0.351,2.561-0.437c0.502,0.457,1.033,0.773,1.168,1.46
	c0.254,1.271-0.023,2.909-0.219,3.879c-0.076,0.392-0.26,0.767-0.295,1.097c-0.1,1.165,0.426,1.643,0.809,2.266
	c0.006,0.286-0.52,0.717-0.152,0.879c0.371,0.083,0.771-0.162,1.025-0.366c0.236-0.183,0.596-0.537,0.66-0.802
	c0.201-0.803-0.43-1.803-0.436-2.634c0.266-1.003,0.342-2.248,0-3.513c-0.094-0.345-0.33-0.667-0.443-1.024
	c-0.371-1.236-0.412-2.755-0.654-4.097c-0.082-0.442-0.242-0.899-0.295-1.315c-0.076-0.637,0.059-1.342,0-2.121
	c-0.088-1.313-0.141-2.82-0.219-4.171c-0.07-1.263-0.023-2.805-1.098-3.292c-0.742,0.233-0.689,1.26-1.168,1.755
	c-0.914,0.089-1.951,0.05-2.637,0.366c-1.02-0.458-2.076-0.431-2.926-0.876c-0.348-0.186-0.689-0.507-1.021-0.731
	c-1.107-0.74-2.123-1.475-3.516-1.829c-0.75-0.85-1.723-1.923-2.484-2.855c-0.277-0.336-0.518-0.637-0.807-0.95
	c-0.402-0.442-0.844-0.802-1.168-1.245c-0.23-0.31-0.473-0.796-0.732-1.242c-0.438-0.761-0.896-1.251-0.732-2.342
	c-1.98-1.392-3.574-3.207-5.344-4.973c-0.514-0.514-1.404-1.26-1.611-1.903c-0.219-0.714-0.189-2.301-0.141-3
	c0.053-0.726,0.512-1.437,0.59-2.121c0.082-0.788-0.078-1.673-0.295-2.121c-0.461-0.935-1.994-1.811-2.195-2.853
	c-0.117-0.604,0.064-1.15-0.146-1.685c-0.189-0.466-0.703-0.991-1.104-1.389c-1.299-1.315-2.479-2.448-3.877-3.587
	c-0.43,0-0.631-0.242-1.02-0.292c-0.633-0.855-1.387-1.59-1.977-2.487c-0.09-1.519-0.549-3.327-0.367-4.973
	c0.055-0.49,0.313-0.888,0.219-1.39c-0.088-0.499-0.631-0.944-0.803-1.537c-0.094-0.333-0.117-0.788-0.223-1.171
	c-0.102-0.413-0.338-0.797-0.367-1.098c-0.035-0.545,0.137-1.31,0.295-1.899c0.148-0.546,0.391-1.13,0.59-1.611
	c0.42-1.047,1.168-2.018,1.316-3.074c0.082-0.619,0.117-1.619-0.148-2.268c-0.123-0.304-0.541-0.522-0.59-0.95
	c-0.041-0.522,0.473-1.065,0.443-1.61c-0.023-0.501-0.578-1-0.803-1.608c-0.242-0.649-0.213-1.369-0.365-1.829
	c-0.289-0.858-1.404-2.015-2.053-3c-0.324-0.501-0.625-1.08-0.873-1.611c-0.289-0.619-0.443-1.289-0.738-1.826
	c-0.283-0.519-0.537-0.69-0.943-1.1c-0.266-0.26-0.484-0.561-0.738-0.806c-0.418-0.407-1.197-1.15-1.604-1.389
	c-0.301-0.174-0.721-0.18-1.021-0.292c-0.26-0.094-0.449-0.41-0.738-0.292c0.119,0.286-0.158,0.814-0.289,1.097
	c-0.578-0.623-1.355-1.035-1.904-1.684c0.111-0.525,0.549-0.988,0.436-1.608c-0.064-0.38-0.506-0.593-0.795-0.95
	c-0.254-0.31-0.592-0.802-0.668-1.1c-0.07-0.271,0.064-0.614,0-0.879c-0.006-0.029-0.111-0.126-0.146-0.218
	c-0.373-1.05-1.559-1.829-1.098-3.145c-0.697-0.572-1.244-1.286-1.533-2.268c-1.205-1.257-2.385-2.54-3.947-3.439
	c-0.49-0.729-1.27-1.171-1.758-1.9c0.105-1.345-0.107-3.36,0.295-4.976c0.271-0.499,0.844-0.841,1.096-1.46
	c0.379-0.941,0.172-2.147,0.732-3c-0.225-1.41,0.508-2.457,0.584-3.805c-0.73-1.047-1.568-1.867-2.631-2.779
	c-0.832-0.714-2.473-1.643-2.709-2.781c-0.053-0.248,0.023-0.693,0-1.024c-0.035-0.484-0.135-0.994-0.076-1.318
	c0.172-0.929,1.316-1.764,1.977-2.487c0.791-0.861,1.664-1.569,2.342-2.194c0.266,0.026,0.408-0.083,0.584-0.148
	c1.658-1.486,2.855-3.437,4.318-5.118c-0.1-0.318-0.041-0.466,0-0.805c0.307-0.449,0.645-0.87,0.727-1.537
	c0.377-0.159,0.602-0.554,0.885-0.876c0.26-0.307,0.643-0.599,0.797-0.953c0.152-0.313,0.1-0.735,0.23-1.098
	c0.064-0.203,0.246-0.554,0.359-0.805c0.377-0.847,0.779-1.168,1.244-1.829c0.283-0.396,0.402-0.817,0.66-1.245
	c0.266-0.445,0.893-0.841,1.24-1.313c0.135-0.186,0.176-0.416,0.295-0.587c0.111-0.166,0.277-0.333,0.436-0.514
	c0.768-0.849,1.924-2.327,2.785-2.778c0.66-0.351,1.451-0.31,2.117-0.661c-0.199-0.413-0.695-0.489-1.09-0.731
	c-0.514-0.301-0.963-0.729-1.463-0.95c-2.779-1.209-5.895-2.292-9.223-2.779c-1.238-0.183-2.602-0.366-3.805-0.221
	c-0.938,0.112-2.088,0.162-3.074,0.295c-1.291,0.171-2.643,0.69-3.951,1.098c-2.662,0.826-4.992,1.693-7.021,3.07
	c-0.49,0.333-0.92,0.726-1.393,1.098c-0.502,0.401-1.115,0.661-1.533,1.023c-0.426,0.369-0.785,0.961-1.246,1.389
	c-0.967,0.906-1.758,1.717-2.482,2.782c-0.861,1.26-1.504,2.419-2.201,3.802c0.012,0.404,0.012,0.791-0.07,1.101
	c-0.703-0.044-1.264,0.047-1.9,0.071c0.035,7.094,0.697,14.112,1.098,21.141C176.256,131.354,176.787,138.339,177.248,145.297z"/>
</svg>
