<?xml version="1.0" encoding="utf-8"?>
<!-- Generator: Adobe Illustrator 16.0.0, SVG Export Plug-In . SVG Version: 6.00 Build 0)  -->
<!DOCTYPE svg PUBLIC "-//W3C//DTD SVG 1.1//EN" "http://www.w3.org/Graphics/SVG/1.1/DTD/svg11.dtd">
<svg version="1.1" id="Calque_1" xmlns="http://www.w3.org/2000/svg" xmlns:xlink="http://www.w3.org/1999/xlink" x="0px" y="0px"
	 width="432px" height="432px" viewBox="0 0 432 432" enable-background="new 0 0 432 432" xml:space="preserve">
<path fill-rule="evenodd" clip-rule="evenodd" d="M108.631,87.207c0.578,0.357,1.057,0.814,1.535,1.269
	c0.082,0.419,0.301,0.705,0.412,1.1c0.172,0.115,0.49,0.083,0.678,0.171c0.537,0.791,1.594,1.059,2.035,1.944
	c-0.33,0.389,0.078,0.811,0.084,1.271c0.023,0.87-0.449,1.637-0.844,2.197c-0.125,0.693-0.236,1.407-0.426,2.036
	c0.271,0.207,0.639,0.324,0.756,0.675c-0.006,0.212-0.359,0.088-0.248,0.425c0.23,0.688,1.162,1.581,1.186,2.617
	c0.012,0.224-0.207,0.554-0.254,0.935c-0.035,0.25,0.055,0.531,0,0.678c-0.135,0.333-0.584,0.617-0.844,0.758
	c-0.342,0-0.678,0-1.02,0c-0.064,0.442-0.271,0.743-0.254,1.268c1.086,0.242,1.881-0.755,2.873-1.015
	c0.213-0.053,0.496,0.033,0.684,0c0.514-0.074,0.844-0.413,1.352-0.504c0.018-0.256-0.318-0.292-0.082-0.507
	c0.254-0.177,0.66-0.18,0.932-0.342c0.637-0.631,0.92-1.832,1.859-2.622c0.553-0.466,1.793-0.761,1.945-1.439
	c0.195-0.829-0.783-1.366-0.424-2.115c0.447,0.121,0.82,0.315,1.191,0.507c0.43,0.723,0.531,1.779,1.098,2.369
	c0.176-0.386,0.383-0.737,0.33-1.354c0.59-0.404,0.406-1.572,1.027-1.947c0.566,0.342,0.535,1.168,0.844,1.947
	c0.076,0.207,0.275,0.381,0.336,0.51c0.336,0.797,0.018,1.251-0.508,1.44c0.012-0.209,0.012-0.41-0.088-0.508
	c-0.885-0.153-1.506,0.655-1.434,1.44c0.518,0.575,2.211-0.018,2.879,0.421c0.146-0.186,0.66-0.018,0.844-0.171
	c0.234,0.074,0.348,0.274,0.672,0.251c1.311-0.236,2.461-0.646,3.723-0.926c0.613,0.46,1.611-0.157,2.289,0
	c0.447,0.097,0.514,0.428,0.85,0.675c0.768-0.292,2.129-0.192,2.873-0.25c-0.023-0.688-0.914-0.501-1.186-0.932
	c0-0.339-0.166-0.508-0.166-0.85c0.625-0.13,0.686-0.841,1.098-1.183c0.596-0.136,0.896-0.575,1.439-0.764
	c1.527,0.383,3.197,0.091,4.99,0.174c0.514-0.283,0.986-0.599,1.523-0.85c0.914,0.879,1.279,2.201,2.295,2.964
	c0.436,0.336,1.043,0.307,1.256,0.926c-0.725,0.575-1.881,0.575-2.961,0.764c-0.207,0.039-0.371,0.168-0.59,0.171
	c-0.809,0-1.734-0.504-2.207,0.166c0.359,0.18,0.66,0.274,1.027,0.428c0.348,0.139,0.66,0.366,1.014,0.507
	c0.408,0.165,0.885,0.088,1.357,0.168c0.219,0.036,0.43,0.218,0.672,0.254c0.832,0.112,1.168,0.221,1.777,0.422
	c1.25,0.413,2.395,1.021,3.639,1.271c0.555,0.779,1.641,1.015,2.277,1.693c0.207,0,0.402,0,0.602,0
	c0.414,0.628,1.234,0.85,1.775,1.351c0.303-0.121,0.621-0.215,1.104-0.168c0.561,0.449,0.809,1.219,1.004,2.036
	c0.514,0.192,0.879,0.534,1.273,0.844c0.195,0,0.396,0,0.602,0c1.57,0.793,3.381,1.348,4.307,2.788
	c0.195,0.065,0.432,0.08,0.602,0.174c0.709,0.861,1.854,1.292,2.621,2.112c-0.006,1.138,1.203,1.469,1.775,2.206
	c0.266,0.342,0.66,1.021,0.844,1.517c0.441,1.186,0.029,2.572,0.082,3.896c0.537,0.026,0.809-0.428,1.275-0.425
	c0.518,0.003,1.408,0.531,2.029,0.847c0.695,0.351,1.379,0.773,1.945,1.015c0.189-0.263,0.756-0.153,0.939-0.422
	c-0.236-0.103-0.166-0.519-0.172-0.847c-0.313-0.519-0.92-1.156-0.932-1.693c0.477,0.357,0.873-0.112,1.357-0.171
	c1.227-0.145,2.566,0.404,3.717,0.513c0.211-0.094,0.199-0.428,0.424-0.513c1.092-0.269,1.828-1.106,2.701-1.776
	c0.396-0.295,0.881-0.534,1.363-0.843c0.461-0.304,0.891-0.755,1.346-0.932c0.441-0.174,0.949-0.139,1.363-0.339
	c0.613-0.313,1.008-0.838,1.688-1.097c1.391,0.047,1.68-1.286,2.625-1.696c0.354-0.156,0.76,0.009,1.18-0.251
	c0.549,0.587,1.764,0.741,2.625,0.761c0.307-0.26,0.59-0.54,0.768-0.932c-0.361-0.266-0.785-0.448-1.027-0.847
	c0.496-0.572-0.135-1.15-0.164-1.773c-0.055-1.437,1.084-1.667,1.869-2.289c0.348-0.283,0.484-0.563,0.756-0.681
	c0.418-0.165,1.002-0.083,1.355-0.245c0.225,0.074,0.361,0.253,0.59,0.333c3.895-1.012,7.777,0.289,9.387,2.793
	c0.443,0.071,0.838,0.186,1.104,0.425c0.266,0.059,0.313-0.091,0.514-0.085c1.475,0.525,2.943,1.059,4.146,1.864
	c-0.023,0.207-0.023,0.404,0.084,0.504c0.494,0.383,0.885,0.855,1.268,1.354c0.111,0.675,0.59,0.923,0.85,1.357
	c0.219,0.351,0.242,0.799,0.42,1.097c0.111,0.183,0.4,0.434,0.602,0.679c0.193,0.25,0.412,0.637,0.578,0.761
	c0.324,0.228,0.844,0.189,1.197,0.422c0.225,0.156,0.578,0.69,0.926,1.104c0.855,0.994,1.311,1.516,1.18,3.129
	c-0.029,0.425-0.324,0.858-0.164,1.357c0.371,0.357,0.789,0.673,1.09,1.095c1.766,0.074,1.895,1.784,4.072,1.442
	c0.984,1.018,2.135,1.867,2.199,3.805c0.844,0.873,2.029,1.41,3.127,2.032c-0.041,0.858,0.479,1.159,0.68,1.776
	c1.273,0.201,3.557-0.254,4.654,0.339c1.127-0.484,2.146,0.675,2.537,1.354c0.176,0.289,0.242,0.664,0.424,1.015
	c0.502,0.985,1.063,2.25,1.529,3.044c0.064,0.242-0.119,0.221-0.09,0.428c0.467,0.517,0.709,1.263,1.016,1.944
	c0.059,0.348-0.271,0.292-0.166,0.676c0.154,1.062,0.826,1.59,1.346,2.286c0.029,0.425,0.283,0.917,0.514,1.351
	c-0.184,0.522,0.07,0.967,0.254,1.357c-0.49,0.528-0.172,1.669,0,2.289c-0.166,0.758-0.814,2.525-0.674,3.463
	c0.064,0.457,0.566,0.77,0.42,1.271c0.666,0.437,1.002,1.194,1.35,1.944c-0.301,0.283-0.441,0.737-0.59,1.188
	c-0.453-0.015-0.695,0.207-1.014,0.339c-0.295,0.773-0.768,1.891-0.596,2.623c-0.52,0.658-0.791,1.569-1.01,2.54
	c-0.902,0.499-1.121,1.617-1.02,2.962c0.07,0.891,0.523,1.837,0.506,2.708c-0.018,0.791-0.512,1.31-0.506,2.033
	c-0.037,0.313,0.342,0.221,0.26,0.59c-0.42,0.835-0.992,1.646-0.928,2.793c0.012,0.425,0.301,0.782,0.166,1.269
	c0.33,0.25,0.648,0.534,0.932,0.847c0.023,0.923,0.926,1.572,1.27,2.451c-0.055,0.504,0.094,0.808,0.246,1.1
	c0.602,0.156,0.885,0.64,1.357,0.932c0.219-0.286,0.514-0.501,0.844-0.675c-0.041-1.274,0.035-3.118,0-4.655
	c0.371-0.393,0.879-0.655,1.445-0.844c-0.531-0.463-0.896-0.926-1.445-1.271c-0.555-0.354-1.273-0.439-1.781-0.932
	c0.4-0.186,0.219-0.752,0.094-1.103c0.432-0.496,0.396-1.46,0.762-2.026c0.736,0.46,1.629,0.23,2.195,0.764
	c0.406,0.372,0.564,1.118,0.938,1.434c1.115,0.177,1.434,1.162,1.604,2.283c-0.301,0.331-0.637,0.614-0.506,1.357
	c0.477,0.165,1.25,0.05,1.857,0.085c0.365-0.867-0.342-2.136,0-2.708c0.637,0.52,1.357,0.959,1.941,1.522
	c0.064,0.336,0.295,0.932,0.514,1.354c-0.254,0.669,0.135,1.304,0.43,1.693c-0.307,0.46-0.66,0.861-1.098,1.183
	c-0.383-0.121-0.506,0.006-0.938,0c-0.479,0.48-0.891,0.885-1.268,1.354c-0.113,0.145-0.35,0.304-0.426,0.425
	c-0.195,0.295-0.164,0.711-0.342,1.018c-0.143,0.248-0.42,0.419-0.59,0.675c-0.225,0.342-0.33,0.661-0.508,1.012
	c-0.814,0.212-1.068,0.968-1.947,1.101c-0.158,0.315-0.477,0.487-0.59,0.85c0.791,0.593,0.189,1.581,0.59,2.622
	c0.768,0.062,0.975,0.507,1.357,0.932c0.537,0.599,1.109,1.13,1.434,1.861c-0.064,0.215-0.348,0.215-0.508,0.336
	c0.662,0.575,0.633,1.62,1.021,2.372c0.295,0.575,0.914,0.755,1.18,1.269c0.178,0.817,0.738,1.239,1.021,1.947
	c-0.043,0.336-0.043,0.256,0,0.59c0.553,1.021,0.938,2.218,1.439,3.304c-0.172,0.177-0.709-0.029-0.686,0.339
	c0.596,0.534,1.387,0.87,1.529,1.861c0.295,0.139,0.447-0.08,0.748,0.083c0.613,0.534,1.068,1.198,1.711,1.693
	c0.625-0.036,0.914,0.265,1.174,0.596c-0.248,0.345,0.053,0.829,0.082,1.266c0.037,0.336-0.047,0.669,0,1.018
	c0.078,0.422,0.367,0.764,0.432,1.183c0.094,0.699-0.076,1.495,0,2.286c0.418,0.286,0.631,0.776,1.092,1.018
	c-0.137,0.557,0.283,0.569,0.348,0.926c0.064,0.528,0.135,1.047,0.496,1.268c0.465-1.218,0.643-2.142,0.514-3.466
	c-0.314-0.31-0.674-0.566-0.844-1.018c0.371-0.372,0.324-0.631,0.33-1.351c0.43-0.971,0.914-1.858,1.451-2.705
	c-0.402-0.805-0.938-1.891-0.426-2.882c0.785-0.593,1.795-0.322,2.455,0.253c-0.414,1.112,0.543,2.177,0.844,3.13
	c-0.283,0.425-0.219,1.192-0.59,1.528c-0.479,0.145-0.619-0.339-0.926-0.088c-0.598,0.82-0.143,1.711-0.432,2.705
	c0.07,0.357,0.449,0.395,0.508,0.764c-0.184,0.684,0.041,1.64,0.176,2.283c0.627,0.41,1.057,1.024,1.518,1.611
	c1.598,0.266,2.111,1.61,3.215,2.372c0.619-0.088,1.08,0.404,1.605,0.504c0.518,0.1,1.203-0.183,1.609,0.342
	c-0.188,1.372,0.607,1.758,0.932,2.619c-0.377,1.393,0.709,2.555,0.508,4.319c0.49,0.581,0.42,1.726,0.926,2.283
	c-0.4,1.038-0.064,1.702,0.254,2.457c0.473,1.091,1.168,1.513,1.611,2.369c-0.154,0.451-0.797,0.708-0.838,1.269
	c-0.053,0.548,0.307,0.791,0.59,1.268c1.033,0.283,1.262,1.387,2.283,1.693c0.029-0.643-0.082-1.437,0.082-1.95
	c0.355-0.269,1.039-0.201,1.445-0.419c0.201,0.493,0.885,0.51,1.422,0.675c0.289,0.46,0.686,0.794,1.199,1.015
	c1.025-0.351,2.424,0.236,3.043,0.846c0.082,0.991,0.721,1.422,1.186,2.033c0.596,0.026,1.021,0.534,1.611,0.761
	c0.631,0.245,1.539,0.142,1.936,0.761c0,0.254,0,0.504,0,0.761c0.43,0.616,0.92,1.174,1.02,2.115c0.461,0.903,1.246,1.623,1.77,2.54
	c0.697,1.186,0.922,2.619,1.705,3.808c1.156-0.174,1.789,0.77,2.785,1.015c0.426-0.318,0.861,0.015,1.451,0
	c1.039,0.873,1.93,1.897,2.779,2.958c-0.189,0.404-0.449,0.738-0.75,1.018c-0.525-0.339-0.885,0.389-1.279,0.171
	c-0.289-0.05-0.402-0.277-0.33-0.675c-0.113-0.127-0.326-0.133-0.42-0.257c-0.023-0.814-0.949-0.997-1.615-0.675
	c-0.586-0.425-0.957-1.068-1.357-1.696c-0.514,0.05-1.221-0.098-1.605,0.088c0.172,0.885-0.549,1.407-0.596,2.026
	c-0.035,0.507,0.414,0.855,0.336,1.525c0.318,0.475,0.879,0.708,1.021,1.357c0.961,0.646,2.289,0.92,3.977,0.846
	c0.549-0.472,1.244-0.289,1.869-0.513c0.438-0.153,0.691-0.587,1.098-0.758c0.949-0.407,1.775,0.023,2.791,0.507
	c0.719-0.519,1.723-0.251,2.447-0.593c0.656-0.295,0.838-1.056,1.445-1.271c0.867,0.056,1.104-0.534,1.783-0.676
	c0.336-0.062,0.283,0.274,0.666,0.174c0.85-0.104,1.393-0.625,2.035-1.018c0.797-0.484,1.664-0.785,2.289-1.44
	c0.49-0.534,0.701-1.212,1.434-1.522c0.059-0.552,0.814-1.056,0.85-1.693c0.023-0.613-0.613-1.256-0.684-1.861
	c-0.018-0.195,0.17-0.39,0.17-0.59c0-0.18-0.152-0.422-0.17-0.599c-0.035-0.425-0.049-0.979,0-1.269
	c0.07-0.375,0.365-0.69,0.43-1.097c0.059-0.428-0.1-0.853,0-1.271c0.119-0.537,0.619-0.935,0.838-1.437
	c0.449-0.979,0.449-2.044,0.932-2.961c0.443-0.301,0.75-0.726,1.098-1.101c-0.059-0.855,0.336-1.253,0.514-1.864
	c0.047-0.36-0.277-0.342-0.254-0.678c0.426-0.808,0.508-1.915,0.762-2.534c0.365-0.903,0.789-1.549,1.344-2.121
	c0.049-0.336-0.266-0.333-0.164-0.758c0.219-1.103,0.395-2.109,0.26-3.215c-0.107-0.891-0.709-1.637-0.508-2.705
	c-0.814-1.342-0.797-3.266-0.42-4.829c0.072-0.307,0.078-0.755,0.16-1.015c0.105-0.28,0.432-0.469,0.508-0.758
	c0.242-0.861-0.018-1.631-0.248-2.289c0.514-0.274,0.525-1.053,0.508-1.861c-0.939-1.48-0.283-3.669-0.508-5.584
	c-0.082-0.702-0.371-1.377-0.42-2.029c-0.059-0.623,0.09-1.227,0.084-1.858c-0.023-1.333-0.365-2.516-0.85-3.558
	c0.242-0.46,0.006-0.681,0-1.268c-0.607-0.221-1.092-0.54-1.434-1.015c0.164-0.717-0.721-1.006-0.514-2.033
	c-0.26-0.31-0.479-0.652-0.684-1.018c-0.607-0.369-1.145-0.61-1.6-1.015c-1.658-1.439-1.699-4.555-2.967-6.177
	c0.242-0.511-0.119-1.098-0.254-1.522c0.383-0.292,0.33-0.678,0.254-1.271c-0.113-0.221-0.35-0.319-0.42-0.59
	c-0.164-0.619-0.359-1.2-0.59-1.778c-0.23-0.558-0.389-1.204-0.678-1.693c-0.414-0.688-1.145-1.254-1.693-1.861
	c-0.584-0.64-0.992-1.377-1.439-2.198c-0.832-1.531-2.088-3.094-2.283-4.994c-0.119-1.174,0.111-2.401,0.164-3.726
	c-0.523-0.682-1.227-1.192-1.604-2.03c0.123-0.183,0.219-0.407,0.176-0.764c-0.707-0.516-1.043-1.073-1.527-1.772
	c-0.736-1.059-1.51-2.336-1.357-4.147c0.055-0.319,0.391-0.348,0.426-0.676c0.383-1.761,0.301-3.985,0.762-5.672
	c-0.49-0.953-0.969-2.065-1.27-3.13c-0.1-0.357-0.076-0.861-0.43-1.1c-0.373-0.012-0.012,0.717-0.42,0.679
	c-2.348-2.342-3.352-6.018-6.43-7.623c-0.012-1.929-1.057-3.566-2.201-4.652c-0.178-0.681-0.637-1.047-0.926-1.604
	c0.146-0.977-0.438-1.333-0.938-1.867c-0.627-0.667-1.115-1.307-1.518-2.115c0.053-1.25-0.855-2.233-1.104-3.466
	c-0.365-0.053-0.193,0.425-0.59,0.339c-0.447-0.852-0.949-1.652-1.609-2.286c-0.42-1.378-1.092-2.51-1.693-3.723
	c0.973-0.923,0.477-2.965-0.926-3.13c-0.844-0.941-1.582-1.982-1.777-3.555c-0.295-0.389-0.572-0.788-0.684-1.357
	c-0.307-0.13-0.52-0.25-0.666-0.507c-0.408-0.628-0.049-1.289-0.09-2.201c-0.035-0.669-0.459-1.183-0.254-1.775
	c-0.795-0.171-0.984-0.941-1.361-1.525c0.129-0.315,0.342-0.557,0.424-0.926c-0.225-0.327-0.742-0.495-1.008-1.015
	c-0.531-1.018-0.385-2.044,0.5-2.372c-0.465-0.519-0.707-1.269-1.014-1.947c-0.088-0.25-0.484-0.192-0.508-0.51
	c-0.082-0.472-0.43-0.971-0.254-1.437c-0.111-0.304-0.514-0.339-0.672-0.593c0.496-0.988-0.814-1.643-1.021-2.708
	c-0.035-0.201,0.107-0.478,0.09-0.679c-0.018-0.188-0.148-0.392-0.166-0.593c-0.047-0.318,0.041-0.679,0-0.926
	c-0.117-0.643-0.648-1.133-0.342-1.779c-0.201-0.537-0.584-0.882-0.602-1.61c-0.295-0.286-0.674-0.501-0.832-0.929
	c0.525-0.363,0.164-0.861,0.164-1.354c0-0.366,0.254-0.723,0.248-1.015c0-0.257-0.205-0.481-0.248-0.761
	c-0.076-0.401,0.09-0.82-0.088-1.189c-0.424,0.177-0.418,0.77-0.938,0.85c-0.773-0.496-1.705-0.829-2.107-1.693
	c-1.391-0.101-2.158-0.835-3.723-0.758c-0.424-0.501-1.09-0.531-1.869-0.767c-0.496-0.147-0.943-0.392-1.352-0.422
	c-0.666-0.047-1.799-0.032-2.537,0.168c-0.838,0.23-2.584,1.48-2.873,2.121c-0.318,0.682-0.047,1.348-0.436,2.115
	c0.459,0.873,0.689,1.97,1.197,2.788c0.035,0.269-0.271,0.192-0.172,0.51c0.572,1.817-0.082,3.655,0,5.841
	c-0.701,0.203-0.92,0.888-1.439,1.268c-0.885-0.233-2.766,0.168-3.303-0.844c0.129-0.389,0.354-0.672,0.424-1.1
	c-0.648-0.734-0.129-1.658-0.59-2.628c-0.566-0.404-1.627-0.634-1.268-1.69c0.006-0.292,0.502-0.121,0.336-0.593
	c-1.346-0.449-2.826-0.254-4.236-0.254c-22.637,0-45.414,0-67.945,0c-0.566-0.501-0.85-1.298-1.439-1.779
	c0.082-0.454-0.412-0.723-0.508-1.183c-0.105-0.49,0.102-1.104,0-1.611c-0.164-0.814-0.561-1.28-0.932-1.858
	c-0.324,0.104-0.891,0.31-1.262,0.085c-0.055-0.723,0.012-1.336,0.246-1.781c-1.008-0.841-1.656-0.679-3.551-0.587
	c-1.883,0.085-3.51,0-5.25,0.08c-6.52,0.304-13.258,0.511-19.293,0.593c-13.729,0.186-27.822,1.126-41.131,1.439
	c-0.047,1.136-0.885,1.478-0.756,2.791C108.371,86.342,108.52,86.761,108.631,87.207z"/>
<path fill-rule="evenodd" clip-rule="evenodd" d="M243.438,145.084c-0.131,0.133-0.148,0.587,0.17,0.514
	C243.738,145.468,243.762,145.017,243.438,145.084z"/>
<path fill-rule="evenodd" clip-rule="evenodd" d="M243.697,147.539c0.248-0.027,0.418-0.145,0.506-0.339
	c-0.295-0.26-0.264-0.858-0.766-0.929C243.154,146.763,243.643,147.126,243.697,147.539z"/>
<path fill-rule="evenodd" clip-rule="evenodd" d="M244.635,147.371c-0.236,0.339,0.018,0.785,0,1.186c0.324,0,0.666,0,1.002,0
	C245.637,147.825,245.502,147.226,244.635,147.371z"/>
<path fill-rule="evenodd" clip-rule="evenodd" d="M266.203,218.458c-0.736-0.475-2.023-0.404-2.701-0.932
	c-0.102,0.271-0.578,0.165-0.68,0.425c0.373,0.304,0.709,0.643,1.01,1.015c0.719,0.056,1.693,0.18,1.869,1.015
	c0.898-0.283,1.73-0.64,2.113-1.439C267.365,218.316,266.711,218.169,266.203,218.458z"/>
<path fill-rule="evenodd" clip-rule="evenodd" d="M320.197,251.378c0.555-0.835,1.711-1.971,0.596-2.879
	c-0.225,1.106-1.086,1.566-1.611,2.366c-0.266,0.304-0.861,0.271-0.932,0.764c0.295,0.354,0.602,0.696,1.104,0.85
	C319.631,252.295,319.902,251.832,320.197,251.378z"/>
<path fill-rule="evenodd" clip-rule="evenodd" d="M317.996,253.747c-0.029,0.49-0.059,0.702,0.082,1.188
	c-0.619,0.481-1.422,1.224-1.104,2.36c0.686-0.445,1.588-0.667,1.447-1.944c0.164-0.369,0.477-0.581,0.59-1.015
	C318.668,254.145,318.604,253.673,317.996,253.747z"/>
<path fill-rule="evenodd" clip-rule="evenodd" d="M315.541,254.254c-0.012,0.209-0.012,0.41,0.172,0.425
	C315.678,254.517,315.83,254.166,315.541,254.254z"/>
<path fill-rule="evenodd" clip-rule="evenodd" d="M315.029,256.62c-0.213,0.156-0.344,0.386-0.502,0.596
	c0.236,0.162,0.666,0.472,1.014,0.254C315.506,257.053,315.289,256.82,315.029,256.62z"/>
<path fill-rule="evenodd" clip-rule="evenodd" d="M310.717,258.396c0-0.587-0.148-1.03-0.338-1.434
	C309.283,257.168,310.084,258.558,310.717,258.396z"/>
<path fill-rule="evenodd" clip-rule="evenodd" d="M308.008,260.938c-0.07,0.271,0.137,0.266,0.172,0.425
	c0.324,0.009,0.453-0.168,0.508-0.425C308.492,260.882,308.18,260.77,308.008,260.938z"/>
<path fill-rule="evenodd" clip-rule="evenodd" d="M309.447,264.407c0.219-0.15,0.379-0.416,0.254-0.679c-0.141,0-0.277,0-0.418,0
	C309.193,263.95,309.1,264.404,309.447,264.407z"/>
<path fill-rule="evenodd" clip-rule="evenodd" d="M305.555,267.457c0.523,0.463,1.115-0.162,1.273-0.599
	c-0.195-0.195-0.289-0.507-0.678-0.501C305.896,266.667,305.801,267.133,305.555,267.457z"/>
<path fill-rule="evenodd" clip-rule="evenodd" d="M297.855,270.926c0.006,0.304,0.135,0.489,0.17,0.761
	c0.414-0.126,0.791-0.271,1.104-0.51C299.146,270.681,298.037,270.419,297.855,270.926z"/>
<path fill-rule="evenodd" clip-rule="evenodd" d="M284.145,271.009c-0.012,0.386-0.377,0.767-0.16,1.1
	c0.438-0.012,0.555-0.342,0.75-0.596C284.688,271.197,284.41,271.115,284.145,271.009z"/>
<path fill-rule="evenodd" clip-rule="evenodd" d="M288.375,272.109c0,0.083,0,0.168,0,0.254c0.318,0.336,0.914,0.377,1.355,0.593
	c0.189-0.115,0.248-0.64,0.078-0.847C289.176,272.118,288.811,271.958,288.375,272.109z"/>
<path fill-rule="evenodd" clip-rule="evenodd" d="M283.135,273.124c-0.494-0.363-0.943-0.752-1.609-0.932
	C281.152,272.799,283.1,274.431,283.135,273.124z"/>
<path fill-rule="evenodd" clip-rule="evenodd" d="M286.186,272.191c-0.225,0.602,0.625,1.095,1.174,0.932
	C287.047,272.726,286.787,272.289,286.186,272.191z"/>
<path fill-rule="evenodd" clip-rule="evenodd" d="M285.578,272.87c-0.189,0.088-0.266,0.292-0.59,0.253
	c0.035,0.531,0.537,0.593,0.938,0.761C286.092,273.563,285.949,272.92,285.578,272.87z"/>
<path fill-rule="evenodd" clip-rule="evenodd" d="M288.717,273.548c0.607,0.018,1.168,0.41,1.693,0.254
	C290.074,273.448,289.006,272.684,288.717,273.548z"/>
<path fill-rule="evenodd" clip-rule="evenodd" d="M284.652,274.985c0.631,0.313,0.891-0.366,1.439,0
	c0.117-0.221,0.289-0.389,0.424-0.593C285.867,273.991,284.805,274.36,284.652,274.985z"/>
<path fill-rule="evenodd" clip-rule="evenodd" d="M287.607,275.159c0.184-0.074,0.307-0.215,0.26-0.51
	c-0.16-0.154-0.561-0.062-0.85-0.086C287.146,274.834,287.201,275.171,287.607,275.159z"/>
<path fill-rule="evenodd" clip-rule="evenodd" d="M282.881,275.07c0.066,0.502,0.037,1.089,0.496,1.183
	c0.514-0.221,0.744-0.726,1.021-1.183C284.039,274.958,283.236,274.914,282.881,275.07z"/>
<path fill-rule="evenodd" clip-rule="evenodd" d="M274.074,276c0.105,0.348,0.313,0.587,0.602,0.764c0.1-0.18,0.307-0.25,0.336-0.51
	C274.693,276.191,274.322,275.852,274.074,276z"/>
<path fill-rule="evenodd" clip-rule="evenodd" d="M281.012,276.932c0.195,0.03,0.152,0.295,0.43,0.254
	c0.379-0.266,0.867-0.422,0.928-1.015c-0.295-0.091-0.525-0.263-0.928-0.251C281.389,276.354,281.117,276.56,281.012,276.932z"/>
<path fill-rule="evenodd" clip-rule="evenodd" d="M268.068,276.932c0.006,0.36-0.266,0.434-0.254,0.676
	c0.059,0.734,1.598,1.1,2.207,0.507c-0.266-0.726-0.271-1.702-1.281-1.69c-0.23,0.186-0.012,0.28-0.164,0.507
	C268.404,276.932,268.238,276.932,268.068,276.932z"/>
<path fill-rule="evenodd" clip-rule="evenodd" d="M280.168,277.268c-0.07-0.395-0.643-0.501-1.021-0.336
	c-0.111-0.106-0.035-0.413-0.24-0.424c-0.184,0.301-0.572,0.389-0.939,0.51C278.186,278.006,279.654,278.006,280.168,277.268z"/>
<path fill-rule="evenodd" clip-rule="evenodd" d="M276.191,277.354c-0.105-0.386-0.479-0.772-0.844-0.422
	c-0.047,0.269,0.119,0.331,0.16,0.508C275.762,277.427,276.074,277.483,276.191,277.354z"/>
<path fill-rule="evenodd" clip-rule="evenodd" d="M275.172,278.115c0-0.245-0.189-0.315-0.332-0.419
	C274.676,277.873,274.805,278.218,275.172,278.115z"/>
<path fill-rule="evenodd" clip-rule="evenodd" d="M272.811,278.115c0.078-0.342-0.465-0.289-0.59-0.168
	C272.174,278.33,272.605,278.177,272.811,278.115z"/>
<path fill-rule="evenodd" clip-rule="evenodd" d="M273.141,278.372c-0.176,0.177,0.049,0.242,0,0.507c0.178,0,0.338,0,0.508,0
	C273.643,278.545,273.389,278.469,273.141,278.372z"/>
<path fill-rule="evenodd" clip-rule="evenodd" d="M316.469,254.593c-0.619-0.339-0.98,0.51-0.42,0.758
	c-0.164,0.039-0.07,0.331-0.336,0.254c-0.035-0.157,0.117-0.507-0.172-0.425c-0.053,0.419,0.32,0.661-0.082,1.1
	c0.119,0.026,0.143,0.145,0.254,0.171C316.133,255.817,316.232,255.333,316.469,254.593z"/>
</svg>
