<?xml version="1.0" encoding="utf-8"?>
<!-- Generator: Adobe Illustrator 16.0.0, SVG Export Plug-In . SVG Version: 6.00 Build 0)  -->
<!DOCTYPE svg PUBLIC "-//W3C//DTD SVG 1.1//EN" "http://www.w3.org/Graphics/SVG/1.1/DTD/svg11.dtd">
<svg version="1.1" id="Calque_1" xmlns="http://www.w3.org/2000/svg" xmlns:xlink="http://www.w3.org/1999/xlink" x="0px" y="0px"
	 width="432px" height="432px" viewBox="0 0 432 432" enable-background="new 0 0 432 432" xml:space="preserve">
<path fill-rule="evenodd" clip-rule="evenodd" d="M139.126,122.407c0.678,3.212,1.025,7.64,1.539,10.791
	c0.756,4.619,1.292,9.23,1.971,13.875c0.117,0.806,0.336,1.652,0.431,2.484c0.13,1.153,0.083,2.528,0.513,3.168
	c0.614,6.779,1.788,12.997,2.738,19.439c0.313,0.035,0.572,0.115,0.772,0.259c0.012,0.814-0.419,0.974-0.343,1.54
	c0.102,0.74,1.246,1.012,1.287,1.542c0.012,0.174-0.467,0.322-0.432,0.599c0.071,0.504,0.785,0.555,0.855,1.112
	c-0.495,1.274,0.289,2.277,0.855,3c-0.194,0.26-0.412,0.496-0.596,0.77c0.75,0.667,0.82,1.734,1.287,2.569
	c0.229,0.419,0.596,0.923,0.938,1.286c0.248,0.253,0.648,0.401,0.855,0.684c0.643,0.871,0.637,1.935,0.689,3.339
	c0.271,0.525,0.927,0.669,1.109,1.286c-0.602,0.26-0.826,1.59-0.424,2.31c-0.661,0.484-1.481,1.277-0.855,2.313
	c0.832-0.174,0.778,0.531,1.539,0.431c0.625,0.688,1.517,1.106,1.883,2.053c-0.054,0.319-0.479,0.263-0.855,0.26
	c-0.048,0.437,0.129,1.1-0.172,1.283c-0.726,0.018-1.64-0.153-1.799,0.428c-0.018,0.307,0.483,0.088,0.43,0.428
	c-0.17,0.259-0.348,0.513-0.513,0.773c-1.28,0.377-1.882,1.427-2.743,2.224c0.371,1.569-0.006,3.115,0,4.796
	c-0.07,0.271-0.324,0.363-0.342,0.687c-0.042,0.383,0.041,0.64,0.088,0.941c-0.301,0.242-0.701,0.387-0.943,0.685
	c0.188,0.124,0.117,0.51,0.254,0.687c-0.373,0.62-1.293,0.968-1.198,1.796c-0.331-0.018-0.442,0.186-0.685,0.257
	c-0.336,1.599,0.242,3.218-0.342,4.54c0.59,1.027,0.648,2.596,0.514,3.941c0.59,0.582,1.268,1.071,1.881,1.625
	c-0.07,0.153-0.235,0.218-0.17,0.516c0.861,1.098,0.253,3.558,1.374,4.452c-0.59,1.118-1.817,2.507-1.026,4.197
	c-0.106,0.298-0.584,0.218-0.602,0.599c-0.172,1.516-0.867,2.849-0.089,4.197c-0.425,0.198-0.472,0.785-0.685,1.198
	c-0.123,0.189-0.49,0.139-0.514,0.431c-0.1,0.796,0.36,1.46,0.343,2.313c-0.006,0.596-0.349,1.142-0.254,1.625
	c0.112,0.596,0.82,0.985,1.109,1.372c0.153,0.938,1.21,1.457,1.628,2.484c0.16,0.389,0.077,0.755,0.172,1.197
	c0.206,0.932,0.943,1.867,0.861,2.826c-0.012,0.062-0.148,0.245-0.178,0.342c-0.07,0.274-0.047,0.478-0.082,0.687
	c0.159,0.354,0.654,0.372,0.855,0.685c0,0.372,0,0.743,0,1.115c0.177,0.08,0.307,0.195,0.43,0.342
	c0.508,0.625,1.287,2.428,1.281,3.425c0,0.212-0.154,0.493-0.172,0.685c-0.07,0.985,0.531,1.734,0.602,2.655
	c0.691,0.596,1.328,1.245,1.711,2.141c30.92,1.861,62.542,3.744,93.698,5.652c0.235,0.452,0.991,0.381,1.368,0.688
	c-0.495,1.658,0.467,2.212,0.773,3.253c0.206,0.705,0.012,1.28,0.342,2.056c-0.654,0.858,0.101,1.979,0.431,2.655
	c0.95,0.274,1.575,0.761,2.737,0.428c0.289,0.027,0.248,0.381,0.514,0.428c0.731-0.383,2.023-0.207,2.572-0.77
	c-0.484-1.784,0.483-3.321,0.684-4.967c0.083-0.688-0.146-1.434-0.088-2.142c0.064-0.776,0.619-1.578,0.171-2.398
	c-0.101-0.127-0.324-0.133-0.425-0.257c0.035-0.499-0.502-1.153-0.602-1.799c-0.053-0.147-0.407,0.006-0.431-0.171
	c0.018-1.021,0.26-1.711,0.431-2.741c-0.283-0.478-0.467-0.537-0.431-0.855c0.077-0.628,1.222-0.693,1.286-1.2
	c0.07-0.49-0.502-0.617-0.514-0.941c0.584,0.1,1.115,0.256,1.629,0.427c0.772-0.354,0.59-1.271,0.602-2.056
	c0.643,0.186,1.758,0.829,2.307,0.085c0.124,0.419,0.448,0.637,0.602,1.029c0.537,0.115,1.322,0.501,1.971,0.428
	c0.365-0.041,0.46-0.389,0.773-0.256c0.483,0.085,0.542,0.596,0.938,0.77c0.142-0.118,0.105-0.407,0.431-0.342
	c0.513,0.46,0.885,1.056,1.368,1.542c0.879-0.05,1.505,0.147,2.402,0.085c0.029,0.286,0.146,0.481,0.342,0.599
	c1.557,0.207,2.867,0.33,4.023,0.684c0.219-0.711,1.539-0.631,2.313-0.513c-0.035-0.507-0.755-0.33-1.115-0.513
	c-0.266-0.525,0.159-1.021,0.089-1.628c-0.036-0.207,0.389,0.047,0.253-0.256c-0.206-1.198,0.095-2.124,0.349-3.083
	c0.206-0.009,0.359,0.758,0.425,0.342c0.165-0.82-0.902-0.826-0.855-1.457c0.029-0.46,0.431-0.383,0.772-0.77
	c-0.33-0.106,0.012-0.351-0.177-0.599c-0.212-0.127-0.354-0.333-0.425-0.602c0.26-0.28,0.767-0.319,0.938-0.685
	c-0.124-0.015-0.077-0.207-0.083-0.342c-0.242-0.271-0.809-0.218-1.026-0.513c0.023-0.929,0.26-2.08-0.171-2.74
	c0.407-0.449,0.926-0.785,1.457-1.115c0.26,0.171,0.731,0.121,0.938,0.342c-0.006,0.286-0.425,0.956,0,1.115
	c0.419,0.018,0.496-0.578,0.603-0.855c0.472-1.254,0.383-2.708,0.171-4.198c0.685,0.026,1.032-0.283,1.457-0.513
	c-0.041-1.112,0.101-1.528,0.596-2.056c-0.147-0.28-0.124-0.729-0.254-1.029c0.449-0.463,0.785-1.039,1.711-1.027
	c-0.301-0.271-0.389-0.752-0.425-1.283c-0.483-0.602-1.044-1.126-1.799-1.457c0.555,0.101,0.472-0.439,0.596-0.77
	c0.743-0.174,1.203-0.628,1.286-1.457c-0.307-0.035-0.661-0.021-0.772-0.257c0.359-0.658-0.354-0.791-0.514-1.2
	c-0.018-0.419,0.153-0.646,0.089-1.112c0.377-0.106,0.743-0.224,1.114-0.342c0.325,0.758,0.644,1.522,1.198,2.056
	c0.714-0.139,0.708-0.926,1.026-1.628c0.448-0.289,0.555-0.929,0.943-1.283c0.13-1.018,0.083-2.395,0.425-3.427
	c1.588-0.086,0.667-2.295-0.596-2.398c-0.124-0.62-0.365-1.118-0.513-1.711c0.359-0.18,0.69-0.395,1.197-0.431
	c0.478,0.233,0.425,1.003,0.772,1.372c-0.123-0.791-0.188-1.643-0.519-2.227c0.625-0.233,1.374-0.339,1.374-1.198
	c-0.542-0.46-0.961,0.378-1.457,0.171c0.343-0.504,0.065-1.286,0.083-1.971c0.206,0.042,0.855,0.398,0.943,0
	c0.266-0.386-0.318-0.646-0.342-1.026c0.348-0.124,0.437-0.72,0.855-0.516c0.112,0.69,0.136,1.466,0.431,1.97
	c0.755-0.253,1.174-1.1,1.794-1.625c0.301-0.251,0.707-0.366,0.943-0.688c0.378-0.51,0.602-1.239,0.855-1.885
	c-0.318-0.233-0.673-0.08-1.026-0.257c-0.489-0.248-0.791-0.87-1.286-1.112c0.708-0.115,0.106-1.015,0.514-1.372
	c0.318,0.027,0.235,0.455,0.602,0.431c1.015-0.115,1.593,0.425,2.483,0.171c0.454-0.463,0.578-1.254,0.685-2.056
	c-0.401-0.065-0.201-0.655-0.343-0.944c-0.123-0.257-0.519-0.207-0.342-0.428c0.448-0.065,0.885-0.139,1.369-0.171
	c0.012-0.331,0.371-0.449,0.519-0.685c0.159-0.263,0.142-0.581,0.343-0.858c0.678-0.256,1.475-0.41,2.483-0.342
	c0.089-0.431-0.194-0.489-0.171-0.855c-0.401-0.029-0.607-0.253-0.69-0.599c-0.295-0.044-0.555-0.127-0.938-0.085
	c-0.72-0.51-1.463-0.994-1.97-1.714c-0.23-0.1-0.508,0.165-0.514,0c-0.26-0.617-0.714-1.121-1.286-1.112
	c-0.407,0.006-0.566,0.443-0.943,0.599c-0.248,0.103-0.49-0.053-0.685,0.085c-0.638-0.363-0.826-1.171-1.8-1.198
	c-0.2-0.604-0.289-0.935,0.089-1.372c-0.36-0.039-0.384-0.419-0.602-0.599c0.194-0.062,0.437-0.077,0.602-0.171
	c-0.124-0.277-0.083-0.72-0.089-1.115c-0.324-0.242-0.643-0.496-0.938-0.77c-0.13-0.469-0.271-0.929-0.514-1.286
	c0.236-0.552,0.867-0.699,1.026-1.283c0.236-0.891-0.519-1.628-0.342-2.655c-0.23-0.085-0.283-0.345-0.431-0.513
	c-0.213-0.171-0.289,0.221-0.602,0c-0.496-1.271-1.192-2.345-1.794-3.513c0.254-0.345,0.531-0.664,0.685-1.112
	c-0.644-0.672-1.61-1.021-1.717-2.227c-1.21-0.156-1.387-1.348-2.136-1.97c-0.307-0.221-0.714,0.05-1.032,0.085
	c-0.72-0.333-1.499-0.611-1.8-1.369c-0.855,0.032-1.026-0.631-1.368-1.115c0.536-0.726,0.419-1.791,0.171-2.74
	c-0.054-0.289-0.549-0.136-0.514-0.513c0.23-0.806,0.484-1.504,0.343-2.398c-0.077-0.493-0.561-0.997-0.431-1.457
	c0.136-0.457-0.142-1.487-0.337-2.053c-0.313-0.236-0.678-0.41-0.943-0.687c0.029-0.8-0.425-1.118-0.514-1.796
	c-0.076-0.186-0.548,0.029-0.602-0.171c0.224-0.855-0.614-1.383-0.855-2.056c0.513-0.292,0.136-1.307,0.685-1.713
	c-0.283-1-1.127-1.44-1.971-1.885c-0.006-0.233,0.142-0.171,0-0.342c-0.26-0.062-0.254,0.147-0.514,0.086
	c-0.123-0.478-0.377-0.82-1.026-0.77c-0.289-0.396-0.578-0.791-0.854-1.201c-0.296,0.023-0.414,0.218-0.773,0.171
	c-1.764-1.032-4.029-1.563-4.968-3.424c0.194-0.319,0.431-0.599,0.514-1.027c-0.212-0.357-0.302-0.837-0.685-1.029
	c-0.301,0.077-0.377,0.717-0.685,0.516c-0.726-0.33-1.356-0.761-1.8-1.372c0.414-0.504,0.75-0.614,0.603-1.115
	c-0.077-0.242-0.295-0.212-0.513-0.342c-0.266-0.153-0.443-0.357-0.691-0.428c0.065-0.195,0.49-0.027,0.432-0.342
	c-0.219-0.009-0.172-0.286-0.172-0.513c-0.242-0.104-0.59-0.095-0.943-0.085c-0.254-0.413-0.673-1.139-1.027-0.944
	c0.131-0.015,0.077-0.207,0.089-0.342c-0.437-0.133-1.12-0.021-1.114-0.599c0.023-0.401,0.507-0.345,0.602-0.684
	c-0.266-0.251-0.318-0.711-0.432-1.115c0.089-0.263,0.537-0.493,0.855-0.256c-0.047-0.407-0.578-0.333-0.684-0.685
	c0.212-0.189,0.561-0.239,0.602-0.599c-0.33-1.127-1.28-1.634-2.484-1.885c-0.33-1.554-1.545-2.224-2.229-3.425
	c-1.009-0.672-2.413-0.958-3.681-1.372c0.059-0.345-0.084-0.49-0.09-0.77c-0.566,0.551-1.238-0.283-1.711-0.599
	c0.543-1.457-0.849-2.035-1.197-3c-0.254-0.699-0.082-1.345-0.513-2.053c-0.572-0.628-1.587-0.812-1.717-1.885
	c-1.422-0.944-2.384-2.357-4.366-2.74c-0.165-0.377-0.66-0.425-1.115-0.516c-0.578-1.015-1.622-1.572-2.141-2.655
	c-1.428,0.059-1.641-0.717-2.143-1.711c-0.73-1.46-1.043-3.207-2.313-3.855c0.137-0.124,0.077-0.437,0.089-0.685
	c-0.448-0.548-1.05-0.95-1.286-1.713c-0.105-0.118-0.371-0.083-0.596-0.086c-0.69-0.873-1.404-1.687-1.629-2.826
	c-0.17-0.861,0.154-1.917-0.17-2.74c-0.225-0.561-1.092-0.929-1.375-1.628c-0.189-0.478-0.101-0.814-0.254-1.369
	c-0.431-0.372-0.797-0.799-1.286-1.115c-0.626-1.142-0.366-3.171-1.457-3.853c-0.136-0.233-0.054-0.687-0.254-0.855
	c-1.05-0.699-2.384-0.18-3.77-0.171c-0.26-0.006-0.206,0.307-0.514,0.257c-0.879-0.52-2.153-0.646-2.743-1.458
	c0.147-0.115,0.136-0.38,0.26-0.513c-0.826-0.431-1.092-1.419-2.142-1.628c-0.177-0.705-0.649-1.121-0.855-1.796
	c-0.673,0.042-1.558-0.445-2.483-0.431c-0.071-0.212-0.283-0.363-0.514-0.599c-0.142-0.142-0.348-0.478-0.514-0.599
	c-0.2-0.147-0.507-0.124-0.684-0.257c-0.531-0.389-0.797-1.006-1.203-1.286c-0.402-0.277-0.969-0.254-1.109-0.77
	c-0.113-0.389,0.247-0.915,0.082-1.372c0.809-0.077,0.543-1.224,1.115-1.54c-0.059-0.342-0.714-0.44-0.514-0.773
	c0.59,0.348,0.944-0.906,1.369-1.283c0.207,0.156,0.496,0.224,0.772,0.085c0-0.313,0-0.628,0-0.941
	c0.266,0.042,0.302-0.156,0.597-0.085c0.07-0.354-0.131-0.439-0.083-0.773c0.861-0.221,1.245-0.923,1.97-1.283
	c0.125-0.324-0.235-0.165-0.17-0.428c0.59-0.377,0.844-1.094,1.539-1.372c0.189,0.283,0.985-0.021,1.54,0.085
	c0.071-0.377,0.029-1.324-0.254-1.625c0.495-0.239,0.378-0.602,0.685-0.944c-28.637,0-57.268,0-85.904,0
	c1.074,7.617,2.242,15.162,3.34,22.696C137.385,111.124,137.993,117.027,139.126,122.407z"/>
</svg>
