<?xml version="1.0" encoding="utf-8"?>
<!-- Generator: Adobe Illustrator 16.0.0, SVG Export Plug-In . SVG Version: 6.00 Build 0)  -->
<!DOCTYPE svg PUBLIC "-//W3C//DTD SVG 1.1//EN" "http://www.w3.org/Graphics/SVG/1.1/DTD/svg11.dtd">
<svg version="1.1" id="Calque_1" xmlns="http://www.w3.org/2000/svg" xmlns:xlink="http://www.w3.org/1999/xlink" x="0px" y="0px"
	 width="432px" height="432px" viewBox="0 0 432 432" enable-background="new 0 0 432 432" xml:space="preserve">
<path fill-rule="evenodd" clip-rule="evenodd" d="M120.172,105.804c1.31,0.166,2.229,0.711,3.274,1.142
	c0.359,0.929,1.415,1.168,1.894,1.982c1.422,0.147,2.224,0.917,3.651,1.065c1.068-0.658,2.118,0.38,3.192,0.451
	c0.513,0.039,0.879-0.289,1.374,0c0.896-0.162,0.962-1.165,1.817-1.366c0.13-0.36,0.371-0.602,0.607-0.841
	c0.489,0.248,0.726-0.242,1.298-0.147c-0.153-0.581-0.035-1.672,0.225-2.286c0-0.858,0-1.72,0-2.584
	c0.342-0.628,0.69-1.236,1.139-1.746c-0.071-0.814,0.419-1.056,0.684-1.522c0.248-1.074-0.313-1.493-0.602-2.133
	c-0.2-0.431-0.206-0.85-0.46-1.292c-0.838-0.475-1.245-1.386-2.431-1.519c-0.177-0.401-0.549-0.614-0.908-0.835
	c-0.555,0.658-1.693,0.28-2.508,0.682c-0.206-0.505-1.18-0.434-1.682-0.225c-0.153,0.378-0.324,0.726-0.607,0.835
	c-0.07,0.029-0.596,0.139-0.838,0.074c-0.501-0.133-0.66-1.121-1.062-1.215c-0.318-0.077-0.549,0.18-0.767,0.153
	c-0.449,0.578-0.974,0.744-1.741,1.142c-0.437,0.221-0.867,0.552-1.292,0.761c-0.271,0.124-0.607,0.212-0.92,0.377
	s-0.619,0.404-0.838,0.457c-0.159,0.042-0.844-0.077-1.215,0.074c-0.873,0.366-0.708,1.805-1.286,2.664
	c-0.425,0.622-1.269,0.791-1.67,1.292c-0.106,0.121-0.064,0.351-0.159,0.531c-0.13,0.251-0.266,0.266-0.307,0.458
	c-0.101,0.563,0.041,1.256,0.229,1.675C118.632,104.692,119.487,105.258,120.172,105.804z"/>
<path fill-rule="evenodd" clip-rule="evenodd" d="M105.033,103.677c0.324-0.263,0.083-0.755-0.301-0.761
	C104.525,103.214,104.738,103.639,105.033,103.677z"/>
<path fill-rule="evenodd" clip-rule="evenodd" d="M99.334,114.399c0.271,0.033,0.442,0.171,0.762,0.154
	c-0.101-0.561,0.289-0.625,0.448-0.915c0.064-0.23-0.071-0.28-0.065-0.458c0.644-0.947,1.139-2.05,1.971-2.811
	c1.092-0.188,2.076-0.318,2.891-0.911c-0.006-0.555,0.213-1.631,0.077-2.514c0.342-0.165,0.389-0.625,0.536-0.988
	c0.295-0.186,0.479-0.481,0.603-0.835c-0.178-0.304-0.277-0.685-0.685-0.761c-0.266,0.286-0.867,0.251-1.292,0.381
	c-0.112,0.313-0.23,0.661-0.454,0.911c-0.124,0.142-0.372,0.153-0.531,0.304c-0.153,0.147-0.313,0.431-0.454,0.61
	c-0.638,0.793-1.476,1.248-2.514,1.596c-0.371,0.817-1.257,1.121-1.752,1.829c-0.023,1.023-0.785,1.811-0.531,2.888
	C98.496,113.485,99.21,113.774,99.334,114.399z"/>
<path fill-rule="evenodd" clip-rule="evenodd" d="M190.129,124.134c-1.368-0.094-2.702,0.233-3.723-0.15
	c-0.307,0.077-0.39,0.375-0.767,0.378c-0.561-0.351-1.187,0.059-1.752,0.153c-0.03,0.188,0.1,0.486,0.082,0.761
	c0.431,0.254,0.985,0.623,1.139,1.212c0.071,0.26-0.047,0.655,0,0.994c0.089,0.558,0.555,0.956,0.384,1.669
	c0.666,0.876,1.469,1.628,2.053,2.584c0,0.18,0,0.357,0,0.531c0.165,0.218,0.425,0.336,0.454,0.69
	c0.714,0.271,1.18,0.791,1.439,1.442c0.325,0.776,0.514,1.693,0.915,2.354c0.926,0.846,2.012-0.036,3.274,0.307
	c0.442-0.393,1.132-0.537,1.976-0.531c0.855-0.693,1.882-0.095,3.115-0.154c0.295-0.188,0.472-0.499,0.832-0.61
	c0.242,0.188,0.501,0.531,0.307,0.915c0.607,0.259,1.009,0.72,1.829,0.761c0.507,0.608,1.109,1.121,1.829,1.522
	c0.524,0.035,0.784-0.496,1.292-0.685c0.72-0.271,1.681-0.003,2.359-0.457c0.219,0.18,0.266,0.542,0.602,0.607
	c0.407,0.018,0.685-0.283,1.063-0.077c0.336-0.678,1.232-0.793,1.298-1.75c-0.59-0.301-0.814-0.958-1.746-0.911
	c-0.266-0.295-0.727-0.396-0.915-0.761c0.343-0.643,0.023-1.469,0-2.207c-0.46-0.245-0.784-0.637-1.221-0.908
	c-0.147-0.481-0.39-0.873-0.301-1.596c-0.172-0.08-0.744-0.015-0.985,0.074c-0.236,0.484-0.018,1.095-0.69,1.218
	c-0.401-0.103-0.667-0.215-0.991-0.23c-0.561-0.507-0.921-1.194-1.21-2.056c-0.424-1.219-0.348-1.847,0-2.888
	c-0.371-0.475-1.009-0.82-1.445-1.292c-0.059-0.056-0.035-0.248-0.076-0.307c-0.236-0.313-0.69-0.543-0.838-0.835
	c-0.13-0.248-0.041-0.548-0.159-0.834c-0.213-0.54-0.737-0.891-1.139-1.142c-0.147-0.717-0.679-1.342-0.596-2.053
	c-0.401-0.457-0.596-1.065-1.15-1.218c-1.604-0.439-3.045,1.168-3.422,2.207c-0.401-0.204-0.755-0.452-1.216-0.611
	c-0.241,0.566-0.637,1.555-0.377,2.133C191.227,123.048,190.884,123.798,190.129,124.134z"/>
<path fill-rule="evenodd" clip-rule="evenodd" d="M225.107,146.337c0.962,0.348,2.479,0.277,3.352,0.154
	c0.247-0.036,0.572,0.041,0.838,0c0.194-0.03,0.348-0.136,0.524-0.154c0.95-0.085,1.971,0.142,2.814,0
	c0.478-0.077,1.133-0.504,1.593-0.531c0.36,0.277,0.82,0.062,1.222,0.15c0.295,0.068,0.554,0.298,0.843,0.38
	c0.502,0.151,1.109,0.083,1.363,0.531c1.404,0.035,1.758,1.375,3.339,0.991c0.325,0.085,0.49,0.327,0.838,0.38
	c0.307,0.047,0.313-0.201,0.613-0.153c0.461,0.357,1.192,1.026,1.895,0.457c0.501,0.083,0.666-0.139,0.926-0.23
	c0.508-0.171,0.755-0.221,1.139-0.377c0.266-0.115,0.584-0.15,0.755-0.23c0.537-0.254,1.162-1.13,1.599-1.369
	c0.147-0.077,0.277,0.015,0.378-0.074c0.396-0.36,0.566-1.032,1.216-1.064c0.07-0.717,0.501-1.074,0.613-1.75
	c-0.225-0.207-0.46,0.053-0.69,0.077c-0.685-0.844-1.899-0.259-2.885-0.307c-0.254-0.012-0.525-0.162-0.761-0.15
	c-0.319,0.009-0.726,0.15-1.068,0.227c-0.377,0.085-0.749,0.236-1.139,0.23c-0.2-0.003-0.413-0.127-0.602-0.153
	c-1.15-0.162-2.307,0.15-3.274-0.534c-0.112-0.682-0.489-1.08-0.531-1.823c-0.955-0.094-0.855,0.876-1.298,1.292
	c-0.425-0.018-0.66,0.147-0.991,0.23c-0.542-0.307-1.067-0.085-1.669-0.153c-1.021-0.115-2.029-0.661-2.968-0.684
	c-0.359-0.009-0.72,0.183-1.062,0.15c-0.207-0.018-0.331-0.156-0.531-0.15c-0.318,0.009-0.561,0.171-0.838,0.15
	c-0.726-0.05-0.867-0.608-1.445-0.988c-0.737,0.05-1.104-0.26-1.746-0.304c-0.035,0.472,0.277,0.911,0.224,1.442
	c-0.035,0.431-0.472,1.053-0.607,1.372c-0.902,0.283-1.67,0.705-1.977,1.599C225.408,145.408,225.031,145.715,225.107,146.337z"/>
<path fill-rule="evenodd" clip-rule="evenodd" d="M282.063,160.862c-0.896-1.023-2.643-1.207-3.723-2.053
	c-0.366,0.129-0.584-0.044-1.067,0c0.012-0.292-0.349-0.458-0.531-0.611c-0.69-0.563-1.481-0.858-2.13-1.442
	c-0.92-0.091-1.239-0.791-1.829-1.215c0.077-0.319-0.224-0.472-0.371-0.685c-0.147-0.203-0.277-0.534-0.467-0.687
	c-0.466-0.39-1.079-0.183-1.894-0.304c-0.39-0.059-1.109-0.49-1.599-0.378c-0.419,0.313-1.245,0.676-1.823,0.378
	c-0.437,0.209-0.955,0.829-1.445,0.914c-1.381,0.242-2.313,0.897-3.952,0.761c-0.26-0.274-0.543-0.522-0.838-0.761
	c-0.136-0.714-0.75-1.142-1.068-1.749c-0.147-0.269-0.177-0.546-0.301-0.761c-0.419-0.72-1.098-1.188-1.599-1.826
	c-0.625-0.033-0.873-0.54-1.292-0.682c-0.602-0.207-1.05,0.209-1.977,0.147c-0.431,0.384-0.643,0.982-1.374,1.068
	c-0.337,0.876-1.269,1.793-0.756,3.042c-0.383,0.475,0.118,1.136,0,1.823c0.803,1.301,1.528,2.679,2.809,3.499
	c0.206,0,0.413,0,0.613,0c0.613,0.475,1.104,1.08,2.207,1.065c0.235,0.269,0.619,0.392,0.984,0.531
	c0.443-0.165,0.732-0.486,0.991-0.834c0.213,0.327,0.531,0.006,0.832,0c2.012,0.843,1.771,4.023,1.982,6.083
	c-0.431,0.354-0.525,1.05-0.454,1.902c0.188,0.469,0.885,0.726,1.292,1.142c0.13,0.136,0.147,0.357,0.224,0.454
	c0.289,0.342,0.52,0.245,1.074,0.307c0.359,0.041,0.803,0.23,1.056,0.224c0.431-0.006,0.85-0.336,1.298-0.074
	c0.313-0.065,0.514-0.239,0.838-0.301c0.673,0.327,1.428-0.254,1.971-0.537c0.59,0.074,0.637-0.227,0.991-0.38
	c0.2-0.088,0.437-0.065,0.607-0.15c0.219-0.115,0.472-0.396,0.685-0.531c0.425-0.277,0.737-0.569,1.368-0.457
	c0.184,0.271,0.473,0.439,0.838,0.531c0.396-0.31,0.991-0.428,1.747-0.38c0.383-0.487,1.038-0.475,1.599-0.682
	c0.648-0.239,1.191-0.778,1.899-0.837c0.419-0.929,1.356-1.328,2.212-1.826c0.407-0.846,1.204-2.268,0.301-3.118
	C281.933,161.189,282.115,161.145,282.063,160.862z"/>
<path fill-rule="evenodd" clip-rule="evenodd" d="M240.016,162.992c0.366,0.121,1.139,0.039,1.6,0
	c0.72-0.062,1.622-0.292,2.047-0.531c0.236-0.136,0.359-0.419,0.613-0.537c0.36-0.165,0.578-0.159,0.991-0.147
	c0.454-0.961,1.522-1.546,1.286-2.814c-0.147-0.817-1.351-1.773-1.829-2.36c-0.395-0.484-0.549-0.525-1.062-0.915
	c-0.266-0.204-0.472-0.487-0.685-0.604c-0.159-0.092-0.396-0.059-0.613-0.151c-0.407-0.186-0.726-0.554-0.979-0.61
	c-0.478-0.104-1.15,0.056-1.752,0c-0.661-0.062-1.298-0.304-1.746-0.227c-0.708,0.115-1.192,0.799-1.753,1.062
	c-0.012,0.333-0.094,0.743-0.076,1.292c0.696,0.749,2.283,0.604,2.359,1.982c0.749,0.36,0.467,1.761,0.756,2.584
	C238.659,161.694,239.68,162.883,240.016,162.992z"/>
<path fill-rule="evenodd" clip-rule="evenodd" d="M251.804,173.41c0.489,0.089,0.861,0.304,1.51,0.225
	c0.254-0.056,0.337-0.274,0.537-0.378c0.879,0.174,2.064-0.678,2.743-0.074c0.508-0.407,1.346-0.015,1.823-0.457
	c-0.041-0.504-0.525-0.693-0.531-1.142c-0.012-0.448,0.442-0.74,0.531-1.215c-0.378-0.637-0.755-0.971-1.445-1.295
	c-0.36-0.171-0.632,0.431-0.997,0.227c-0.13,0.218-0.277,0.428-0.448,0.611c-0.454,0.044-0.69,0.496-1.139,0.758
	c-0.484,0.286-1.127,0.316-1.604,0.611c-0.236,0.147-0.271,0.357-0.455,0.531c-0.13,0.133-0.313,0.142-0.377,0.23
	C251.626,172.505,251.774,172.956,251.804,173.41z"/>
<path fill-rule="evenodd" clip-rule="evenodd" d="M307.69,192.953c-0.171-0.507-0.147-1.221-0.607-1.445
	c-0.354,0.104-0.337,0.575-0.608,0.761c-0.684-0.215-1.38-0.528-1.905-0.688c-0.442-0.133-0.991-0.074-1.445-0.227
	c-0.26-0.091-0.442-0.351-0.679-0.457c-0.153-0.065-0.437-0.083-0.607-0.15c-0.401-0.151-0.685-0.269-1.073-0.304
	c-1.109,1.189-1.936-0.634-3.115-0.758c-0.572-0.667-1.352-1.13-2.277-1.445c-0.147-0.212-0.33-0.372-0.46-0.608
	c-1.026,0.056-1.21-0.714-1.823-1.068c-0.277,0.13-0.372,0.439-0.755,0.458c-0.301-0.511-0.313-1.31-0.543-1.903
	c-0.584,0.162-1.186-0.118-1.434-0.531c-0.785-0.033-1.381-0.699-2.596-0.534c-0.242,0.289-1.334,1.165-1.434,1.372
	c-0.343,0.658-0.06,1.578-0.46,2.357c0.4,0.38,0.501,1.074,0.46,1.903c0.2,0.351,0.413,0.693,0.53,1.139
	c0.438,0.094,0.591,0.466,0.838,0.758c-0.206,0.929,0.82,1.177,1.216,1.752c-0.012,0.25-0.219,0.289-0.153,0.607
	c0.088,0.159,0.359,0.147,0.377,0.377c0.201,1.098,0.442,2.186,0.071,3.271c-0.908,0.478-1.563,0.876-2.2,1.673
	c-0.319,0.401-0.313,0.767-0.531,1.145c-0.201,0.333-0.714,0.56-0.607,1.062c-0.213,0.248-0.585,0.331-0.679,0.685
	c0.101,0.808-1.032,1.156-1.912,0.991c-0.059,0.186-0.171,0.327-0.448,0.301c-0.259,0.912-1.244,1.091-1.445,2.053
	c-0.696,0.274-1.067,0.867-1.604,1.292c0.142,0.693,0.035,1.731,0,2.664c0.136,0.248,0.295,0.475,0.23,0.912
	c0.117,0.091,0.313,0.094,0.383,0.23c0.603,0.667,0.661,1.581,1.139,2.28c0.219,0.315,0.62,0.499,0.838,0.834
	c0.047,0.083,0.041,0.251,0.071,0.304c0.136,0.227,0.395,0.516,0.313,0.834c0.543,0.363,0.437,1.239,0.672,1.903
	c0.083,0.218,0.277,0.315,0.308,0.534c0.13,0.755-0.071,1.475,0.159,2.056c0.047,0.121,0.472,0.699,0.53,0.755
	c0.219,0.218,0.708,0.23,0.838,0.688c0.023,0.224-0.177,0.233-0.153,0.454c0.508,0.504,0.372,1.658,0.378,2.664
	c0.855,0.616,1.073,1.873,1.522,2.891c-0.242,0.873-0.089,1.74-0.148,2.584c-0.047,0.64-0.342,1.263-0.383,1.903
	c-0.018,0.224,0.094,0.463,0.082,0.681c-0.088,0.791-0.448,1.593-0.536,2.434c-0.112,1.05-0.13,1.614-0.384,2.357
	c0.283,0.507,0.106,1.012,0.301,1.445c0.283,0.608,1.074,0.811,1.292,1.445c0.071,0.263-0.136,0.322,0,0.458
	c0.2,0.339,0.566,0.496,0.838,0.761c1.139,0.077,1.858,0.575,2.891,0.761c1.204,1.51,3.451,1.974,4.873,3.269
	c0.153,0.218,0.095,0.661,0.301,0.834c0.921,0.366,1.15-0.483,1.445-0.834c0.413-0.501,1.033-0.882,1.292-1.446
	c0.337,0.077,0.349-0.156,0.531-0.23c0.248-1.018,1.038-1.499,1.216-2.584c0.66-0.292,0.996-1.097,0.914-1.899
	c0.619-1.331,1.676-2.227,2.814-3.042c1.003,0.136,1.858-0.522,2.206-1.295c0.407-0.097,0.619-0.395,1.062-0.454
	c0.112-0.189,0.153-0.452,0.384-0.534c1.203-0.545,2.566-0.929,3.186-2.05c0.626-0.274,0.861-0.915,1.682-0.991
	c0.177-0.13,0.183-0.422,0.372-0.534c0.519-0.015,0.873-0.191,1.298-0.304c1.091,0.26,2.076,0.611,3.498,0.531
	c0.478-0.416,1.068-0.233,1.599-0.378c0.331-0.091,0.696-0.357,1.068-0.531c0.365-0.186,0.826-0.289,1.139-0.458
	c0.224-0.124,0.383-0.342,0.607-0.457c0.637-0.327,1.351-0.507,1.977-0.835c0.885-0.466,1.61-1.277,2.584-1.292
	c0.307-0.351,0.654-0.664,0.838-1.142c1.232-0.469,1.498-1.896,2.967-2.132c0.23-0.501,0.814-0.646,0.903-1.289
	c1.18-0.705,2.123-1.631,1.981-3.649c-1.05-0.283-1.646-1.375-2.808-1.298c-0.349-0.46-1.104-0.52-1.298-1.139
	c-0.153,0-0.301,0-0.448,0c-0.337-0.661-1.039-0.944-1.445-1.52c-0.178-0.684-0.762-0.967-1.222-1.372
	c0.283-0.386-0.089-0.646-0.076-1.062c0.006-0.554,0.383-1.129,0.301-1.596c-0.054-0.348-0.461-0.655-0.608-0.988
	c-0.094-0.227-0.035-0.401-0.224-0.607c-0.46-0.083-0.814-0.254-1.145-0.46c-0.479-0.021-1.08,0.067-1.439-0.077
	c-0.207,0.625-0.525,1.036-1.298,0.915c-0.042-0.425-0.543-0.678-0.614-1.142c-0.018-0.221,0.112-0.389,0.16-0.684
	c0.218-1.269,0-2.646,0.147-3.876c-0.236-0.342-0.384-0.782-0.903-0.838c-0.413-1.142-1.504-1.593-1.982-2.661
	c-0.695-0.325-1.097-0.932-1.976-1.065c-0.879-0.679-1.711-1.575-2.661-2.053c-0.159-0.08-0.396-0.071-0.537-0.153
	c-0.307-0.183-0.631-0.669-1.215-0.531c-0.065-0.242-0.242-0.366-0.378-0.531c-0.985-0.333-1.593-1.05-2.813-1.142
	C308.959,193.407,308.044,193.46,307.69,192.953z"/>
</svg>
