<svg version="1.1" id="Calque_1" xmlns="http://www.w3.org/2000/svg" xmlns:xlink="http://www.w3.org/1999/xlink" x="0px" y="0px"
	 width="432px" height="332px" viewBox="0 0 432 332" enable-background="new 0 0 432 332" xml:space="preserve" fill="#FFF">
<path fill-rule="evenodd" clip-rule="evenodd" d="M343.614,165.052c-0.354-0.661-0.501-1.348-0.377-2.112
	c0.136-0.809,0.289-1.702-0.307-2.177c-0.366-0.018-0.867-0.068-1.18-0.307c-0.006-0.935-0.313-1.062-0.926-1.366
	c-0.236-0.115-0.442-0.292-0.631-0.372c-0.537-0.242-1.345-0.372-1.729-0.561c-0.183-0.088-0.266-0.106-0.372-0.186
	c-0.059-0.041-0.124-0.088-0.189-0.124c-0.519-0.271-1.062-0.593-1.558-0.743c-0.295-0.094-0.619-0.077-0.867-0.189
	c-0.619-0.274-1.239-1.023-1.61-1.489c-0.407-0.507-1.009-1.39-0.938-2.239c0.059-0.613,0.578-0.823,0.442-1.858
	c-0.454-0.38-0.95-0.713-1.121-1.366c-0.584-0.351-0.915-0.95-1.369-1.431c-0.555-0.032-0.844-0.569-1.304-0.808
	c-0.266-0.139-0.625-0.165-0.932-0.307c-0.283-0.136-0.531-0.328-0.802-0.499c-0.195-0.286-0.101-0.611-0.313-0.867
	c-0.301-0.375-0.885-0.313-1.363-0.499c-0.283-0.104-0.655-0.357-0.938-0.496c-0.537-0.263-1.227-0.708-1.304-1.183
	c-0.083-0.554,0.549-1.012,0.814-1.548c0.077,0.085,0.26,0.062,0.425,0.062c0.101-0.301-0.283-0.133-0.242-0.375
	c-0.042-0.227,0.112-0.655-0.183-0.616c-0.183-0.015,0.047,0.377-0.13,0.372c0.03-0.788-0.755-0.968-1.115-1.555
	c-0.147-0.242-0.171-0.566-0.313-0.87c-0.07-0.168-0.229-0.327-0.307-0.496c-0.442-0.867-0.437-1.826-1.245-2.422
	c-0.602-0.209-1.145-0.324-1.858-0.437c-0.236-0.035-0.448-0.195-0.684-0.245c-0.832-0.171-1.758-0.227-2.679-0.439
	c-0.561-0.127-1.162-0.333-1.734-0.493c-0.62-0.174-1.18-0.499-1.676-0.561c-0.259-0.033-0.554,0.053-0.802,0
	c-0.331-0.068-0.631-0.451-0.997-0.434c-0.46-0.72-1.31-1.047-2.118-1.428c0.035-0.254-0.059-0.398-0.124-0.561
	c-0.189-0.088-0.566,0-0.737-0.121c-0.153-0.186-0.165-0.499-0.431-0.561c0-0.207,0-0.413,0-0.62
	c-0.472-0.888-0.696-2.124-0.561-3.481c-0.136-0.215-0.454-0.248-0.561-0.495c-0.153-0.475-0.147-0.812-0.313-1.242
	c-0.283-0.752-1.475-0.879-1.734-1.49c-0.307-0.711,0.106-1.917-0.13-2.667c-0.101-0.313-0.372-0.38-0.496-0.685
	c0.071-0.165,0.153-0.307,0.124-0.56c-0.147-0.809-0.655-1.549-0.802-2.487c-0.218-1.333,0.018-2.85,0-4.342
	c0.142-0.313,0.625-0.286,0.861-0.499c0.443-0.652,0.513-1.318,0.814-1.858c0.413-0.761,0.956-1.1,1.545-1.74
	c0.171-0.177,0.36-0.49,0.625-0.746c0.448-0.437,0.75-0.552,0.625-1.239c-0.171-0.129-0.455-0.133-0.561-0.313
	c-0.012-0.266-0.101-0.434-0.065-0.746c-0.307-0.242-0.319-0.673-0.561-0.994c-0.13-0.174-0.49-0.504-0.802-0.744
	c-0.667-0.507-1.398-1.056-2.419-1.121c-0.431-0.555-1.439-0.147-1.558-0.991c0.726-0.785,0.649-1.938,0.313-2.793
	c-0.147-0.369-0.401-0.528-0.625-0.808c-0.207-0.263-0.372-0.401-0.437-0.744c0.277-0.493,0.431-0.799,0.507-1.554
	c-70.701,0-141.402,0-212.097,0c0.401,1.132-0.802,1.41-0.437,2.483c0.242,0.257,0.584,0.404,0.985,0.496
	c-0.065,0.74,0.696,0.628,0.75,1.245c0.372,0.251,0.932,0.301,1.239,0.623c-0.13,0.156-0.018,0.31-0.065,0.493
	c-0.042,0.192-0.153,0.263-0.183,0.439c-0.053,0.325,0.077,0.69,0,1.05c-0.023,0.136-0.171,0.289-0.188,0.437
	c-0.059,0.596,0.301,1.28,0,1.617c-0.531,0.413-1.894-0.274-2.101,0.375c-0.165,0.159,0.307,0.221,0.242,0.493
	c0.029,0.295-0.301,0.236-0.189,0.619c0.377,0.393,1.026,0.504,1.31,0.991c-0.265,0.215-0.602,0.212-0.684,0.561
	c-0.065,0.248,0.195,0.714,0.554,0.811c0.401,0.05,0.525-0.129,0.933-0.065c0.33,0.053,0.507,0.345,0.808,0.375
	c0.448,0.044,0.607-0.192,1.062-0.31c0.177,0.062,0.242,0.245,0.431,0.31c0.142,0.454-0.03,0.834,0.053,1.239
	c0.053,0.227,0.207,0.383,0.26,0.623c0.059,0.398-0.053,0.84,0,1.369c0.472,0.304,0.944,0.48,0.991,1.053
	c0.041,0.702-0.572,0.95-0.814,1.49c-0.076,0.372,0.331,0.257,0.307,0.561c-0.195,0.085-0.166,0.407-0.307,0.561
	c-0.165,0.221-0.407,0.012-0.613,0.121c-0.201,0.188-0.342,0.418-0.625,0.56c-0.431,0.218-1.145,0.101-1.18,0.747
	c-0.042,0.248,0.313,0.103,0.377,0.245c-0.165,0.147-0.1,0.274-0.065,0.499c0.307,0.209,0.731,0.304,0.808,0.747
	c-0.23,0.537-1.067,0.51-0.944,1.551c0.094,0.307,0.561,0.239,0.572,0.623c-0.012,0.318-0.307,0.348-0.248,0.746
	c-0.266,0.006-0.384,0.154-0.372,0.431c-0.672,0.242-0.873,0.956-0.873,1.861c-0.041,0.269,0.26,0.195,0.372,0.313
	c-0.236-0.006-0.307,0.153-0.437,0.245c0.129,0.448-0.124,0.375-0.242,0.685c-0.083,0.407-0.065,0.667,0.118,0.935
	c-0.142,0.018-0.254,0.071-0.372,0.121c0.065,0.437-0.118,0.421-0.248,0.746c-0.112-0.165-0.466-0.319-0.678-0.189
	c-0.053,0.546-0.384,0.977-0.679,1.431c-0.1,0.269,0.207,0.286,0.053,0.434c-0.153,0.115-0.442,0.098-0.366,0.437
	c-0.466,0.071-0.897,0.393-1.003,0.806c-0.083,0.363,0.006,1.021,0,1.554c0,0.584,0.006,1.15,0,1.676
	c0.207,0.121,0.377,0.289,0.501,0.496c0.242,0,0.501,0,0.749,0c0.189,0.519,0.956,0.418,0.802,1.118
	c0.195,0.053,0.46,0.039,0.62,0.124c0.13,0.115-0.065,0.561,0.189,0.561c0.136,0.186,0.478-0.186,0.619,0
	c-0.083,0.853,0.785,0.737,0.873,1.428c-0.259,0.209-0.72,0.186-0.566,0.805c0.33,0.318,0.749-0.091,0.938-0.059
	c0.171,0.569,0.318,1.165,0.619,1.611c-0.301,0.035-0.383,0.542-0.248,0.808c0.047,0.301,0.637,0.056,0.731,0.313
	c0.094,0.289,0.071,0.679,0.071,1.053c-0.313,0.257-0.785,0.227-0.555,0.87c0.053,0.236,0.472,0.109,0.62,0.248
	c0.018,0.227-0.047,0.551,0.065,0.678c0.956,0.696,2.82-0.327,3.534,0.746c0.401,0.599,0.277,1.484,0,1.991
	c-0.207,0.393-0.749,0.531-0.92,0.929c-0.313,0.667,0.03,1.083,0.047,1.864c-0.236,0.404-0.773,0.504-0.678,1.239
	c0.372,0.401,0.914,0.401,1.31,0.746c0.519,0.469,0.702,1.253,1.121,1.864c0.277,0.339,1.227,0.572,1.292,0.991
	c0.047,0.313-0.336,0.729-0.307,1.121c0.036,0.28,0.401,0.572,0.377,0.808c-0.07,0.619-0.991,0.354-1.121,0.864
	c-0.124,0.263,0.189,0.558,0.248,0.932c0.071,0.504-0.094,1.074,0.189,1.428c0.348,0.171,0.696,0.339,1.05,0.499
	c0.088,0.324,0.13,0.696,0.313,0.932c0.59,0.174,1.263,0.271,1.487,0.805c-0.484,0.711,0.318,1.439,0.307,2.112
	c0,0.333-0.295,0.646-0.242,0.994c0.053,0.28,0.242,0.377,0.496,0.557c0.478,0.127,0.896,0.03,1.239,0.248
	c0.584,0.363-0.006,0.616-0.118,1.059c-0.124,0.475-0.064,0.867,0.313,0.929c0.537,0.089,0.684-0.944,1.298-0.743
	c0.348,0.109,0.147,1.227,0.507,1.487c0.496,0.372,1.369-0.36,1.799,0.501c-0.49,0.572-0.366,1.327-0.195,2.112
	c-0.147,0.381-0.755,0.307-0.861,0.679c-0.147,0.487,0.325,0.652,0.549,1.059c-0.095,0.531,0.177,0.805,0.442,1.053
	c0.318,0.301,0.737,0.369,0.926,0.744c0.201,0.389-0.023,0.613,0.124,1.307c0.342,0.572,1.268,0.599,1.623,0.991
	c-0.06,1.545-1.511,1.681-1.434,3.354c0.33,0.413,1.174,0.31,1.233,0.991c-0.271,0.486-1.227,0.041-1.735,0.375
	c-0.188,0.215-0.106,0.726-0.124,1.118c0.377,0.602,0.896,0.696,0.997,1.301c0.124,0.702-0.861,1.378-0.873,1.864
	c-0.012,0.994,1.239,0.868,1.617,1.614c-0.277,0.375-0.708,0.496-0.802,0.932c-0.159,0.702,0.372,1.49,0.678,1.679
	c0.201,0.124,0.383,0.003,0.549,0.059c0.053,0.012,0.059,0.115,0.136,0.127c0.318,0.053,0.649,0.077,0.932,0.059
	c0.513-0.221,0.59-1.08,0.561-1.49c0.46-0.009,0.702,0.207,1.115,0.254c-0.224,0.103,0.153,0.124,0.13,0.245
	c-0.112,0.13-0.147,0.183-0.059,0.372c0.042,0.257,0.401,0.207,0.366,0.561c0.03,0.162-0.124,0.121-0.188,0.186
	c-0.083,0.083-0.059,0.188-0.118,0.248c-0.354,0.319-1.003,0.357-1.068,0.808c-0.035,0.224,0.218,0.549,0.318,0.62
	c0.384,0.283,0.584,0.165,1.174,0.372c0.301,0.101,0.649,0.413,0.938,0.434c0.354,0.03,0.667-0.197,0.991-0.121
	c0.307,0.074,0.613,0.513,0.613,0.808c-0.224,0.242-0.454,0.342-0.548,0.684c-0.094,0.325,0.035,0.649,0.065,1.053
	c-0.602,0.566-0.195,1.26,0.112,1.861c-0.23,0.475-0.855,0.549-1.18,0.932c-0.018,0.729,0.731,1.177,1.18,1.363
	c0.685,0.28,1.569-0.044,1.935,0.499c0.431,0.861-0.401,1.602-1.121,1.493c0.006-0.454,0.531-0.684,0.183-1.118
	c-0.336,0.23-0.85-0.041-1.109,0.186c0.147,0.682,0.094,1.207,0.177,1.988c0.254,0.407,0.525,0.667,0.507,1.115
	c-0.053,0.688-1.31,1.372-0.442,2.233c0.861,0.431,3.31-0.413,3.162,0.809c-0.318,0.372-0.761-0.271-1.174,0
	c-0.956,0.776,0.177,1.687,0.313,2.363c0.03,0.195-0.077,0.416-0.065,0.681c0.018,0.36,0.236,0.673,0.183,0.929
	c-0.088,0.431-0.844,0.705-0.867,1.121c-0.03,0.584,0.991,0.855,1.056,1.428c0.035,0.277-0.189,0.51-0.248,0.684
	c-0.094,0.277-0.112,0.44-0.124,0.806c0.437,0.655,1.422,0.528,1.493,1.369c0.03,0.416-0.307,0.708-0.372,1.177
	c-0.071,0.384,0.047,0.652,0.065,1.121c0.242,0.519,1.103,0.876,0.985,1.61c-0.083,0.546-0.643,0.563-1.245,0.747
	c-0.047,0.253-0.265,0.472-0.248,0.746c0.035,0.354,0.277,0.451,0.507,0.682c-0.289,0.188-0.018,0.383-0.065,0.619
	c-0.018,0.08-0.147,0.242-0.195,0.372c-0.029,0.109-0.124,0.274-0.118,0.437c0,0.504,0.489,0.902,0.489,1.242
	c0.012,0.192-0.159,0.46-0.248,0.558c-0.307,0.375-1.033,0.442-1.422,0.808c-0.289,0.496-0.501,1.003-0.377,1.614
	c0.266,0.218,0.466,0.637,0.685,0.805c0.124,0.1,0.259,0.059,0.371,0.127c0.396,0.218,0.667,0.737,0.679,1.304
	c0.596,0.321,1.186,0.637,2,0.746c0.142,0.177,0.307,0.333,0.484,0.555c0.195,0.224,0.265,0.454,0.437,0.688
	c0.253,0.33,0.672,0.513,0.749,0.864c0.071,0.295,0.065,0.867-0.188,1.121c30.702,0,63.202,0,94.258,0
	c12.165,0,24.861,0.266,36.507-0.248c9.174-0.404,18.359-0.525,27.38-0.994c0.259,0.112,0.437,0.304,0.75,0.375
	c0.383,1.068,2.023,0.858,1.545,2.481c0.419,0.599,1.351,0.578,2.112,0.808c0.584,0.171,0.655,0.186,0.62,0.808
	c-0.023,0.463-0.065,0.723,0.13,0.991c0.242,0.339,0.861,0.369,1.121,0.682c0.201,0.269,0.159,0.51,0.307,0.932
	c0.183,0.142,0.407,0.256,0.49,0.499c0.466,0.204,1.18,0.147,1.746,0.25c-0.077,0.307-0.555,0.377-0.372,0.741
	c0.012,0.289,0.383,0.236,0.49,0.437c-0.207,0.121-0.236,0.428-0.248,0.746c0.354,0.375,0.897,0.546,1.369,0.805
	c0.147,0.18,0.059,0.496,0.307,0.685c0.242-0.023,0.602,0.059,0.749-0.065c0.023,0.118-0.077,0.38,0.124,0.313
	c0.484,0.05,0.85-0.026,1.115-0.186c0.554,0.263,0.879,0.106,1.428,0c0.667-0.127,1.073-0.147,1.368-0.561
	c0.531-0.731-0.248-1.207-0.377-1.799c-0.242-1.094,0.419-1.72,0.566-2.422c0.177-0.891-0.129-1.658-0.501-2.112
	c-0.389-0.49-1.375-0.714-1.422-1.18c-0.064-0.575,0.744-1.071,1.109-1.366c0.578-0.463,0.902-0.734,1.369-1.18
	c0.726-0.437,1.604-0.614,2.431-0.933c0.731-0.292,1.575-0.702,2.596-0.619c0.507,0.044,0.926,0.25,1.493,0.065
	c0.413-0.139,0.755-0.561,1.18-0.812c0.112-0.056,0.266-0.062,0.372-0.121c0.802-0.428,1.321-0.991,1.428-2.05
	c0.041-0.442-0.213-0.894-0.183-1.366c0.018-0.245,0.153-0.658,0.248-0.867c0.13-0.269,0.384-0.507,0.555-0.746
	c-0.053-0.452,0.248-0.729,0.254-1.18c0.012-0.608-0.366-1.094-0.189-1.555c0.053-0.126,0.236-0.168,0.372-0.31
	c0.36-0.372,0.496-0.737,0.997-0.867c0.254-0.428,0.437-0.958,0.743-1.366c0.171-0.236,0.508-0.422,0.744-0.685
	c0.259-0.28,0.442-0.643,0.684-0.808c0.213-0.145,0.46-0.133,0.685-0.245c0.331-0.174,0.507-0.511,0.867-0.62
	c0.012-0.555,0.52-1.171,0.501-1.805c-0.012-0.23-0.259-0.484-0.253-0.747c0.012-0.372,0.301-0.749,0.377-1.115
	c0.059-0.316,0.023-0.726,0.059-1.118c0.035-0.366,0.153-0.77,0.13-1.118c-0.03-0.242-0.166-0.489-0.189-0.746
	c-0.059-0.543,0.071-1.115,0-1.737c0.071-0.089,0.242-0.083,0.242-0.248c-0.112-0.153-0.318,0.13-0.366-0.127
	c0.083-0.159,0.59,0.095,0.431-0.307c-0.047-0.139-0.118-0.248-0.307-0.248c-0.301-0.094-0.136,0.283-0.377,0.248
	c-0.059-0.156,0.124-0.534-0.13-0.499c-0.171-0.026,0.059,0.339-0.118,0.31c0.089-0.225-0.147-0.396-0.242-0.558
	c-0.266-0.416-0.437-0.685-0.69-1.056c-0.106-0.162-0.212-0.472-0.313-0.555c-0.555-0.475-1.168,0.068-1.917-0.129
	c-0.053-0.009-0.201-0.271-0.372-0.186c-0.094-0.351-0.283-0.59-0.372-0.929c-0.696-0.145-0.944-0.522-1.121-1.118
	c-0.088-0.283-0.177-0.516-0.248-0.625c-0.271-0.381-0.619-0.572-0.684-1.05c0.277-0.469,0.649-0.841,0.684-1.555
	c0.437-0.348,0.596-0.973,0.991-1.366c0.047-1.398,0.036-2.861,0.809-3.54c-0.024-0.437,0.112-0.717,0.064-1.177
	c0.52-0.791,1.776-0.463,2.478-1.059c0.224,0.295,0.443,0.035,0.744,0.126c0.23,0.068,0.342,0.31,0.561,0.372
	c0.667,0.195,1.427-0.142,1.864-0.31c0.153-0.062,0.336-0.018,0.437-0.062c0.236-0.115,0.495-0.345,0.749-0.499
	c0.242-0.153,0.496-0.416,0.737-0.496c1.121-0.357,2.915,0.174,4.101,0.189c0.295,0,0.684-0.023,0.985-0.068
	c0.466-0.053,0.956-0.106,1.31-0.186c0.242-0.044,0.46-0.215,0.69-0.245c0.201-0.026,0.472,0.065,0.679,0
	c0.342-0.1,0.796-0.711,1.121-0.867c0.342-0.171,0.614-0.513,0.933-0.685c0.094-0.437,0.259-0.814,0.613-0.997
	c0.891,0.492,0.979-0.345,1.493-0.558c0.071-0.027,0.366-0.062,0.49-0.059c0.124,0.003,0.336,0.133,0.507,0.186
	c0.413,0.126,0.637,0.142,1.174,0.186c0.82,0.059,1.404-0.018,1.929-0.623c0.147,0.124,0.413,0.166,0.614,0.062
	c-0.012-0.307,0.083-0.342,0-0.805c0.183-0.118,0.289-0.301,0.566-0.313c0.248-1.431,2.531-0.814,3.103-1.926
	c0.159-1.109-0.023-2.042,0-2.729c0.271-0.375,0.13-0.809,0.248-1.18c0.153-0.46,0.667-0.628,0.803-1.118
	c0.153-0.534-0.112-0.835-0.059-1.673c0.542-1.003,1.38-1.434,2.418-1.991c0.543-0.289,1.044-0.693,1.493-0.867
	c0.507-0.203,1.127-0.227,1.434-0.746c0.006-0.407,0.018-0.805-0.129-1.056c0.135-0.115,0.129-0.366,0.129-0.623
	c0.419-0.418,0.295-0.891,0.496-1.548c0.171-0.572,0.667-1.094,0.744-1.552c0.142-0.958-0.631-1.49-0.561-2.115
	c0.035-0.313,0.413-0.584,0.561-0.929c0.077-0.177,0.053-0.398,0.124-0.623c0.136-0.41,0.378-0.602,0.372-0.929
	c-0.006-0.295-0.242-0.549-0.437-0.932C343.72,165.395,343.697,165.211,343.614,165.052z"/>
</svg>
