<svg version="1.1" id="Calque_1" xmlns="http://www.w3.org/2000/svg" xmlns:xlink="http://www.w3.org/1999/xlink" x="0px" y="0px"
	 width="432px" height="432px" viewBox="0 0 432 432" enable-background="new 0 0 432 432" xml:space="preserve">
<path fill-rule="evenodd" clip-rule="evenodd" d="M156.837,192.845c-0.277,0.548-0.903,1.091-1.21,1.772
	c-0.124,0.286-0.183,0.74-0.277,1.136c-0.112,0.407-0.342,0.841-0.289,1.136c0.06,0.342,0.667,0.607,0.785,1.062
	c0.142,0.584-0.201,1.006,0.277,1.422c0.194-0.018,0.359,0.089,0.572,0.071c0.224-0.021,0.389-0.187,0.566-0.145
	c0.224,0.056,0.542,0.392,0.778,0.569c0.254,0.188,0.466,0.495,0.855,0.495c0.301-0.047,0.336-0.368,0.708-0.354
	c0.118,0.235,0.431,0.277,0.566,0.498c-0.147,0.502,0.324,0.387,0.283,0.779c0.543,0.082,1.121,0.218,1.416,0.708
	c0.271,0.442,0.183,1.114,0.425,1.634c-0.407,0.342-0.968,0.537-1.274,0.991c-0.171-0.063-0.307-0.162-0.566-0.142
	c-0.054,1.587-0.112,3.212-0.566,4.33c-0.177,0.425-0.496,0.791-0.566,1.133c-0.153,0.696,0,1.699,0,2.625
	c0,13.349,0,27.342,0,40.298c39.209,0,78.417,0,117.626,0c0-19.248,0-38.501,0-57.749c-0.808-0.846-1.457-1.857-2.2-2.77
	c-0.431-0.165-0.95-0.191-1.068-0.495c-0.2-0.419,0.065-0.47,0.219-0.779c-0.921-1.044-1.693-2.235-2.985-2.908
	c-0.926,0.492-2.218,0.616-3.121,1.136c0.879-0.077,0.956,0.578,0.714,1.136c-0.1,0.064-0.72-0.032-0.784,0.283
	c0.212,0.292,0.1,0.619,0.218,0.92c0.189,0.493,0.72,0.743,0.702,1.136c-1.31-0.067-2.318-0.124-3.257-0.215
	c-0.377-0.033-0.819-0.124-1.138-0.068c-0.608,0.106-1.003,0.817-1.558,0.921c-0.49,0.091-1.039-0.378-1.352-0.142
	c-0.136-0.271-0.389-0.558-0.714-0.638c-0.749-0.191-1.186,0.195-1.628,0.283c-0.572,0.118-1.28-0.021-1.841,0.071
	c-0.448,0.07-0.661,0.283-0.997,0.356c-0.661-0.191-0.932-0.552-1.699-0.356c-0.318-0.142-0.495-0.584-0.92-0.641
	c-0.425-0.05-1.204,0.475-1.563,0.569c-0.271,0.071-0.236-0.05-0.431,0.142c-0.354,0.349-0.183,0.508-0.283,0.924
	c-0.071,0.301-0.271,0.521-0.277,0.778c-0.826,0.15-1.788,0.156-2.767,0.145c-0.531-0.437-1.245-0.731-2.13-0.853
	c-0.525-0.07-1.216-0.171-1.635-0.145c-0.831,0.059-2.153,0.708-2.342,1.28c-0.047,0.147-0.023,0.593,0,0.778
	c0.059,0.396,0.396,0.791,0.219,1.277c-0.997,0.118-1.228-0.527-1.499-1.136c-1.133-0.114-1.664-0.834-2.549-1.203
	c0.083-1.029-0.118-1.772-0.283-2.558c-0.212-0.327-0.602-0.483-0.714-0.92c-0.088-0.393,0.065-0.838,0-1.207
	c-0.041-0.274-0.235-0.501-0.348-0.781c-0.366-0.873-0.655-1.652-1.068-2.339c-0.743,0.023-1.351-0.732-2.2-0.641
	c-0.655,0.074-1.086,0.714-1.628,0.711c-0.23-0.257-0.136-0.817-0.147-0.923c-0.791-0.375-1.723-0.52-2.201-1.204
	c-0.307-0.46-0.377-1.104-0.637-1.705c0.454-0.079,0.714-0.289,0.855-0.566c0.295-0.596,0.035-1.625-0.289-1.985
	c-0.236-0.276-0.72-0.238-0.991-0.569c-0.183-0.227-0.201-0.434-0.207-0.778c-0.301,0.009-0.596,0.021-0.714-0.145
	c-0.371-1.254-1.392-1.888-2.059-2.767c-0.578-0.762-0.85-1.62-1.416-2.481c-0.053-1.723-1.127-2.422-0.926-4.4
	c-0.431-0.033-0.626,0.127-0.921-0.068c0.159-0.365,0.307-0.734,0.354-1.209c-1.245-0.823-2.318-2.714-4.26-2.484
	c-0.425,1.346-1.486,2.06-2.336,2.982c-0.885,0.015-1.328,0.466-2.13,0.566c-0.165,0.327-0.36,0.632-0.425,1.065
	c-0.466,0.147-0.855,0.371-1.274,0.566c-0.926-0.496-1.882-1.62-2.767-2.127c-0.425-0.242-1.269-0.352-1.422-0.853
	c-0.048-0.162,0.07-0.39,0.142-0.641c0.07-0.232,0.124-0.619,0.212-0.778c0.142-0.263,0.525-0.428,0.566-0.708
	c0.083-0.502-0.242-0.717-0.495-1.277c-0.054-0.546-0.543-0.688-0.496-1.206c0.035-0.419,0.39-0.597,0.425-0.994
	c0.236,0.301,0.431-0.112,0.644-0.213c0.536-0.254,1.269-0.295,1.699-0.64c0.265-0.204,0.276-0.413,0.495-0.708
	c-0.147-0.325-0.384-0.434-0.495-0.853c-0.118-0.413,0.023-0.909-0.071-1.204c-0.212-0.672-1.228-1.038-1.416-1.917
	c-0.076-0.342,0.095-0.767,0-1.136c-0.13-0.472-0.867-0.793-0.714-1.419c0.384-0.112,0.921-0.076,1.352-0.142
	c0.047-0.688,0.2-1.631,0.212-2.127c0.602-0.743,0.508-2.07,0.779-3.191c0.123-0.514,0.472-0.944,0.501-1.422
	c0.012-0.362-0.194-0.761-0.289-1.062c1.292-0.366,1.375-2.31,1.416-3.69c-0.448-0.466-0.927-0.159-1.416-0.071
	c-0.153,0.03-0.442,0.03-0.566,0.071c-0.46,0.153-0.679,0.555-1.139,0.569c-0.283,0.006-0.561-0.183-0.85-0.213
	c-0.555-0.062-1.127,0.157-1.775,0c-0.023-0.259-0.159-0.403-0.349-0.498c0.112-1.018-0.212-1.596-0.784-1.631
	c-0.602-0.042-1.156,0.958-1.911,0.566c0.076-0.293-0.313-0.487-0.219-0.566c0.153-0.172,0.188-0.54,0.071-0.782
	c-0.207-0.313-0.667-0.327-0.991-0.495c-0.325-0.172-0.608-0.603-0.991-0.425c-0.147-0.673-1.009-0.841-1.21-1.561
	c-0.088-0.343,0.023-0.696-0.07-0.997c-0.207-0.696-0.702-0.888-1.133-1.416c-0.277,0.059-0.632,0.056-0.921-0.071
	c-0.625-0.271-0.348-0.56-0.572-1.135c-0.2-0.514-0.819-0.889-1.203-1.349c-0.112-0.139-0.083-0.224-0.212-0.354
	c-0.296-0.298-0.572-0.788-0.855-0.994c-0.266-0.198-0.685-0.168-0.921-0.354c-0.112-0.085-0.112-0.298-0.212-0.428
	c-0.313-0.401-0.731-0.561-0.991-0.991c-0.018-0.457-0.178-0.767-0.425-0.994c-0.384-0.383-1.121-0.13-1.563-0.212
	c-0.248-0.047-0.578-0.257-0.85-0.354c-0.336-0.12-0.679-0.168-0.927-0.283c-0.808-0.383-1.304-1.159-1.981-1.704
	c-0.302-0.236-0.69-0.357-1.068-0.569c-0.72-0.393-1.239-0.812-2.124-0.991c0.266-0.159,0.614-0.23,0.779-0.496
	c0.666-0.064,1.304-0.162,1.563-0.64c-0.396-0.15-0.838-0.254-1.28-0.354c0.124-0.396-0.289-0.507-0.142-0.711
	c-0.484,0.057-0.572-0.274-0.85-0.425c0.39,0.178,0.313-0.397,0.425-0.64c0.13-0.271,0.389-0.517,0.425-0.779
	c0.076-0.507-0.219-0.799-0.425-1.203c0-0.239,0-0.475,0-0.711c-0.607-0.682-1.31-1.39-1.918-2.059
	c-0.218-0.239-0.542-0.502-0.637-0.708c-0.112-0.245,0.059-0.693-0.213-0.924c-0.247-0.133-0.501-0.254-0.926-0.212
	c-0.772-1.213-1.841-2.13-2.549-3.404c-0.106-7.723-0.2-16.345-0.07-24.123c-6.549,0.029-13.758-0.042-19.652,0
	c0.277,5.929-0.348,12.66-0.07,18.872c0.029,0.696-0.035,1.378,0,2.06c0.053,1.064,0.242,2.114,0.142,3.121
	c-0.041,0.348-0.183,0.698-0.219,1.062c-0.111,1.454,0,3.047,0,4.613c0,1.549-0.117,3.165,0,4.607
	c0.042,0.464,0.189,0.892,0.219,1.352c0.183,3.114,0.029,6.333-0.142,9.507c-0.153,2.743,0,5.528,0,8.301
	c0,2.797-0.064,5.596,0.07,8.372c-0.094,0.383-0.602,0.348-0.495,0.92c0.124,0.248,0.625,0.127,0.702,0.425
	c0.413,1.047,1.381,1.87,1.209,3.266c0.26,0.304,0.59,0.546,0.785,0.923c-0.254,0.41-0.419,0.927-0.644,1.274
	c-0.124,0.2-0.124,0.136-0.142,0.357c-0.023,0.351,0.271,0.701,0.496,1.135c0.224,0.428,0.318,0.912,0.495,1.277
	c0.101,0.195,0.337,0.393,0.496,0.638c0.844,1.263,2.295,2.448,3.121,3.263c0.849,0.147,1.209,0.651,1.917,0.994
	c0.525,0.25,1.067,0.374,1.351,0.637c0.236,0.225,0.248,0.593,0.566,0.711c-0.1,1.159,0.644,1.486,0.991,2.197
	c0.035,0.487-0.124,0.773-0.064,1.277c-0.596,0.759-1.304,1.398-1.352,2.696c-0.507,0.345-0.561,0.924-0.85,1.419
	c-0.159,0.266-0.454,0.504-0.643,0.781c-0.194,0.289-0.437,0.626-0.566,0.924c-0.147,0.336-0.089,0.752-0.213,1.133
	c-0.147,0.478-0.489,0.899-0.637,1.419c-0.147,0.501-0.177,1.111-0.354,1.561c-0.26,0.646-0.82,1.162-1.21,1.704
	c-0.419,0.594-0.726,1.222-1.203,1.702c-0.171,0.744,0.1,1.54,0.064,2.198c-0.023,0.587-0.336,0.997-0.702,1.492
	c-0.802,1.071-1.853,2.475-3.05,2.625c-0.124,0.277-0.295,0.508-0.566,0.638c-0.23,0.994-0.908,1.87-1.209,2.767
	c-0.054,0.147,0.041,0.343,0,0.496c-0.042,0.15-0.213,0.263-0.289,0.428C156.902,192.456,156.914,192.692,156.837,192.845z"/>
</svg>
