<svg version="1.1" id="Calque_1" xmlns="http://www.w3.org/2000/svg" xmlns:xlink="http://www.w3.org/1999/xlink" x="0px" y="0px"
	 width="432px" height="432px" viewBox="0 0 432 432" enable-background="new 0 0 432 432" xml:space="preserve">
<path fill-rule="evenodd" clip-rule="evenodd" d="M271.761,200.775c0.012-0.171,0.062-0.18,0-0.327
	c-0.286-0.31-0.383-0.809-0.658-1.133c0.336-0.431,0.153-0.974,0.233-1.555c0.103-0.717,0.513-1.389,0.472-1.791
	c-0.056-0.619-0.685-0.669-1.271-0.896c0.077-0.044,0.118-0.13,0.091-0.283c-0.472-0.263-0.481-1.537-0.139-2.071
	c-0.354-0.416-0.472-1.065-1.318-0.991c-0.147-0.189,0.159-0.325-0.047-0.377c-0.327-0.16-0.643-0.331-0.947-0.517
	c0.263-0.003,0.026-0.203,0-0.33c-0.015-0.118-0.085-0.563-0.091-0.52c0.015-0.115,0.266-0.183,0.145-0.33
	c0.077-0.124,0.259-0.145,0.375-0.236c0.094-0.174,0.047-0.274,0.094-0.422c0.522-0.561,1.15-1.018,1.696-1.558
	c0.053-0.407-0.083-0.988,0-1.13c-0.192-0.127-0.457-0.339-0.613-0.236c-0.233-0.162-0.139-0.442-0.186-0.658
	c-0.036-0.157-0.13-0.28-0.145-0.425c-0.062-0.702,0.088-0.909,0.331-1.274c0.256-0.375,0.354-0.437,0.708-0.611
	c0.333-0.165,0.587-0.31,0.799-0.613c0-26.796,0-53.592,0-80.388c-0.115-0.265-0.375-0.421-0.566-0.661
	c-0.115-0.147-0.197-0.354-0.327-0.519c-0.15-0.192-0.301-0.274-0.377-0.469c-0.121-0.324-0.068-0.705-0.189-1.038
	c-0.13-0.354-0.481-0.596-0.658-0.944c-0.168-0.325-0.257-0.75-0.38-1.127c-0.248-0.802-0.384-1.578-0.233-2.593
	c-0.286-0.475-0.342-1.03-0.566-1.555c-0.165-0.401-0.253-0.631-0.327-1.133c-0.077-0.522-0.156-0.994-0.098-1.554
	c-0.209-0.006-0.188-0.251-0.375-0.283c-0.142,0.083,0.068,0.292-0.047,0.33c-0.2-0.439-0.71-0.578-0.991-0.941
	c-0.036-0.301-0.319-0.451-0.472-0.661c-0.162-0.221-0.277-0.469-0.422-0.708c-0.292-0.466-0.696-0.847-0.991-1.318
	c-0.587-0.95-0.926-2.047-1.227-3.345c0.106-0.331,0.053-0.744,0.094-1.085c0.053-0.396,0.177-0.755,0.192-1.177
	c0.369-0.307,0.369-0.876,0.472-1.507c0.121-0.791,0.41-1.929-0.044-2.451c-0.012-0.224,0.044-0.516-0.1-0.614
	c-26.604-0.077-53.545-0.077-80.149,0c-0.068,0.584,0.18,0.702,0.519,0.944c0.369,0.266,0.59,0.354,0.985,0.52
	c0.36,0.15,0.708,0.307,0.991,0.377c0.1,0.147,0.174,0.328,0.188,0.563c0.507,0.531,1.189,0.614,1.743,0.991
	c0.219,0.15,0.478,0.286,0.661,0.422c0.253,0.197,0.404,0.516,0.613,0.755c0.228,0.269,0.466,0.484,0.611,0.802
	c0.195,0.171,0.354,0.098,0.422,0.328c0.121,0.413-0.348,0.814-0.375,1.18c-0.03,0.431,0.318,1.124,0.469,1.365
	c0.28,0.443,0.855,1.139,1.271,1.366c0.327,0.18,0.764,0.15,1.18,0.33c0.201,0.085,0.413,0.266,0.611,0.378
	c0.218,0.121,0.442,0.209,0.613,0.377c0.472-0.003,0.858,0.209,1.133,0.33c0.431,0.186,0.832,0.298,1.039,0.658
	c-0.225,0.912,0.784,0.596,1.127,0.944c0.141,0.646-0.186,1.218-0.139,1.788c0.062,0.779,0.548,1.321,0.799,2.029
	c-0.018,0.201-0.215,0.304-0.28,0.516c-0.044,0.124,0.015,0.271-0.047,0.425c-0.109,0.251-0.386,0.407-0.428,0.661
	c-0.077,0.496,0.428,0.982,0.381,1.504c-0.033,0.307-0.401,0.696-0.52,1.18c-0.035,0.139-0.012,0.339-0.047,0.472
	c-0.068,0.236-0.274,0.437-0.333,0.661c-0.103,0.439,0.126,0.793-0.091,1.271c-0.236,0.127-0.525,0.147-0.755,0.233
	c-0.425,0.171-0.737,0.499-1.13,0.711c-0.407,0.212-0.811,0.351-1.18,0.61c-0.183,0.354-0.614,0.561-0.661,1.039
	c-0.021,0.242,0.136,0.451,0.147,0.705c0.003,0.168-0.147,0.263-0.047,0.425c-0.209,0.171-0.416,0.339-0.566,0.566
	c0.015,0.41-0.103,0.682-0.239,0.941c-0.012,0.596,0.077,1.129,0.094,1.885c-0.469,0.619-1.227,0.428-1.788,0.752
	c-0.254,0.15-0.313,0.413-0.519,0.614c-0.109,0.103-0.239,0.145-0.333,0.236c-0.336,0.345-0.507,0.755-0.985,0.897
	c-0.191,0.053-0.578,0.071-0.805,0.047c-0.389-0.041-0.752-0.298-1.221-0.283c-0.431,0.015-0.596,0.387-1.133,0.236
	c-0.153,0.191-0.431,0.289-0.61,0.566c-0.109,0.159-0.101,0.369-0.239,0.516c-0.109,0.121-0.375,0.183-0.516,0.283
	c-0.431,0.304-0.59,0.838-1.177,0.613c-0.785,0.26-1.555,0.434-2.36,0.375c-0.87-0.059-1.799-0.325-2.59-0.139
	c-0.369,0.085-0.676,0.419-1.039,0.61c-0.602,0.319-1.236,0.475-2.026,0.377c-0.166-0.035-0.166-0.245-0.372-0.236
	c-0.428,0.033-0.469,0.044-0.853,0.142c-0.926,0.239-1.569,0.201-1.413,1.413c-0.333,0.496-0.51,0.902-0.566,1.558
	c-0.021,0.271,0.074,0.578,0,0.894s-0.54,0.693-0.705,1.13c-0.053,0.145-0.047,0.318-0.094,0.425
	c-0.124,0.274-0.431,0.501-0.425,0.755c0.003,0.15,0.198,0.333,0.331,0.52c0.136,0.183,0.301,0.33,0.375,0.516
	c0.094,0.239,0.056,0.528,0.145,0.661c0.147,0.236,0.499,0.31,0.708,0.472c0.15,0.398,0.221,0.607,0.519,0.705
	c0.357,0.124,0.847-0.153,1.221,0c0.348,0.142,0.575,0.985,0.897,1.463c0.145,0.221,0.41,0.451,0.472,0.61
	c0.142,0.396-0.015,0.761,0,1.13c0.006,0.189,0.127,0.396,0.142,0.614c0.056,0.772-0.145,1.879-0.38,2.404
	c0.259,0.449,0.126,0.726,0,1.177c-0.062,0.227-0.062,0.463-0.139,0.566c-0.239,0.321-0.841,0.386-1.133,0.613
	c-0.165,0.127-0.322,0.448-0.519,0.658c-0.396,0.422-0.723,0.67-0.847,1.227c-0.354,0.225-0.696,0.531-0.941,0.847
	c-0.322,0.41-0.212,0.537-0.145,0.991c0.042,0.248,0.053,0.513,0,0.752c-0.027,0.139-0.163,0.522-0.233,0.661
	c-0.062,0.118-0.26,0.212-0.333,0.375c-0.068,0.156-0.136,0.528-0.139,0.708c0,0.145,0.077,0.274,0.091,0.425
	c0.115,0.964-0.191,1.369-0.752,1.696c-0.156-0.112-0.286-0.245-0.614-0.189c-0.088,0.112-0.023,0.377-0.047,0.566
	c-0.242,0.083-0.431,0.283-0.658,0.327c-0.49,0.106-1.012-0.08-1.46-0.044c-0.466,0.035-0.985,0.28-1.504,0.472
	c-0.51,0.18-1.044,0.301-1.419,0.517c-0.354,0.207-0.69,0.64-1.08,0.941c-0.478,0.369-1.012,0.669-0.947,1.321
	c0.25,0.387,0.729,0.449,1.041,0.755c0.16,0.156,0.357,0.631,0.372,0.941c0.038,0.684-0.54,1.386-0.466,2.074
	c0.036,0.38,0.431,0.734,0.419,1.035c-0.015,0.696-1.147,0.569-1.646,0.85c-0.761,0.428-1.224,1.263-1.366,2.26
	c-0.348,0.318-0.289,1.035-0.566,1.416c0.039,0.118,0.065,0.253,0.047,0.425c-0.466,0.775-0.177,1.72-0.239,2.542
	c-0.021,0.345-0.171,0.675-0.186,0.991c-0.036,0.72-0.021,1.481,0.094,2.071c0.097,0.493,0.295,0.802,0.331,1.18
	c0.018,0.209-0.109,0.396-0.092,0.614c0.024,0.499,0.363,0.693,0.563,1.083c0.251,0.487,0.236,0.953,0.608,1.224
	c0.023,0.168,0.074,0.31,0.147,0.425c0.268,0.434,0.867,0.669,0.752,1.274c-0.068,0.333-0.593,0.557-0.705,0.894
	c-0.266,0.767,0.18,1.227,0.466,1.885c0.82,0.407,1.59,0.864,1.938,1.743c-0.209,0.224-0.088,0.599-0.147,0.896
	c-0.03,0.168-0.133,0.271-0.139,0.422c-0.042,1.23,1.49,1.528,1.979,2.357c0.917,0.133,1.183,1.292,1.837,1.838
	c0.442,0.369,1.325,0.463,1.605,0.896c0.227,0.36,0.124,0.847,0.28,1.177c0.083,0.18,0.301,0.472,0.52,0.563
	c0.596,0.262,1.304-0.183,1.646,0.566c0.035,0.575,0.593,0.894,0.758,1.369c0.076,0.233,0.026,0.448,0.142,0.661
	c0.082,0.147,0.268,0.28,0.418,0.422c0.163,0.145,0.292,0.354,0.428,0.469c0.248,0.215,0.658,0.269,0.847,0.614
	c0.617,0.088,0.979,0.434,1.558,0.566c0.242,0.705,1.059,0.932,1.504,1.366c0.25,0.245,0.593,0.292,0.899,0.472
	c0.41,0.245,0.685,0.679,1.08,0.991c0.292,0.228,0.661,0.351,0.899,0.611c0.083,0.091,0.112,0.236,0.186,0.331
	c0.083,0.106,0.186,0.174,0.286,0.283c0.157,0.18,0.28,0.448,0.466,0.613c0.198,0.174,0.469,0.236,0.614,0.422
	c0.159,0.198,0.171,0.354,0.239,0.613c0.088,0.351,0.204,0.717,0.233,0.988c0.021,0.198-0.029,0.378,0,0.566
	c0.036,0.218,0.165,0.387,0.189,0.566c0.044,0.363-0.047,0.793,0.091,1.177c0.101,0.251,0.428,0.525,0.566,0.85
	c0.274,0.628-0.062,0.806-0.375,1.271c-0.192,0.283-0.342,0.534-0.425,0.85c0.212,0.431,0.581,0.705,0.566,1.366
	c0.159,0.301,0.493,0.458,0.566,0.799c0.068,0.322-0.074,0.693,0,1.039c0.026,0.133,0.201,0.395,0.28,0.661
	c0.05,0.159,0.05,0.304,0.094,0.422c0.097,0.263,0.499,0.407,0.658,0.613c0.103,0.127,0.13,0.345,0.239,0.469
	c0.145,0.174,0.505,0.389,0.752,0.519c0.655,0.345,1.195,0.475,1.747,0.095c0.389-0.271,0.554-0.832,1.126-0.988
	c0.245-0.375,0.507-0.72,0.711-1.13c0.006-0.614,0.36-0.965,0.894-0.991c0.233-0.012,0.362,0.106,0.613,0.142
	c0.201,0.029,0.451-0.035,0.658,0c0.088,0.015,0.233,0.109,0.333,0.142c0.466,0.153,0.696,0.301,1.08,0.519
	c0.25,0.139,0.458,0.339,0.708,0.472c0.475,0.248,1.068,0.088,1.604,0.186c0.876,0.166,1.537,0.838,2.024,1.271
	c0.51,0.071,0.723,0.439,1.227,0.52c0.262,0.454,0.912,0.386,1.085,0.846c0.103,0.298-0.085,1.112-0.239,1.369
	c-0.265,0.431-1.029,0.661-1.321,0.991c-0.18,0.201-0.159,0.254-0.233,0.422c-0.224,0.504-0.867,0.699-1.039,1.133
	c0,0.283,0,0.566,0,0.847c0.555,0.593,1.03,1.266,0.9,2.545c-0.174,0.54-0.428,0.994-0.758,1.366
	c-0.256,0.044-0.348,0.248-0.563,0.331c-0.439,0.723-1.032,1.295-1.177,2.31c-0.198,0.147-0.124,0.566-0.333,0.705
	c0.151,0.257-0.124,0.658-0.047,1.133c-0.239,0.325-0.233,0.667-0.472,0.988c-0.171,0.236-0.431,0.383-0.658,0.613
	c-0.23,0.236-0.458,0.475-0.614,0.708c-0.038,0.056-0.115,0.094-0.142,0.139c-0.186,0.307-0.13,0.522-0.233,0.897
	c-0.094,0.33-0.357,0.643-0.425,0.988c-0.121,0.619,0,1.498,0.091,1.979c0.062,0.307,0.095,0.428,0.142,0.614
	c0.042,0.156,0.009,0.336,0.05,0.472c0.239,0.809,0.791,1.439,1.274,1.932c0.472,0.145,0.944,0.266,1.218,0.614
	c0.23,0.28,0.318,0.746,0.522,1.083c0.227,0.369,0.549,0.569,0.705,0.941c0.531,0.292,1.271,0.923,2.077,1.18
	c0.354,0.112,0.682,0.074,0.894,0.283c0.213,0.204,0.183,0.628,0.381,0.894c0.062,0.085,0.248,0.189,0.372,0.28
	c0.124,0.094,0.28,0.242,0.38,0.283c0.245,0.112,0.546,0.071,0.847,0.236c0.307,0.171,0.569,0.546,0.799,0.802
	c0.269,0.292,0.561,0.658,0.853,0.755c0.46,0.15,1.401-0.227,1.458,0.186c0.053,0.378-0.971,0.628-0.8,1.039
	c0.115,0.168,0.271,0.298,0.233,0.614c0.256,0.153,0.36,0.557,0.613,0.799c0.162,0.156,0.685,0.49,0.847,0.519
	c0.484,0.085,0.861-0.174,1.085-0.472c0.027-0.029,0.13-0.059,0.142-0.094c0.024-0.083-0.08-0.115-0.047-0.189
	c0.042-0.103,0.198-0.147,0.192-0.28c0.28,0.153,0.437-0.098,0.658-0.145c0.23,0.28,0.64,0.366,0.894,0.613
	c0.209,0.204,0.333,0.587,0.519,0.752c1.186-0.127,1.602,0.932,2.121,1.369c0.404,0.339,1.422,0.628,1.51,1.318
	c0.029,0.257-0.319,0.602-0.286,0.85c0.042,0.321,0.431,0.454,0.752,0.519c0.26,0.05,0.183-0.23,0.475-0.142
	c0.118,0.248,0.357,0.313,0.519,0.516c0.145,0.189,0.16,0.449,0.372,0.614c0.08,0.059,0.239,0.112,0.333,0.142
	c0.681,0.23,1.723,0.221,1.979,0.799c-0.083,0.49-0.068,0.997-0.094,1.604c0.359,0.283,0.445,0.838,1.032,0.894
	c0.021,0.369,0.194,0.755-0.044,1.083c-0.15-0.13-0.625-0.277-0.846-0.233c-0.012,0-0.012,0.083-0.047,0.094
	c-0.292,0.077-0.218,0.46-0.233,0.85c0.18,0.112,0.248,0.342,0.233,0.658c0.41,0.437,0.888,0.959,0.752,1.791
	c0.212,0.384,0.446,0.747,0.752,1.039c0.136,0.05,0.327-0.08,0.333,0c0.207,0.207,0.077,0.31,0.139,0.469
	c0.065,0.154,0.215,0.301,0.286,0.52c0.039,0.121,0.042,0.366,0.095,0.566c0.053,0.195,0.165,0.381,0.186,0.517
	c0.074,0.54-0.118,1.528-0.566,1.696c-0.165,0.065-0.439,0.018-0.61,0.05c-0.442,0.08-0.661,0.251-0.941,0.563
	c-0.145,0.159-0.26,0.28-0.333,0.425c-0.104,0.209-0.321,0.87-0.233,1.271c0.026,0.133,0.183,0.345,0.28,0.472
	c0.094,0.121,0.239,0.251,0.38,0.375c0.295,0.032,0.72-0.062,0.938,0.047c0.168,0.307-0.233,0.604-0.233,0.991
	c0,0.383,0.321,0.72,0.327,1.13c0.384,0.48,0.623,1.259,0.991,1.743c0.251,0.331,0.457,0.422,0.708,0.661
	c0.218,0.207,0.575,0.67,0.614,0.944c0.065,0.463-0.239,0.773-0.328,1.269c0.369,0.599,0.979,0.755,1.599,1.085
	c0.207,0.109,0.466,0.245,0.614,0.378c0.274,0.25,0.487,0.684,0.847,0.708c0.348,0.018,0.855-0.64,0.802-1.085
	c-0.109-0.855-1.682-0.675-1.463-1.649c0.348-0.065,0.425,0.145,0.705,0.142c0.174,0.139,0.135-0.25,0.428-0.142
	c0.383,0.106,0.457,0.369,0.613,0.708c0.056,0.124,0.106,0.295,0.186,0.375c0.16,0.168,0.478,0.183,0.705,0.378
	c0.147,0.124,0.292,0.345,0.333,0.519c0.136,0.596-0.068,0.977,0.28,1.227c0.053,0.036,0.13,0.023,0.192,0.047
	c0.389,0.15,1.1-0.251,1.507-0.52c-0.401-0.342-0.947-0.61-1.18-1.129c-0.088-0.207-0.035-0.274-0.094-0.475
	c-0.003-0.023-0.083-0.047-0.091-0.091c-0.156-0.572,0.239-0.82,0.372-1.274c0.121-0.071,0.313-0.065,0.38-0.189
	c0.098-0.165,0.136-0.398,0.286-0.516c0.089,0.018,0,0.215,0.186,0.139c0.109-0.088-0.088-0.259,0.047-0.375
	c0.062,0.183,0.186,0.516,0.424,0.375c0.458-0.239-0.041-0.675,0-0.799c0.434-0.569,0.764-1.245,1.083-1.932
	c0.458-0.289,0.758-0.628,1.086-0.941c0.336-0.322,0.726-0.688,1.177-0.85c0.457-0.162,0.915-0.118,1.46-0.047
	c0.472,0.059,0.977,0.106,1.413,0.283c0.289,0.115,0.566,0.307,0.85,0.425c0.543,0.221,0.982,0.422,1.413,0.611
	c0.478,0.212,0.619,0.265,0.988,0.519c0.15,0.103,0.336,0.18,0.472,0.28c0.363,0.277,0.602,0.717,0.9,0.802
	c0.253,0.08,0.501-0.074,0.752-0.044c0.46,0.05,0.855,0.413,1.319,0.566c0.162,0.05,0.333,0.003,0.472,0.044
	c0.104,0.032,0.224,0.142,0.328,0.189c0.145,0.065,0.259,0.142,0.425,0.142c0.259,0.307,0.593,0.501,0.894,0.752
	c0.301,0.254,0.587,0.587,0.9,0.758c0.472,0.256,1.552,0.348,2.118,0.044c0.561-0.304,1.36-1.699,1.507-2.404
	c0.124-0.596-0.085-0.835-0.188-1.224c-0.089-0.319-0.186-0.425-0.28-0.661c-0.071-0.165-0.077-0.351-0.145-0.469
	c-0.162-0.28-0.469-0.445-0.705-0.705c-0.209-0.233-0.271-0.555-0.428-0.758c-0.204-0.271-0.549-0.322-0.658-0.658
	c-0.189-0.593,0.192-1.13,0.425-1.649c0.348-0.767,0.628-1.445,0.661-2.451c0.283-0.416,0.788-0.785,1.318-0.988
	c0.452-0.174,0.522-0.174,0.8,0.044c0.233,0.186,0.607,0.531,0.896,0.519c0.209-0.006,0.475-0.328,0.614-0.422
	c0.171-0.121,0.198-0.224,0.327-0.38c0.422-0.49,1.033-0.685,1.652-0.847c0.165-0.041,0.333-0.124,0.472-0.142
	c0.437-0.053,0.882,0.035,1.318,0c0.339-0.026,0.702-0.153,1.036-0.186c0.315-0.036,0.454-0.118,0.711-0.192
	c0.395-0.109,0.829-0.015,1.265-0.091c0.755-0.136,1.139-0.917,0.994-1.838c-0.156-0.377-0.661-0.614-0.894-0.991
	c-0.23-0.363-0.599-0.516-0.805-0.799c-0.183-0.254-0.183-0.546-0.28-0.897c-0.145-0.537-0.623-1.289-0.52-1.932
	c0.077-0.499,0.731-1.28,1.039-1.554c0.566-0.514,1.401-0.726,1.932-1.225c0.006-0.271,0.351-0.537,0.466-0.896
	c0.047-0.136,0.012-0.331,0.053-0.516c0.103-0.493,0.322-0.72-0.1-0.991c-0.52-0.047-0.679,0.372-1.127,0.142
	c-0.071-0.195-0.274-0.51-0.145-0.755c0.41,0.166,1.51,0.631,1.652,0c0.145-0.637-0.779-0.622-1.085-0.894
	c-0.115-0.104-0.104-0.239-0.186-0.377c-0.215-0.363-0.584-0.752-0.613-1.177c0.46,0.183,0.785,0.643,1.504,0.422
	c0.203-0.085,0.292,0.192,0.566,0.047c0.094-0.142,0.115-0.357,0.1-0.614c-0.177-0.201-0.458-0.298-0.805-0.327
	c-0.218,0-0.212,0.227-0.52,0.142c-0.08-0.118-0.375-0.384-0.142-0.52c0.257-0.08,0.431,0.422,0.847,0.189
	c0.28-0.274,0.062-0.785,0.053-1.177c0.239-0.091,0.458-0.041,0.566-0.33c0.274-0.602-0.369-0.962-0.333-1.366
	c0.033-0.372,0.431-0.28,0.425-0.755c-0.097-0.313-0.85,0.036-0.944-0.283c0.062-0.377,0.617-0.38,0.944-0.236
	c0.454-0.15,0.994-0.425,1.274-0.708c0.088-0.091,0.227-0.218,0.233-0.233c0.115-0.318,0.006-0.87-0.28-0.944
	c-0.225-0.056-0.472,0.186-0.661,0.283c-0.221,0.112-0.416,0.265-0.658,0.188c-0.239-0.513,0.419-0.593,0.847-0.563
	c0.28-0.13,0.207-0.611,0.419-0.803c0.271-0.065,0.286,0.124,0.519,0.092c0.188-0.142,0.327-0.331,0.428-0.563
	c0.392-0.044,0.675-0.637,0.377-0.941c-0.224-0.165-0.286,0.168-0.472,0.186c-0.012-0.256-0.124-0.407-0.239-0.566
	c-0.259,0.015-0.395-0.103-0.613-0.139c-0.047-0.286-0.301-0.428-0.375-0.708c-0.112-0.418,0.064-0.873,0-1.318
	c0.245,0.018,0.203,0.331,0.522,0.283c0.103-0.133,0.242-0.227,0.186-0.519c0.16-0.012,0.289-0.056,0.28-0.236
	c0.166-0.186-0.183-0.25-0.142-0.469c0.469-0.083,0.387-1.015,0.994-0.661c-0.115,0.242-0.401,0.675-0.142,0.988
	c0.628,0.08,0.525-0.572,0.941-0.705c0.136-0.26,0.18-0.608,0.425-0.755c0.042,0.442-0.156,1.245,0.52,1.224
	c0.313-0.006,0.587-0.46,0.654-0.894c0.077-0.481-0.009-1.03,0.192-1.46c0.088-0.188,0.333-0.472,0.472-0.566
	c0.25-0.171,0.563-0.162,0.755-0.283c0.28-0.18,0.369-0.537,0.566-0.802c0.174-0.245,0.41-0.416,0.514-0.658
	c-0.036-0.351,0.035-0.596,0.097-0.847c0.147-0.204,0.321-0.301,0.236-0.566c-0.08-0.239-0.386-0.191-0.613-0.283
	c0.006-0.637,0.613-0.425,1.085-0.519c0.534-0.106,0.985-0.561,1.174-0.944c0.088,0.218,0.392,0.118,0.617,0.097
	c0.422-0.572-0.348-0.976-0.52-1.51c0.101-0.115,0.316-0.124,0.375-0.283c0.05-0.483,0.354-0.717,0.472-1.13
	c0.218,0.047,0.271-0.077,0.381-0.142c-0.006-0.51,0.118-0.994,0.139-1.602c0.28-0.301,0.315-0.607,0.661-0.85
	c0.499-0.351,1.369-0.28,1.743-0.613c0.145-0.133,0.245-0.201,0.375-0.328c0.077-0.289,0.036-0.587,0.139-0.847
	c0.006-0.015,0.089,0.006,0.095,0c0.026-0.021-0.015-0.118,0-0.145c0.218-0.298,0.318-0.51,0.333-0.894
	c0.009-0.242,0.068-0.617-0.094-0.847C272.879,201.728,271.933,201.253,271.761,200.775z"/>
</svg>
