<svg version="1.1" id="Calque_1" xmlns="http://www.w3.org/2000/svg" xmlns:xlink="http://www.w3.org/1999/xlink" x="0px" y="0px"
	 width="432px" height="332px" viewBox="0 0 432 332" enable-background="new 0 0 432 332" xml:space="preserve" fill="#FFF">
<path fill-rule="evenodd" clip-rule="evenodd" d="M281.399,212.849c0.13-0.641-0.265-1.045-0.631-1.552
	c-0.726-0.283-1.781-0.236-2.483-0.546c-0.561-1.59,1.209-1.634,1.397-2.637c0.136-0.731-0.4-1.623-0.772-2.178
	c-0.466-0.684-1.209-1.114-1.398-1.94c0.407-0.457,0.756-0.933,1.239-1.393c0.489-0.472,1.162-0.758,1.321-1.398
	c0.236-0.952,0-2.524,0-3.885c0-40.621,0.384-81.954,0.39-122.118c-26.684,0-53.368,0-80.04,0c-0.655,0.542-1.699,0.772-2.643,1.318
	c-0.514,0.298-0.892,0.799-1.322,1.012c-0.437,0.218-0.914,0.318-1.392,0.54c-1.853,0.87-3.729,1.74-5.67,2.41
	c-0.52,0.177-1.079,0.227-1.628,0.383c-1.115,0.321-2.165,0.823-3.187,0.855c-1.256,0.044-2.442-0.215-3.729-0.307
	c-0.442-0.035-0.873,0.047-1.315,0c-1.651-0.186-2.891-1.056-3.876-1.944c-1.056-0.304-1.616-1.079-2.572-1.475
	c-0.029,33.572-0.235,68.598-0.224,102.556c0,2.301-0.23,4.737,0,6.911c0.035,0.41,0.029,0.517,0.224,0.853
	c-0.631,0.431-0.702,1.416-1.475,1.708c-0.33,0-0.673,0-1.009,0c-0.006,0.407-0.584,0.245-0.46,0.776
	c-0.189,0.318-0.502,0.313-0.62,0.699c-0.188,0.607,0.083,2.409,0.225,2.72c0.242,0.519,0.926,0.472,1.015,1.082
	c0.112,0.788-0.991,1.245-1.321,1.867c-0.142,0.274-0.089,0.626-0.236,0.93c-0.064,0.142-0.289,0.229-0.384,0.389
	c-0.105,0.178-0.142,0.407-0.235,0.543c-0.23,0.354-0.525,0.584-0.696,0.933c0.33,0.498-0.053,0.85-0.159,1.321
	c0.348,0.174,0.743,0.289,1.162,0.387c-0.136,0.841,0.679,0.734,1.092,1.009c0.59,0.395,0.602,0.949,0.701,1.705
	c0.136,1.023,0.248,1.796-0.313,2.409c0.756,0.62,1.794,0.953,2.324,1.785c-0.165,0.348,0.089,0.685,0,1.088
	c-0.059,0.29-0.354,0.572-0.46,0.853c-0.33,0.826-0.188,1.897-0.772,2.484c0.365,0.377,0.932,0.516,1.162,1.091
	c0.106,0.283,0,0.646,0.07,0.93c0.189,0.651,0.826,0.938,1.021,1.475c-0.118,0.711,0.035,1.33,0,2.174
	c-0.537,1.121-1.21,2.109-2.106,2.873c-0.814,0.063-1.139,0.517-1.628,0.93c-0.331,0.283-0.608,0.61-0.933,0.855
	c-0.271,1.977-1.104,3.398-2.018,4.737c0.283,0.445,0.396,1.095,0.466,1.552c-0.702,0.248-1.115,0.894-1.781,1.162
	c-0.271,0.109-0.502,0.106-0.779,0.233c-0.271,0.126-0.495,0.292-0.696,0.542c0.06,0.841,0,1.543-0.159,2.563
	c-0.4,0.737-0.837,1.445-1.397,2.021c-0.791,0.34-1.635,0.768-1.941,1.626c-0.295,0.825,0.177,1.982-0.696,2.406
	c0-0.437,0-0.876,0-1.318c-0.229,0.098-0.466-0.053-0.85,0c-0.708,0.572-0.808,1.726-1.87,1.941c0.112-0.41,0.248-0.587,0.236-1.006
	c-0.012-0.233,0.076,0.009-0.159-0.156c-0.632-0.451-1.198,1.961-1.782,2.327c-0.295-0.098-0.743-0.448-1.003-0.31
	c0.189,0.888-0.26,2.115,0.147,2.949c0.254,0.522,1.216,0.578,1.546,1.163c0.266,0.445,0.159,0.793,0.165,1.397
	c-0.643,0.47-1.546,0.682-1.946,1.398c-0.295-0.059-0.372,0.095-0.62,0.077c-0.124,0.56-1.127,0.622-0.85,1.318
	c1.098,0.248,1.705-0.67,2.791-0.696c-0.207,0.292-0.053,0.926-0.396,1.085c-0.248,0.236-0.301,0.679-0.531,0.936
	c-1.191-0.077-1.929,0.298-2.336,1.009c0.065,0.398,0.425,0.39,0.543,0.772c0.13,0.398-0.018,0.994,0,1.552
	c0.053,1.39,0.064,2.756,0.076,4.038c-1.221,0.328-1.94-0.339-2.637-0.772c0.307,0.832,0.525,1.676,1.015,2.327
	c0.425,0.572,1.21,0.912,1.239,1.629c-0.69,0.454-1.404-0.52-2.095-0.077c-0.153,0.626,0.012,1.36,0.696,1.558
	c0.702,0.194,1.734-0.041,2.413,0.23c0.549,0.457,1.209,0.808,1.781,1.241c0.762-0.507,1.422-1.114,2.171-1.631
	c0.095-0.652,0.207-1.339,0-1.938c-0.153-0.463-0.478-0.578-0.701-0.932c0.082-0.336-0.048-1.142,0-1.711
	c0.359-0.39,0.902-0.599,1.557-0.696c0.236,0.363,0.661,0.463,1.003,0.855c0.337,0.366,0.467,0.788,0.938,1.006
	c1.245,0.584,2.731-0.035,3.492-0.932c0.826-0.083,2.283-0.233,2.867,0.153c0.248,1.029-0.4,2.238,0.319,2.873
	c0.472,0.133,0.949,0.227,1.397,0.082c0.401-0.142,1.328-1.108,1.387-1.397c0.136-0.546-0.089-1.305-0.307-1.785
	c-0.142-0.333-0.602-0.593-0.696-1.009c-0.064-0.301,0.13-0.723,0.153-1.089c0.041-0.516-0.171-1.212,0.318-1.478
	c0.448,0.071,0.768,0.549,1.162,0.933c0.525,0.519,1.169,1.038,1.476,1.634c0.124,0.127-0.054,0.563,0.229,0.543
	c0.791-0.048,1.393,0.047,2.018-0.236c0.366-0.165,0.479-0.555,0.779-0.778c0.277-0.198,0.755-0.419,1.162-0.464
	c1.428-0.162,2.495,0.735,3.416,1.242c0.549,0.298,1.162,0.543,1.711,0.855c1.304,0.743,2.377,2.263,3.876,2.641
	c0.437,0.105,0.926-0.006,1.327,0.153c0.991,0.41,1.21,1.979,1.782,2.563c0.454,0.003,0.861,0.165,1.244,0.076
	c0.318-0.073,0.997-0.637,1.239-0.932c0.295-0.346,0.501-1.074,0.778-1.473c0.159-0.238,0.266-0.269,0.313-0.469
	c0.2-0.894-0.236-1.838,0.153-2.64c0.283-0.153,0.324-0.549,0.625-0.699c0.832-0.233,1.369-0.688,2.165-0.855
	c0.442-0.089,0.885,0.026,1.398-0.074c0.855-0.171,1.94-0.961,2.483-1.478c0.578-0.543,1.104-1.604,1.864-1.472
	c0.33,0.056,0.578,0.53,0.855,0.542c0.047,0.189,0.012,0.443,0.077,0.776c0.784,0.51,0.761,1.448,1.244,2.251
	c0.26,0.434,1.181,1.395,1.705,1.397c0.673,0.003,1.41-1.165,1.941-1.009c0.802,0.236,0.277,1.558,0.229,2.171
	c0.277,0.118,0.319,0.47,0.467,0.699c1.864,0.437,2.1-1.286,2.33-2.714c0.908-0.882,3.587,0.153,3.806-1.244
	c0.076-0.517-0.561-1.213-0.702-1.788c-0.295-1.274-0.048-2.41,0.548-3.023c0.555-0.044,1.074-0.112,1.711-0.079
	c0.537-0.649,1.54-1.213,1.398-2.095c-0.106-0.613-0.861-0.899-0.938-1.478c0.695-0.228,1.321,0.079,1.864-0.077
	c0.602-0.171,0.72-0.679,1.168-1.009c0.235-0.021,0.743,0.139,1.085,0c0.071-0.029,0.62-0.764,0.62-0.696
	c0,0.044-0.283-0.439-0.313-0.469c-0.142-0.165-0.354-0.271-0.537-0.307c-0.207-0.366-0.773-0.372-0.696-1.012
	c0.153-0.098,0.283-0.225,0.384-0.387c0.53,0.106,0.808,0.682,1.321,1.009c0.271,0.18,0.666,0.206,0.932,0.39
	c0.384,0.266,0.921,0.891,1.009,1.318c0.089,0.46-0.1,0.885-0.159,1.318c-0.301,2.269,0.59,2.72,1.87,3.572
	c0.679,0.457,1.416,1.118,2.165,1.242c0.82,0.136,1.493-0.369,2.484-0.153c0.466,0.097,1.044,0.64,1.398,1.006
	c0.389,0.397,0.578,1.053,1.168,1.318c0.218-0.171,0.466-0.301,0.772-0.39c0.101-0.31,0.188-0.723,0.466-0.929
	c0.496-0.354,1.145-0.15,1.788-0.39c1.097-0.401,1.758-1.699,2.561-2.327c-0.03-0.806,0.519-1.602,0.542-2.561
	c0.007-0.354-0.147-0.705-0.153-1.089c-0.006-0.702,0.124-1.714,0.153-2.327c0.603-1.139,1.729-1.746,2.407-2.797
	c0.101-0.755,0.266-1.51,0.543-1.861c0.207-0.259,1.003-0.707,1.327-0.698c0.584,0.012,1.086,0.885,1.705,0.929
	c0.313,0.023,0.708-0.186,1.162-0.384c1.104-0.498,2.207-1.513,2.714-2.409c0.561-0.982,0.454-1.912,0.779-3.027
	c0.124-0.418,0.519-1.421,0.702-1.631c0.059-0.064,0.023-0.153,0.076-0.236c0.407-0.651,1.321-0.94,2.089-1.082
	c0.489-0.095,1.156,0,1.717-0.233c0.873-0.374,1.315-1.66,1.935-2.407c0.655-0.79,1.428-1.103,1.864-1.94
	c0.23-1.304-0.489-1.988-0.619-2.95c-0.059-0.419,0.13-0.985,0-1.555c-0.077-0.348-0.419-0.628-0.543-1.009
	c-0.365-1.177,0.041-2.327,0.619-2.873c0.773-0.726,1.416-0.13,2.649-0.156c1.251-0.023,2.064-0.552,2.944-0.463
	c0.72,0.07,1.31,0.667,1.704,1.165c0.378,0.469,0.419,0.915,1.016,1.162c0.637,0.271,1.834,0.254,2.56,0
	c1.098-0.386,1.936-1.524,3.181-2.253c0.513-0.299,1.203-0.588,1.787-0.93c0.619-0.359,1.333-0.873,1.858-0.932
	c0.372-0.039,0.743,0.097,1.086,0.079c0.796-0.044,1.51-0.398,2.259-0.466c1.269-0.115,2.313,0.292,3.098-0.233
	c0.095-0.867-0.359-1.076-0.147-1.864C279.99,213.76,281.24,213.565,281.399,212.849z"/>
</svg>
