<svg version="1.1" id="Calque_1" xmlns="http://www.w3.org/2000/svg" xmlns:xlink="http://www.w3.org/1999/xlink" x="0px" y="0px"
	 width="432px" height="432px" viewBox="0 0 432 432" enable-background="new 0 0 432 432" xml:space="preserve">
<path fill-rule="evenodd" clip-rule="evenodd" d="M127.65,227.904c4.795,0.281,9.627,0.228,14.488,0.457
	c4.768,0.225,9.588,0.258,14.418,0.39c9.594,0.269,19.264,0.566,28.975,0.651c2.436,0.024,4.855,0.133,7.309,0.133
	c2.432,0,4.873,0.195,7.305,0.195c24.943,0,50.004,0,74.652,0c4.992,0,9.865-0.032,14.678-0.26
	c13.959-0.66,28.377-0.949,42.607-1.566c-0.035-8.527-0.4-17.406-0.52-25.578c-0.023-1.723-0.059-3.439-0.129-5.156
	c-0.166-3.441-0.047-6.932-0.201-10.373c-0.307-6.688-0.307-13.588-0.52-20.426c-0.105-3.344-0.129-6.873-0.199-10.309
	c-0.049-2.549-0.189-5.221-0.189-7.699c0-0.734,0.201-1.637-0.4-2.153c0.035-0.478,0.602-0.673,0.459-1.109
	c-0.318-0.274-0.803-0.321-1.238-0.457c-0.426-0.13-0.85-0.378-1.238-0.325c-0.484-0.362-1.086-0.609-1.76-0.784
	c-0.295-0.073-0.295,0.343-0.529,0.133c-0.578-0.378-1.264-1.362-1.889-1.764c-0.166-0.106-0.236-0.044-0.318-0.194
	c-0.119-0.178-0.166-0.773-0.271-0.98c-0.236-0.471-0.779-0.793-1.109-1.238c-0.33-0.457-0.768-1.041-0.779-1.566
	c-0.023-0.873,0.922-1.269,0.52-2.283c-0.59-0.369-1.145-0.094-1.959-0.327c-0.719-0.667-1.227-1.543-2.018-2.089
	c-0.566-0.387-0.838-0.46-1.109-1.044c-0.082-0.165-0.117-0.466-0.199-0.587c-0.143-0.213-0.473-0.301-0.578-0.39
	c-0.344-0.259-0.379-0.534-0.59-0.85c-0.201-0.298-0.508-0.53-0.52-0.979c0.684-0.285,1.51-0.436,1.887-1.044
	c-0.223-0.667,0.012-1.289,0.061-1.825c0.271-0.404,0.566-0.785,0.92-1.109c0.342-0.318,0.707-0.661,1.168-0.85
	c0.236-0.6,0.412-1.239,0.791-1.696c0.506,0.194,0.789,0.384,1.238,0.263c0.082-0.023,0.189-0.21,0.318-0.263
	c0.189-0.071,0.508,0.12,0.461-0.194c0-0.283,0.141-0.502,0.129-0.652c-0.035-0.516-0.447-0.41-0.52-0.914
	c-0.129-0.301-0.555-0.018-0.85-0.065c0.236-0.632,0.791-0.952,0.98-1.632c-0.52-0.631-1.156-1.241-1.498-1.958
	c-0.143-0.28-0.189-0.543-0.391-0.782c-0.105-0.123-0.318-0.247-0.459-0.392c-0.236-0.236-0.201-0.296-0.52-0.393
	c-0.438-0.133-1.451-0.198-1.9-0.065c-0.648,0.195-0.73,1.248-1.498,1.438c-0.131,0.032-0.932,0.008-0.98,0
	c-0.66-0.166-0.908-1.074-1.367-1.372c-0.379-0.204-0.768-0.124-1.039-0.325c-0.117-0.082-0.094-0.253-0.201-0.392
	c-0.105-0.136-0.283-0.156-0.389-0.263c-0.225-0.218-0.377-0.501-0.59-0.652c-0.166-0.112-0.885-0.404-1.039-0.457
	c-0.436-0.145-0.885-0.13-1.238-0.26c-0.33-0.115-0.424-0.295-0.721-0.327c-1.002-0.101-2.146,0.068-3.268,0.068
	c-2.949,0-6.289,0.012-9.393,0.129c-4.188,0.157-8.531,0.13-12.719,0.13c-8.412,0-17.145,0.26-25.32,0.26
	c-8.543,0-17.086,0.133-25.582,0.133c-8.572,0-17.096-0.198-25.51-0.198c-4.236,0-8.453-0.195-12.66-0.195
	c-4.236,0-8.459-0.194-12.66-0.194c-4.094,0-8.154-0.28-12.201-0.393c-4.117-0.115-8.211-0.416-12.266-0.587
	c-4.123-0.174-8.24-0.351-12.336-0.522c-4.082-0.171-8.141-0.425-12.199-0.522c-8.178-0.197-16.313-0.864-24.4-1.044
	c-0.096,0.018-0.078,0.142-0.131,0.195c-0.52,14.397-1.346,28.932-2.029,43.197c-0.225,4.767-0.59,9.558-0.779,14.354
	c-0.377,9.368-1.121,19.044-1.498,28.646c-0.189,4.575-0.555,9.289-0.785,14.289c-0.1,2.191-0.342,4.66-0.453,7.115
	c-0.082,1.654-0.137,3.681-0.266,5.416c-0.047,0.666-0.006,1.4-0.131,1.76c-0.1,0.277-0.301,0.369-0.523,0.523
	c-0.166,0.117-0.566,0.182-0.52,0.457c4.555,0.33,9.139,0.643,13.77,0.846C118.316,227.257,122.971,227.626,127.65,227.904z"/>
</svg>
