<svg version="1.1" id="Calque_1" xmlns="http://www.w3.org/2000/svg" xmlns:xlink="http://www.w3.org/1999/xlink" x="0px" y="0px"
	 width="432px" height="332px" viewBox="0 0 432 332" enable-background="new 0 0 432 332" xml:space="preserve" fill="#FFF">
<path fill-rule="evenodd" clip-rule="evenodd" d="M360.181,183.095c-0.153,0.056-0.088,0.327-0.277,0.348
	c-0.1-0.313-0.454-0.322-0.702-0.139c-0.183-0.142-0.259-0.679-0.554-0.487c-0.349,0.006,0.082,0.637-0.207,0.558
	c-0.72-0.192-0.914-1.528-1.876-0.838c-0.064-0.174-0.225-0.242-0.354-0.348c-0.425-0.006-0.479,0.354-0.838,0.419
	c-0.054-0.266-0.178-0.463-0.277-0.696c0.79,0.215,0.59-1.142,0.076-1.321c-0.336-0.198-0.359,0.215-0.767,0.139
	c-0.023-0.277,0.124-0.387,0.064-0.696c-0.419-0.08-0.412-0.159-0.277-0.558c-0.1-0.106-0.354-0.059-0.554-0.068
	c0.33-0.201,0.076-0.422,0.07-0.628c-0.006-0.2,0.153-0.522-0.07-0.693c-0.343-0.127-0.561,0.023-0.768,0.207
	c-0.124,0.431,0.366,0.528,0.142,0.834c-0.177-0.021-0.59,0.142-0.838,0c-0.023-0.785-0.342-1.248-0.973-1.599
	c-0.366-0.091-0.354,0.201-0.696,0.139c-0.407-0.174-0.726-0.431-0.903-0.835c-0.336-0.142-0.383,0.354-0.56,0.139
	c-0.071-0.339,0.064-0.558-0.207-0.767c0.089-0.142,0.289-0.386,0.142-0.554c-0.083-0.201-0.401-0.157-0.489-0.348
	c-0.189-0.531-0.207-1.227-0.762-1.393c0.165-0.413,0.578-0.578,0.762-0.973c-0.236-0.186-0.649-0.23-0.561-0.558
	c-0.13-0.077-0.325-0.088-0.484-0.139c0.036-0.218-0.094-0.271-0.136-0.419c-0.507-0.186-0.79-0.599-1.321-0.764
	c-0.094-0.283-0.266-0.481-0.419-0.693c-0.342-0.091-0.33,0.404-0.555,0.207c0.065-0.183,0.077-0.428,0.065-0.696
	c-0.419-0.351-0.655-0.873-0.832-1.463c0.289,0.065,0.348-0.112,0.413-0.277c-0.242-0.147-0.313-0.472-0.349-0.835
	c-0.437-0.071-0.519-0.59-0.831-0.835c-0.219-0.171-0.525-0.165-0.768-0.28c-0.105-0.047-0.165-0.168-0.277-0.206
	c-0.177-0.062-0.4-0.015-0.554-0.142c0.035-0.156,0.135-0.351,0-0.484c-0.077-0.159-0.496,0.032-0.561-0.139
	c0.212-0.071,0.354-0.207,0.277-0.558c0.377-0.065,0.548-0.333,0.701-0.628c0.036-0.363-0.478-0.174-0.418-0.557
	c0.342-0.115,0.761-0.16,0.761-0.623c-0.13-0.254-0.566-0.372-0.902-0.209c0.035-0.266-0.019-0.445-0.142-0.558
	c-0.366-0.047-0.655-0.177-1.039-0.209c0.048-0.466-0.419-0.419-0.283-0.973c-0.507-0.555-0.731-1.404-0.973-2.227
	c-0.566-0.201-0.909-0.623-1.393-0.903c0.224-0.584-0.301-0.991-0.484-1.395c-0.229-0.115-0.448-0.039-0.695,0
	c-0.136-0.401-0.343-0.729-0.768-0.835c0.153-0.643-0.295-0.923-0.136-1.18c0.337-0.035,0.814,0.071,1.039-0.071
	c0.229-0.392,0.808-1.604,0.695-2.156c-0.088-0.425-0.566-0.41-0.625-0.834c0.095-0.331,0.425-0.41,0.908-0.351
	c1.009-0.599,0.23-1.826,0.343-2.714c0.041-0.283,0.283-0.525,0.277-0.832c-0.006-0.817-0.879-0.988-0.974-1.602
	c-0.118-0.799,0.543-1.136,0-1.808c0.33-0.319,0.153-1.018,0.142-1.396c-0.401-0.69-0.23-1.961-0.838-2.504
	c-0.266-0.239-0.873-0.41-1.109-0.555c-0.283-0.177-0.501-0.386-0.767-0.696c-0.183-0.215-0.437-0.51-0.561-0.696
	c-0.248-0.395-0.307-0.888-0.619-1.183c-0.147-0.135-0.454-0.259-0.702-0.416c-0.679-0.434-0.991-0.419-1.806-0.419
	c-0.396,0-0.802,0.062-1.109,0c-0.66-0.13-1.114-0.593-1.533-0.906c-0.331-0.242-0.549-0.315-0.696-0.555
	c-0.537-0.855-0.183-1.891-0.419-3.062c-0.159-0.82-0.891-1.018-0.696-1.95c0.124-0.557,0.318-0.888,0.277-1.392
	c-0.095-1.142-0.997-1.209-1.876-0.974c-0.295,0.077-0.69,0.183-0.902,0.277c-0.649,0.292-0.997,0.903-1.534,0.977
	c-0.472,0.062-0.873-0.242-1.321-0.209c-0.189,0.015-0.614,0.168-0.762,0.277c-0.359,0.253-0.33,0.643-0.561,0.977
	c-0.737,1.053-2.324,0.77-2.99,2.085c-0.124,0.829-0.514,1.386-1.115,1.74c-0.773-0.042-1.487,0.315-2.159,0.139
	c-0.479-0.127-0.809-0.584-1.393-0.558c-0.342,0.251-0.679,0.357-0.974,0.628c-0.318,0.295-0.483,0.867-1.109,0.835
	c-0.654-0.328-0.813-1.136-1.05-1.879c-1.209-1.062-3.28-1.395-5.215-1.531c-0.372-0.245-0.566-0.74-0.903-0.977
	c-0.047-0.029-0.271,0.009-0.419-0.068c-0.006-0.003-0.053-0.126-0.07-0.142c-0.059-0.05-0.13-0.026-0.206-0.068
	c-1.363-0.669-3.257,0.738-4.591,0.767c-0.359,0.501-0.737,0.982-0.631,1.947c-0.572,1.147-2.26,0.283-2.92-0.277
	c-0.714-0.003-1.156-0.283-1.876-0.277c-0.52-0.602-0.325-1.932-1.051-2.365c-0.413-0.251-0.85-0.112-1.18-0.277
	c-0.101-0.053-0.242-0.251-0.348-0.351c-0.319-0.301-0.302-0.455-0.419-0.906c-0.354-1.363-1.41-1.23-2.991-1.599
	c-0.572-0.52-1.21-0.85-2.295-0.696c-0.644,0.472-1.641,0.393-2.649,0.487c-0.336,0.032-0.678,0.15-0.974,0.142
	c-0.147-0.006-0.767-0.077-0.967-0.142c-0.448-0.139-0.938-0.628-1.47-0.764c-0.129-0.032-0.212,0.071-0.276,0.068
	c-0.071-0.003-0.201-0.127-0.277-0.139c-0.88-0.147-2.083-0.351-2.508-0.767c-0.838-0.829-0.23-1.882-0.413-3.197
	c-0.053-0.393-0.342-0.796-0.483-1.044c-0.384-0.655-0.714-0.97-1.115-1.531c-0.354-0.49-0.685-1.039-0.767-1.463
	c-0.077-0.383-0.124-0.799-0.213-1.112c-0.365-1.292-1.604-2.263-2.92-2.434c-0.508-0.068-1.109,0.153-1.67-0.071
	c-1.015-0.41-0.401-1.522-0.625-2.785c-0.479-0.321-0.762-0.74-1.327-0.696c-0.832,0.068-1.104,1.336-1.941,1.39
	c-0.46-0.159-0.755-0.366-1.191-0.274c-0.484,0.1-0.867,0.879-1.522,1.041c-0.52,0.13-0.749-0.136-1.398,0.071
	c-0.035-0.248-0.254-0.165-0.413-0.28c-0.324-0.216-0.572-0.617-0.908-0.761c-0.33-0.145-0.726-0.015-1.044-0.28
	c-0.673-0.835-1.15-1.864-2.36-2.159c-1.038,0.54-1.232,1.926-2.855,1.882c-0.572,0.351-0.985,0.909-1.533,1.319
	c-0.502,0.38-1.263,0.545-1.458,1.253c0.944,1.23,2.319,2.342,2.508,4.106c-0.313,0.301-0.619,0.69-0.979,1.044
	c-0.384,0.383-0.844,0.64-0.767,1.25c0.13,0.95,1.616,0.75,2.437,0.838c0.283,0.313,0.949,0.26,1.044,0.767
	c-0.142,0.333-0.095,0.425-0.136,0.832c-0.596,0.531-1.51,0.788-1.534,1.602c-0.018,0.678,0.768,0.891,0.626,1.737
	c-0.136,0.023-0.136,0.189-0.277,0.209c-1.074-0.266-1.93-0.516-3.063-0.487c-0.891,0.926-1.952,0.782-3.409,0.696
	c-1.15,0.782-3.074,1.575-4.242,2.437c-0.607,0.442-0.962,0.929-1.534,1.25c-0.241,0.136-0.844,0.458-1.038,0.487
	c-1.48,0.233-2.289-0.932-2.997-2.018c-0.271,0-0.419-0.286-0.625-0.348c-1.534-0.463-2.873,0.419-3.965,0.419
	c-0.625,0-1.315-0.354-1.882-0.28c-1.127,0.147-1.534,1.342-1.604,2.437c0.177,0.442,0.483,0.652,0.631,1.183
	c0.23,0.829-0.159,1.894,0.071,2.785c0.188,0.734,0.896,1.298,0.831,2.227c-0.082,1.215-1.097,1.427-2.018,1.808
	c-0.318,0.469-0.572,1.006-0.761,1.599c-0.283,0.136-0.448,0.39-0.696,0.558c-1.351,0.569-2.69,0.133-3.622,0.906
	c-0.077,0.062-0.271,0.357-0.419,0.557c-0.354,0.487-0.478,0.867-0.69,1.46c-0.218,0.581-0.218,0.705-0.277,1.46
	c-0.07,0.835-0.46,1.731-0.908,2.369c-0.118,0.166-0.248,0.372-0.349,0.484c-0.584,0.672-1.12,0.847-1.876,1.253
	c-0.301,0.16-0.637,0.431-0.908,0.419c-0.549-0.026-0.655-0.684-1.18-0.834c-0.425-0.121-1.534,0.1-1.806,0.277
	c-0.271,0.168-0.254,0.537-0.561,0.696c0.071,0.953-0.407,1.354-0.555,2.089c-0.483,0.324-0.844,0.693-1.191,1.041
	c-0.372,0.383-0.72,0.788-0.902,1.393c-0.349,1.203,0.165,2.356,0,3.622c-0.054,0.472-0.313,0.923-0.419,1.389
	c-0.118,0.537-0.188,1.086-0.277,1.599c-0.448,0.434-0.785,0.95-1.599,1.115c-0.266,0.053-0.566-0.038-0.838,0
	c-0.177,0.027-0.349,0.18-0.555,0.209c-0.784,0.101-1.086,0.165-1.457,0.558c-0.047,0.425,0.212,0.844-0.071,1.112
	c-0.926-0.101-0.891-1.009-1.327-1.602c-0.171-0.242-0.838-0.926-1.038-0.906c-0.514,0.059-0.997,0.071-1.534,0.071
	c-0.407,0-0.802,0.168-1.109,0.139c-0.324-0.033-1.067-0.342-1.327-0.487c-0.313-0.183-0.59-0.561-0.902-0.764
	c-0.354-0.239-0.737-0.375-1.115-0.558c-0.514-0.531-0.79-1.147-0.761-2.018c0.018-0.667,0.313-1.283,0.342-1.879
	c-0.224-0.575-0.572-1.118-1.109-1.46c-0.253-0.162-0.66-0.197-0.973-0.418c-0.768-0.531-0.921-1.381-1.741-1.044
	c-0.1,0.248-0.318,0.386-0.348,0.558c-0.313,1.711,1.764,0.879,2.153,1.879c-0.142,1.036-1.393,0.448-2.153,0.764
	c-0.52,0.218-0.425,0.832-0.902,1.044c-0.673-0.269-1.092-1.121-2.018-0.905c-0.302,0.289-0.537,0.551-0.49,0.905
	c0.077,0.558,0.909,0.546,1.186,0.974c0.077,0.124-0.012,0.253,0.142,0.348c-0.229,0.764-0.672,1.321-1.397,1.463
	c-0.892,0.171-1.711-0.253-2.089,0.487c-0.165,0.327-0.165,1.115-0.206,1.669c-0.095,1.38,0.371,2.036,0.767,2.994
	c-0.466,1.451-2.743-0.05-3.552,0.971c-0.159,0.705,0.266,1.97-0.277,2.437c-0.112-0.147-0.26-0.251-0.555-0.209
	c-0.33,0.136-0.206,0.726-0.419,0.976c-0.448,0.101-1.026,0.101-1.186-0.28c0.035-1.03,0.768-1.67,0.561-2.714
	c-0.861-0.514-1.133-0.333-1.882,0.139c-0.254,0.162-0.655,0.548-0.902,0.557c-0.708,0.03-1.31-1.132-1.67-1.876
	c-0.188-0.389-0.46-0.796-0.625-1.186c-0.225-0.519-0.248-1.041-0.49-1.321c-0.507-0.593-1.133-0.451-1.74-0.207
	c-1.375,0.546-1.899,1.528-2.92,2.434c-1.398,0.274-3.009,0.36-4.106,1.112c-0.372,0.259-0.578,0.643-0.902,0.905
	c0.118,1.652-0.301,2.764-0.768,3.829c-0.837-1.009-1.923,0.018-1.392,1.112c-0.39-0.197-0.72,0.059-1.109,0.068
	c-0.366-1.065-0.566-2.065-1.463-2.434c-0.537-0.221-1.28-0.118-2.018-0.348c-1.552-1-2.632-2.472-4.667-2.994
	c-1.062-0.767-2.023-1.705-3.41-1.528c-0.607,0.08-1.156,0.455-1.669,0.835c-0.425,0.318-0.938,0.888-1.251,0.903
	c-0.39,0.021-0.768-0.463-1.186-0.693c-0.337-0.192-0.572-0.174-0.832-0.419c-0.242-0.233-0.46-0.457-0.626-0.696
	c0.024-0.233,0.201-0.31,0.136-0.625c-0.442-0.867-1.48-0.673-1.321,0.486c-0.248,0.422-0.784,0.702-0.832,1.183
	c-0.023,0.233,0.142,0.826,0.343,1.044c0.142,0.147,0.442,0.188,0.561,0.277c0.159,0.118,0.301,0.239,0.419,0.419
	c0.536,0.805-0.207,2.136-0.838,2.504c-0.537,0.31-1.759,0.561-2.225-0.071c-0.72-0.967,0.679-1.826,0.419-2.714
	c-0.359-1.209-1.994,0.393-2.926,0c-0.271-0.059-0.112,0.304-0.419,0.209c-0.236-0.029,0.188-0.269-0.136-0.209
	c-0.442,0.095-0.844,0.658-1.393,0.767c-0.566,0.112-1.073-0.104-1.67-0.209c-0.229-0.416-0.555-0.743-0.902-1.044
	c-0.313-0.551-0.631-1.245-1.393-1.183c-0.555,0.044-0.825,0.607-1.114,0.974c-0.266,0.339-0.844,0.87-0.838,1.324
	c0.018,0.604,0.943,1.115,1.186,1.669c0.23,0.522,0.106,0.793,0.283,1.322c-0.171,0.366-0.555,0.534-0.838,0.416
	c0.159,0.277-0.183,0.28-0.277,0.419c-0.26,0.366-0.348,0.899-0.838,1.044c-0.295-0.242-0.672-0.631-1.044-0.835
	c-0.685-0.38-1.139-0.843-1.734-0.28c-0.183,0.36-0.254,0.823-0.283,1.325c-0.301,0.269-0.348,0.764-0.625,1.112
	c-0.449,0.549-1.175,0.658-1.806,1.044c-0.861,0.522-1.758,1.519-2.095,2.366c-0.259,0.67-0.124,1.283,0.071,1.879
	c0.136,0.416,0.324,0.797,0.413,1.044c0.165,0.425,0.118,0.793,0.212,1.25c0.809,0.82,1.54,1.705,2.437,2.437
	c0.318,0.864,0.071,1.959-0.555,2.295c-0.625,0.336-1.545,0.151-2.507,0.348c-0.543,0.112-1.104,0.339-1.604,0.419
	c-0.349,0.056-0.673-0.044-0.974,0c-0.159,0.024-0.301,0.124-0.484,0.139c-0.448,0.039-0.767-0.05-1.114,0
	c-0.136,0.021-0.349,0.159-0.555,0.209c-0.36,0.091-0.696,0.083-0.974,0.209c-0.726,0.331-1.711,1.802-2.23,1.876
	c-0.66,0.097-1.268-0.876-2.018-0.832c-0.147,0.006-0.454,0.139-0.761,0.274c-0.726,0.331-1.569,0.994-1.746,1.602
	c-0.106,0.386-0.006,0.838-0.065,1.183c-0.111,0.596-0.406,1.065-0.554,1.393c-0.089,0.188-0.065,0.375-0.142,0.558
	c-0.242,0.54-0.886,1.427-0.696,2.298c0.088,0.401,0.561,0.661,0.838,0.97c0.59,0.669,1.015,1.587,1.734,2.156
	c0.2,0.92,0.867,1.655,0.837,2.578c-0.035,1.13-0.996,1.802-1.25,2.782c-0.442,0.304-0.578,0.676-1.045,0.835
	c-0.607,0.204-1.746,0.103-2.295-0.139c-0.354-0.153-0.979-0.776-1.256-1.042c-0.337-0.324-0.531-0.437-0.903-0.696
	c-0.188-0.133-0.33-0.328-0.489-0.419c-0.95-0.54-1.817-0.339-2.502-1.044c-0.565-0.274-1.203,0.027-1.675-0.071
	c-0.171-0.035-0.466-0.307-0.696-0.484c-0.649-0.519-1.404-1.197-2.083-1.534c-0.218-0.106-0.419-0.091-0.695-0.209
	c-0.343-0.142-0.644-0.404-1.045-0.558c-0.389-0.142-0.796-0.245-1.186-0.413c-0.838-0.369-1.61-0.8-2.36-0.906
	c-1.386-0.198-2.613,0.074-3.345,0.558c-0.643,0.424-1.127,0.858-1.67,1.389c-0.412,0.407-0.772,0.855-0.973,1.183
	c-0.384,0.641-0.638,1.416-0.974,1.879c-0.472,0.655-1.404,1.218-1.947,1.947c-0.088,0.121-0.171,0.372-0.277,0.558
	c-0.124,0.207-0.307,0.377-0.354,0.558c-0.165,0.681,0.035,1.321,0.212,1.669c0.419,0.829,0.85,1.162,1.528,1.74
	c1.056-0.044,1.422,0.734,1.327,1.531c-0.059,0.487-0.566,1.027-0.767,1.67c-0.283,0.908-0.13,1.785-0.419,2.504
	c-0.537,0.301-0.885,0.788-1.74,0.767c-0.177,0.699-0.083,1.702,0.277,2.085c0.602-0.03,0.784,0.304,1.463,0.418
	c0.248,0.307,0.2,1.298-0.07,1.528c-0.443-0.207-0.909-0.387-1.6-0.342c0.054,0.186-0.13,0.077-0.212,0.136
	c-0.254,0.189-0.171,0.478-0.343,0.696c-0.165,0.201-0.241,0.109-0.418,0.277c-0.166,0.522,0.395,0.711,0.277,1.396
	c0.129,0.174,0.371,0.227,0.483,0.413c-0.018,0.236-0.307,0.204-0.343,0.419c-0.006,0.286-0.018,0.572,0.065,0.767
	c0.101,0.271,0.602,0.142,0.838,0.28c-0.442,0.75-1.145,0.988-1.321,1.737c-0.019,0.08-0.124,0.095-0.142,0.139
	c-0.13,0.493,0.059,1.166-0.136,1.738c-0.106,0.315-0.632,0.746-0.903,0.837c-2.259,0.75-2.519-2.787-3.97-3.062
	c-0.638-0.121-1.439,0.23-1.67,0.696c-0.147,0.283-0.077,0.649-0.142,0.906c-0.029,0.104-0.106,0.236-0.136,0.348
	c-0.041,0.165-0.035,0.366-0.07,0.484c-0.195,0.607-0.572,1.147-0.768,1.743c-0.177,0.563-0.177,1.153-0.419,1.737
	c17.445,0.003,35.428-0.003,53.097,0c0.089-0.844,0.448-1.298,0.206-2.156c0.136,0.139,0.401,0.044,0.561,0
	c0.077-0.289,0.077-0.549,0-0.835c-0.283-0.233-0.619,0.13-0.696,0.068c-0.1-0.97-0.33-1.563-0.56-2.504
	c-0.23-0.944-0.655-1.516-0.626-2.434c0.242,0.056,0.472,0.13,0.696,0.207c2.679-0.009,4.985,0.354,7.517,0.49
	c-0.019,0.192-0.166,0.956,0,1.319c8.872-0.289,18.672-0.044,26.86-0.416c1.062-0.05,2.171,0,3.269,0
	c1.079-0.003,2.26,0.147,3.274,0c1.032-0.15,2.513-0.083,3.758-0.139c3.127-0.136,6.136-0.142,9.257-0.277
	c0.654-0.029,1.403-0.109,2.018,0c0.177,0.029,0.283,0.298,0.555,0.207c-0.313,0.534,0.572,0.28,0.342,0.696
	c0.307,0.118,0.489-0.425,0.838-0.487c0.39,0.245,0.838-0.274,1.257-0.345c0.572-0.104,1.374,0,2.153,0
	c3.15,0,5.799,0.266,8.424,0.484c0.479,0.041,0.985-0.039,1.387,0c0.142,0.015,0.188,0.112,0.349,0.139
	c0.536,0.091,1.232,0.044,1.599,0.071c4.271,0.31,8.873,0.457,13.291,0.625c3.918,0.153,7.835,0.425,11.623,0.419
	c0.72,0,1.516-0.077,2.229-0.139c1.41-0.124,3.098-0.274,4.731-0.348c2.702-0.124,6.118-0.126,8.625,0.139
	c2.23,0.236,4.921,0.101,6.886,0.419c0.891,0.142,1.77,0.071,2.513,0.139c0.112,0.012,0.248,0.121,0.342,0.139
	c1.239,0.209,2.62-0.062,3.895,0.071c1.805,0.186,4.235,0.145,5.923,0.209c1.994,0.077,3.929,0.121,5.911,0.207
	c1.841,0.08,3.693-0.139,5.499,0c0.307,0.023,0.602,0.127,0.902,0.142c1.381,0.05,2.702,0,4.035,0
	c6.023,0,12.047,0.439,18.165,0.413c0.324-0.487,0.82-0.803,0.974-1.46c0.566-0.28,1.339-0.33,1.94-0.696
	c0.331-0.192,0.431-0.534,0.773-0.625c0.283-0.077,0.637,0.053,0.902,0c0.336-0.068,0.679-0.41,1.044-0.555
	c0.773-0.313,1.369-0.407,2.159-0.628c1.127,0.378,3.316,0.283,3.682-0.767c0.655-0.127,1.327-0.525,2.159-0.761
	c0.266-0.077,0.572-0.059,0.838-0.142c0.23-0.077,0.448-0.269,0.696-0.348c0.648-0.209,1.404-0.318,2.088-0.558
	c0.744-0.259,1.44-0.619,2.019-0.625c0.265-0.003,0.513,0.139,0.761,0.139c0.39,0,0.974-0.109,1.257-0.28
	c0.566-0.339,0.454-1.49,0.695-2.086c0.219-0.542,0.549-0.681,0.838-1.18c-0.047-0.331-0.2-0.549-0.212-0.906
	c0.277,0.044,0.396-0.068,0.631-0.071c0.437-0.528,1.204-0.737,1.876-1.044c0.679,0.726,1.646,0.065,2.502-0.142
	c0.867-0.207,1.858-0.218,2.648-0.623c1.233-0.64,1.629-2.153,1.876-3.619c-0.194-0.437-0.425-0.829-0.489-1.393
	c0.289-0.286,0.737,0.006,1.05-0.207c0.219-0.15,0.089-0.649,0.343-0.767c0.631-0.121,1.133-0.009,1.599-0.139
	c0.685-0.192,0.991-0.994,1.74-1.047c-0.047-0.162-0.159-0.62,0-0.761c0.295,0.003,0.489,0.115,0.838,0.068
	c-0.289-1.112,0.307-2.224,0-3.48c0.52-0.348,1.133-0.504,1.67-0.764c0.554-0.274,1.009-0.646,1.533-0.974
	c0.508-0.321,1.098-0.542,1.599-0.905c0.826-0.599,1.558-1.162,2.502-1.531c0.26-0.1,0.59-0.097,0.838-0.209
	c0.407-0.186,0.772-0.496,1.18-0.696c0.431-0.212,0.873-0.478,1.327-0.625c0.254-0.085,0.566-0.05,0.832-0.142
	c0.307-0.1,0.578-0.395,0.908-0.484c0.584-0.162,1.263-0.133,1.876-0.348c0.213-0.177,0.313-0.478,0.484-0.696
	c0.248-0.083,0.466-0.183,0.696-0.28c0.188-0.139,0.2-0.448,0.354-0.625c0.702-0.375,1.269-0.973,1.876-1.46
	c1.534-1.23,3.026-2.673,4.52-3.829c0.33-0.25,0.72-0.377,1.05-0.625c0.572-0.434,1.038-1.064,1.599-1.531
	c0.597-0.501,1.222-0.917,1.67-1.531c0.767-0.501,1.416-1.139,2.083-1.67c0.224-0.174,0.654-0.354,0.56-0.764
	C361.349,182.507,360.842,183.207,360.181,183.095z"/>
<path fill-rule="evenodd" clip-rule="evenodd" d="M70.705,227.209c-1.238,1.032,0.142,2.958,0.832,3.69
	c0.625-0.023,1.369,0.085,2.159,0c0.785-1.026,1.257-2.775,0.071-3.69C73.035,226.651,71.354,226.672,70.705,227.209z"/>
</svg>
