<svg version="1.1" id="Calque_1" xmlns="http://www.w3.org/2000/svg" xmlns:xlink="http://www.w3.org/1999/xlink" x="0px" y="0px"
	 width="432px" height="432px" viewBox="0 0 432 432" enable-background="new 0 0 432 432" xml:space="preserve">
<path fill-rule="evenodd" clip-rule="evenodd" d="M302.805,242.51c-0.236-0.165-0.59-0.21-0.879-0.315
	c-0.762-1.457-2.484,0.342-3.699-0.124c0.131-0.946-0.342-1.714-0.625-2.442c-0.484-0.15-0.814,0.068-1.256,0.123
	c0.199-0.625-0.283-1.488-0.686-1.565c-0.631-0.121-0.955,0.536-1.381,0.625c-0.211,0.048-0.535-0.089-0.754-0.062
	c-0.467,0.059-0.826,0.457-1.252,0.439c-0.447-0.018-0.83-0.34-0.879-0.69c-0.135-0.985,0.721-0.759,1.193-1.188
	c0.07-0.363,0.223-0.8,0.188-1.13c-0.041-0.356-0.465-1.098-0.814-1.378c-0.465-0.375-0.838-0.188-1.379-0.25
	c-0.566-0.065-1.104-0.439-1.754-0.316c-0.295,0.059-0.395,0.305-0.754,0.316c-0.254-0.264-0.832-0.499-1.381-0.378
	c-0.213,0.047-0.289,0.259-0.502,0.251c-0.596-0.26-0.961-0.154-1.186-0.564c-0.289-0.524,0.184-1.055,0.059-1.627
	c-0.041-0.207-0.307-0.334-0.313-0.502c-0.648,0.141-0.861-0.18-1.439-0.251c0.018-0.366-0.201-0.729-0.313-1.13
	c0.395-0.365,1.121-0.038,1.375-0.563c0.105-0.958-0.49-1.224-1.063-1.505c-0.053-0.303,0.178-0.32,0.125-0.625
	c-0.131-0.291-0.402-0.439-0.566-0.689c0.412-0.572,0.047-1.239-0.502-1.378c-0.496-0.127-1.027,0.269-1.127-0.065
	c0.064-0.271,0.479-0.188,0.689-0.313c-0.018-0.248,0.023-0.437,0.189-0.502c1.074,0.264,2.23,0.446,3.133,0.88
	c0.283-0.101,0.33-0.356,0.625-0.378c0.16-0.012,0.271,0.233,0.502,0.251c0.666,0.048,0.719-0.47,1.068-0.753
	c0.176-0.141,0.395-0.064,0.5-0.313c0.084-0.188,0.066-0.48,0.061-0.752c0.035-0.279,0.389-0.238,0.377-0.563
	c0.029-0.832-0.082-2.039-0.502-2.635c0.738,0.318,0.637-0.52,1.258-0.502c0.006,0.594-0.484,0.691-0.379,1.381
	c0.271,0.112,0.744,0.082,0.938-0.064c0.314,0.256,0.91,0.486,1.447,0.315c0.342-0.604-0.283-1.133-0.189-1.632
	c0.572,0.18,0.984,0.522,1.875,0.378c0.189,0.563,0.254,1.251,1.133,1.127c0.137-0.921-0.229-1.74-0.566-2.38
	c0.172-0.408,0.496-0.662,0.313-1.254c0.65-0.077,1.439-0.531,0.945-1.191c-0.367-0.189-0.867,0.094-1.191-0.063
	c0.088-0.266,0.342-0.369,0.371-0.69c0.756,0,0.902-0.604,1.256-1.003c0.561,0.015,0.969-0.425,1.439-0.563
	c0.33-0.095,0.68,0.03,0.945-0.251c0.152-0.412-0.043-0.775-0.318-0.938c-0.598-0.098-1.127,0.352-1.629,0.437
	c-0.242,0.044-0.697,0.147-0.873-0.188c0.006-0.26,0.324-0.219,0.436-0.375c0.172-0.371,0.295-0.738,0.691-0.814
	c0.424-0.082,0.742,0.295,1.191,0.313c0.984-1.014-0.756-1.637-1.693-1.504c0.172-0.398,0.684-0.648,0.689-1.191
	c0-0.27-0.152-0.366-0.188-0.688c0.205-0.254,0.383-0.617,0.814-0.941c0.359-0.273,0.818-0.357,0.938-0.625
	c0.525-1.189-1.258-1.263-2.131-1.13c-0.082-0.271-0.193-0.513-0.188-0.876c0.549-0.445,0.92-1.104,1.445-1.566
	c0.271-0.245,0.637-0.254,0.873-0.566c0.164-0.711-0.029-1.26-0.502-1.377c-0.441-0.113-0.996,0.344-1.504,0.374
	c-0.408,0.472-1.156,0.599-1.252,1.38c-0.547,0.299-0.926,0.836-1.445,1.189c-0.494,0.346-1.084,0.545-1.498,1.003
	c-0.117,0.218-0.17,0.501-0.318,0.69c-0.566,0.295-1.25,0.48-1.752,0.814c-0.283,0.188-0.4,0.475-0.689,0.627
	c0.041-0.451-0.508-0.389-0.814-0.313c-0.414-0.898-1.229-1.604-2.572-1.38c-0.508,0.413-0.838,1.038-0.75,1.879
	c-0.654,0.454-1.162,1.054-2.129,1.192c-0.16,0.345-0.686,0.621-0.691,1.129c-0.006,0.313,0.09,0.384,0.254,0.688
	c0.041,0.938-0.4,1.75-0.566,2.383c-0.164,0.617-0.088,1.145-0.441,1.439c-0.898,0.343-1.688-0.082-2.566-0.123
	c-0.318-0.54-1.109-0.605-1.068-1.504c0.826-0.352,1.232-0.969,0.441-1.505c-1.119-0.761-2.289,0.87-3.822,0.378
	c-0.111-0.635-0.678-0.992-0.631-1.632c0.035-0.469,0.762-1.188,1.133-1.315c0.99-0.34,2.123,0.623,3.133,0.313
	c0.465-0.274,0.365-0.867,0.188-1.377c0.385-0.75,1.73-0.711,1.375-2.006c0.131-0.239,0.396-0.393,0.631-0.626
	c0.096-0.101,0.131-0.247,0.248-0.378c0.102-0.105,0.283-0.139,0.379-0.25c0.17-0.207,0.234-0.461,0.436-0.625
	c0.348-0.287,0.66-0.057,1.258-0.189c0.158-0.035,0.578-0.289,0.813-0.439c1.275-0.816-0.088-1.324-0.625-1.943
	c-0.123-0.139-0.26-0.426-0.377-0.626c-0.395-0.646-0.75-1.378-1.127-1.944c0.123-0.688-0.543-1.105-0.566-1.628
	c-0.018-0.422,0.342-0.767,0.313-1.191c-0.018-0.251-0.201-0.67-0.313-0.876c-0.236-0.428-0.744-0.646-1.068-1.064
	c-0.193-0.258-0.418-0.682-0.561-1.004c-0.17-0.375-0.1-0.799-0.188-1.191c-0.066-0.289-0.242-0.572-0.254-1.003
	c-0.455-0.212-0.525-0.776-0.814-1.127c-0.348-0.431-0.838-0.64-1.375-0.879c-0.047-0.331-0.307-0.442-0.377-0.753
	c-0.625-0.4-0.938-1.111-1.381-1.689c-0.23-1.693-0.689-3.156-1.629-4.139c0.131-0.354-0.059-0.746,0-1.189
	c0.066-0.504,0.525-1.002,0.625-1.566c0.096-0.504-0.076-1.111,0.066-1.565c0.111-0.368,0.436-0.543,0.625-0.817
	c0.018-0.799,0.441-1.183,0.502-1.941c0.152-0.139,0.217-0.365,0.377-0.501c-0.213-1.065,0.713-1.737,0.814-2.569
	c0.047-0.387-0.178-0.764-0.125-1.13c0.078-0.602,0.738-1.059,0.502-1.817c-16.596-0.085-33.65,0.086-50.016,0.063
	c-3.994-0.006-8-0.063-12.344-0.063c-0.377,0-0.789,0.107-1.125-0.123c0.252-0.664,1.273-1.074,1.25-1.883
	c-0.006-0.285-0.236-0.43-0.313-0.752c-0.248-0.146-0.596-0.197-0.879-0.313c-0.367-0.965-1.264-2.431-0.691-3.448
	c0.131-0.224,0.301-0.307,0.379-0.563c0.211-0.714-0.248-1.057-0.566-1.629c-0.107-0.386-0.826-0.828-0.313-1.253
	c0.861-0.038,1.793,0.944,2.818,0.374c0.709-0.663,1.24-2.524,0.502-3.507c-0.348-0.425-1.031-0.517-1.375-0.94
	c0.072-0.408,0.225-0.738,0.502-0.941c0.926-0.009,1.393,0.442,2.443,0.313c0.336-0.327,0.672-0.466,0.689-1
	c0.029-0.914-1.021-1.227-1.439-1.693c-0.59-0.652,0.006-1.33,0-2.445c0.525-1.285,2.324-1.307,3.068-2.381
	c0.123-0.663,0.117-1.188-0.189-1.566c-0.26-0.32-0.695-0.256-0.879-0.627c0.613,0,0.967-0.187,1.381-0.502
	c0.094-0.617,0.49-1.041,0.502-1.69c0.018-0.911-0.826-1.927-0.066-2.696c1.199-0.145,2.826,0.334,3.641-0.375
	c0.16-0.838-0.082-1.516-0.756-1.631c-0.666-0.111-1.633,0.398-2.129-0.186c0.146-0.328,0.461-0.534,0.689-0.941
	c0.326-0.58,0.402-1.315,1.127-1.381c0.59-0.049,1.305,0.605,2.006,0.566c0.443-0.025,0.697-0.307,1.127-0.627
	c0.119-0.892-0.465-1.08-0.689-1.629c0.471-0.867,1.563-1.221,2.195-1.817c0.205-0.197,0.252-0.39,0.377-0.565
	c0.041-0.057,0.146-0.045,0.188-0.125c0.23-0.498,0.225-1.053,0.379-1.755c0.543-0.401,1.822-0.761,1.875-1.505
	c0.061-0.819-1.121-0.958-1.191-1.879c0.566-0.273,1.133,0.127,1.629-0.127c0.424-0.215,0.377-0.725,0.82-0.94
	c0.164-0.702,0.141-1.241,0.436-1.752c0.26-0.452,0.963-0.803,0.625-1.569c-0.365-0.168-0.707-0.416-1.061-0.375
	c-0.184,0.021-0.271,0.154-0.502,0.313c-0.148,0.104-0.484,0.228-0.566,0.316c-0.166,0.171-0.148,0.46-0.377,0.625
	c-0.35,0.25-0.691,0.118-1.063,0.189c-0.426,0.076-0.814,0.318-1.316,0.186c-0.318-0.324-0.5-0.652-0.377-1.127
	c0.111-0.439,0.814-1.139,1.191-1.191c0.572-0.077,1.057,0.507,1.564,0.501c0.354-0.003,0.66-0.401,1.066-0.626
	c0.75-0.412,1.404-0.451,2.508-0.377c0.26-0.274,0.709-0.295,0.938-0.625c0.479-0.679,0.236-1.832,0.066-2.632
	c0.295-0.437,0.771-0.69,1.439-0.752c0.412-0.384,0.979-0.873,0.689-1.755c-0.619-0.354-1.918-0.012-2.885-0.313
	c-0.377-0.121-1.074-0.641-1.127-0.941c-0.088-0.537,0.607-0.953,0.814-1.504c0.318-0.832-0.029-1.566-0.625-1.883
	c-0.686-0.359-1.398-0.123-2.26-0.248c-0.648-0.097-1.393-0.428-1.564-0.752c-0.199-0.393-0.146-0.961,0.248-1.067
	c0.207-0.05,0.879,0.241,1.191,0.439c0.301,0.188,0.391,0.425,0.691,0.501c0.248,0.065,0.453-0.032,0.814,0
	c0.266-0.375,0.525-0.543,0.5-1.002c-0.023-0.517-0.572-0.771-0.689-1.192c-0.418-0.118-0.768-0.318-1.191-0.437
	c-0.178-0.189-0.531,0.168-0.561-0.189c-0.07-0.262,0.266-0.235,0.377-0.313c0.426-0.295,0.744-0.705,1.186-0.94
	c0.484-0.844,0.686-2.584-0.436-2.693c-0.396-0.041-0.354,0.224-0.814,0.186c-0.365,0.623-1.127,0.867-2.129,0.69
	c-0.119-0.222-0.154-0.514-0.254-0.752c0.424-0.667,0.838-1.337,1.633-1.629c0.066-0.365,0.449-0.533,0.502-0.94
	c0.047-0.422-0.207-0.912-0.318-1.315c-0.838-0.21-1.244,0.177-2.006,0.313c-0.295-0.222-0.701-0.34-0.873-0.69
	c-0.076-3.104,2.271-3.784,2.756-6.327c-0.178-0.28-0.137-0.596-0.248-0.879c-0.195-0.479-0.596-0.826-0.814-1.254
	c-0.873-0.375-1.559,0.15-1.693,0.879c0.324,0.266,0.23,1.168-0.129,1.315c-0.732,0.18-1.512,0.018-1.564-0.628
	c-0.018-0.245,0.082-0.416,0.189-0.688c-0.342-0.375-0.018-0.826-0.313-1.067c0.17-0.349,0.365-0.676,0.371-1.189
	c-31.688-0.147-63.65-0.021-95.443-0.064c0,14.062,0,28.12,0,42.179c0.625,0.438,1.109,1.021,1.314,1.879
	c0.426,0.49,0.91,0.934,1.629,1.131c0.213,0.206,0.301,0.533,0.561,0.688c0.117,0.139,0.496,0.012,0.631,0.127
	c-0.059,0.602,0.514,0.717,0.691,1.126c0.135,0.325,0.105,0.661,0.123,1.192c0.313,0.348,0.654,0.879,0.938,1.191
	c0.408,0.448,0.455,1.191,0.566,1.816c0.42,0.75,0.645,1.697,1.004,2.508c-0.113,0.184-0.148,0.437-0.131,0.752
	c-0.111,0.174-0.518,0.064-0.5,0.375c-0.061,0.67,0.199,1.012,0.129,1.693c-0.184,0.404-0.695,0.658-0.689,1.127
	c0.006,0.206,0.246,0.441,0.377,0.689c0.07,0.143,0.047,0.349,0.123,0.502c0.029,0.064,0.195,0.098,0.248,0.188
	c0.09,0.139,0.064,0.216,0.131,0.313c0.488,0.799,1.238,1.447,1.939,1.689c0.639-0.053,0.939,0.233,1.252,0.502
	c-0.467,0.389-0.986,0.996-0.75,1.882c0.455,0.419,1.305,0.451,1.439,1.191c-0.447,1.032,0.537,1.437,0.814,2.13
	c0.354,0.209,0.643,0.342,0.631,0.69c-0.018,0.313-0.678,0.764-0.754,1.003c0.029,0.729-0.295,1.127-0.125,1.628
	c0.242,0.708,1.439,0.953,1.883,1.693c0.188,0.325,0.193,0.638,0.313,1.127c0.219,0.327,0.537,0.295,0.625,0.69
	c0.076,0.371-0.26,0.85-0.123,1.377c0.254,0.357,0.406,0.655,0.813,0.752c0.426,0.104,0.768-0.221,1.316-0.188
	c-0.023,0.822-0.277,1.262-0.123,2.132c-0.125,0.422-0.502,0.661-0.502,1.065c-0.006,0.631,0.654,0.826,1.063,1.191
	c-0.143,0.551,0.094,0.902,0.377,1.188c-0.213,0.731-1.305,0.575-1.816,1.003c-0.006,0.69-0.043,1.207,0,1.756
	c0.447,0.362,1.238,0.389,1.125,1.314c-0.307,0.175-0.654,0.308-0.879,0.564c-0.035,0.291,0.143,0.362,0.131,0.628
	c-0.715,0.693-0.455,2.434,0,3.198c-0.537,0.51-1.098,0.994-1.133,2.002c-0.178,0.342-0.549,0.445-0.75,0.817
	c-0.389,0.714-0.105,1.812-0.566,2.505c-0.324,0.073-0.459,0.336-0.814,0.377c-0.365,0.696-1.221,1.322-1.125,2.318
	c0.035,0.381,0.371,0.582,0.313,1.064c-0.607,0.078-1.039,0.024-1.381,0.44c-0.26,0.321-0.756,1.581-0.686,2.067
	c0.066,0.457,0.615,0.885,0.75,1.504c0.07,0.316,0,0.674,0.064,1.004c0.023,0.123,0.154,0.254,0.184,0.375
	c0.146,0.578,0.059,1.029,0.064,1.568c-0.596,0.582-1.498,0.854-1.752,1.566c-0.076,0.209-0.105,0.679-0.129,1.004
	c-0.09,1.297,0.082,2.268,0.689,2.819c0.141,0.124,0.348,0.127,0.502,0.251c0.105,0.082,0.26,0.268,0.377,0.375
	c0.354,0.313,0.383,0.412,0.625,0.752c0.172,0.242,0.219,0.314,0.313,0.563c0.09,0.233,0.336,0.499,0.379,0.691
	c0.283,1.386-0.738,2.012-0.691,2.943c0.018,0.327,0.295,0.393,0.254,0.816c-0.135,0.216-0.578,0.42-0.814,0.753
	c-0.277,0.38-0.342,1.044-0.566,1.439c-0.193,0.343-0.76,0.599-0.748,0.94c0.006,0.378,0.494,0.439,0.5,0.752
	c-0.176,0.163-0.4,0.275-0.631,0.375c-0.029,0.407-0.4,0.479-0.625,0.69c0.07,0.543-0.779,0.649-1.127,0.94
	c-0.342,0.287-0.625,0.909-0.689,1.443c-0.029,0.238,0.064,0.531,0,0.814c-0.096,0.416-0.566,0.917-0.879,1.314
	c-0.344,0.439-0.68,0.909-1.004,1.254c-0.307,0.33-0.736,0.732-1.127,1.127c-0.695,0.708-1.139,1.233-0.814,2.318
	c0.379,0.39,0.656,1.322,1.068,1.693c0.324,0.299,0.666,0.578,0.873,0.941c0.131,0.221,0.172,0.604,0.313,0.876
	c0.059,0.112,0.23,0.247,0.318,0.378c0.154,0.236,0.131,0.324,0.313,0.374c0.438,0.121,0.844-0.304,1.188-0.563
	c0.377-0.279,0.736-0.495,1.002-0.752c0.484-0.171,0.914-0.475,1.445-0.563c0.318-0.056,0.66-0.009,1.004-0.065
	c0.637-0.1,1.279-0.344,1.939-0.436c1.529-0.219,2.998-0.154,4.449-0.251c0.436-0.03,0.885-0.159,1.316-0.188
	c1.691-0.121,2.99,0.342,4.453,0.25c0.225-0.067,0.318-0.266,0.561-0.313c0.938,0.189,1.688-0.318,2.572-0.377
	c0.502-0.033,1.215,0.064,1.816,0.127c0.455,0.047,0.992,0.097,1.381,0.186c0.277,0.067,0.525,0.271,0.814,0.315
	c0.695,0.103,1.451,0.041,2.064,0.251c0.119,0.038,0.289,0.174,0.443,0.25c0.525,0.257,0.791,0.475,1.186,0.752
	c0.984,0.246,1.498,0.971,2.572,1.127c0.619,0.52,1.428,0.703,2.129,1.131c0.68,0.412,1.416,0.754,2.006,1.25
	c1.795,0.799,3.83,1.357,5.451,2.318c0.467,0.029,0.885,0.357,1.381,0.502c0.359,0.109,0.791,0.098,1.191,0.188
	c0.662,0.156,1.252,0.555,1.752,0.628c0.691,0.098,1.434-0.091,1.883-0.127c1.068-0.082,1.883,0.195,2.885,0.252
	c0.908,0.053,1.582,0.279,2.254,0.377c0.619,0.088,1.328,0.227,1.816,0.313c0.461,0.082,1.039,0.118,1.506,0.124
	c1.25,0.018,1.504-0.599,2.318-1.188c0.459-0.334,1.139-0.679,1.816-0.752c1.221-0.133,2.49,0.121,3.635-0.065
	c0.111,0.79,0.625,1.177,1.504,1.192c0.389,0.174,0.666,0.627,1.068,0.813c0.336,0.159,0.795,0.095,1.127,0.251
	c0.035,0.018,0.111,0.127,0.188,0.188c0.277,0.224,0.537,0.26,0.879,0.439c0.414,0.222,0.607,0.537,1.127,0.563
	c0.266,0.316,0.484,0.688,0.814,0.941c1.063,0.133,2.873-0.143,3.133-0.752c0.166-0.381-0.064-0.711-0.064-1.254
	c0.207-0.346,0.596-0.172,0.879-0.313c0.146-0.074,0.254-0.264,0.441-0.439c0.379-0.36,0.721-0.59,0.939-1.004
	c0.088,0.186,0.07,0.727,0.377,0.502c0.225-0.023,0.123-0.39,0.123-0.502c-0.012-1.023-0.584-1.596-1.002-2.067
	c-0.395-0.101-0.703-0.319-1.068-0.501c-0.324-0.168-0.66-0.422-1.002-0.564c-0.207-0.088-0.473-0.053-0.691-0.127
	c-0.141-0.047-0.277-0.186-0.436-0.25c-0.172-0.068-0.408-0.059-0.561-0.124c-0.625-0.263-1.156-0.743-1.818-0.879
	c-0.24-0.354-0.818-0.679-0.689-1.188c0.225,0.067,0.42,0.342,0.689,0.374c0.236,0.03,0.721-0.079,1.063-0.251
	c0.301-0.15,0.514-0.495,0.814-0.689c0.289-0.184,0.701-0.381,1.068-0.502c0.242-0.076,0.5-0.035,0.748-0.123
	c0.219-0.078,0.373-0.281,0.627-0.313c0.441-0.056,0.807,0.163,1.191,0.187c0.926,0.062,1.787-0.391,2.695-0.125
	c-0.348,0.572,0.006,1.357-0.123,2.068c-0.061,0.315-0.379,0.635-0.313,1.064c-0.35,0.305-0.91,0.387-1.068,0.879
	c0.484,1.095,2.447,0.584,3.51,0.375c0.479,0.594,0.514,1.602,0.691,2.195c0.117,0.406,0.348,0.742,0.313,1.002
	c-0.119,0.782-1.217,0.479-1.381,1.316c0.318,0.428,0.742,0.289,1.314,0.188c1.133-0.2,2.408-0.964,3.264-0.813
	c0.441,0.073,0.684,0.374,0.814,0.875c0.518,0.475,1.332,0.299,2.252,0.313c0.184,0.57,0.543,0.965,1.381,0.879
	c0.283,0.178,0.391,0.467,0.75,0.499c0.455,0.042,0.561-0.257,0.943-0.374c0.035,1.194,0.668,1.796,1.504,2.194
	c-0.105,0.622,0.031,0.952-0.064,1.439c-1.18-0.153-2.088,0.964-1.881,2.133c-0.402,0.327-0.691,0.802-1.252,0.752
	c-0.494-0.047-0.494-0.558-1.002-0.628c-0.107,0.393,0.342,0.734,0.254,1.315c0.283,0.403,0.596,0.782,0.814,1.253
	c0.873,0.744,1.609,1.732,2.818,2.068c1.162,0.324,2.408,0.475,3.883,0.439c0.461,0.248,0.643,0.779,1.068,1.064
	c1.104-0.186,1.752,0.357,2.631,0.189c0.201,0.07,0.006,0.533,0.313,0.502c0.324,0.035,0.996-0.023,1.504,0
	c0.26-0.119,0.313-0.443,0.625-0.502c0.891,1.428,2.23,2.412,3.199,3.761c0.283-0.029,0.541,0.266,0.879,0.313
	c0.482,0.067,1.227-0.125,2.006-0.127c1.121,0,2.094,0.158,2.506-0.375c0.043-0.207,0.496,0,0.502-0.251
	c0.131-0.156-0.129-0.265-0.189-0.501c-0.053-0.195,0.02-0.432-0.064-0.629c0.172-0.206,0.59-0.159,0.879-0.248
	c0.318-0.035,0.236-0.475,0.691-0.377c0.076,0.566,0.318,0.654,0.748,0.625c0.318-0.324,0.113-0.832,0.189-1.315
	c0.041-0.245,0.219-0.499,0.254-0.752c0.094-0.761-0.189-1.549,0.248-2.13c0.158,0.496,0.631,0.422,1.256,0.563
	c0.75,0.174,1.469,0.661,1.877,0.69c0.342,0.023,0.518-0.34,0.689-0.564c0.414-0.539,0.508-1.103,0-1.631
	c-0.549-0.23-1.068,0.101-1.504,0c-0.479-0.105-0.703-0.66-1.063-0.875c0.172-0.219-0.041-0.473,0-0.753
	c0.301,0.032,0.383,0.283,0.75,0.251c0.342-0.239,0.736-0.305,1.127-0.063c0.271-0.044,0.26-0.369,0.625-0.315
	c0.49,0.327,1.098,0.537,1.445,1.003c0.023,0.587-0.762,1.006-0.756,1.631c0.012,0.646,0.584,1.119,1.506,0.941
	c0.383,0.377,0.813,0.924,1.504,0.814c0.336-0.057,0.459-0.384,0.814-0.439c0.359,0.516,0.447,1.59,0,2.067
	c-1.328,0.216-3.051,0.563-2.82,1.944c-0.396-0.095-1.275-0.322-1.316,0.313c0.354,0.484,1.016,0.66,1.068,1.442
	c0.561,0.073,1.18,0.519,1.881,0.626c1.01,0.152,1.977-0.137,2.633-0.252c0.324-0.056,0.832,0.042,0.938-0.313
	c-0.148-0.688-0.938-0.73-1.381-1.129c-0.578-0.154-1.174,0.209-1.693,0.188c-0.4-0.015-1.162-0.233-1.186-0.626
	c0.537,0.109,0.826-0.439,1.25-0.566c0.373-0.105,0.791,0.041,1.193,0c0.613-0.059,0.984-0.324,1.379-0.625
	c0.355-1.015-0.383-1.858-0.252-2.693c0.041-0.271,0.229-0.398,0.313-0.689c-0.23-0.357-0.266-0.903-0.502-1.254
	c-0.549-0.174-0.762,0.092-1.063,0.313c-0.076-0.363-0.377-0.504-0.502-0.814c0.283-0.171,0.301-0.616,0.373-1.002
	c0.313-0.086,0.406-0.393,0.754-0.44c0.355,0.067,0.549,0.286,0.939,0.313c-0.006,0.218,0.217,0.273,0.313,0.439
	c0.277,0.469,0.313,1.121,0.566,1.631c-0.254,0.23-0.508,0.448-0.566,0.814c-0.113,0.711,0.418,1.374,0.879,1.628
	c0.1,0.153,0.531-0.026,0.566,0.188c0.135,0.124-0.125,0.455,0.059,0.625c0.047,0.207,0.49,0.016,0.441,0.316
	c0.084,0.271-0.041,0.381-0.064,0.688c0.084,0.262,0.301,0.324,0.379,0.628c0.07,0.286-0.16,0.646,0.059,0.876
	c1.309,0.434,1.77-0.08,2.508-0.563c0.666-0.434,1.084-0.758,1.568-1.253c0.219-0.225,0.473-0.422,0.566-0.564
	c0.189-0.297,0.189-0.654,0.438-0.879c0.43-0.389,1.125-0.369,1.439-0.876c0.111-0.349,0.129-0.794,0.377-1.003
	c0.23,0.08,0.365,0.263,0.689,0.251c0.473-0.366,0.832-0.841,1.191-1.315c0.508-0.257,0.82-0.729,1.252-1.064
	c0.248-0.195,0.531-0.331,0.754-0.566c0.189-0.131-0.152-0.428,0.061-0.564c1.215,0.301,1.586-0.596,2.318-0.938
	c0.754-0.352,1.451-0.082,2.447-0.377c0.131,0.091,0.254,0.324,0.496,0.377c0.143,0.026,0.336-0.124,0.566-0.127
	c0.313-0.003,0.52,0.159,0.689,0.127c0.402-0.082,0.502-0.605,0.879-0.566c0.402,0.61,1.311,0.658,1.877,0.25
	c0.225,0.346,0.744,0.393,1.133,0.566c-0.047,0.204-0.1,0.398-0.129,0.626c0.348,0.61,0.92,0.644,1.633,0.876
	c0.254,0.086,0.514,0.304,0.75,0.377c0.146,0.048,0.342-0.035,0.502,0c0.141,0.03,0.406,0.187,0.566,0.252
	c0.578,0.247,1.203,0.53,1.875,0.563c0.271,0.041,0.201-0.262,0.443-0.25c0.477,0.375,0.885,0.826,0.814,1.755
	c0.188,0.12,0.371,0.253,0.377,0.563c0.754,0.31,1.098,1.032,2.064,1.129c0.117,0.154,0.195,0.346,0.313,0.502
	c0.508,0.203,0.873,0.549,1.316,0.814c-0.166,0.34-0.047,0.791-0.125,1.315c-0.271,0.626-0.549,1.248-0.814,1.88
	c-0.324,0.138-0.506,0.465-0.748,0.689c-0.26,0.236-0.66,0.359-0.756,0.752c0.98,0,1.965,0,2.943,0
	c0.344-0.994,0.703-1.977,1.57-2.441c0.184-0.779,0.496-1.426,1.002-1.883c0.236,0.18,0.189,0.365,0.379,0.563
	c0.213,0.235,0.561,0.233,0.625,0.628c0.07,0.455-0.449,1.051-0.377,1.566c0.029,0.195,0.193,0.334,0.313,0.564
	c0.277,0.079,0.602,0.079,0.879,0c0.295-0.019,0.225-0.402,0.566-0.375c0.377,0.2,0.561,0.602,1.061,0.688
	c0.248-0.086,0.309-0.36,0.627-0.375c-0.066-1.561-0.867-2.393-1.191-3.699c-0.396-0.248-0.598-0.696-0.814-1.127
	c1.121-0.346,1.309,0.781,2.193,0.877c0.113,0.451,0.531,0.602,0.814,0.879c-0.059,0.412,0.07,0.643,0.189,0.875
	c1.145,0.057,1.314-0.855,2.006-1.253c-0.006-1.325,1.314-1.835,0.814-3.257C302.924,243.876,303.041,243.009,302.805,242.51z"/>
<path fill-rule="evenodd" clip-rule="evenodd" d="M244.705,248.15c-0.223,0.195-0.377,0.336-0.566,0.564
	c-0.152,0.188-0.176,0.359-0.371,0.439c-0.277,0.114-0.82,0.008-1.256,0.062c-1.109,0.138-1.889,0.565-3.01,0.439
	c-0.383-0.044-0.625-0.257-0.938-0.188c-0.254,0.056-0.461,0.4-0.689,0.439c-0.32,0.053-0.621-0.133-0.939-0.189
	c-0.867-0.146-1.84-0.277-2.506-0.123c0.023,0.852,1.049,0.705,1.627,1.002c0.484,0.39,1.416,0.59,2.318,0.688
	c1.021,0.112,2.107-0.006,2.82-0.123c0.301-0.051,0.607-0.012,0.879-0.063c0.213-0.041,0.414-0.189,0.625-0.251
	c0.125-0.038,0.318,0.042,0.438,0c0.129-0.044,0.152-0.165,0.254-0.188c0.596-0.145,0.619-0.127,1.127-0.377
	c0.289-0.143,0.625-0.258,0.754-0.375c0.313-0.295,0.338-0.773,0.313-1.254C245.379,248.398,245.166,248.15,244.705,248.15z"/>
</svg>
