<svg version="1.1" id="Calque_1" xmlns="http://www.w3.org/2000/svg" xmlns:xlink="http://www.w3.org/1999/xlink" x="0px" y="0px"
	 width="432px" height="332px" viewBox="0 0 432 332" enable-background="new 0 0 432 332" xml:space="preserve" fill="#FFF">
<path fill-rule="evenodd" clip-rule="evenodd" d="M104.712,170.897c11.646,0.513,23.504,0.737,35.097,1.324c0,0.927,0,1.85,0,2.772
	c0.938-0.014,2.071-0.368,3.092-0.504c0.537-0.847,0.879-1.896,1.451-2.708c3.31,0.048,6.383,0.331,9.327,0.755
	c0.26,0.074,0.289,0.299,0.625,0.378c0.413,0.097,1.021-0.071,1.51,0c0.295-0.021,0.277-0.356,0.572-0.378
	c1.227-0.395,2.236-0.381,3.717-0.315c1.233,0.054,2.602-0.095,3.781,0c4.248,0.349,9.009,0.115,13.552,0.315
	c4.442,0.198,8.837,0.068,13.038,0.251c0.979,0.044,1.941-0.044,2.896,0c5.682,0.266,11.227,0.101,16.761,0.378
	c0.036,0.307-0.064,0.74,0.065,0.947c9.64-0.271,19.457-0.346,28.926-0.632c0.042,3.218-0.088,7.142,0.065,10.463
	c0.873-0.26,1.676-0.593,2.519-0.885c0.065,0.162-0.277,0.222-0.065,0.315c0.136-0.118,0.561-0.274,0.631-0.254
	c-0.029,0.661,0.236,1.346,0.248,2.083c0.018,0.891-0.271,1.819-0.189,2.835c0.101,1.115-0.136,2.767,0.065,3.778
	c0.112,0.572,0.667,1.047,0.944,1.517c0.655,0.291,1.18,0.711,1.64,1.194c0.744,0.183,1.204,0.644,1.894,0.882
	c0.82,0.654,1.858,2.165,2.896,2.965c0.083,0.062,0.26,0.047,0.377,0.123c0.425,0.271,0.614,0.791,1.009,0.883
	c0.236,0.056,0.932-0.016,1.257-0.063c0.661-0.092,1.262-0.87,1.705-1.135c0.253,0.176,0.554-0.048,0.885,0
	c-0.136,0.182,0.006,0.501,0.059,0.692c-0.726,1.124-1.723,1.974-2.331,3.216c0.242,0.557,1.18,0.416,1.575,0.816
	c0.92-0.129,1.723,0.696,1.829,1.198c0.047,0.257,0.006,0.864-0.065,1.136c-0.083,0.339-0.431,0.574-0.566,0.82
	c0.236,0.441,0.271,0.943,0.377,1.447c0.094,0.481,0.271,0.947,0.377,1.449c0.147,0.664,0.112,1.362,0.189,2.079
	c0.207,1.853,0.46,4.065,0.696,5.796c0.702,0.074,1.026-0.232,1.51-0.377c0.065-0.274,0.218-0.711,0.254-0.943
	c-0.295-0.553-0.744-1.195-1.009-1.765c-0.13-0.283-0.413-0.59,0-0.819c0.961,0.332,1.834,2.117,3.144,1.073
	c0.271-1.042-0.619-1.685-0.69-2.46c-0.083-1.012,0.171-1.746,0.253-2.522c0.036-0.304-0.147-0.638,0.124-0.882
	c0.513,0.502,0.118,1.094,0.065,1.578c-0.124,1.147,0.23,1.688,0.566,2.33c0.094,0.178,0.136,0.434,0.253,0.629
	c0.136,0.227,0.307,0.273,0.377,0.504c0.06,0.191-0.023,0.39,0,0.569c0.06,0.407,0.266,0.729,0.313,1.133
	c-0.395,0.337-0.944,0.413-1.51,0.442c-0.283,0.227-0.896,0.434-0.885,0.756c0.902,0.047,1.569,0.326,2.142,0.692
	c0.318,0.528,0.442,1.245,0.696,1.829c0.166-0.064,0.383-0.076,0.631-0.064c-0.018-0.732,0.36-1.316,0-1.953
	c0.484-0.07,0.737-0.6,1.263-0.756c0.596-0.182,1.304,0.016,2.012-0.188c0.46-0.859-0.095-1.449-0.059-2.523
	c0.395-0.018,0.737,0.019,1.009,0.125c-0.018,0.206,0.106,0.268,0.059,0.507c0.513,0.351,0.59,1.136,1.074,1.513
	c0.383-0.265,0.177-1.123,0.377-1.578c0.324-0.135,0.472-0.453,1.003-0.377c0.065-0.257,0.118-0.52,0.254-0.693
	c-0.336-0.631-0.755-1.183-1.198-1.764c-0.396-0.528-1.103-1.07-0.944-1.956c0.772-0.133,1.186,0.62,1.829,0.442
	c0.325-0.619,0.166-1.726,0.755-2.079c0.478,0.2,0.525,0.819,0.761,1.259c0.242,0.033,0.549,0.042,0.82,0.189
	c-0.189-1.613-1.328-2.289-1.894-3.528c0.082-0.126,0.307-0.112,0.248-0.378c-0.077-0.15-0.224-0.229-0.189-0.504
	c0.112-0.333,0.295-0.593,0.254-1.07c0.36-0.178,0.489-0.889,0.885-0.817c-0.077,1.292,0.625,1.813,0.566,3.089
	c0.366,0.158,0.631,0.418,1.074,0.501c0.1,0.507,0.649,0.569,0.879,0.946c0.059,0.458,0.354,0.977,0.566,1.511
	c0.283,0.711,0.46,1.464,1.198,1.513c0.153-1.268-0.289-2.203-0.313-3.088c-0.348-0.18-0.696-0.352-1.074-0.504
	c0.277-0.295,0.372-0.588,0.755-0.629c0.543-0.062,1.085,0.649,1.764,0.505c0.46-0.098,0.324-0.514,0.944-0.632
	c0.271,0.588,1.068,0.313,1.386-0.062c-0.454-0.676-1.262-1.006-1.634-1.767c0.873-0.709,1.616,0.51,2.837,0.254
	c0.413,0.152,0.354,0.891,1.009,0.628c0.377-0.632,0.578-1.435,0.501-2.52c0.319-0.318,0.614-0.613,0.631-1.071
	c0.012-0.326-0.407-0.736-0.377-1.073c0.018-0.235,0.236-0.333,0.377-0.566c0.295,0.333,0.802,0.454,0.69,1.198
	c0.177,0.123,0.324,0.268,0.442,0.441c0.419,0,0.843,0,1.256,0c-0.165-0.2,0.136-0.501-0.059-0.692
	c-0.16-0.133-0.23-0.356-0.189-0.693c1.026-0.298,0.177-1.023-0.442-1.133c-0.207-0.407-0.543-0.673-0.69-1.136
	c0.331,0.266,0.714,0.006,1.133,0c-0.006-0.321,0.1-0.531,0.248-0.693c0.23,0.101,0.472-0.053,0.82,0c0,0.23,0,0.463,0,0.693
	c0.472,0.387,1.174,0.566,1.829,0.254c0.443,0.357,0.732,0.864,1.263,1.133c-0.466,0.451-1.074,1.147-1.198,1.699
	c0.537,0.313,0.855-0.195,1.139-0.505c0.413-0.407,1.015-0.95,0.814-1.825c-0.083-0.369-0.502-0.484-0.313-0.88
	c0.1-0.221,0.183-0.145,0.501-0.253c0.525-0.184,1.032-0.236,1.322,0.188c-0.047,0.39-0.437,0.442-0.625,0.692
	c0.124,0.107,0.136,0.325,0.124,0.566c0.301,0.071,0.844,0.289,0.82,0.883c-0.159,0.434-0.861,0.318-1.074,0.693
	c-0.201-0.012-0.266,0.111-0.501,0.062c-0.23,0.445-0.82,0.524-0.944,1.073c0.613,0.531,1.345,0,1.823-0.314
	c0.236,0.445,0.92,0.533,0.696,1.259c-0.548,0.274-1.392,0.245-2.018,0.442c0.183,0.449,0.513,0.744,1.262,0.629
	c-0.018,0.227,0.112,0.304,0.124,0.504c-0.253,0.251-0.702,0.307-0.879,0.629c0.023,1.66-0.189,3.689-0.13,5.422
	c-0.207,0.445-0.826,0.628-1.003,1.197c-0.177,0.533-0.012,1.289-0.188,1.826c-0.083,0.241-0.295,0.268-0.319,0.504
	c-0.602,0.304-1.074,0.737-1.581,1.136c0.377,0.413,0.755,0.337,1.263,0.062c0.153,0.375,0.484,0.572,1.074,0.505
	c0.33-0.416,0.837-0.693,1.321-1.071c0.431-0.336,0.956-0.838,1.516-0.946c0.501-0.098,1.121,0.12,1.764-0.062
	c0.124-0.443,0.1-1.036,0.248-1.449c0.183,0.166,0.36-0.056,0.631,0c-0.041,0.48,0.189,0.936-0.065,1.26
	c0.879,0.018,1.546-0.177,2.401-0.188c0.218-0.894,0.832-1.387,1.198-2.142c0.136,0.139,0.206-0.053,0.437,0
	c0.112,0.864-0.195,1.313-0.189,2.076c0.855,0.057,1.516-0.076,2.142-0.25c0.92-1.012,2.242-2.004,3.026-3.216
	c0.431-0.657,0.602-1.222,0.501-2.266c0.708-0.327,1.328-0.737,1.959-1.136c0.277,0.219,0.772-0.159,1.067,0.065
	c0.006,0.628-0.023,1.283,0.065,1.825c0.59,0.21,1.056-0.266,1.575-0.693c0.319-0.265,0.685-0.778,1.068-0.881
	c0.667-0.184,1.817,0.012,2.584,0.062c0.225,0.015,0.455,0.124,0.69,0.065c0.218-0.054,0.342-0.307,0.631-0.443
	c0.383-0.183,0.885-0.056,1.327-0.188c0.507-0.156,0.785-0.823,1.198-0.885c0.673-0.098,1.18,0.366,1.386,0.696
	c-0.431,0.345-1.056,0.501-1.64,0.693c-0.047,0.501,0.112,1.206-0.124,1.51c0.708,0.195,0.767-0.375,1.068-0.755
	c0.956-1.194,2.69-1.331,3.905-2.269c0.714,0.018,1.363-0.283,2.083-0.377c0.868-0.115,1.776,0,2.649-0.127
	c0.325-0.048,0.696-0.216,1.068-0.316c0.377-0.1,0.814-0.15,1.133-0.25c0.307-0.095,0.519-0.331,0.82-0.378
	c0.809-0.133,1.623,0.106,2.396,0c0.177-0.024,0.348-0.156,0.507-0.188c0.991-0.21,1.988,0.023,3.085-0.065
	c0.442,0.165,0.602,0.614,1.133,0.693c0.189-0.345,0.501-0.657,0.885-0.817c0.166-0.07,0.496-0.162,0.566-0.064
	c-0.201,0.266-0.389,0.537-0.507,0.882c0.277,0.271,0.779,0.204,1.074,0c-0.042-0.575,0.478-0.938,0.566-1.448
	c0.147-0.844-0.389-1.517-0.318-2.334c-0.449-0.41-0.909-0.235-1.634-0.188c-0.39-0.286,0.059-0.796-0.189-1.067
	c-0.295-0.18-0.808,0.412-1.133,0c0.065-0.734,0.566-1.029,0.944-1.451c0.177-0.006,0.413,0.035,0.501-0.063
	c0.348-0.219,0.277-0.828,0.378-1.262c0.053-0.216,0.23-0.352,0.188-0.566c-0.065-0.404-0.649-0.402-0.437-0.818
	c0.348-0.336,0.667,0.189,0.944,0.313c0.301-0.104,0.413-0.387,0.755-0.439c0.201,0.681,0.614,1.513,0.69,2.457
	c0.053,0.534,0,1.183,0.064,1.765c0.059,0.48,0.236,0.908,0.189,1.32c-0.018,0.181-0.142,0.328-0.189,0.505
	c-0.124,0.478-0.129,1-0.188,1.451c-0.147,0.546-0.761,1.242-0.82,1.765c-0.006,0.108-0.1,0.475,0.124,0.566
	c0.419,0.152,0.673-0.438,0.885-0.817c0.212-0.378,0.501-0.817,0.566-1.26c0.059-0.345-0.053-0.772,0-1.139
	c0.047-0.277,0.189-0.457,0.195-0.693c0-0.315-0.065-0.569-0.195-0.817c0.507-0.519,0.13-1.398,0.065-2.33
	c-0.059-0.814-0.147-1.846-0.188-2.772c-0.053-1.15,0.153-1.953-0.319-2.396c-0.407-0.174-0.908-0.023-1.133,0.189
	c-0.106-0.467-0.307-0.52-0.82-0.505c-0.307,0.366-0.602,1.073-1.257,0.882c-0.088-0.797,0.938-1.434,1.068-2.015
	c0.071-0.298-0.112-0.696,0-1.009c0.13-0.354,0.631-0.699,1.009-0.504c0.254,0.186,0.183,0.699,0.189,1.135
	c0.1,0.277,0.313,0.445,0.254,0.879c0.218,0.06,0.389,0.156,0.631,0.189c0.225-0.708-0.206-1.637-0.065-2.076
	c-0.749-1.438-1.026-3.154-1.51-4.788c-0.46-1.546-1.103-3.091-1.764-4.54c-0.95-2.076-2.224-4.165-3.463-5.984
	c-0.442-0.649-0.855-1.414-1.327-1.826c-0.254-0.222-0.643-0.396-0.944-0.632c-0.861-0.685-1.947-1.599-3.027-1.891
	c-0.401-0.108-0.861-0.067-1.321-0.188c-0.377-0.104-0.755-0.366-1.133-0.443c-0.153-0.029-0.307,0.045-0.442,0
	c-0.236-0.07-0.442-0.283-0.69-0.313c-0.159-0.02-0.395,0.051-0.566,0.063c-2.171,0.133-4.826-0.445-5.233,1.194
	c0.124,0.048,0.166,0.171,0.189,0.315c0.201,0.172,0.372-0.091,0.631-0.062c-0.083,1.079,1.126,1.089,0.944,2.079
	c0.165,0.26,0.501,0.378,0.814,0.693c0.336,0.336,0.531,0.82,0.944,0.883c0.478,0.07,0.915-0.293,1.328-0.566
	c0.383-0.021,0.678-0.057,0.631-0.632c-0.26-0.186-0.46-0.012-0.755,0.127c-0.236,0.109-0.46,0.366-0.631,0.378
	c-0.336,0.021-0.578-0.065-0.631-0.378c-0.042-0.228,0.159-0.333,0.313-0.566c0.136-0.194,0.266-0.372,0.377-0.505
	c0.625-0.73,1.257-0.914,2.466-0.758c0.584,0.077,0.896,0.334,1.38,0.569c0.832,0.404,1.115,0.737,1.705,1.321
	c0.708,0.709,1.074,0.98,1.321,1.891c0.042,0.154-0.029,0.331,0,0.505c0.036,0.169,0.153,0.337,0.189,0.505
	c0.625,2.701,0.23,6.032,0.377,9.139c0.277,0.309,0.401,0.772,1.133,0.628c0.153-0.269-0.183-0.558-0.253-1.006
	c-0.089-0.604,0.071-1.401,0-2.083c0.259-0.584,0.726-0.959,1.705-0.816c0.514,0.501,0.59,1.422,1.387,1.51
	c0.425,0.051,0.749-0.383,1.133,0c-0.166,0.637-1.269,0.658-1.192,1.324c0.295,0.222,0.885,0.16,1.003,0.566
	c-0.401,1.823,0.224,3.67,0.065,5.673c-0.844,0.731-1.18,1.971-2.077,2.646c-0.295,0.004-0.384,0.207-0.696,0.189
	c-0.419,0.365-1.026,0.527-1.575,0.693c-0.584,0.174-1.174,0.333-1.764,0.504c-1.215,0.348-2.496,0.475-3.716,0.817
	c-0.885-0.026-1.693,0.321-2.525,0.505c-0.649,0.146-1.392,0.227-2.018,0.504c-0.643,0.286-1.221,0.936-1.823,1.451
	c-0.26,0.225-0.625,0.445-0.944,0.693c-0.366,0.277-0.69,0.622-1.009,0.693c-0.803,0.174-1.947,0.059-2.838,0
	c-0.525-0.039-1.062-0.145-1.575-0.189c0.047-0.254-0.059-0.362-0.065-0.568c1.18-0.024,2.932,0.05,4.1-0.313
	c-1.669-1.587-4.92-0.825-7.439-1.263c-3.026-0.524-5.416-2.146-8.129-2.834c-0.844-1.277-2.112-2.127-2.956-3.404
	c0.147-0.28,0-0.744-0.065-1.006c0.248-0.555,0.572-1.027,0.631-1.768c0.496-0.301,0.449-1.253,0.065-1.637
	c-0.065-0.59,0.106-1.006,0.059-1.448c-0.106-0.938-0.885-1.38-1.009-2.333c0.183-0.201,0.401-0.354,0.507-0.629
	c-0.377-0.003,0.006-0.418-0.188-0.631c-0.773-0.26-1.44-0.895-2.46-1.006c-0.731-0.083-1.54,0.088-2.395-0.064
	c-0.855-0.658-1.752-1.271-1.953-2.584c-0.318-0.207-0.442-0.608-1.009-0.566c0.023,0.764,0.985,1.383,0.378,2.014
	c-0.52-0.194-0.867-0.563-1.387-0.755c-0.607-1.366-1.97-1.979-2.772-3.15c0.23-0.637,0.979-1.044,1.634-0.569
	c0.136-0.412,0.448-0.643,0.507-1.133c0.342-0.145,0.555-0.437,0.696-0.693c0.254-0.466,0.584-0.717,0.885-1.07
	c-0.077-0.484-0.702-0.377-0.95-0.693c-0.118-0.15-0.029-0.31-0.188-0.504c0.242-0.204,0.631-0.216,1.009-0.127
	c0.702,1.191,1.463,2.318,2.271,3.404c-0.194,0.2-0.023,0.441,0,0.755c-0.372,0.348-1.38,0.831-0.82,1.513
	c0.649,0.045,0.873-0.67,1.445-0.82c0.413-0.103,0.879,0.077,1.263-0.25c-0.095-0.365-0.271-0.654-0.319-1.07
	c-0.991-0.564-1.457-1.313-2.077-2.331c-0.413-0.679-1.097-1.206-1.009-2.018c0.029-0.277,0.325-0.522,0.319-0.819
	c-0.012-0.502-0.49-1.349-0.82-1.768c-0.242-0.295-0.631-0.496-0.885-0.817c-0.248-0.324-0.419-0.764-0.631-1.132
	c-0.631-1.107-1.398-2.277-2.33-2.965c0.106,0.377,0.289,0.749,0.064,1.139c-0.619-0.08-0.572-0.817-0.885-1.201
	c-0.077-0.219-0.425-0.159-0.442-0.439c0.324,0.118,0.844,0.035,0.944-0.254c0.023-0.389-0.183-1.291,0.065-1.764
	c-0.159-0.652-1.109-0.965-0.631-1.702c-1.109-0.415-1.829-1.233-2.513-2.077c0-0.657-0.212-1.1-0.572-1.386
	c-0.607,0.339-0.791,1.097-1.445,1.386c-0.826-0.1-0.484-1.371-0.95-1.831c-1.145-0.165-2.307-0.879-3.463-1.133
	c0.006,0.003-0.094-0.048-0.13-0.062c-0.749-0.334-1.492-1.219-1.51-1.953c-0.183-0.171-0.418-0.292-0.501-0.566
	c0.195-0.136,0.106-0.46,0.065-0.696c-0.478,0.054-0.896-0.108-1.327-0.062c-0.189,0.023-0.543,0.105-0.69,0.188
	c-0.224,0.124-0.667,0.634-0.631,0.759c0.572,0.199,1.269,0.023,1.894,0.253c0.46,0.638,0.602,1.531,1.132,2.077
	c0.271,0.279,0.708,0.339,0.814,0.755c-0.466,0.619-1.186,1.392-2.201,1.073c0.201-0.315,0.083-0.717-0.065-1.012
	c-0.383-0.053-0.761,0.168-1.068,0.378c-0.259,0.18-0.684,0.431-0.826,0.634c-0.242,0.354-0.106,0.844-0.378,1.26
	c-0.165,0-0.33,0-0.507,0c0.006-0.514-0.26-1.003-0.06-1.51c-0.843,0.032-1.138,0.625-1.575,1.067
	c-0.059,0.254,0.207,0.505,0.065,0.632c-0.13,0.059-0.254,0.129-0.378,0.188c-0.23-0.254-0.407-0.566-0.507-0.944
	c0.189-0.486,0.643-0.705,0.82-1.2c-0.112-0.032-0.371,0.077-0.377-0.062c0.478-0.222,0.814-0.572,0.879-1.198
	c-1.098-0.18-1.145,0.702-2.266,0.505c-0.448-0.537-1.227-0.746-1.764-1.198c0.083-0.253,0.136-0.536,0.13-0.879
	c0.396-0.188,0.731-0.442,0.879-0.882c-0.885-0.295-1.345,0.032-2.396,0c-0.307,0.225-0.501,0.888-0.82,0.882
	c0.059-0.413-0.218-0.499-0.129-0.946c0.077-0.248,0.265-0.277,0.318-0.57c0.077-0.434-0.189-0.772-0.189-1.006
	c0.744-0.389,1.693-0.551,1.517-1.701c-0.566-0.189-1.363-0.154-1.835-0.439c0.088-0.502-0.083-1.242,0.26-1.578
	c0.678,0.412,1.634,0.551,2.142,1.135c0.454-0.006,1.233,0.054,1.51-0.313c-0.012-0.516-0.401-0.652-0.69-0.885
	c-0.029-0.527-0.578-0.844-0.507-1.26c0.472-0.177,0.62,0.121,0.755,0.439c0.171,0.271,0.46,0.428,0.631,0.693
	c0.543-0.082,0.767,0.159,1.009,0.378c0.112,0.646,0.437,1.076,1.132,1.136c0.065-0.271-0.147-0.756-0.065-1.26
	c-0.289-0.354-0.778-0.688-0.814-1.26c-0.023-0.242,0.159-0.451,0.124-0.693c-0.195-0.475-1.333-1.032-1.387-1.514
	c-0.053-0.489,0.466-0.551,0.501-1.135c0.744-0.575,1.209-1.434,2.083-1.889c0.501,0.145,0.648,0.652,0.566,1.384
	c0.519,0.638,1.062,1.254,2.271,1.198c-0.036-0.366,0.218-0.451,0.253-0.756c-0.242-0.165-0.324-0.478-0.507-0.693
	c-1.747,0.145-1.328-2.536-0.189-2.772c0.867,0.638,1.604,0.204,2.265-0.253c-0.035-0.658,0.631-1.328,1.387-1.195
	c0.041-0.359,0.377-0.422,0.566-0.631c0.271,0.135,0.772,0.032,1.139,0.064c0.23-0.336,0.472-0.666,0.501-1.197
	c-0.313,0.009-0.555-0.145-0.82,0c0.466-0.419-0.383-0.721-0.501-1.136c-0.295,0.15-0.561-0.056-0.944,0
	c-0.472,0.251-0.46,0.974-0.944,1.197c-0.065-0.103-0.271-0.067-0.384-0.124c-0.029-0.351-0.018-0.514,0.065-0.631
	c0.318-0.457-0.071-1.396,0.129-1.956c-0.584-0.428-1.923-0.095-2.271-0.755c0.088-0.076,0.118-0.215,0.129-0.377
	c0.814-0.213,1.446,0.262,1.888,0.314c0.82,0.101,1.764-0.235,2.643-0.377c0.891-0.147,1.41-0.225,2.077-0.442
	c0.542-0.175,1.044-0.422,1.516-0.501c0.649-0.119,1.557,0.018,2.083-0.192c0.372-0.15,0.584-0.61,1.009-0.693
	c0.519-0.097,1.103,0.085,1.634,0c0.519-0.083,0.879-0.396,1.386-0.442c0.142-0.023-0.012-0.346,0.189-0.313
	c0.313-0.33,1.015-0.693,1.51-1.324c0.348-0.439,0.525-1.074,1.139-1.006c0.313,0.032,0.466,0.254,0.507,0.501
	c0.059,0.439-0.26,0.566-0.377,0.946c0.171,0.283,0.171,0.422,0,0.756c0.448-0.045,0.542,0.053,0.879-0.251
	c0.33-0.882,1.445-0.991,1.445-2.206c0.525-0.631,1.091-1.225,1.705-1.764c0.224,0.02,0.348-0.071,0.501-0.127
	c0.454-0.525,0.519-1.077,0.124-1.638c-0.359-0.522-1.126-1-1.51-1.705c-0.354-0.655-0.289-1.165-0.82-1.572
	c-1.032,0.175-1.587,0.794-2.389,1.448c-0.561,0.455-1.316,0.956-1.269,1.514c0.065,0.631,0.956,0.616,1.015,1.387
	c-0.147,0.61-1.304,0.971-1.829,0.439c0.206-0.401,0.478-0.74,0.437-1.384c-0.277-0.188-0.82-0.425-1.192-0.315
	c-0.714-1.168-0.991,0.292-1.705,0.755c-0.383,0.248-0.625,0.124-0.944,0.378c-0.124-0.086-0.035-0.381-0.248-0.378
	c-0.301,0.204-0.661,0.351-1.073,0.439c0.053-0.536-0.49-0.48-0.631-0.817c0.165-0.501-0.047-1-0.059-1.513
	c0.69-1.331,2,0.858,2.956,0c-0.142-0.679-0.667-0.968-1.132-1.325c-1.05-0.073-2.112-0.964-3.21-0.377
	c-0.383-0.269-0.507-0.797-0.891-1.07c-0.313,0.315-0.802,0.362-1.133,0c0.218-0.381,0.354-0.896,0.13-1.387
	c0.277-0.522,0.366-1.224,0.437-2.079c0.466,0.324,0.997,0.896,0.82,1.637c0.295,0.318,0.495,0.729,0.637,1.2
	c0.566,0.213,0.661,1.197,1.446,0.817c0.153-0.602-0.507-1.106-0.313-1.764c-0.437-0.688-0.661-1.479-0.944-2.269
	c-0.437-1.197-0.938-2.345-0.761-4.095c-0.153-0.114-0.448-0.091-0.501-0.315c0.035-0.478-0.03-0.853-0.13-1.197
	c-0.909-0.118-0.655,0.935-1.009,1.386c-1.599,0.051-2.366-0.737-3.333-1.321c0.442-0.18,0.879-0.038,1.322-0.127
	c0.271-0.059,0.495-0.259,0.755-0.315c0.655-0.145,1.345-0.015,1.953-0.318c0.377-1.026-0.271-1.902-0.13-2.77
	c0.053-0.274,0.218-0.446,0.188-0.693c-0.018-0.239-0.253-0.434-0.313-0.632c-0.496,0.027-0.755,0.295-0.944,0.632
	c-0.366-0.251-0.985-0.029-1.387,0.064c-0.418-0.218-0.843-0.495-1.198-0.696c-0.165-0.094-0.377-0.1-0.501-0.188
	c-0.225-0.153-0.301-0.431-0.566-0.505c-0.431-0.117-1.245,0-1.829,0c-0.655,0-1.339-0.035-1.829,0.063
	c-0.59,0.124-1.268,0.475-1.888,0.696c-0.36,0.127-0.667,0.224-1.009,0.315c-0.395,0.098-0.802,0.098-1.133,0.188
	c-0.483,0.13-0.902,0.534-1.386,0.566c-0.891,1.213-2.466,1.731-2.838,3.466c-0.33,0.213-0.525,0.566-0.95,0.693
	c-1.847-0.354-4.065-1.539-5.982-0.504c-0.572,0.622-1.221,1.171-1.829,1.764c0.147,0.36-0.088,0.699-0.124,1.071
	c-0.094,1.023,0.236,2.145-0.188,3.026c-0.431-0.159-0.75,0.091-1.139,0.062c-0.62-0.047-1.198-0.534-2.077-0.315
	c-0.171-0.026,0.047,0.342-0.124,0.315c-1.38,0.93-2.431,2.194-3.593,3.339c-0.501-0.409-0.743,0.299-1.263,0.378
	c-0.194,0.029-0.442-0.053-0.631-0.062c-1.168-0.068-2.354-0.012-3.528-0.063c-12.289-0.561-24.666-0.593-37.049-1.136
	c-0.319-0.015-0.679,0.015-1.009,0c-13.015-0.593-26.07-0.622-39.132-1.197c-0.342-0.015-0.661,0.018-1.009,0
	c-10.967-0.499-22.011-0.525-32.955-1.009c-6.808-0.298-13.675-0.324-20.413-0.566c-5.516,18.453-11.126,36.811-16.637,55.264
	c0.407,0.915,0.779,1.865,1.132,2.836C96.925,170.473,100.795,170.727,104.712,170.897z"/>
<path fill-rule="evenodd" clip-rule="evenodd" d="M283.045,120.553c-0.147-0.51-0.431-0.875-0.885-1.073
	C282.113,120.176,282.313,120.624,283.045,120.553z"/>
<path fill-rule="evenodd" clip-rule="evenodd" d="M266.975,149.157c0.118,0.283,0.372,0.425,0.631,0.569
	c0.224-0.263,0.838-0.613,0.879-1.074c0.012-0.114,0-0.447-0.189-0.566C267.564,148.151,267.258,148.646,266.975,149.157z"/>
<path fill-rule="evenodd" clip-rule="evenodd" d="M270.06,149.791c-0.124,0.481-0.578,0.635-0.631,1.195
	c0.142,0.194,0.307,0.363,0.502,0.504c0.318-0.445,0.778-0.965,0.507-1.637C270.29,149.854,270.255,149.744,270.06,149.791z"/>
<path fill-rule="evenodd" clip-rule="evenodd" d="M338.242,194.906c-0.041,0-0.083,0-0.129,0c0.059,0.318-0.354,0.46-0.248,1.008
	c0.289-0.035,0.266,0.239,0.566,0.189C338.92,195.867,338.737,195.021,338.242,194.906z"/>
<path fill-rule="evenodd" clip-rule="evenodd" d="M337.487,198.437c0.177,0.077,0.318,0.183,0.566,0.188
	c0.012-0.238,0.242-0.268,0.248-0.504C338.088,197.74,337.328,197.655,337.487,198.437z"/>
<path fill-rule="evenodd" clip-rule="evenodd" d="M336.979,205.304c0.271-0.177,0.207-0.743,0.065-1.009
	c-0.69-0.1-0.561,0.613-0.885,0.882c0,0.213,0,0.422,0,0.632c-0.088,0.227-0.36,0.268-0.437,0.504
	c0.083,0.902-0.407,1.9-0.566,2.896c-0.147,0.889-0.253,1.641-0.696,2.271c-0.189,0.271-0.501,0.404-0.625,0.69
	c0.271,0.333,0.395,0.753,0.879,0.759c0.507,0.006,0.95-0.674,1.068-1.137c0.042-0.146-0.018-0.336,0-0.501
	c0.254-1.982,1.41-3.873,1.386-5.734C337.227,205.354,336.961,205.469,336.979,205.304z"/>
<path fill-rule="evenodd" clip-rule="evenodd" d="M306.614,207.699c0.23-0.448,0.188-0.646,0.124-1.197
	c-0.283,0.008-0.413-0.139-0.566-0.251C305.794,206.749,305.399,207.841,306.614,207.699z"/>
<path fill-rule="evenodd" clip-rule="evenodd" d="M278.502,209.717c-0.035-0.219,0.053-0.445,0-0.635
	c-0.112-0.422-1.274-1.38-1.699-1.51c-0.101,0.879-0.154,1.496,0.313,2.018C277.659,209.558,278.066,209.648,278.502,209.717z"/>
<path fill-rule="evenodd" clip-rule="evenodd" d="M282.479,218.475c0.749-0.215,1.339-0.885,2.201-1.009
	c0.359-0.054,0.572-0.021,0.755-0.127c0.566-0.318,1.221-0.964,1.51-1.448c-0.336-0.479-0.814-0.822-1.445-1.009
	c-0.348,0.422-0.785,0.977-1.322,1.198c-0.348,0.145-0.802,0.079-1.133,0.253c-0.307,0.156-0.619,0.614-1.009,0.879
	c-0.265,0.183-0.607,0.331-0.885,0.505c-0.212,0.136-0.431,0.363-0.566,0.442c-0.094,0.056-0.253,0.018-0.313,0.062
	c-0.153,0.115-0.372,0.401-0.566,0.632c-0.448,0.511-0.743,0.79-0.761,1.513c0.201,0.239,0.455,0.428,0.69,0.629
	C280.927,220.498,281.683,219.469,282.479,218.475z"/>
<path fill-rule="evenodd" clip-rule="evenodd" d="M283.482,230.572c0.554-0.369,1.304-0.352,2.207-0.505
	c0.548-0.091,1.091-0.218,1.51-0.251c0.915-0.07,1.882,0.074,2.838,0c0.561-0.041,1.08-0.256,1.64-0.315
	c0.448-0.044,0.891,0.054,1.322,0c0.224-0.026,0.413-0.147,0.631-0.188c0.926-0.172,1.912-0.236,2.832-0.127
	c0.507,0.059,1.097,0.086,1.705,0.127c0.354,0.023,0.714,0.165,1.074,0.188c0.542,0.042,0.95-0.062,1.321-0.127
	c0.201-0.032,0.407,0.009,0.566-0.124c0.018-0.637-0.743-0.634-1.068-0.882c-0.867-0.661-1.233-1.511-1.074-3.026
	c-0.513-0.77-1.133-1.428-2.077-1.764c-0.431,0.186-0.578,0.643-1.08,0.755c0.088-0.561-0.277-0.962-0.313-1.321
	c0.271-0.016,0.342,0.162,0.631,0.127c0.354-0.717,0.242-1.393,0.188-2.334c-0.26-0.365-0.613-0.646-0.507-1.383
	c-0.289-0.127-0.478-0.357-0.814-0.443c-0.336,0.328-0.979,0.517-1.133,1.071c-0.088,0.295,0.071,0.616,0,0.882
	c-0.053,0.18-0.331,0.431-0.442,0.566c-0.153,0.18-0.342,0.419-0.566,0.505c-0.089-1.157,0.33-2.292,0.188-3.274
	c-0.472-0.708-1.551-0.251-1.894,0.25c-0.101,0.455,0.266,0.785,0.13,1.071c-0.472-0.245-1.286-0.336-1.953-0.188
	c-1.581,1.514-3.245,3.006-4.666,4.599c-0.484,0.546-1.021,1.089-1.322,1.764c-0.448,0.248-0.714,0.673-1.133,0.947
	c0.036,0.563-0.431,1.044-0.507,1.448c-0.13,0.696,0.236,1.472-0.248,1.953c-0.354-0.006-0.672-0.045-0.885-0.189
	c0.195-0.489-0.26-0.965-0.059-1.448c-0.85-0.524-3.098-0.587-3.847,0.062c0.224,1.299,1.062,1.75,1.947,2.461
	c0.773,0.613,1.451,1.371,2.466,1.637C282.048,232.241,282.491,231.235,283.482,230.572z"/>
<path fill-rule="evenodd" clip-rule="evenodd" d="M277.813,221.434c0.1-0.213,0.194-0.431,0.313-0.629
	c-0.289-0.79-1.168-0.857-1.953-0.566C275.895,221.289,276.727,221.563,277.813,221.434z"/>
<path fill-rule="evenodd" clip-rule="evenodd" d="M274.916,222.888c0.253-0.21,0.301-0.626,0.69-0.696c0-0.315,0-0.631,0-0.947
	c-0.16-0.215-0.342-0.416-0.631-0.501c0,0.062,0,0.124,0,0.188c-0.814,0.463-1.504,1.057-2.832,1.006
	c0.006,0.357,0.242,0.502,0.124,0.823C272.827,223.209,274.113,223.041,274.916,222.888z"/>
<path fill-rule="evenodd" clip-rule="evenodd" d="M268.739,223.767c0.389,0.26,0.837,0.466,1.445,0.505
	c0.395-0.443,0.224-1.528,0.065-2.145C269.777,222.701,269.169,223.15,268.739,223.767z"/>
<path fill-rule="evenodd" clip-rule="evenodd" d="M319.841,235.362c1.563,0.318,2.661,1.534,4.165,2.018
	c0.313,0.101,0.708,0.079,1.068,0.187c0.354,0.108,0.648,0.277,1.009,0.314c0.902,0.098,1.575-0.17,2.2-0.188
	c0.295-0.009,0.679,0.095,1.009,0.127c0.855,0.083,1.446,0.224,2.083,0.315c1.44,0.204,3.027,0.18,4.16-0.127
	c0.607-0.4,0.667-1.059,0.755-1.952c0.029-0.28,0.165-0.552,0.189-0.82c0.165-1.679-0.106-2.548-0.631-3.59
	c-0.242-0.489-0.537-1.003-0.755-1.451c-0.979-2.006-1.84-4.561-3.905-5.292c-0.088,0.1-0.059,0.324-0.189,0.377
	c0.195,0.788,1.044,1.228,1.263,1.892c0.136,0.448-0.006,0.946,0.059,1.637c-0.177,0.222-0.437,0.36-0.625,0.566
	c0,0.188,0,0.378,0,0.566c-0.377,0.381-0.685,0.838-0.885,1.39c-0.809,0.475-1.274,1.295-2.083,1.764
	c0.16,0.095,0.225,0.283,0.313,0.439c0.661-0.088,1.191-0.581,1.699-1.006c0.495-0.404,1.168-0.793,1.522-1.26
	c0.242-0.327,0.265-0.778,0.566-1.073c0.207,0.103,0.602,0.023,0.82,0.127c0.077,0.339,0.266,0.566,0.189,1.07
	c-0.46,0.216-0.861,0.487-1.263,0.759c-0.083,0.277-0.077,0.634-0.313,0.755c-0.744-0.054-1.062,0.235-1.522,0.439
	c-0.29,0.133-0.608,0.229-0.814,0.378c-0.448,0.327-0.726,0.863-1.321,1.008c-0.218-0.345-0.926-0.422-1.074-0.692
	c-0.059-0.109-0.047-0.05-0.124-0.127c-0.85-0.85-2.301-0.283-3.717-0.378c-0.737-0.047-1.699-0.219-2.525-0.123
	c-0.16,0.191-0.366,0.348-0.631,0.439c0.171,0.359,0.372,0.681,0.383,1.197C320.396,234.99,320.077,235.141,319.841,235.362z"/>
<path fill-rule="evenodd" clip-rule="evenodd" d="M312.72,230.383c-0.047,0.54,0.608,0.908,1.262,0.947
	c0.101-0.342,0.307-0.575,0.632-0.696c-0.101-0.36-0.29-0.634-0.502-0.882C313.398,229.699,312.762,229.929,312.72,230.383z"/>
<path fill-rule="evenodd" clip-rule="evenodd" d="M315.369,232.212c0.006,0.206,0.106,0.313,0.065,0.566
	c0.696,0.457,1.133,1.174,2.33,1.133c0.171-0.218,0.46-0.337,0.501-0.566c0.095-0.495-0.336-0.965-0.631-1.133
	C316.998,231.852,316.018,232.139,315.369,232.212z"/>
<path fill-rule="evenodd" clip-rule="evenodd" d="M279.258,237.441c-0.036-0.678-0.254-1.164-0.755-1.386
	c-0.253,0.228-0.631,0.333-1.009,0.439c0.047,0.233,0.177,0.378,0.13,0.693C277.883,237.521,278.715,237.602,279.258,237.441z"/>
</svg>
