<svg version="1.1" id="Calque_1" xmlns="http://www.w3.org/2000/svg" xmlns:xlink="http://www.w3.org/1999/xlink" x="0px" y="0px"
	 width="432px" height="432px" viewBox="0 0 432 432" enable-background="new 0 0 432 432" xml:space="preserve">
<path fill-rule="evenodd" clip-rule="evenodd" d="M289.123,200.042c1.549-1.389,3.209-2.675,4.207-4.625
	c0.917-0.534,1.519-1.398,2.805-1.566c0.534-1.059,1.664-1.522,2.803-1.979c-0.396-0.46-1.139-0.569-1.318-1.239
	c0.025-0.251,0.256-0.295,0.164-0.658c-1.268-0.522-0.819-2.758-2.725-2.643c-0.242,0.171-0.287,0.537-0.245,0.991
	c0.292,0.351,0.855,0.743,0.661,1.321c-0.597-0.015-0.897-0.315-0.909-0.909c-0.501,0.068-0.528-0.342-0.909-0.33
	c-0.516,0.012-0.896,0.69-1.486,0.743c-0.094-0.209-0.324-0.277-0.33-0.578c0.289,0.065,0.318-0.124,0.581-0.085
	c-0.228-0.372,0.133-0.478,0.165-0.823c-0.406-0.772-0.298-2.056,0.492-2.313c0.016,0.841,0.585,1.124,1.154,1.404
	c0.416-0.747,0.749-1.561,1.073-2.393c-0.139-0.87-0.339-1.227-0.657-1.817c-0.307-0.578-0.463-0.935-0.826-1.236
	c-0.437-0.369-0.445-0.496-0.744-0.909c-0.324-0.458-0.775-0.761-0.908-1.156c-0.165-0.493-0.088-1.03-0.248-1.484
	c-0.291-0.841-1.029-1.596-1.07-2.643c-1.197,0.03-2.248-0.466-3.383-0.083c-0.578-0.221-1-0.596-1.734-0.658
	c-0.768,0.525-1.083,1.504-1.814,2.062c-0.083,0.165-0.16,0.333-0.248,0.495c-0.277-0.023-0.479-0.132-0.826-0.083
	c-0.047-0.896-0.764-1.537-1.569-1.404c-0.651-0.776-1.354-1.504-1.648-2.643c0.118-0.292,0.235-0.587,0.247-0.988
	c-0.268-0.472-0.964-0.519-1.4-0.826c-0.021-0.879-0.186-1.354-0.416-2.145c0.098-0.095,0.292-0.095,0.498-0.083
	c0.277-0.392,0.451-0.69,0.655-1.156c0.089-0.194,0.156-0.483,0.247-0.658c0.139-0.25,0.467-0.442,0.582-0.664
	c0.327-0.617,0.229-1.384,0.244-2.31c-0.561-0.844-1.451-1.378-1.979-2.31c-0.414-0.729-0.479-1.637-0.986-2.395
	c0.717-0.378,1.626-0.569,2.39-0.909c0.151-1.437-0.05-3.177-0.162-4.619c-0.552-0.525-1.378,0.159-2.15-0.166
	c-0.749,1.071-2.079-0.153-3.218,0.166c-0.354-0.393-1.104-0.301-1.566-0.496c-0.467-0.195-0.779-0.711-1.242-0.823
	c-0.25-0.062-0.295,0.083-0.492,0.083c-0.641-0.599-1.479-1.003-1.652-2.065c-0.416-0.38-0.855-0.737-1.318-1.073
	c-0.342,0.126-0.23,0.702-0.492,0.908c-0.826-0.413-2.39-0.085-2.806-0.908c0.235-0.723,0.159-1.764,1.235-1.649
	c-0.076-0.873-0.235-1.354-0.825-1.817c-0.23-1.262,0.528-1.917,0.991-2.723c0.183,0.065,0.321,0.171,0.578,0.165
	c0.174-0.262,0.18-0.699,0.165-1.156c-0.616-0.292-0.923-0.891-1.319-1.401c0.098-0.339,0.21-0.67,0.328-0.991
	c0.761-0.15,0.959-0.858,1.318-1.404c-0.263-0.643-0.791-1.023-1.236-1.486c0.189-1.478,0.068-2.977,0-4.455
	c-0.25-5.557,0.098-11.239-0.164-16.92c-0.458-9.779-0.063-19.737-0.496-29.297c-0.063-1.366,0.035-2.658,0.25-3.466
	c-0.566-0.115-0.76-0.363-1.158-0.575c-0.848-0.455-1.54-0.764-2.311-1.16c-0.333-0.513-0.472-1.032-0.826-1.483
	c-0.291-0.375-0.77-0.625-1.073-0.991c-0.348-0.419-0.891-1.277-0.991-1.814c-0.434-0.224-0.628-0.687-1.318-0.661
	c-0.888-0.982-2.035-1.708-3.057-2.558c-1.377-0.829-3.433-1.256-3.793-2.973c-0.867-0.316-1.755-0.611-2.561-0.988
	c-1.289,0.602-2.826-0.177-4.044-0.083c-0.313-0.46-1.009-0.528-1.813-0.496c-0.414,0.608-1.36,1.369-0.83,2.392
	c-0.259-0.021-0.126,0.28-0.244,0.413c-0.334,0.375-1.693,0.809-2.145,0.744c-0.387-0.059-0.77-0.458-1.156-0.579
	c-1.502-0.469-2.604,0.458-4.295,0.328c-0.197,0.159-0.369,0.345-0.654,0.413c-0.16,0.256-0.125,0.72-0.331,0.991
	c-0.274,0.357-1.655,0.958-1.979,0.991c-0.729,0.074-1.478-0.269-2.232-0.166c-1.396,0.195-2.959,1.257-4.207,1.239
	c-1.018,0.72-2.268,1.2-3.717,1.483c-1.104-1.121-3.076-1.377-4.206-2.475c-0.23-0.044-0.431-0.121-0.661-0.166
	c-0.206-0.377-0.707-0.569-0.822-0.991c-0.204-0.732,0.152-1.82,0-2.723c-0.086-0.472-0.204-1.05-0.168-1.569
	c0.047-0.596,0.326-1.121,0.415-1.649c0.092-0.59-0.089-1.13,0.163-1.566c-0.293-0.452-0.729-0.755-1.319-0.909
	c-0.18,0.18-0.507,0.212-0.661,0.413c-0.761-0.442-1.548-0.761-2.478-1.074c-0.345-0.118-0.714-0.304-0.991-0.331
	c-0.543-0.05-1.133,0.248-1.646,0.083c-0.192-0.059-0.124-0.324-0.416-0.248c-0.817,0.507-1.13,1.513-1.982,1.982
	c-0.923,1.667-2.345,2.92-3.546,4.375c-8.164,9.834-16.421,19.448-24.592,29.297c-0.422,0.504-0.985,0.867-1.074,1.321
	c-0.277,1.378-0.693,3.791-0.908,5.28c-0.381,2.602-1.045,5.263-1.07,7.758c-0.511,0.522-1.225,0.458-1.818,0.741
	c-1.012,0.487-1.374,1.628-2.229,2.23c-1.696,0.127-2.581,1.483-2.558,3.053c-0.215,0.168-0.525,0.248-0.826,0.331
	c-0.324,0.696-0.796,1.239-0.822,2.227c-0.407,0.584-0.738,1.248-0.991,1.982c-0.271,0.191-0.378,0.248-0.413,0.575
	c-0.021,0.195,0.174,0.82,0.327,1.077c0.375,0.61,1.36,1.009,1.489,1.566c-0.619,0.675-0.684,1.905-1.734,2.145
	c-0.094,0.191-0.291,0.333-0.412,0.496c-0.398,0.525-0.283,0.54-0.33,1.156c0.313,0.097,0.852-0.027,0.987,0.248
	c-0.174,0.475-1.015,0.917-1.153,1.566c-0.092,0.425,0.029,1.106,0.33,1.487c-0.174,0.321-0.501,0.493-0.578,0.908
	c0.537,0.342,1.251,0.511,1.982,0.658c0.033,0.684,0.895,0.537,1.154,0.991c-0.271,0.259-0.467,0.425-0.826,0.413
	c-0.139,0.959-0.124,1.676-0.578,2.396c-0.594,0.121-0.93,0.501-1.318,0.826c-1.311,0.366-2.204,1.15-3.219,1.814
	c-0.136,0.439-0.422,0.734-0.578,1.156c-0.381,0.006-0.372,0.398-0.74,0.41c0.129,0.475,0.292,0.917,0.244,1.569
	c0.18,0.098,0.534,0.018,0.578,0.248c0.012,0.507,0.021,1.012-0.248,1.239c-0.289-0.127-0.513-0.313-0.908-0.33
	c-0.277,0.162-0.336,0.542-0.743,0.575c0,0.139,0,0.277,0,0.416c-0.596,0.224-0.761,0.885-1.566,0.906
	c-1.324,1.263-3.726,1.448-4.457,3.304c-1.313,0.941-2.855,1.655-3.714,3.053c0.195,0.133,0.174,0.481,0.33,0.658
	c-0.533,0.767-1.41,1.271-1.4,2.396c0,0.631,0.434,1.469,0.822,1.899c0.588,0.646,1.508,0.932,1.979,1.731
	c0.28,0.469,0.327,0.988,0.496,1.566c-0.169,0.245-0.366,0.46-0.658,0.581c-1.667-0.696-3.536-0.988-4.54-2.478
	c-0.572-0.012-0.982,0.262-1.486,0.083c-0.183,0.283-0.469,0.466-0.66,0.74c-0.016,0.72,0.008,0.982-0.166,1.487
	c0.613,0.944,0.021,2.236,0.166,3.548c-0.499,0.546-0.738,1.351-1.236,1.9c-0.071,0.785-0.186,1.519-0.661,1.896
	c-0.247-0.245-0.637-0.354-0.991-0.495c-0.212-0.764-0.979-0.994-1.156-1.979c-0.094-0.342,0.178-0.322,0.166-0.578
	c-0.139-0.407-0.416-0.702-0.741-1.071c-0.253-0.289-0.569-0.85-0.908-0.991c-0.604-0.25-1.354,0.127-1.982-0.331
	c-0.192,0.466-0.378,0.938-0.657,1.322c-0.98,0.038-1.924,0.115-2.644,0.413c-0.233,1.21,0.15,2.794,0.247,4.455
	c0.438,7.466,1.493,14.82,1.814,21.952c0.859,18.84,1.34,38.017,2.148,56.946c0.492,0.44,0.819,1.05,1.073,1.732
	c-0.048,0.204-0.319,0.177-0.251,0.499c0.186,1.307-0.304,1.95-0.658,2.723c0.08,0.333,0.375,0.451,0.578,0.658
	c0.16,1.253-0.729,1.882-0.99,2.973c-0.089,0.363,0.111,0.699-0.166,1.074c0.275,0.85,0.971,1.283,1.156,2.227
	c1.293,0.15,1.608,1.065,2.228,1.897c1.05,1.41,2.472,2.313,3.714,3.383c-0.029,0.611,0,1.159,0.248,1.484
	c0.362,0.059,0.466-0.139,0.826-0.08c-0.42,0.419-0.747,1.136-1.57,0.908c-0.2,0.596-0.297,1.295-0.41,1.982
	c0.464,0.572,1.121,0.971,1.814,1.401c0.638,0.392,1.289,1.068,1.979,1.318c0.354,0.13,0.705,0,1.077,0.083
	c0.339,0.077,0.693,0.322,0.988,0.578c0.389-0.109,0.689-0.351,0.988-0.33c0.637-1.428,1.707-2.419,1.981-4.209
	c0.375-0.177,0.876-0.224,0.991-0.658c0.127-0.404-0.238-0.31-0.248-0.581c0.416-0.676,0.865-1.345,0.661-2.472
	c-0.079-0.445-0.177-0.932,0-1.487c0.118-0.369,0.549-1.215,0.743-1.569c0.756-1.378,1.985-2.198,3.879-1.814
	c0.401-0.315,1-0.428,1.318-0.826c0.154-0.835,0.629-1.354,1.074-1.9c1.221-0.071,1.277-1.307,1.896-1.977
	c-0.117-0.923-0.982-1.74-0.822-2.808c0.109-0.737,1.021-1.997,1.896-1.979c0.115-0.109,0.035-0.407,0.248-0.413
	c0.115,0.321,0.262,0.616,0.412,0.908c0.461-0.203,0.641-0.684,0.906-1.076c0.726-0.301,1.555-0.225,2.313,0
	c0.324-0.145,0.475-0.46,0.991-0.41c0.197-0.189,0.188-0.581,0.578-0.578c-0.038-0.484-0.413-0.932-0.499-1.487
	c-0.117-0.788,0.201-1.661-0.492-2.145c-0.283-0.133-0.817-0.009-0.906-0.331c-0.053-0.902,0.295-1.41,0.328-2.23
	c0.853-0.551,1.41-1.395,1.816-2.392c-0.02-0.339-0.279-0.437-0.333-0.743c0.181-0.26,0.404-0.478,0.747-0.579
	c0.307-0.085,0.232,0.207,0.495,0.168c0.644-0.404,1.321-0.77,1.812-1.322c0.808-0.375,2.191-0.531,3.221-0.413
	c0.799-0.475,1.201-1.755,1.486-2.478c0.717,0.109,1.295,0.354,1.732,0.746c-0.95,1.605-2.204,2.912-3.054,4.62
	c0.109,0.357,0.419,0.519,0.575,0.826c0.39-0.083,0.525-0.416,0.908-0.496c0.216,0.171,0.236,0.534,0.747,0.413
	c0.218-0.218,0.333-0.545,0.33-0.988c0.372-0.519,1.133-0.59,1.566-0.991c0.39-0.366,0.393-0.917,0.823-1.239
	c0.283,0.351,0.734,0.534,1.404,0.496c-0.035,0.419,0.348,0.419,0.412,0.744c0,0.221,0,0.437,0,0.658
	c0.903,0.667-0.032,3.168,1.9,2.805c-0.012-0.345-0.322-0.396-0.33-0.74c0.551-0.236,1.271-0.906,1.813-0.413
	c-0.035-0.336,0.274-0.333,0.165-0.744c0.445-0.248,0.758-0.599,1.156-0.743c0.16-0.056,0.283,0.009,0.413-0.083
	c0.531-0.375,0.971-1.269,1.156-2.062c0.153-0.664,0.222-1.51,0.245-2.313c-0.238-0.009-0.537,0.047-0.658-0.083
	c-0.156-0.449-0.383-0.829-0.578-1.236c-0.283-0.242-0.531,0.593-0.743,0.41c-0.46-0.779,0.263-1.463,0.248-2.31
	c0.555-0.802,1.581-1.085,2.228-1.814c0.59-0.661,0.723-1.67,1.403-2.313c0.442-0.136,1.009-0.584,1.321-0.578
	c-0.834,0.982-1.451,2.186-1.651,3.799c0.06,0.159,0.46-0.021,0.495,0.162c-0.354,0.92-0.297,1.93-0.412,2.726
	c-0.08,0.138-0.26,0.18-0.414,0.245c0.334,0.61,1.08,1.13,1.814,1.074c0.346,0.646,1.041,0.941,1.322,1.649
	c0.492-0.139,0.734-0.531,1.235-0.655c0-0.221,0-0.442,0-0.664c0.634,0.475,0.514-0.874,0.994-0.909
	c0.218-0.015,0.31,0.604,0.661,0.664c0.041-0.035,0.121-0.404,0.162-0.168c-0.027,0.416,0.023,0.749,0.165,0.991
	c0.481,0.012,0.796-0.136,1.156-0.248c-0.245-0.395,0.224-0.392,0.248-0.743c-0.13-0.006-0.286,0.015-0.248-0.165
	c0.356-0.77,0.528-1.726,1.156-2.225c-0.041-0.661,0.517-1.026,0.248-1.655c0.378-0.554,0.522-1.345,0.74-2.062
	c0.634-0.357,1.381-0.599,1.814-1.154c0.15-0.726-0.428-1.162-0.163-1.734c0.308,0.05,0.517,0.195,0.826,0.248
	c0.378-0.422-0.076-1.679,0.661-1.734c0.304,0.112,0.445,0.38,0.575,0.661c-0.189,0.416-0.381,0.829-0.575,1.236
	c-0.118,0.186-0.445,0.165-0.499,0.416c0.401,0.773,0.054,1.779,0.416,2.558c1.186,0.295,1.027-1.065,1.982-0.744
	c-0.041,0.266-0.159,0.445-0.165,0.744c0.401,0.333-0.188,0.74,0.165,0.991c0.794-0.183,1.133-1.207,1.236-1.817
	c0.533,0.245,0.805-0.08,0.991-0.413c-0.021,0.493,0.451-0.018,0.661,0.248c-0.077,0.339-0.522,0.304-0.661,0.578
	c-0.216,0.168-0.248,0.522-0.331,0.826c-0.772,0.596-0.563,1.047,0.331,1.566c0.819,0.481,1.793,0.903,2.307,0
	c-0.153-0.142-0.507-0.097-0.493-0.413c0.865-0.233,0.623-1.578,0.829-2.475c0.723-0.289,1.092-0.941,2.225-0.826
	c0.761-0.64,1.156-1.649,2.31-1.896c0.269-0.974,1.109-1.369,1.242-2.475c-0.717-0.177-1.667-0.05-2.15,0
	c-0.101-1.094,0.873-1.115,1.156-1.817c-0.493-0.938,0.339-1.882,0.826-2.561c-0.048-0.493,0.117-0.702,0-1.071
	c0.229-0.295,0.389-0.658,0.742-0.826c0.048-1.416,1.006-1.909,1.319-3.056c1.18-0.534,2.648-2.062,2.15-4.038
	c-0.145-0.566-0.755-1.027-1.242-1.407c-0.089-0.487-0.153-1-0.327-1.401c0.563-0.357,1.147-0.126,1.734-0.248
	c0.672-0.142,1.383-0.711,1.979-1.074c0.324-0.195,0.687-0.377,0.991-0.578c0.271-0.183,0.451-0.628,0.826-0.575
	c-0.119,0.431-0.499,0.604-0.416,1.236c0.723,0.295,1.253-0.274,1.734-0.496c0.015-0.619-0.299-0.912-0.661-1.153
	c0.495-0.165,0.549-0.773,1.071-0.909c-0.029-0.528,0.123-0.87,0.164-1.318c0.682,0.437,0.638,1.109,1.077,1.731
	c-0.118,0.767-0.513,1.245-0.578,2.062c-0.692,0.74-1.318,1.54-1.407,2.888c0.047,0.286,0.461,0.201,0.416,0.578
	c0.534-0.127,0.908-0.41,1.071-0.908c0.253-0.171,0.679,0.018,0.825-0.083c0.048-1.38,1.039-1.82,1.9-2.392
	c0.215,0.198,0.498,0.328,0.575,0.661c-0.236,0.095-0.483,0.174-0.658,0.331c0.124,0.425,0.41,0.687,0.826,0.826
	c0.062,0.239,0.401,0.637,0.247,0.823c-0.415-0.091-0.359-0.528-0.825-0.661c-0.528-0.142-1.165,0.15-1.734,0.168
	c-0.499,0.481-0.41,1.215-0.499,1.977c-0.4-0.092-0.543-0.437-1.067-0.41c0.053,0.416-0.41,0.723-0.743,0.991
	c-0.16,0.581-0.354,1.129-0.416,1.817c0.451,0.145,0.708,0.472,1.159,0.41c0.428-0.056,1.018-0.793,1.235-0.988
	c0.316-0.044,0.546-0.174,0.829-0.248c1.416,0.891,2.466,2.153,4.616,2.31c1.109,0.767,2.401,1.339,3.225,2.392
	c0.599-0.215,0.737,0.369,0.988,0.248c0.063-0.631,0.068-0.879-0.168-1.319c0.59-0.401-0.068-1.386-0.166-1.899
	c-0.84-0.15-1.313-0.661-1.152-1.814c-0.195-0.109-0.396-0.212-0.576-0.33c0.23-0.59,0.638-1.015,1.154-1.322
	c-0.112-0.466-0.641-0.513-0.744-0.991c0.451-0.437,0.729-0.758,1.401-0.413c0.401-0.15,0.549-0.558,0.826-0.823
	c0.289-0.068,0.318,0.121,0.581,0.083c0.142-0.218,0.396-0.758,0.575-0.664c0.362,0.693,0.142,1.458,0.413,2.23
	c0.324-0.032,0.352-0.363,0.664-0.413c-0.063-1.038,0.297-2.097-0.334-2.64c0.522-0.664-0.104-1.215-0.165-1.979
	c0.525,0.056,1.056-0.38,1.401,0c-0.009-0.207-0.015-0.401,0.168-0.413c0.525,1.322-0.599,3.118,0.165,4.537
	c0.903-0.142,1.396-0.693,1.729-1.401c0.782-0.1,1.083-0.685,1.489-1.156c0.897-0.475,2.334,0.227,3.054-0.083
	c0.266-0.307-0.271-0.336-0.248-0.658c0.396-0.13,0.685-0.363,0.826-0.747c0.437,0.209,0.885,0.802,1.401,0.664
	c0.215-0.348-0.222-0.256-0.162-0.664c0.362-0.351,0.348-1.083,0.66-1.484c0.451,0.398,0.463,1.239,0.908,1.652
	c-0.006,0.162-0.227,0.103-0.168,0.327c0.301-0.023,0.537,0.015,0.744,0.083c0.313-0.398,0.418-1.009,0.908-1.236
	c0.271,0.112,0.66,0.109,0.988,0.165c0.227,0.378,0.232,0.982,0.492,1.322c-0.215,0.377-0.41,0.843-0.327,1.401
	c0.147,0.962,0.54,2.233,0.826,2.888c0.442,0.162,0.723-0.263,0.825-0.166c0.057,0.522,0.251,1.056,0.083,1.569
	c0.442,0.198,0.638,0.962,1.401,0.575c0.026-0.383,0.18-0.649,0.25-0.988c0.207-0.147,0.402,0.092,0.576-0.165
	c0.015-0.607,0.25-1.068,0.498-1.487c0.48-0.012,0.965-0.032,1.236,0.166c0.117-0.212,0.104-0.558,0.492-0.496
	c-0.422-0.705-0.525-1.729-0.991-2.393c-0.271,0-0.276,0.269-0.575,0.248c-0.194-0.493-0.516-0.858-0.66-1.404
	c0.574,0.147,1.283,0.493,1.979,0.251c0.49,0.885,0.366,1.882,0.992,2.64c0.291-0.012,0.368-0.236,0.663-0.248
	c-0.235-1.065,0.229-2.068,0.327-2.808c0.106-0.039,0.493-0.209,0.493-0.08c-0.194,0.545-0.139,1.298-0.248,1.896
	c-0.023,0.166-0.174,0.331-0.162,0.493c0.041,0.711,0.48,0.929,0.825,1.404c0.391-1.091,0.481-2.49,0.744-3.714
	c0.256,0.301,0.324,0.159,0.743,0.083c0.228-0.755,0.396-1.974-0.083-2.558c0.555-0.351,0.895-0.917,0.986-1.731
	c0.657-0.118,1.191-0.351,1.654-0.661c0.098-0.289,0.153-0.62,0.496-0.661c0.018,0.737-0.36,1.321-0.334,1.814
	c-0.334-0.006-0.396,0.263-0.737,0.248c0.174,0.566,0.229,1.236,0.737,1.239c0.811,0.009,1-2.439,1.652-2.805
	c0.117,1.015-0.092,2.197,0.416,2.97c-0.083,0.192-0.148,0.407-0.169,0.661c0.349,0.289,1.169,0.145,1.652,0.083
	c0.091-0.749,0.561-1.416,0.743-1.817c1.201-0.13,1.943,0.201,2.637,0.578c-0.439,0.153-0.342,0.879-0.079,1.156
	c0.271,0.101,0.607-0.357,0.743-0.661c-0.207-0.047-0.643-0.289-0.492-0.413c0.984-0.289,2.082-0.044,2.227-0.991
	c0.057-0.377-0.33-0.787-0.333-0.988c0-0.009,0.153-0.198,0.168-0.251c0.147-0.684,0.091-0.956,0.41-1.401
	c-0.21-0.147-0.307-0.404-0.41-0.661c0.228-0.156,0.431-0.336,0.657-0.495c0.057-0.301-0.18-0.316-0.164-0.579
	c0.333,0.16,0.422,0.572,0.825,0.661c0.366-0.186,0.478-0.623,0.909-0.741c0.206,0.124,0.492,0.168,0.58,0.413
	c-0.103,0.204-0.123,0.484-0.17,0.74c0.504,0.325,1.371,0.283,1.568,0.909c0.416-0.301,1.233-0.198,1.484-0.661
	c0.271,0.198,0.646,0.292,0.826,0.578c0.129-0.561,0.643-0.737,0.746-1.321c0.238,0.015,0.507,0.224,0.66,0.083
	c0.051-0.758-0.631-1.18-0.088-1.732c-0.28-0.401-0.514-0.858-0.902-1.153c0.43-0.422,1.406-0.298,1.811-0.746
	c0.546-0.039,1.274,0.118,1.572-0.162c0.057,0.894-0.31,1.351-0.498,2.145c0.832,0.035,0.852,0.87,1.076,1.153
	c0.159,0.209,0.54,0.127,0.492,0.496c0.432,0.021,0.54-0.286,0.992-0.248c-0.213-0.661-0.771-1.198-0.166-1.814
	c0.216,0.032,0.451,0.044,0.575,0.165c0,0.357,0,0.714,0,1.074C287.863,200.169,288.542,200.125,289.123,200.042z"/>
<path fill-rule="evenodd" clip-rule="evenodd" d="M286.227,201.278c-0.82-0.009-1.806-0.551-1.974,0.331
	C284.648,202.458,286.108,202.249,286.227,201.278z"/>
<path fill-rule="evenodd" clip-rule="evenodd" d="M276.657,202.022c-0.065,0.321-0.313,0.46-0.578,0.578
	c-0.104-0.118-0.283-0.156-0.493-0.168c-0.215,0.177-0.303,0.472-0.253,0.909c0.415-0.059,0.413,0.307,0.746,0.333
	c0.147-0.156,0.224-0.384,0.416-0.496c0.307,0.083,0.964,0.039,1.153-0.248C277.351,202.594,277.12,202.19,276.657,202.022z"/>
<path fill-rule="evenodd" clip-rule="evenodd" d="M276.079,204.167c0.336,0.239,0.988,0.165,1.401,0.333
	c0.26-0.416-0.15-0.531-0.248-0.826C276.678,203.753,276.247,203.609,276.079,204.167z"/>
<path fill-rule="evenodd" clip-rule="evenodd" d="M264.029,205.158c-0.775-0.301-0.75,0.92-0.166,0.826
	C264.062,205.848,264.044,205.502,264.029,205.158z"/>
<path fill-rule="evenodd" clip-rule="evenodd" d="M274.596,206.807c0.775,0.165,1.424,0.896,2.227,0.333
	c-0.074-1.029-1.006-1.197-2.062-1.239C274.596,206.096,274.568,206.426,274.596,206.807z"/>
<path fill-rule="evenodd" clip-rule="evenodd" d="M264.356,206.148c-0.071,0.174-0.127,0.366-0.245,0.496
	c0.293,0.283,0.484,0.676,0.909,0.826c-0.056-0.333,0.076-0.472,0.082-0.744C264.805,206.582,264.619,206.329,264.356,206.148z"/>
<path fill-rule="evenodd" clip-rule="evenodd" d="M274.014,209.284c0.305-0.33,0.354-0.911,0.499-1.404
	c-0.339-0.566-0.956-0.862-1.077-1.649c-0.076,0-0.164,0-0.247,0c-0.05,0.442-0.242,0.746-0.41,1.07
	c0.333,0.549,0.354,1.41,0.657,1.982C273.631,209.284,273.819,209.284,274.014,209.284z"/>
<path fill-rule="evenodd" clip-rule="evenodd" d="M272.035,207.47c-0.012-0.351-0.222-0.496-0.493-0.578
	C271.377,207.178,271.53,207.739,272.035,207.47z"/>
<path fill-rule="evenodd" clip-rule="evenodd" d="M269.973,207.14c0,0.192,0,0.384,0,0.575c0.195,0,0.384,0,0.578,0
	C270.663,207.5,270.321,207.157,269.973,207.14z"/>
<path fill-rule="evenodd" clip-rule="evenodd" d="M269.973,209.202c0.307-0.053,0.461-0.253,0.41-0.661
	c-0.153-0.036-0.206-0.177-0.41-0.162C269.973,208.653,269.973,208.927,269.973,209.202z"/>
<path fill-rule="evenodd" clip-rule="evenodd" d="M221.445,210.11c0.251-0.059,0.239,0.142,0.493,0.083
	c0.127-0.177,0.301-0.31,0.416-0.496c-0.165-0.171-0.277-0.336-0.165-0.578C221.6,208.579,221.189,209.564,221.445,210.11z"/>
<path fill-rule="evenodd" clip-rule="evenodd" d="M263.038,210.355c-0.343-0.398-0.419-1.065-0.909-1.318
	c-0.314,0.61-0.259,1.286,0.166,1.734C262.743,210.827,262.66,210.361,263.038,210.355z"/>
<path fill-rule="evenodd" clip-rule="evenodd" d="M272.778,210.11c0.124-0.124,0.366-0.133,0.581-0.166
	c-0.174-0.489-0.611-0.717-1.08-0.908C271.905,209.414,272.48,209.898,272.778,210.11z"/>
<path fill-rule="evenodd" clip-rule="evenodd" d="M251.566,209.284c-0.033,0.271-0.442,0.858,0.168,0.826
	C251.652,209.859,251.908,209.272,251.566,209.284z"/>
<path fill-rule="evenodd" clip-rule="evenodd" d="M240.508,217.951c0.327,0.938,1.545,0.988,2.062,1.734
	c-0.091,0.124-0.091,0.204,0,0.328c0.714-0.047,1.2,0.121,1.734,0.251c0.581-0.39,0.905-1.024,1.318-1.569
	c-0.147-0.563-0.599-0.829-0.987-1.153c0.861-1.186-0.416-2.375-0.741-3.387c0.292-0.091,0.416-0.351,0.741-0.413
	c0.333,0.912,0.1,1.876,0.66,2.561c-0.035,0.156-0.236,0.147-0.165,0.41c1.083,0.87,2.059-0.304,3.301,0.33
	c0.914-0.572,1.304-1.667,1.734-2.723c-0.313-0.678-0.543-1.439-0.909-2.064c-0.923-0.174-1.097-1.104-1.898-1.401
	c-0.143-0.519-0.461-0.861-0.909-1.074c-0.61,0.333-1.245-0.071-2.062,0c0.015-0.18-0.065-0.262-0.245-0.248
	c-0.416,0.631-1.021,1.074-1.899,1.239c-0.112,0.36-0.416,0.764-0.166,1.236c-0.66,1.127-1.717,1.861-1.568,3.799
	C239.667,216.381,240.479,217.101,240.508,217.951z"/>
<path fill-rule="evenodd" clip-rule="evenodd" d="M251.483,212.75c0.708,0.006,1.048-1.248,0.333-1.487
	c-0.303,0.307-0.604,0.604-0.66,1.156C251.254,212.544,251.359,212.656,251.483,212.75z"/>
<path fill-rule="evenodd" clip-rule="evenodd" d="M220.039,219.517c0.168-0.133,0.584-0.366,0.743-0.74
	c0.062-0.142-0.044-0.375,0-0.581c0.186-0.812,0.729-1.313,0.581-2.145c-0.082-0.452-0.098-0.292,0-0.741
	c0.026-0.112-0.006-0.321,0-0.33c0.105-0.263,0.508-0.448,0.66-0.747c0.089-0.168,0.41-1.245,0.41-1.236
	c-0.044-0.419-0.43-0.702-0.826-0.658c0.027-0.003-0.07,0.239-0.079,0.245c-0.222,0.153-1.047,0.455-1.073,0.741
	c0.008,0.905-0.525,1.675,0,2.398c-0.283,0.46-0.776,0.708-0.909,1.318C219.992,217.588,220.115,218.452,220.039,219.517z"/>
<path fill-rule="evenodd" clip-rule="evenodd" d="M236.301,212.502c-0.256,0.679-0.221,1.652-0.498,2.313
	c0.271,0.39,0.631,0.69,1.324,0.658c0.147,0.171,0.48,0.448,0.66,0.333c0.216-1.242-0.542-2.327-0.66-3.221
	C236.906,212.5,236.619,212.488,236.301,212.502z"/>
<path fill-rule="evenodd" clip-rule="evenodd" d="M239.85,215.225c0.038-0.844,0.569-1.425,0.33-2.475
	C238.994,212.933,238.307,214.989,239.85,215.225z"/>
<path fill-rule="evenodd" clip-rule="evenodd" d="M227.469,216.219c-0.088,0.664,0.499,0.658,0.499,1.236
	c0.419,0.156,0.861,0.292,1.318,0.413c0.009-0.321,0.277-0.383,0.245-0.743C228.877,216.786,228.121,216.066,227.469,216.219z"/>
<path fill-rule="evenodd" clip-rule="evenodd" d="M232.092,218.446c-0.416-0.083-0.734-0.263-1.159-0.33
	c-0.118-0.404-0.493-0.552-0.903-0.661c-0.416,0.855-0.838,1.699-1.489,2.313c-0.021,0.578,0.042,1.324,0.248,1.894
	c-0.396-0.091-0.286,0.315-0.493,0.413c-0.139,1.516,1.499,1.853,2.806,1.404c0.222-0.354,0.095-1.062,0.33-1.404
	c-0.318-0.342-0.705-1.053-0.825-1.319c0.25,0.059,0.301-0.083,0.495-0.08c0.511-0.513,1.546-0.493,1.734-1.321
	C232.401,219.237,232.396,218.688,232.092,218.446z"/>
<path fill-rule="evenodd" clip-rule="evenodd" d="M237.371,217.455c0.036,0.504,0.422,1.044,0.909,0.823
	c-0.026-0.248-0.257-0.292-0.165-0.658C237.932,217.502,237.717,217.414,237.371,217.455z"/>
<path fill-rule="evenodd" clip-rule="evenodd" d="M246.369,217.786c0.333,0.369,0.533-0.05,0.908-0.085
	C247.257,217.311,246.383,217.443,246.369,217.786z"/>
<path fill-rule="evenodd" clip-rule="evenodd" d="M218.885,217.868c-0.227,0.348-0.498,0.658-0.492,1.236
	c0.357,0.059,0.461-0.142,0.826-0.083c-0.006-0.377,0.035-0.805-0.088-1.071C219.027,217.945,219.018,217.845,218.885,217.868z"/>
<path fill-rule="evenodd" clip-rule="evenodd" d="M248.52,218.196c-0.505-0.224-0.986-0.345-1.08,0.333
	c0.171,0.157,0.463,0.201,0.664,0.331C248.183,218.585,248.558,218.6,248.52,218.196z"/>
<path fill-rule="evenodd" clip-rule="evenodd" d="M246.038,219.435c0.248,0.083,0.372,0.295,0.747,0.25
	c0.224-0.631-0.125-0.911-0.582-1.074C246.059,218.797,246.003,219.072,246.038,219.435z"/>
<path fill-rule="evenodd" clip-rule="evenodd" d="M237.787,219.768c-0.07,0.15-0.139,0.298-0.168,0.496
	c0.287,0.032,0.467-0.036,0.661-0.083C238.23,219.927,238.095,219.756,237.787,219.768z"/>
<path fill-rule="evenodd" clip-rule="evenodd" d="M234.484,221.83c-0.251-0.469-0.41-1.445-1.236-1.074
	C233.172,221.426,233.617,222.26,234.484,221.83z"/>
<path fill-rule="evenodd" clip-rule="evenodd" d="M237.454,220.756c-0.041,0.313,0.036,0.514,0.248,0.578
	c0.044-0.121,0.121-0.209,0.168-0.33C237.648,221.004,237.69,220.741,237.454,220.756z"/>
<path fill-rule="evenodd" clip-rule="evenodd" d="M238.445,220.921C238.723,221.172,238.696,220.617,238.445,220.921
	L238.445,220.921z"/>
<path fill-rule="evenodd" clip-rule="evenodd" d="M244.142,220.839c-0.165,0-0.331,0-0.499,0c-0.082,0.389,0.334,0.274,0.251,0.661
	c0.277-0.027,0.52-0.085,0.658-0.248C244.428,221.098,244.124,221.128,244.142,220.839z"/>
<path fill-rule="evenodd" clip-rule="evenodd" d="M238.69,221.334c0.097,0.071,0.222,0.109,0.416,0.083
	c-0.006-0.242-0.188-0.307-0.327-0.413C238.746,221.113,238.661,221.163,238.69,221.334z"/>
<path fill-rule="evenodd" clip-rule="evenodd" d="M242.817,222.24c0.015-0.342,0.229-0.487,0.251-0.823
	c-0.349-0.407-0.771,0.035-0.992,0.245c0.054,0.277,0.242,0.286,0.083,0.578C242.381,222.24,242.602,222.24,242.817,222.24z"/>
<path fill-rule="evenodd" clip-rule="evenodd" d="M232.257,221.662c-0.112,0.142,0.091,0.46,0.245,0.578
	C232.738,222.081,232.679,221.611,232.257,221.662z"/>
<path fill-rule="evenodd" clip-rule="evenodd" d="M237.209,223.809c0.219-0.056,0.156,0.171,0.245,0.248
	c0.452-0.454,1.054-0.15,1.407,0.166c0.159-0.112,0.39-0.16,0.572-0.248c0.781,0.75,2.248,0.971,2.227-0.41
	c-0.002-0.705-0.736-1.422-1.07-1.735c-0.015,0.124-0.2,0.074-0.327,0.083c-0.248,0.166-0.228,0.599-0.499,0.744
	c-0.174-0.127-0.191-0.416-0.492-0.416c-1.088-0.097-1.215,0.764-1.982,0.994C237.33,223.494,237.142,223.523,237.209,223.809z"/>
<path fill-rule="evenodd" clip-rule="evenodd" d="M243.15,221.83c0.088,0.298,0.39,0.378,0.492,0.658c0-0.191,0-0.383,0-0.575
	C243.393,221.971,243.401,221.771,243.15,221.83z"/>
<path fill-rule="evenodd" clip-rule="evenodd" d="M220.865,224.635c0.678,0.05,1.354-0.085,1.816,0c0.437-0.463,1-0.648,1.734-0.413
	c0.106-0.218,0.118-0.54,0.416-0.578c-0.451-0.546-0.672-1.313-1.242-1.732c-0.943,0.345-1.775,0.812-2.392,1.484
	c-1.048,0.304-1.522,1.174-1.979,2.065C220.018,225.438,220.384,224.98,220.865,224.635z"/>
<path fill-rule="evenodd" clip-rule="evenodd" d="M247.855,222.24c-0.201-0.053-0.558-0.372-0.743-0.165
	c0.321,0.062,0.221,0.551,0.657,0.496C247.752,222.417,247.867,222.39,247.855,222.24z"/>
<path fill-rule="evenodd" clip-rule="evenodd" d="M247.521,224.143c0.375-0.504-0.088-0.965-0.574-1.077
	C246.726,223.532,247.064,224.083,247.521,224.143z"/>
<path fill-rule="evenodd" clip-rule="evenodd" d="M230.522,224.387c0.041-0.259-0.118-0.325-0.165-0.496
	c-0.543-0.103-0.688,0.298-0.416,0.578C230.216,224.517,230.328,224.417,230.522,224.387z"/>
<path fill-rule="evenodd" clip-rule="evenodd" d="M231.348,223.892c-0.235,0.015-0.563-0.071-0.58,0.165
	c0.158,0.145,0.422,0.186,0.58,0.331C231.348,224.222,231.348,224.057,231.348,223.892z"/>
<path fill-rule="evenodd" clip-rule="evenodd" d="M232.75,224.057c-0.068,0.098-0.109,0.225-0.083,0.413
	c0.206,0.009,0.257,0.156,0.416,0C233.033,224.275,232.971,224.086,232.75,224.057z"/>
<path fill-rule="evenodd" clip-rule="evenodd" d="M224.168,226.287c0.289-0.068,0.213-0.504,0.576-0.496
	c-0.077-0.224-0.181-0.425-0.245-0.661c-0.693,0.035-0.826-0.496-1.483-0.496c-0.426,0.52,0.333,1.027,0.492,1.487
	C223.871,226.033,223.918,226.26,224.168,226.287z"/>
<path fill-rule="evenodd" clip-rule="evenodd" d="M237.289,225.792c0.006-0.419-0.105-0.472,0-0.826
	c-0.431-0.658-0.911-0.026-1.07,0.496c0.085,0.189,0.279,0.266,0.244,0.575C236.858,226.075,237.08,225.939,237.289,225.792z"/>
<path fill-rule="evenodd" clip-rule="evenodd" d="M225.985,227.936c-0.159-0.422-0.139-0.741-0.251-1.319
	c-0.466,0.328-1.345,0.245-2.145,0.245c-0.486-0.581-0.852-1.295-1.4-1.814c-0.596-0.106-1.021,0.101-1.569,0.413
	c-0.038,0.266-0.159,0.445-0.165,0.743c0.631,0.106,0.723,0.761,1.152,1.071c-0.18-0.012-0.035,0.295-0.079,0.413
	c0.431,1.003,1.903,0.959,2.561,1.734C224.826,229.033,225.21,228.293,225.985,227.936z"/>
<path fill-rule="evenodd" clip-rule="evenodd" d="M231.266,226.204c0.021-0.171,0.221-0.168,0.328-0.248
	c-0.119-0.584-0.531-0.392-0.906-0.416C230.641,226.004,231,226.057,231.266,226.204z"/>
<path fill-rule="evenodd" clip-rule="evenodd" d="M232.584,230.496c0.369-0.994,0.956-2.472,0.416-3.634
	c-1.354-0.481-1.186,1.224-2.232,1.318c0.082,0.988-0.295,1.519-0.572,2.147C230.926,230.8,231.933,230.127,232.584,230.496z"/>
<path fill-rule="evenodd" clip-rule="evenodd" d="M230.688,227.358c0.059-0.225-0.165-0.163-0.165-0.331
	c-0.251,0.05-0.422,0.186-0.41,0.496c0.112-0.003,0.18,0.038,0.245,0.083C230.431,227.487,230.425,227.287,230.688,227.358z"/>
<path fill-rule="evenodd" clip-rule="evenodd" d="M222.682,229.835c0-0.221,0.263-0.18,0.245-0.413c-0.162,0-0.327,0-0.493,0
	c-0.256-0.23-0.064-0.587-0.327-0.661c-0.026,0.195-0.286,0.153-0.251,0.41C222.01,229.517,222.281,229.738,222.682,229.835z"/>
<path fill-rule="evenodd" clip-rule="evenodd" d="M201.229,231.57c-0.139,0-0.277,0-0.416,0c0.064,0.717,0.15,0.791,0,1.481
	C201.381,232.724,201.393,232.319,201.229,231.57z"/>
<path fill-rule="evenodd" clip-rule="evenodd" d="M189.67,232.641c-0.141,0.442-0.309,0.637-0.574,1.156
	c-0.137,0.254-0.239,0.708-0.413,0.988c-0.481,0.773-1.277,1.153-1.321,1.817c-0.048,0.658,0.533,1.398,1.235,1.236
	c0.277-0.988,0.584-1.947,0.661-3.136c0.327-0.519,0.701-1.357,0.66-1.979C189.813,232.717,189.807,232.614,189.67,232.641z"/>
<path fill-rule="evenodd" clip-rule="evenodd" d="M202.381,234.703c0.34-0.218,0.508-0.029,0.74-0.083c0-0.496,0-0.988,0-1.484
	c-0.805-0.065-0.935,0.549-1.156,1.074C202.054,234.428,202.296,234.487,202.381,234.703z"/>
<path fill-rule="evenodd" clip-rule="evenodd" d="M200.151,234.703c-0.23-0.431-0.228-1.091-0.493-1.484c-0.111,0-0.221,0-0.333,0
	c-0.015,0.785-0.685,1.812,0,2.31C199.724,235.375,199.988,235.089,200.151,234.703z"/>
<path fill-rule="evenodd" clip-rule="evenodd" d="M226.977,236.52c0.076,0.168,0.313,0.177,0.575,0.163
	c0.106-0.245,0.266-0.446,0.245-0.823c-0.104-0.006-0.112-0.106-0.245-0.083C227.511,236.178,227.068,236.178,226.977,236.52z"/>
<path fill-rule="evenodd" clip-rule="evenodd" d="M212.115,236.272c-0.104-0.145-0.168-0.325-0.41-0.328
	c-0.168,0.499-0.186,0.891,0,1.398C212.189,237.328,211.998,236.649,212.115,236.272z"/>
<path fill-rule="evenodd" clip-rule="evenodd" d="M203.865,237.756c0.174,0.047,0.236,0.207,0.498,0.165
	c-0.047-0.425,0.26-0.504,0.162-0.991C203.988,236.889,203.977,237.375,203.865,237.756z"/>
<path fill-rule="evenodd" clip-rule="evenodd" d="M221.033,238.417c0.135-0.221,0.318-0.392,0.574-0.496
	c0.013-0.345-0.146-0.46,0-0.74C220.768,236.437,220.476,237.883,221.033,238.417z"/>
<path fill-rule="evenodd" clip-rule="evenodd" d="M205.102,237.838c0.076-0.201,0.463-0.088,0.415-0.413
	c-0.183-0.118-0.183-0.419-0.578-0.327C204.975,237.363,204.83,237.812,205.102,237.838z"/>
<path fill-rule="evenodd" clip-rule="evenodd" d="M190.414,238.417c-0.525-0.18-0.756,0.318-1.074,0.578
	c0.092,1.012,0.584,1.617,0.991,2.31C191.281,240.844,191.246,238.95,190.414,238.417z"/>
<path fill-rule="evenodd" clip-rule="evenodd" d="M221.938,239.16c-0.228-0.82-0.838-0.248-0.991,0.331
	C221.331,239.909,221.803,239.62,221.938,239.16z"/>
<path fill-rule="evenodd" clip-rule="evenodd" d="M176.629,239.573c0.019,0.156-0.091,0.183-0.079,0.331
	C176.851,240.08,176.922,239.481,176.629,239.573z"/>
<path fill-rule="evenodd" clip-rule="evenodd" d="M170.688,243.039c0.759,0.07,0.876-0.496,1.071-0.988
	c-0.156-0.171-0.387-0.274-0.576-0.413C170.709,241.977,170.875,242.473,170.688,243.039z"/>
<path fill-rule="evenodd" clip-rule="evenodd" d="M203.947,242.381c0.124,0.095,0.098,0.339,0.334,0.328
	c0.146-0.283,0.498-0.38,0.574-0.74C204.481,241.738,203.912,241.93,203.947,242.381z"/>
<path fill-rule="evenodd" clip-rule="evenodd" d="M174.736,242.213c0.02,0.41-0.281,0.493-0.334,0.826
	c0.313-0.074,0.543-0.228,0.66-0.496C174.966,242.422,174.992,242.175,174.736,242.213z"/>
<path fill-rule="evenodd" clip-rule="evenodd" d="M172.836,242.543c-0.502,0.658-1.472,0.84-1.652,1.814
	c0.921,1.038,1.711-0.611,1.817-1.649C172.983,242.617,172.906,242.582,172.836,242.543z"/>
<path fill-rule="evenodd" clip-rule="evenodd" d="M170.027,244.608c0-0.192,0-0.387,0-0.579c-0.336,0.021-0.557,0.154-0.825,0.248
	c0.076,0.198,0.215,0.333,0.413,0.413C169.815,244.723,169.795,244.537,170.027,244.608z"/>
<path fill-rule="evenodd" clip-rule="evenodd" d="M179.438,244.357c-0.098-0.021-0.313-0.333-0.413-0.08
	C179.055,244.369,179.355,244.593,179.438,244.357z"/>
<path fill-rule="evenodd" clip-rule="evenodd" d="M172.423,245.596c0.187,0.145,0.188,0.472,0.495,0.496
	c0.143-0.159,0.254-0.351,0.496-0.413c-0.098-0.313-0.304-0.522-0.413-0.826C172.703,245,172.547,245.281,172.423,245.596z"/>
<path fill-rule="evenodd" clip-rule="evenodd" d="M171.27,246.174c-0.244-0.062-0.162-0.442-0.498-0.41
	c-0.207,0.124-0.293,0.366-0.248,0.74C170.677,246.576,171.166,246.414,171.27,246.174z"/>
<path fill-rule="evenodd" clip-rule="evenodd" d="M168.792,246.835c-0.042,0.422,0.263,0.508,0.33,0.826
	c0.327,0.083,0.248-0.248,0.575-0.165C169.594,247.057,169.287,246.396,168.792,246.835z"/>
</svg>
