<svg version="1.1" id="Calque_1" xmlns="http://www.w3.org/2000/svg" xmlns:xlink="http://www.w3.org/1999/xlink" x="0px" y="0px"
	 width="432px" height="432px" viewBox="0 0 432 432" enable-background="new 0 0 432 432" xml:space="preserve">
<path fill-rule="evenodd" clip-rule="evenodd" d="M88.013,143.158c0.216-0.05,0.266-0.345,0.534-0.469
	c0.285-0.133,0.521-0.071,0.802-0.133c0.127-0.233,0.315-0.413,0.531-0.534c0.083-0.047,0.245,0.032,0.333,0
	c0.228-0.08,0.531-0.378,0.67-0.534c0.254-0.292,0.324-0.74,0.666-1.003c0.16-0.065,0.331-0.118,0.537-0.133
	c0.305-1.009,0.889-1.734,2-1.935c0.723-0.613,1.461-1.215,2.068-1.935c0.393,0.047,0.596-0.218,0.938-0.268
	c0.277-0.042,0.596,0.08,0.867,0c0.511-0.157,0.734-0.906,1.071-1.269c0.548-0.604,1.224-0.9,1.734-1.336
	c0.038-0.469,0.142-0.879,0.398-1.136c0.516,0.047,0.755-0.18,1.271-0.132c0.517-0.484,0.791-1.207,1.402-1.602
	c0.781-0.047,0.946-0.894,1.533-1.268c0.251-0.16,0.623-0.145,0.87-0.269c0.251-0.127,0.413-0.398,0.667-0.531
	c0.156-0.088,0.389-0.1,0.531-0.203c0.412-0.29,0.516-0.871,0.938-1.136c0.307-0.03,0.498-0.171,0.731-0.266
	c0.012-0.593,0.331-0.87,0.266-1.537c0.31-0.242,0.478-0.714,0.94-0.935c0.21-0.1,0.481-0.041,0.8-0.129
	c0.286-0.086,0.575-0.313,0.803-0.336c0.339-0.033,0.622,0.174,0.932,0.068c1.216,0.964,2.864,1.496,4.074,2.469
	c0.336-0.059,0.495,0.021,0.932,0c0.03-0.401,0.26-0.923,0.266-1.537c0.2-0.156,0.472-0.239,0.673-0.398
	c0.111-0.843,0.726-1.186,1.333-1.534c0.112-0.156,0.254-0.286,0.266-0.537c0.561-0.194,0.796-0.714,1.139-1.068
	c0.413-0.437,1.062-0.699,1.397-1.135c0.184-0.239,0.23-0.575,0.402-0.803c0.625-0.811,1.521-1.404,2.736-1.534
	c0.101-0.215,0.065-0.561,0.065-0.867c-0.153-0.201-0.543-0.162-0.661-0.401c0.148-0.242,0.236-0.563,0.195-1.003
	c0.466-0.534,0.844-1.156,1.333-1.667c0-0.274-0.012-0.549,0.071-0.734c0.395-0.098,0.631-0.351,0.932-0.534
	c0,0.248-0.07,0.192,0,0.401c0.313,0.159,0.454,0.48,0.737,0.667c0.147-0.177,1.511-0.428,1.67,0.133
	c-0.271,0.201-0.396,0.54-0.731,0.669c-0.342-0.112-0.673-0.003-1.003,0.065c-0.06,0.18,0.183,0.561-0.071,0.802
	c0.154,0.183,0.349,0.319,0.271,0.735c0.826-0.071,1.346,0.162,1.8,0.466c0,0.133,0,0.269,0,0.401
	c0.235,0.165,0.378,0.428,0.737,0.466c0.188,0.186,0.502,0.64,0.731,0.735c0.838,0.351,1.888,1.2,2.673,1.336
	c0.619,0.109,1.362-0.194,2.2-0.065c0.483,0.475,1.192,0.336,1.935,0.599c0.531,0.186,0.927,0.551,1.34,0.602
	c0.938,0.109,1.917-0.301,2.938-0.065c0.178,0.039,0.295,0.171,0.467,0.198c0.896,0.136,1.834,0.018,2.802,0.068
	c0-0.133,0-0.266,0-0.401c0.508-0.277,0.597-0.958,1.067-1.268c0.608-0.104,0.986-0.145,1.47-0.269
	c0.012-0.46-0.171-0.72-0.266-1.068c-0.938-0.274-1.469-0.796-1.675-1.669c1.002-0.121,1.545,0.298,2.206,0.669
	c0.359-0.274,0.619-0.23,1.203-0.269c0.06-0.321,0.384-0.375,0.401-0.734c-0.466-0.82-1.734-0.847-2.201-1.669
	c0.207-0.036,0.16-0.325,0.266-0.466c0.029,0.147,0.331,0.027,0.467,0.068c0.147,0.074,0.183,0.266,0.336,0.333
	c0.679,0.085,1.599,1.053,2.064,0.333c0.137-0.159-0.177-0.442-0.129-0.734c0.254-0.097,0.507-0.209,0.867-0.201
	c0.123-0.23,0.159-0.554,0.33-0.734c1.924-0.085,3.021,1.023,4.678,1.401c0.213-0.163,0.414-0.339,0.661-0.466
	c-0.029-0.726,0.495-0.953,0.803-1.268c0.36-0.366,0.289-0.366,0.667-0.534c0.259-0.115,0.43-0.215,0.672-0.333
	c0.184-0.525-0.142-0.74-0.2-1.204c0.224-0.174,0.448-0.348,0.737-0.466c0.177,0.156,0.448,0.009,0.666,0
	c0.514-0.439,0.95-0.958,1.534-1.333c0.183,0.209,0.325,0.192,0.667,0.133c0.431,0.28,1.191,0.227,1.604,0.531
	c0.354-0.106,0.489,0.044,0.797,0.135c1.015,0.295,1.546,0.623,2.2,1.068c0.619,0.413,0.826,0.56,1.274,1.003
	c0.501,0.495,1.233,1.094,1.604,1.602c0.064,0.094,0.006,0.236,0.064,0.333c0.184,0.316,0.543,0.511,0.797,0.8
	c0.277,0.307,0.496,0.672,0.738,1.003c1.049,0.139,2.053-0.047,2.802-0.401c0.483,0.366,0.366,1.531,0.938,1.534
	c0.59,0.009,0.412-1.106,0.867-1.466c0.767,0.271,1.84,0.584,2.736,0.333c0.178-0.375,0.496-0.62,0.933-0.735
	c0.608,0.387,1.481,0.248,1.87,0.935c-0.006,0.59-0.23,1.198-0.4,1.803c-0.82,0.298-1.629,0.324-2.603,0.2
	c-0.396,1.248,0.778,1.487,1.067,2.269c-0.241,0.487-0.041,0.977,0.137,1.404c0.218,0.006,0.531-0.104,0.861,0.065
	c0.123-0.458,0.684-0.475,0.938-0.799c-0.041,0.242,0.142,0.253,0.136,0.466c-0.218,0.339-0.59,0.525-0.802,0.867
	c0.188,0.393,0.549,0.607,0.867,0.867c0.478-0.097,0.855,0.186,1.203,0.404c0.454-0.092,0.685,0.062,0.932,0.33
	c-0.158,0.906-0.253,1.938,0.131,2.673c-0.62,0.136,0.029,0.882,0.141,1.133c0.938,0.085,1.682,0.142,2.13,0.802
	c0.159,0.537,0.489,0.896,0.673,1.404c-0.213,0.387-0.324,0.876-0.673,1.133c0.171,0.345,0.171,0.861,0.271,1.269
	c-0.318,0.307-0.448,0.802-0.667,1.204c0.266,0.333,0.384,0.814,0.667,1.132c0.52-0.135,0.933,0.396,1.47,0.534
	c0.135,0.038,0.359-0.023,0.53,0c0.171,0.026,0.319,0.127,0.466,0.136c0.779,0.035,1.57-0.227,2.271,0.065
	c0.637,0.472,1.322,0.902,2.543,0.802c0.201-0.085,0.383-0.195,0.596-0.269c0.147,0.053,0.26,0.142,0.467,0.136
	c0.206-0.038,0.176-0.315,0.4-0.333c0.041,0.162,0.166,0.236,0.271,0.333c0.702-0.088,1.221,0.484,1.799,0.734
	c0.03,0.46,0.254,0.726,0.337,1.133c0.372,0.089,0.448,0.354,0.661,0.602c0.117,0.129,0.295,0.212,0.406,0.333
	c0.213,0.236,0.271,0.563,0.537,0.735c0.342,0.224,0.803,0.191,1.197,0.336c0.473,0.168,0.809,0.496,1.27,0.664
	c0.082,0.542,0.536,0.708,0.736,1.135c0.225-0.003,0.467-0.018,0.531,0.136c-0.153,0.174-0.159,0.416,0,0.599
	c-0.525,0.351-0.549,0.879-0.666,1.537c-0.33,0.115-0.455,0.437-0.738,0.602c-0.984,0.145-1.439,0.829-1.935,1.466
	c0.194,0.342-0.06,0.729-0.065,1.136c-0.006,0.194,0.119,0.395,0.137,0.602c0.023,0.413-0.16,0.817-0.071,1.269
	c0.159,0,0.313,0,0.466,0c0.738,0.808,1.758,1.304,2.401,2.204c0.266,0.366,0.419,0.788,0.673,1.201
	c0.354-0.053,0.613,0.248,0.932,0.336c0.442,0.118,0.944,0.056,1.469,0.133c1.528,0.221,3.01,0.693,4.809,0.534
	c0.714,0.286,1.439,0.566,2.207,0.802c0.1,0.091,0.053,0.345,0.265,0.33c0.466,0.292,0.832,0.676,1.47,0.805
	c0.365,0.596,1.073,0.508,1.203,1.333c0.118,0.782-0.283,1.726,0,2.669c0.537,0.508,1.416,0.295,2.2,0.534
	c0.159,0.05,0.248,0.18,0.396,0.201c0.378,0.059,0.762-0.053,1.139,0c0.696,0.1,1.31,0.504,1.936,0.534
	c0.053,0.369,0.507,0.345,0.472,0.802c0.466,0.322,0.933,0.637,1.397,1.133c0.496,0.525,1.251,1.764,1.941,1.938
	c0.508,0.127,0.991-0.074,1.398,0.065c0.307,0.106,0.584,0.451,0.803,0.602c0.283,0.2,0.561,0.295,0.796,0.602
	c0.112,0.87,0.071,1.888,0.407,2.537c-0.318,0.599-0.035,1.531,0.13,2.068c-0.289,0.537,0.023,1.676-0.401,2.071
	c0.183,0.301,0.064,0.499,0,0.87c0.147,0.54,0.454,1.068,0.466,1.602c0.019,0.466-0.253,0.761-0.33,1.136
	c-0.054,0.25,0.041,0.486,0,0.731c-0.266,1.525-1.935,1.531-3.21,2.268c-0.241,0.05-0.283-0.112-0.53-0.065
	c-0.897,0.328-0.968,1.481-1.204,2.472c0.49,1.345-0.46,2.31-1.133,2.935c-0.354-0.083-0.566,0.218-0.932,0.269
	c-0.365,0.05-0.737-0.098-1.068-0.068c-0.466,0.047-0.672,0.227-1.002,0.469c-0.101,1.121-0.873,1.578-1.204,2.469
	c0.921,0.204,1.345-0.286,1.935-0.67c0.178-0.112,0.36-0.239,0.537-0.33c0.225-0.121,0.473-0.177,0.602-0.269
	c0.455-0.315,0.768-1.047,1.535-0.466c-0.496,0.171-0.82,0.513-1.404,0.599c-0.125,0.165-0.207,0.372-0.337,0.537
	c-0.542-0.036-0.53,0.483-1.062,0.466c-0.378,0.894-1.588,0.667-2.271,1.136c-0.277,0.186-0.401,0.531-0.602,0.734
	c-0.26,0.266-0.514,0.401-0.738,0.667c-0.123-0.132-0.241-0.021-0.395,0c-0.118,0.254-0.584,0.401-0.803,0.735
	c-0.082,0.126-0.041,0.428-0.13,0.602c-0.171,0.298-0.466,0.372-0.536,0.599c-0.071,0.212,0.023,0.449,0,0.667
	c-0.018,0.15-0.112,0.324-0.137,0.469c-0.135,1.018,0.143,2.003,0.467,2.806c-0.006,0.522,0.082,0.944,0.206,1.33
	c-0.359,1.26,0.048,2.764,0.597,3.543c0.943,0.256,1.168,1.236,2.135,1.466c1.045-0.301,2.035-0.537,2.873-0.997
	c0.189-0.109,0.42-0.227,0.602-0.336c0.213-0.126,0.502-0.253,0.603-0.333c0.112-0.098,0.13-0.313,0.265-0.466
	c0.242-0.274,0.484-0.33,0.603-0.604c0.136-0.325,0.029-0.581,0.065-0.932c0.053-0.458,0.259-0.841,0.336-1.339
	c-0.13-0.451-1.021-0.737-0.537-1.198c0.336,0,0.448,0.221,0.867,0.133c0.301,0.298,0.365,0.835,0.602,1.204
	c-0.105,0.472-0.283,0.87-0.271,1.469c0.318,0.059,0.738,0.304,1.003,0.198c0.283-0.256,0.431-0.64,0.603-0.997
	c0.979-0.295,1.717-0.826,2.336-1.472c-0.064-0.313-0.33-0.422-0.401-0.735c0.071-0.31,0.407-0.351,0.472-0.669
	c-0.064-0.192-0.064-0.201,0-0.398c0.384-0.46,0.667-1.024,1.133-1.404c0.035,0.549-0.295,0.731-0.466,1.071
	c0.212,0.525-0.035,0.87,0.136,1.534c0.779,0.608,0.991,1.546,1.469,2.605c0.685,1.528,1.31,2.834,1.197,5.006
	c0.649,0.156,1.287,0.318,1.67,0.737c0.201,0.044,0.201-0.118,0.401-0.068c0.39,0.363,0.796,0.717,1.133,1.133
	c0.159,0.109,0.519,0.021,0.536,0.266c-0.483,0.129-0.359,0.522-0.536,0.87c0.142,0.174,0.342,0.28,0.401,0.537
	c0.914-0.029,1.345,0.947,2.135,1.136c0.449,0.103,1.027-0.139,1.404,0.266c0.502-0.124,1.051-0.204,1.605-0.266
	c-0.083-1.209-1.463-1.614-1.004-2.941c-0.265-0.49-0.643-0.867-0.932-1.336c0.248-0.431,0.136-1.528,0.059-2.068
	c-0.637-0.472-1.764-0.457-2.129-1.2c0.047-0.239,0.153-0.425,0.395-0.469c0.467,0.201,1.222,0.121,1.877,0.136
	c0.501,0.292,0.896,0.699,1.268,1.13c-0.018,0.572,0.289,0.826,0.596,1.074c0.449-0.177,1.445-0.295,1.47,0.333
	c-0.603,0.328-1.517,0.348-1.735,1.065c0.467,0.602,0.561,1.166,0.402,2.139c0.183,0.215,0.602,0.198,0.796,0.398
	c0.177,0.201,0.142,0.516,0.271,0.799c0.083,0.183,0.229,0.263,0.266,0.472c0.124,0.634-0.065,1.333,0.336,1.8
	c1.269,0.377,1.292,2,2.667,2.271c0.177-0.088,0.26-0.28,0.466-0.336c-0.029-0.393-0.561-0.283-0.531-0.732
	c0.496,0.101,0.442-0.357,0.803-0.401c0.165,0.215,0.295,0.053,0.53,0c0.189-0.301,0.26-0.853,0.137-1.269
	c0.229-0.059,0.43-0.147,0.602-0.266c-0.012-0.28-0.242-0.339-0.336-0.537c0.224-0.106,0.301-0.369,0.336-0.667
	c-0.307-0.28-0.419-0.871-0.201-1.333c0.655,0.575,1.063,1.658,0.867,2.87c-0.359,0.304-0.643,0.693-0.796,1.201
	c0.2,0.195,0.035,0.761,0.259,0.938c0.49-0.085,1.027-0.516,1.139-1.003c0.06-0.245-0.047-0.54,0-0.87
	c0.366-0.879,1.334-0.348,2.137-0.534c0.736-0.168,0.784-0.994,1.403-1.268c0.248,0.723-0.342,1.566-0.673,2.135
	c-1.031,0.071-2.625,0.168-2.064,1.401c1.033-0.387,1.699,0.295,2.473,0.537c0.666,0.209,1.428,0.25,1.863,0.466
	c0.697,0.345,1.198,1.085,1.936,1.071c0.537,0.634,1.387,1.042,1.734,1.932c0.213,0.54,0.118,1.218,0.336,1.74
	c0.207,0.481,0.644,0.711,0.738,1.198c0.519-0.215,1.15-0.124,1.533,0.139c0.254-0.13,0.349-0.413,0.537-0.605
	c0.219,0.401,0.949,0.295,1.398,0.466c0.212-0.186,0.266-0.737,0.136-1.065c0.212-0.339,0.613-0.501,0.731-0.935
	c-0.106-0.227-0.384-0.286-0.401-0.605c0.194-0.2,0.442-0.356,0.667-0.531c0.171,0.168,0.212,0.458,0.336,0.669
	c0.401,0.245,1.375-0.08,1.604,0.333c-0.607,0.442-1.321,0.655-1.339,1.534c-0.006,0.23,0.225,0.644,0.271,1.003
	c0.082,0.702,0.324,1.101,0.531,1.531c0.637-0.195,0.507-0.799,0.666-1.398c0.195,0.18,0.543,0.215,0.803,0.333
	c-0.106,0.156-0.236,0.295-0.336,0.466c0.318,0.375,0.548,0.834,0.736,1.336c0.308,0.301,0.709,0.596,0.933,0.867
	c0.101,0.121,0.106,0.295,0.206,0.401c0.178,0.198,0.473,0.266,0.596,0.537c-0.012-0.036-0.129,0.106-0.129,0.132
	c-0.029,0.283,0.442,0.649,0.395,0.864c0.549-0.2,0.873,0.198,1.34,0.271c0.082,0.38,0.318,0.614,0.596,0.799
	c0.023-0.295,0.318-0.315,0.407-0.534c0.206-1.147-0.743-1.383-0.873-2.006c-0.083-0.419,0.142-1.003,0.136-1.602
	c-0.407-0.395-1.115-0.483-1.67-0.734c0.324-0.363-0.07-1.454,0.266-1.802c0.271,0.333,0.654,0.552,0.873,0.935
	c0.271-0.124,0.654-0.145,0.932-0.266c-0.041-0.33,0.106-0.478,0.266-0.602c-0.094-0.195-0.177-0.396-0.129-0.734
	c-0.23-0.192-0.325-0.528-0.402-0.867c-0.495-0.387-1.073-1.006-1.403-1.67c-0.171-0.354-0.277-0.752-0.466-1.003
	c-0.313-0.407-0.803-1.124-1.068-1.667c-0.159-0.325-0.171-0.658-0.266-1c-0.165-0.602-0.561-1.165-0.537-1.737
	c0.019-0.407,0.301-0.779,0.266-1.204c0.318-0.348,0.525-0.811,0.803-1.204c-0.225-0.126-0.201-0.504-0.266-0.799
	c-0.46-0.183-0.726-0.566-1.268-0.664c-0.219,0.186-0.372,0.407-0.668,0.531c-0.206,0.089-0.43-0.006-0.602,0.068
	c-0.43,0.183-0.359,0.664-0.802,0.864c-0.396-0.274-1.156,0-1.734-0.195c0.029-0.97-0.797-1.073-1.003-1.805
	c-0.266-0.065-0.531-0.136-0.797-0.201c0.029-0.153,0.124-0.339,0-0.466c-0.307-0.162-0.82-0.118-1.003-0.404
	c0.054-0.758-0.13-1.227,0.13-1.935c-0.59-0.434-1.186-0.855-1.864-1.201c-0.378,0.207-0.566-0.015-1.073,0
	c-0.207-0.171-0.407-0.348-0.596-0.534c-0.16,0-0.319,0-0.473,0c-0.961-1.018-2.648-1.31-3.339-2.604
	c-0.2,0.047-0.242-0.065-0.396-0.065c-0.106-0.434-0.502-0.569-0.737-0.87c-0.425-0.738-0.632-1.345-0.667-2.404
	c-0.726-0.655-0.997-1.764-1.133-3c0.101-0.188,0.207-0.375,0.266-0.602c-0.147-0.168-0.365-0.263-0.336-0.602
	c0.714-0.837,0.194-2.519,1.003-3.206c0,0.336,0,0.669,0,1.003c0.13,0.268,0.661,0.135,0.802,0.401
	c-0.171,0.41-0.313,0.847-0.466,1.269c0.561,0.667,1.162,2.112,0.531,3.003c0.619,0.711,0.472,2.207,1.203,2.802
	c0.248,0.039,0.201,0.053,0.531,0.068c0.802,0.558,1.263,1.46,2.271,1.805c0.106,0.207,0.271,0.348,0.401,0.534
	c0.537,0.138,0.943,0.31,1.469,0.531c0.271,0.118,0.537,0.315,0.803,0.404c0.123,0.038,0.336-0.03,0.466,0
	c0.466,0.103,0.796,0.489,1.132,0.731c-0.218,0.339,0.007,0.493,0,0.938c0.283,0.08,0.585,0.08,0.874,0
	c0.059-0.652,0.354-1.065,0.861-1.271c0.118,0.442-0.177,1.018-0.331,1.404c0.077,0.1,0.195,0.162,0.201,0.333
	c-0.053,0.87,0.561,1.767,0.666,2.669c0.089,0.752,0.077,0.935,0.402,1.401c0.17,0.251,0.259,0.628,0.666,0.466
	c0.33-0.316-0.053-0.752-0.064-1.136c0.254,0.042,0.271-0.165,0.466-0.195c0.018,0.31,0.229,0.431,0.265,0.731
	c0.543,0.225,0.832,0.378,1.541,0.201c0.265-0.554,0.736-0.908,1.133-1.336c0.152-0.599,0.619-0.894,0.802-1.469
	c-0.224-0.345-0.06-1.068,0.2-1.333c-0.684-0.336-0.832-1.177-1.273-1.738c-0.189-0.248-0.584-0.404-0.803-0.664
	c-0.147-0.192-0.184-0.457-0.33-0.604c-0.178-0.183-0.461-0.236-0.667-0.398c-0.354-0.28-0.679-0.761-0.867-1.071
	c-0.147-0.242-0.378-0.398-0.537-0.599c-0.218-0.292-0.354-0.69-0.596-0.935c-0.354-0.345-0.796-0.407-1.067-0.735
	c-0.148-0.177-0.295-0.483-0.408-0.734c-0.206-0.493-0.33-1.038-0.53-1.537c-0.194-0.481-0.366-0.953-0.531-1.534
	c0.331-0.555,0.054-1.333,0-2.003c-0.029-0.33,0.071-0.72,0.065-1.068c-0.006-0.386-0.106-0.734-0.065-1.071
	c0.042-0.428,0.271-0.855,0.266-1.268c-0.006-0.381-0.26-1.018-0.401-1.201c0.095-1.003-0.123-1.699-0.537-2.204
	c0.189-0.522-0.082-0.944-0.129-1.401c-0.029-0.26,0.041-0.534,0-0.8c-0.023-0.153-0.137-0.333-0.131-0.469
	c0-0.625,0.514-1.162,0.325-1.802c-0.419-0.425-1.062-0.625-1.534-1.003c0.023-0.157,0.106-0.251,0.071-0.466
	c-0.366-0.304-0.308-1.029-0.472-1.537c0.259-0.363,0.672-0.575,1.139-0.735c0.2-0.602,0.678-0.92,1.268-1.135
	c0.307-0.623,0.962-1.177,1.197-2c0.219-0.735,0.213-1.802-0.2-2.472c-0.679,0.059-1.073,0.192-1.534-0.201
	c0.106-0.519,0.266-0.985,0.602-1.268c0.709,0.08,1.357-0.339,1.47-0.935c0.083-0.434-0.295-1.08-0.396-1.534
	c-0.466-0.118-0.814-0.348-1.41-0.333c-0.147-0.289-0.271-0.616-0.395-0.935c-0.779,0.047-1.074-1.03-1.936-1.136
	c-0.336-0.042-0.584,0.08-1.003,0.136c-0.065-0.761-0.761-0.891-1.269-1.204c0.401-0.03,0.461-0.28,0.803-0.266
	c0.508,0.018,0.943,0.773,1.533,0.799c0.277,0.012,0.467-0.212,0.867-0.269c0.479,1.012,1.936,1.044,2.137,2.336
	c0.354-0.05,0.654,0.083,0.867-0.198c0.152,0.316,0.466,0.422,0.666,0.734c0.112,0.171,0.142,0.449,0.266,0.599
	c0.254,0.301,0.619,0.457,1.074,0.537c0.235-0.245,0.094-0.655-0.071-0.87c0.206-0.363-0.065-0.823,0-1.269
	c0.242-0.088,0.229-0.41,0.401-0.599c0.177-0.201,0.342,0.003,0.336-0.333c-0.012-0.628-0.767-0.39-1.268-0.735
	c0.059-0.327-0.219-0.315-0.137-0.669c-0.218-0.115-0.454-0.212-0.666-0.333c-0.366-0.855-1.115-1.33-1.404-2.271
	c-0.354,0-0.46,0.25-0.803,0.268c0.083-0.301,0.366-0.392,0.336-0.802c-0.885-0.136-1.238-0.808-1.663-1.398
	c-0.644-0.177-1.168-0.315-1.74-0.268c0.06-0.481,0.36-0.711,0.667-0.938c-0.071-0.192-0.189-0.342-0.131-0.664
	c-0.377-0.112-0.578-0.407-0.802-0.669c-0.206-0.083-0.478-0.1-0.536-0.333c0.313-0.333,0.843,0.153,1.403,0
	c-0.035,0.882,0.879,0.812,1.204,1.333c-0.106,0.097-0.06,0.345-0.065,0.537c0.271,0.168,0.254,0.631,0.731,0.599
	c0.13,0.513,0.596,0.693,0.932,1.003c0.461,1.139,1.369,1.834,2.201,2.604c0.407-0.026,0.762,0.003,1.003,0.133
	c0.802-0.215,0.531-0.896,0.401-1.404c0.295-0.147,0.425,0.177,0.803,0.135c0.2-0.003-0.095-0.496,0.2-0.401
	c0.153,0.133,0.301,0.277,0.472,0.401c0.667,0.174,1.115-0.135,1.664-0.268c0.07-0.283,0.295-0.419,0.336-0.735
	c-0.225-0.245-0.313-0.622-0.672-0.734c-0.113-0.617-0.661-0.802-0.998-1.201c-0.926,0.15-1.422-0.557-2.206-0.133
	c-0.065-0.268-0.065-0.401,0-0.669c-0.543-0.366-1.298-0.522-1.935-0.799c-0.23-0.035-0.632,0.097-0.667-0.133
	c0.095-0.218,0.247-0.375,0.33-0.602c0.514,0.186,0.644-0.313,1.41-0.133c0.295-0.165,0.266-0.802,0.667-0.935
	c0.46-0.159,0.867,0.062,1.127,0.398c-0.148,0.289-0.054,0.826-0.396,1.068c0.307,0.336,0.613,0.679,1.067,0.871
	c0.366-0.168,0.578-0.493,0.738-0.871c-0.06-0.121,0.123-0.619,0.059-1.132c-0.201-0.505-0.578-1.133-0.525-1.67
	c-0.419-0.563-0.809-1.156-0.873-2.068c-0.295-0.262-0.425-0.69-0.932-0.734c-0.449-0.401-0.596-1.1-1.074-1.472
	c-0.596-0.064-0.891,0.177-1.398,0.204c-0.254-0.132-0.454-0.501-0.867-0.268c-0.177-0.472-0.602-0.688-0.867-1.068
	c0.035-0.44-0.159-0.646-0.266-0.935c-0.035-0.212,0.33-0.024,0.266-0.269c-0.283-0.434-0.82-0.87-1.469-0.734
	c-0.266-0.381-0.768-0.522-0.731-1.201c-0.472-0.643-1.41-0.82-1.941-1.404c0.343-0.259,0.396-0.808,0.667-1.133
	c-0.165-0.029-0.52,0.015-0.531-0.333c0.39-0.139,0.756,0.183,1.197,0.201c0.089,0.333,0.277,0.569,0.408,0.867
	c0.283,0.018,0.212-0.316,0.465-0.333c0.219,0.646,1.233,0.499,1.27,1.333c0.26,0.145,0.643,0.153,1.062,0.133
	c0.171,0.23,0.343,0.451,0.2,0.802c0.372,0.301,1.068,0.268,1.54,0.469c-0.023,0.292,0.077,0.915,0.136,1.333
	c0.596,0.056,1.357-0.28,1.936-0.466c0.224,0.475,0.266,1.422,1.067,0.935c0.018-0.203-0.077-0.519,0.13-0.534
	c1.133,0.083,1.068-1.029,2.076-1.071c0.143-0.207,0.207-0.501,0.266-0.799c-0.625-0.28-1.021,0.218-1.539,0.133
	c-0.16-0.027-0.39-0.257-0.603-0.401c-0.625-0.431-0.985-1.009-1.197-1.734c-0.483-0.145-0.667-0.578-0.938-0.935
	c-0.637-0.147-0.873-0.625-1.133-1.136c-0.094-0.171-0.336-0.363-0.2-0.534c0.454-0.191,0.761,0.292,1.333,0.204
	c0.23,0.192,0.307,0.543,0.473,0.799c0.365,0.207,0.926,0.228,1.127,0.599c-0.271,0.395,0.129,0.953,0.206,1.404
	c0.626,0.154,0.685,0.858,1.333,0.8c0.602-0.056,0.52-0.793,1.068-1.068c0-0.177-0.023-0.381,0.07-0.466
	c0.349-0.295,0.502-0.791,0.732-1.2c-0.402-0.313-0.52-0.295-1.139-0.204c0-0.133,0-0.266,0-0.401
	c-0.396,0.023-0.455-0.295-0.732-0.398c-0.489,0.047-0.731-0.16-0.932-0.401c0.171-0.071,0.059-0.431,0.194-0.534
	c0.826-0.021,1.451,0.157,1.741,0.67c0.324,0.059,0.253-0.28,0.53-0.269c0.106,0.162,0.136,0.396,0.271,0.534
	c0.85,0.141,1.073-0.572,1.599-0.936c0.165,0.375,0.803,0.266,0.803,0.803c0.377,0,0.395-0.363,0.666-0.469
	c0.26-0.145,0.484-0.315,0.531-0.667c-0.201-0.218-0.809-0.036-0.932-0.333c0.064-0.292,0.478-0.236,0.536-0.534
	c-0.224-0.944-0.938-1.608-0.667-2.673c-0.389-0.563-1.168-0.746-1.805-1.068c0.248-0.197,0.365-0.519,0.537-0.799
	c0.514-0.177,1.062-0.003,1.268,0.333c0.62-0.062,1.01,0.1,1.47,0.198c0.277,0.678,0.914,1.678-0.337,1.87
	c0.018,0.156,0.106,0.25,0.071,0.466c0.324,0.101,0.743,0.104,0.997,0.269c-0.371,0.54,0.101,1.121,0.271,1.537
	c-0.289,0.25-0.029,1.038-0.207,1.401c0.39,0.767,1.305,0.366,1.34-0.466c0.266-0.18,0.549-0.339,0.731-0.602
	c-0.112-0.519,0.247-0.658,0.271-1.068c0.023-0.534-0.354-0.788-0.608-1.268c-0.194-0.387-0.406-1-0.395-1.333
	c0.006-0.153,0.212-0.36,0.266-0.602c0.129-0.572,0.188-0.749,0.466-1.07c0.047-0.251-0.077-0.319-0.065-0.534
	c0.266-0.136,0.75-0.416,0.867-0.867c0.143-0.537,0.012-1.318-0.2-1.734c-0.495-0.009-1.056,0.28-1.534,0.065
	c0.301-0.522,1.092-0.342,1.67-0.599c0.33-0.15,0.377-0.439,0.731-0.466c0.006,0.168,0.26,0.091,0.266,0.266
	c-0.171,0.227-0.136,0.664-0.13,1.067c0.23,0.239,0.531,0.401,0.667,0.735c-0.295,0.38-0.319,0.911-0.603,1.404
	c-0.176,0.307-0.519,0.466-0.602,0.8c-0.076,0.318,0.065,0.64,0,0.935c-0.094,0.472-0.584,0.785-0.466,1.333
	c0.048,0.307,0.472,0.263,0.803,0.537c0.324,0.262,0.365,0.675,0.667,0.734c0.359,0.062,0.684-0.263,0.932-0.605
	c0.336-0.224,0.678-0.437,1.003-0.667c-0.177-0.392,0.106-0.74,0.2-1.068c1.416,0.307,1.363-0.867,1.734-1.602
	c0.555-0.192,1.192-0.283,1.67-0.602c0.348-0.228,0.566-0.614,0.938-0.8c0.467-0.236,0.969-0.23,1.133-0.669
	c0.089-0.808-0.354-1.537,0-2.204c-0.194-0.201-0.117-0.678-0.129-1.068c-0.219-0.23-0.443-0.454-0.673-0.667
	c-0.366,0.074-0.644-0.035-0.803-0.333c0.06-0.015,0.083-0.056,0.071-0.133c0.076-0.171,0.52,0.027,0.602-0.132
	c0.242-0.625,0.371-1.062,0.666-1.602c0.349-0.652,0.578-1.15,1.398-1.136c0.318-0.669,1.404-0.557,2.006-0.938
	c0-0.242,0-0.486,0-0.734c0.213,0.015,0.283-0.118,0.531-0.065c-0.13,0.894,1.08,1.012,1.54,1.534
	c0.218-0.424,0.425-0.861,0.466-1.469c0.225-0.383,1.133-0.41,1.534-1c0.206-0.295,0.265-1.088,0.602-1.068
	c0.194,0.009,0.235,0.525,0.401,0.534c-0.372,0.431-0.307,1.295-1.003,1.401c0.183,0.499-0.307,1.251,0.071,1.734
	c-0.378,0.475-0.874,0.823-0.803,1.738c-0.49,0.717-1.115,1.292-1.003,2.604c-0.26,0.419-1.044,1-0.401,1.534
	c0.896-0.126,1.327-0.714,1.604-1.466c0.372,0.018,0.366-0.345,0.603-0.469c1.014-0.584,1.999-1.197,2.602-2.203
	c0.501,0.1,0.53-0.266,0.802-0.398c0.159,0.239,0.708,0.088,1.067,0.133c-0.029-0.428,0.195-0.608,0.131-1.071
	c0.383-0.292,0.418-0.767,0.666-1.136c0.254-0.369,0.756-0.531,1.003-0.867c0.354-0.478,0.319-1.245,0.938-1.534
	c0.147,0.091,0.212,0.274,0.33,0.401c-0.384,0.685-0.566,1.569-0.932,2.269c-0.779-0.023-0.826,0.688-1.34,0.938
	c-0.059,0.263,0.207,0.198,0.136,0.466c-0.431,0.342-0.696,0.858-1.197,1.135c-0.502-0.047-0.897,0.446-1.47,0.531
	c0,0.351-0.165,0.437-0.266,0.802c0.438,0.28,1.063,0.333,1.664,0.136c0.035,0.386,0.461,0.383,0.602,0.664
	c-0.254-0.047-0.146,0.257-0.33,0.269c-0.277-0.059-0.466-0.209-0.737-0.269c-0.578,0.537-1.445-0.006-2.401,0.136
	c0.147,0.466-0.123,0.658-0.206,1.068c-0.702-0.215-1.263,0.224-1.664,0.534c-0.071,0.127-0.089,0.316-0.136,0.469
	c-0.702,0.457-1.038,1.266-1.604,1.867c-0.555,0.599-1.362,0.956-1.8,1.669c0.16,0.419,0.432,0.729,0.673,1.068
	c0.307-0.026,0.59,0.209,0.933,0.266c0.254,0.047,0.625-0.147,0.802,0.136c-0.006,0.221-0.384,0.068-0.472,0.201
	c-0.295,0.307-0.525,0.672-0.938,0.867c0-0.201,0-0.401,0-0.602c-0.443,0.047-0.649-0.256-0.998-0.466
	c-0.507,0.743-2.79,0.404-3.209,0c-0.254,0.271-0.679-0.026-1.063,0.133c-0.059,0.876-0.561,1.307-1.139,1.669
	c0,0.513,0.385,0.643,0.537,1.003c0.071,0.289-0.146,0.295-0.271,0.398c-0.1,0.139-0.059,0.428-0.266,0.469
	c-0.447,0-0.377-0.51-0.465-0.867c-1.016-0.201-2.077,0.442-2.271,1.133c-0.095,0.333,0.07,0.705,0,1.071
	c-0.071,0.404-0.438,0.649-0.331,1.065c-0.431,0.262-0.578,0.805-0.873,1.203c-0.153,0-0.194-0.115-0.396-0.068
	c-0.229,0.676-0.483,0.933-0.537,1.738c-0.53,0.493-0.748,1.295-1.197,1.87c0,0.177,0,0.354,0,0.534
	c-0.82,1.345-1.888,2.425-2.07,4.404c0.136,0.171,0.377,0.245,0.731,0.201c0.301,0.613,0.985,0.734,1.067,1.404
	c0.035,0.227-0.135,0.434-0.135,0.667c0.006,0.336,0.259,0.852,0.406,1.265c0.295,0.844,0.514,1.894,0.396,2.808
	c-0.071,0.587-0.549,1.062-0.531,1.534c0.024,0.684,0.85,1.1,1.139,1.469c0.354-0.088,0.915,0.074,1.327,0.133
	c0.112-0.136,0.054-0.437,0.207-0.534c-0.124-0.298-0.371-0.475-0.473-0.802c0.408-0.286,0.113-0.906-0.265-1
	c-0.13-0.298-0.06-0.381-0.136-0.735c0.625-0.534,0.555-1.746,0.271-2.537c1.026,0.026,1.262-0.737,1.864-1.136
	c0.206,0.153,0.218,0.499,0.536,0.537c0.537-0.198,0.897-0.575,1.534-0.67c0.188-0.28,0.271-0.664,0.667-0.734
	c0.111,0.295,0.389,0.413,0.803,0.401c-0.106-1.266,0.967-1.348,1.869-1.602c-0.123-0.345-0.336-0.383-0.2-0.867
	c0.319-0.186,0.879-0.437,1.204-0.068c-0.06,0.274-0.207,0.457-0.266,0.734c-0.213-0.059-0.207,0.104-0.336,0.133
	c-0.313,0.501-0.756,1-1.27,1.333c-0.441,0.295-0.584,0.548-0.932,0.87c-0.342,0.31-0.731,0.454-1.203,0.602
	c-0.366,0.761-1.198,1.363-0.998,2.469c-0.354,0.142-0.313,0.669-0.672,0.799c-0.177-0.13,0.1-0.723-0.266-0.667
	c-0.354,0.15-0.66,0.466-0.666,0.734c-0.012,0.41,0.578,0.59,0.4,1.136c0.136,0.198,0.484,0.183,0.596,0.401
	c-0.041,0.782-0.248,1.401-0.064,2.068c-1.363,0.015-1.375,1.387-2.407,1.734c-0.106-0.156-0.147-0.383-0.194-0.599
	c-0.348-0.121-0.696-0.239-1.139-0.269c-0.649,0.572-0.95,1.269-0.596,2.071c0.307,0.702,0.666,1.345,1.333,1.469
	c0.083,0.445,0.442,0.507,0.53,0.935c0.077,0.345-0.158,0.885-0.129,1.136c0.029,0.301,0.248,0.428,0.266,0.734
	c0.26-0.029,0.183-0.395,0.537-0.333c-0.16,0.342-0.461,0.864-0.337,1.269c0.437,0.085,0.749-0.38,1.003-0.669
	c0.248-0.286,0.602-0.614,0.731-0.932c0.042-0.092-0.041-0.277,0-0.469c0.018-0.094,0.177-0.177,0.2-0.269
	c0.036-0.115-0.082-0.15-0.064-0.265c0.018-0.156,0.13-0.189,0.13-0.269c0.012-0.271-0.089-0.552-0.13-0.799
	c0.189-0.298,0.413-0.566,0.531-0.935c-0.16-0.236-0.679-1.289,0-1.333c0.301,0.587,0.749,1.033,0.602,2.068
	c-0.112,0.286-0.377,0.422-0.466,0.734c0.301,0.215,0.142,0.59,0.064,0.932c0.266,0.266,0.62,0.109,1.003,0.269
	c0.378,0.159,0.52,0.513,0.867,0.534c0.336,0.024,0.396-0.295,0.738-0.197c0.247,0.191,0.2,0.513,0.395,0.734
	c0.201,0.209,0.525,0.186,0.673,0.466c-0.743,1.03-1.699-0.767-2.343-0.867c-0.719,0.05-1.723-0.171-2.064,0.266
	c0,0.201,0,0.401,0,0.602c-0.425,0.109-0.525,0.546-1.068,0.534c-0.105,0.283-0.117,0.867,0.065,1.068
	c0.26-0.124,0.614-0.145,0.938-0.201c0.171-0.248,0.212-0.549,0.466-0.734c0.018-0.015,0.266,0.006,0.396-0.068
	c0.183-0.094,0.141-0.156,0.271-0.198c0.283-0.091,0.648-0.1,0.932-0.133c0,0.136,0.365,0.251,0.207,0.331
	c-0.867-0.015-1.352,0.348-1.74,0.802c0.07,0.236,0.4,0.221,0.4,0.534c-0.124,0.1-0.165,0.277-0.336,0.333
	c-0.785-0.33-1.511,0.404-2.201,0.602c0.048,0.398,0.283,0.611,0.467,0.871c-0.473,0.345-0.455,1.191-0.738,1.734
	c0.378,0.103,0.644-0.254,0.803-0.133c-0.035,0.445-0.307,0.723-0.266,1.133c0.041,0.383,0.455,0.726,0.537,1.068
	c1.232,0.298,1.717-0.41,2.271-0.932c-0.201,0.407-0.101,0.702,0.064,1.068c-0.383,0.062-0.625,0.262-0.867,0.466
	c-0.082,0.319-0.105,0.702-0.4,0.802c-0.791-0.204-1.776-0.602-2.343-1.071c-0.478-0.398-0.384-1.062-0.731-1.667
	c-0.047-0.207,0.183-0.13,0.136-0.336c-0.384-0.82-1.445-0.956-1.806-1.802c-0.389-0.053-0.507-0.08-0.796-0.132
	c-0.266-1.154,0.72-1.062,0.661-2.003c-0.632-0.225-0.608,0.077-1.063,0.534c-0.531,0.528-0.997,0.882-1.203,1.602
	c-0.909,0.077-1.352,0.611-1.469,1.469c-0.283,0.274-0.649,0.463-0.738,0.935c0.26,0.035,0.479,0.1,0.673,0.201
	c-0.283,0.407-0.708,0.672-1.067,1.003c-0.019,0.472-0.184,0.799-0.271,1.2c-0.248,0.171-0.426,0.422-0.531,0.735
	c-0.012,0.207,0.206,0.188,0.136,0.466c-0.159,0.38-0.06,0.679-0.071,1.071c-0.012,0.431-0.159,0.915-0.2,1.401
	c-0.012,0.13,0.071,0.283,0.065,0.398c-0.024,0.965-0.508,1.652-0.065,2.336c0.714-0.104,1.127-0.74,1.669-1.201
	c0.125-0.655-0.146-0.92-0.4-1.201c-0.053-0.876,0.489-1.156,0.803-1.669c-0.213-0.142-0.254-0.46-0.402-0.667
	c0.195-0.186,0.307-0.451,0.402-0.734c-0.277-0.145-0.308-0.54-0.266-1c0.336-0.021,0.441-0.271,0.796-0.269
	c0.089-0.655,1.05-0.717,1.269-1.269c0.153-0.375-0.035-0.708-0.064-1.271c0.111,0.115,0.395,0.056,0.602,0.071
	c-0.054,0.274,0.194,0.251,0.266,0.398c-0.166,0.545-0.225,1.195-0.467,1.669c-0.637,0.454-1.191,0.988-1.734,1.537
	c0.448,0.64,0.324,1.434,0.266,2.336c0.702,0.053,1.038,0.472,1.67,0.599c0.248-0.578-0.012-1.036-0.201-1.537
	c0.142-0.28,0.301-0.542,0.401-0.867c0.507-0.207,1.015-0.41,1.269-0.867c-0.171-0.227-0.448-0.705-0.401-0.935
	c0.313,0.068,0.419,0.336,0.737,0.404c0.184-0.263,0.33-0.561,0.667-0.67c-0.054,0.339,0.425,0.153,0.396,0.466
	c-0.271,0.758-0.118,1.36,0.537,1.469c0.188,0.033,0.377-0.142,0.602-0.133c0.313,0.012,0.478,0.168,0.666,0.336
	c-0.2,0.218-0.117,0.726-0.4,0.867c-0.343,0.033-0.408-0.215-0.803-0.136c0.018-0.242-0.124-0.321-0.13-0.534
	c-0.708-0.047-0.927,0.259-1.204,0.599c-0.277,0.345-0.412,0.36-0.33,0.87c0.095,0.572,0.443,1.493,0.797,1.735
	c0.52-0.036,0.142-0.971,0.537-1.133c0.441-0.044,0.578,0.224,0.666,0.531c-0.23,0.192-0.578,0.271-0.731,0.537
	c0.188,0.634,0.413,1.233,0.667,1.802c0.324-0.147,0.654-0.363,0.395-0.734c0.372-0.637,1.499-0.988,1.004-2.071
	c0.094-0.218,0.377-0.245,0.602-0.333c0.289,0.189,0.188,0.463,0.537,0.534c0.418,0.088,0.932-0.339,1.067-0.667
	c0.053-0.274-0.212-0.23-0.136-0.534c0.219-0.452,0.607-0.729,0.867-1.136c0.177,0,0.384,0.026,0.466-0.065
	c0.308-0.472,0.13-0.894-0.064-1.336c0.212-0.207,0.867-0.012,1.133,0.133c-0.006,0.369-0.366,0.386-0.331,0.802
	c0.118,0.39,0.649,0.372,0.531,1c-0.295,0.218-0.914,0.109-1.398,0.136c-0.224,0.292-0.572,0.682-0.271,1.133
	c0.426,0.068,1.133-0.147,1.34,0.136c-0.26,0.269-0.72,0.351-1.068,0.531c-0.035,0.369-0.277,0.528-0.602,0.602
	c-0.508-0.183-0.826-0.625-1.404-0.469c-0.4,0.115-0.406,0.767-0.861,0.805c0,0.531,0,1.068,0,1.602
	c0.143,0.142,0.366,0.207,0.467,0.401c0.301-0.239,0.678-0.059,1.002-0.136c0.266-0.062,0.62-0.277,0.933-0.401
	c0.749-0.292,1.239-0.513,1.806-0.802c0.117,0.145,0.041,0.489,0.059,0.734c-0.354-0.094-0.537,0.201-0.861,0.336
	c-0.696,0.289-1.581,0.295-1.876,0.734c-0.012,0.637-0.083,1.327,0.407,1.469c0.442-0.418,1.321,0.168,1.664-0.135
	c0-0.242,0-0.49,0-0.735c0.4-0.224,0.666-0.581,1.073-0.799c1.044,0.974-0.938,1.398-1.073,2.204c-0.06,0.369,0.064,0.847,0.536,1
	c0.219-0.168,0.071-0.455,0.266-0.534c0.307,0.062,0.531,0.375,0.867,0.201c0.501,0.569,1.15,0.985,1.604,1.602
	c0.16,0.109,0.384,0.151,0.537,0.269c0.023,0.23-0.342,0.254-0.142,0.466c0.242,0.204,0.655,0.239,0.938,0.401
	c-0.143,0.083-0.283,0.163-0.401,0.269c-0.62-0.649-2.018-0.516-2.667-1.136c-0.79,0.156-0.967,0.493-1.604,0.266
	c-0.772-0.271-1.168-1.885-2.271-0.867c-0.283-0.271-0.968-0.142-1.203-0.466c0.584-0.327,0.561-0.858,0.873-1.404
	c-1.15-0.941-1.753,0.82-2.809,1.003c-0.241-0.357-1.009-0.186-1.397-0.401c0.123-0.165,0.224-0.351,0.266-0.602
	c-0.271-0.363-1.157-0.192-1.404,0.068c-0.06,0.324,0.094,0.442,0.135,0.667c-0.241,0.159-0.513,0.289-0.932,0.269
	c0.029-0.793-0.496-1.018-0.673-1.602c-0.241,0-0.489,0-0.731,0c-0.242,0.741,0.467,1.036,0.667,1.602
	c0.089,0.239,0.035,0.51,0.136,0.802c0.248,0.109,0.689,0.021,0.731,0.333c-0.183,0.395-0.277,0.879-0.596,1.136
	c-0.772-0.652-1.682,0.138-2.271,0.466c0.095,0.271,0.006,0.321,0.065,0.602c0.483,0.142,0.613,0.183,1.138,0.065
	c0.26,0.286,0.638,0.348,0.797,0.802c0.136,0.384-0.147,1.044,0.401,1.136c0.271-0.064,0.188-0.48,0.4-0.602
	c0.479-0.101,0.584,0.177,0.938,0.201c0.384-0.331-0.165-0.864,0.466-1.003c0.225,0.106,0.047,0.616,0.201,0.802
	c0.767-0.142,1.026-1.286,0.861-1.938c0.867-0.015,0.826,0.749,1.94,0.602c0.171-0.118,0.266-0.31,0.531-0.333
	c-0.06-0.534,0.832-0.868,0.938-0.269c-0.325,0.015-0.438,0.23-0.603,0.401c0,0.225,0,0.446,0,0.67
	c-0.849,0.085-1.894-0.026-2.206,0.599c0.637,0.233,0.637,1.104,1.469,1.136c-0.088,0.38,0.49,0.425,0.607,0.799
	c-0.283-0.074-0.342-0.375-0.802-0.265c-0.578-0.384-1.062-0.853-1.806-1.068c-0.153,0.271,0.106,0.392,0.064,0.734
	c-1.592-0.08-2.371,0.49-2.465,1.802c0.295,0.035,0.289,0.375,0.265,0.734c-0.673-0.088-0.932,0.224-1.269,0.466
	c0.029,0.507-0.283,0.699-0.266,1.068c0.03,0.628,0.826,0.702,0.661,1.336c-0.772-0.248-1.304-0.899-1.327-1.669
	c0.442-0.375,0.607-1.035,0.861-1.602c-0.23-0.189-0.242-0.605-0.596-0.667c-0.101,0.083-0.065,0.289-0.336,0.201
	c-0.083,0.248-0.213,0.454-0.402,0.602c-0.961-0.071-1.557,0.224-1.935,0.731c0.023,0.643,0.431,0.905,0.466,1.537
	c0.438,0.301,0.419,0.853,0.738,1.269c0.259,0.348,0.689,0.552,0.932,0.864c0.094,0.124,0.177,0.383,0.271,0.537
	c0.111,0.197,0.183,0.348,0.266,0.537c0.266,0.617,0.318,1.088,0.33,1.734c0.018,0.679,0.407,1.227,0.537,1.935
	c0.437,0.006,0.313-0.389,0.602-0.466c0,0,0.514,0.239,0.596,0.068c0.342,0.418,0.531,0.979,1.139,1.136
	c0.225-0.28-0.053-0.511,0-0.806c0.047-0.292,0.301-0.522,0.33-0.796c0.035-0.271-0.053-0.493-0.064-0.737
	c0.195-0.05,0.177-0.315,0.472-0.266c0.213,0.112,0.296,0.363,0.396,0.599c-0.076,0.236-0.26,0.36-0.266,0.67
	c0.372,0.333,0.838,0.59,1.534,0.599c0.324,0.487,1.05,0.478,1.339,1.003c0.142,0.26,0.089,0.487,0.201,0.864
	c0.478,0.098,0.625,0.531,0.861,0.87c-0.75,0.407-0.189,1.298,0.336,1.537c0.52-0.009,1.063-0.039,1.333,0.198
	c-0.384,0.634-1.563,1.124-1.062,2.207c0.442-0.095,0.743-0.325,1.269-0.333c-0.095-0.575-0.325-1.354,0.33-1.469
	c0.36,0.121,0.401,0.381,0.401,0.732c0.301,0.162,0.803,0.132,0.803,0.604c0.247,0.047,0.318-0.085,0.53-0.071
	c-0.147,0.218,0.124,0.469,0.136,0.734c-0.147,0.209-0.514,0.204-0.602,0.469c-0.076,0.085,0.26,0.31,0.136,0.664
	c0.259,0.015,0.489,0.006,0.667-0.062c0.33,0.269,0.637,0.561,0.867,0.932c0.146,1.098,1.297,1.195,2.135,1.602
	c0.213-0.85-0.253-1.582-0.266-2.269c-0.012-0.581,0.391-1.263-0.135-1.734c0.242-0.248,0.531-0.449,0.802-0.67
	c-0.218-0.938-1.126-1.183-1.74-1.734c0.319-0.068,0.483-0.28,0.737-0.404c0.035-0.829,0.855-1.109,1.34-1.735
	c0.094-0.118,0.152-0.377,0.266-0.534c0.152-0.218,0.271-0.271,0.33-0.469c0.059-0.186-0.095-0.372-0.064-0.528
	c0.023-0.115,0.2-0.292,0.271-0.404c0.083-0.147,0.089-0.304,0.266-0.398c0.454,0.301,1.079,0.428,1.47,0.802
	c-0.089,0.496,0.489,0.46,0.596,0.864c0.076,0.269-0.154,0.791-0.065,1.136c-0.313,0.068-0.59,0.165-0.938,0.201
	c-0.389,0.604-1.527,0.472-2.2,0.799c-0.2,0.985,0.614,0.979,0.933,1.672c0.076,0.156,0.012,0.295,0.07,0.398
	c0.13,0.221,0.461,0.289,0.401,0.599c0.235-0.006,0.295-0.186,0.53-0.198c0.083,0.876,0.473,1.445,0.938,1.938
	c-0.171,0.283-0.265,0.962-0.206,1.269c0.507,0.136,0.967-0.266,1.475-0.336c0.106-0.23,0.165-0.504,0.266-0.737
	c-0.39-0.269-0.826-0.51-0.667-1.33c0.23-0.301,0.614-0.458,0.867-0.738c-0.064-0.51,0.296-0.59,0.401-0.932
	c-0.342-0.339-0.401-0.891-0.266-1.269c0.124-0.339,0.661-0.56,0.933-0.935c0.188-0.259,0.259-0.584,0.401-0.799
	c0.212-0.31,0.447-0.448,0.53-0.737c0.731-0.366,1.333-0.85,1.941-1.336c-0.142-0.956,0.501-1.602,1.133-2
	c-0.159-0.988,0.53-1.864,0.737-2.737c0.064-0.28-0.006-0.472,0.064-0.734c0.124-0.439,0.166-0.572,0.467-0.734
	c0.152,0.363,0.561,0.46,0.932,0.599c0.283,1.301-0.602,1.439-1.463,1.602c0.018,0.142-0.184,0.245-0.201,0.333
	c-0.194,0.737,0.277,1.351,0.732,1.602c-0.36,0.316-0.479,0.861-1.269,0.738c0.018,0.28-0.254,0.28-0.266,0.537
	c0.247,0.251,0.077,0.628,0,0.932c-1.139,0.507-1.204,2.088-2.206,2.737c-0.16,0.339-0.03,0.582-0.131,0.865
	c-0.129,0.369-0.513,0.537-0.602,0.87c-0.094,0.351,0.065,0.737,0,1.268c-0.619,0.147-0.896,1.18-0.4,1.67
	c-0.042,0.395,0.047,0.664,0.135,0.935c0.502,0.097,0.543,0.655,0.803,1.003c0.266-0.027,0.637,0.059,0.803-0.071
	c0.012-0.047,0-0.13,0.059-0.13c0.118-0.454-0.324-0.345-0.266-0.737c0.13-0.484,0.514-0.72,0.473-1.201
	c0.206,0.507,0.873,0.552,1.397,0.731c0.555-0.555,2.019-1.124,3.009-0.599c-1.345,0.059-2.695,0.64-3.539,1.401
	c0.348,0.08,0.43,0.413,0.666,0.605c0.425-0.071,1.139-0.03,1.463,0.2c-0.26,0.154-0.441,0.393-0.66,0.599c-0.112,0-0.225,0-0.336,0
	c-0.443,0.531-1.245,0.714-1.871,1.068c-0.26-0.009-0.2-0.289-0.466-0.133c-0.784,0.331-1.87,0.354-2.472,0.87
	c-0.371-0.227-1.051,0.059-1.398,0.266c-0.266,0.555,0.059,1.071,0,1.531c-0.07,0.516-0.613,0.802-0.672,1.339
	c0.229,0.177,0.412,0.386,0.466,0.734c0.731-0.136,1.386,1.118,2.076,0.266c-0.142-0.239-0.354-0.407-0.401-0.734
	c0.295,0.053,0.271-0.212,0.467-0.266c0.313,0.348,0.984,0.112,1.469,0.068c0.49,0.363,0.714,0.74,1.333,0.599
	c0.502-0.118,0.761-0.799,1.269-0.87c0.142,0.13,0.318,0.218,0.537,0.271c0.188-0.531,1.104-0.731,1.333-0.068
	c0.343-0.174,0.772-0.198,1.204-0.469c0.483-0.31,0.713-0.799,1.133-0.799c0.247,0,0.607,0.207,0.73,0.534
	c-0.754-0.059-1.368,0.781-1.598,1.268c-1.021,0.339-2.26,0.163-3.139,0.802c0.129,0.201,0.158,0.505,0.135,0.865
	c0.143,0.153,0.449,0.678,0.131,0.87c-0.455-0.059-0.384-0.679-0.868-0.537c-0.371,0.496-0.867,0.87-1.333,1.274
	c-0.213,0.693,0.041,1.92,0.731,1.935c0.349,0.006,0.325-0.318,0.737-0.404c0.266,0,0.401,0.133,0.667,0.133
	c0.407-0.327,0.896,0.015,1.269,0c0.088-0.003,0.117-0.106,0.2-0.133c0.638-0.165,0.979-0.339,1.534-0.534
	c-0.035-0.319-0.342-0.369-0.401-0.669c0.183-0.209,1.038-0.339,1.269-0.062c-0.277,1.41-1.28,2.103-2.336,2.734
	c-0.443-0.277-0.921,0.236-1.263,0.469c0.136,0.369,0,0.667-0.337,0.737c-0.253-0.124-0.301-0.463-0.466-0.67
	c-0.372-0.118-0.772-0.006-1.139,0.065c-0.118,0.407,0.06,0.814,0.065,1.401c-0.33-0.088-0.26,0.23-0.467,0.269
	c-0.1,0.413-0.395,0.708-0.666,1.135c-0.348,0.546-0.974,0.988-0.602,1.735c0.973-0.118,0.914-1.269,1.805-1.469
	c-0.047,0.814,0.064,1.581-0.336,2.139c0.242,0.136,0.478,0.274,0.537,0.599c-0.426-0.064-0.537,0.18-0.938,0.133
	c-0.235-0.023-0.142-0.389-0.401-0.398c-0.383,0.259-0.619,0.672-0.737,1.198c0.384,0.604,0.897,1.067,1.54,1.407
	c0.271-0.201,0.383-0.555,0.666-0.737c0.467,0.25,0.673,0.118,1.27,0.068c0.247-0.501,1.014-0.791,0.73-1.602
	c0.343-0.177,0.602-0.427,1.21-0.333c0.349-0.251,0.478-0.673,1.062-0.802c0.531-0.112,1.239,0.115,1.74,0
	c0.319-0.074,0.384-0.31,0.667-0.401c0.071,0.372,0.177,0.711,0.13,1.204c0.667-0.053,0.708-0.723,1.139-1.003
	c-0.006-0.566,0.183-0.929,0.602-1.065c-0.047,0.844,0.879,1.177,1.806,1.266c0.324,0.425,0.938,0.572,1.469,0.802
	c0.147-0.36,0.366-0.655,0.731-0.802c0.023-0.776,0.59-1.012,0.867-1.537c4.844-0.628,9.641-1.307,14.49-1.935
	c0.018-0.442-0.378-0.823-0.271-1.136c0.495,0.033,0.259,0.387,0.466,0.667c0.253-0.015,0.478-0.059,0.667-0.132
	c0.194-0.266,0.235-0.608,0.135-1.003c0.16-0.422,0.366-0.791,0.401-1.331c-0.307-0.201-0.602-0.419-0.731-0.805
	c0.607-0.142,0.731-0.776,1.398-0.864c0.117-0.266,0.324-0.439,0.537-0.602c-0.054-0.413,0.229-0.486,0.466-0.604
	c0.136,0.088,0.118,0.324,0.401,0.271c0.289,0.044,0.152-0.339,0.466-0.271c0.378,0.094,0.549,0.389,0.933,0.469
	c0.235-0.434,0.301-1.038,0.271-1.734c0.337-0.581,0.772-1.053,0.803-1.938c0.33-0.372,0.655-0.77,1.003-1.136
	c-0.342-0.445,0.295-0.661,0.395-1.065c-0.265-0.495,0.083-0.876-0.129-1.469c0.33-0.466,0.52-1.083,1.133-1.269
	c0.105-0.451-0.277-0.569-0.13-0.87c0.147-0.147,0.265,0.071,0.53,0c0.366-0.475,0.873-0.82,1.534-1.003
	c0.077-0.28,0-0.708,0.2-0.864c-0.012,0.236,0.095,0.348,0.337,0.333c0.301,0.029,0.431-0.452,0.667-0.269
	c-0.266,0.599-1.257,0.915-1.404,1.602c-0.166,0.791,0.142,1.655,0.607,2.139c0.613-0.118,0.324-1.142,0.66-1.534
	c0.402,0.038,0.667-0.05,0.938-0.133c0.142-0.685,0.755-0.891,1.139-1.336c-0.118-0.345-0.089-0.307,0-0.669
	c0.271-0.236,0.483-0.531,0.731-0.799c-0.023-0.513,0.236-0.744,0.201-1.269c0.896-0.95,1.374-2.318,2.129-3.407
	c-0.253-0.431-0.406-0.967-0.861-1.203c-0.171,0.126-0.371,0.094-0.536,0.139c-0.194,0.044-0.384,0.18-0.537,0.194
	c-0.035,0.006-0.212-0.129-0.331-0.129c-0.241,0.003-0.247,0.129-0.471,0.129c-0.166-0.23-0.797,0-0.933-0.262
	c0.342-0.236,1.079-0.086,1.403-0.336c0.131-0.269,0.319-0.487,0.467-0.731c-0.277-0.531,0.225-1.425-0.266-1.935
	c-0.826-0.198-1.381-0.67-2.136-0.941c0.46-0.504,1.434-0.029,1.935,0.071c0.143,0.437,0.614,0.545,0.732,1.003
	c0.495,0.067,0.749,0.407,1.203,0.265c0.543-0.168,0.467-0.853,0.531-1.401c-0.578-0.599-0.832-1.525-1.599-1.938
	c-0.054-0.628-0.531-0.799-1.003-0.868c-1.104-0.162-2.342-0.015-3.469-0.064c-2.667-0.124-5.416,0.059-8.213-0.068
	c-6.678-0.31-13.74-0.124-20.566-0.266c-1.598-23.967-3.539-47.999-4.672-72.306c-0.248-5.315-0.762-10.672-1.003-16.023
	c-71.273,0.135-142.629,0.194-213.967,0.268c-0.339,11.858-0.511,23.876-0.669,35.917C87.417,143.116,87.623,143.246,88.013,143.158
	z"/>
<path fill-rule="evenodd" clip-rule="evenodd" d="M285.23,123.86c-0.455,0.118-0.413-0.25-0.803-0.198
	c-0.136,0.708-0.307,1.439-0.336,2.404c0.437,0.026,0.508,0.425,0.873,0.531c0.029-0.434,0.531-0.398,0.731-0.667
	c0.042-0.569-0.295-0.95,0-1.401C285.449,124.397,285.378,124.09,285.23,123.86z"/>
<path fill-rule="evenodd" clip-rule="evenodd" d="M274.281,136.482c-0.762-0.056-0.756,0.838-0.408,1.201
	c0.266-0.142,0.484-0.321,0.738-0.466C274.346,136.975,274.546,136.662,274.281,136.482z"/>
<path fill-rule="evenodd" clip-rule="evenodd" d="M267.667,139.818c-0.241,0-0.489,0-0.731,0c-0.118,0.442-0.118,0.561,0,1
	C267.455,140.665,267.721,140.399,267.667,139.818z"/>
<path fill-rule="evenodd" clip-rule="evenodd" d="M270.47,165.921c0.431-1.1-0.561-1.625-0.597-2.669
	c0.525-0.106,0.614-0.269,0.933,0.133c-0.029-0.342,0.283-0.339,0.337-0.602c-0.089-0.363,0.012-0.85,0.064-1.269
	c-0.39-0.342-0.768-0.699-1.133-1.068c0.537-0.227,1.098,0.142,1.534-0.333c0.159,0.15,0.372,0.251,0.466,0.469
	c-0.479,1.041-0.696,2.708,0.537,3.071c0.153-0.867-0.136-2.183,0.731-2.336c0.442,0.227,0.944,0.387,0.802,1.201
	c0.219,0.139,0.396,0.318,0.803,0.266c0.106-0.18,0.271-0.307,0.33-0.534c-0.359-0.383-0.105-0.623-0.135-1.265
	c-0.414-0.528-0.502-1.404,0-1.871c-0.107-0.283-0.178-0.602-0.06-0.938c-0.844-0.05-1.216-0.563-2.006-0.664
	c-0.607-0.708-0.927-1.826-0.731-3.139c-0.514-0.142-0.832,0.39-1.34,0.466c-0.041,0.454-0.253,0.726-0.466,1
	c0.007,0.681-0.318,1.203-0.265,1.87c-1.239,1.791-2.98,4.726-1.806,7.48c-0.006,0.717-0.69,1.54-0.737,2.266
	c-0.006,0.245-0.035,0.734,0.336,0.87c0.324-0.118,0.454-0.431,0.537-0.799C269.225,166.986,269.727,166.334,270.47,165.921z"/>
<path fill-rule="evenodd" clip-rule="evenodd" d="M274.812,163.721c0.242,0.142,0.596,0.009,0.737,0
	c-0.041-0.375,0.147-0.419,0.065-0.67C275.023,162.951,274.854,163.275,274.812,163.721z"/>
<path fill-rule="evenodd" clip-rule="evenodd" d="M266.535,173.868c0.235,0.118,0.471,0.239,0.73,0.333
	c0.006-0.504,0.343-1.097,0.071-1.469C266.765,172.809,266.652,173.343,266.535,173.868z"/>
<path fill-rule="evenodd" clip-rule="evenodd" d="M268.198,175.133c0.118-0.195,0.241-0.38,0.407-0.531
	c-0.26-0.442-0.891-0.501-1.003,0.133C267.738,174.93,267.915,175.089,268.198,175.133z"/>
<path fill-rule="evenodd" clip-rule="evenodd" d="M270.54,190.157c-0.194-0.277-0.472-0.463-0.802-0.602
	c-0.438,0.508,0.147,1.068,0.602,1.271C270.352,190.549,270.54,190.449,270.54,190.157z"/>
<path fill-rule="evenodd" clip-rule="evenodd" d="M269.473,190.623c-0.242,0.466-0.219,0.994,0.266,1.204
	C269.956,191.484,269.956,190.655,269.473,190.623z"/>
<path fill-rule="evenodd" clip-rule="evenodd" d="M343.111,204.245c0.012-0.658,0.396-1.153,0.466-1.741
	c0.024-0.215-0.041-0.445,0-0.667c0.136-0.699,0.603-1.269,0.803-1.932c0.035-0.133-0.036-0.328,0-0.472
	c0.047-0.221,0.212-0.386,0.265-0.599c0.065-0.251,0.107-0.569,0.131-0.864c0.07-0.788,0.171-1.26,0.141-2.074
	c-0.188-0.413-0.648-0.448-1.139-0.266c0.054,0.283,0.077,0.59,0.266,0.732c-0.277,0.354-0.023,1.018-0.129,1.469
	c-0.065,0.271-0.325,0.442-0.407,0.604c0.378,1.068-0.531,1.874-0.531,3.003c-0.271,0.829-0.927,2.147-0.466,3.071
	C342.758,204.466,342.898,204.325,343.111,204.245z"/>
<path fill-rule="evenodd" clip-rule="evenodd" d="M275.012,204.245c0.077-0.814-0.336-1.136-0.666-1.537
	c-0.324,1.204,0,2.628,1.203,2.87C275.626,204.873,275.42,204.463,275.012,204.245z"/>
<path fill-rule="evenodd" clip-rule="evenodd" d="M277.148,203.307c-0.366-0.51-1.216-0.451-1.334,0.271
	c0.219,0.295,0.39,0.897,0.266,1.331c0.094,0.304,0.466,0.339,0.401,0.802c0.229,0.104,0.513,0.156,0.731,0.269
	c0.105-0.136,0.242-0.254,0.4-0.333c-0.542-0.434-0.825-0.841-0.666-1.873C276.977,203.581,277.184,203.566,277.148,203.307z"/>
<path fill-rule="evenodd" clip-rule="evenodd" d="M279.484,204.245c-0.047-0.628-0.838-0.997-0.997-0.269
	C278.67,204.369,279.023,204.404,279.484,204.245z"/>
<path fill-rule="evenodd" clip-rule="evenodd" d="M278.617,205.242c-0.023-0.431-0.248-0.584-0.201-0.933
	C277.738,204.398,278.068,205.277,278.617,205.242z"/>
<path fill-rule="evenodd" clip-rule="evenodd" d="M332.091,225.407c0.46,0.015,0.667-0.227,1.204-0.133
	c0.613-0.389,1.215-0.788,1.268-1.737c0.178-0.091,0.313-0.224,0.473-0.333c0.1-0.516,0.537-0.844,0.73-1.336
	c0.06-0.142,0-0.325,0.065-0.466c0.171-0.377,0.525-0.643,0.731-1.003c0.147-0.245,0.248-0.62,0.407-0.932
	c0.153-0.31,0.337-0.631,0.466-0.935c0.39-0.953,0.537-2.142,0.738-3.142c0.053-0.268,0-0.593,0.064-0.864
	c0.147-0.634,0.619-1.204,0.596-1.935c0.885-1.342,1.752-2.702,2.207-4.478c0.719-0.812,0.813-2.254,1.404-3.204
	c-0.131-0.156-0.296-0.28-0.537-0.331c0,0.085-0.118,0.059-0.137,0.133c-0.188,0.218-0.105,0.428-0.2,0.67
	c-0.289,0.761-0.92,1.342-1.197,2c-0.153,0.369-0.089,0.744-0.2,1.136c-0.289,1.012-1.127,1.493-1.198,2.605
	c-0.761,0.634-1.15,1.956-1.339,2.938c-1.352,0.493-1.104,2.59-1.469,4.074c-0.119,0.186-0.313,0.31-0.266,0.664
	c-0.467,0.561-0.809,1.242-1.274,1.802c-0.077,0.08-0.236,0.08-0.396,0.071c0.094,0.457,0.613,0.496,0.731,0.932
	c-0.247,0.377-0.808,0.437-1.269,0.599c0.13,0.528-0.212,0.676-0.266,0.935c-0.035,0.157,0.041,0.354,0,0.466
	c-0.094,0.257-0.495,0.466-0.336,0.87C332.657,224.643,332.103,225.026,332.091,225.407z"/>
<path fill-rule="evenodd" clip-rule="evenodd" d="M278.487,207.917c0.106,0.209-0.024,0.407,0.064,0.667
	c0.142,0.413,0.608,0.812,0.933,1.068c0.495,0.386,1.321,0.637,1.805,0.932c0.236,0.147,0.154,0.263,0.33,0.271
	c0.23,0.009,0.426-0.127,0.603-0.271c0.059-0.386-0.236-0.555-0.065-0.864c-0.466-0.112-1.038-0.324-1.398-0.333
	c-0.406-0.33-0.772-0.699-1.203-1.003c0.112-0.649,0.178-1.333,0.266-2.006c-0.171-0.074-0.324-0.162-0.472-0.265
	c-0.206,0.48-1.228,0.147-1.47,0.599c0.048,0.345,0.178,0.413,0,0.669C278.051,207.537,278.352,207.661,278.487,207.917z"/>
<path fill-rule="evenodd" clip-rule="evenodd" d="M240.96,208.717c-0.194-0.339-0.726-0.342-1.003-0.604
	c-0.384,0.569,0.289,0.994,0.809,1.07C240.854,209.05,240.895,208.864,240.96,208.717z"/>
<path fill-rule="evenodd" clip-rule="evenodd" d="M284.292,215.861c0.266,0.071,0.603,0.059,0.731,0.266
	c0.201-0.225,0.531-0.319,0.738-0.534c0.241,0.313,0.796,0.313,0.737,0.932c0.607,0.189,0.819,0.03,1.397-0.195
	c0.042-0.354-0.047-0.575-0.064-0.87c0.213-0.118,0.289-0.177,0.466-0.204c-0.012-0.321,0.177-0.439,0.194-0.731
	c-0.395-0.18-0.465-0.681-1.062-0.667c-0.413-0.634-0.536-1.558-1.534-1.602c-0.105,0.274-0.313,0.445-0.4,0.731
	c0.177,0.112,0.318,0.259,0.4,0.472c-0.105,0.136-0.283,0.209-0.336,0.398c-0.437-0.145-1.009-0.115-1.404-0.133
	c-0.041,0.487,0.184,0.708,0.337,0.997c-0.171,0.124-0.254,0.33-0.337,0.534C284.257,215.404,284.322,215.581,284.292,215.861z"/>
<path fill-rule="evenodd" clip-rule="evenodd" d="M285.962,218.064c0.153-0.138,0.524-0.056,0.537-0.336
	C286.375,217.188,285.625,217.602,285.962,218.064z"/>
<path fill-rule="evenodd" clip-rule="evenodd" d="M288.563,218.796c0.39-0.192,0.531-0.628,0.667-1.068
	c-0.207-0.104-0.419-0.201-0.667-0.266C288.269,217.772,288.505,218.428,288.563,218.796z"/>
<path fill-rule="evenodd" clip-rule="evenodd" d="M284.558,217.661c0.048,0.545-0.283,1.038-0.13,1.469
	c0.301-0.009,0.324-0.295,0.667-0.265C285.16,218.31,285.236,217.637,284.558,217.661z"/>
<path fill-rule="evenodd" clip-rule="evenodd" d="M262.198,219.667c0.177-0.201,0.419-0.03,0.596-0.133
	c-0.229-0.861-0.819-1.363-1.806-1.469c-0.076,0.628,0.325,0.711,0.603,1.003C261.826,219.301,261.957,219.542,262.198,219.667z"/>
<path fill-rule="evenodd" clip-rule="evenodd" d="M288.027,218.731c-0.036-0.224-0.207-0.328-0.266-0.534
	c-0.426-0.029-0.473,0.325-0.667,0.534c0.124,0.168,0.33,0.25,0.536,0.336C287.791,218.982,287.809,218.752,288.027,218.731z"/>
<path fill-rule="evenodd" clip-rule="evenodd" d="M293.307,218.197c-0.92-0.321-1.109,0.755-0.602,1.065
	C293.106,219.041,293.637,218.782,293.307,218.197z"/>
<path fill-rule="evenodd" clip-rule="evenodd" d="M289.101,219.799c-0.407,0.003-0.638-0.363-1.003-0.404
	c-0.189-0.015-0.454,0.207-0.667,0.139c0.036,0.209-0.095,0.26-0.136,0.398c0.39,0.48,0.702,1.041,0.938,1.669
	c0.354,0.094,0.85,0.035,1.067,0.266c0.207-0.452,0.283-0.761,0.195-1.401C289.366,220.245,289.112,220.142,289.101,219.799z"/>
<path fill-rule="evenodd" clip-rule="evenodd" d="M331.029,221.667c-0.054-0.481-0.295-0.776-0.673-0.935
	c-0.054,0.395-0.525,0.369-0.596,0.737C329.949,222.009,330.504,221.675,331.029,221.667z"/>
<path fill-rule="evenodd" clip-rule="evenodd" d="M328.422,221.268c-0.254-0.035-0.438-0.139-0.667-0.201
	c-0.413,0.393,0.218,0.717,0.401,0.933C328.174,221.684,328.48,221.661,328.422,221.268z"/>
<path fill-rule="evenodd" clip-rule="evenodd" d="M327.023,224.206c0.359,0.472,0.838-0.127,1.333-0.133
	c0.188-0.664-0.159-1.292-0.867-1.271C327.555,223.495,327.235,223.799,327.023,224.206z"/>
<path fill-rule="evenodd" clip-rule="evenodd" d="M290.233,226.407c-0.549-0.451-0.737-1.256-0.933-2.068
	c-0.637-0.153-1.362,0.127-2.135-0.068c-0.119,0.487-0.172,1.033-0.408,1.404c0.119,0.133,0.248,0.245,0.271,0.466
	c0.426,0,0.673-0.171,1.068-0.201c0.514,0.413,1.062,0.67,1.269,1.336c0.059,0.192-0.042,0.472,0.13,0.664
	c0.359,0.08,0.885-0.221,1.002-0.599c-0.047-0.103-0.206-0.097-0.2-0.266C290.316,226.817,290.304,226.584,290.233,226.407z"/>
<path fill-rule="evenodd" clip-rule="evenodd" d="M287.968,226.743c-0.324,0.088-0.372,0.15-0.673,0
	c-0.242,0.274-0.454,0.563-0.796,0.731c0.253,0.682,0.796,1.071,1.469,1.336C288.717,228.153,288.617,227.277,287.968,226.743z"/>
<path fill-rule="evenodd" clip-rule="evenodd" d="M288.829,227.94c-0.337,1.216,0.254,1.696,0.737,2.407
	c0.401-0.136,0.673-0.398,0.667-0.938C289.643,229.047,289.69,228.038,288.829,227.94z"/>
<path fill-rule="evenodd" clip-rule="evenodd" d="M286.758,228.61c-0.218,0.283-0.141,1.021-0.059,1.404
	c0.153,0.109,0.384,0.148,0.596,0.198c0.178-0.54-0.07-1.145-0.266-1.534C286.906,228.693,286.883,228.604,286.758,228.61z"/>
<path fill-rule="evenodd" clip-rule="evenodd" d="M288.563,230.212c-0.218-0.31-0.271-0.796-0.731-0.864
	C287.378,229.843,288.239,230.524,288.563,230.212z"/>
<path fill-rule="evenodd" clip-rule="evenodd" d="M296.439,232.885c-0.271-0.614-0.442-1.331-1.398-1.269
	C295.236,232.31,295.625,232.811,296.439,232.885z"/>
<path fill-rule="evenodd" clip-rule="evenodd" d="M294.841,232.684c-0.018,0.265-0.277,0.304-0.266,0.599c0.13,0,0.266,0,0.396,0
	C294.941,233.067,295.059,232.708,294.841,232.684z"/>
</svg>
