<svg version="1.1" id="Calque_1" xmlns="http://www.w3.org/2000/svg" xmlns:xlink="http://www.w3.org/1999/xlink" x="0px" y="0px"
	 width="432px" height="432px" viewBox="0 0 432 432" enable-background="new 0 0 432 432" xml:space="preserve">
<path fill-rule="evenodd" clip-rule="evenodd" d="M128.144,106.697c0.578,0.153,1.097,0.124,1.528-0.068
	c0.177,0.124,0.1,0.504,0.277,0.625c0.188,0.218,0.537,0.1,0.767,0.207c0.065,0.032,0.206,0.259,0.349,0.351
	c0.689,0.439,1.609,1.13,1.805,1.805c0.124,0.422-0.064,0.958,0.07,1.457c0.095,0.342,0.555,0.552,0.691,1.044
	c0.123,0.431,0.029,0.623,0.076,1.112c0.496,0.304,1.074,0.233,1.664,0.348c0.53,0.101,1.002,0.404,1.527,0.555
	c0.561,0.159,1.257,0.207,1.87,0.345c1.05,0.242,2.048,0.445,3.062,0.767c0.396,0.121,0.779,0.28,1.187,0.416
	c1.669,0.558,3.374,0.974,4.997,1.528c0.844,0.289,1.734,0.428,2.507,0.764c0.325,0.142,0.579,0.366,0.897,0.49
	c1.097,0.419,2.295,0.593,3.404,0.971c0.707,0.242,1.48,0.401,2.088,0.764c0.289,0.174,0.483,0.493,0.767,0.696
	c0.308,0.218,0.696,0.286,0.968,0.484c0.26,0.195,0.49,0.637,0.838,0.903c0.183,0.15,0.454,0.218,0.625,0.351
	c0.365,0.295,0.607,0.844,0.968,0.971c0.366,0.13,0.72-0.083,1.044,0c0.396,0.104,0.479,0.499,0.908,0.487
	c0.809-0.445,1.481-0.156,1.877,0.277c0.2,0.23,0.206,0.61,0.478,0.696c0.731,0.219,1.304-0.723,1.952-0.834
	c0.331-0.056,0.809-0.042,1.175,0c1.197,0.139,2.147,0.646,3.126,0.834c0.809,0.817,2.467,0.785,3.27,1.599
	c0.832-0.171,1.139,0.188,1.527,0.416c0.378,0.219,0.543,0.174,0.696,0.416c0.077,0.127,0.048,0.437,0.142,0.696
	c0.094,0.266,0.271,0.38,0.277,0.555c0.006,0.867-1.156,0.861-0.979,1.805c0.673,0.522,1.628,1.233,2.714,0.906
	c0.313,0.168,0.479,0.489,0.696,0.764c0.555,0.05,0.772,0.434,1.315,0.487c0.159-0.029-0.029-0.41,0.283-0.277
	c0.69,0.23,1.168,0.679,1.805,0.971c0.137,0.466,0.302,0.906,0.555,1.25c-0.076,0.292-0.389,0.348-0.277,0.835
	c-0.059,0.121-0.129,0.239-0.348,0.207c0.236,0.348,0.307,0.853,0.625,1.112c0.113,0.442-0.023,0.67,0,1.254
	c-0.158,0-0.33,0-0.483,0c-0.218,0.888,0.23,1.496,0.206,2.083c-0.012,0.357-0.259,0.684-0.206,1.112
	c-0.342,0.325-0.885,0.46-1.321,0.693c0.082,0.472,0.318,0.776,0.277,1.251c-0.012,0.147-0.178,0.268-0.207,0.419
	c-0.076,0.359,0.112,0.734-0.07,1.112c0.46,0.094,0.625,0.49,1.115,0.555c0.572-0.481,1.393-0.024,1.941-0.207
	c0.524-0.177,0.59-1.08,1.32-0.906c0.071,0.18,0.166,0.342,0.137,0.625c0.135,0.032,0.418-0.094,0.354,0.139
	c0.053,0.351-0.271,0.501-0.419,0.767c-0.159,0.274-0.2,0.607-0.354,0.899c-0.111,0.245-0.383,0.431-0.478,0.696
	c-0.095,0.248-0.047,0.646-0.142,0.973c-0.076,0.254-0.248,0.458-0.277,0.693c-0.076,0.504,0.053,1.109,0,1.74
	c0.39,0.44,1.033,0.628,1.045,1.458c0.283,0.062,0.472,0.454,0.896,0.558c0.508,0.115,1.209-0.056,1.67,0
	c0-0.166-0.354-0.572-0.626-0.696c0.165-0.269-0.212-0.401-0.136-0.625c0.041-0.28,0.271-0.377,0.271-0.693
	c0.731-0.448,1.092-1.318,1.67-2.088c0.531-0.705,1.291-1.298,1.67-2.083c0.1-0.209,0.035-0.472,0.141-0.696
	c0.029-0.083,0.219-0.174,0.277-0.277c0.39-0.688,0.607-1.266,1.039-1.806c0.183-0.233,0.447-0.383,0.561-0.628
	c0.141-0.313,0.158-0.711,0.271-1.039c0.123-0.33,0.271-0.667,0.418-0.974c0.602-1.268,1.092-2.475,1.806-3.613
	c0.271-0.431,0.607-0.832,0.837-1.183c0.096-0.154,0.102-0.354,0.207-0.484c0.142-0.18,0.442-0.345,0.696-0.558
	c0.413-0.351,0.679-0.729,1.181-0.832c0.047-0.534,0.412-0.743,0.619-1.115c0.43-0.366,1.58-0.106,1.811-0.136
	c0.089,0.186,0.172,0.383,0.142,0.696c1.127,0.018,2.013-0.212,2.921-0.419c0.206-0.068,0.141-0.413,0.342-0.487
	c0.219,0.315,0.584,0.145,0.838,0c0.082,0.383,0.672,0.1,0.832-0.071c-0.118-0.321-0.289-0.593-0.625-0.693
	c-0.271,0.121-0.219,0.301-0.207,0.416c-0.07-0.23-0.365-0.239-0.419-0.487c0.012-0.997,0.991-1.537,0.489-2.431
	c0.219-0.321,0.36-0.563,0.685-0.557c0.46,0.015,0.555,0.616,0.909,0.764c0.613-0.18,1.097,0.086,1.74,0.071
	c0.105-0.761,0.454-0.988,0.896-1.318c0.201-0.147,0.313-0.398,0.561-0.416c0.549,0.053,0.672,0.525,0.832,0.971
	c-0.283,0.392-0.266,0.932-0.484,1.318c-0.165,0.292-0.584,0.375-0.555,0.764c-0.041,0.389,0.449,0.248,0.349,0.696
	c-0.378,0.301-1.062,0.286-1.534,0.487c-0.242,0.54-0.66,1.212-0.696,1.737c-0.118-0.126-0.265,0.018-0.136,0.139
	c-0.389,0.077-0.826,0.101-1.044,0.345c-0.165,0.829,0.613,1.121,0.974,1.46c0.431,0.401,0.791,0.947,1.393,1.115
	c0.018-0.466-0.018-1.177-0.143-1.808c0.496-0.36,0.998-0.903,0.697-1.667c0.33-0.245,0.831-0.325,1.457-0.28
	c0.029-0.322,0.082-0.398,0-0.693c0.336-0.637,1.191-0.758,1.875-1.044c0.102-0.664,1.357-0.584,1.947-0.97
	c0.112-0.398,0.059-0.961,0.064-1.46c0.271-0.434,0.608-0.781,0.561-1.528c0.703-0.478,1.252-1.561,2.438-1.599
	c0.248-0.006,0.501,0.142,0.761,0.139c0.324-0.003,0.655-0.233,0.968-0.277c1.734-0.242,3.014,0.611,4.454,1.042
	c-0.296-0.472,0.012-0.879,0.206-1.251c0.342-0.212,0.985-0.124,1.528-0.139c0.142-0.065,0.142-0.274,0.349-0.274
	c0.619-0.071,0.979,0.127,1.386,0.274c0.626-0.407,1.345-0.05,2.089,0c0.271-0.499,0.873-1.33,1.25-1.944
	c0.189-0.31,0.124-0.561,0.277-0.906c0.413-0.944,1.858-2.026,2.914-0.97c0.277-0.091,0.438-0.313,0.768-0.348
	c0.277-0.029,0.502,0.174,0.902,0.209c0.531,0.044,1.074-0.133,1.457,0c0.438,0.15,0.744,0.637,1.251,0.764
	c0.88,0.215,1.817,0.003,2.638,0.206c0.271,0.068,0.483,0.357,0.767,0.49c0.266,0.118,0.578,0.112,0.767,0.207
	c0.143,0.071,0.189,0.245,0.342,0.348c0.36,0.236,0.578,0.304,0.838,0.555c0.378,0.363,0.75,0.843,1.115,1.115
	c0.083,0.655,0.75,0.723,0.832,1.39c0.502-0.089,0.531,0.292,0.974,0.274c0.13,0.404,0.708,0.356,0.696,0.905
	c-0.095,0.274-0.643,0.121-0.773,0c-0.767,0.233-0.33,0.953-0.478,1.528c-0.106,0.386-0.448,0.448-0.561,0.696
	c-0.054,0.115,0.018,0.248-0.065,0.416c0.143,0.18,0.426,0.215,0.484,0.484c0,0.304-0.118,0.483-0.277,0.625
	c-0.648-0.067-1.08,0.08-1.599,0.139c0.095,0.345,0.661,0.222,0.902,0.419c0,0.233,0.159,0.301,0.283,0.416
	c-0.106,0.39-0.13,0.74-0.419,1.044c-0.123,0.124-0.371,0.139-0.489,0.277c-0.295,0.333-0.343,0.773-0.555,1.18
	c-0.313,0.088-0.584,0.209-0.909,0.277c-0.289,0.318-0.342,0.823-0.625,1.25c-0.183,0.292-0.543,0.455-0.625,0.764
	c-0.07,0.298-0.053,0.935,0,1.322c0.035,0.18,0.266,0.619,0.283,0.693c0.094,0.307,0.07,0.672,0.136,0.835
	c0.035,0.083,0.218,0.18,0.283,0.28c0.041,0.062,0.035,0.162,0.065,0.207c0.205,0.307,0.471,0.61,0.625,0.832
	c0.082,0.387-0.266,0.425,0,0.625c1.067-0.236,1.923,0.289,2.778,0.49c0,0.746-0.366,1.339-1.108,1.46
	c-0.585,0.091-1.381-0.147-2.154-0.071c-0.324,0.03-0.643,0.174-0.973,0.207c-0.703,0.074-1.398-0.023-1.947,0.209
	c-0.147,0.065-0.189,0.224-0.283,0.348c-0.23-0.033-0.384,0.026-0.549,0.071c-0.678,0.41-1.346,1.083-1.947,1.596
	c-0.277,0.236-0.643,0.38-0.767,0.693c-0.153,0.425-0.124,1.245-0.136,1.879c-0.018,0.95,0.178,1.699,0.277,2.289
	c0.118,0.69,0.101,1.396,0.142,2.085c-0.018,0.266-0.289,0.266-0.283,0.558c-0.118,1.752,0.083,3.885-1.038,4.793
	c0,0.905-0.613,1.191-0.631,2.085c-0.414,0.248-0.443,0.59-0.832,0.764c0.018,0.658-0.378,0.92-0.625,1.321
	c-0.213,0.083-0.461,0.139-0.691,0.207c-0.135-0.325-0.194-0.301-0.277-0.625c0.054-0.059,0.372,0.033,0.343-0.277
	c-0.2-1.48,1.114-1.876,1.321-2.778c0.106-0.458-0.047-0.938,0-1.39c0.047-0.407,0.295-0.761,0.136-1.183
	c0.501-0.225,0.229-1.027-0.136-1.18c-0.359,0.077-0.59,0.289-0.832,0.484c0.012,0.584-0.266,0.953-0.135,1.46
	c-0.166,0.221-0.402,0.458-0.354,0.835c0.041,0.289,0.2,0.348,0.354,0.555c-0.048,0.398-0.313,0.575-0.49,0.834
	c0.13,1.333-0.873,1.534-0.902,2.708c-0.189-0.159-0.378-0.315-0.555-0.484c-0.248-0.731-0.52-1.336-0.49-2.085
	c0.06-1.295,1.257-2.315,1.045-3.613c-0.933,0.091-0.974-0.968-0.484-1.389c-0.111-0.525,0.26-0.572,0.342-0.903
	c-0.041-0.41,0.125-0.62,0.077-1.042c-0.867-0.779-0.578-2.569,0.69-2.711c-0.012-0.295,0.184-0.375,0.142-0.693
	c-0.501,0.126-0.95,0.516-1.599,0.274c-0.112,0.54-0.631,0.926-0.838,1.46c-0.254,0.681-0.242,1.23-0.69,1.737
	c-0.33,0.369-0.702,0.543-1.114,0.903c0.1,0.191-0.083,0.224-0.137,0.419c-0.035,0.112,0.042,0.301,0,0.416
	c-0.123,0.333-0.537,0.599-0.625,0.973c-0.082,0.322,0.124,0.708,0,1.042c-0.213,0.563-1.074,0.87-1.74,0.625
	c-0.596-0.221-0.66-1.021-1.251-1.389c-0.229,0.331-0.283,0.826-0.413,1.25c-0.448,0.251-0.478,0.92-0.902,1.18
	c-0.666,0.13-1.057-0.295-1.604-0.068c-0.483,1.33-0.212,3.257-0.271,4.861c-0.271,0.201-0.378,0.655-0.761,0.767
	c-0.354,0.097-0.496-0.033-0.838-0.142c-0.584,0.72-1.806,0.791-2.502,1.389c-0.029,0.59,0.378,1.059,0.555,1.599
	c0.184,0.561,0.342,1.251,0.348,1.947c0.006,0.994-0.395,1.805-0.483,2.64c-0.136,1.209,0.106,2.381,0,3.543
	c-0.147,1.478-1.044,2.867-1.669,3.891c-0.254,0.404-0.596,0.75-0.768,1.112c-0.248,0.531-0.266,1.121-0.483,1.599
	c-0.702,1.513-1.959,2.286-3.127,3.266c0.101,0.799,0.372,1.056,0.696,1.528c0.549,0.82,0.955,1.658,1.104,2.85
	c0.094,0.699,0.218,1.324,0.283,2.153c0.094,1.207-0.189,2.613-0.555,3.404c-0.143,0.31-0.342,0.679-0.49,0.903
	c-0.277,0.431-1.168,0.967-1.315,1.531c-0.147,0.531-0.035,1.593,0.065,1.873c0.183,0.508,0.483,0.997,0.701,1.531
	c0.626,1.572,1.174,3.342,1.457,5.21c0.207,0.504,0.502,0.932,0.555,1.598c0.23,0.092,0.271,0.381,0.343,0.626
	c0.638,0.437,0.649,1.28,1.044,2.015c0.313,0.578,0.85,1.035,1.115,1.599c0.365,0.782,0.531,2.021,0.832,2.778
	c0.979,2.514,1.156,5.918,1.387,9.239c0.247,3.46-0.248,6.558-0.691,9.241c-0.301,1.797-0.796,3.469-1.32,5.071
	c-0.549,1.692-1.293,3.203-1.877,4.587c-0.761,0.811-1.121,2.012-1.74,3.127c-0.283,0.514-0.572,1.038-0.896,1.527
	c-0.324,0.487-0.773,0.912-1.045,1.39c-0.371,0.638-0.371,1.628-0.625,2.292c-0.213,0.555-0.531,1.178-0.908,1.67
	c-0.295,0.389-0.75,0.61-1.039,0.971c-0.271,0.342-0.489,0.749-0.837,1.115c-0.985,1.037-2.26,1.967-2.218,3.818
	c15.149-0.156,30.341-0.277,45.367-0.554c0,0.903,0,1.802,0,2.708c11.847-0.531,23.374-1.617,35.02-2.295
	c0.143-0.514,0.727-0.93,0.691-1.389c0.342,0.212,0.146-0.024,0.212-0.068c0.743-0.575,1.534-1.555,2.218-2.221
	c0.732-0.699,1.393-1.074,1.534-2.086c0.165-1.225-0.384-1.67-0.626-2.502c-0.094-0.313-0.053-0.666-0.141-0.973
	c-0.23-0.82-0.785-1.773-0.902-2.572c-0.102-0.192-0.277,0.123-0.349-0.068c0.112-0.566,0.343-0.961,0.483-1.389
	c0.112-0.319,0.137-0.611,0.213-0.975c0.123-0.602,0.359-1.206,0.412-1.875c0.071-0.75-0.1-1.531,0-2.293
	c0.113-0.799,0.626-1.596,0.768-2.291c1.381,0.48,2.059-0.236,3.063-0.697c0.666-0.307,1.374-0.469,1.869-0.834
	c0.443-0.322,0.944-0.885,1.322-1.318c0.442-0.505,0.814-1.156,0.908-1.738c0.142-0.062,0.307-0.109,0.413-0.206
	c1.263-2.304,4.619-2.729,5.009-5.838c0.136-1.15,0.637-2.289,0.619-3.475c-0.006-0.315-0.13-0.626-0.142-0.903
	c-0.041-1.4,0.165-2.596,0.419-3.613c0.242-0.971,0.82-1.935,0.555-3.127c-0.431-0.592-1.067-1.006-1.393-1.666
	c-0.171-0.363-0.247-0.87-0.419-1.321c-0.431-1.192-1.05-2.696-1.174-4.03c-0.035-0.38,0.041-0.736,0-1.108
	c-0.053-0.478-0.241-0.956-0.277-1.46c-0.029-0.425,0.036-0.873,0-1.322c-0.029-0.351-0.177-0.688-0.212-1.041
	c-0.035-0.439,0.082-0.936,0-1.389c-0.065-0.372-0.343-0.844-0.555-1.251c-0.407-0.778-0.779-1.593-0.902-2.638
	c-0.148-1.286-0.401-2.761-0.143-3.823c-0.247-0.357-0.1-1.103-0.412-1.389c0.183-1.445-0.69-2.699-0.838-3.823
	c-1.133-1.112-1.552-2.938-2.502-4.239c-0.466-0.142-0.725-0.581-1.18-0.832c-0.844-0.466-1.971-0.49-2.778-1.044
	c-0.685,0.033-1.216,0.218-1.806,0.348c-0.307,0.318-0.549,0.699-0.973,0.903c0.053,0.445-0.354,0.437-0.49,0.693
	c-0.248,0-0.508,0-0.762,0c-0.643,0.493-1.633,0.634-2.843,0.561c-0.308,0.41-0.809,0.776-1.115,1.318
	c-0.136,0.236-0.106,0.579-0.277,0.764c-0.2,0.215-0.542,0.245-0.838,0.348c0.077,0.793,0.042,1.95-0.974,1.873
	c-0.377,0.319-0.489,0.897-0.967,1.115c-0.006,0.28,0.218,0.333,0.206,0.625c-0.425,0.254-0.318,0.726-0.489,1.248
	c-0.029,0.103-0.143,0.209-0.201,0.348c-0.33,0.729-0.324,1.623-1.186,1.531c-0.354,0.053-0.177-0.428-0.419-0.49
	c-0.702,0.036-0.638,0.791-0.902,1.251c-0.142,0.256-0.608,0.534-0.903,0.902c-0.271,0.342-0.424,0.776-0.695,1.044
	c-0.283,0.292-0.69,0.759-0.968,0.767c-0.236,0.004-0.72-0.395-0.909-0.489c-0.377-0.187-0.436-0.331-0.689-0.555
	c-0.366-0.142-0.82-0.015-1.251-0.071c-1.044-0.133-2.366-1.009-2.85-1.734c-0.283-0.431-0.495-1.331-0.561-1.95
	c-0.083-0.858,0.442-1.03,0.561-1.803c0.089-0.572-0.029-1.356,0-2.018c0.012-0.339-0.054-0.664,0-0.973
	c0.118-0.685,0.832-0.838,0.626-1.528c0.277-0.165,0.418-0.457,0.689-0.625c0.313,0.059,1.098,0.044,1.115-0.416
	c0.219,0.345,0.785,0.097,1.045,0.28c0.193-0.316,0.348-0.669,0.76-0.764c0.207,0.153-0.018,0.581,0.49,0.555
	c0.525-0.643,0.307-1.726,1.039-2.153c0.07-0.039,0.324-0.115,0.418-0.142c0.266-0.071,0.59-0.065,0.974-0.139
	c0.153-0.274,0.065-0.623,0.206-0.971c0.101-0.245,0.36-0.386,0.42-0.625c0.123-0.54-0.048-1.171,0-1.738
	c0.082-1.056,0.354-1.938,0.555-2.782c0.459-0.073,0.79-0.377,1.18-0.554c0.418-0.189,0.838-0.336,1.321-0.487
	c0.425-0.829,0.938-1.566,1.946-1.805c-0.018-1.596-0.07-2.979-0.07-4.31c0-1.563-0.124-3.139,0.207-4.446
	c0.094-0.362,0.4-0.672,0.488-1.041c0.131-0.549,0.03-1.127,0.065-1.669c-0.631-0.832-0.212-1.944-0.277-3.266
	c-0.289-0.611-0.749-1.053-0.767-1.944c-0.555-0.584-1.239-0.546-1.936-0.974c-1.321-0.802-2.012-5.469,0.479-5.348
	c0.514,0.023,0.596,0.437,1.25,0.413c0.378-0.637,0.301-1.799,0-2.427c-0.802-0.239-1.191-0.971-1.592-1.741
	c-0.49-0.941-0.732-1.504-0.213-2.289c-0.92-0.472-1.191-1.622-2.153-2.085c-0.277-0.136-0.974-0.315-1.181-0.348
	c-0.678-0.106-1.314,0.036-1.875-0.209c-0.207-0.091-0.378-0.304-0.555-0.416c-0.207-0.135-0.473-0.188-0.626-0.416
	c-0.023-0.301-0.053-0.596-0.206-0.764c-0.908,0.097-1.558-0.071-2.018-0.419c-0.178,0.083-0.313,0.198-0.49,0.28
	c-0.283-0.242-0.666-0.159-0.967-0.351c-0.207-0.124-0.248-0.41-0.49-0.484c-0.395-1.858-2.855-1.274-4.861-1.25
	c-0.018-0.124-0.117-0.159-0.277-0.139c-0.313-0.546-0.584-1.127-0.489-2.085c-0.597-0.909-1.61-1.401-2.019-2.501
	c-1.309-0.05-2.276-0.958-3.539-0.277c-0.555-0.363-1.369,0.006-1.876,0.139c-0.442-0.366-0.909-0.708-1.451-0.973
	c-0.118-0.401-0.566-0.458-0.702-0.835c-0.844-0.08-1.18-0.667-1.805-0.971c-0.414,0-0.832,0-1.252,0
	c-0.182-0.021,0.065,0.387-0.206,0.277c-1.64,0.059-3.829,0.384-3.263-1.944c0.006-0.239-0.295-0.177-0.283-0.416
	c-0.018-0.271,0.42-0.091,0.42-0.351c-0.107-0.38-0.296-1.188,0-1.528c0.73,0.18,1.687,0.525,2.359,0.348
	c-0.064-0.552-0.473-0.968-0.555-1.528c-0.23-1.622,0.572-2.926,1.664-3.404c-0.048-0.54,0.082-0.737,0.354-0.835
	c0.348-0.126,0.726,0.209,1.109,0.28c0.26,0.047,0.572-0.023,0.832,0c0.885,0.077,1.568,0.319,2.295,0.345
	c0.377,0.015,0.767-0.023,1.18,0c0.602,0.035,1.209,0.215,1.805,0.28c0.184,0.018,0.384-0.039,0.561,0
	c0.289,0.056,0.555,0.277,0.832,0.345c0.159,0.038,0.396-0.021,0.555,0c0.791,0.097,1.569,0.431,2.219,0.487
	c0.289,0.026,0.584-0.053,0.838,0c0.719,0.15,1.191,0.796,1.74,0.902c0.436,0.088,0.844-0.136,1.103-0.277
	c1.127,0.015,1.628-0.599,2.921-0.419c0.035,0.177,0.188,0.233,0.212,0.419c0.644,0.101,0.667,0.814,1.392,0.835
	c0.271-0.026,0-0.596,0.349-0.558c0.236-0.047,0.384,0.189,0.549,0.277c0.188,0.104,0.413,0.109,0.561,0.28
	c0.607-0.036,0.638-0.661,1.392-0.558c-0.117,0.23-0.041,0.445,0,0.693c0.721,0.224,1.547,0.664,2.432,0.419
	c0.26-0.071,0.483-0.384,0.761-0.555c0.289-0.18,0.602-0.212,0.767-0.419c-0.047-0.808,0.23-1.295,0.143-2.153
	c-0.686-0.982-1.765-2.003-2.785-2.779c-0.354-0.274-0.885-0.637-1.18-0.696c-0.283-0.05-0.613,0.053-0.968,0.07
	c-0.401,0.018-0.796-0.05-1.121,0c-0.536,0.08-1.091,0.46-1.876,0.28c-0.873,0.407-1.758,1.428-2.979,1.039
	c-0.454-0.791-0.536-1.475-1.044-2.153c-0.596-0.788-1.552-1.257-1.877-2.085c-0.383-0.968,0.019-2.145-0.205-3.195
	c-0.09-0.401-0.438-0.749-0.561-1.112c-0.555-1.59-0.024-3.393,0.277-4.655c-0.184-0.345-0.543-0.41-0.838-0.555
	c-0.295-0.15-0.62-0.434-0.969-0.487c-1.25-0.195-1.368,0.688-2.152,0.974c-0.195,0.068-0.537,0.109-0.768,0.139
	c-0.938,0.124-1.227,0.118-1.805,0.345c-0.584,0.236-0.944,0.357-1.251,0.764c0.054,0.611-0.118,0.994-0.489,1.186
	c-0.944-0.121-1.41,0.846-2.354,0.693c-0.177-0.31,0.036-0.534,0.06-0.834c-0.289-0.307-0.555-0.643-0.762-1.044
	c-0.926-0.286-1.652,0.05-2.424,0.28c-0.337,1.085-2.768,1.248-3.204,0.139c-1.321,0.038-2.106-1.03-3.682-0.974
	c-0.259-0.177-0.324-0.551-0.276-1.041c0.094-0.183,0.524-0.03,0.56-0.277c0.042-0.891-0.46-1.664-0.419-2.501
	c0.012-0.339,0.23-0.658,0.277-0.974c0.101-0.631-0.041-1.248,0.142-1.805c0.614-0.265,0.685-1.068,1.109-1.528
	c0.089-0.212,0.384-0.221,0.277-0.625c-0.886,0.009-1.593,0.744-2.431,0.832c-0.667,0.074-1.274-0.168-1.947-0.136
	c-0.225,0.006-0.514,0.103-0.761,0.136c-0.283,0.041-0.602,0.015-0.838,0.068c-0.968,0.23-1.729,1.1-2.708,1.46
	c-0.508,0.192-1.038,0.333-1.527,0.558c-0.496,0.227-1.021,0.61-1.457,0.693c-0.484,0.091-0.915-0.095-1.393-0.136
	c-1.57-0.147-3.269,0.194-4.791,0c-0.555-0.074-1.032-0.431-1.533-0.49c-1.133-0.127-1.765,0.499-2.709,0.625
	c-0.218,0.029-0.489-0.039-0.695,0c-0.59,0.112-1.18,0.702-1.734,0.628c-0.396-0.056-0.613-0.664-1.109-0.628
	c-0.254,0.021-0.537,0.46-0.768,0.628c-0.625,0.452-1.428,0.791-2.088,1.319c-0.413,0.336-0.737,0.808-1.18,1.112
	c-1.352,0.935-3.18,1.036-4.301,2.083c-0.189,0.174-0.213,0.416-0.49,0.487c-0.283,0.437-0.324,1.115-0.973,1.183
	c0.07-0.277,0.1-0.596,0.135-0.906c-0.242-0.254-0.46,0.227-0.555-0.068c-0.164-0.51,0.012-0.693,0.213-1.042
	c-0.177-0.401-0.324-0.834-0.561-1.183c-0.619,0.05-1.286,0.056-1.451,0.558c-0.13,0.838,0.401,1.386,0.479,1.876
	c0.029,0.177-0.096,0.428-0.065,0.625c0.029,0.242,0.13,0.324,0.136,0.554c-0.384,0.195-0.549-0.23-0.768-0.416
	c-0.537,0.05-0.85-0.558-1.314-0.555c-0.391,0-0.585,0.292-0.903,0.555c-0.36,0.077-0.696,0.188-1.109,0.209
	c-0.378-0.339-0.72-0.696-1.327-0.628c-0.195-0.979-0.531-1.826-1.457-2.085c-0.271,0.283-0.762,0.336-1.251,0.561
	c-0.407,0.183-0.731,0.551-1.108,0.693c-0.408,0.15-0.75,0.024-1.252,0c-0.873-0.041-1.893,0.168-2.572,0.068
	c-0.271-0.041-0.566-0.215-0.837-0.277c-0.177-0.041-0.384,0.039-0.549,0c-0.419-0.097-0.566-0.439-0.702-0.764
	c-0.018-0.304,0.419-0.142,0.354-0.487c-0.135-0.552-0.224-0.977-0.354-1.39c-0.324-0.085-0.72-0.109-1.038-0.209
	c-0.188-0.2-0.431-0.354-0.69-0.483c-0.207-0.744-0.867-1.039-1.045-1.809c-0.602-0.59-1.139-1.062-1.392-1.947
	c-0.112-0.392-0.006-0.84-0.142-1.248c-0.059-0.192-0.301-0.354-0.484-0.555c-0.513-0.561-1.079-0.926-1.734-1.253
	c-0.212,0.018-0.395,0.071-0.555,0.138c-0.105-0.132-0.188-0.277-0.206-0.486c-0.702-0.204-1.021-1.177-1.876-1.387
	c-0.301-0.077-0.755,0.098-1.115,0c-0.141-0.041-0.359-0.268-0.489-0.351c-0.188-0.112-0.349-0.233-0.555-0.274
	c-0.536-0.115-1.286,0.097-1.94,0c-0.578-0.089-1.092-0.469-1.535-0.49c-0.926-0.044-1.698,0.749-2.565,0.49
	c0.336-0.64,1.203-0.744,1.108-1.809c-1.062,0.074-1.303,0.962-2.295,1.112c-0.561,0.923-1.592,1.372-2.146,2.292
	c-1.08,0.36-1.717,1.159-1.877,2.431c-0.277,0.091-0.767,0.661-0.908,0.071c-0.082-0.431,0.49-0.209,0.49-0.555
	c-0.065-0.328-0.295-0.445-0.349-0.764c-0.06-0.33,0.101-0.69,0.142-1.183c0.041-0.475-0.076-1.039,0-1.39
	c0.082-0.451,0.484-0.767,0.549-1.112c0.105-0.507-0.094-1.015,0.076-1.389c0.172-0.384,0.578-0.393,0.903-0.625
	c0.212-0.484,0.513-0.87,0.974-1.112c-0.023-0.454,0.152-0.717,0.206-1.112c0.761-0.39,1.192-1.127,1.522-1.944
	c0.348-0.024,0.513-0.236,0.767-0.348c-0.089-0.543,0.354-0.876,0.142-1.322c0.33-0.038,0.318-0.422,0.555-0.554
	c0.52,0.147,0.967-0.372,1.457-0.487c0.26-0.9,0.791-1.522,1.67-1.805c0.165-0.106,0.07-0.295,0.141-0.348
	c0.349,0.012,0.826-0.407,1.393-0.419c0.289-0.581,1.145-0.611,1.311-1.319c-0.313-0.233-0.572-0.534-0.832-0.832
	c0.832-0.186,1.557-0.484,2.643-0.419c0.184,0.047,0.33,0.133,0.484,0.209c0.891-0.165,1.574-0.637,2.578-0.487
	c-0.041-0.51-0.125-0.545-0.148-1.041c-0.289-0.274-0.778-0.504-1.103-0.764c-0.165-0.127-0.212-0.295-0.349-0.348
	c-0.424-0.159-0.743,0.006-1.256,0c-0.896-0.012-1.889-0.239-2.85-0.209c-0.525,0.018-1.074,0.248-1.594,0.277
	c-0.689,0.044-1.351-0.104-1.875,0c-0.543,0.109-0.975,0.566-1.528,0.419c-0.206,0.233-0.425,0.457-0.696,0.625
	c-0.26-0.05-0.301,0.118-0.561,0.068c-0.283,0.386-0.708,0.537-1.032,0.696c-0.442,0.209-0.761,0.428-1.192,0.625
	c-0.602,0.277-1.097,0.404-1.521,0.835c-0.52,0.525-0.762,1.194-1.186,1.734c-0.154,0.198-0.443,0.377-0.69,0.625
	c-0.271,0.265-0.608,0.693-0.832,0.834c-0.638,0.396-1.162,1.077-2.224,0.835c-0.531,0.484-1.027,1.212-1.6,1.667
	c-0.318,0.251-0.66,0.434-1.186,0.416c-0.313,0.239-0.578,0.531-0.762,0.906c-0.637,0.265-1.227,0.699-1.457,1.248
	c-0.218,0.499-0.105,0.932-0.348,1.322c-0.318,0.504-0.973,0.95-1.457,1.112c-0.401,0.133-0.791,0.065-1.251,0.139
	c-0.831,0.13-1.711,0.413-2.644,0.623c-0.412,0.61-0.908,1.133-1.392,1.669c-0.991,0.655-2.431,1.445-3.681,1.944
	c-0.248,0.101-0.561,0.251-0.762,0.28c-0.896,0.124-1.876-0.198-2.637,0c-0.461,0.118-0.785,0.428-1.191,0.416
	c-0.236-0.003-0.479-0.233-0.826-0.277c-0.614-0.077-1.646,0.085-2.23,0.139c-0.225,0.023-0.496-0.044-0.762,0
	c-0.873,0.142-1.439,0.643-1.875,1.183c-0.408,0.49-0.679,0.814-1.115,1.248c-0.531,0.542-1.092,0.888-1.664,1.321
	c-0.377,0.292-0.666,0.605-0.973,0.835c-0.219,0.162-0.443,0.121-0.762,0.209c-0.177,0.047-0.271,0.159-0.419,0.207
	c-1.021,0.31-2.136,0.507-3.056,0.834c-0.318,0.112-0.549,0.333-0.832,0.416c-0.607,0.171-1.451,0.115-1.876,0.348
	C128.598,105.028,127.801,105.96,128.144,106.697z"/>
<path fill-rule="evenodd" clip-rule="evenodd" d="M128.356,120.107c-0.543-0.331-0.59-1.393-1.463-1.18c0,0.696,0,1.389,0,2.085
	c0.166,0.336,0.902,0.345,1.322,0.209C128.457,120.942,128.427,120.553,128.356,120.107z"/>
<path fill-rule="evenodd" clip-rule="evenodd" d="M258.767,131.225c-0.489-0.021-0.596-0.428-0.974-0.555
	c-1.244,0.407-2.194-0.428-3.333-0.558c-0.018-0.198-0.437-0.392-0.489-0.139c0.283-0.026,0.076,0.434,0.135,0.625
	c0.324-0.085,0.277,0.192,0.566,0.139c0.16,0.221,0.378,0.416,0.549,0.625c0.035,0.041-0.029,0.165,0,0.209
	c0.059,0.085,0.354,0.327,0.484,0.416c0.129,0.083,0.454,0.03,0.489,0.28c0.147,0.354-0.354,0.062-0.277,0.345
	c0.525,0.286,1.476,0.15,1.94,0.487c0.201-0.201,0.62-0.177,0.49-0.693c0.136,0,0.277,0,0.419,0
	C258.767,132.013,258.767,131.62,258.767,131.225z"/>
<path fill-rule="evenodd" clip-rule="evenodd" d="M234.094,131.573c0.42,0.041,0.585-0.163,0.909-0.209c0-0.095,0-0.186,0-0.277
	c-0.53-0.28-0.655-0.965-1.457-0.974c-0.124,0.133-0.054,0.458-0.071,0.696c0.213,0.112,0.467,0.183,0.697,0.277
	C234.372,131.354,233.918,131.361,234.094,131.573z"/>
<path fill-rule="evenodd" clip-rule="evenodd" d="M233.198,137.827c0.555-0.675,1.534-0.915,1.387-2.295
	c-0.313-0.366-0.46-0.75-0.49-1.319c-0.018-0.54-0.012-1.035-0.205-1.528c-0.065-0.253,0.313-0.059,0.283-0.277
	c-0.219-0.336-1.133-0.242-1.464-0.071c0.101,1.209-0.46,1.758-0.902,2.431c0.194,1.006-0.089,1.826-0.349,2.572
	C231.688,137.853,232.625,137.659,233.198,137.827z"/>
</svg>
