<?xml version="1.0" encoding="utf-8"?>
<!-- Generator: Adobe Illustrator 16.0.0, SVG Export Plug-In . SVG Version: 6.00 Build 0)  -->
<!DOCTYPE svg PUBLIC "-//W3C//DTD SVG 1.1//EN" "http://www.w3.org/Graphics/SVG/1.1/DTD/svg11.dtd">
<svg version="1.1" id="Calque_1" xmlns="http://www.w3.org/2000/svg" xmlns:xlink="http://www.w3.org/1999/xlink" x="0px" y="0px"
	 width="432px" height="432px" viewBox="0 0 432 432" enable-background="new 0 0 432 432" xml:space="preserve">
<path fill-rule="evenodd" clip-rule="evenodd" d="M129.563,89.101c0.142,0.044,0.336,0.042,0.407,0.162
	c-0.46,0.23,0.165,0.39,0.165,0.655c-0.13,0.495-0.059,0.932-0.407,1.31c0.13,0.115,0.419,0.071,0.49,0.245
	c-0.172,0.484,0.389,0.605,0.566,0.982c0.053,0.097-0.095,0.204-0.077,0.245c0.029,0.074,0.248,0.006,0.248,0.163
	c0,0.124-0.266,0.188-0.171,0.41c0.472,0.15,0.365,0.398,0.412,0.9c0.549,0.298,0.591,1.1,1.063,1.472
	c-0.324,0.424-0.06,0.717-0.159,0.982c-0.054,0.139-0.372,0.13-0.248,0.407c-0.572,0.003-0.384,0.761-0.985,0.737
	c-0.153,0.201,0.177,0.339,0.171,0.49c0-0.021-0.241,0.071-0.253,0.083c-0.118,0.233,0.165,0.587-0.242,0.572
	c-0.083,0.304,0.307,0.13,0.242,0.41c-0.184,0.059-0.413,0.071-0.566,0.162c0.105,0.469,0.241,0.903,0.648,1.065
	c-0.396,0.056,0.183,0.516,0,0.572c-0.088,0.451,0.147,0.569,0.171,0.899c-0.012,0.266-0.489,0.056-0.413,0.407
	c0.271,0.245,0.543,0.499,0.82,0.737c-0.018,0.289-0.501,0.101-0.489,0.41c0.383,0.563-0.242,0.646-0.171,0.982
	c0.088,0.307,0.684-0.198,0.578,0.162c-0.036,0.396-0.744,0.13-0.82,0.49c-0.041,0.431,0.425,0.336,0.495,0.655
	c-0.218-0.023-0.354,0.03-0.33,0.245c0.194,0.377,0.495,0.652,0.737,0.982c-0.118,0.098-0.365,0.071-0.324,0.331
	c0.212,0.165,0.236,0.145,0.159,0.487c-0.124,0.313,0.366,0.018,0.242,0.33c-0.106,0.13-0.289,0.198-0.242,0.49
	c-0.018,0.233,0.537-0.1,0.413,0.242c0,0.357-0.625,0.091-0.655,0.41c-0.053,0.295,0.484,0.003,0.407,0.328
	c0,0.301-0.483,0.124-0.407,0.49c0.195,0.401-0.318,0.782,0.242,1.065c-0.236,0.242-0.177,0.69-0.159,0.982
	c0.023,0.767,0.242,1.729,0.572,2.372c0.095,0.201,0.301,0.283,0.407,0.49c0.165,0.345,0.183,0.569,0.159,0.985
	c0.295,0.248,0.631,0.46,0.82,0.817c-0.083,0.05,0.076,0.552-0.083,0.735c0.348,0.165,0.089,0.805,0.572,0.982
	c-0.619,1.153,0.549,1.826,0.902,2.534c-0.26,0.454,0.165,0.844,0.083,1.392c0.271,0.106,0.407,0.351,0.572,0.572
	c0.012,0.661,0.425,0.682,0.489,1.145c-0.1,0.174-0.307,0.236-0.324,0.493c0.755,0.195,0.914,0.991,1.469,1.39
	c0.525,1.301,0.803,2.71,1.47,3.678c-0.024,0.548,0.271,0.764,0.33,1.227c0.194,0.239,0.396,0.313,0.489,0.575
	c0.112,0.313-0.142,0.555-0.165,0.979c-0.023,0.545,0.153,1.088,0,1.637c-0.112,0.363,0.277,0.213,0.248,0.49
	c-0.731,0.714,0.277,2.08-0.248,3.109c0.023,0.227,0.46,0.029,0.413,0.327c-0.059,0.23,0.188,0.31,0.159,0.493
	c-0.018,0.168-0.254,0.207-0.242,0.569c0.013,0.354,0.195,0.708,0.242,1.065c0.159,1.236-0.076,2.522,0,3.761
	c0.023,0.33,0.177,0.669,0.248,0.982c0.365,1.614,0.266,3.534,0.33,5.233c-0.206,0.316-0.354,0.688-0.495,1.065
	c-0.006,0.28,0.501,0.05,0.495,0.328c-0.029,0.855,0.743,1.587,0.979,2.451c0.39,0.153,0.537-0.357,0.655,0
	c0.018,0.36-0.295,0.528-0.413,0.82c-0.271,0.693-0.065,1.109-0.159,1.72c-0.06,0.392-0.467,0.796-0.496,1.227
	c-0.035,0.548,0.431,1.135,0.496,1.717c0.117,1.065-0.473,2.304-0.325,3.434c0.089,0.72,0.514,1.124,0.566,1.799
	c0.354,0.301,0.473,0.834,0.737,1.227c-0.188,0.899,0.413,1.717,0.331,2.782c0.229,0.227,0.342,0.581,0.566,0.817
	c-0.101,0.785,0.572,1.504,1.067,1.964c0.095,0.773,0.731,1.012,0.979,1.634c0.625,0.115,0.908,0.569,1.145,1.065
	c-0.153,0.552-0.059,0.829,0,1.31c0.089,0.667,0.059,0.865,0,1.228c-0.101,0.667,0.248,0.785,0.33,1.307
	c0.095,0.669,0.018,0.938,0.325,1.227c-0.048,0.198-0.118,0.375-0.077,0.655c0.566,0.838,0.643,2.213,0.483,2.861
	c-0.082,0.359-0.142,0.31-0.324,0.572c-0.572,0.817,0.271,2.289,0.413,3.274c-0.254,1.224-0.313,2.638-0.572,3.841
	c-0.607,0.551-1.257,1.067-1.723,1.885c-0.194,0.342-0.188,0.773-0.489,1.063c-0.308,0.301-0.814,0.244-1.063,0.654
	c-1.145,0.056-1.398,0.838-2.289,1.389c-0.501,0.311-1.104,0.408-1.393,0.655c-0.483,0.41-0.56,1.15-0.737,1.8
	c0.318,0.495,0.873,0.764,0.903,1.551c0.454,0.162,0.295,0.422,0.902,0.41c1.439,1.343,1.575,3.979,3.676,4.661
	c-0.089,0.241-0.23,0.425-0.166,0.819c0.172,0.481,0.814,0.614,1.311,0.328c0.188-0.342-0.042-0.92,0.082-1.147
	c0.755,0.142,1.216,0.587,1.8,0.902c1.599,0.013,2.472,1.522,2.454,2.616c0.277,0.26,0.407,0.334,0.489,0.655
	c0.225,0.892,0,2.38,0,3.682c0,18.359,0,37.315,0,55.208c48.447,0,96.901,0,145.343,0c-0.219-0.431-0.607-0.695-0.737-1.227
	c0.224-0.357,0.26-1.041,0.33-1.307c-0.466-0.49-1.422-1.08-0.896-2.045c-0.466-0.483-0.077-1.313-0.165-2.127
	c0.507-0.393,0.383-1.416,0.648-2.044c-0.401-0.575-0.796-1.162-0.813-2.126c-0.413-0.57-1.098-0.865-1.228-1.721
	c-0.514-0.489-1.15-0.864-1.31-1.717c-0.962-0.646-1.563-1.654-2.531-2.289c-0.69,0.186-1.073-0.324-1.64-0.495
	c-0.602-0.177-1.263,0.035-1.8-0.159c-0.513-0.189-0.85-0.744-1.31-1.147c-0.124-0.233-0.159-0.05-0.489-0.08
	c-0.49-0.548-1.051-1.023-1.794-1.31c-0.082-0.357-0.194-0.678-0.413-0.899c-0.908,0.009-1.221-0.578-2.041-0.655
	c-0.714-0.466-1.056-1.292-1.971-1.555c-0.118-0.422-0.46-0.628-0.566-1.062c-0.023-0.295,0.147-0.396,0.165-0.655
	c-0.406-0.533-0.483-1.091-1.15-1.472c0.054-0.304,0.407-0.307,0.331-0.734c-0.431-0.661-1.086-1.095-1.558-1.72
	c-0.318,0.044-0.401-0.145-0.731-0.082c-0.384-0.549-1.304-0.553-1.641-1.145c-1.25-0.163-2.318-0.691-3.351-0.9
	c-0.277-0.053-0.578-0.006-0.82-0.082c-0.749-0.233-1.05-0.823-1.552-1.228c-0.407-0.333-0.973-0.448-0.979-0.979
	c0.473-0.48,0.319-0.743,0.401-1.31c-0.33-0.089-0.578-0.101-0.731,0.165c-0.566-0.545-1.404-0.896-2.454-0.737
	c-0.714-0.434-2.188-0.343-3.104-0.327c-0.277-0.216-0.59-0.396-1.15-0.324c-0.053-1.01-1.238-0.889-1.882-1.313
	c0-0.218,0-0.434,0-0.651c-0.867-0.74-1.917-1.305-2.53-2.293c-0.343,0.113-0.679-0.453-0.738-0.488
	c-0.105-0.06-0.33-0.01-0.495-0.084c-0.118-0.059-0.194-0.262-0.324-0.326c-0.531-0.26-1.039-0.216-1.145-0.655
	c-0.118-0.483,0.188-0.803,0.572-1.142c0.082-0.572,0.259-1.051,0.572-1.393c-0.136-0.965,0.277-1.622-0.242-2.289
	c0.236-0.248,0.466-0.345,0.566-0.654c0.076-0.207,0.153-0.902,0.082-1.228c-0.059-0.301-0.437-0.543-0.489-0.819
	c-0.101-0.514,0.213-1,0.165-1.473c-0.035-0.359-0.342-0.496-0.324-0.814c-0.236-0.018-0.194,0.307-0.413,0.08
	c0.194-0.457-0.248-0.498-0.324-0.9c0.596-0.465,1.368-0.758,1.717-1.471c-0.337-0.511-0.042-1.175-0.165-1.717
	c-0.095-0.416-0.525-0.535-0.49-0.986c0.502-0.675,0.324-2.079,0.159-2.943c0.461-0.467,1.263-0.566,1.558-1.227
	c0.159-0.36,0.018-0.8,0.159-1.145c0.295-0.682,0.997-0.83,1.393-1.391c-0.035-0.451,0.23-1.291-0.077-1.881
	c-1.114-0.331-1.421-1.467-2.129-2.21c-0.012-0.263,0.147-0.345,0.082-0.651c-0.549-0.705-1.622-1.384-2.619-0.738
	c-0.413-0.238-1.121-0.186-1.634-0.327c-0.019-0.091-0.095-0.127-0.166-0.162c-0.253-1.685,0.236-3.077,0.496-4.663
	c0.908-0.242,1.917-0.83,2.283-1.47c0.124-0.212,0.064-0.519,0.171-0.737c0.171-0.371,0.572-0.416,0.648-0.816
	c0.089-0.387-0.324-0.271-0.241-0.658c0.483-0.248,0.832-0.641,0.813-1.39c0.537-0.752,1.582-0.935,1.971-1.634
	c0.366,0.186,0.561-0.23,0.814-0.328c0.513-0.203,1.079-0.186,1.469-0.489c0.277-0.026,0.472-0.13,0.82-0.083
	c-0.095-1.578,1.191-0.77,2.289-0.816c0.271-0.432,0.543-1.089,0.896-1.393c0.613-0.516,1.245,0.269,2.053,0.244
	c0.561-0.32,0.673-0.775,0.649-1.554c0.271-0.248,0.619-0.422,1.067-0.489c0-6.381,0-12.759,0-19.142
	c0.26-0.009,0.178-0.366,0.325-0.489c0.348,0.253,0.365,0.021,0.813,0c0.308,0.109,0.88,0.292,1.15,0.162
	c0.248-0.153,0.349-0.221,0.242-0.572c0.313-0.15,0.602-0.325,0.578-0.817c-0.047-0.313-0.696-0.018-0.578-0.489
	c0.147-0.354,0.578-0.192,0.902-0.49c0.337-0.071,0.384,0.156,0.655,0.162c0.089-0.675,0.531-0.994,1.139-1.145
	c0.643-2.224,2.902-2.829,4.991-3.599c0.478-1.159,1.905-1.369,2.784-2.13c0.195,0.029,0.307,0.133,0.566,0.085
	c0.714-0.548,1.41-1.129,2.054-1.637c0.66-0.525,1.091-1.366,1.876-1.31c0.454-0.38,0.873-0.607,1.232-1.227
	c0.72-0.204,1.051-0.799,1.546-1.227c0.82-0.218,1.457-0.62,1.971-1.142c1.705-0.204,1.816-2.339,3.434-2.375
	c0.247-0.484,0.596-0.87,0.896-1.307c0.561-0.15,0.743-0.675,1.31-0.817c0.343-0.95,1.375-1.221,1.965-1.802
	c0.188-0.186,0.307-0.463,0.489-0.652c0.213-0.227,0.49-0.366,0.655-0.575c0.183-0.227,0.2-0.581,0.407-0.817
	c0.153-0.183,0.507-0.372,0.737-0.572c0.472-0.416,0.82-0.879,1.393-1.065c0.277-0.976,1.386-1.118,2.206-1.551
	c1.434-1.274,3.044-2.336,4.661-3.357c1.61-1.009,3.138-2.354,5.232-2.779c0.225-0.159,0.372-0.392,0.655-0.493
	c2.041-0.28,2.796-1.834,5.073-1.879c0.23-0.121,0.348-0.36,0.655-0.41c1.238,0.042,1.876-0.528,3.026-0.572
	c0.118-0.097,0.112-0.324,0.324-0.324c1.292-0.021,2.059-0.566,3.351-0.575c0.933-0.504,2.289-0.965,3.439-0.979
	c0.372-0.451,0.985-0.36,1.552-0.575c0.236-0.085,0.473-0.292,0.737-0.407c0.289-0.126,0.696-0.191,0.897-0.327
	c0.259-0.165,0.389-0.501,0.66-0.655c0.867-0.484,2.036-0.201,3.026-0.738c0.537,0.773,1.422-0.029,1.393-0.817
	c0.867-0.192,1.186-0.935,2.041-1.145c0.85,0.894,1.528-0.245,1.145-1.145c0.242-0.088,0.308-0.348,0.655-0.328
	c0.165,0.053,0.023,0.413,0.33,0.328c0.39-0.015,0.791-0.304,1.222-0.41c0.602-0.147,1.333,0.03,1.717-0.407
	c-1.54-0.095-2.773,0.292-4.248,0.162c-0.295-0.023-0.531-0.186-0.82-0.245c-0.431-0.091-0.873-0.103-1.31-0.245
	c-0.896-0.295-1.457-0.558-2.365-0.165c-0.195,0.761-1.204,1.292-2.13,1.145c-0.266-0.042-0.861-0.463-1.063-0.572
	c-0.672-0.342-1.168-0.915-1.64-1.145c0.112-0.115-0.018-0.398-0.077-0.572c-0.979-0.744-1.787-1.655-3.521-1.637
	c-0.071-0.062,0.041-0.439-0.324-0.407c-0.467-0.035-1.581-0.236-2.13,0.407c-0.254-0.047-0.502-0.088-0.737-0.08
	c-0.39,0.012-1.098,0.304-1.305,0.324c-0.135,0.015-0.253-0.165-0.412-0.162c-0.401,0.009-0.861,0.26-1.228,0.248
	c-0.324-0.015-0.596-0.321-0.979-0.165c-0.342-0.221-0.519-0.416-0.896-0.41c-0.26,0.003-0.454,0.257-0.737,0.245
	c-0.372-0.012-0.366-0.331-0.82-0.328c-0.413,0.083-0.478,0.504-0.896,0.572c-0.26-0.734-1.145,0.118-1.723-0.245
	c-0.242-0.251,0.507-0.387,0.165-0.734c-0.277-0.112-0.767-0.139-0.985-0.083c-0.188,0.077-0.301,0.242-0.407,0.41
	c-0.679-0.085-1.64,0.623-2.53,0.328c-0.349,0.321-1.033,0.404-1.641,0.245c-0.266-0.631-0.613-1.183-1.227-1.472
	c-0.195-0.455-0.213-1.095-0.566-1.393c-0.154-0.25-0.242,0.315-0.413,0c0.142-0.726,0.064-1.684-0.083-2.207
	c-0.661,0.147-0.95,0.345-1.552,0c-0.348,0.115-0.407,0.516-0.819,0.572c-1.481-0.062-2.254,1.142-3.759,1.307
	c-0.171,0.139-0.229,0.377-0.33,0.575c-0.219,0-0.437,0-0.655,0c-0.301,0.434-0.819,0.652-1.469,0.734
	c-0.566,0.991-1.717,1.466-2.708,2.047c-0.377,0.225-0.654,0.605-1.139,0.732c-0.46,0.126-0.896-0.05-1.392,0
	c-0.248,0.026-0.473,0.18-0.738,0.248c-0.619,0.153-1.339,0.062-1.958,0.328c-0.372-0.504-1.08-0.755-1.717-0.655
	c-0.23,0.035-0.502,0.33-0.737,0.41c-0.26,0.085-0.502,0.018-0.738,0.08c-0.295,0.08-0.495,0.443-0.737,0.248
	c0.065-0.779,0.349-1.339,0.572-1.965c-0.431-0.242-0.879,0.18-1.392,0.245c-0.779,0.1-1.245-0.095-1.552-0.407
	c-0.561-0.032-0.779,0.098-1.228,0c0.749-0.917-0.495-1.667-0.241-2.782c-0.384-0.286-1.546-0.191-2.048-0.083
	c-0.177-0.369-0.755-0.339-1.062-0.572c-0.378,0.171-0.649,0.077-0.979,0.165c-0.378-0.439-0.685-0.554-0.82-0.899
	c-0.678,0.003-1.356,0.009-1.805,0.245c0.153-0.428-0.378-0.339-0.566-0.493c-0.331-0.259-0.844-0.834-0.985-1.145
	c-0.313-0.708,0.413-0.805,0.165-1.469c-0.873-0.032-1.15-0.655-1.634-1.065c-2.142-0.383-3.753,0.342-6.06,0.08
	c-0.967,0.487-0.631,2.153-0.401,2.944c0.019,0.396,0.673,0.139,0.572,0.655c-0.153,0.201-0.483-0.109-0.819,0
	c-0.207,0.207-0.325,0.496-0.655,0.572c-0.442-0.242-0.82-0.115-1.227,0.086c-0.979-1.563-2.502-2.912-2.861-4.829
	c0.218-0.363,0.672-0.885,0.489-1.389c-0.101-0.147-0.425-0.065-0.572-0.166c-0.354-0.899-1.145-1.165-2.13-1.062
	c-0.313,0.032-0.631,0.286-0.979,0.327c-0.524,0.059-1.269,0.021-1.799,0c-0.171-0.009-0.289-0.139-0.49-0.165
	c-0.277-0.032-0.425,0.115-0.495,0.083c-0.313-0.162-0.343-0.593-0.649-0.817c0.271-1.086,1.393-0.897,2.454-0.982
	c0.124-0.628,0.013-1.189-0.247-1.634c-0.938-0.015-1.888-0.035-2.62,0.162c-0.33-0.298-0.79-0.239-1.221-0.41
	c-0.778-0.307-1.522-0.888-2.372-1.145c-0.259-0.077-0.578-0.009-0.819-0.083c-0.566-0.165-1.039-0.602-1.635-0.651
	c-0.018-0.257,0.054-0.602-0.082-0.738c-1.051,0.386-2.165-0.018-3.192,0.083c-0.584,0.056-1.079,0.36-1.634,0.328
	c-0.613-0.039-1.026-0.434-1.634-0.248c-1.003-1.283-3.233-0.245-4.508-0.162c-0.242,0.254-0.483,0.634-0.896,0.738
	c-0.396,0.097-0.584-0.006-0.979-0.166c-0.419,0.448-1.245,0.499-1.8,0.817c-0.082,0.682,0.585,0.77,0.325,1.393
	c-0.702-0.124-1.257,0.499-2.042,0.655c-0.218,0.042-0.489-0.026-0.737,0c-0.318,0.033-0.666,0.204-0.979,0.245
	c-1.746,0.236-3.628,0.124-5.403,0.163c-0.018-0.304-0.401-0.248-0.484-0.49c0.419-0.965-0.006-2.702-0.737-3.271
	c-0.466-0.127-0.955,0.033-1.475,0c-0.885-0.056-1.829-0.38-2.785-0.41c-0.271-0.009-0.602,0.1-0.896,0.083
	c-0.153-0.009-0.33-0.145-0.489-0.162c-2.124-0.283-3.953,0.221-5.723-0.41c-0.188-0.39-0.413-0.737-0.33-1.393
	c-0.283-0.233-0.69-0.38-1.145-0.41c-0.23-0.012-0.319,0.141-0.572,0.165c-0.744,0.065-1.398-0.31-1.883-0.328
	c-0.365-0.012-0.654,0.242-0.979,0.163c-0.378,0.746-1.517,0.351-2.867,0.33c-0.254-0.13-0.308-0.454-0.566-0.572
	c-0.271,0-0.549,0-0.82,0c-0.442-0.33-0.915-0.613-1.552-0.737c-0.442-0.867-1.965-1.198-1.971-2.454
	c0-0.396,0.349-0.823,0.413-1.145c0.277-1.336-0.076-2.449-0.33-3.354c-0.13-0.487-0.147-0.968-0.242-1.472
	c-0.142-0.746-0.519-1.658-0.737-2.289c-0.136-0.404-0.13-0.837-0.242-1.065c-0.147-0.301-0.513-0.513-0.66-0.82
	c-0.048-0.106,0.053-0.354,0-0.49c-0.048-0.145-0.178-0.33-0.242-0.49c-0.07-0.186-0.206-0.392-0.242-0.569
	c-0.142-0.593-0.035-1.204-0.171-1.802c-0.188-0.894-0.908-1.637-0.814-2.616c0.03-0.354,0.401-0.366,0.331-0.817
	c-2.029-0.1-2.549-1.711-4.909-1.475c-0.365,0.428-1.132,0.451-1.964,0.41c-0.561-0.525-1.629-0.557-2.372-0.899
	c0,4.389,0,8.781,0,13.168c-19.356,0-38.713,0-58.069,0c0,0.519,0,1.035,0,1.554c0.359,0.458,0.389,1.239,0.896,1.555
	C129.563,88.717,129.563,88.909,129.563,89.101z"/>
</svg>
