<?xml version="1.0" encoding="utf-8"?>
<!-- Generator: Adobe Illustrator 16.0.0, SVG Export Plug-In . SVG Version: 6.00 Build 0)  -->
<!DOCTYPE svg PUBLIC "-//W3C//DTD SVG 1.1//EN" "http://www.w3.org/Graphics/SVG/1.1/DTD/svg11.dtd">
<svg version="1.1" id="Calque_1" xmlns="http://www.w3.org/2000/svg" xmlns:xlink="http://www.w3.org/1999/xlink" x="0px" y="0px"
	 width="432px" height="432px" viewBox="0 0 432 432" enable-background="new 0 0 432 432" xml:space="preserve">
<path fill-rule="evenodd" clip-rule="evenodd" d="M258.567,267.533c-0.248-0.063-0.495-0.192-0.743-0.242
	c-0.142-0.035-0.324,0.029-0.489,0c-0.349-0.064-0.69-0.537-0.938-0.445c-0.407,0.147-0.932,0.279-1.381,0.295
	c-0.159,0.006-0.307-0.121-0.448,0c0.13,0.351,0.39,0.463,0.596,0.492c0.242,0.035,0.708-0.165,1.08-0.197
	c1.121-0.092,1.711,0.66,2.767,0.791c0.207,0.023,0.39-0.019,0.584,0c0.561,0.043,1.08,0.244,1.534,0.295
	c0.803,0.082,1.894,0.262,1.817-0.594c-0.283-0.08-0.396,0.071-0.638,0.101c-1.209,0.133-2.105-0.188-2.955-0.345
	C259.069,267.63,258.827,267.606,258.567,267.533z"/>
<path fill-rule="evenodd" clip-rule="evenodd" d="M242.945,269.754c0.26,0.018,0.36-0.225,0.49-0.398
	c0.295-0.387,0.513-0.799,0.796-1.18c0-0.098,0-0.197,0-0.295c0.236-0.147,0.437-0.566,0.289-0.938
	c-0.064-0.004-0.07-0.065-0.147-0.048c-0.118,0.145-0.224,0.304-0.396,0.396c-0.018,0.156,0.071,0.422-0.1,0.439
	c-0.254,0.064-0.289-0.104-0.484-0.098c-0.613,0.245-1.569-0.186-2.318,0.051c0,0.097,0,0.197,0,0.295
	c0.638,0.152,1.369,0.206,2.018,0.345c-0.342-0.044-0.489,0.104-0.442,0.442c0.277,0.178,0.508-0.13,0.644,0
	C243.122,269.014,242.804,269.353,242.945,269.754z"/>
<path fill-rule="evenodd" clip-rule="evenodd" d="M250.09,267.928c0.483,0.118,1.145,0.004,1.127-0.539
	c-0.201-0.121-0.425-0.228-0.785-0.198C250.42,267.516,250.072,267.733,250.09,267.928z"/>
<path fill-rule="evenodd" clip-rule="evenodd" d="M249.004,268.471c-0.578-0.213-1.256,0.245-1.917,0.147
	c-0.047,0.351,0.277,0.345,0.442,0.493C248.055,268.934,248.804,268.975,249.004,268.471z"/>
<path fill-rule="evenodd" clip-rule="evenodd" d="M267.033,268.719c-0.13-0.039-0.183-0.139-0.289-0.15
	c-0.543-0.053-1.186,0.218-1.628,0.298c-0.448-0.08-0.69-0.36-1.18-0.396c-0.03,0.104-0.124,0.139-0.101,0.295
	c0.501,0.387,1.445,0.643,2.313,0.492c0.354-0.059,0.714-0.097,0.985-0.146c0.112-0.021,0.401-0.106,0.448-0.195
	C267.6,268.624,267.204,268.763,267.033,268.719z"/>
<path fill-rule="evenodd" clip-rule="evenodd" d="M271.128,134.467c2.235-20.404,4.101-40.749,6.307-61.041
	c-0.266,0.003-0.26,0.021-0.442,0.05c-0.283-0.25-0.525-0.534-0.838-0.74c-0.489-0.991-0.991-1.971-1.581-2.858
	c-24.454,0-48.901,0-73.355,0c0.118,0.669,0.607,0.897,1.139,1.233c0.165,0.104,0.318,0.218,0.483,0.342
	c0.194,0.145,0.401,0.233,0.496,0.395c0.448,0.779,0.105,2.056-0.638,2.316c-0.584,0.094-1.298,0.345-1.434,1.035
	c0.077,0.174,0.289,0.201,0.201,0.54c-0.23,0.068-0.354,0.236-0.496,0.395c-0.089-0.044-0.124-0.136-0.289-0.097
	c-0.029-0.392-0.39-0.667-0.643-0.693c-0.271-0.023-0.632,0.271-1.033,0.446c-0.188,0.08-0.383,0.074-0.501,0.15
	c-0.366,0.236-0.49,0.802-0.879,0.737c-0.118-0.147-0.165-0.363-0.254-0.543c-0.13-0.012-0.153-0.091-0.242-0.245
	c0.177-0.566-0.1-1.283-0.396-1.675c-0.229,0.018-0.412-0.018-0.596-0.05c-0.105-0.033-0.029-0.26-0.241-0.198
	c-0.189,0.039-0.23,0.23-0.343,0.345c-0.142,0.147-0.354-0.065-0.396,0.195c-0.129,0.245,0.178,0.569,0,0.888
	c0.207,0.437,0.591,0.693,0.69,1.233c0.089,0.156,0.189-0.018,0.289,0.101c-0.307,0.401-0.714,0.702-0.637,1.327
	c0.041,0.348,0.318,0.696,0.495,0.985c0.219,0.363,0.514,0.74,0.442,1.085c-0.147,0.776-2.271,1.023-2.513,0.198
	c0.142-0.106,0.206-0.283,0.396-0.345c-0.166-0.372,0.265-0.463,0.295-0.737c0.035-0.316-0.343-0.549-0.153-0.988
	c-0.248-0.121-0.349-0.354-0.638-0.54c-0.613,0.08-0.956,0.416-0.885,0.982c0.018,0.142,0.26,0.292,0.248,0.445
	c-0.012,0.115-0.124,0.086-0.101,0.248c0.047,0.201,0.39,0.366,0.2,0.64c-0.241-0.036-0.147-0.189-0.442-0.101
	c-0.177,0.168-0.165,0.357-0.501,0.443c-0.301,0.504-0.159,1.142,0.301,1.38c0.165,0.021,0.277-0.021,0.396-0.05
	c-0.054,0.15,0.105,0.088,0.194,0.101c0.165,0.015,0.059,0.301,0.295,0.245c0.425-0.156,0.655-0.059,0.933,0.05
	c0.271,0.085,0.183-0.189,0.4-0.147c0.266,0.186,0.708,0.212,0.933,0.442c0.023,0.947-0.442,1.038-0.985,1.575
	c-0.301,0.307-0.531,0.604-0.731,0.74c-0.525,0.339-1.269,0.177-1.333-0.392c-0.071-0.593,0.466-0.782,0.542-1.183
	c0.106-0.581-0.229-1.074-0.943-0.988c-0.112,0.263-0.13,0.62-0.142,0.988c-0.153,0.177-0.277,0.375-0.442,0.543
	c-0.36,1.407,0.064,2.961,0.885,3.643c0.33-0.012,0.401-0.047,0.643,0.05c0.036,0.13,0.089,0.233,0.147,0.345
	c0.036,0.124,0.296,0.026,0.289,0.195c-0.082,0.791-0.813,0.796-1.279,1.136c-0.378,0.274-0.832,0.832-0.979,1.28
	c-0.36,1.074,0.354,1.794,0.437,2.661c0.023,0.215,0.029,0.596-0.048,0.788c-0.153,0.401-1.18,0.97-1.527,1.035
	c-0.101,0.021-0.242-0.018-0.343,0c-0.159,0.301-0.702,0.218-0.932,0.445c-0.023,0.28,0.018,0.504,0.041,0.738
	c-0.064,0.142-0.218,0.206-0.295,0.342c-0.083,0.342,0.059,0.274,0.153,0.496c-0.059,0.396,0.118,0.726,0,1.036
	c-0.277,0.186-0.673,0.035-0.891,0c-0.177-0.212,0.023-0.649-0.101-0.985c0-0.215,0.372-0.059,0.349-0.298
	c0.041-0.339,0.13-0.628,0.2-0.935c-0.726-0.142-0.902,0.363-1.534,0.295c-0.425-0.047-0.772-0.475-1.274-0.345
	c-0.276,0.074-0.554,0.599-0.4,1.035c0.088,0.219,0.566,0.41,0.696,0.69c0.059,0.13,0.1,0.413,0.094,0.59
	c-0.006,0.192-0.142,0.499-0.147,0.593c-0.023,0.383-0.224,1.041-0.59,1.083c-0.619,0.071-0.607-0.805-1.428-0.64
	c-0.266,0.053-0.602,0.354-0.69,0.493c-0.425,0.634-0.047,1.853-0.495,2.563c-0.112,0.18-0.337,0.271-0.49,0.442
	c-0.354,0.047-0.253-0.044-0.442-0.15c-0.029-0.012-0.212-0.095-0.448,0c-0.212-0.186-0.194-0.322-0.295-0.59
	c-0.224-0.023-0.318-0.168-0.489-0.248c0.136-0.457-0.467-0.708-0.69-0.637c-0.201,0.062-0.39,0.369-0.396,0.637
	c-0.006,0.094,0.13,0.218,0.153,0.398c0.023,0.315-0.035,0.413,0.101,0.59c0.396,0.041,0.384,0.336,0.483,0.59
	c0.112,0.133,0.213,0.08,0.396,0.05c0.342,0.858,1.54,0.209,2.313,0.147c0.124,0.18,0.39,0.239,0.644,0.147
	c0.1,0.13,0.259,0.207,0.247,0.442c0.118,0.124,0.207,0.142,0.242,0.248c0.077,0.245-0.177,0.295-0.289,0.443
	c-0.112,0.142-0.159,0.324-0.295,0.442c-0.254,0.221-0.649,0.236-0.891,0.493c-0.378-0.098-0.49-0.46-0.985-0.442
	c-0.124-0.086-0.071-0.354-0.195-0.446c-0.342-0.038-0.607-0.142-0.689-0.439c-0.325-0.109-1.086-0.029-1.428,0.147
	c-0.089,0.142-0.142,0.319-0.248,0.442c-0.266-0.012-0.324,0.071-0.495,0.245c0.194,0.277-0.019,0.342-0.048,0.64
	c0.295,0.551,0.661,0.941,1.139,1.283c0.188,0.139,0.413,0.342,0.537,0.392c0.537,0.221,0.974-0.08,1.48,0.05
	c0.142,0.425-0.177,0.714-0.301,1.035c-0.177,0.487-0.101,1.083-0.543,1.378c-1.021-0.186-1.186,0.327-1.717,0.545
	c-0.224,0.085-0.437,0.053-0.743,0.145c-0.07,0.207-0.301,0.257-0.348,0.496c0.023,0.254,0.224,0.339,0.254,0.59
	c0.135,0.009,0.336-0.044,0.342,0.098c0.142,0.133-0.029,0.318,0,0.492c0.029,0.171,0.13,0.222,0.147,0.396
	c-0.124,0.006-0.077,0.183-0.147,0.248c-0.36-0.177-0.472,0.227-0.891,0.147c-0.101-0.283-0.39-0.381-0.49-0.693
	c-0.088-0.286-0.076-0.578-0.295-0.688c-0.348-0.059-0.159,0.221-0.495,0.248c-0.454-0.133-0.933-0.251-1.133-0.64
	c-0.349,0.115-0.442-0.136-0.644-0.298c-0.943-0.003-0.584,1.554,0.153,1.33c0.095,0.077-0.006,0.336,0.201,0.295
	c0.413,0.027,0.654,0.215,0.59,0.59c0.248,0.256,0.566,0.292,0.731,0.545c0.661,0.959-0.667,1.938-1.133,2.413
	c-0.006,0.242-0.277,0.493-0.041,0.69c-0.118,0.018-0.236,0.029-0.201,0.197c0.101,0.605,0.378,1.03,0.791,1.328
	c0.089,0.271,0.295,0.422,0.39,0.69c0.383-0.118,0.383,0.292,0.596,0.395c0.229,0.109,0.401-0.036,0.59,0.097
	c0.035,0.292,0.318,0.496,0.342,0.938c-0.142,0.147-0.235,0.351-0.442,0.442c-0.094,0.032,0.029,0.295-0.147,0.245
	c-0.342,0.112-0.619-0.224-0.985,0c-0.194-0.207-0.354-0.578-0.689-0.493c0.147-0.174,0.018-0.174,0-0.392
	c-0.325-0.242-0.667-0.333-0.985-0.198c-0.36,0.153-0.413,0.643-0.738,0.788c-0.153-0.112-0.282-0.345-0.442-0.298
	c-0.018-0.097-0.136-0.142-0.194-0.195c-0.07-0.053-0.101-0.198-0.254-0.147c-0.336,0.13-0.094,0.652-0.536,0.737
	c0.212,0.26,0,0.528,0.047,0.741c0.029,0.162,0.206,0.188,0.2,0.395c-0.064,0.139-0.059,0.336-0.053,0.54
	c0.271,0.05,0.006,0.348,0.147,0.542c0.101,0.18,0.289-0.029,0.448,0.098c0.089,0.088,0.118,0.239,0.242,0.298
	c0.442-0.08,0.643-0.186,1.18-0.101c0.254-0.145,0.384-0.407,0.696-0.489c0.59,0.398,1.067,1.1,0.979,1.77
	c-0.124,0.036-0.178,0.186-0.289,0.248c-0.136,0.071-0.331,0.038-0.496,0.097c-0.153,0.053-0.26,0.189-0.396,0.248
	c-0.313,0.139-0.625,0.177-0.885,0.342c0.054-0.286-0.602-0.631-0.79-0.392c0-0.13,0.023-0.28-0.048-0.345
	c-0.183-0.041-0.241-0.221-0.495-0.198c-0.136-0.298-0.454-0.655-0.637-0.837c-0.195-0.189-0.331-0.587-0.638-0.59
	c-0.124-0.162-0.153,0.177-0.354,0.098c0.012-0.095-0.03-0.068-0.095-0.098c-0.177-0.074-0.277-0.177-0.543-0.147
	c-0.006,0.171-0.318,0.245-0.543,0.198c-0.229,0.387-0.46,0.688-0.342,1.233c0.089,0.407,0.431,0.528,0.737,0.788
	c0.183,0.147,0.366,0.313,0.543,0.442c0.702,0.522,1.711,1.204,1.28,2.561c-0.242,0.761-1.363,0.731-2.018,0.445
	c0.136-0.336-0.277-0.454-0.644-0.445c0.042,0.142-0.088,0.042-0.1,0.05c-0.147,0.121-0.331,0.549-0.343,0.838
	c-0.006,0.295,0.207,0.607,0.195,0.888c0.282,0.13,0.289,0.407,0.548,0.64c0.354,0.33,0.933,0.469,1.08,0.838
	c0.13,0.304-0.13,0.855-0.147,1.23c-0.466-0.209-0.413,0.454-0.69,0.593c-0.23-0.074-0.124,0.039-0.342,0.047
	c-0.124,0.171-0.071,0.218-0.201,0.348c-0.165,0.174-0.324,0.065-0.543,0.194c-0.259,1.068,1.098,0.779,1.776,0.738
	c0.101-0.354,0.489-0.271,0.584-0.54c0.006-0.029,0.012-0.059,0.059-0.05c0.065-0.221-0.147-0.153-0.1-0.342
	c0.301-0.517-0.225-1.679,0.395-1.776c0.302-0.047,0.308,0.218,0.537,0.345c0.743-0.012,1.139,0.643,1.038,1.475
	c-0.041,0.345-0.437,0.95-0.495,0.988c-0.165,0.112-0.295,0.033-0.489,0.097c-0.142,0.177-0.413,0.501-0.69,0.248
	c-0.142,0.071-0.325,0.221-0.448,0.248c-0.201,0.042-0.473-0.032-0.738,0c-0.053,0.139-0.206,0.183-0.295,0.292
	c-0.047,0.546,0.118,0.874,0.644,0.838c0.153,0.097,0.106,0.38,0.342,0.396c0.307,0.059,0.661,0.062,0.885,0.197
	c0.343-0.094,0.449-0.313,0.892-0.197c0.413-0.221,0.831-0.449,1.032-0.885c-0.136-0.321,0.041-0.528,0.101-0.788
	c0-0.321-0.112-0.274-0.048-0.596c0.023-0.136,0.101-0.088,0.147-0.242c0.048-0.18-0.07-0.458,0.048-0.596
	c0.708-0.012,1.18,0.201,1.18,0.888c0.023,0.168,0.188-0.13,0.147,0.1c0,0.083,0,0.165,0,0.245c-0.36,0.115-0.502,0.449-0.638,0.791
	c-0.229-0.053-0.283,0.08-0.395,0.147c-0.089,0.248-0.189,0.554-0.49,0.442c-0.212,0.383-0.371,0.767-0.643,1.083
	c-0.343,0.404-0.844,0.469-0.938,0.888c-0.029,0.145-0.101,0.325,0.101,0.442c-0.153-0.021-0.219,0.044-0.194,0.198
	c0.064,0.201,0.064,0.454,0.194,0.593c-0.006,0.127-0.213,0.05-0.147,0.245c-0.029,0.596,0.33,0.684,0.489,1.183
	c0.077,0.225,0.036,0.508,0.101,0.69c0.095,0.254,0.472,0.339,0.596,0.493c0.183,0.174,0.165,0.552,0.59,0.493
	c0.124-0.168,0.101-0.419,0.142-0.64c0.018-0.059,0.095-0.065,0.101-0.097c0.035-0.121,0-0.434,0.053-0.546
	c0.124-0.28,0.437-0.62,0.832-0.64c0.083,0.218,0.372,0.221,0.549,0.348c0.089,0.324-0.159,0.637,0,1.032
	c-0.59,0.369-0.702,1.209-1.575,1.283c0.064,0.109-0.095,0.124-0.101,0.147c-0.2,0.425,0.029,1.077,0.101,1.723
	c0.089,0.841,0.142,1.72-0.248,1.971c-0.519,0.336-1.038,0.032-1.675,0.05c-0.136-0.062-0.089-0.307-0.248-0.345
	c-0.283-0.263-1.092-0.266-1.428-0.047c0.159,0.375-0.271,0.46-0.343,0.637c-0.041,0.38,0.23,0.451,0.142,0.888
	c0.147,0.133,0.401,0.142,0.543,0.147c0.225,0.115,0.207,0.192,0.295,0.393c0.219,0.053,0.396,0.221,0.596,0.348
	c0.083,0.056,0.172,0.071,0.296,0.147c0.059,0.035,0.235,0.242,0.241,0.245c0.118,0.039,0.248-0.053,0.349,0
	c0.082,0.044,0.088,0.198,0.194,0.198c-0.142,0.328,0.271,0.425,0.295,0.737c-0.218,0.204-0.348,0.484-0.342,0.788
	c-0.791,0.018-1.346,0.145-1.233,1.136c-0.136,0.192-0.236,0.419-0.342,0.64c-0.236,0.065-0.289,0.31-0.496,0.395
	c-0.041,0.304-0.171,0.387-0.396,0.59c-0.012,0.372,0.06,0.557-0.047,0.788c-0.59-0.101-0.089,0.631-0.396,1.035
	c0.301,0.496,0.768,0.953,1.575,0.788c0.201,0.112,0.172,0.136,0.496,0.101c0.101-0.39,0.448-0.331,0.737-0.446
	c0.089-0.171,0.012-0.206-0.047-0.342c0.313-0.366,0.159-1.012,0.047-1.481c0.012-0.153,0.266-0.062,0.242-0.245
	c-0.06-0.31-0.419-0.033-0.442-0.345c0.247-0.133,0.188-0.572,0.442-0.69c0.336,0.133,0.478-0.127,0.79-0.147
	c0.035,0.103,0.077,0.103,0.153,0.05c0.048,0.445,0.437,0.681,0.49,1.133c0.029,0.221-0.077,0.489-0.048,0.74
	c0.213,0.289,0.366,0.808,0.49,1.032c-0.318,0.039-0.307,0.398-0.242,0.69c-0.225,0.195-0.124,0.451-0.153,0.74
	c-0.023,0.345-0.124,0.72-0.489,0.935c-0.337,0.198-0.768,0.098-0.991,0.493c-0.242-0.035-0.366,0.053-0.484,0.147
	c-0.082,0.136,0.023,0.251-0.053,0.445c-0.596,0.209-0.761,0.844-0.785,1.625c0.295,0.168,0.042,0.702,0.189,1.083
	c-0.065,0.145-0.277,0.139-0.289,0.345c-0.023,0.366,0.407,0.28,0.348,0.69c0.584,0.36,1.222,0.115,1.918,0.395
	c0.147-0.071-0.013-0.142,0.147-0.197c0.105,0.271,0.631,0.259,0.938,0.197c0.071,0.416,0.39,0.269,0.442,0.637
	c0.089,0.625-0.613,0.779-0.938,1.133c-0.136,0.142-0.054,0.322-0.242,0.345c-0.165-0.027-0.236,0.032-0.348,0.05
	c-0.479,0.726-1.352,1.047-1.918,1.676c-0.035,0.782,0.225,1.277,0.59,1.675c0.006,0.369,0.219,0.534,0.543,0.59
	c0.059-0.274,0.502-0.233,0.637-0.05c0.531-0.106,0.809-0.472,1.381-0.54c-0.047-0.212,0.194-0.133,0.194-0.298
	c0.184,0.094,0.366,0,0.496-0.097c0.076-0.186,0.041-0.478,0.101-0.69c0.313,0.115,0.271-0.372,0.241-0.64
	c0.543-0.168,1.233,0.549,1.033,1.136c0.183,0.071,0.064,0.331,0.053,0.49c-0.283-0.124-0.266,0.147-0.496,0.198
	c-0.064,0.121,0.142,0.204,0,0.248c-0.147,0.044-0.188,0.204-0.448,0.145c-0.117,0.23-0.105,0.463-0.194,0.643
	c-0.607,0.03-1.28,0.245-1.522,0.788c0.118,0.227,0.331,0.192,0.496,0.442c-0.177,0.186,0.088,0.239,0.094,0.396
	c0.289-0.039,0.254-0.003,0.496,0.05c-0.041,0.171,0.053,0.207,0.095,0.295c0.542,0.159,1.292,0.38,1.675,0.737
	c0.136,0.13,0.372,0.457,0.343,0.643c-0.036,0.28-0.467,0.463-0.838,0.392c-0.773-0.145-1.493-1.088-1.717-1.726
	c-0.06-0.121-0.318-0.047-0.349-0.198c0.136-0.212-0.064-0.262-0.094-0.439c-0.407,0.121-0.39-0.206-0.644-0.348
	c-0.437,0.08-0.359,0.661-0.643,0.888c-0.372,0.92-0.201,1.855,0.194,2.413c0.271,0.372,0.36,0.428,0.69,0.693
	c0.301,0.233,0.431,0.36,0.79,0.54c0.384,0.192,0.667,0.363,1.127,0.248c0.023-0.233,0.178-0.227,0.549-0.197
	c0.177-0.163,0.035-0.331,0.295-0.396c0.354,0.13,0.743-0.08,1.086,0.05c-0.106,0.162,0.094,0.262,0.147,0.395
	c0.2,0.522,0.064,0.861-0.201,1.23c-0.2,0.086-0.206,0.177-0.489,0.098c-0.006,0.542-0.472,0.92-0.59,1.333
	c-0.207,0.72,0.212,0.876,0.979,1.033c0.348,0.071,0.731,0.201,1.038,0.248c0.212,0.03,0.419-0.003,0.596,0.047
	c0.165,0.053,0.301,0.195,0.442,0.198c0.578,0.018,0.708-0.563,0.979-0.738c0.065,0.31-0.206,0.54-0.289,0.788
	c-0.083,0.221-0.047,0.478-0.153,0.69c-0.095,0.198-0.336,0.484-0.489,0.64c-0.172,0.168-0.425,0.286-0.644,0.445
	c-0.212,0.153-0.407,0.422-0.69,0.292c0-0.277,0.095-0.271-0.047-0.442c-0.384-0.059-0.454,0.251-0.743,0.15
	c-0.225,0.501-0.018,1.168,0.1,1.625c-0.519,0.513,0.213,2.035-0.737,2.165c-0.271-0.292-0.218-0.604-0.342-1.035
	c-0.413,0.047-0.472-0.251-0.638-0.443c-0.354,0.089-0.495-0.029-0.843-0.05c-0.219,0.204-0.03,0.51-0.147,0.791
	c-0.407-0.183-0.974-0.566-1.428-0.15c-0.101,0.207-0.013,0.49-0.296,0.593c-0.437-0.094-0.643-0.139-1.138-0.195
	c-0.101,0.156-0.213,0.304-0.343,0.439c-0.159,0.027-0.171-0.088-0.348-0.047c-0.46,0.395-0.508,0.92-0.484,1.823
	c0.018,0.166-0.224,0.077-0.153,0.295c0.018,0.212,0.236,0.227,0.295,0.393c0.184,0.1-0.07,0.336,0.153,0.395
	c0.142,0.174,0.289-0.062,0.443-0.047c0.159,0.068,0.307,0.15,0.342,0.342c0.407,0.056,0.95,0.18,1.381,0.05
	c0.165-0.133,0.111-0.472,0.348-0.542c0.648-0.074,1.026,0.118,1.428,0.298c0.023-0.401,0.2-0.605,0.147-1.183
	c-0.118-0.212-0.489-0.434-0.301-0.788c0.413-0.003,0.295,0.531,0.844,0.393c0.13,0.094,0.118,0.342,0.295,0.395
	c0.301,0.091,0.271-0.153,0.442-0.198c0.041,0.101,0.159,0.136,0.242,0.198c0.094,0.9-0.378,1.434-1.039,1.428
	c-0.147,0.301,0.201,0.396,0.101,0.788c-0.236,0.071-0.372,0.251-0.442,0.496c-0.142,0.127-0.23,0.085-0.489,0.047
	c-0.207,0.236-0.69,0.197-0.938,0.392c-0.153,0.57,0.33,1.313-0.047,1.675c-0.236-0.092-0.313-0.345-0.738-0.244
	c-0.4-0.473-0.365-1.375-1.18-1.431c-0.212,0.136-0.371,0.322-0.69,0.348c-0.088,0.269-0.111,0.778,0,1.035
	c0.201,0.139,0.732-0.047,0.732,0.292c0.59-0.032,1.321,0.283,1.828,0.349c0.184,0.743,0.077,1.298-0.348,1.772
	c-0.667,0.322-1.522,0.328-2.213,0.393c-0.265,0.026-0.701,0.489-0.843,0.737c-0.124,0.228-0.23,0.599-0.242,0.838
	c-0.012,0.38,0.289,0.808,0.242,1.136c-0.013,0.115-0.248,0.086-0.095,0.248c-0.183-0.101-0.33-0.006-0.543,0
	c-0.283,0.578-0.607,0.935-1.085,1.277c-0.242,0.176-0.537,0.359-0.785,0.542c-0.242,0.177-0.679,0.315-0.596,0.741
	c0.218,0.029,0.271,0.224,0.354,0.392c0.195,0.104,0.484,0.012,0.584,0.298c-0.129,0.251-0.088,0.398-0.047,0.738
	c-0.248,0.197-0.454,0.158-0.891,0.197c-0.301-0.236-0.384-0.699-0.59-1.035c-0.071-0.219,0.142-0.15,0.1-0.346
	c-0.059-0.006-0.059-0.076-0.047-0.147c-0.153-0.147-0.212-0.216-0.401-0.392c-0.555-0.068-0.737,0.244-1.18,0.295
	c-0.396,0.648-0.661,1.574-0.879,2.265c-0.188,0.552-0.549,1-0.448,1.626c0.448,0.209,1.333,0.162,1.676-0.148
	c0.359,0.042,0.643,0.074,0.731-0.247c0.578,0.015,0.619-0.06,1.232-0.145c0.207,0.501,0.213,0.905-0.194,1.083
	c-0.124,0.056-0.366-0.036-0.49,0.097c-0.295-0.393-0.678-0.165-1.032-0.097c-0.153-0.013-0.147-0.189-0.247-0.246
	c-0.661,0.137-1.127-0.062-1.823,0.098c-0.195,0.496-0.525,0.853-0.791,1.28c-0.212,1.31,0.36,2.658,0,3.499
	c-0.118,0.283-0.437,0.406-0.442,0.787c-0.359-0.145-0.437,0.239-0.885,0.15c-0.118-0.044-0.053-0.277-0.254-0.248
	c-0.561-0.177-0.979-0.634-1.475-0.74c-0.065-0.242-0.053-0.563-0.39-0.543c-0.1,0.313-0.46,0.369-0.643,0.594
	c0.07,0.418-0.018,0.442-0.101,0.838c0.171,0.457,0.525,0.723,0.791,1.082c0.454-0.111,0.554,0.171,1.032,0.147
	c0.153-0.339,0.466-0.286,0.844-0.343c0.177-0.043-0.042-0.212,0.142-0.197c0.631-0.018,1.103,0.248,1.091,0.688
	c-0.012,0.274-0.413,0.682-0.596,0.838c-0.218,0.191-0.318,0.244-0.543,0.396c-0.561,0.372-1.504,0.87-2.212,0.69
	c-0.159,0.2-0.39,0.31-0.69,0.342c-0.076,0.533,0.301,0.799,0.289,1.333c0,0.133-0.076,0.23-0.095,0.343
	c-0.159,0.844,0.118,1.79,0.537,2.268c0.248,0.277,0.708,0.508,0.891,0.788c0.407,0.62,0.089,1.239-0.389,1.675
	c-0.313,0.143-0.75,0.157-1.092,0.051c0.136-0.286-0.13-0.625-0.342-0.69c0.035-0.136-0.101-0.097-0.101-0.197
	c0.018-0.115,0.076-0.183,0.053-0.345c-0.124-0.156-0.2-0.36-0.295-0.541c0.054-0.174,0.13-0.326,0.101-0.592
	c-0.112-0.054-0.136-0.195-0.254-0.245c-0.69,0.026-0.926,0.519-1.28,0.885c0.023,0.204-0.023,0.396,0,0.59
	c0.048,0.331,0.225,0.894,0.496,0.988c0.224,0.062,0.549-0.469,0.838-0.349c0,0.41-0.302,0.225-0.396,0.496
	c0.064,0.298,0.153,0.596,0.053,0.938c0.118,0.216,0.26,0.133,0.442,0.242c0,0.118,0,0.23,0,0.348
	c0.431,0.316,1.039,0.703,0.979,1.379c-0.023,0.348-0.307,0.519-0.39,0.887c-0.247,0.018-0.359,0.254-0.548,0.346
	c-0.591,0.286-1.476,0.292-2.16,0.147c-0.123-0.026-0.271-0.133-0.4-0.147c-0.909-0.115-1.723,0.238-1.476,1.032
	c0.118,0.396,0.685,0.603,0.985,0.888c0.514,0.487,1.133,1.115,0.891,1.921c-0.082,0.263-0.088,0.469-0.2,0.64
	c-0.271,0.434-0.991,0.926-0.79,1.578c0.1,0.33,0.472,0.705,0.79,1.133c0.083,0.109,0.118,0.251,0.2,0.346
	c0.479,0.599,1.375,0.693,1.274,1.775c-0.555,0.885-1.61,1.28-2.507,1.82c21.545,0.115,43.303,0.018,64.931,0.047
	c0.06,0.174,0.124,0.34,0.242,0.445c0.271-0.009,0.52-0.31,0.643-0.295c0.442,0.48-0.277,0.918,0.147,1.33
	c-0.165-0.041-0.206,0.053-0.295,0.098c-0.082,0.431-0.548,0.537-0.59,0.936c-0.029,0.291,0.266,0.469,0.095,0.838
	c0.029,0.123,0.26,0.043,0.2,0.247c-0.188,0.012-0.348,0.044-0.489,0.101c-0.106,0.191,0.006,0.354,0.047,0.539
	c-0.194-0.014-0.365-0.002-0.442,0.098c0.047,0.311-0.053,0.463,0.101,0.641c-0.195,0.012-0.295,0.127-0.301,0.298
	c0,0.289,0.507,0.419,0.247,0.737c-0.301-0.074-0.33,0.121-0.643,0.248c0.012,0.345,0.076,0.561-0.041,0.838
	c0.082,0.177,0.295,0.145,0.194,0.392c-0.13,0.101-0.301,0.163-0.495,0.198c0.2,0.451-0.419,0.365-0.591,0.59
	c-0.129,0.219,0.106,0.313,0.054,0.395c-0.219,0.131-0.354,0.346-0.543,0.493c0.064,0.26-0.018,0.493,0,0.69
	c0.006,0.117,0.118,0.177,0.147,0.295c0,0.021-0.059,0.094-0.053,0.147c0.047,0.241,0.018,0.445,0.194,0.64
	c-0.212,0.112-0.248,0.407-0.289,0.69c-0.206-0.023-0.254,0.112-0.396,0.147c-0.076,0.178-0.012,0.484-0.1,0.641
	c0.105,0.094,0.259,0.139,0.247,0.348c-0.177,0.189-0.165,0.561-0.147,0.936c-0.023,0.256-0.348,0.209-0.295,0.539
	c0.219,0.174,0.49,0.133,0.69,0.299c0.23,0.186,0.225,0.516,0.442,0.736c-0.047,0.287-0.39,0.27-0.396,0.594
	c0.018,0.162,0.26,0.098,0.242,0.295c-0.006,0.206,0.089,0.274,0,0.442c0.213,0.136,0.26,0.191,0.153,0.445
	c0.089,0.073,0.194,0.136,0.295,0.198c-0.118,0.359,0.089,0.746,0.343,0.885c-0.266,0.303,0.271,0.472,0.247,0.838
	c0.26,0.129,0.454,0.141,0.59,0.392c0.13,0.242,0.065,0.569,0.147,0.888c0.095,0.083,0.308,0.057,0.396,0.15
	c-0.035,0.178,0.106,0.189,0.101,0.343c0.448,0.106,0.495,0.622,1.079,0.593c0.077,0.498,0.696,0.454,0.738,0.985
	c0.142,0.139,0.318,0.241,0.495,0.342c0.23,0.431,0.213,1.106,0.396,1.578c-0.071,0.159-0.207,0.251-0.195,0.493
	c0.013,0.15,0.13,0.218,0.195,0.345c0.118,0.233,0.147,0.566,0.295,0.788c0.118,0.186,0.378,0.254,0.442,0.445
	c0-0.01-0.095,0.356,0,0.442c0.271,0.368,0.826,0.454,0.985,0.935c-0.095,0.219-0.153,0.625-0.047,0.889
	c-0.372,0.156-0.431,0.622-0.496,1.082c0.018,0.133,0.248,0.045,0.301,0.15c0.035,0.451,0.401,0.926,0.142,1.23
	c0.183,0.035,0.142,0.289,0.254,0.395c0.095,0.089,0.342,0.006,0.342,0.195c-0.006,0.431-0.1,0.749,0.095,1.035
	c0.879,0.127,0.826,1.232,1.333,1.525c0.454,0.266,0.809-0.178,1.039-0.342c0.489-0.36,0.548,0.111,0.837,0.295
	c0.413-0.115,0.744,0.088,1.228,0.047c0.147-0.086,0.047-0.413,0.248-0.443c0.289,0.01,0.654-0.062,0.737,0.15
	c-0.054,0.178-0.219,0.242-0.295,0.393c0.524,0.068,0.749-0.171,0.985-0.393c0.035-0.314-0.207-0.351-0.147-0.689
	c0.313-0.41,0.684-0.756,0.984-1.184c-0.088-0.176-0.177-0.351-0.247-0.539c0.142-0.581,0.85-0.602,1.434-0.74
	c0-0.083,0-0.166,0-0.248c0.336-0.189,0.419-0.543,0.784-0.787c0.384-0.258,0.861-0.363,1.08-0.688
	c0.142-0.204,0.094-0.484,0.254-0.644c0.253,0.106,0.625,0.095,0.879,0.198c-0.083,0.076-0.118,0.206-0.095,0.395
	c0.555,0.428,1.463-0.159,2.023-0.348c0,0.23,0,0.46,0,0.689c0.195,0.033,0.136-0.188,0.142-0.342
	c0.165-0.003,0.349,0.018,0.349-0.15c0.183-0.094-0.112-0.371,0-0.395c1.587-0.398,2.885-1.086,4.282-1.673
	c0.112,0.101,0.112,0.315,0.349,0.295c0.33-0.245,0.578-0.572,0.885-0.838c0.791-0.133,1.563-0.489,2.271-0.59
	c0.159-0.026,0.324,0.006,0.483,0c1.357-0.077,3.204-0.368,4.442-0.101c0.124-0.159-0.07-0.357,0.095-0.442
	c0.212-0.101,0.454-0.174,0.69-0.245c0.26,0.216,0.566,0.387,0.838,0.59c0.247,0.018,0.561-0.035,0.59,0.198
	c-0.236-0.065-0.454-0.136-0.791-0.101c0.036,0.416,0.437,0.455,0.791,0.543c0.13,0.215,0.359,0.33,0.643,0.396
	c0.366,0.365,0.768,0.829,1.233,0.981c0.26,0.092,0.879,0.178,1.079,0.148c0.313-0.041,0.744-0.401,0.892-0.54
	c0.076-0.073,0.111-0.136,0.241-0.198c0.36-0.168,0.797,0.027,1.181-0.05c0.442-0.085,0.949-0.681,1.191-0.885
	c0.07,0.188,0.095,0.422,0.188,0.593c0.254-0.092,0.118,0.047,0.295,0.095c0.159,0.003,0.26-0.298,0.401-0.145
	c-0.064,0.097-0.242,0.089-0.2,0.295c0.194,0.218,0.147,0.442,0.342,0.593c0.354,0.263,0.938,0.012,1.575,0.094
	c0.13,0.143,0.36,0.175,0.448,0.349c0.189,0.079,0.225-0.229,0.295-0.101c0,0.154-0.153,0.143-0.094,0.346
	c0.289,0.31,0.684,0.521,1.374,0.442c0.36-0.266,0.797-0.448,0.985-0.888c0-0.281-0.035-0.594,0.153-0.688
	c0.283,0.23,0.625,0.08,0.933-0.051c0.153-0.008,0.018,0.275,0.247,0.198c-0.548-14.354-0.92-29.183-1.575-43.701
	c-0.13-2.782-0.177-5.534-0.301-8.228c-0.136-3.002-0.1-6.313-0.342-9.212c-0.13-1.519,0.07-3.218-0.153-4.337
	c-0.065-0.354-0.035-0.598,0-0.981c0.566-4.876,0.943-9.994,1.48-14.882c1.115-10.183,2.165-21.191,3.251-31.283
	C270.119,144.921,270.556,139.677,271.128,134.467z"/>
</svg>
