<svg version="1.1" id="Calque_1" xmlns="http://www.w3.org/2000/svg" xmlns:xlink="http://www.w3.org/1999/xlink" x="0px" y="0px"
	 width="432px" height="332px" viewBox="0 0 432 332" enable-background="new 0 0 432 332" xml:space="preserve" fill="#FFF">
<path fill-rule="evenodd" clip-rule="evenodd" d="M323.65,221.072c-0.628-0.006-1.203,0.679-1.669,0.489
	c-0.587-0.242-0.221-1.521-0.625-1.952c-0.829-0.194-1.194-0.85-1.463-1.599c-0.445-0.083-0.54,0.07-1.047,0.135
	c-0.333,0.042-0.283-0.318-0.696-0.206c-0.018,0.235-0.366,0.142-0.413,0.349c-0.036,0.802,1.628,0.902,1.737,1.74
	c0.035,0.271-0.248,0.767-0.767,0.908c-0.437-0.142-0.56-0.613-0.97-0.908c-0.702-0.52-2.23-0.744-2.301-1.534
	c-0.021-0.266,0.307-0.566,0.348-0.903c0.098-0.742-0.286-1.163-0.625-1.534c-0.301-0.324-0.785-0.531-1.047-0.906
	c-0.139-0.2-0.286-0.675-0.487-1.044c-0.321-0.604-0.483-0.882-0.696-1.53c-0.253-0.788,0.204-1.13,0.068-1.879
	c-0.277-0.334-0.844,0.064-1.109-0.071c-0.682-0.349-0.92-1.162-0.558-2.021c0.209-0.092,0.301-0.307,0.348-0.558
	c0.183-0.071,0.236-0.274,0.419-0.349c0.159,0.204,0.159-0.339,0.413-0.273c0.46-0.033,0.876-0.106,1.253-0.21
	c0.381-0.572,0.531-1.345,0.49-1.952c-0.053-0.74-0.328-1.607-0.699-2.16c-0.201-0.303-0.566-0.466-0.834-0.767
	c-0.263-0.292-0.584-0.778-0.764-1.18c-0.074-0.165-0.05-0.41-0.139-0.628c-0.192-0.479-0.593-0.906-0.696-1.325
	c-0.174-0.681,0.095-0.899,0.071-1.321c0.233-0.168,0.307,0.213,0.558,0c0.095-0.283,0.534-0.159,0.69-0.209
	c0.044-1.178-0.879-1.39-1.248-2.156c-0.115-0.667,0.257-1.222,0.139-1.744c-0.245-1.067-2-0.692-2.788-1.324
	c0.021-0.165,0.348-0.386,0.139-0.552c-0.026,0.174-0.195-0.07-0.139-0.209c-0.554-0.292-1.72-0.057-2.295-0.696
	c0.322-0.72,0.322-1.464-0.209-1.953c-1.38-0.384-1.772-1.755-2.997-2.298c-0.221,0.098-0.584,0.068-0.902,0.074
	c0.188-0.336-0.387-0.434-0.348-0.838c-0.475-0.318-0.888-0.693-1.463-0.906c-0.953,0.667-0.959,0.998-1.744,1.6
	c-0.351-0.311-0.817-0.089-1.318-0.207c0.209-0.448-0.655-0.643-0.354-1.183c-0.425-0.106-0.614-0.454-0.552-1.047
	c0.328-0.216,0.431-0.644,0.696-0.835c0.121-0.089,0.401,0,0.274-0.28c-0.336-0.622-1.118-0.159-1.667-0.277
	c-0.93-0.194-1.274-1.386-1.953-1.812c-1.269-0.191-2.064-0.857-2.366-2.018c-1.336-0.359-2.513-0.879-3.413-1.672
	c-0.72-0.602-0.956-1.844-1.738-2.505c-0.218-0.183-0.318-0.171-0.557-0.277c-1.257-0.572-2.115-2.298-2.301-3.899
	c-0.057-0.492-0.089-1.49,0-1.949c0.109-0.566,0.64-0.895,0.486-1.605c0.239-0.457,0.51-0.749,0.838-1.115
	c0.15-0.165,0.269-0.412,0.419-0.557c0.313-0.305,0.64-0.404,0.835-0.762c0.483-0.911,0.339-2.183,0.832-3.277
	c0.009-0.295,0.301,0.118,0.28-0.206c0.133-1.422,0.991-2.118,1.879-2.785c-0.239,0.832,1.342,0.979,1.257,0.139
	c-0.059-0.525-0.711-0.269-0.977-0.696c0.085-0.377,0.522-0.091,0.628-0.348c-0.227-0.109-0.263-0.153-0.28-0.348
	c0.112-0.731,0.227-1.271-0.071-2.018c-0.283-0.723-1.027-1.062-0.974-1.743c0.033-0.44,0.398-0.534,0.625-0.906
	c0.298,0.109,0.448,0.372,0.838,0.209c0.203-0.195-0.319-0.413,0.139-0.419c0.147-0.434-0.384-0.451-0.209-0.696
	c0.274-0.584,0.941-0.776,1.463-1.115c0.401-0.64,0.767-1.611,0.416-2.295c-0.882-0.514-1.658-1.127-2.714-1.463
	c-0.664-0.915-2.283-1.755-3.481-1.463c-1.112-0.266-1.891-1.253-2.997-1.528c-0.295-0.08-0.72-0.024-1.109-0.071
	c-0.315-0.038-0.599-0.18-0.837-0.138c-0.623,0.1-1.003,0.731-1.044,1.528c-0.283,0.274-0.499,0.623-0.699,0.977
	c-0.888,0.339-1.023,1.372-2.088,1.392c-0.457,0.009-1.298-0.392-1.74-0.834c-0.139-0.142-0.177-0.419-0.348-0.628
	c-0.221-0.266-0.566-0.404-0.696-0.628c-0.1-0.165-0.168-0.534-0.277-0.835c-0.1-0.28-0.265-0.602-0.28-0.761
	c-0.026-0.307,0.127-0.634,0.071-0.909c-0.083-0.377-0.489-0.643-0.628-0.906c-0.012-0.634-0.331-0.967-0.558-1.392
	c0.218-0.227,0.31-0.439,0.209-0.838c0.129-0.012,0.153,0.08,0.277,0.071c-0.041-0.72,0.493-0.853,0.49-1.318
	c-0.009-0.637-0.641-1.012-0.838-1.673c-0.139-0.483,0.009-0.784-0.068-1.395c0.195-0.204,0.551,0.189,0.487-0.277
	c-0.139-0.458-0.552,0.047-0.696-0.071c-0.183-0.92-0.056-1.799-0.419-2.504c-0.165-0.328-0.643-0.475-0.977-0.767
	c-0.483-0.431-0.834-1.209-1.248-1.602c-0.215-0.201-0.549-0.254-0.767-0.419c-0.522-0.401-0.864-0.938-1.324-1.25
	c-0.685-0.056-0.858-0.452-1.325-0.767c-0.664-0.448-1.218-0.723-1.528-1.393c-1.142-0.298-1.909-0.702-2.649-1.324
	c-0.319-0.266-0.714-0.575-0.906-0.906c-0.139-0.245-0.18-0.628-0.348-0.973c-0.162-0.339-0.466-0.623-0.628-0.906
	c-0.191-0.342-0.268-0.791-0.551-0.973c-0.363-0.236-0.991-0.189-1.466-0.21c-0.304-0.327-0.548-0.392-0.696-0.767
	c-0.121-0.315,0.009-0.693-0.139-1.047c-0.283-0.664-1.325-0.749-1.876-1.18c-0.717-0.561-0.947-1.271-1.466-1.811
	c-1.083-0.638-2.012-1.425-2.855-2.301c0.065-0.339-0.053-0.499-0.209-0.625c0.274-0.271,0.091-0.614,0.139-0.971
	c0.044-0.315,0.23-0.558,0.139-0.909c-0.094-0.366-0.513-0.77-0.834-1.044c-0.422-0.357-1.106-0.504-1.46-0.906
	c-0.236-0.265-0.584-1.195-0.419-1.811c0.109-0.407,0.917-0.799,0.903-1.321c-0.009-0.443-0.596-0.858-0.903-1.325
	c-0.077-0.115-0.121-0.333-0.207-0.487c-0.091-0.156-0.283-0.286-0.351-0.419c-0.204-0.392-0.213-0.835-0.348-1.115
	c-0.177-0.36-0.543-0.625-0.625-0.971c-0.083-0.366,0.047-0.793,0-1.115c-0.035-0.239-0.153-0.537-0.209-0.767
	c-0.139-0.578-0.28-1.033-0.348-1.463c-0.115-0.711,0.13-1.554-0.142-2.295c0.393-0.667,0.215-1.495,0.351-2.439
	c0.201-0.194,0.322-0.466,0.487-0.696c0.065-0.318-0.174-0.336-0.139-0.628c0.493-1.015,0.791-2.221,1.324-3.201
	c0.357-0.289,0.758-0.54,1.044-0.906c-0.363-0.507-1.068-0.445-1.325,0.068c0.03-0.469-0.345-0.534-0.834-0.487
	c-0.027-0.72-0.864-0.623-1.186-1.044c0.136-0.363,0.245-0.82-0.209-0.902c0.127-0.201,0.345-0.31,0.28-0.696
	c-0.466-0.419-1.156-0.042-1.599-0.348c-0.357-0.25-0.357-0.655-0.558-1.115c-0.702-0.301-1.239-0.637-0.976-1.743
	c-0.505-0.493-1.555-0.439-2.23-0.761c-0.121-0.236,0.047-0.36,0-0.699c-38.878,2.806-82.742,3.018-121.508-0.209
	c-1.915-0.159-3.959,0-5.915,0c-1.746,0-3.545-0.05-5.153,0c-0.156,0.006-0.531-0.124-0.625,0.142
	c-0.283,0.375,0.212,0.569,0.209,0.899c-0.253,1.032,0.979,1.315,2.224,1.257c0.319-0.581-0.038-0.9,0.487-1.39
	c0.269-0.183,0.658,0.006,0.838,0.133c-0.012,0.363,0.221,0.912,0.139,1.325c-0.13,0.171-0.328,0.198-0.487,0.28
	c-0.165,0.086-0.257,0.316-0.558,0.21c-0.062,0.315,0.118,0.395,0.139,0.625c-0.339,0.331-0.685,0.398-0.628,0.767
	c0.08,0.504,0.941,0.575,1.115,1.115c-0.277,0.044-0.322,0.328-0.277,0.696c0.021,0.233,0.304-0.186,0.348,0.065
	c0.015,0.847,0.779,1.425,0.767,2.51c0.33,0.384,0.622,0.437,0.557,0.835c-0.109,0.628-1.333,0.401-1.186,1.115
	c0.142,0.672,1.13,0.035,1.534,0.07c0.336,0.027,0.555,0.304,0.832,0.419c0.437,0.168,1.003,0.065,1.115,0.487
	c0.071,0.392-0.23,0.413-0.139,0.832c0.331,0.714,1.608,0.705,2.369,0.767c0.283,0.413,0.431,0.578,0.419,1.044
	c-0.015,0.425-0.446,0.69-0.419,1.047c0.018,0.236,0.392,0.702,0.628,0.906c0.269,0.23,0.735,0.319,0.977,0.558
	c0.088,0.322,0.104,0.729,0.271,0.97c0.263,0.233,0.755-0.091,0.977,0.28c0.239,0.396-0.283,0.726-0.416,1.115
	c-0.05,0.142,0,0.425-0.071,0.696c-0.098,0.377-0.328,0.661-0.348,0.835c-0.092,0.817,0.958,1.495,2.159,0.976
	c0.61,0.481,1.345,0.838,1.534,1.737c0.328,0.375,0.832,0.354,1.254,0.699c0.392,0.322,0.431,0.808,0.903,0.974
	c0.356,0.126,0.796-0.056,1.183,0.209c0.263,0.428-0.221,0.876,0,1.253c0.49,0.72,1.289-0.039,1.882,0.071
	c0.165,0.271,0.053,0.611,0.209,0.832c0.139,0.207,0.923,0.622,1.463,0.767c0.522,0.145,1.814,0.136,2.156-0.209
	c0.298-0.292,0.191-0.915,0.489-1.109c0.233-0.162,0.496,0.029,1.044,0c0.266-0.018,0.51-0.15,0.696-0.142
	c1.233,0.053,1.032,0.932,0.558,1.599c0.271,0.637,0.796,1.015,1.737,0.977c0.192,0.318,0.389,0.41,0.348,0.838
	c-0.077,0.926-1.419,0.525-1.879,1.044c-0.036,1.269,1.389,1.118,2.021,0.558c-0.106,0.543,0.301,0.584,0.277,1.042
	c-0.292,0.348-0.458,0.575-0.767,0.625c-0.814,0.142-1.593-0.953-2.224-0.761c-0.646,0.192-0.354,1.324-0.419,2.227
	c-0.431,0.475-1.192,0.315-1.743,0.764c-0.204,0.168-0.439,0.534-0.625,0.838c-0.49,0.803-0.458,1.307-0.071,2.085
	c-0.301,0.39-0.451,0.593-0.906,0.628c-0.345,0.029-0.531-0.23-0.832-0.139c-1.062,0.315-0.439,1.793,0.064,2.298
	c0.419,0.413,1.189,0.572,1.463,1.115c0.174,0.339,0.08,0.74,0.209,1.112c0.448,0.525,1.286,0.667,1.953,0.974
	c0.047,0.791,0.631,1.042,1.183,1.325c0.044,0.557,0.28,0.929,0.693,1.115c0.345-0.074,1.445-0.699,1.463,0.142
	c0.009,0.386-0.752,0.791-0.835,1.18c-0.091,0.442,0.068,1.292,0.277,1.74c0.49,1.038,2.254,1.242,2.369,2.23
	c0.024,0.207-0.277,0.575-0.348,0.976c0.316,0.555,1.023,0.641,1.743,0.628c0.263,0.569,0.652,1.015,1.109,1.39
	c1.475,0.434,1.835-0.714,2.929-0.28c-0.463,0.711,0.779,0.894,0.277,1.186c0.307,0.218,0.814,0.062,1.115,0.139
	c0.006-0.25-0.056-0.566,0.136-0.625c0.092,0.095,0.304,0.068,0.487,0.068c0.375,0.537-0.068,0.837-0.139,1.253
	c-0.147,0.92,0,2.044,0,3.133c0,32.931,0,66.397,0,98.945c47.884,0,95.771,0,143.652,0c0.065,0.213-0.15,0.708,0.139,0.696
	c0.253,0.171,0.658-0.106,0.977,0.071c-0.088,0.206-0.142,0.448-0.071,0.625c0.419,0.171,0.775,0.879,0.696,1.463
	c-0.039,0.271-0.301,0.372-0.277,0.631c0.147,0.195,0.256,0.396,0.486,0.549c0.514,0.366,1.481,0.324,1.879,0.768
	c0.349,0.389,0.304,1.115-0.142,1.533c0.142,0.366-0.109,0.779-0.138,1.187c0.088,0.307,0.463,0.324,0.487,0.696
	c-0.325,0.206-0.357,0.713-0.558,1.044c-0.357,0.106-0.773,0.183-1.044,0.348c-0.162,0.101-0.153,0.337-0.345,0.283
	c0.018,0.384,0.027,0.649-0.348,0.483c-0.042,0.319,0.345,0.213,0.28,0.555c-0.383,0.083-0.61,0.325-0.837,0.561
	c-0.897-0.076-1.248,0.75-1.812,1.251c-0.147,0.13-0.277,0.083-0.419,0.212c-0.315,0.289-0.395,0.803-0.348,1.393
	c-0.201,0.419-0.631,0.467-0.977,0.69c-0.133,0.101-0.165,0.236-0.277,0.283c-0.209,0.083-0.431,0.006-0.622,0.136
	c-0.375,0.26-0.41,0.82-0.906,0.979c-0.074,0.183-0.083,0.425-0.071,0.696c-0.192,0.105-0.366,0.236-0.487,0.419
	c-0.091,0.165-0.033,0.478-0.142,0.625c-0.286,0.366-0.575,1.003-0.834,1.393c-0.036,0.053-0.396,0.313-0.139,0.342
	c7.174,0,14.342,0,21.516,0c0.218-0.685,1.015-0.85,1.183-1.528c0.124-0.489-0.077-0.949,0-1.32
	c0.254-1.192,1.484-0.992,2.298-1.535c0.36-0.235,0.723-0.707,0.696-1.108c-0.044-0.737-0.985-0.892-1.46-1.393
	c-0.251-0.266-0.31-0.572-0.487-0.908c-0.519-0.142-1.861-0.956-1.743-1.534c0.08-0.389,0.407-0.124,0.628-0.49
	c0.062,0.337,0.628,0.166,0.767,0.42c0.239,0.029,0.387-0.023,0.558-0.071c0.493,0.614,1.699,0.083,2.224-0.065
	c0.354-0.1,0.764-0.012,0.906-0.283c0.109-0.193,0.109-0.772,0-0.967c-0.413-0.442-1.348-0.555-1.879-0.979
	c-0.216-0.171-0.664-0.778-0.558-1.115c0.256-0.802,2.212,0.048,2.646-0.136c0.508-0.212,0.791-0.996,0.767-1.533
	c-0.038-0.879-0.796-1.434-1.044-2.16c0.313,0.23,0.183-0.483,0.209-0.767c0.348,0.036,0.705-0.466,0.696-0.902
	c-0.018-0.632-0.994-1.245-1.395-1.953c-0.204-0.359-0.413-0.819-0.348-1.251c0.171-1.114,1.525-0.772,2.51-0.767
	c0.301,0.483,0.54,0.502,0.623,0.979c0.204,1.104-1.088,2.124-0.761,3.197c0.207,0.685,1.071,0.596,1.596,0.213
	c0.699-0.502,1.033-1.322,1.257-2.159c0.274-1.015,0.584-1.982,0.905-2.855c0.21,0,0.378,0.047,0.487-0.142
	c0.038-0.142-0.086-0.455,0.07-0.484c0.044-0.389-0.413,0.16-0.348-0.212c0.177-0.495,0.516-0.755,1.115-0.696
	c0.605,0.064,0.741,0.613,1.115,1.186c0.274,0.426,0.731,1.039,1.041,1.257c0.823,0.566,2.047,0.018,2.298-0.696
	c0.174-0.501-0.012-1.139,0.209-1.676c0.289-0.689,0.897-0.725,1.115-1.392c-0.056-0.295-0.301-0.396-0.209-0.832
	c-0.127-0.041-0.292-0.041-0.348-0.142c-0.065-0.52-0.613-0.926-0.628-1.463c-0.006-0.23,0.145-0.271,0.209-0.484
	c0.05-0.164-0.127-0.472,0.142-0.561c0.286-0.152,0.643-0.111,1.044-0.277c0.369,0.095,0.466,0.461,0.97,0.414
	c0.54-0.225,0.384-1.263,0-1.534c-0.584-0.071-0.823-0.13-1.318-0.06c-0.127-0.159-0.274-0.289-0.209-0.631
	c-0.071-0.207-0.383-0.171-0.28-0.561c0.127-0.289,0.227-0.602,0.28-0.967c0.248-0.024,0.304-0.019,0.413,0
	c0.156,0.012,0.183,0.152,0.49,0.064c0.25-0.064,0.513-0.372,0.625-0.625c0.162-0.349,0.074-0.715,0.139-1.115
	c0.089-0.52,0.393-1.233,0.558-1.605C324.896,222.388,324.804,221.078,323.65,221.072z"/>
</svg>
