<?xml version="1.0" encoding="utf-8"?>
<!-- Generator: Adobe Illustrator 16.0.0, SVG Export Plug-In . SVG Version: 6.00 Build 0)  -->
<!DOCTYPE svg PUBLIC "-//W3C//DTD SVG 1.1//EN" "http://www.w3.org/Graphics/SVG/1.1/DTD/svg11.dtd">
<svg version="1.1" id="Calque_1" xmlns="http://www.w3.org/2000/svg" xmlns:xlink="http://www.w3.org/1999/xlink" x="0px" y="0px"
	 width="432px" height="432px" viewBox="0 0 432 432" enable-background="new 0 0 432 432" xml:space="preserve">
<path fill-rule="evenodd" clip-rule="evenodd" d="M339.562,220.812c-0.454-0.224-0.673-0.658-1.063-0.87
	c0.472-0.524,0.638-1.356,1.003-1.994c-0.088-0.318-0.383-0.407-0.625-0.687c-0.207-0.239-0.277-0.566-0.502-0.812
	c-0.33-0.369-0.855-0.46-0.996-0.936c-0.137-0.466,0.053-0.926-0.119-1.368c-0.158-0.41-0.495-0.455-0.748-0.877
	c-1.198,0.113-1.641-0.524-1.688-1.56c-0.685-0.419-1.511-0.693-2.555-0.747c0.277-0.463,0.743-0.43,0.743-1
	c0.012-0.536-0.802-1.371-0.997-2.183c-0.082-0.327-0.047-0.631-0.059-0.993c-0.277-0.222-0.484-0.727-0.632-1.127
	c-0.301-0.895,0.39-0.933,0.69-1.62c0.018-0.032,0.041-0.177,0.059-0.251c0.172-0.555-0.447-1.51-0.932-1.368
	c-0.407,0.121-0.171,0.655-0.625,0.933c-0.543,0.342-0.95,0.15-1.558-0.125c0.118-0.46-0.26-0.911,0-1.371
	c-0.225-0.28-0.254-0.921-0.248-1.245c-0.266-0.486-0.106-0.979-0.318-1.375c-0.236-0.453-0.655-0.348-0.991-0.557
	c-0.378-0.245-0.661-0.727-0.997-1.063c-0.401-0.398-0.903-0.654-0.873-1.248c0.13-0.2,0.301-0.279,0.431-0.374
	c0.147-0.095,0.236-0.012,0.318-0.062c0.064-0.039,0.354-0.564,0.371-0.626c0.26-0.74,0.048-2.489-0.123-3.114
	c0.318-0.428,1.038-0.422,1.127-0.936c0.088-0.572-0.644-0.982-0.809-1.561c0.118-0.502,0.389-1.377,0.118-1.809
	c-0.242-0.38-0.726-0.203-0.938-0.622c0.029-0.457,0.147-0.711,0.064-1.124c-0.059-0.295-0.295-0.41-0.313-0.684
	c-0.023-0.39,0.354-0.738,0.372-1.187c0.023-0.286-0.083-0.619-0.124-0.873c-0.035-0.277-0.111-0.534-0.123-0.873
	c0.336-0.062,0.566,0.091,0.748,0c0.101-0.05-0.006-0.118,0.06-0.188c0.266-0.26,0.112-0.316-0.06-0.682
	c0.036-0.445-0.418-0.546-0.625-0.502c-0.442,0.104,0.018,0.438-0.371,0.623c-0.219-0.156-0.16-0.584-0.438-0.685
	c-0.146-0.222-0.607-0.145-0.689-0.437c0.105-0.971,0.23-1.525-0.118-2.307c0.555-0.172,0.974-0.48,1.304-0.877
	c-0.318-0.158,0.106-0.675-0.118-0.932c-0.495-0.363-1.486-0.221-1.812-0.749c0.042-0.439,0.319-0.64,0.438-0.997
	c-0.36-0.666,0.218-1.648,0.059-2.307c0.13-0.172,0.348-0.348,0.189-0.625c-0.302-0.34-0.838-0.445-1.434-0.499
	c-0.248-0.289-0.703-0.374-1.121-0.499c-0.042-0.395,0.26-0.746,0.313-1.186c0.059-0.549-0.095-1.05-0.378-1.121
	c-0.536-0.135-0.543,0.517-1.056,0.623c-0.596,0.121-0.826-0.16-1.375-0.375c0.283-0.545,0.419-0.717,0.313-1.248
	c-0.105-0.53-0.761-0.725-0.809-1.121c-0.006-0.031,0.095-0.262,0.125-0.374c0.117-0.448,0.171-0.817,0.371-1.062
	c-0.023-0.561-0.672-0.806-0.619-1.245c0.342-0.174,0.755-0.283,1.18-0.375c-0.076-0.643-0.549-0.899-0.809-1.371
	c0.154-0.254,0.413-0.502,0.626-0.812c0.194-0.295,0.478-0.755,0.431-1.063c-0.077-0.542-0.797-0.604-1.115-1.059
	c0.213-1.126-0.991-1.108-1.133-2.18c-0.064-0.581,0.159-0.787,0.195-1.127c0.018-0.235-0.083-0.521-0.06-0.808
	c0.012-0.315,0.13-0.442,0.06-0.688c-0.143-0.49-0.691-0.723-1.127-0.87c-0.207-0.174-0.225-0.469-0.432-0.626
	c-0.253-0.186-0.478-0.114-0.749-0.31c-0.13-0.271-0.224-0.572-0.318-0.876c-1.073,0.029-0.991-0.864-1.18-1.682
	c-0.095-0.418-0.171-0.92-0.372-1.247c-0.342-0.552-1.321-0.938-1.682-1.437c-0.283-0.375-0.241-0.72-0.383-1.245
	c0.124-0.714,1.067-0.602,1.186-1.183c0.112-0.496-0.342-0.897-0.684-1.313c-0.325-0.393-0.674-0.702-0.933-1.06
	c-0.266-0.351-0.396-0.731-0.626-0.997c-0.289-0.336-0.654-0.498-0.743-0.873c0.46-0.696,0.142-1.345,0.183-2.368
	c0.148-0.375,0.396-0.195,0.438-0.563c0.029-0.26-0.201-0.496-0.372-0.812c-0.183-0.324-0.289-0.619-0.437-0.809
	c-0.613,0.08-1.292,0.083-1.812,0.251c-0.79-0.327-1.114-1.266-1.999-1.313c-0.608-0.029-1.104,0.705-1.747,0.188
	c-0.235-0.339-0.194-0.964-0.495-1.247c-0.213-0.23,0.229-0.181,0.194-0.437c-0.655-0.47-1.216-0.658-2.124-0.812
	c0.289-0.13-0.059-0.254-0.059-0.372c-0.023-0.631,0.602-1.035,0.684-1.561c-0.307-0.431-0.867-0.59-1.374-0.808
	c-0.613,0.235-1.758,0.1-2.06-0.189c-0.241-0.232-0.164-0.692-0.377-0.938c-0.242-0.283-0.791-0.41-1.121-0.561
	c-0.395-0.183-0.803-0.313-1.25-0.496c-0.473,0.233-1.057,0.036-1.682,0.063c-0.407-0.23-0.561-1.092-1.186-1.186
	c-0.308-0.048-0.591,0.18-0.867,0.186c-0.289,0.006-0.686-0.165-1.063-0.186c-0.365-0.021-0.726,0.067-1.003,0
	c-0.708-0.181-1.062-0.938-1.74-1.248c-0.413-0.186-0.767-0.101-1.251-0.313c-0.23-0.266-0.248-0.746-0.371-1.124
	c-0.354,0.038-0.608-0.298-1.063-0.372c-0.295-0.047-0.672,0.054-0.997,0c-0.425-0.07-0.784-0.33-1.18-0.374
	c-0.437-0.045-0.915-0.071-1.31-0.063c-0.201,0.003-0.396,0.13-0.566,0.124c-0.219-0.006-0.277-0.242-0.502-0.124
	c-0.406,0.142-0.619,0.575-1.056,0.623c-0.696,0.073-1.493-0.569-2.06-0.561c-0.59,0.009-1.215,0.723-1.681,0.684
	c-0.525-0.041-0.578-0.784-1.062-0.808c-0.543-0.029-1.121,0.908-1.559,0.932c-0.483-0.162-0.707-0.536-1.18-0.558
	c-0.767-0.035-1.286,0.461-1.935,0.685c-0.448-0.15-0.603-0.775-1.133-0.935c-0.696-0.213-1.21,0.094-1.8,0.374
	c-0.395,1.537-1.864,3.34-4.248,2.93c-0.637-0.109-1.156-0.608-1.492-0.994c-0.225-0.266-0.4-0.525-0.555-0.876
	c-0.938-0.445-2.006-0.502-3.002-0.873c-0.408-0.15-0.768-0.455-1.181-0.623c-0.696-0.286-1.499-0.486-2.118-0.688
	c-0.236-0.073-0.555-0.091-0.749-0.186c-0.53-0.251-0.855-0.812-1.374-1.059c-0.337-0.162-0.773-0.147-1.121-0.313
	c-1.133-0.54-1.54-1.768-2.372-2.558c-53.085,0.286-106.388,0.318-159.26,0.501c0,22.802,0,45.604,0,68.406
	c19.067,0.088,38.317-0.174,57.557-0.127c-0.124,11.345-0.124,23.431-0.254,34.358c64.501,0.157,128.753,0.178,193.313,0.252
	C341.065,220.991,340.151,221.11,339.562,220.812z"/>
</svg>
