<?xml version="1.0" encoding="utf-8"?>
<!-- Generator: Adobe Illustrator 16.0.0, SVG Export Plug-In . SVG Version: 6.00 Build 0)  -->
<!DOCTYPE svg PUBLIC "-//W3C//DTD SVG 1.1//EN" "http://www.w3.org/Graphics/SVG/1.1/DTD/svg11.dtd">
<svg version="1.1" id="Calque_1" xmlns="http://www.w3.org/2000/svg" xmlns:xlink="http://www.w3.org/1999/xlink" x="0px" y="0px"
	 width="432px" height="432px" viewBox="0 0 432 432" enable-background="new 0 0 432 432" xml:space="preserve">
<path fill-rule="evenodd" clip-rule="evenodd" d="M184.396,237.276c0.471,0.23,0.984,0.359,1.363,0.578
	c0.217,0.383,0.359,0.85,0.725,1.08c0.602-0.449,1.387-0.059,1.516,0.572c0.072,0.342-0.205,0.932-0.146,1.303
	c0.041,0.242,0.324,0.26,0.225,0.508c-0.049,0.266-0.338,0.295-0.367,0.572c0.861,0.189,1.404,1.793,2.525,1.734
	c0.66-0.029,1.027-0.654,1.086-1.58c0.814-0.473,1.764-0.367,2.447-0.295c0.373,0.029,0.598-0.107,0.867-0.148
	c0.254-0.029,0.479,0.041,0.58,0c0.453-0.154,0.73-0.773,1.303-0.502c0.105,0.42,0.342,0.715,0.496,1.08
	c-0.137,0.131-0.313,0.213-0.283,0.502c1.209,0.791,2.797,0.152,4.254,0.371c0.826,0.119,1.457,0.66,2.094,0.932
	c0.695,0.301,1.256,0.332,1.588,0.65c0.211,0.66,0.818,0.943,0.938,1.516c0.053,0.26-0.09,0.418-0.07,0.719
	c0.018,0.248,0.182,0.42,0.217,0.65c0.125,0.801-0.158,1.133-0.365,1.592c-0.117,0.271-0.172,0.619-0.283,0.861
	c-0.248,0.543-0.75,0.975-0.938,1.523c-0.148,0.418-0.119,0.83-0.219,1.15c-0.342,1.072-1.262,1.551-1.734,2.523
	c-0.289,0.59-0.342,1.322-0.572,1.953c-0.248,0.662-0.756,1.281-0.797,2.012c-0.023,0.354,0.189,0.691,0.143,1.016
	c-0.061,0.43-0.555,0.82-0.572,1.297c-0.018,0.402,0.424,0.727,0.07,1.156c0.713,0.561,1.84,0.207,2.453,0.066
	c0.137-0.031,0.303,0.035,0.432,0c0.172-0.031,0.318-0.166,0.502-0.207c1.115-0.283,2.447-0.283,3.037-1.086
	c-0.59-0.607-1.373,0.064-2.023-0.359c-0.041-0.68,0.461-1.582,0.939-1.729c0.088-0.029,0.129,0.146,0.217,0.135
	c0.047,0,0.072-0.146,0.213-0.135c0.219,0.006,0.449,0.301,0.727,0.07c0.082-0.33-0.195-0.672-0.072-0.797
	c0.131-0.248,0.318,0.041,0.572,0c0.502-0.076,1.016-0.549,1.375,0c-0.207,0.443-0.631,0.896-1.297,0.656
	c-0.402,0.389-0.301,1.238-0.219,1.799c0.979-0.029,1.227-0.791,2.023-1.01c0.436-0.572,0.891-1.121,1.729-1.303
	c0.178-0.23,0.359-0.449,0.648-0.578c0.053-0.785,0.896-0.785,0.797-1.734c-0.129-0.09-0.289-0.143-0.295-0.35
	c-0.307-0.1-0.088,0.338-0.359,0.277c0.205-0.529,0.012-0.748-0.072-1.291c0.633-0.336,0.691-1.209,1.086-1.811
	c0.148-0.23,0.543-0.373,0.65-0.645c-0.049,0.125-0.066-0.307-0.078-0.217c0.07-0.633-0.07-1.033-0.213-1.594
	c-0.301,0.012-0.447-0.117-0.795-0.07c-0.266-0.236-0.26-0.82-0.072-1.15c0.615-0.213,1.311-0.271,1.736,0.141
	c0.006,0.939-0.096,1.781,0.07,2.814c-0.891,0.432-1.512,1.582-1.016,2.602c0.455,0.012,0.668-0.447,0.945-0.719
	c0.264-0.271,0.631-0.502,0.867-0.791c0.105-0.154,0.164-0.402,0.283-0.584c0.529-0.797,1.043-1.67,1.516-2.52
	c0.637-0.225,1.174-1.375,0.359-1.816c-0.307,0.152-0.678,0.242-1.008,0.371c-0.131-0.4-0.65-0.803-0.721-1.01
	c0.33-0.029,0.596-0.129,0.861-0.223c0.1-0.531,0.172-1.08,0.578-1.299c0.041,0.607-0.242,0.797-0.07,1.369
	c0.578,0.184,1.08-0.301,1.08-0.932c0.855-0.35,1.066-1.34,1.811-1.813c-0.225-1.309,1.02-1.621,1.297-2.66
	c-0.188-0.184-0.424-0.301-0.43-0.654c0.201-0.271,0.467-0.49,0.572-0.867c0.266,0,0.525,0,0.791,0
	c0.465-0.184,0.596-0.414,0.867-0.727c0.301-0.33,0.365-0.348,0.578-0.719c0.164-0.277,0.158-0.479,0.289-0.791
	c0.035-0.082,0.213-0.242,0.289-0.359c0.701-1.08,1.816-1.523,3.244-1.941c0.023-0.514,0.426-0.643,0.438-1.162
	c-0.998-1.346-2.131,0.861-3.535,0.219c-0.012,0.182-0.271,0.117-0.359,0.217c0.33,1.074-0.654,1.594-1.156,1.807
	c0.189-0.414,0.201-1.004,0.359-1.445c-0.371-0.59-1.02-0.879-1.875-0.797c-0.414-0.23-0.125-1.162-0.367-1.375
	c0.455-0.059,0.668,0.111,1.016,0.154c0.105-0.213,0.277-0.355,0.572-0.367c0.088,0.201,0.336,0.242,0.508,0.367
	c0.555,0.047,0.932-0.23,1.586-0.295c0.656-0.049,1.264,0.354,1.734,0.295c0.68-0.096,1.27-0.934,0.797-1.734
	c0.201-0.355,0.371-0.732,0.721-0.945c0.164,0.125,0.307,0.271,0.578,0.295c0.088-0.17,0.295-0.236,0.5-0.295
	c0.066-0.938,0.939-1.08,0.727-2.301c0.146-0.023,0.141-0.199,0.213-0.295c0.719-0.193,1.078-0.023,1.586,0.295
	c-0.047,0.189,0.148,0.143,0.148,0.283c-0.219,0.607-0.578,1.063-0.721,1.729c-0.436,0.102-0.619,0.455-1.014,0.584
	c-0.16,0.951-0.709,1.5-1.01,2.313c0.832,0.52,1.221-0.844,2.166-0.873c0.318-0.59,1.15-0.838,1.586-1.367
	c0.236-0.295,0.26-0.785,0.656-0.791c0.029,0.225-0.23,0.152-0.148,0.424c1.641,0.367,2.141-1.02,3.393-1.285
	c-0.023-0.248,0.082-0.354,0.289-0.367c-0.053-0.27-0.107-0.529-0.076-0.873c-0.295-0.146-0.645-0.059-0.867-0.135
	c-0.066-0.359,0.047-0.473-0.072-0.803c-0.678-0.773-1.527-1.502-3.025-1.082c-1.191-1.01,0.176-1.732,0.867-2.232
	c0.041-0.391,0.053-0.813,0.135-1.154c0.727-0.33,0.656-1.381,1.734-1.012c0.42,0.566,0.502,1.475,1.156,1.805
	c0.289-0.139,0.721-0.15,0.867-0.43c-0.053-0.535-0.307-0.854-0.436-1.305c0.123-0.236,0.359-0.359,0.436-0.645
	c-0.035-0.453-0.43-0.537-0.506-0.941c0.523-0.127,1.02,0.215,1.445-0.143c-0.266-0.797-0.762-1.355-1.299-1.875
	c0-0.172,0-0.336,0-0.508c-0.873-0.654-0.525-2.136-0.648-3.318c0.266-0.051,0.307,0.123,0.572,0.073
	c-0.064,0.472,0.295,0.522,0.359,0.867c0.596,0.171,1.387,0.15,2.172,0.142c0.141-0.092,0.07-0.407,0.283-0.431
	c0.383,0.239,0.678,0.54,1.303,0.36c0.367,0.314,0.773,0.483,0.867,0.935c0.072,0.377-0.248,0.65-0.225,1.156
	c0.35-0.109,0.668,0.25,1.229,0.146c0.4-0.352,0.666-0.828,0.943-1.303c-0.207-1.292-2.502-2.042-2.383-3.319
	c1.268-0.177,1.387-1.499,2.307-2.018c0.17,0,0.336,0,0.508,0c0.246-0.213,0.277-0.638,0.572-0.797
	c0.529,0.159,0.725,0.109,1.232,0.073c-0.041-1.126,0.979-1.314,0.719-2.451c0.566-0.206,0.939-0.383,1.588-0.362
	c0.584-0.46,0.756-1.33,1.297-1.808c0.402-0.346,0.998-0.311,1.299-0.791c0.07-0.381-0.348-0.269-0.283-0.648
	c0.473-0.561,0.785-1.284,1.729-1.375c-0.088-0.325,0.254-0.225,0.289-0.431c-0.236-0.219-0.525-0.39-0.791-0.575
	c0.324-0.319,0.391-0.664,0.432-1.372c-0.271-0.33-0.727-0.475-1.299-0.504c-0.152-0.41-0.371-0.693-0.359-1.083
	c0.006-0.437,0.418-0.79,0.502-1.301c0.064-0.407-0.125-0.717,0-1.153c0.66-0.225,0.453-1.063,0.725-1.587
	c0.242-0.481,0.662-0.445,1.01-0.797c-0.172-0.215-0.607-0.165-0.648-0.504c0.258-0.101,0.4-0.315,0.719-0.36
	c0.318-0.416,0.479-0.982,0.791-1.371c0.248-0.299,0.625-0.378,0.797-0.723c-0.018-0.172-0.248-0.13-0.213-0.36
	c-0.307-0.035-1.027,0.109-1.305-0.216c0.119-0.365,0.773-0.191,1.01-0.43c0.135-1.502,0.92-3.095,2.242-3.826
	c-0.756-0.72-2.006-0.209-3.033-0.504c-0.648-0.187-1.191-0.824-1.875-0.723c-0.119,0.285,0.27,0.441,0.07,0.574
	c-0.172-0.273-0.668-0.374-0.65-0.648c0,0.009,0.297-0.366,0.432-0.431c0.307-0.142,0.85-0.03,1.227-0.071
	c0.385,0.487,1.203,0.525,1.807,0.791c0.66-0.336,1.834-0.646,1.445-1.587c0.229-0.274,0.389-0.616,0.359-1.157
	c-0.289-0.345-0.342-0.621-0.289-1.006c-0.496-0.276-1.611,0.074-1.734-0.58c0.219-0.095,0.295-0.331,0.508-0.432
	c0.613,0.216,0.99-0.4,1.586-0.076c0.1-0.115-0.059-0.419,0-0.72c-0.348-0.15-0.908-0.337-1.439-0.501
	c0.029-0.42-0.359-0.797-0.295-1.012c0.271,0.076,0.207-0.181,0.438-0.145c0.029,0.307,0.277,0.395,0.43,0.574
	c0.449,0.036,0.691,0.277,1.156,0.293c0.225,0.209,0.324,0.539,0.727,0.574c0.418-0.285,0.631-0.604,0.719-1.082
	c0.438-0.189,0.508-0.74,0.721-1.156c-0.355,0.044-0.396-0.23-0.508-0.431c-0.967,0.442-2.42,0.315-3.244-0.216
	c0.105-0.109,0.123-0.304,0.289-0.359c1.297,0.705,2.949,0.295,3.969-0.359c0.32,0.504-0.053,1.012-0.076,1.51
	c-0.023,0.514,0.119,1.026,0.076,1.52c-0.059,0.625-0.359,1.162-0.584,1.802c-0.234,0.682-0.246,1.407-0.43,2.023
	c-0.172,0.569-0.613,1.06-0.648,1.655c-0.137-0.029-0.184-0.153-0.361-0.145c-0.088,0.327-0.193,0.593-0.07,0.941
	c0.59,0.064,0.26-0.585,0.508-0.721c0.336,0.322,0.496,0.596,0.359,1.083c-0.146,0.511-0.465,0.861-0.578,1.295
	c-0.307,1.206-0.141,2.298-0.219,3.321c-0.053,0.661-0.301,1.31-0.359,2.021c-0.047,0.537,0.07,1.104,0,1.658
	c-0.117,0.902-0.713,1.758-0.359,2.813c-0.342,0.216-0.744,0.366-0.867,0.797c0.283,0.33,0.555,0.492,1.156,0.359
	c0.436-0.689,0.436-1.395,0.508-2.383c0.117-1.705,0.795-3.428,0.932-5.121c0.082-0.953-0.035-1.938,0.076-2.891
	c0.035-0.33,0.201-0.699,0.283-1.08c0.096-0.416,0.102-0.876,0.219-1.227c0.07-0.191,0.248-0.36,0.289-0.575
	c0.053-0.251-0.029-0.546,0-0.791c0.059-0.478,0.354-0.938,0.359-1.448c0.023-0.805,0.23-1.593,0.289-2.377
	c0.035-0.416-0.064-0.844,0-1.228c0.035-0.228,0.201-0.543,0.289-0.796c0.107-0.287,0.242-0.531,0.359-0.791
	c0.207-0.463,0.645-1.168,0.721-1.52c0.207-0.905,0.035-1.707-0.354-2.377c-0.502-0.041-0.945-0.136-1.445,0
	c-0.23,0.059-0.408,0.25-0.656,0.286c-0.625,0.101-1.232-0.171-2.018-0.145c0.219-0.198,0.061-0.759,0.219-1.009
	c0.23,0.345,0.408-0.101,0.502-0.074c0.301,0.074,0.496,0.685,1.014,0.72c0.633-0.505,1.717-0.31,2.455-0.575
	c-0.041-0.254,0.059-0.371,0.213-0.437c-0.373-1.891,1.156-3.613,0.436-5.191c-0.92,0.257-2.447,0.05-2.313-0.867
	c0.283-0.038,0.354,0.251,0.648,0.216c-0.035,0.006,0.195-0.204,0.219-0.216c0.703-0.319,1.27,0.673,2.023,0.147
	c0.336-0.336,0.373-0.673,0.572-1.156c0.066-0.156,0.195-0.251,0.219-0.363c0.059-0.289-0.023-0.563,0-0.864
	c0.012-0.097,0.137-0.186,0.143-0.286c0.018-0.115-0.072-0.26-0.066-0.359c0.012-0.28,0.295-0.758,0.432-1.089
	c0.213-0.524,0.389-0.979,0.719-1.228c0.006-0.74,0.338-1.701,0.219-2.521c0.555-0.812,0.271-2.469,0.721-3.39
	c-0.484-1.307,0.129-2.74,0-4.186c-0.096-0.997-0.355-2.188-0.578-3.029c-0.184-0.693-0.52-1.242-0.65-1.879
	c-0.365-0.286-0.584-0.717-0.861-1.083c-0.354,0.035-0.4-0.225-0.725-0.215c-0.07,0.188-0.283,0.242-0.359,0.431
	c0.395,0.336,0.602,1.126,0.648,1.59c0.436,0.018,0.654,0.259,0.938,0.434c0.059,0.271-0.088,0.342-0.07,0.575
	c0.158,0.572,0.555,1.088,0.719,1.734c0.385,1.486,0.391,3.018,0.289,4.546c-0.26,0.466-0.488,0.812-1.008,0.867
	c-0.102,0.354-0.248,0.663-0.578,0.79c-0.283,0.039-0.779-0.044-1.016,0.216c0.119-0.522-0.324-0.489-0.359-0.867
	c0.148-0.188,0.59-0.086,0.797-0.216c0.342-0.896,1.898-0.914,1.445-2.377c-0.248-0.071-0.426-0.207-0.578-0.366
	c-1.227-0.136-1.895,0.274-2.455,0.796c-0.537-0.1-0.707,0.157-1.008,0.289c0.277-0.704,0.861-0.869,1.51-1.301
	c0.418-0.273,0.721-0.681,1.016-0.719c0.73-0.098,0.926,0.563,1.656,0.719c0.361-1.307-0.488-1.996-1.008-2.669
	c-1.375-0.318-2.68-0.404-3.824-0.935c-0.529-0.252-1.025-0.603-1.516-0.867c-0.578-0.316-1.121-0.47-1.729-0.721
	c-0.561-0.229-1.014-0.688-1.664-0.723c-0.512-0.029-1.121,0.301-1.656,0.216c-0.42-0.065-0.715-0.511-1.229-0.581
	c-0.436,0.486-0.984,1.224-1.586,1.304c-0.006-0.271,0.07-0.458,0.141-0.652c-0.248-0.029-0.4,0.03-0.578,0.077
	c-1.008-0.486-2.047-0.938-3.098-1.375c-0.1-0.454-0.619-0.492-0.584-1.082c-0.578-0.552-1.238-1.316-2.229-1.228
	c-0.615,0.404-1.039,1.295-1.016,2.095c-0.313,0.018-0.596-0.13-0.867-0.216c-0.266-0.089-0.637-0.118-0.797-0.362
	c0.455-0.416,0.963-0.773,1.523-1.083c0.24-0.622,0.902-0.825,1.516-1.083c0.441,0.154,0.873,0.325,1.297,0.508
	c0.113,0.195,0.166,0.451,0.502,0.434c0.301-0.111,0.461-0.365,0.654-0.581c-0.076-1.457,0.975-1.702,0.572-3.318
	c0.467-0.52,0.791-1.181,1.658-1.298c0.082-0.233,0.254-0.372,0.508-0.434c0.135-0.708,0.555-1.348,0.648-2.166
	c0.154-1.291-0.059-2.634,0.654-3.536c0.479-0.212,0.855-0.537,1.652-0.431c0.207-0.183,0.461-0.313,0.727-0.434
	c0.354-0.584,0.748-1.127,0.938-1.876c0.572-0.46,1.033-1.036,1.369-1.731c0.295-0.092,0.447-0.318,0.719-0.434
	c0.248,0.098,0.98-0.124,1.229,0.145c-0.355,0.539-0.674,1.006-1.08,1.516c-0.572,0.711-1.15,1.396-1.299,2.451
	c0.225-0.032,0.207,0.184,0.289,0.289c0.85-0.253,2.219,0.01,2.885-0.43c-0.023-0.363-0.023-0.699,0.289-0.723
	c-0.006-0.305-0.277-0.349-0.289-0.649c0.773-0.192,0.928-0.997,1.734-1.156c0.137-0.339,0.438-0.528,0.791-0.649
	c0.354-0.971,0.721-1.926,1.08-2.885c0.236,0.115,0.484,0.059,0.648-0.074c-0.07-1.326,0.236-2.271,0.797-2.958
	c0-0.216,0-0.434,0-0.649c0.684-1.313,1.605-2.389,2.313-3.678c0.088-0.101,0.336-0.047,0.432-0.147
	c0.885-2.121,1.969-4.175,2.523-6.563c0.102-0.451,0.344-0.908,0.508-1.372c0.508-1.434,0.943-3.012,1.227-4.616
	c-4.252-2.156-8.523-4.558-12.92-6.784c-4.246-2.153-8.637-4.381-12.984-6.784c-7.758-4.289-15.828-8.93-23.598-13.349
	c-0.555-0.315-1.381-0.844-1.658-0.867c-0.738-0.06-1.504,0.638-2.094,0.723c-0.225,0.036-0.502-0.083-0.65-0.073
	c-0.566,0.041-1.066,0.289-1.445,0.651c-0.188,0.183-0.205,0.422-0.359,0.575c-0.432,0.439-1.273,0.431-1.805,0.867
	c-0.023,0.959-1.016,1.52-1.947,1.806c-0.59,0.896-1.191,1.79-1.369,3.101c-0.762,0.324-0.99,1.18-1.297,1.946
	c0.111,0.147,0.234,0.298,0.289,0.507c-0.178,0.703-0.379,1.133-0.65,1.588c-0.348,0.581-0.555,1.448-0.867,1.879
	c-0.254,0.336-0.719,0.521-0.938,0.861c-0.16,0.254-0.135,0.625-0.289,0.867c-0.135,0.213-0.496,0.504-0.719,0.72
	c-0.91,0.867-1.877,1.457-2.814,2.239c-0.143,0.014-0.16-0.083-0.295-0.071c-0.68,0.616-1.512,1.083-1.729,2.165
	c0.105,0.039,0.17,0.112,0.211,0.215c0.23,0.139,0.508-0.186,0.867-0.145c-0.059,0.302,0.195,0.287,0.289,0.435
	c-0.838,0.336-1.723,0.625-2.453,1.082c-0.07,0.257-0.207,0.46-0.432,0.575c0.119,0.528-0.4,0.413-0.289,0.938
	c-1.422,2.021-4.283,2.593-6.566,3.755c-0.146,0.534-0.783,1.115-0.938,1.873c1.039,0.936,1.51,2.023,2.383,3.393
	c0.254,0.406,0.52,0.749,0.791,1.082c0.643,0.776,0.785,1.629,1.375,2.455c0.313,0.445,0.779,0.805,0.797,1.227
	c0.012,0.537-0.537,1.28-1.156,1.442c-0.443,0.115-0.98-0.18-1.375,0.216c-0.219,1.194,1.008,1.374,0.359,2.383
	c-0.742,0.166-0.725,1.063-1.15,1.514c-0.213,0.225-0.566,0.318-0.797,0.508c-0.354,0.295-0.494,0.616-0.789,0.938
	c-0.686,0.203-1.346-0.46-2.172-0.219c-0.455,0.137-0.467,0.746-0.719,1.083c-0.35,0.478-1.275,0.676-1.299,1.228
	c-0.006,0.273,0.289,0.475,0.432,0.723c0.176,0.285,0.264,0.596,0.436,0.793c-0.43,0.867-1.168,1.428-1.303,2.599
	c0.383,0.699,1.32,0.85,1.586,1.658c-0.283,0.578-0.85,0.876-1.221,1.372c-0.137,1.073,0.625,1.253,0.578,2.235
	c-0.148,0.218-0.525,0.404-0.578,0.723c-0.07,0.41,0.418,1.115,0.43,1.876c0.018,0.652,0.047,1.342,0.295,1.806
	c0.355,0.059,0.414,0.345,0.721,0.431c0.938,0.266,1.91-0.508,2.736-0.723c0.82,0.168,1.646,0.327,2.236,0.723
	c0.467,0.67,1.316,1.044,1.734,1.658c0.52,0.758,0.342,2.813,0.359,4.041c0.008,0.203,0.096,0.41,0.072,0.578
	c-0.059,0.637-0.449,1.206-0.508,1.802c-0.1,1.192,0.52,2.067,0.797,3.177c0.855,0.316,1.244,1.06,2.313,1.012
	c0.201-0.012,0.447-0.162,0.648-0.218c0.248-0.073,0.508-0.183,0.721-0.212c0.602-0.098,1.846,0.675,2.164,1.006
	c0.885,0.94,0.998,2.336,1.439,3.609c0.385,1.065,1.156,1.682,1.953,2.452c1.588,0.257,2.377,1.139,3.104,2.165
	c0.266,0.381,0.531,0.864,0.719,1.301c0.219,0.496,0.277,1.106,0.578,1.514c0.195,0.254,0.68,0.524,1.01,0.719
	c1.203,0.705,2.371,1.092,3.32,1.947c0.639,1.104,1.234,2.174,2.09,2.891c0.566,0.469,1.074,0.962,1.303,1.732
	c-0.525,0.94-1.309,1.622-2.742,1.657c-0.578,0.31-0.826,0.661-1.518,0.723c-0.807,0.073-1.609-0.478-2.234-0.147
	c-0.33,0.566-0.768,1.018-0.939,1.734c-1.326,1.201-2.873,2.041-4.689,2.451c-0.178,0.041-0.336-0.023-0.502,0
	c-1.037,0.162-1.521,0.682-2.383,1.16c-0.354,0.188-0.631,0.289-0.938,0.504c-0.289,0.194-0.566,0.404-0.867,0.646
	c-0.52,0.422-1.021,0.996-1.664,1.371c-0.732,0.431-1.824,0.371-2.455,0.867c-0.318,1.773-1.521,2.664-3.314,2.959
	c-0.461,0.422-1.191,0.625-1.588,1.012c-0.105,0.104-0.242,0.224-0.289,0.286c-0.838,1.165,0.572,3.124,0.07,4.114
	c-0.047,0.101-0.383,0.266-0.43,0.432c-0.047,0.158,0.029,0.235,0,0.436c-0.461,0.354-1.027,0.611-1.664,0.791
	c-0.295-0.162-0.756-0.156-1.227-0.145c-0.85,0.484-1.729,1.475-2.957,1.876c-0.436,0.145-1.008,0.301-1.516,0.437
	c-1.191,0.316-2.23,0.461-3.314,0.07c-0.289-0.07-0.225,0.216-0.508,0.145c-0.271-0.129-0.52-0.12-0.791-0.076
	c-1.057,0.186-1.982,0.982-2.814,1.664c-0.879,0.717-1.84,1.315-2.531,2.018c-0.301,0.77-0.949,1.117-1.586,1.664
	c-0.461,0.395-0.998,0.77-1.369,1.224c-0.295,0.356-0.461,0.944-0.725,1.442c-0.289,0.566-0.609,1.006-0.572,1.734
	c-0.584,0.914-1.582,1.511-1.947,2.667c-0.143,0.431-0.041,0.943-0.219,1.371c-0.148,0.363-0.648,0.646-1.01,1.083
	c-0.193,0.235-0.258,0.501-0.436,0.651c-0.254,0.222-0.654,0.275-0.867,0.505c-0.16,0.46-0.537,0.711-0.721,1.153
	c0.154,1.242,0.443,2.348,1.664,2.528c0.207,0.675,0.963,0.812,1.439,1.227c0.006,0.771-0.395,1.142-0.43,1.874
	c-0.479,0.079-0.643,0.465-0.797,0.863c0.318,0.909,0.178,2.318-0.07,3.251c-0.426,0.094-1.234,0.07-1.947,0.07
	c-0.213,0.389-0.143,1.064-0.359,1.441c0.324,0.705,0.754,1.311,1.221,1.877c0.695,0.271,1.41,0.121,2.236,0
	c1.127,0.889,2.424,1.504,3.25,2.596c0.035,0.051-0.035,0.172,0,0.221c0.029,0.029,0.088-0.078,0.143,0
	c0.246,0.322,0.43,0.721,0.584,1.084c0.619,0.309,0.914,0.961,1.439,1.373c0.572,0.037,0.984-0.07,1.373-0.223
	c0.119,0.506,0.639,0.85,0.791,1.367c0.09,0.314-0.029,0.656,0.07,0.945c0.031,0.059,0.148,0.117,0.219,0.211
	c0.242,0.35,0.324,0.379,0.648,0.65c0.414,0.354,0.703,0.719,1.229,0.873c0.377-0.508,1.227-0.762,1.805-0.225
	c0.148,1.121,0.896,1.652,0.861,2.955c0.666,0.402,1.227,0.902,1.883,1.305c0.412-0.613,1.02-1.045,2.229-0.861
	c-0.006,0.613,0.627,0.578,0.945,0.861c-0.119,0.242-0.355,0.371-0.438,0.648C183.299,236.722,183.836,237.005,184.396,237.276z"/>
<path fill-rule="evenodd" clip-rule="evenodd" d="M257.633,181.785c-0.146-0.239-0.188-0.578-0.5-0.649
	c-0.148,0.481-0.143,0.8,0.211,1.08C257.393,182.021,257.645,182.036,257.633,181.785z"/>
<path fill-rule="evenodd" clip-rule="evenodd" d="M254.602,195.926c-0.029,0.803,0.313,1.227,1.008,1.304
	C255.869,196.442,255.174,196.118,254.602,195.926z"/>
<path fill-rule="evenodd" clip-rule="evenodd" d="M254.602,198.885c-0.254-0.175-0.42-0.445-0.938-0.36
	c0.035,0.228-0.131,0.257-0.072,0.507C253.857,199.118,254.424,199.106,254.602,198.885z"/>
<path fill-rule="evenodd" clip-rule="evenodd" d="M249.77,211.805c0.166-0.296,0.207-0.632,0.359-0.941
	c0.336-0.673,1.01-1.307,1.51-2.018c0.496-0.688,0.887-1.528,1.305-2.239c0.938-1.572,1.393-3.419,2.166-4.908
	c0.482-0.929,1.303-1.552,0.938-2.813c-0.896,0.285-0.814,1.549-1.156,2.383c-0.42,0.248-0.666,0.263-0.867,0.646
	c-0.248,0.495-0.041,0.593,0,0.943c-0.432,1.03-1.191,1.741-1.516,2.882c-0.65,0.572-1.104,1.349-1.658,2.023
	c0.012,0.396-0.131,0.517-0.289,0.861c-0.254,0.582-0.514,0.977-0.791,1.449c-0.383,0.648-0.727,1.38-1.08,1.87
	c-0.459,0.637-1.314,0.987-1.375,1.952c-0.277,0.156-0.412,0.451-0.648,0.646c-0.088,0.832-0.689,1.142-1.086,1.664
	c0.096,0.459-0.141,1.132-0.07,1.585c1.18-0.77,1.41-2.489,2.596-3.25c0.125-0.215-0.018-0.363,0.076-0.504
	C248.791,213.371,249.344,212.56,249.77,211.805z"/>
<path fill-rule="evenodd" clip-rule="evenodd" d="M252.873,203.501c0.219,0.026,0.342-0.165,0.502,0
	c0.018-0.23-0.125-0.304-0.072-0.575C252.967,202.932,252.832,203.132,252.873,203.501z"/>
<path fill-rule="evenodd" clip-rule="evenodd" d="M249.916,207.906c0.297-0.257,0.598-0.508,0.645-1.01
	c-0.639-0.283-0.957,0.331-1.15,0.723C249.615,207.672,249.592,207.958,249.916,207.906z"/>
<path fill-rule="evenodd" clip-rule="evenodd" d="M249.191,208.625c-0.225-0.466-0.59,0.106-0.727,0.366
	c0.125,0.092,0.189,0.239,0.438,0.216C248.891,208.9,249.18,208.9,249.191,208.625z"/>
<path fill-rule="evenodd" clip-rule="evenodd" d="M247.893,210.864c-0.023,0.171-0.117,0.269-0.07,0.505
	c0.113,0.127,0.301,0.18,0.572,0.145c0.018-0.23-0.129-0.305-0.07-0.576C248.1,210.988,248.111,210.814,247.893,210.864z"/>
<path fill-rule="evenodd" clip-rule="evenodd" d="M246.666,212.525c-0.201-0.074-0.473-0.346-0.725-0.145
	c-0.012,0.301,0.277,0.301,0.295,0.575C246.514,212.953,246.52,212.667,246.666,212.525z"/>
<path fill-rule="evenodd" clip-rule="evenodd" d="M245.291,215.41c0.248-0.336,0.084-0.882-0.283-1.012
	C244.619,214.757,244.861,215.289,245.291,215.41z"/>
<path fill-rule="evenodd" clip-rule="evenodd" d="M242.984,214.69c-0.088,0.174-0.217,0.31-0.289,0.505
	c0.201,0.209,0.313,0.507,0.65,0.574c0.111-0.035,0.182-0.104,0.289-0.145C243.592,215.135,243.357,214.849,242.984,214.69z"/>
<path fill-rule="evenodd" clip-rule="evenodd" d="M244.141,218.515c0.178,0.066,0.313,0.166,0.578,0.145
	c-0.111-0.205-0.088-0.541-0.295-0.65C244.395,218.237,244.152,218.265,244.141,218.515z"/>
<path fill-rule="evenodd" clip-rule="evenodd" d="M243.127,221.038c-0.219-0.201-0.225,0.256-0.502,0.215
	c-0.248-0.236-0.389-0.576-0.578-0.867c-0.707-0.154-1.227-0.018-2.236-0.068c-0.383,0.125-0.436,0.576-0.867,0.65
	c0.094,0.342,0.166,0.395,0,0.723c0.283,0.383,0.318,1.029,0.289,1.73c-0.354,0.434-0.701,0.885-1.227,1.154
	c0.094,0.279-0.059,0.701,0,1.152c-0.637-0.051-0.797,0.982-1.516,1.08c-0.055-0.18-0.178-0.299-0.361-0.359
	c-0.146,0.15-0.447,0.129-0.578,0.291c0.029,0.82,0.709,1.393,1.229,1.439c0.736,0.07,1.58-0.809,2.377-1.221
	c0.412-0.209,0.762-0.289,1.092-0.439c0.543-0.971,1.922-1.912,1.291-3.387c0.373-0.33,1.197-0.201,1.523-0.578
	C243.074,222.04,243.504,221.503,243.127,221.038z"/>
<path fill-rule="evenodd" clip-rule="evenodd" d="M234.395,224.144c-0.053,0.322-0.289,0.473-0.43,0.723
	c0.018,0.432-0.213,1.15,0.07,1.582c0.643-0.029,0.75-0.59,1.227-0.791C234.885,225.247,235.15,224.185,234.395,224.144z"/>
<path fill-rule="evenodd" clip-rule="evenodd" d="M236.277,225.519c-0.035-0.432-0.213-0.715-0.578-0.803
	c-0.336,0.389,0.029,0.871,0.283,1.082C235.953,225.577,236.17,225.599,236.277,225.519z"/>
<path fill-rule="evenodd" clip-rule="evenodd" d="M227.758,233.878c0.461-0.189,0.697-0.602,0.867-1.08
	c-0.164-0.053-0.195-0.242-0.359-0.289C227.941,232.815,227.387,233.329,227.758,233.878z"/>
</svg>
