<svg version="1.1" id="Calque_1" xmlns="http://www.w3.org/2000/svg" xmlns:xlink="http://www.w3.org/1999/xlink" x="0px" y="0px"
	 width="432px" height="432px" viewBox="0 0 432 432" enable-background="new 0 0 432 432" xml:space="preserve">
<path fill-rule="evenodd" clip-rule="evenodd" d="M153.686,82.96c-0.074,0.012-0.068,0.094-0.065,0.188
	c-7.307,56.984-14.692,113.904-21.993,170.9c7.038,0.926,13.879,2.053,20.92,2.979c0.153-4.666,0.153-9.48,0.442-14.012
	c14.191,1.977,28.253,4.078,42.471,6.023c0.331-1.951,0.458-4.105,0.823-6.023c30.431,2.98,60.707,6.107,91.158,9.074
	c4.345-51.545,8.643-103.143,12.932-154.74C251.424,92.599,202.646,87.69,153.686,82.96z"/>
</svg>
