<svg version="1.1" id="Calque_1" xmlns="http://www.w3.org/2000/svg" xmlns:xlink="http://www.w3.org/1999/xlink" x="0px" y="0px"
	 width="432px" height="432px" viewBox="0 0 432 432" enable-background="new 0 0 432 432" xml:space="preserve">
<path fill-rule="evenodd" clip-rule="evenodd" d="M347.774,237.754c-0.188,0.271-0.318,0.607-0.437,0.944
	c-0.242-0.195-0.448-0.432-0.803-0.508c-0.313,0.295-0.46,0.749-0.654,1.162c-0.372-0.053-0.384,0.248-0.584,0.366
	c-0.124-0.118-0.384-0.101-0.579-0.147c-0.72,0.419-1.227,1.05-2.318,1.085c-0.241,0.266-0.619,0.407-0.873,0.655
	c-0.631-0.301-1.321-1.039-1.168-1.67c-0.283-0.242-0.495-0.566-1.009-0.584c-0.419,0.413-0.696,0.956-0.59,1.894
	c-0.632-0.548-0.607-1.77-1.959-1.599c-0.218,0.572-0.685,1.563-1.38,1.528c-0.425-0.029-0.69-0.514-0.867-1.021
	c0.082-0.153,0.307-0.172,0.212-0.508c0.366,0.071,0.508,0.496,0.726,0.578c0.13,0.047,0.213-0.112,0.36,0
	c0.029-0.543-0.213-0.85-0.283-1.304c-0.39-0.095-0.956-0.018-1.015-0.437c0.478-0.041,0.796,0.183,1.015-0.147
	c-0.372-0.596-1.393-0.537-1.67-1.233c-0.496,0.708-1.752,0.814-1.528,2.029c0.626,0.561,1.352,1.027,1.74,1.817
	c-0.171,0.584-1.026,0.62-1.527,0.295c-0.607,0.354-0.644,1.286-1.086,1.812c-0.407,0.318-0.796,0.654-1.451,0.726
	c-0.07,0.501-0.307,0.696-0.07,1.162c-0.266,0.136-0.425,0.36-0.732,0.437c-0.431-0.212-0.997,0.06-1.521,0.147
	c-0.797-0.224-1.723-1.015-2.543-0.359c-0.407-0.106-0.749-0.277-1.021-0.508c0.236-0.301,0.696-0.679,1.092-0.365
	c0.188-0.159,0.295-0.39,0.654-0.366c0.737-1.009,1.534-1.953,3.05-2.177c0.142-0.183,0.147-0.483,0.36-0.578
	c0.307,0.307,0.313,0.714,0.879,0.431c-0.029-0.354-0.277-0.496-0.289-0.873c0.118-0.318,0.39-0.479,0.655-0.649
	c0.501,0.271,1.758,0.277,1.663-0.507c-0.266-0.295-1.079-0.03-1.162-0.514c0.343-0.82,1.41-0.92,1.682-1.817
	c0.254,0.054,0.342-0.082,0.501-0.142c0.225-0.183,0.325-0.495,0.508-0.726c0.318,0,0.401-0.229,0.803-0.142
	c0.177-0.136,0.177-0.448,0.437-0.513c0.808-0.26,0.819,0.419,1.38,0.359c0.077-0.561,0.295-0.619-0.076-1.015
	c-0.714,0.077-1.451,0.69-2.106,0.366c-0.289,0.188-0.679,0.289-1.086,0.359c-0.855,0.844-1.463,1.924-3.056,2.042
	c-0.431,0.336-0.879,0.66-1.162,1.156c-1.522,0.743-2.844,1.822-4.289,2.761c-0.212,0.142-0.679,0.295-0.938,0.359
	c-0.784,0.195-1.692-0.012-2.613,0.147c-0.46,0.083-0.979,0.431-1.604,0.514c-0.867,0.095-1.628-0.089-2.466-0.301
	c-0.49,0.142-1.068,0.307-1.67,0.371c-0.938,0.106-1.628,0.06-2.254,0c-1.787-0.194-3.692,0.254-4.784-0.371
	c-0.2,0.2,0.448,0.442,0.136,0.731c-0.726,0.101-0.667-0.596-1.156-0.731c-0.425,0.283-1.092,0.324-1.457,0.66
	c0.53,0.685,0.507,1.93-0.584,2.036c-0.048-0.349,0.265-0.325,0.224-0.655c-0.679,0.095-1.174,0.378-1.593,0.72
	c-0.2,0.142,0.295,0.425,0.071,0.578c-0.325-0.2-0.626-0.566-1.021-0.72c-0.177-0.07-0.437-0.012-0.654-0.07
	c-0.649-0.178-1.28-0.572-1.894-0.661c-0.325-0.041-0.661,0.06-0.938,0c-0.826-0.159-0.92-1.18-1.894-1.085
	c-0.071,0.359-0.124,0.743-0.142,1.168c0.407,0.295,0.832,0.153,1.304,0c0.336,0.147,0.613,0.72,0.295,1.085
	c-0.407-0.224-1.186-0.082-1.528-0.359c-0.064,0.124-0.224,0.159-0.437,0.142c-0.283,0.035-0.33,0.596-0.654,0.359
	c-0.242-0.413,0.035-0.873,0.224-1.31c-0.442-0.401-1.114-0.572-2.035-0.501c-0.708,0.92,0.596,1.339,0.437,2.4
	c-0.206-0.501-0.607-0.2-1.085-0.301c-0.142,0.266-0.744,0.708-1.092,0.301c0-0.2-0.029-0.419,0.07-0.507
	c0.325-0.225,0.714,0.194,0.938,0.059c0.425-0.396,0.053-0.932-0.289-1.009c-0.277-0.064-0.613,0.195-0.938,0.219
	c-0.218,0.006-0.431-0.142-0.66-0.147c-0.773-0.019-1.593,0.619-2.318,0.359c-0.03,0.649-0.597,1.18-0.649,1.817
	c-0.064,0.572,0.225,1.067,0.207,1.67c-0.325-0.396-0.626-0.82-0.797-1.369c-0.72-0.301-2.029-1.15-2.029,0.359
	c0.336,0.184,0.778,0.289,0.949,0.649c-0.283,0.218-0.082,0.661-0.371,0.731c-0.26,0.053-0.584-1.044-1.381-0.654
	c-0.2,0.448-0.088,1.197,0,1.451c-0.159,0.047-0.218,0.218-0.289,0.359c-0.183-0.224-0.561-0.266-0.726-0.507
	c0.023-0.614-0.549-1.026-0.584-1.599c-0.023-0.449,0.283-0.756,0.153-1.233c0.483-0.337,1.086-0.549,1.298-1.156
	c0.979-0.561,1.499-1.558,2.478-2.118c0.372-0.213,0.508,0.188,0.72,0.076c0.024-0.684,0.354-1.056,0.579-1.527
	c-0.791-1.723-1.747-3.28-2.614-4.938c2.814-1.374,5.505-2.873,8.283-4.276c-0.371-0.543-0.749-1.121-1.233-1.753
	c-0.336-0.431-1.209-1.227-1.304-1.74c-0.13-0.637,0.219-2.254,0.289-3.486c0.514-9.139,1.546-18.908,2.03-27.817
	c-0.213-0.359-0.561-0.602-0.72-1.021c2.755-8.784,5.51-17.586,8.276-26.365c-0.354-1.056-0.672-2.136-1.021-3.191
	c0.714-1.428,0.638-2.997,0.72-5.015c0.378-8.165,0.337-16.536,0.661-24.548c-0.324-0.49-0.902-0.791-1.233-1.304
	c-0.33-0.514-0.336-1.175-0.796-1.605c-0.561-0.171-1.434-0.023-2.106-0.07c-0.236,0.714-0.159,1.74-0.514,2.318
	c-0.419-0.254-0.961-0.378-1.304-0.72c0.112-0.52,0.378-0.85,0.431-1.31c0.071-0.566-0.082-0.985,0-1.451
	c0.159-0.814,0.566-1.8,0.944-2.324c0.147-0.207,0.454-0.325,0.578-0.584c0.095-0.166,0.177-0.608,0.301-0.938
	c0.336-0.95,0.483-2.06-0.372-2.472c-0.289-0.762,0.03-1.794-0.064-2.614c-0.153-1.262-1.056-2.2-1.021-3.558
	c-0.065-0.295,0.218-0.224,0.142-0.513c-0.313-0.572,0-1.788-0.283-2.396c-0.407-0.07-0.696,0.178-0.879-0.07
	c-0.207,0.094-0.054,0.578-0.36,0.578c-0.483-0.484-0.218-1.847-0.142-2.69c0.048-0.566,0.366-0.861,0.502-1.228
	c0.136-0.348,0.047-0.701,0.295-0.873c-0.283-0.478-0.071-1.64-0.147-2.105c0.631-0.301,1.168-0.679,1.816-0.95
	c0.313-0.991,1.269-1.333,1.6-2.318c-1.063-0.124-0.638-1.127-0.655-1.817c-0.018-0.737-0.661-1.381-0.359-2.035
	c-0.225-0.437-0.508-0.844-0.508-1.375c-0.006-0.295,0.2-0.448,0.206-0.731c0.036-0.425-0.159-0.749-0.359-1.091
	c-0.726,0.082-0.49,1.486-1.08,1.457c-0.047-0.384,0.054-0.679,0.147-1.015c0.065-0.313,0.277-0.696,0.283-0.95
	c0.018-0.46-0.253-0.797-0.359-1.304c0.194-0.454,0.654-0.649,0.796-1.156c-0.654-0.737-1.451-1.315-2.105-2.047
	c0.466-0.785-0.325-2.036,0.218-3.121c-0.153-0.183-0.2-0.478-0.289-0.72c0.254-0.502,0.324-1.174,0.289-1.965
	c0.283-0.023,0.549-0.082,0.649-0.289c0.235,0.348,0.537,0.625,1.091,0.648c-0.029-0.289,0-0.524,0.219-0.572
	c-0.324-0.524-0.785-0.914-1.162-1.38c0.177-0.213,0.336-0.448,0.437-0.731c0.407-0.071,0.578-0.396,1.021-0.431
	c0.095-0.337,0.159-0.714,0.206-1.086c-0.359-0.39-0.932-0.566-1.227-1.021c0.13-0.242,0.142-0.365,0.07-0.66
	c0.549-0.337,1.21-0.638,1.316-1.311c0.111-0.79-0.591-1.669-0.732-2.395c0.225-0.508,0.603-0.897,0.732-1.522
	c-0.054-0.354-0.496-0.283-0.591-0.584c0.572-0.23,1.269-0.336,1.387-1.015c-2.531,0.076-4.974,0.124-7.486,0.218
	c-3.61,0.136-7.581-0.265-11.546,0c-2.926,0.201-5.729,0.626-8.495,0.797c-0.962,0.059-1.894-0.101-2.838-0.142
	c-4.076-0.188-8.13-0.171-12.2-0.366c-0.731-0.035-1.387-0.147-1.823-0.07c-0.342,0.059-0.549,0.39-1.009,0.437
	c-0.289,0.023-0.525-0.118-0.802-0.142c-0.508-0.053-0.944,0.041-1.446,0.142c-0.448-0.366-1.256-0.201-1.61-0.514
	c-0.254,0.06-0.377,0.242-0.648,0.289c0.029-0.266-0.054-0.419-0.283-0.431c-0.985,0.012-1.734,0.561-1.747,1.31
	c-0.235,0.106-0.318,0.024-0.59,0c0-0.218,0-0.436,0-0.654c-0.548,0.219-1.145,0.401-1.811,0.508
	c0.212,0.324,0.672,0.395,0.879,0.719c-0.366,0.283-0.956,0.071-1.387,0c-1.133,0.461-1.558,1.735-2.838,1.971
	c-0.253,0.048-0.584-0.124-0.861-0.07c-0.4,0.059-0.696,0.437-1.162,0.283c-0.643,0.619-1.581,0.938-2.336,1.457
	c-0.159,0-0.207-0.13-0.431-0.071c-1.104,0.638-2.696,0.785-3.634,1.587c-0.118,0.154-0.118,0.413-0.213,0.591
	c-1.003,0.389-1.599,1.304-2.401,1.952c-0.784,0.661-2.018,1.239-2.902,1.817c-0.867,0.584-1.522,1.056-2.254,1.676
	c-0.442,0.383-0.891,0.737-1.298,1.091c-1.274,1.063-2.266,2.248-4.147,2.473c-0.018,0.253,0.337,0.141,0.295,0.436
	c-0.478,0.797-1.386,1.181-1.746,2.101c-0.401,0.207-0.619,0.596-1.091,0.731c-0.248,0.756-0.903,1.363-0.797,2.254
	c0.07,0.213,0.431,0.142,0.359,0.502c-0.035,0.66-0.56,0.844-0.949,1.31c-0.613,0.142-0.968,0.578-1.445,0.873
	c-0.13,0.183-0.13,0.495-0.437,0.507c0.059,0.349-0.095,0.473-0.289,0.578c-0.667-0.07-1.08,0.479-1.67,0.502
	c-0.183,0.018-0.46-0.106-0.655-0.071c-0.448,0.089-0.914,0.508-1.451,0.591c-0.348,0.059-0.643,0.023-1.021,0
	c-0.188,0.259-0.572,0.342-0.938,0.43c-0.178,0.172-0.242,0.438-0.59,0.438c0.206,0.472,0.194,0.938,0.59,1.31
	c0.218,0.094,0.619,0,0.796,0.142c0,0.66-0.365,0.943-1.015,0.949c-0.549,0.566-1.581,0.644-2.183,1.162
	c-0.867,0.16-1.676,0.449-2.318,0.727c-0.855,0.354-1.233,0.855-2.112,1.091c-0.537,0.496-1.044,1.038-1.888,1.233
	c-0.46,0.654-1.156,1.067-1.959,1.374c-0.136,0.396-0.336,0.743-0.437,1.163c0.248,0.188,0.101,0.389,0.219,0.59
	c0.412,0.684,1.445,0.507,2.029,1.009c0.006,0.578-0.189,1.162,0.076,1.599c0.325,0.105,0.343-0.473,0.572-0.213
	c-0.018,0.283-0.336,0.283-0.283,0.649c0.142,0.271,0.413,0.413,0.514,0.726c0,0.301-0.349,0.531-0.147,0.803
	c0.26,0.247,0.72,0.117,1.009-0.077c0.643-0.407,0.814-1.356,1.168-1.959c-0.295-0.542-1.634-0.064-2.101-0.437
	c0.159-0.572,0.39-0.885,0.791-1.162c0.82-0.566,2.088-0.012,3.05-0.07c0.041,0.4-0.035,0.678-0.07,1.021
	c0.578,0.012,1.009-0.207,1.162,0.283c-0.59,0.72-1.487,0.79-2.254,1.238c0.023,0.407-0.183,0.585-0.359,0.797
	c0.46,0.413,1.31,0.437,1.811,0.802c0.372-0.212,0.679-0.276,0.95-0.436c0.112-0.071,0.266-0.089,0.359-0.148
	c0.49-0.301,0.844-0.672,1.169-1.015c0.295,0.13,0.596,0.271,0.572,0.726c-0.36,0.142-0.768,0.213-1.163,0.142
	c-0.431,0.561-0.837,1.145-1.516,1.458c0.147,0.313,0.242,0.672,0.359,1.015c-0.307,1.315-1.917,1.327-2.908,1.958
	c-0.342-0.136-0.136-0.501-0.359-0.643c-0.938-0.142-1.41,0.183-1.965,0.431c-0.473,0.944,0,1.959,1.091,1.959
	c0.054,0.442,0.566,0.813,0.803,1.31c0.578,1.238,0.832,3.191,0.938,5.009c0.07,1.062,0.094,2.177,0,2.908
	c-0.077,0.637-0.337,1.67-0.578,2.029c-0.714,1.074-2.903,1.121-4.36,1.168c-0.313-0.159-0.525-0.318-0.79-0.359
	c-1.393-0.242-1.9,0.277-2.62,0.79c-1.127,0.791-2.159,1.829-3.558,2.178c-0.53,0.418-1.056,0.843-1.386,1.457
	c-0.301,0.076-0.277-0.153-0.502-0.147c-0.997,0.678-1.811,1.533-2.401,2.613c-0.371,0.012-0.495,0.289-0.796,0.366
	c-1.068,0-1.634,0.513-2.254,0.867c-0.39,0.224-0.802,0.46-1.315,0.584c-0.23,0.053-0.472,0.012-0.72,0.076
	c-0.566,0.13-1.127,0.454-1.74,0.508c-0.826,0.076-1.044,0.147-1.528,0.431c-0.483,0.295-0.631,0.277-1.091,0.437
	c0.241,0.524,0.831,0.72,0.949,1.386c-0.39-0.053-0.596-0.224-0.879,0c-0.448-0.354-0.991-0.902-1.67-0.808
	c-0.2-0.178-0.283-0.484-0.578-0.578c-0.354-0.035-0.377-0.035-0.72,0c-1.103-0.425-2.365-0.69-3.711-0.584
	c-0.478,0.041-0.955,0.194-1.457,0.218c-0.46,0.029-0.968-0.041-1.451,0c-0.46,0.054-0.902,0.225-1.374,0.225
	c-0.832,0-1.67-0.153-2.467-0.071c-0.832,0.077-1.545,0.425-2.324,0.36c-0.784,0.555-1.953,0.536-2.908,0.867
	c-0.254,0.095-0.454,0.318-0.731,0.371c-0.425,0.06-0.867-0.13-1.298,0c-1.263-0.973-3.068-1.599-4.295-2.619
	c-0.254-0.212-0.396-0.537-0.655-0.72c-0.407-0.313-1.209-0.743-1.67-0.809c-0.307-0.035-0.554,0.143-0.867,0.148
	c-0.454,0.006-0.908-0.219-1.38-0.289c-0.608-0.101-1.257-0.089-1.889-0.219c-0.565-0.124-1.085-0.396-1.669-0.514
	c-1.233-0.224-2.613-0.117-3.93-0.218c-1.067-0.077-2.059-0.26-3.044-0.213c-0.938,0.036-1.723,0.277-2.472-0.07
	c-0.153,0.076-0.242,0.241-0.431,0.283c-0.572-0.266-1.197-0.101-1.817-0.142c-2.896-0.195-6.256-0.301-8.867,0
	c-0.48,0.059-0.911,0.307-1.377,0.359c-0.378,0.054-0.773-0.047-1.162,0c-1.393,0.189-2.52,1.239-3.776,0.661
	c-1.006,0.761-2.787,1.115-4.209,1.233c-0.136,0.111-0.283,0.2-0.439,0.289c-0.168,0.088-0.422,0.123-0.581,0.218
	c-0.239,0.142-0.363,0.396-0.649,0.508c-0.263,0.105-0.593,0.105-0.876,0.142c-0.269,0.041-0.625,0.023-0.87,0.07
	c-0.23,0.059-0.437,0.242-0.658,0.301c-0.513,0.124-1.053,0.077-1.519,0.213c-0.611,0.177-1,0.678-1.599,0.654
	c0.501,0.944,0.729,2.378,0.723,3.918c0,1.31-0.398,2.041-0.652,2.838c0.204,0.678,1.269,0.837,2.032,0.731
	c0.071,0.229,0.26,0.313,0.289,0.501c0.018,0.083-0.091,0.637-0.07,0.584c-0.142,0.425-0.581,0.797-0.652,1.304
	c-0.118,0.82,0.52,1.428,0.944,1.67c0.18,0.106,0.396,0.106,0.578,0.218c0.263,0.16,0.398,0.378,0.584,0.443
	c0.486,0.159,0.988-0.06,1.451,0.365c0.313,0.472,0.136,0.914,0.145,1.445c0.018,0.768,0.555,1.222,0.873,1.746
	c0.213,0.354,0.655,1.109,0.726,1.451c0.127,0.638-0.018,1.322,0.145,2.106c-0.699,0.555-1.602,1.67-2.469,1.959
	c-0.416,0.142-0.891,0.035-1.378,0.218c-0.545,0.484-0.61,2.271-1.454,2.254c-0.561-0.018-0.469-0.607-0.799-0.873
	c-0.635,0.502-0.832,1.445-1.307,2.101c-0.337,0.035-0.605-0.26-0.803-0.142c-0.336,1.044-0.658,1.723-1.156,2.619
	c-0.28,0.489-0.635,1.104-1.023,1.239c-0.254,0.076-0.59-0.06-0.87,0c-0.378,0.064-0.788,0.389-1.233,0.578
	c-1.528,0.631-2.899,1.563-4.646,1.734c-0.172,0.289-0.375,0.555-0.363,1.026c-0.899,0.619-1.841,1.209-2.469,2.106
	c-0.696,0.596-1.661,0.726-2.401,1.232c-0.283,0.189-0.472,0.52-0.723,0.72c-0.926,0.762-2.089,0.915-2.979,1.746
	c-1.348,1.01-3.206,1.487-4.431,2.614c0.021,3.628-0.256,7.351-0.147,10.825c49.441-0.006,99.564-0.254,149.121-0.147
	c0.147,0.236,0.248,0.525,0.283,0.873c0.413,0.343,0.685,0.82,1.021,1.233c0.359-0.047,0.354-0.029,0.648,0.07
	c0.177,0.289,0.413,0.514,0.655,0.727c0.235,1.191,0.064,2.495,1.091,2.761c0.39,0.106,0.909-0.183,1.381-0.142
	c0.082,0.006,0.171,0.118,0.283,0.142c0.602,0.13,0.796,0.142,1.091,0.507c1.01-0.224,1.493,0.844,2.042,1.387
	c0.307,0.301,0.637,0.437,0.867,0.726c0.454,0.572,0.838,2.183,0.654,3.127c-0.023,0.136-0.147,0.277-0.142,0.431
	c0,0.531,0.343,1.021,0.431,1.522c0.054,0.147,0.442-0.036,0.372,0.224c-0.018,0.59-0.489,0.72-0.372,1.451
	c-1.221,0.867,0.124,2.384,0.731,2.979c-0.177,0.495,0.16,0.679,0.36,1.009c0.336,0.602,0.572,1.127,1.021,1.457
	c-0.047,0.455,0.236,0.59,0.36,0.873c0.619,0.071,1.298-0.07,1.816,0.148c0.62,0.253,0.773,1.215,1.375,1.374
	c0.69-0.177,1.245,0.153,1.817,0.295c0.619-0.667,1.463-0.077,2.33,0c0,0.188,0,0.384,0,0.578c0.832,0.679,1.734,1.31,2.324,2.254
	c8.413,4.631,16.938,9.356,25.269,13.94c0.554,0.307,1.221,0.555,1.599,1.092c-0.331,0.926-0.461,2.053-0.938,2.832
	c-0.059,0.2,0.106,0.188,0.071,0.365c-0.95,2.029-1.711,4.248-3.051,5.882c-0.183,0.838-0.377,1.41-0.578,2.106
	c0.59,0.466,0.396,1.528,0.578,2.248c-0.313,0.247-0.519,0.602-0.802,0.879c-0.06,0.437-0.266,0.743-0.649,0.867
	c-0.359-0.118-0.336-0.625-0.507-0.938c-0.502-0.495-1.109-0.136-2.03-0.076c-0.613,0.041-1.298-0.147-1.61-0.071
	c-0.749,0.184-0.637,1.045-0.578,1.888c-0.2,0.313-0.383,0.632-0.359,1.163c-0.496,0.371-0.879,0.861-1.239,1.374
	c0,0.596-0.035,1.21,0.219,1.528c0.289,0.07,0.548-0.118,0.802-0.219c0.242-0.088,0.59-0.159,0.797-0.289
	c0.212-0.124,0.289-0.33,0.513-0.437c0.608-0.283,1.269-0.354,1.889-0.731c0.613-0.59,1.132-1.274,1.882-1.734
	c0.229-0.407,0.542-0.979,1.026-1.021c0.466-0.035,0.943,0.478,1.298,0.726c-0.047,0.26-0.496,0.13-0.36,0.578
	c0.744,0.33,1.481-0.023,2.178,0.225c0.307-0.277,0.755-0.413,0.943-0.803c0.36,0.396,0.891,0.396,1.315,0.076
	c-0.094-0.672-0.466-1.038-0.519-1.746c0.448-0.79,1.587-0.891,2.908-0.796c0.071,0.472,0.631,0.289,0.95,0.365
	c-0.106,0.508,0.165,0.655,0.142,1.092c-0.997,0.301-1.499,1.104-2.762,1.156c-0.619,0.448-1.463,0.667-2.466,0.731
	c-0.124,0.289-0.531,0.295-0.431,0.791c0.289,0.206,0.626-0.048,1.009,0c0.195-0.042,0.183-0.295,0.437-0.283
	c1.899-0.349,3.363-1.569,5.445-1.387c0.85,0.076,1.646,0.365,2.543,0.359c0.454,0,0.867-0.171,1.31-0.212
	c0.466-0.041,1.445,0.236,1.67-0.295c-0.277-0.366-0.968-0.213-1.528-0.213c-1.062,0-2.194,0.118-2.826-0.07
	c0.572-0.101,1.086-0.495,1.086-0.944c0.483-0.235,0.855,0.236,1.233,0.213c0.431-0.012,0.654-0.413,1.091-0.578
	c0.225-0.06,0.142,0.2,0.366,0.142c0.088-0.147,0.206-0.271,0.359-0.354c0.572,0.118,1.222-0.354,1.959-0.442
	c0.714-0.082,1.451,0.036,1.971-0.365c0.943-0.054,1.711-0.319,2.825-0.219c0.277-0.384,0.892-0.72,1.375-0.289
	c0.248-0.855,1.304-0.631,2.177-0.867c0.797-0.224,1.269-0.667,1.817-0.95c0.531,0.508,2.248,0.266,2.767,0.148
	c0.13-0.892,1.222-0.933,1.888-0.508c0.449-0.324,0.974-0.195,1.522-0.36c0.785-0.241,1.339-0.825,2.183-0.802
	c0.337,0.012,0.638,0.188,1.015,0.218c0.407-0.218,0.708-0.631,1.233-0.648c0.495-0.029,0.772,0.359,1.168,0.142
	c0.254,0.136,0.354,0.419,0.649,0.507c0.524-0.229,1.162-0.336,1.451-0.796c-0.177-0.236-0.555-0.814-0.502-1.239
	c0.419,0.065,0.632,0.33,0.933,0.508c0.784,0.07,1.197-0.213,1.899-0.213c0.289-0.442,0.236-0.974,0.578-1.239
	c0.354,0.39,1.038,0.727,1.746,0.661c0.36-0.041,0.685-0.507,0.944-0.147c-0.578,0.396-1.457,0.696-2.26,0.938
	c-0.277,0.094-0.79-0.071-0.861,0.371c0.118,0.442,0.448,0.165,0.72,0.142c0.72-0.082,1.228-0.313,1.817-0.513
	c0.307-0.101,0.666-0.106,0.943-0.213c0.685-0.277,1.28-1.003,2.036-0.654c0.177-0.159,0.354-0.325,0.578-0.431
	c0.767-0.207,1.527-0.413,2.105-0.809c0.325,0.266,0.254-0.342,0.366-0.502c-1.191,0.106-2.118,1.21-3.345,0.797
	c0.289-0.714,1.085-0.896,1.599-1.387c0.253,0.195-0.054,0.484,0.218,0.59c0.396-0.147,0.855-0.218,1.162-0.442
	c0.012-0.472,0.266-0.708,0.514-0.938c0.767-0.023,1.463,0.029,1.817,0.431c-0.354,0.289-1.086,0.555-1.086,0.949
	c1.428,0.083,2.248-1.032,3.699-1.168c0.566-0.53,1.351-0.879,2.106-1.162c1.663-0.631,2.99-1.251,4.572-1.959
	c0.902-0.4,1.71-0.949,2.689-1.021c0.337-0.212,0.649-0.46,1.233-0.437c0.95-0.602,2.023-1.445,3.339-1.451
	c0.566-0.454,1.104-1.056,2.035-1.009c0.184-0.342,0.496-0.372,0.578-0.661c0.042-0.123-0.241-0.359,0-0.507
	C348.954,238.096,348.688,237.701,347.774,237.754z"/>
<path fill-rule="evenodd" clip-rule="evenodd" d="M243.681,80.282c0.413,0.277,0.891,0.035,1.021-0.36
	c-0.177-0.159-0.377-0.301-0.578-0.431C244.159,79.939,243.646,79.839,243.681,80.282z"/>
<path fill-rule="evenodd" clip-rule="evenodd" d="M241.433,81.951c0.82,0.048,1.393-0.153,1.6-0.72
	C242.325,81.297,241.563,81.309,241.433,81.951z"/>
<path fill-rule="evenodd" clip-rule="evenodd" d="M296.489,94.594c0.183,0.077,0.241,0.29,0.507,0.29
	c0.549-0.248,0.39-1.357-0.359-1.305C296.447,93.774,296.495,94.205,296.489,94.594z"/>
<path fill-rule="evenodd" clip-rule="evenodd" d="M345.367,230.78c0.637-0.359,1.104-0.891,1.971-1.015
	c0.053-0.254-0.106-0.283-0.071-0.513c-1.168,0.524-3.51-0.118-3.351,1.74C344.441,230.981,344.866,230.592,345.367,230.78z"/>
<path fill-rule="evenodd" clip-rule="evenodd" d="M339.349,233.542c-0.637-0.054-1.115,0.053-1.457,0.283
	c-0.06,0.277,0.082,0.354,0.07,0.578C338.901,234.598,338.989,233.931,339.349,233.542z"/>
<path fill-rule="evenodd" clip-rule="evenodd" d="M341.886,239.058c0.371-0.501,0.271-1.021,0.289-1.888
	c-0.572-0.225-0.903-0.685-1.528-0.867c-0.224,0.283-0.194,0.808-0.289,1.239c0.772-0.143,0.896,0.354,1.168,0.719
	C341.161,238.509,341.491,239.11,341.886,239.058z"/>
<path fill-rule="evenodd" clip-rule="evenodd" d="M328.594,241.966c0.171,0.39,0.714,0.903,1.162,0.584
	c-0.029-0.265-0.177-0.406-0.283-0.584C329.172,241.966,328.883,241.966,328.594,241.966z"/>
<path fill-rule="evenodd" clip-rule="evenodd" d="M300.996,256.633c0.962,0.2,1.817-0.006,2.537-0.142
	c0.79-0.142,1.48-0.384,2.183-0.578c1.711-0.49,3.558-0.82,5.156-1.528c1.274-0.561,2.419-1.28,3.77-1.528
	c1.016-0.602,2.626-1.097,3.788-1.593c0.206-0.082,0.39-0.142,0.578-0.289c0.047-0.041,0.52-0.253,0.219-0.437
	c-0.897,0-1.546,0.661-2.325,0.944c-0.855,0.307-2.082,0.396-2.761,0.726c-0.483,0.23-0.791,0.549-1.239,0.726
	c-0.212,0.083-0.406,0-0.643,0.071c-0.136,0.041-0.354,0.218-0.514,0.289c-0.555,0.271-1.079,0.678-1.604,0.873
	c-1.139,0.431-2.407,0.53-3.628,1.015c-0.289,0.07-0.219-0.219-0.508-0.147c-0.413,0.412-1.386,0.549-1.888,0.731
	c-0.549,0.194-1.233,0.377-1.74,0.437C301.928,256.249,301.067,255.948,300.996,256.633z"/>
<path fill-rule="evenodd" clip-rule="evenodd" d="M301.792,254.751c-0.785,0.536-1.817,0.726-2.832,1.091
	c-1.327,0.472-2.661,0.785-3.994,1.233c-0.194-0.101-0.401-0.177-0.726-0.142c-0.537,0.378-1.31,0.531-1.959,0.79
	c0,0.195,0,0.39,0,0.578c2.095-0.418,4.036-0.979,6.101-1.451c0.85-0.643,2.165-0.826,3.552-0.938
	c0.348-0.184,0.524-0.33,1.015-0.219c-0.213-0.313-0.041-0.354,0.076-0.66C302.588,254.969,302.412,254.639,301.792,254.751z"/>
<path fill-rule="evenodd" clip-rule="evenodd" d="M283.781,256.633c0.153-0.679-1.156-1.54-1.315-0.36
	c0.271,0.289,0.566,0.561,0.66,1.021C283.421,257.028,283.71,256.945,283.781,256.633z"/>
</svg>
