<svg version="1.1" id="Calque_1" xmlns="http://www.w3.org/2000/svg" xmlns:xlink="http://www.w3.org/1999/xlink" x="0px" y="0px"
	 width="432px" height="432px" viewBox="0 0 432 432" enable-background="new 0 0 432 432" xml:space="preserve">
<path fill-rule="evenodd" clip-rule="evenodd" d="M240.107,253.939c0.308-0.313,0.295-0.242,0.649-0.438
	c0.095-0.053,0.147-0.254,0.218-0.295c0.88-0.478,1.652,0.041,2.473,0.295c0.613,0.184,1.174,0.313,1.816,0.508
	c-0.053-0.461,0.308-0.685,0.437-1.021c0.225-0.603,0.254-1.181,0.508-1.67c0.236-0.454,0.566-0.938,1.086-1.162
	c0.507-0.212,0.943-0.13,1.31-0.295c0.229-0.101,0.383-0.313,0.654-0.425c0.248-0.106,0.572-0.118,0.873-0.219
	c0.26-0.105,0.479-0.295,0.731-0.365c0.277-0.095,0.685-0.124,1.016-0.219c0.707-0.2,1.374-0.437,1.958-0.218
	c0.479,0.177,0.768,0.354,1.086,0.584c0.396,0.271,0.826,0.802,1.315,0.938c0.514,0.141,1.228-0.626,1.67-0.721
	c0.212-0.908,0.348-1.888,0.437-2.908c0.188-0.124,0.46-0.177,0.648-0.295c0.266-2.401,1.469-3.864,1.965-6.029
	c0.826-1.063,1.404-2.377,2.254-3.416c0.177-0.2,0.708-0.064,0.726-0.437c-0.13-0.354-0.26-0.708-0.219-1.233
	c-0.2-0.047-0.336-0.146-0.437-0.289c-0.855,0.225-1.362-0.141-2.041-0.295c-0.489-0.802-1.451-1.156-2.101-1.816
	c-0.224,0.105-0.33,0.035-0.507-0.071c-0.425-0.448-0.903-0.59-1.162-1.162c-0.572-1.228,0.053-2.911,0-4.283
	c0.437-0.778,0.46-1.964,0.654-2.979c-0.377-0.838-1.298-1.129-1.74-1.891c-0.784-0.286-1.145-0.988-1.823-1.377
	c-0.1-0.172-0.118-0.414-0.224-0.584c-0.225-0.086-0.502-0.119-0.578-0.363c0.142-0.646-0.378-1.195-0.72-1.599
	c0.041-0.271-0.189-0.458,0-0.652c-0.549-0.298-1.181-0.522-1.458-1.091c-0.406,0.044-0.637-0.083-0.943-0.145
	c-0.891-0.723-1.127-2.118-1.522-3.343c0.372-0.517-0.047-1.044,0.071-1.888c0.159-0.28,0.631-0.398,0.796-0.654
	c0.06-0.086,0.054-0.384,0.147-0.584c0.124-0.254,0.201-0.308,0.225-0.508c0.018-0.301-0.225-0.596-0.225-0.944
	c0.006-0.445,0.308-0.71,0.225-1.159c-1.622-0.085-0.077-1.596,0.142-2.18c0.448-1.228-0.242-1.356-0.514-2.327
	c0.23-0.184,0.566-0.257,0.731-0.508c0.443-1.121-0.648-1.775-1.162-2.398c-2.117-40.479-4.431-80.766-6.536-121.248
	c-0.095-0.006-0.101-0.095-0.219-0.074c-0.07,0.127-0.206,0.186-0.147,0.438c-0.507-0.045-0.46,0.463-0.654,0.725
	c-0.166,0.16,0.07,0.299,0,0.582c-0.283,0.273-0.271,0.752-0.508,1.091c-0.124,0.181-0.39,0.248-0.514,0.434
	c-0.241,0.369-0.295,0.974-0.802,1.018c-0.39-0.112-0.661-0.348-1.009-0.507c-0.419,0.557-1.381,0.174-1.67-0.219
	c-0.654,0.307-1.191,0.118-1.746-0.145c-0.177-0.814-1.015-0.979-1.457-1.527c0.035-0.343-0.018-0.608-0.071-0.873
	c-0.395-0.484-1.079-0.83-1.888-0.508c-0.478,0.442-0.796,1.047-1.599,1.162c-0.165,0.33-0.36,0.504-0.726,0.654
	c-0.289,0.121-0.72-0.037-0.873,0.289c-0.236,0.337,0.218,0.608,0.218,0.947c-0.407,0.416-0.979,0.667-1.38,1.089
	c0.035,0.251,0.194,0.386,0.212,0.655c-0.348-0.133-0.489-0.476-0.867-0.582c-0.2,0.186-0.472,0.295-0.726,0.434
	c-0.188-0.395-1.003-0.669-1.451-0.359c-0.083,0.371,0.313,0.269,0.437,0.434c0.059,0.236,0.26,0.318,0.365,0.508
	c0.531,0.145,0.974,0.38,1.375,0.657c-0.177,0.74-0.336,1.286-0.431,2.104c-0.124,1.021-0.796,1.841-0.944,2.761
	c-0.064,0.371,0.065,0.787,0,1.162c-0.088,0.425-0.56,0.861-0.513,1.381c-0.537,0.527-0.938,1.194-1.304,1.888
	c-0.649,0.257-1.009,0.788-1.381,1.313c0,0.239,0,0.481,0,0.723c-0.053,0.145-0.407-0.018-0.442,0.147
	c0.324,0.23,0.613,0.508,0.731,0.941c-0.413,0.478-0.194,1.067-0.218,1.672c0.454,0.057,1.15-0.135,1.38,0.148
	c-0.26,0.318-0.489,0.669-0.943,0.796c-0.337-0.171-0.596-0.416-0.95-0.581c-0.454,0.194-0.932,0.371-1.381,0.581
	c-0.147,0.451-0.513,0.434-0.507,0.873c0.023,0.784,1.812,1.228,1.232,2.47c-0.105-0.054,0.024-0.354-0.212-0.29
	c-0.077,0.897-0.177,1.575,0.147,2.106c0.213,0.354,0.578,0.496,0.797,0.799c0.241,0.331,0.46,0.549,0.365,1.089
	c-0.266,0-0.537,0-0.802,0c-0.23,0.366-0.219,0.755-0.443,1.092c-0.064,0.106-0.235,0.089-0.354,0.218
	c-0.106,0.112-0.136,0.343-0.225,0.434c-0.241,0.257-0.513,0.352-0.654,0.655c-0.23,0.513-0.213,1.142-0.213,1.891
	c-0.165,0.487-0.749,0.425-0.513,1.162c-0.26,0.101-0.407,0.313-0.649,0.434c0.337,0.628,0.271,1.478-0.147,2.036
	c-0.324,0.07-0.501-0.257-0.72-0.074c-0.613,1.064-1.333,2.018-2.33,2.688c0.619,0.123,0.46,0.784,0.655,1.31
	c0.082,0.229,0.301,0.378,0.365,0.581c0.071,0.244,0.035,0.466,0.071,0.652c0.2,0.466,0.695,0.451,0.943,0.946
	c0.413,0.823-0.018,2.171,0.295,3.194c0.313,0.404,0.844,0.607,1.298,0.873c-0.342,0.729,0.596,1.889,0,2.69
	c0.349,0.614,0.903,2.015,0.083,2.54c-0.502,0.133-1.162,0.101-1.676,0.219c-0.035,0.224-0.324,0.507-0.289,0.725
	c0.083,0.594,1.168,0.867,1.233,1.6c0.053,0.593-0.189,0.52-0.36,0.87c-0.153,0.313-0.266,0.667-0.437,1.021
	c-0.159,0.313-0.277,0.666-0.437,1.015c-0.832,0.286-1.882,0.349-2.183,1.162c0.047,0.298,0.336,0.343,0.365,0.652
	c-0.313-0.098-0.224,0.271-0.365,0.439c-0.112,0.139-0.336,0.197-0.437,0.362c-0.153,0.257-0.112,0.611-0.36,0.8
	c-0.136-0.056-0.053-0.218-0.218-0.073c-0.779,0.772-1.469,1.634-2.466,2.18c-0.603-0.354-1.357,0.262-1.747,0.58
	c-0.377-0.578-1.091-0.079-1.457,0.074c-0.431,0.174-0.908,0.242-1.156,0.434c-0.147,0.442-0.472,0.699-0.802,0.947
	c-0.065,0.737-0.154,1.1-0.077,1.888c-0.914,0.454-1.534,1.121-2.679,1.015c-0.495-0.041-0.867-0.354-1.315-0.359
	c-0.283-0.006-0.726,0.05-1.015,0.218c-0.248,0.139-0.372,0.481-0.584,0.578c-0.372,0.169-0.52,0.021-0.873,0
	c-0.49-0.023-1.688,0.03-2.101,0.145c-0.359,0.104-0.726,0.549-1.162,0.658c-0.39,0.095-0.879-0.157-1.168,0.218
	c-0.089,0.438-0.012,1.047-0.289,1.451c-0.207,0.301-0.803,0.508-1.021,0.508c-0.095,0.578-0.425,0.926-0.508,1.525
	c0.337,0.537,0.277,1.067,0.584,1.672c0.26,0.106,0.566,0.16,0.649,0.434c-0.248,0.499-0.101,1.228-0.283,1.746
	c-0.13,0.337-0.442,0.416-0.514,0.727c0.236,0.495-0.153,0.943-0.212,1.377c0.448,1.201,0.985,2.31,1.232,3.708
	c-0.371,0.64-0.973,0.746-0.873,1.743c0.225,0.145,0.354,0.378,0.502,0.578c0.26-0.292,0.749-0.111,1.021,0.147
	c-0.124,0.478-0.508,0.699-0.437,1.384c-0.508,0.521-0.873,1.201-1.233,1.885c-0.425,0.18-0.708,0.498-1.156,0.655
	c-0.041,0.271,0.225,0.421,0.065,0.584c-0.172,0.289-0.442,0.475-0.72,0.651c0.035,0.305-0.213,0.318-0.147,0.655
	c-0.614,0.006-0.313,0.593-0.726,0.87c0.053,0.666,0.342,1.221,0.07,1.816c0.631,0.23,0.378,1.086,0.225,1.67
	c-0.979,0.156-0.555,1.133-0.732,1.817c-0.117,0.466-0.66,0.679-1.091,1.162c-0.207,0.233-0.266,0.543-0.437,0.726
	c-0.431,0.479-1.092,0.702-1.304,1.236c0.064,0.244,0.13,0.498,0.212,0.726c-0.313,0.269-0.844,0.397-0.943,0.8
	c-0.065,0.277,0.183,0.64,0.218,1.018c0.029,0.318-0.101,0.713-0.07,1.088c0.059,0.758,0.472,1.197,0.142,1.817
	c-0.024,0.165-0.384,0.003-0.437,0.145c-0.349,0.667-0.855,1.177-0.861,2.18c-0.732,0.368-0.968,1.212-1.6,1.673
	c-0.448,0.315-0.943,0.516-1.527,0.726c-0.496,0.643-1.068,1.209-1.457,1.962c-0.154,0.905-0.189,1.867-0.437,2.687
	c-0.095,0.313-0.39,0.603-0.508,0.947c-0.083,0.257-0.053,0.53-0.147,0.726c-0.165,0.348-0.489,0.61-0.726,0.87
	c0.076,0.483-0.159,0.657-0.219,1.015c0.124,0.266,0.189,0.593,0.295,0.876c-0.483,0.876-1.28,1.434-2.253,1.814
	c-0.112,0.885-0.018,1.679-0.147,2.542c-0.095,0.711-0.578,1.275-0.72,1.892c-0.189,0.761,0.318,1.241,0.359,1.962
	c0.023,0.445-0.177,0.879-0.218,1.307c-0.048,0.445,0.041,0.935,0,1.38c-0.101,1.106-0.431,2.178-0.578,3.269
	c0.023,0.139,0.277,0.056,0.218,0.289c-0.359,0.628-1.197,1.755-0.879,2.69c0.136,0.381,0.537,0.377,0.661,0.799
	c-0.933,0.572-0.632,2.01,0,2.688c-0.673,0.555-0.366,1.033-0.584,1.744c-0.083,0.256-0.449,0.616-0.514,0.799
	c-0.041,0.136,0.076,0.23,0,0.363c-0.271,0.472-1.009,0.752-1.156,1.162c-0.188,0.51,0.023,0.979,0.142,1.454
	c-0.295,0.442-0.384,1.356-0.219,2.035c-0.165,0.269-0.318,0.552-0.507,0.796c-0.048,0.293,0.188,0.293,0.147,0.582
	c-0.466,0.507-0.266,1.678-0.437,2.469c0.206,0.133,0.277,0.401,0.437,0.584c0.124,0.139,0.507,0.029,0.507,0.292
	c0.042,0.575-0.029,0.835,0.142,1.307c-0.241,0.307-0.442,0.673-0.584,1.086c0.225,0.365,0.531,0.53,0.514,0.943
	c-0.012,0.378-0.607,0.874-0.655,1.169c-0.183,0.105-0.266,0.271-0.507,0.141c0.153,0.508-0.437,0.596-0.508,1.086
	c-0.035,0.225,0.188,0.59,0.219,0.949c0.041,0.438-0.089,0.809,0,1.092c0.159,0.531,0.767,0.744,0.873,1.156
	c-0.136,0.307-0.561,0.318-0.731,0.584c-0.065,0.384,0.088,0.826-0.065,1.162c-0.283,0.603-1.274,0.626-1.746,1.016
	c-0.26,0.023-0.266-0.213-0.514-0.213c-0.359,0.696-1.439,0.648-1.521,1.676c-0.023,0.248,0.183,0.555,0.218,0.861
	c0.095,0.826-0.064,1.545-0.218,2.035c-0.236,0.768-0.437,1.186-1.092,1.457c-0.177,0.72-0.348,1.552-0.218,2.324
	c0.053,0.277,0.289,0.543,0.365,0.873c0.189,0.844,0.124,1.865,0.437,2.473c0.384,0.761,1.315,0.979,1.528,1.74
	c-0.242,0.354-0.448,1.063,0,1.31c0.478-0.029,0.613-0.407,1.086-0.437c0.584,0.283,0.542,0.95,0.796,1.522
	c0.219,0.478,0.644,0.802,0.803,1.239c2.029,0.206,4.483-0.065,6.825,0.218c0.308,0.029,0.561,0.177,0.879,0.206
	c0.579,0.065,1.245,0.077,1.812,0.077c6.584,0,13.622,0.342,20.637,0.655c8.23,0.377,16.896,0.637,25.274,1.02
	c1.463,0.065,3.269,0.378,4.654,0.148c0.879-0.148,1.127-0.896,1.522-1.534c0.313-0.489,0.619-0.938,0.943-1.375
	c1.292-0.613,2.496,0.219,3.788,0.437c0.006-1.215-0.36-2.489-0.295-3.563C239.199,254.782,239.766,254.27,240.107,253.939z"/>
</svg>
