<?xml version="1.0" encoding="utf-8"?>
<!-- Generator: Adobe Illustrator 16.0.0, SVG Export Plug-In . SVG Version: 6.00 Build 0)  -->
<!DOCTYPE svg PUBLIC "-//W3C//DTD SVG 1.1//EN" "http://www.w3.org/Graphics/SVG/1.1/DTD/svg11.dtd">
<svg version="1.1" id="Calque_1" xmlns="http://www.w3.org/2000/svg" xmlns:xlink="http://www.w3.org/1999/xlink" x="0px" y="0px"
	 width="432px" height="432px" viewBox="0 0 432 432" enable-background="new 0 0 432 432" xml:space="preserve">
<path fill-rule="evenodd" clip-rule="evenodd" d="M369.948,109.852c0.13,0.308,0.442,0.531,0.524,0.867
	c0.071,0.289-0.035,0.638,0,0.956c0.048,0.413,0.271,0.891,0.343,1.393c0.147,0.991,0.153,1.469,0.696,1.917
	c0.053,0.496,0.253,0.844,0.437,1.21c0.147,1.492,1.038,2.648,0.873,4.171c0.377,0.348,0.72,0.985,0.519,1.651
	c1.771,2.112,2.266,5.499,2.608,9.038c0.654,0.649,1.527,1.08,1.734,2.172c-0.603,0.117-0.437-0.543-1.039-0.431
	c-0.772,0.855,0.673,1.209,1.298,1.475c0.502,0.832,1.257,1.416,2.172,1.823c0.142,0.59,0.354,1.103,0.702,1.48
	c-0.118,0.496,0.224,0.525,0.171,0.956c0.07,0.365-0.171,0.407-0.171,0.696c0.648,0.737,0.743,2.035,1.386,2.784
	c0.171,0.342,0.118,0.396,0.177,0.784c0.484,0.289,0.614,0.95,1.305,1.039c0.466-1.34-0.319-2.035-0.785-3.133
	c-0.46-1.08-0.861-2.106-1.044-3.387c-0.354-0.342-0.749-0.637-1.127-0.955c0.136-0.702-0.561-1.311-0.696-1.912
	c-0.118-0.52-0.153-0.855-0.348-1.133c-0.254-0.365-0.726-0.483-1.045-0.778c-0.253-0.242-0.224-0.638-0.607-0.696
	c-0.106-1.918-0.861-2.932-1.475-4.26c-0.177-0.359-0.219-0.737-0.354-1.127c-0.33-0.984-0.72-1.77-1.038-2.613
	c-0.431-1.127-0.873-2.212-1.215-3.298c-0.189-0.578-0.455-1.115-0.608-1.651c-0.177-0.591-0.153-1.34-0.348-1.994
	c-0.089-0.307-0.301-0.566-0.349-0.873c-0.088-0.561,0.083-1.115,0-1.652c-0.047-0.283-0.271-0.59-0.348-0.873
	c-0.271-0.991-0.442-1.752-0.613-2.607c-0.153-0.797-0.283-1.641-0.425-2.431c-0.407,0-0.814,0-1.228,0
	c-0.2,0.542-0.177,0.813-0.082,1.133C369.966,109.64,369.906,109.746,369.948,109.852z"/>
<path fill-rule="evenodd" clip-rule="evenodd" d="M369.948,112.802c0.142-0.13,0.253-0.396-0.089-0.425
	C369.747,112.478,369.729,112.796,369.948,112.802z"/>
<path fill-rule="evenodd" clip-rule="evenodd" d="M371.683,118.631c-0.165,0.507,0.142,1.232,0.613,1.392
	C372.325,119.32,372.09,118.891,371.683,118.631z"/>
<path fill-rule="evenodd" clip-rule="evenodd" d="M372.036,120.631c-0.271-0.112-0.431-0.325-0.696-0.442
	c0.083,0.235,0.189,0.454,0.26,0.702C371.824,120.878,372.048,120.872,372.036,120.631z"/>
<path fill-rule="evenodd" clip-rule="evenodd" d="M371.865,121.846c0.041-0.313-0.106-0.419-0.183-0.613c-0.171,0-0.343,0-0.52,0
	C371.163,121.651,371.635,121.94,371.865,121.846z"/>
<path fill-rule="evenodd" clip-rule="evenodd" d="M380.986,141.751c-0.39-0.926-0.071-2.023-0.431-2.962
	c-1.363-0.891-2.508-2.283-4.437-2.342c0.489,0.613,0.637,1.558,1.392,1.912c0.431,1.203,1.858,1.828,1.393,3.651
	C379.34,142.949,380.785,142.713,380.986,141.751z"/>
<path fill-rule="evenodd" clip-rule="evenodd" d="M386.897,152.005c-0.012-0.136-0.225-0.065-0.183-0.266
	c-0.136-1.534-0.266-3.092-0.855-4.165c-0.065-0.354,0.218-0.354,0.171-0.702c-0.685-0.909-1.009-2.177-1.829-2.95
	c-0.142,0.178-0.295,0.343-0.607,0.343c0.371,0.46,0.483,0.902,0.696,1.48c0.059,0.159,0.2,0.283,0.26,0.431
	c0.129,0.348,0.129,0.743,0.259,1.044c0.101,0.23,0.283,0.301,0.349,0.525c0.142,0.46,0.064,0.979,0.177,1.48
	c0.095,0.454,0.401,0.921,0.525,1.387c0.229,0.956,0.2,1.894,0.431,2.778c-0.431,1.346-0.731,2.809-0.614,4.696
	c-0.737,1.546-0.241,3.977-1.215,5.387c0.064,0.466-0.064,0.743-0.171,1.044c0.348,0.289-0.065,0.855,0.171,1.31
	c-0.448,0.561-0.295,1.28-1.038,1.646c-0.661,0.318-1.641,0.07-2.525,0.348c-0.23,0.236-0.407,0.514-0.52,0.867
	c-0.495,0.118-0.849,0.366-1.221,0.608c-0.36-0.013-0.726-0.03-0.867,0.171c-0.301-0.283-0.902-0.69-1.304-0.603
	c0.059,0.979-1.032,1.257-1.298,2.172c1.056,0.406,2.295-0.407,3.038-0.873c1.015-0.06,2.472-0.861,3.475-0.867
	c0.324,0,0.661,0.241,0.962,0.265c0.384,0.019,0.685-0.301,1.038-0.094c0.407-0.537,0.39-1.28,0.52-1.994
	c0.136-0.702,0.396-1.381,0.524-2.089c0.136-0.772,0.065-1.563,0.172-2.342c0.153-1.104,0.926-2.13,0.613-3.222
	c0.13-0.431,0.437-0.772,0.52-1.209c0.1-0.584-0.178-1.15-0.178-1.74c0-0.236,0.147-0.514,0.178-0.785
	c0.029-0.295-0.036-0.59,0-0.867c0.053-0.425,0.318-1.091,0.348-1.304C386.968,153.303,386.845,152.659,386.897,152.005z"/>
<path fill-rule="evenodd" clip-rule="evenodd" d="M340.309,163.303c-0.012,0.389,0.396,0.359,0.784,0.348
	C341.104,163.255,340.704,163.291,340.309,163.303z"/>
<path fill-rule="evenodd" clip-rule="evenodd" d="M355.087,164.518c0.035,0.407-0.029,0.726-0.089,1.044
	c0.318,0.03,0.484,0.213,0.779,0.266c0.023-0.466-0.089-0.524,0-0.873C355.535,164.818,355.417,164.57,355.087,164.518z"/>
<path fill-rule="evenodd" clip-rule="evenodd" d="M379.246,166.347c0.194-0.283,0.059-0.826-0.343-0.785
	C378.686,165.939,378.963,166.211,379.246,166.347z"/>
<path fill-rule="evenodd" clip-rule="evenodd" d="M380.378,165.733c-0.212,0.053-0.448,0.076-0.437,0.348
	C380.195,166.075,380.432,166.046,380.378,165.733z"/>
<path fill-rule="evenodd" clip-rule="evenodd" d="M378.467,166.512c0.06-0.26-0.095-0.313-0.082-0.514
	c-0.219-0.012-0.425-0.012-0.525,0.083C377.877,166.411,378.213,166.417,378.467,166.512z"/>
<path fill-rule="evenodd" clip-rule="evenodd" d="M348.745,171.037c0.171,0.241,1.021,0.241,1.304,0.088
	c-0.165-0.188-0.266-0.431-0.431-0.607c-0.236,0-0.467,0-0.702,0C349.034,170.865,348.728,170.789,348.745,171.037z"/>
<path fill-rule="evenodd" clip-rule="evenodd" d="M371.423,172.341c-0.283,0.177-0.638,0.365-0.95,0.519
	c-1.15,0.555-2.012,1.162-3.127,1.563c-0.147-0.112-0.295-0.224-0.613-0.171c-0.283,0.064-0.377,0.318-0.607,0.431
	c0.07,0.974-0.566,1.245-0.69,2c0.832,0.242,1.074-0.578,1.469-0.956c0.277-0.253,0.726-0.425,1.133-0.695
	c0.549-0.366,0.933-0.903,1.652-0.874c1.009-0.619,2.235-1.368,3.475-1.816c0.708-0.26,1.534-0.36,1.911-1.045
	c-0.454-0.371-0.885,0.26-1.392,0.349C372.597,171.049,372.001,171.98,371.423,172.341z"/>
<path fill-rule="evenodd" clip-rule="evenodd" d="M362.909,176.683c-0.336,0.194-0.354,0.619-0.524,0.956
	c-0.295,0.59-1.038,1.009-1.127,1.48c0.225,0.124,0.613,0.083,0.784,0.26c0.909-0.885,2.136-1.457,2.867-2.525
	c-0.483-0.012-0.867-0.342-1.221-0.342C363.535,176.512,363.021,176.618,362.909,176.683z"/>
<path fill-rule="evenodd" clip-rule="evenodd" d="M354.65,180.163c0.26,0,0.519,0,0.784,0c0.042-0.507-0.194-0.737-0.437-0.961
	C354.939,179.579,354.757,179.833,354.65,180.163z"/>
<path fill-rule="evenodd" clip-rule="evenodd" d="M356.131,181.119c0.225-0.242,0.466-0.46,0.52-0.873
	c-0.171-0.236-0.396-0.413-0.696-0.525c0.124,0.62-0.248,0.743-0.342,1.139C355.789,180.937,355.859,181.119,356.131,181.119z"/>
<path fill-rule="evenodd" clip-rule="evenodd" d="M360.473,181.03c0.219-0.194,0.277-0.536,0.438-0.784
	c-0.236-0.053-0.366-0.219-0.608-0.26C360.084,180.27,360.013,180.96,360.473,181.03z"/>
<path fill-rule="evenodd" clip-rule="evenodd" d="M357.605,183.201c0.968-0.301,1.458-1.097,2.172-1.651
	C358.621,180.683,357.907,182.193,357.605,183.201z"/>
<path fill-rule="evenodd" clip-rule="evenodd" d="M356.562,184.594c0.318-0.318,0.531-0.755,0.873-1.038
	c-1.315-0.289-1.793,0.974-2.266,1.823C355.789,185.373,356.237,184.918,356.562,184.594z"/>
<path fill-rule="evenodd" clip-rule="evenodd" d="M354.91,185.897c-0.018-0.07-0.071-0.1-0.172-0.088
	c-1.279,0.342-1.533,1.711-2.695,2.171c-0.543,0.879-1.222,1.622-2.172,2.088c-0.088,0.867-0.831,1.086-1.392,1.476
	c-0.13,0.313,0.295,0.053,0.266,0.266c-0.331,0.542-0.39,1.351-1.133,1.475c-0.49,1.546-1.888,2.165-2,4.089
	c-0.313,0.177-0.52,0.46-1.038,0.43c-0.136,0.715,0.448,0.708,0.519,1.216c0.502-0.159,0.838-0.667,0.69-1.216
	c1.274-1.622,2.07-3.729,3.651-5.038c0.289-0.991,1.163-1.397,1.481-2.348c0.241-0.165,0.425-0.39,0.696-0.525
	c-0.106-0.359,0.183-0.336,0.171-0.602C352.81,188.134,354.202,187.361,354.91,185.897z"/>
<path fill-rule="evenodd" clip-rule="evenodd" d="M338.226,193.721c-0.33-0.041-0.991-0.525-1.304-0.348
	c-0.772,0.431-1.835,0.047-2.69,0.171c-0.654,0.101-1.327,0.437-2,0.524c-0.85,0.106-1.321,0.16-2,0.26
	c-0.419,0.065-0.843,0.012-1.221,0.089c-0.194,0.035-0.225,0.194-0.431,0.26c-0.213,0.059-0.49,0.029-0.696,0.088
	c-0.425,0.112-0.82,0.177-1.215,0.26c-1.328,0.26-3.003,0.413-3.305,1.48c0.473,0.354,0.968-0.111,1.393-0.265
	c0.82-0.319,1.67-0.555,2.52-0.785c1.032-0.277,2.094-0.454,3.215-0.607c0.702-0.089,1.546-0.248,2.171-0.266
	c1.003-0.012,1.9-0.242,2.867-0.342c1.458-0.147,3.086,0.094,4.266,0.088C339.665,193.721,338.857,193.556,338.226,193.721z"/>
<path fill-rule="evenodd" clip-rule="evenodd" d="M343.441,193.721c0.365,0.33,0.737,0.648,1.392,0.696
	C344.774,193.833,343.848,192.871,343.441,193.721z"/>
<path fill-rule="evenodd" clip-rule="evenodd" d="M340.745,194.677c0.377,0.425,1.257,0.755,1.823,0.69
	C342.291,194.918,341.288,193.762,340.745,194.677z"/>
<path fill-rule="evenodd" clip-rule="evenodd" d="M345.358,196.322c-0.307-0.324-1.05-0.602-1.486-0.52c0,0.089,0,0.178,0,0.26
	c0.695,0.065,0.908,0.608,1.397,0.873C345.14,196.553,345.564,196.535,345.358,196.322z"/>
<path fill-rule="evenodd" clip-rule="evenodd" d="M321.022,197.373c0.702,0.029,1.156-0.172,1.216-0.785
	C321.624,196.316,321.271,196.989,321.022,197.373z"/>
<path fill-rule="evenodd" clip-rule="evenodd" d="M319.111,198.588c0.643-0.083,1.127-0.318,1.127-1.044
	c-0.514,0.076-0.838,0.324-1.216,0.519C319.005,198.281,319.005,198.487,319.111,198.588z"/>
<path fill-rule="evenodd" clip-rule="evenodd" d="M318.238,198.499c-0.142,0.142,0.029,0.343,0.088,0.52
	c0.236,0.064,0.171-0.171,0.343-0.171C318.657,198.605,318.516,198.476,318.238,198.499z"/>
<path fill-rule="evenodd" clip-rule="evenodd" d="M313.453,202.842c0.543-0.413,1.127-0.791,1.393-1.476
	c-0.006-0.111-0.023-0.206-0.171-0.171c-0.437,0.407-1.003,0.679-1.481,1.038c-0.241,0.189,0.166,0.479-0.171,0.52
	c-2.708,0.514-4.79,1.646-6.519,3.133c-0.165,0.124-0.153,0.425-0.26,0.607c-0.638,0.136-1.009,0.696-1.569,1.038
	c-0.731,0.467-1.77,0.714-1.994,1.741c0.419,0.029,0.696-0.184,1.044,0c0.248-0.207,0.531-0.396,0.867-0.52
	c0.337-0.879,1.21-1.228,1.741-1.905c0.737-0.349,1.256-0.95,1.911-1.398c0.549-0.366,1.145-0.479,1.74-0.779
	c0.431-0.218,0.778-0.637,1.216-0.873C311.913,203.42,312.71,203.201,313.453,202.842z"/>
<path fill-rule="evenodd" clip-rule="evenodd" d="M302.327,210.057c0-0.147,0-0.283,0-0.431c-0.271,0.071-0.437,0.254-0.603,0.431
	C301.926,210.057,302.126,210.057,302.327,210.057z"/>
<path fill-rule="evenodd" clip-rule="evenodd" d="M299.984,211.709c0.266,0.053,0.23,0.406,0.525,0.442
	c0.159-0.407,0.348-0.756,0.69-0.968c-0.136-0.26-0.048-0.755-0.431-0.779c-0.159,0.201-0.366,0.372-0.172,0.696
	C300.38,211.296,300.097,211.42,299.984,211.709z"/>
<path fill-rule="evenodd" clip-rule="evenodd" d="M298.51,214.316c0.188-0.077,0.283-0.295,0.437-0.525
	c0.336-0.514,1.073-1.552,0.602-2.165c-0.13,0.619-0.613,0.885-0.861,1.387C299.188,213.414,298.197,213.856,298.51,214.316z"/>
<path fill-rule="evenodd" clip-rule="evenodd" d="M297.206,215.101c0.206,0,0.401,0,0.607,0
	C297.938,214.34,297.171,214.576,297.206,215.101z"/>
<path fill-rule="evenodd" clip-rule="evenodd" d="M297.466,215.36c-0.166-0.095-0.413-0.106-0.603-0.177
	c-0.377,0.731-0.955,1.251-0.873,2.431C296.599,216.982,296.976,216.115,297.466,215.36z"/>
<path fill-rule="evenodd" clip-rule="evenodd" d="M294.681,220.481c0.566-0.614,0.826-1.552,1.31-2.254
	c-0.241-0.077-0.359-0.277-0.696-0.26c0.089,0.49-0.295,0.52-0.177,1.045c-0.902,0.891-1.404,2.183-1.475,3.905
	C294.415,222.534,294.486,221.449,294.681,220.481z"/>
<path fill-rule="evenodd" clip-rule="evenodd" d="M289.643,233.785c0.602-0.242,0.867-0.649,1.044-1.222
	c0.171-0.519,0.13-0.885,0.26-1.475c0.213-0.921,0.767-1.646,1.038-2.349c0.425-1.056,0.49-2.041,0.702-3.126
	c0.36-0.508,0.726-1.015,0.956-1.652c-0.313-0.095-0.514-0.301-0.613-0.607c-0.59,0.194-0.855,0.277-1.216,0.778
	c0.13,1.027-0.218,2.018,0,2.614c-0.82,0.796-0.625,2.613-1.651,3.215c-0.437-0.041-0.603,0.2-0.867,0.342
	c0.348,0.814-0.591,1.033-0.603,1.658c-0.012,0.23,0.301,0.33,0.172,0.696c0.406-0.006,0.489,0.318,0.695,0.513
	C289.442,233.431,289.472,233.62,289.643,233.785z"/>
<path fill-rule="evenodd" clip-rule="evenodd" d="M84.271,180.163c1.782-0.064,3.499-0.177,5.222-0.177
	c0.837,0,1.935,0.201,2.689,0.089c0.991-0.147,2.054-0.649,3.045-0.956c3.097-0.95,6.123-2.006,9.126-2.867
	c0.26,0.318,0.968,0.183,0.873,0.867c0.502-0.13,0.756-0.514,1.039-0.867c3.103-1.298,5.616-3.05,9.044-3.823
	c0.271-0.047,0.307,0.159,0.602,0.083c0.254-0.089,0.336-0.366,0.525-0.52c0.271,0.271,0.784,0.307,1.121,0.52
	c0.282-0.277,0.495-0.607,0.873-0.779c0.348-0.631,0.708-1.279,1.298-1.568c0.359-0.065,0.023,0.566,0.442,0.442
	c16.932,0.796,34.206,1.704,50.843,2.513c0.389,0.896,1.469,1.54,1.475,2.525c-0.372-0.153-0.82-0.23-1.215-0.349
	c-0.479,0.597-0.331,1.315-0.343,2.083c0.354,0.188,0.59,0.501,1.038,0.613c1.428-0.602,2.378-1.688,3.741-2.348
	c2.088,2.136,3.828,4.619,5.734,6.949c-0.077,2.077-0.331,3.959-0.52,5.912c14.153,0.153,27.675,0.466,41.887,0.607
	c-0.059,0.555,0.147,0.838,0.083,1.387c0.431,0.006,1.622,0.076,2.171-0.083c0.454,0.271,0.885,0.566,1.487,0.696
	c5.126,5.475,10.767,10.66,15.899,15.994c0.412,0.424,0.896,0.784,1.304,1.209c0.53,0.561,0.914,1.221,1.48,1.74
	c0.584,0.543,1.092,1.086,1.651,1.652c0.88,0.885,1.936,1.593,2.779,2.524c5.982,6.566,12.561,12.501,18.772,18.767
	c1.174-0.879,3.186-0.684,4.52-1.393c0.483-0.253,0.707-0.678,1.126-0.955c0.543,0.301,1.139,0.543,1.741,0.784
	c0.542-0.153,0.637-0.749,1.126-0.955c1.316-0.384,2.319,0.035,3.222,0.171c0.336,0.053,0.72,0.094,1.044,0.094
	c0.885,0,1.499-0.412,2.083-0.442c0.666-0.035,1.546,0.266,2.26,0.442c0.767,0.184,1.492,0.443,2.348,0.343
	c0.23-0.194-0.13-0.437,0.082-0.607c0.479-0.26,1.239-0.52,1.652-0.956c0.324-0.336,0.778-1.156,0.873-1.658
	c0.089-0.437-0.047-0.932,0-1.38c0.012-0.207,0.147-0.425,0.171-0.614c0.165-1.168-0.094-2.259,0.089-2.955
	c-0.667,0.165-1.145,0.236-1.398-0.342c0.153-0.508,0.195-1.44,0.266-1.741c0.52-0.018,1.032-0.047,1.133,0.349
	c-0.147,0.377-0.171,0.873-0.349,1.221c0.549,0.508,1.947,1.771,2.172,0.172c0.018,0.152-0.089,0.43,0.171,0.342
	c0.578-0.933,0.908-2.118,1.133-3.387c0.318-0.495,0.543-1.073,0.607-1.829c0.336-0.094,0.448-0.425,0.784-0.519
	c0.52-1.245,1.476-2.06,2.083-3.216c0.761-0.177,0.85-1.009,1.31-1.475c0.06-0.324-0.153-0.372-0.095-0.696
	c1.222-0.377,1.889-1.521,2.696-2.171c0.13-0.112,0.39-0.136,0.525-0.266c0.236-0.212,0.354-0.572,0.607-0.778
	c0.454-0.378,1.109-0.59,1.563-0.956c0.159-0.13,0.219-0.313,0.349-0.437c0.478-0.454,1.073-0.578,1.563-0.956
	c0.756-0.572,1.151-1.616,2.178-1.828c0.224-0.419,0.549-0.886,0.955-0.95c0.814-0.136,1.658-0.561,2.431-0.962
	c0.307-0.165,0.319,0.042,0.608,0.089c0.177-0.313,0.46-0.52,0.867-0.602c0.082-0.473,0.153-0.956,0.259-1.398
	c-0.602-0.814-1.97-0.867-2.431-1.823c0.166-0.39,0.396-0.708,0.608-1.044c0.542,0.466,1.15,0.307,1.651-0.083
	c0.372,0.26,0.401,0.838,0.26,1.387c0.46,0.236,0.902,0.489,1.393,0.696c-0.071,0.324-0.514,0.537-0.177,0.784
	c0.478,0.508,0.802-0.029,1.392-0.088c-0.053,0.313-0.678,0.359-0.431,0.696c0.809,0.4,1.162-0.461,1.558-0.867
	c0.396-0.407,1.222-0.82,0.956-1.481c-0.903,0.283-1.269,1.109-1.994,1.563c0.448-1.145,1.209-1.971,2.607-2.171
	c0.696-0.566,1.393-1.251,2.083-1.734c0.678-0.466,1.38-1.505,1.911-1.652c0.318-0.088,0.908,0.03,1.393,0
	c0.844-0.064,1.428-0.313,2.088,0c0.543-0.277,1.092-0.542,1.646-0.784c0.555-0.236,1.109-0.596,1.657-0.785
	c0.207-0.07,0.514,0.006,0.773-0.082c0.212-0.071,0.413-0.295,0.613-0.349c0.384-0.105,0.926-0.171,1.31-0.177
	c0.165-0.006,0.349,0.159,0.52,0.177c1.292,0.095,2.902-0.188,4.171,0c0.413,0.06,0.79,0.289,1.215,0.26
	c0.673-0.053,1.28-0.607,1.912-0.613c0.07,0.974,1.339,1.269,2.082,1.044c0.561-0.844-0.094-2.495,0.442-3.209
	c0.543,0.082,0.814-0.106,1.21-0.178c0.442,0.979-0.407,1.192-0.343,1.912c0.118,1.362,1.994,0.838,3.21,0.873
	c0.171-0.896-0.188-1.321-0.343-2.095c0.479-0.59,0.549-1.587,1.652-1.558c-0.053,0.597-0.85,0.873-0.696,1.387
	c1.321,0.496,1.717-1.581,2.171-2.342c0.514-0.867,1.109-1.505,2.26-1.563c0.442-0.483,1.05-0.803,1.734-1.044
	c0.147-0.467,0.508-0.721,0.696-1.133c0.059-0.378-0.431-0.201-0.342-0.608c0.271-0.359,0.536-0.737,1.126-0.784
	c0.213-0.49,0.708-0.578,0.696-1.127c-0.006-0.283-0.111-0.2-0.348-0.525c-0.349-0.472-0.448-0.855-0.956-0.772
	c-0.012-0.549-0.419-0.69-0.519-1.139c0.07-0.271,0.572-0.118,0.519-0.513c-0.519-0.308-1.457-0.62-1.911-0.702
	c-0.349,1.569,1.015,2.171,1.393,3.31c-0.714-0.166-1.187-0.561-2.178-0.437c-0.259,0.313-0.4,0.761-0.778,0.949
	c-0.572-0.183-1.339-0.165-1.304-0.949c0.442-0.271-0.012-0.52,0.266-1.045c-0.378-0.85-0.277-1.681-0.354-2.873
	c-0.495-0.047-1.091-0.383-1.386-0.348c0,0.289,0,0.584,0,0.867c-0.124,0.206-0.508,0.142-0.696,0.266
	c-0.225,0.702-0.372,1.48-0.873,1.911c-0.685-0.377-1.765,0.077-2.254,0.437c-1.003-0.095-2.112,0.442-3.31,0.437
	c-0.679,0.413-1.375,1.098-2.083,1.21c-0.507,0.478-0.737,1.15-1.392,1.304c-1.381,0.336-3.003-0.956-4.349-0.602
	c-0.419-0.178-0.838-0.655-1.387-0.443c-0.79-0.767-1.84-1.279-2.784-1.905c-0.307-0.229-0.472,0.171-0.696,0
	c-0.365-1.663-1.244-3.269-1.734-4.519c1.133,0.2,1.622,1.038,2.348,1.646c0.201,0,0.401,0,0.608,0
	c0.696,0.596,1.546,1.428,2.519,2.171c0.396,0.313,0.933,0.52,1.476,0.873c0.955,0.626,1.015,1.074,2.177,0.785
	c0.301-0.077,0.702-0.112,0.867-0.171c0.908-0.343,1.475-1.274,2.437-1.487c1.121-1.28,2.85-1.952,4.519-2.689
	c-0.029-0.531-0.183-0.927-0.354-1.305c0.384-0.33,0.661-0.66,1.221-0.602c0.407-0.672,0.886-1.269,1.133-2.094
	c-0.348-0.266-0.896-0.319-1.31-0.52c-0.313,0.153-0.413,0.508-0.772,0.607c-0.225-0.212-0.572-0.301-0.785-0.52
	c-0.301-0.076-0.749-0.006-0.784-0.354c0.619-0.508,1.286-0.968,1.994-1.381c0.66,0.219,1.516,0.673,2.26,0.525
	c0.206-0.749-0.419-1.215-0.69-1.746c0.731-0.171,1.238-0.555,1.911-0.779c0.177-0.4,0.349-0.808,0.956-0.784
	c-0.36-0.602-0.207-1.711-1.044-1.823c-0.065-0.266,0.235-0.171,0.177-0.431c-1.245-0.743-3.511-1.386-5.133-0.702
	c-0.33-0.997-1.616-1.044-2.602-1.392c-0.13,0.088-0.861,0.307-1.051-0.178c0.065-0.188,0.603,0.083,0.525-0.253
	c-0.419-0.396-0.979-0.584-1.563-0.785c-0.867-0.301-1.469-0.643-2.342-0.784c-0.531-0.437-1.15-1.032-1.829-1.298
	c-0.295-0.118-0.679-0.065-0.956-0.172c-0.501-0.2-0.867-0.772-1.392-0.873c-0.62-0.117-1.398,0.219-2.089,0.26
	c-0.106-0.466-0.572-0.59-0.525-1.215c-0.206-0.254-0.949-0.349-0.772-0.696c0.425,0.318,0.968,0.165,1.387,0.26
	c1.097,0.253,1.982,0.802,3.127,0.955c0.625,0.083,1.386-0.059,2.006,0.083c0.613,0.159,1.126,0.855,1.822,1.133
	c1.398,0.561,2.873,0.26,4.343,0.524c0.672,0.638,2.307,1.387,3.475,0.696c-0.283-1.315-0.72-2.466-0.867-3.917
	c-0.448-0.33-0.596-0.962-0.867-1.469c0.472-0.225,0.949-0.448,1.209-0.873c0.69,0.018,1.292,0.478,1.746,0.524
	c0.655,0.054,1.28-0.419,2-0.177c0.248-0.106,0.525-0.631,0.779-0.437c-0.018,0.561-0.036,0.974-0.089,1.304
	c-1.139,0.483-2.932-0.106-4.082,0.437c0.406,0.72,1.097,1.445,0.873,2.514c0.313,0.266,0.419,0.743,0.955,0.784
	c0,0.466,0,0.933,0,1.393c0.277,0.194,0.597,0.578,1.039,0.348c0.448,0.396,0.932,0.755,1.569,0.956
	c0.33-0.101,0.183-0.673,0.513-0.785c0.313,0.036,0.219,0.242,0.525,0.089c0.543-0.643,0.908-1.463,1.74-1.817
	c0.378,0.219,0.236,0.979,0.26,1.558c0.313,0.36,0.437,0.892,0.867,1.133c0.572-0.183,0.685-0.819,1.221-1.044
	c0.626,1.021,1.505,1.793,2.608,2.348c0.271-0.33,0.431-0.784,0.778-1.044c0.696,0.478,2.064,1.882,3.038,1.044
	c0.289,0.029,0.177,0.467,0.525,0.431c1.032-0.679,2.194-1.221,3.386-1.734c0.184-0.667,0.16-1.522,0.349-2.171
	c0.442-0.165,1.162-0.059,1.746-0.089c0.153-0.183,0.053-0.637,0.083-0.955c0.437-0.23,0.59-0.743,0.69-1.304
	c0.448-0.366,0.578-1.057,1.48-0.962c0.248-0.508-0.655-0.537-0.607-1.127c0.678-0.307,0.997-0.974,1.822-1.127
	c0.307-0.448,0.661-0.855,0.956-1.304c0.112-0.236,0.543-0.153,0.613-0.437c0.06-0.637-0.124-1.511,0.083-2
	c0.891,1.133,1.516,2.572,3.823,2c0.454-0.914,1.232-1.498,2-2.089c-0.06-1.628-1.605-2.212-1.476-3.734
	c0.448-0.053,0.785,0.023,1.045,0.178c-0.048,0.295,0.029,0.483,0.088,0.689c0.472,0.083,0.861,0.242,1.475,0.178
	c-0.064-0.927-0.654-1.759-0.867-2.696c-0.088-0.39-0.053-0.896-0.183-1.298c-0.082-0.277-0.242-0.354-0.26-0.613
	c-0.023-0.496,0.271-0.979,0.26-1.481c0-1.304-0.495-1.994-0.861-2.95c-0.218-0.578-0.365-1.268-0.607-1.74
	c-0.207-0.383-0.702-0.619-0.613-1.133c-0.685-0.701-1.476-1.297-2.431-1.734c-0.308,0.289-0.655,0.03-0.867,0.089
	c-1.092,0.908-1.889,2.112-3.652,2.348c-0.442,0.974-0.896,2.118-0.956,3.387c-0.018,0.301,0.172,0.555,0.172,0.873
	c0,0.13-0.154,0.431-0.172,0.602c-0.047,0.52,0.03,1.086,0,1.569c-0.047,0.773-0.247,1.233-0.348,1.734
	c-0.266,1.393-0.142,2.632-0.607,3.569c-0.295,0.165-0.737,0.189-0.785,0.603c-0.235-0.195-0.483-0.384-0.696-0.603
	c0.23-0.359,0.461-0.702,0.614-1.133c-0.773-0.419-0.62-1.108-0.614-2.088c0.012-1.947-0.313-3.888-0.348-5.393
	c0.495-0.85,1.422-2.064,0.437-2.949c0.313-0.502,0.885-0.737,1.215-1.216c-0.064-0.437-0.111-0.648,0.095-0.955
	c-0.584-0.296-1.067-0.679-1.486-1.127c-1.558-0.225-3.346-0.438-5.044-0.266c-1.169,0.117-2.036,0.761-3.039,0.784
	c-0.354,0.366-0.902,0.537-1.298,0.867c-0.714,0.042-1.079,0.425-1.48,0.779c-0.478-0.071-0.838-0.254-1.387-0.26
	c-0.442-0.602-0.69-1.398-1.392-1.734c-1.528,0.643-3.387,0.956-4.785,1.734c-2.266,0.142-4.401,0.448-6.772,0.26
	c-0.165-0.236-0.39-0.425-0.525-0.696c0.454-0.726,1.228-1.15,1.569-1.994c-0.177-0.378-0.708-0.396-0.873-0.785
	c-0.142-0.277-0.047-0.472,0-0.784c-1.145-1.457-1.139-4.071-2-5.817c0.301-1.268,0.207-3.298,1.304-3.651
	c0.407,1.292-0.283,2.561-0.171,3.734c0.018,0.26,0.283,0.555,0.342,0.873c0.201,0.944,0.661,1.333,0.874,2.083
	c0.129,0.478,0.047,1.038,0.177,1.563c0.838,0.295,2.2,0.06,3.121,0.26c0.247,0.266,0.165,0.602,0,0.873
	c0.554,0.266,0.495,1.009,1.132,1.21c0.991,0.336,2.242-0.183,3.305-0.171c0.365-0.242,0.66-0.502,1.221-0.343
	c0.956-0.92,1.569-2.33,3.032-2.778c0.832-0.26,1.794-0.095,2.696-0.525c-0.549-0.961-1.428-1.587-2.778-1.746
	c-0.188-0.386-0.825-0.698-0.935-1.026c-0.006-0.004-0.015-0.007-0.021-0.012c0-0.024,0-0.054,0-0.089
	c-0.001,0.034,0.011,0.067,0.021,0.101c0.85,0.62,2.102,0.839,3.453,0.943c0.537,0.366,1.333,0.844,2.171,1.133
	c0.773,0.26,1.912,0.661,2.614,0c-0.555-0.837-1.729-1.062-1.476-2.69c0.343,0.271,0.607,0.673,1.045,1.039
	c0.318,0.277,0.819,0.802,1.298,0.867c0.271,0.041,1.486-0.354,1.651-0.349c0.219,0.019,0.313,0.195,0.52,0.184
	c0.07-0.012,0.247-0.147,0.437-0.184c0.242-0.035,0.543,0.03,0.607,0c0.566-0.2,0.861-0.896,1.304-1.044
	c-0.489-1.274-1.486-2.26-2.348-3.298c-0.437-0.525-0.726-1.18-1.216-1.651c-0.383-0.366-0.955-0.566-1.397-0.867
	c-0.019-0.189-0.319-0.543-0.172-0.608c0.855-0.018,1.375,0.59,2.178,0.349c0.743,0.902,1.84,1.657,2.778,2.607
	c0.483,0.483,0.832,1.127,1.304,1.563c0.902,0.832,2.531,1.451,4.26,1.038c-0.118-0.46-0.708-0.442-0.95-0.772
	c-0.266-1.133-0.838-2.962-0.354-4.006c-0.172,0.861,0.678,1.221,1.038,1.822c0.271,0.437,0.277,1.051,0.525,1.481
	c0.218,0.354,0.613,0.524,0.873,0.873c0.301,0.396,0.431,0.879,0.778,1.215c-0.472,2.271,0.95,3.682,3.127,3.823
	c-0.065-0.844-0.902-1.233-0.607-2.177c-0.467-0.431-0.59-1.298-0.861-1.906c-0.153-0.336-0.49-0.572-0.437-0.873
	c-0.147-0.466,0.259-0.377,0.259-0.695c-0.324-0.384-0.602-0.791-0.778-1.305c-0.124-0.194-0.466-0.165-0.525-0.437
	c-0.46-1.333-0.726-2.648-1.215-3.905c-0.207-0.525-0.619-0.938-0.785-1.48c-0.271-0.891-0.165-1.982-0.171-3.038
	c-0.313-0.124-0.371-0.502-0.702-0.614c-0.111,0.178-0.283,0.295-0.519,0.354c-0.13,0.85,0.419,1.392-0.083,1.911
	c-0.784-0.236-1.191-0.844-1.393-1.651c0.13-0.496,0.514-0.219,0.785-0.52c-0.041-0.607-0.826-0.46-1.31-0.613
	c-0.69-0.809-1.174-1.835-1.481-3.038c0.413-0.236,0.473-0.803,0.702-1.222c0.903,0.401,1.439,1.168,1.652,2.266
	c0.324,0.212,0.566-0.266,0.955-0.266c0.277,0.271,1.169,0.206,1.563,0.083c0.23,0.047,0.289,0.489,0.52,0.265
	c-0.077-0.891-0.372-1.894-0.52-2.955c-12.984-0.118-25.946-0.189-38.931-0.177c-0.52,0-1.063,0.152-1.569,0.177
	c-0.85,0.035-1.67-0.083-2.52-0.083c-11.428,0-23.445,0-35.203,0c-3.964,0-7.97-0.183-11.899,0c-2.885,0.13-5.787-0.053-8.778,0.083
	c-4.92,0.224-10.802-0.036-15.646,0.177c-7.292,0.318-14.708-0.254-21.994,0.082c-2.743,0.137-5.428,0.112-8.076,0
	c-4.962-0.212-10.448-0.059-15.032-0.259c-1.729-0.071-3.493,0.153-5.05,0.088c-0.242-0.006-0.549-0.159-0.779-0.171
	c-1.197-0.076-2.324,0.047-3.48,0c-4.584-0.212-8.968-0.059-13.552-0.266c-8.619-0.389-17.445-0.4-25.899-0.778
	c-4.602-0.213-9.062-0.731-13.557-1.133c-0.614,0.802-1.074,1.758-1.222,3.038c-0.082,0.183-0.377,0.142-0.342,0.442
	c0.33,0.673,0.377,1.652,0.519,2.52c-0.059,0.283-0.695,0-0.695,0.342c0.047,0.696-0.572,1.422-0.69,2.177
	c-0.195,1.127,0.188,2.225,0,3.127c-1.021,0.101-1.782-0.295-2.607-0.254c-2.112,0.083-3.439,1.705-4.608,2.861
	c-0.188,0.213-0.224,0.591-0.348,0.867c-0.514,0.372-0.667,0.979-0.962,1.481c-0.254,0.442-0.643,0.79-0.861,1.215
	c-0.266,0.502-0.336,1.074-0.607,1.563c-0.124,0.219-0.384,0.324-0.525,0.525c-0.483,0.666-0.696,1.457-1.304,1.911
	c-0.295-0.023-0.419-0.224-0.784-0.183c-0.153,0.861-1.346,0.69-2,1.05c-0.473-0.46-1.156-0.85-1.127-1.563
	c-0.838-0.524-2.289-0.431-3.216-0.867c-0.419,0.649-1.203,0.938-1.828,1.381c-1.434-0.147-2.136,0.425-3.387,0.442
	c-1.092,0.873-2.495,1.445-2.696,3.21c-1.575,1.475-3.127,5.002-6.342,3.657c-0.354-0.832-0.219-2.277-0.171-3.044
	c-0.608-0.349-0.82-1.104-1.481-1.387c-0.743,0.289-1.416,0.667-1.911,1.215c-1.05,0.42-1.823,1.127-2.778,1.652
	c-0.52-0.035-0.773,0.213-1.133,0.342c-0.018,0.721,0.159,1.245,0.088,2c-0.4,0.354-0.602,0.909-1.127,1.127
	c-0.406-0.289-0.808-0.578-1.221-0.861c-0.679-0.1-1.245,0.225-1.646-0.094c-0.206,0.519-0.867,0.637-0.961,1.221
	c-0.101,0.619,0.513,1.428,0.519,2.171c-0.241,0.142-0.501,0.242-0.778,0.349c-0.083,1.333-0.974,1.87-1.216,3.044
	c-0.425,0.26-0.619,0.572-1.044,0.69c-0.962,0.283-2.188-0.225-3.133-0.171c-0.478,0.029-0.991,0.348-1.469,0.524
	c-0.69,0.254-1.315,0.52-2.089,0.52c-0.66,0.708-1.162,1.563-1.911,2.171c-0.578-0.254-1.227,0.095-1.911,0
	c-0.437,1.304-1.222,2.26-2.266,2.956c-0.277-0.178-0.596-0.324-0.956-0.437c-0.855,0.85-1.799,1.581-2.867,2.088
	c-0.407,0.195-0.867,0.213-1.215,0.431c-0.944,0.607-1.505,1.906-2.607,2.266c-0.638-0.437-1.422,0-2.083-0.088
	c-0.679-0.089-1.092-0.597-1.652-0.69c-0.654,0.507-1.492,0.46-2.348,0.431c-1.434-0.054-2.885,0.348-4.088,0.437
	c-0.283,0.206-0.407,0.566-0.69,0.778c-0.508-0.094-0.826,0.342-1.216,0.52c-0.248,0.118-0.537,0.076-0.79,0.177
	c-0.467,0.183-0.892,0.784-1.476,0.525c-0.412,0.342-0.454,0.896-0.772,1.298c-0.731,0.885-2.295,1.351-3.569,1.393
	c-0.136,0.441-0.206,0.955-0.266,1.475c-0.224,0.313-0.666,0.431-0.69,0.867c-0.023,0.324,0.431,0.726,0.431,1.044
	c0.013,0.673-0.695,0.991-0.949,1.652c-0.083,0.212-0.153,0.607-0.177,0.784c-0.071,0.425-0.13,1.015,0.082,1.563
	c-0.295,0.543-1.026,0.649-1.038,1.475c-0.478,0.225-0.838,0.555-1.31,0.785c-0.531-0.384-0.879,0.059-1.298,0.266
	c-0.649-0.289-1.375-0.036-2.083-0.266c-0.324-0.101-0.543-0.413-0.873-0.52c-0.271-0.082-0.631,0.054-0.867-0.177
	c-0.778,0.354-1.251,1.015-1.911,1.475c-0.124,0.467-0.26,0.902-0.608,1.133c0.095,1.286-0.289,2.283-0.437,3.393
	c-0.117,0.902,0.083,1.811,0,2.69c-0.029,0.253-0.2,0.519-0.266,0.784c-0.194,0.867-0.336,1.835-0.082,2.431
	c-0.018,0.277-0.219,0.36-0.349,0.525c0.283,0.035,0.349,0.277,0.431,0.519c7.895-0.301,16.159,0.029,24.342-0.348
	C74.714,180.027,79.599,180.322,84.271,180.163z"/>
</svg>
