<?xml version="1.0" encoding="utf-8"?>
<!-- Generator: Adobe Illustrator 16.0.0, SVG Export Plug-In . SVG Version: 6.00 Build 0)  -->
<!DOCTYPE svg PUBLIC "-//W3C//DTD SVG 1.1//EN" "http://www.w3.org/Graphics/SVG/1.1/DTD/svg11.dtd">
<svg version="1.1" id="Calque_1" xmlns="http://www.w3.org/2000/svg" xmlns:xlink="http://www.w3.org/1999/xlink" x="0px" y="0px"
	 width="432px" height="432px" viewBox="0 0 432 432" enable-background="new 0 0 432 432" xml:space="preserve">
<path fill-rule="evenodd" clip-rule="evenodd" d="M313.22,211.007c-1.068-7.298-2.023-14.537-3.063-21.864
	c-0.708-4.944-0.967-10.018-1.434-15.203c-0.235-2.619-0.507-5.203-0.69-7.599c-0.053-0.649-0.105-1.21-0.301-1.782
	c-1.587-4.637-3.132-9.38-4.684-13.964c-0.195-0.578-0.289-1.109-0.349-1.734c-0.955-10.85-1.533-21.953-2.318-33.073
	c-7.109-0.508-14.271-0.52-21.521-1.032c-1.841-0.13-3.705-0.118-5.581-0.048c-1.876,0.071-3.788-0.012-5.669,0.048
	c-3.753,0.117-7.564,0.1-11.357,0.1c-22.802,0-45.361-0.53-66.884-1.729c-7.251-0.4-14.384-0.885-21.475-1.434
	c-10.673-0.819-21.108-1.858-31.397-2.961c-3.486-0.372-6.938-0.938-10.46-0.985c-0.077,0.029-0.118,0.076-0.153,0.147
	c-0.201,0.442-0.596,0.69-0.785,1.133c-0.212,0.513-0.147,1.191-0.2,1.775c-0.726,8.401-1.487,17.073-2.224,25.28
	c-2.578,28.955-4.98,57.957-7.547,86.729c9.93,0.944,20.095,2.118,30.106,3.057c2.077,0.194,4.142,0.313,6.224,0.441
	c8.318,0.543,16.59,0.768,24.779,1.287c4.129,0.259,8.282,0.395,12.436,0.643c8.342,0.483,16.767,0.896,25.174,1.139
	c2.076,0.053,4.194,0.106,6.271,0.242c2.141,0.136,4.283,0.123,6.418,0.247c4.219,0.248,8.449,0.296,12.685,0.496
	c4.307,0.2,8.649,0.136,12.985,0.295c6.466,0.235,12.955,0.289,19.397,0.495c2.13,0.065,4.283,0.142,6.413,0.142
	c2.153,0,4.301,0.147,6.472,0.147c2.124,0,4.289,0.065,6.419,0.154c8.637,0.359,17.315,0.336,25.964,0.643
	c-0.85-4.667-1.651-9.339-2.572-14.018C313.839,215.851,313.562,213.432,313.22,211.007z"/>
</svg>
