<svg version="1.1" id="Calque_1" xmlns="http://www.w3.org/2000/svg" xmlns:xlink="http://www.w3.org/1999/xlink" x="0px" y="0px"
	 width="432px" height="332px" viewBox="0 0 432 332" enable-background="new 0 0 432 332" xml:space="preserve" fill="#FFF">
<path fill-rule="evenodd" clip-rule="evenodd" d="M151.721,129.183c-0.054,0.956,0.006,1.879-0.077,2.861
	c-0.23,2.908-0.389,5.693-0.596,8.508c-0.136,1.832-0.219,3.688-0.377,5.495c-0.083,0.905-0.166,1.813-0.23,2.708
	c-0.064,0.982-0.053,1.988-0.147,2.941c-0.054,0.584-0.331,1.103-0.224,1.578c0.117,0.566,1.285,1.368,1.881,1.955
	c0.744,0.746,1.299,1.416,1.877,1.962c2.719,2.519,5.008,5.259,7.604,7.752c1.34,1.28,2.59,2.607,3.842,3.841
	c2.555,2.504,5.209,5.053,7.758,7.602c1.574,1.581,3.186,3.318,4.59,4.971c0.896,1.059,1.905,1.97,2.855,2.935
	c1.238,1.295,2.826,2.454,3.923,3.758c0.177,0.219,0.241,0.478,0.448,0.685c0.543,0.552,1.215,0.985,1.805,1.502
	c0.603,0.527,1.115,1.129,1.658,1.734c1.057,1.174,2.184,2.339,3.311,3.463c1.145,1.142,2.076,2.41,3.392,3.387
	c0.614,0.457,1.162,1.082,1.734,1.651c0.566,0.575,1.145,1.174,1.651,1.734c1.068,1.191,2.302,2.209,3.387,3.387
	c0.814,0.888,1.617,1.82,2.407,2.64c0.855,0.879,1.776,1.616,2.644,2.481c1.139,1.141,2.2,2.354,3.38,3.38
	c0.603,0.534,1.333,0.946,1.882,1.513c0.372,0.387,0.52,0.933,0.826,1.358c0.266,0.352,0.75,0.682,1.133,1.051
	c1.121,1.105,2.242,2.268,3.31,3.318c1.511,1.471,2.985,3.02,4.372,4.43c2.348,2.414,4.695,4.914,6.996,7.227
	c0.596,0.602,1.228,1.016,1.806,1.582c0.761,0.756,1.351,1.652,2.112,2.406c2.26,2.289,4.631,4.438,6.772,6.785
	c2.892,3.162,6.194,5.936,8.962,9.109c1.387,1.592,3.002,2.984,4.513,4.52c1.517,1.533,2.956,3.09,4.513,4.506
	c3.198,2.891,5.83,6.289,9.039,9.051c0.561-0.66,0.932-1.711,0.301-2.561c0.643-0.117,1.263-0.426,1.428-0.979
	c0.136-0.426,0.041-1.357-0.076-2.184c-0.189-1.369-0.283-2.467-0.525-3.398c-0.602-1.25-0.838-2.867-1.582-3.988
	c0.225-0.164,0.242-0.389,0.302-0.672c0.059-0.236,0.147-0.637,0.153-0.838c0.012-0.283-0.153-0.613-0.153-0.896
	c0.006-0.154,0.136-0.248,0.153-0.379c0.147-0.85-0.359-1.367-0.531-2.029c-0.064-0.271-0.082-0.602-0.147-0.908
	c-0.06-0.295-0.206-0.578-0.224-0.826c-0.018-0.283,0.177-0.59,0.146-0.826c-0.012-0.129-0.182-0.199-0.224-0.307
	c-0.06-0.141-0.06-0.295-0.077-0.447c-0.064-0.697,0.248-1.404,0.154-2.184c0-0.236,0.254-0.307,0.371-0.447
	c0.147-0.166,0.254-0.344,0.378-0.531c-0.483-0.26-0.644-0.826-0.903-1.275c-0.277-0.496-0.561-0.979-0.749-1.51
	c-0.171-0.709,0.442-1.652,0.302-2.123c-0.071-0.201-0.632-0.271-0.455-0.732c0.425-0.07,0.449-0.566,0.756-0.768
	c0.602,0,1.114-0.318,1.651-0.506c0.561-0.225,1.198-0.543,1.806-0.604c0.743-0.105,1.368,0.271,2.117,0.283
	c0.537,0.025,1.063-0.105,1.582-0.283c0.094,0.379,0.672,0.26,0.973,0.438c0.172,0.365,0.619,0.436,0.832,0.744
	c0.076,0.129-0.041,0.141,0,0.307c0.029,0.141,0.189,0.199,0.225,0.318c0.064,0.199,0.023,0.555,0.224,0.672
	c0.537,0.508,1.192,0.92,1.806,1.357c0.514-0.201,1.209-0.201,1.805-0.307c0.467-0.85,0.496-1.676,0.902-2.479
	c0.432-0.861,1.393-1.404,1.582-2.277c0.146-0.637,0-1.629,0-2.549c0-2.643,0.153-5.451,0.153-7.752c0-3.627,0-7.191,0-10.539
	c-0.007-14.405,0.307-27.77,0.307-41.858c0-3.445-0.254-6.991,0-10.39c0.241-3.428,0.188-6.828,0.142-10.088
	c-0.041-3.422,0-6.85,0-10.236c0-1.711,0.147-3.434,0.147-5.117c0-5.257,0.054-10.039,0-14.906c-0.006-0.887,0-1.746,0-2.637
	c0.012-0.826,0.153-1.66,0.153-2.483c0.023-6.552,0.053-13.879,0.159-20.475c0.018-1.717-0.089-3.422,0-5.121
	c0.006-0.165,0.136-0.307,0.142-0.451c0.018-0.168-0.142-0.345-0.142-0.531c-0.018-0.356,0.083-0.746,0.065-1.126
	c-0.178-5.293-0.006-11.664-0.065-17.613c-1.517-0.219-3.038-0.242-4.596-0.225c-1.575,0.012-3.162-0.156-4.743-0.156
	c-3.31,0-6.607-0.15-9.941-0.15c-3.209,0-6.4-0.012-9.634-0.145c-1.498-0.065-3.009,0.026-4.513-0.077
	c-1.682-0.12-3.322-0.079-4.974-0.079c-3.245,0-6.483-0.301-9.782-0.301c-0.777,0-1.533-0.137-2.33-0.15
	c-2.648-0.039-4.932-0.192-7.309-0.301c-3.228-0.143-6.443-0.054-9.635-0.302c-0.803-0.062-1.664,0.036-2.483,0
	c-2.478-0.103-4.696-0.315-7.003-0.451c-2.289-0.133-4.496-0.023-6.702-0.228c-3.356-0.301-6.631-0.206-10.012-0.374
	c-5.021-0.248-10.448-0.657-15.882-0.903c-1.953-0.088-4.1-0.194-5.952-0.374c-0.62-0.062-1.257-0.035-1.876-0.077
	c-2.508-0.171-6-0.988-8.354-0.374c-0.313,1.935-0.189,3.956-0.385,5.946c-0.029,0.393-0.199,0.794-0.218,1.204
	c-0.023,0.368,0.019,0.767,0,1.126c-0.124,2.143-0.253,4.225-0.448,6.175c-0.407,3.944-0.448,8.07-0.762,12.12
	c-0.247,3.28-0.572,6.552-0.754,9.861c-0.048,0.959-0.207,2.112-0.295,2.861c-0.201,1.588-0.012,2.982-0.154,4.369
	c-0.082,0.805-0.248,1.599-0.301,2.406c-0.047,0.729,0.059,1.455,0,2.181c-0.225,2.819-0.625,6.021-0.755,8.734
	c-0.018,0.524,0.047,1.073,0,1.581C151.985,128.295,151.75,128.726,151.721,129.183z"/>
</svg>
