<svg version="1.1" id="Calque_1" xmlns="http://www.w3.org/2000/svg" xmlns:xlink="http://www.w3.org/1999/xlink" x="0px" y="0px"
	 width="432px" height="432px" viewBox="0 0 432 432" enable-background="new 0 0 432 432" xml:space="preserve">
<path fill-rule="evenodd" clip-rule="evenodd" d="M303.59,81.974c-0.06,0.006-0.271,0.146-0.419,0.205
	c-0.613,0.219-1.658,0.566-2.142,0.344c-1.056,0.844-2.507,1.262-3.929,1.729c-1.445,0.471-2.968,0.926-4.484,1.031
	c-0.295,0.289-1.003,0.668-1.451,0.762c-0.248,0.047-0.307,0.117-0.483-0.07c-1.104,1.008-2.52,1.32-4.006,1.586
	c-1.375,0.236-2.318,0.461-3.451,0.896c-1.298,0.496-2.537,1.057-3.729,1.523c-0.349,0.135-0.737,0.236-1.098,0.342
	c-0.39,0.105-0.885,0.135-1.174,0.271c-0.295,0.141-0.448,0.496-0.696,0.695c-1.333,1.092-3.451,1.209-5.032,2.064
	c-0.271,0.148-0.537,0.408-0.826,0.555c-0.136,0.066-0.39,0.061-0.555,0.143c-0.39,0.178-0.685,0.395-1.238,0.271
	c-0.514,0.225-0.62,0.855-0.968,1.244c-0.153,0.172-0.496,0.348-0.762,0.549c-0.542,0.42-0.861,0.732-1.723,0.691
	c-0.336,1.863-1.976,2.354-3.38,3.521c-0.537,0.447-0.974,0.949-1.451,1.309c-0.271,0.201-0.584,0.35-0.832,0.555
	c-0.277,0.236-0.454,0.455-0.761,0.619c-0.343,0.184-0.927,0.449-1.169,0.484c-0.743,0.102-1.622-0.17-2.348-0.141
	c-0.165,0.596-0.342,1.303-0.413,1.793c-0.407,0.088-0.431,0.342-0.755,0.207c-0.514-0.207-0.23-0.873-0.69-0.969
	c-0.584-0.105-0.619,0.455-0.696,0.902c-1.374,0.68-3.327,1.145-5.103,1.109c-1.222-0.041-2.012-0.406-2.897-0.76
	c-0.472-0.195-0.879-0.449-1.244-0.555c-0.49-0.143-1.93-0.373-2.343-0.277c-0.413,0.082-0.596,0.566-0.967,0.76
	c-0.396,0.201-1.033,0.242-1.588,0.414c-0.802,0.236-1.415,0.561-2.206,0.684c-0.236-0.035-0.661-0.129-0.968,0
	c-0.33,0.16-0.46,0.703-0.825,1.045c-0.095,0.082-0.296,0.195-0.419,0.266c-0.484,0.307-1.08,0.625-1.517,0.766
	c-1.245,0.396-3.274,0.031-4.489,0.484c-0.289,0.113-0.673,0.408-1.033,0.619c-0.377,0.213-0.767,0.49-1.108,0.613
	c-0.561,0.23-1.139,0.107-1.652-0.059c-0.241,0.102-0.401,0.283-0.755,0.271c-0.2-0.012,0.076,0.455-0.213,0.348
	c-0.301,0.178-0.867,0.096-1.103,0.35c-0.213-0.184-0.479-0.307-0.897-0.283c-0.578-0.607-1.345-1.045-2.206-1.381
	c-0.159-0.248-0.378-0.455-0.555-0.686c-1.215-0.578-2.076-1.51-2.896-2.482c-0.219,0.006-0.384-0.035-0.483-0.137
	c-0.16,0.053-0.319-0.342-0.343,0c-0.301,0.23,0.289,0.619,0.549,0.756c0.644,0.531,1.351,1.197,1.936,1.729
	c0.188,0.172,0.66,0.26,0.483,0.619c-0.927-0.359-1.522-1.268-2.483-1.586c-0.401-0.137-0.867-0.049-1.245-0.35
	c-0.378,0.26-0.921,0.373-1.31,0.621c-0.171-0.213-0.773-0.043-1.109,0c-0.566-0.467-0.908-1.15-2-1.104
	c-0.242,0.07-0.348,0.354-0.619,0.205c-0.036,0.361-0.271,0.467-0.484,0.627c-0.495,0.371-1.015,0.318-1.657,0.549
	c-0.324,0.117-0.614,0.424-0.968,0.553c-0.413,0.154-0.891,0.09-1.168,0.414c-0.867-0.266-1.026-1.139-1.936-1.316
	c-0.406-0.053,0.077,0.35-0.271,0.35c-0.554-0.148-1.15-0.426-1.587-0.549c-0.165-0.049-0.478,0.012-0.554-0.207
	c0.66,0,1.227-0.33,1.864-0.143c0.324-0.176,0.584-0.43,1.032-0.482c0.13-0.195,0.153-0.49,0.419-0.549
	c0.749-0.248,1.61-0.137,2.548-0.213c0.608-0.047,1.239-0.219,1.864-0.271c0.313-0.029,0.655,0.047,0.968,0
	c0.318-0.053,0.607-0.277,0.896-0.354c0.23-0.047,0.455-0.012,0.69-0.059c0.236-0.061,0.431-0.195,0.62-0.207
	c0.383-0.035,0.524,0.146,0.761,0.135c0.053,0,0.2-0.111,0.271-0.135c0.365-0.111,0.778-0.248,1.038-0.143
	c0.372,0.148,0.248,0.756,0.755,0.621c0.219-0.396-0.206-0.756-0.271-1.104c0.201-0.207,0.438-0.686,0.349-0.969
	c-0.006-0.43-0.525-0.4-0.419-0.76c-0.483,0.52-1.882,0.1-2.549,0.418c-1.056-0.537-1.793-1.381-2.483-2.277
	c-0.171,0.318-0.52,0.455-0.761,0.686c0.029,0.613-0.26,1.102-0.207,1.521c-0.407,0.254-0.619,0.756-1.109,0.961
	c-0.4,0.172-0.908,0.072-1.244,0.42c-0.632-0.113-1.233-0.514-1.858-0.42c-1.003-0.537-1.882-1.197-2.762-1.857
	c-0.088-0.254-0.259-0.432-0.342-0.691c-0.726-0.313-0.92-1.096-1.593-1.516c-0.82-0.52-1.876-0.631-3.168-0.762
	c-0.473-0.359-1.104-0.307-1.593-0.482c-0.479-0.172-0.832-0.656-1.375-0.549c-0.489-0.785-1.362-1.127-2.142-1.594
	c-0.767-0.453-1.345-1.285-2.277-1.516c-0.33,0.195-0.218,0.514-0.549,0.695c-0.92,0.496-2.825-0.289-3.729-0.418
	c-0.177-0.219-0.359-0.42-0.555-0.619c-0.076-0.277,0.065-0.467-0.07-0.762c-0.318-0.1-0.46-0.365-0.761-0.484
	c-18.59,0.756-36.714,1.328-54.648,2.078c-0.277,42.152-0.531,84.883-0.761,127.318c0.377-0.1,0.229,0.318,0.483,0.342
	c1.387-0.211,1.853-1.32,3.104-1.65c0.46,0.289,0.867,0.648,1.451,0.818c0.266,0.355,0.778,0.65,1.31,0.904
	c0.508,0.234,1.092,0.59,1.517,0.684c1.174,0.271,1.841-0.82,2.902-0.967c0.242,0.146,0.607,0.17,0.826,0.348
	c0.041,0.301-0.413,0.365-0.207,0.619c0.768,0.1,1.239-0.023,1.936-0.129c0.336-0.592,1.003-0.85,1.38-1.387
	c0.36,0.453,1.016,0.719,1.169,1.387c0.088,0.33-0.083,0.777,0,1.162c0.082,0.354,0.354,0.535,0.348,0.902
	c0.283,0.059,0.495,0.182,0.619,0.418c1.045,0.023,1.835,0.318,2.762,0.479c0.472,0.459,1.191,0.879,1.516,1.516
	c0.248,0.467,0.219,1.039,0.419,1.652c0.219,0.707,0.773,1.369,1.174,2.006c0.189,0.307,0.407,0.66,0.62,0.967
	c0.241,0.355,0.596,0.686,0.689,0.969c0.266,0.844-0.07,1.971,0.065,2.826c0.336,0.512,0.543,1.078,1.038,1.385
	c0.36,0.207,0.855,0.277,1.315,0.402c0.974,0.271,1.835,0.525,2.756,0.832c0.831,0.271,1.551,0.5,2.619,0.418
	c0.578-0.053,1.269-0.146,1.87-0.283c0.384-0.082,0.761-0.365,1.168-0.4c0.797-0.09,1.635,0.23,2.277,0.607
	c0.985,0.041,1.616,0.418,2.348,0.701c0.584,0.768,0.855,1.859,1.587,2.484c1.381,0.059,1.788,1.641,2.277,2.826
	c0.561,0.035,0.85,0.342,1.517,0.271c0.956,0.4,1.77,0.949,3.109,0.967c0.613-0.418,1.015-1.055,0.891-2.207
	c0.619-0.672,1.439-1.125,2.419-1.457c0.318-0.094,0.69-0.24,0.968-0.266c0.572-0.041,1.021,0.314,1.651,0.266
	c1.139,1.045,2.844,1.766,4.838,1.936c0.313,0.035,0.648-0.035,0.962,0c1.238,0.184,1.905,1.186,2.619,1.871
	c0.59-0.084,0.902,0.17,1.451,0.135c0.354-0.023,0.661-0.277,0.968-0.277c0.448,0.012,0.796,0.354,1.168,0.414
	c2.437,0.377,3.003-1.605,4.212-2.484c0.737-0.525,1.895-0.797,2.626-1.445c0.495-0.455,1.003-1.422,1.651-1.516
	c0.36-0.066,0.749,0.158,1.032,0.135c1.009-0.064,1.464-0.701,2.354-1.18c0.454,0.018,0.808-0.059,1.168-0.129
	c0.372,0.289,0.896,0.436,1.109,0.891c-0.142,0.453-0.207,1.002-0.349,1.457c0.219,0.354,0.101,0.76,0.207,1.162
	c0.088,0.354,0.318,0.684,0.413,1.037c0.111,0.385,0.247,0.809,0.277,1.182c0.023,0.275-0.095,0.572-0.065,0.818
	c0.041,0.525,0.378,0.855,0.483,1.322c0.921,0.732,1.652,1.492,2.892,1.652c0.495,0.059,1.015-0.09,1.521,0
	c0.254,0.047,0.661,0.266,0.962,0.412c0.902,0.432,1.092,0.785,1.593,1.523c0.254,0.365,0.437,0.789,0.685,1.096
	c0.59,0.703,1.829,1.139,2.212,1.936c0.225,0.467,0.136,1.104,0.349,1.594c0.177,0.412,0.536,0.537,0.761,0.955
	c0.289-0.041,0.419,0.082,0.549,0.207c1.64,0.094,2.507-0.355,3.729-0.762c0.743-0.242,1.534-0.596,2.342-0.756
	c0.685-0.135,1.375,0,2.071-0.064c0.767-0.07,1.416-0.377,2.07-0.754c0.271-1.068,1.145-2.402,0.62-3.588
	c0.613-0.455,0.695-1.422,0.689-2.484c0.396-0.518,0.897-0.908,1.522-1.18c0.625,0.225,1.362,0.33,2.142,0.42
	c0.248-0.295,0.926-0.49,1.098-0.908c0.478-1.164-0.354-2.508-0.413-3.512c-0.03-0.549,0.142-0.908,0.142-1.25
	c0-0.461-0.343-1.098-0.419-1.652c-0.042-0.342,0.076-0.625,0-0.832c-0.136-0.4-0.644-0.584-0.826-1.025
	c-0.059-0.148,0-0.578-0.142-0.697c0.336-0.531,0.803-0.908,1.387-1.309c0.524-0.355,1.25-0.602,1.516-1.174
	c0.337-0.727,0.023-1.789,0.207-2.893c0.448-0.535,0.855-1.066,1.168-1.662c0.283-0.514,0.466-1.275,0.761-1.729
	c0.531-0.785,1.505-1.016,2-1.789c0.06-0.477,0.195-0.867,0.484-1.113c0.46-0.037,0.731,0.111,1.108,0.146
	c0.372,0.49,0.72,1.299,1.31,1.521c0.384,0.131,0.832,0,1.311,0.207c0.619,0.832,1.12,1.775,1.38,2.961
	c-0.377,0.432-0.879,0.732-1.104,1.311c0.277,0.672,0.52,1.15,1.104,1.25c0.962,0.16,2.236-0.689,2.555-1.457
	c0.248-0.613,0.159-1.752,0.755-1.787c-0.029,0,0.537,0.365,0.626,0.412c0.885,0.408,1.504,0.873,2.277,0.137
	c-0.03-0.584-0.431-0.721-0.555-1.174c-0.289-1.092,0.643-2.143,0.206-3.381c-0.324-0.354-0.708-0.756-1.032-1.174
	c-0.33-0.438-0.655-0.914-0.761-1.381c0.218,0.012,0.241-0.17,0.277-0.342c0.584,0.318,1.368-0.012,1.935-0.137
	c0.177-0.307,0.378-0.59,0.613-0.83c-0.035-1.275,0.018-2.803-0.483-3.795c0.39-0.318,0.602-0.932,0.968-1.18
	c0.431-0.277,1.038-0.266,1.521-0.549c-0.076-0.797,0.012-2.006,0.271-2.689c0.502-0.213,0.956-0.502,1.593-0.479
	c0.52,0.012,1.033,0.414,1.452,0.137c0.46,0.289,1.268,0.342,1.857,0.129c0.112-0.873,0.207-1.758,0.277-2.689
	c0.407-0.379,0.514-0.867,0.897-1.24c0.478-0.459,1.191-0.613,1.651-1.037c0.378-0.33,0.596-0.879,0.968-1.234
	c0.242-0.234,0.537-0.4,0.832-0.553c0.808,0.246,1.304,0.736,1.651,1.516c0.106,0.23,0.089,0.59,0.213,0.82
	c0.13,0.254,0.79,0.92,0.968,0.967c0.855,0.26,1.581-0.242,2-0.479c1.304-0.736,2.282-1.699,4.276-1.656
	c0.785-0.549,1.304-1.363,1.858-2.137c0.448-0.117,0.95-0.348,1.387-0.549c0.425-0.205,0.962-0.477,1.239-0.76
	c0.301-0.313,0.495-0.809,0.761-1.176c0.271-0.389,0.566-0.742,0.891-1.102c1.558-1.723,3.363-3.328,5.245-4.768
	c0.413-0.307,0.85-0.738,1.18-0.826c0.731-0.195,1.375,0.105,1.864-0.271c0.59-0.471,0.478-2.406,0.685-3.244
	c0.313-0.266,0.702-0.449,1.032-0.691c-0.035-0.783,0.089-1.285-0.271-1.863c-0.307-0.502-1.026-0.648-0.896-1.381
	c0.047-0.236,0.572-0.648,0.826-0.896c0.324-0.318,0.708-0.572,0.825-0.967c0.331-1.027-0.235-1.664,0.213-2.826
	c0.561,0.459,1.239,0.012,1.31-0.414c0.095-0.59-0.861-1.545-0.685-1.934c0.555-0.207,1.357,0.094,1.788,0
	c0.501-0.627-0.112-1.447,0.07-2.143c0.083-0.307,0.555-0.561,0.69-0.896c0.236-0.572,0.147-1.334,0.207-2.143
	c0.076-1.014,0.383-1.969,0-2.824c0.313-0.207,0.241-0.604,0.483-0.969c0.242-0.359,0.637-0.465,0.761-0.891
	c0.112-0.418-0.041-0.926,0-1.309c0.153-1.547,1.315-2.449,1.723-3.736c0.106-0.535,0.318-0.967,0.413-1.516
	c0.26-0.182,0.448-0.383,0.69-0.555c0.254-0.182,0.495-0.266,0.69-0.549c0.495-0.725,0.442-1.834,0.968-2.619
	c-0.201-0.855-0.331-1.787-0.271-2.902c-0.213-0.389-0.685-0.52-0.903-0.896c0.467-0.584,0.679-1.244,0.826-2.07
	c0.035-0.207,0.106-0.414,0.142-0.619c0.248-1.369-0.029-2.055-0.549-3.316c-0.247-0.572-0.489-1.238-0.696-1.588
	c-0.359-0.613-1.386-1.279-1.238-1.863c0.076-0.33,0.708-0.814,0.967-1.027c0.378-0.33,0.832-0.578,1.239-0.832
	c0.343,0.131,0.702,0.566,1.104,0.414c0.371-0.047,0.112-0.768,0.206-0.896c0.791-0.107,1.457-0.336,2.277-0.414
	c0.083-21.91,0.349-43.998,0.213-65.904C304.168,82.304,304.021,81.901,303.59,81.974z"/>
<path fill-rule="evenodd" clip-rule="evenodd" d="M210.423,94.806c-0.224-0.236-0.094-0.566-0.277-0.691
	c-0.377-0.248-0.926,0.342-0.896,0.549C209.309,95.005,210.323,95.206,210.423,94.806z"/>
<path fill-rule="evenodd" clip-rule="evenodd" d="M211.532,95.425c-1.009,0-1.646,0.377-1.935,1.104
	c0.277,0.07,0.348,0.342,0.689,0.348c0.178-0.373,0.277-0.826,0.897-0.762C211.208,95.813,211.65,95.653,211.532,95.425z"/>
<path fill-rule="evenodd" clip-rule="evenodd" d="M208.63,97.63c0.236,0.496,0.206,0.963,0.348,1.451
	c0.779-0.488,1.658-0.867,2.071-1.723c-0.431-0.477-0.803,0.137-1.245,0.207C209.426,97.624,208.978,97.282,208.63,97.63z"/>
<path fill-rule="evenodd" clip-rule="evenodd" d="M214.564,99.218c-0.088,0.195-0.371,0.141-0.548,0.076
	c-0.195,0.443-0.566,0.721-0.561,1.381c0.419,0,0.643,0.184,0.761,0.479c0.826,0.164,1.439,0.17,1.657-0.549
	c-0.235-0.432,0.065-0.668,0-1.246C215.479,99.702,214.859,99.647,214.564,99.218z"/>
</svg>
