<svg version="1.1" id="Calque_1" xmlns="http://www.w3.org/2000/svg" xmlns:xlink="http://www.w3.org/1999/xlink" x="0px" y="0px"
	 width="432px" height="432px" viewBox="0 0 432 432" enable-background="new 0 0 432 432" xml:space="preserve">
<path fill-rule="evenodd" clip-rule="evenodd" d="M114.723,95.834c-0.24-0.094-0.234-0.448-0.475-0.548
	c-0.008,0.253-0.465,0.053-0.393,0.389C114.143,95.688,114.428,96.105,114.723,95.834z"/>
<path fill-rule="evenodd" clip-rule="evenodd" d="M114.957,95.994c0.066,0.301,0.359,0.383,0.631,0.472
	c-0.068-0.219,0.111-0.2,0.082-0.39C115.482,95.994,115.061,95.911,114.957,95.994z"/>
<path fill-rule="evenodd" clip-rule="evenodd" d="M332.201,116.513c-0.422-0.46-0.732-0.838-1.109-1.18c0-0.213,0-0.425,0-0.632
	c-1.023-0.949-1.936-2.012-3.629-2.289c-0.49-0.254-0.883-0.885-1.498-1.109c-0.438-0.152-1.01-0.129-1.498-0.159
	c-0.918-1.156-1.965-2.188-3.08-3.156c0-0.283,0-0.578,0-0.861c-0.746-0.648-1.068-1.397-1.896-1.657
	c-0.416-0.136-1.047-0.047-1.658-0.083c-3.094-0.177-6.605-0.159-10.18-0.159c-5.873,0-11.9-0.159-17.75-0.159
	c-3.035,0-6.07-0.188-8.84,0c-0.33,0.023-0.768,0.136-1.184,0.159c-2.031,0.112-3.98-0.124-5.602-0.236
	c-1.73-0.117-3.471,0.019-5.127,0c-1.65-0.012-3.252-0.123-4.818,0c-0.693,0.054-1.635,0.295-2.523,0.236
	c-0.609-0.041-1.41-0.324-1.816-0.236c-0.525,0.124-0.961,1.057-1.582,1.428c-0.307,0.178-0.834,0.277-1.256,0.467
	c-0.459,0.206-0.844,0.472-1.266,0.555c-2.326,0.454-5.563,0.206-7.891,0.389c-0.527,0.048-1.168-0.006-1.658,0.089
	c-0.494,0.083-1,0.413-1.572,0.466c-0.92,0.095-1.898-0.165-2.529,0c-0.393,0.112-1.01,0.797-1.34,1.032
	c-0.174,0.118-0.34,0.165-0.475,0.313c-2.908,0.478-5.498,1.439-8.836,1.339c-0.729,0.365-1.367,0.861-2.211,1.186
	c-0.883,0.337-1.93,0.366-2.766,0.708c-0.939,0.384-1.469,1.404-2.279,1.658c-0.445,0.13-0.994,0.035-1.508,0.082
	c-1.047,0.089-2.182,0.454-3.313,0.632c-0.596,0.088-1.168,0.142-1.73,0.229c-0.605,0.101-1.16,0.343-1.658,0.401
	c-1.063,0.118-1.975-0.053-2.449-0.242c-0.135-0.053-0.67-0.483-0.789-0.472c0,0-0.355,0.366-0.391,0.396
	c-0.557,0.454-1.129,0.218-1.898,0.318c-0.963,0.112-1.957,0.632-2.998,0.867c-0.67,0.147-1.34,0.041-1.973,0.159
	c-0.525,0.089-1,0.419-1.5,0.549c-0.563,0.142-1.18,0.271-1.736,0.313c-0.988,0.083-2.012-0.283-2.998-0.153
	c-0.227,0.029-0.482,0.301-0.707,0.153c-0.582,0.419-1.154,1.104-1.896,0.95c-0.324-0.065-0.641-0.555-0.943-0.873
	c-0.369-0.366-0.676-0.679-1.031-0.867c-0.648-0.124-1.258-0.36-1.891-0.632c-0.783-0.324-1.25-0.324-2.129-0.466
	c-1.109-0.188-2.123-0.714-3.156-0.95c-2.348-0.524-4.961,0.343-7.734,0c-0.316,0.077-0.346,0.443-0.715,0.479
	c-0.596,0.059-1.332,0.307-1.813,0.229c-1.305,0.685-2.623,2.036-4.34,2.685c-0.617,0.23-1.301,0.36-1.973,0.631
	c-0.67,0.271-1.287,0.449-1.971,0.632c-1.373,0.36-2.607,1.191-3.865,1.339c-2.146,0.26-3.879-0.466-5.92-0.549
	c-0.768-0.224-1.549-0.879-2.527-1.108c-0.814-0.189-1.697-0.171-2.523-0.313c-0.838-0.146-1.666-0.271-2.365-0.548
	c-0.406-0.171-0.654-0.638-0.949-1.026c-0.219-0.295-0.709-0.715-0.791-1.033c-0.135-0.501-0.053-1.203-0.074-1.729
	c-0.029-0.619,0.061-1.221,0-1.816c-0.053-0.461-0.227-0.962-0.314-1.422c-0.311-1.476-0.543-2.879-0.635-4.266
	c-0.781-0.873-1.566-1.746-2.445-2.52c-0.334-0.902-0.926-1.244-1.584-1.899c-1.219-1.222-2.625-2.584-4.021-3.469
	c-0.654,0.006-1.498-0.49-2.361-0.318c-0.408,0.082-0.867,0.489-1.35,0.714c-1.076,0.513-3.373,0.967-4.729,0.318
	c-0.482-0.236-1.313-0.968-1.498-1.581c-0.129-0.384,0.029-0.82-0.082-1.187c-0.092-0.277-0.377-0.519-0.553-0.707
	c-0.156-0.172-0.48-0.655-0.557-0.396c-0.021,0.295,0.068,0.702-0.074,0.873c-0.572-0.673-1.361-0.124-2.133-0.242
	c-0.111,0.596-0.736,0.566-1.105,0.867c-0.324,0.271-0.346,0.632-0.631,0.95c-1.102,0.218-1.93,0.324-3.234,0.236
	c-0.441-0.308-0.607-0.715-1.18-0.791c-0.693-0.089-1.498,0.472-2.289,0.396c-0.145,0.283,0.055,0.879-0.24,1.18
	c-0.277-0.023-0.611-0.271-0.869-0.077c-0.984-0.613-1.475-1.729-3.078-1.734c-0.068-0.053-0.24-0.513-0.234-0.159
	c-0.127,0.525,0.266,0.844,0.477,1.263c0.246,0.52,0.475,1.215,0.707,1.581c0.271,0.413,0.393,0.596,0.549,1.026
	c0.475,1.257,0.387,2.731,0,4.177c-0.15,0.561-1.383,0.985-1.416,1.741c-0.016,0.307,0.455,0.713,0.635,1.097
	c0.074,0.183,0.074,0.437,0.156,0.638c0.115,0.289,0.213,0.383,0.236,0.631c0.053,0.667-0.184,0.844-0.318,1.339
	c-0.09,0.331-0.061,0.768-0.158,1.181c-0.119,0.513-0.354,0.832-0.314,1.108c0.068,0.484,0.773,0.797,0.947,1.34
	c0.158,0.501-0.055,0.72,0.076,1.191c0.354,0.006,0.811-1.003,1.348-0.401c0.088,0.655-0.844,0.944-1.266,1.346
	c-0.174,1.392-0.814,2.979,0.316,3.628c0.49,0.041,0.723-0.112,0.949-0.077c-0.182,0.06-0.105,0.372-0.318,0.39
	c0.047,0.855,0.959,1.251,1.1,1.74c-0.729-0.006-0.984,0.46-1.498,0.319c-0.465-0.136-0.678-0.644-1.256-0.873
	c0.082,0.53-0.295,0.607-0.398,0.949c0.354,0.401,0.201,0.926,0.398,1.422c0.256,0.667,1.236,1.228,0.465,2.047
	c-0.324-0.171-0.09-0.902-0.707-0.79c0.369,0.932-0.248,1.935-0.791,2.448c0.498,0.39,0.883,0.66,1.033,1.263
	c0.209,0.861-0.18,1.764-0.242,2.767c-0.105,1.806-0.143,3.056-0.631,4.26c-0.189,0.472-0.65,1.197-0.709,1.657
	c-0.098,0.731,0.127,1.563,0.074,2.289c-0.088,1.41-0.457,2.938-0.707,4.018c-0.098,0.431-0.332,0.861-0.391,1.269
	c-0.318,1.988,0.059,3.847-0.635,5.676c0.559,0.236,0.559,1.026,0.867,1.498c-0.18,0.295-0.551,0.396-0.789,0.632
	c0.188,1.274-0.16,2.524-0.234,3.793c-0.076,1.286-0.018,2.596-0.234,3.87c-0.225,1.263-0.633,2.508-0.715,3.788
	c-0.082,1.374-0.014,2.796-0.158,4.177c-0.137,1.298-0.084,2.666-0.316,3.864c-0.053,0.283-0.277,0.578-0.316,0.873
	c-0.066,0.584,0.045,1.221,0,1.812c-0.082,1.304-0.324,2.478-0.465,3.551c-0.092,0.644-0.063,1.28-0.16,1.895
	c-0.076,0.412-0.242,0.767-0.314,1.186c-0.176,0.943-0.205,1.94-0.398,2.761c-0.102,0.413-0.305,0.767-0.393,1.18
	c-0.092,0.407,0.014,0.861-0.084,1.269c-0.066,0.318-0.279,0.685-0.391,1.021c-0.65,1.959-1.16,3.812-1.891,5.522
	c-0.316,0.737-0.646,1.451-0.791,2.212c0.551-0.354,1.129-1.415,2.049-1.651c0.264-0.077,0.021-0.366,0.316-0.401
	c0.316-0.041,0.301-0.047,0.549,0.159c0.213,0.749-0.572,1.15-1.416,1.104c-0.475,0.654-0.979,1.292-1.498,1.899
	c-0.016,0.72-0.09,1.381-0.398,1.817c-0.029-0.667,0.256-1.357-0.16-1.74c-0.82-0.077-0.955,0.596-1.256,0.949
	c-0.137,0.153-0.48,0.095-0.398,0.39c0.195,1.233-0.227,2.372-0.318,3.552c-0.021,0.365,0.086,0.808,0,1.186
	c-0.086,0.413-0.52,0.785-0.709,1.263c-0.342,0.873-0.238,1.988-0.471,2.914c-0.145,0.578-0.449,1.168-0.629,1.74
	c-0.406,1.274-0.844,2.319-1.422,3.315c-0.285,0.49-0.672,1.027-0.869,1.499c-0.225,0.537-0.488,1.534-0.396,1.971
	c0.143,0.631,1.287,1.015,1.029,1.816c0.559,0.673,1.277,1.098,1.658,1.735c0.119,0.206,0.115,0.501,0.236,0.707
	c0.283,0.49,0.756,0.832,1.023,1.346c0.203,0.39,0.369,0.932,0.475,1.498c0.098,0.525,0.287,1.269,0.232,1.734
	c-0.059,0.614-0.533,1.239-0.707,1.895c-0.162,0.607-0.51,1.846-0.475,2.371c0.041,0.543,0.498,0.974,0.475,1.499
	c-0.016,0.33-0.293,0.607-0.316,0.938c-0.049,0.809,0.52,1.864,0.633,2.85c0.041,0.354-0.068,0.737,0,1.026
	c0.076,0.318,0.422,0.768,0.633,1.18c0.307,0.62,0.709,1.086,0.633,1.9c0.76,0.472,0.285,1.269,0.551,2.206
	c0.088,0.331,0.863,1.162,1.262,1.499c0.334,0.283,0.951,0.578,1.416,0.943c0.553,0.431,0.906,0.997,1.342,1.109
	c0.443,0.106,1.063-0.023,1.582,0c0.654,0.023,1.295,0.118,1.973,0.076c3.318-0.206,7.184-0.159,10.889-0.159
	c3.162,0,6.348,0.083,9.549,0.083c2.982,0,5.984-0.266,8.996-0.159c1.582,0.053,3.209,0,4.814,0c1.617,0,3.297,0.112,4.811,0
	c1.854-0.142,3.623-0.525,5.525-0.313c2.307,0.247,5.305,0.053,7.578,0.07c2.279,0.029,4.531,0.153,6.785,0.083
	c1.029-0.029,2.037-0.089,3.078-0.083c2.223,0.029,4.488,0.159,6.785,0.159c4.42,0,9.021,0.112,13.568,0.318
	c2.26,0.106,4.518-0.076,6.785-0.076c7.018,0,13.914-0.248,20.52,0.159c1.115,0.065,2.289-0.041,3.471-0.083
	c4.512-0.183,8.561-0.076,13.104-0.076c1.33,0,2.711,0.018,4.021,0.076c1.309,0.06,2.619,0.283,3.787,0.16
	c0.277-0.036,0.527-0.147,0.791-0.16c0.578-0.023,1.145,0.106,1.73,0.083c4.578-0.177,9.758-0.159,14.684-0.159
	c2.131,0,4.309-0.083,6.471,0c2.152,0.076,4.396,0.254,6.469,0.076c3.695-0.324,8.025-0.07,11.994-0.235
	c2.725-0.118,5.445-0.083,8.123-0.083c5.271,0,10.543,0,15.625,0c1.605,0,3.359,0.271,4.896-0.389c-0.076-0.903,0.098-1.812,0-2.768
	c-0.039-0.342-0.189-0.678-0.232-1.021c-0.318-2.254-0.084-4.726-0.084-7.103c0-8.508,0.084-16.266,0.084-24.938
	c0-3.923-0.242-7.899-0.242-11.758c0-2.018,0-4.035,0-5.999c0-2.042-0.145-4.089,0-5.994c0.029-0.407,0.189-0.85,0.242-1.263
	c0.104-0.944,0.127-1.918,0.307-2.844c0.295-0.283,0.504-0.655,0.791-0.944c0.691-1.758,0.799-3.729,1.031-5.84
	c-0.174-0.413-0.648-0.413-0.631-0.861c0.006-0.343,0.684-0.708,0.941-1.033c0.602-0.749,0.994-1.876,1.105-2.755
	c-0.717-0.366-1.461-0.696-1.973-1.269c0.008-0.489,0.121-0.92-0.156-1.021c-0.393-0.165-0.867-0.13-1.416-0.159
	c-0.469-0.029-1.154,0.076-1.508-0.083c-0.549-0.247-0.572-0.902-1.1-1.186c-0.301,0.219-0.457,0.555-0.947,0.638
	c-0.553,0.088-1.168-0.042-1.582-0.077c-0.135-0.248-0.338-0.289-0.393-0.561c-0.111-0.584,0.438-1.091,0.709-1.422
	c-0.227-0.607-0.514-1.156-0.941-1.575c0.209-1.269-0.068-2.478,0.232-3.393c0.438-1.339,1.844-2.123,1.893-3.704
	c0.441-0.295,0.945-0.537,1.264-0.95c-0.371-0.679-0.318-1.787-0.318-2.838c1.236-1.05,2.486-2.165,3.789-3.079
	c0.469-0.325,0.994-0.537,1.424-0.867c0.693-0.543,1.363-1.499,1.891-2.213c0.631-0.844,1.174-1.616,1.264-2.914
	c-0.021-0.318-0.219-0.206-0.316-0.561c0.039-0.33,0.34-0.396,0.242-0.867c-0.137-0.248-0.408,0.431-0.559,0.159
	c0.107-0.613,0.422-1.032,0.316-1.658c0.58-0.524,1.197-1.015,1.74-1.581c0.074-0.336,0.141-0.689,0.232-1.021
	c0.951-1.186,1.334-2.648,1.814-4.336c0.232-0.826,0.762-1.569,0.949-2.289c0.098-0.396,0.039-0.809,0.158-1.186
	c0.42-1.369,1.734-2.343,1.498-4.101c0.361-0.561,1.031-0.944,1.498-1.657c0.227-0.349,0.271-0.82,0.551-1.187
	c0.258-0.33,0.783-0.555,1.033-0.873c0.111-0.142,0.301-0.519,0.467-0.79c0.324-0.496,0.994-1.717,0.873-2.36
	C333.146,117.32,332.508,116.843,332.201,116.513z"/>
</svg>
