<?xml version="1.0" encoding="utf-8"?>
<!-- Generator: Adobe Illustrator 16.0.0, SVG Export Plug-In . SVG Version: 6.00 Build 0)  -->
<!DOCTYPE svg PUBLIC "-//W3C//DTD SVG 1.1//EN" "http://www.w3.org/Graphics/SVG/1.1/DTD/svg11.dtd">
<svg version="1.1" id="Calque_1" xmlns="http://www.w3.org/2000/svg" xmlns:xlink="http://www.w3.org/1999/xlink" x="0px" y="0px"
	 width="432px" height="432px" viewBox="0 0 432 432" enable-background="new 0 0 432 432" xml:space="preserve">
<path fill-rule="evenodd" clip-rule="evenodd" d="M86.906,237.432c70.173,0,140.354,0,210.53,0c0.637-1.729,1.853-2.708,3.12-3.729
	c0.307-0.254,0.578-0.537,0.944-0.743c0.632-0.366,1.133-0.525,1.841-0.749c1.238-0.396,2.974-0.655,4.672-0.479
	c0.773,0.083,1.428,0.467,2.172,0.814c0.714,0.342,1.693,0.761,2.377,0.613c0.248-0.053,0.425-0.289,0.685-0.472
	c0.254-0.188,0.531-0.324,0.743-0.478c0.502-0.366,0.867-0.867,1.357-1.015c0.478-0.007,0.914-0.147,1.428-0.142
	c0.596,0.012,1.191,0.289,1.764,0.271c0.248-0.006,0.531-0.154,0.814-0.201c1.038-0.188,1.77-0.359,2.578-0.679
	c0.242-0.177,0.342-0.607,0.607-0.743c0.153-0.088,0.401-0.035,0.613-0.07c0.271-0.048,0.484-0.178,0.673-0.201
	c0.483-0.064,0.95,0.06,1.362-0.206c1.139-0.737,0.101-2.183,0.473-3.664c0.743-0.66,1.746-1.056,2.708-1.498
	c0.241-0.525,0.737-0.791,0.956-1.352c0.53-0.041,0.961-0.466,1.421-0.743c0.448-0.283,0.909-0.531,1.292-0.885
	c0.207-0.194,0.336-0.401,0.543-0.543c0.454-0.318,1.039-0.425,1.492-0.678c0.271-0.154,0.432-0.396,0.673-0.473
	c0.23-0.082,0.52-0.018,0.749-0.076c0.236-0.048,0.479-0.136,0.685-0.195c0.425-0.142,0.903-0.248,1.286-0.478
	c0.307-0.183,0.661-0.584,0.95-0.879c0.318-0.337,0.466-0.873,0.813-1.092c0.225-0.142,1.068-0.142,1.493-0.064
	c1.097-0.596,2.731-0.661,3.186-1.899c-0.289-0.118-0.136-0.396-0.2-0.549c-0.254-0.537-0.809-0.756-1.156-1.15
	c-0.354-0.407-0.566-0.879-0.814-1.422c-0.413,0.018-0.726-0.195-1.221-0.271c-0.331-0.213-0.461-0.619-0.673-0.95
	c-0.655-0.229-1.092-0.537-1.428-1.015c-0.313-0.454-0.307-0.974-0.543-1.428c-0.372-0.737-1.079-1.026-1.499-1.628
	c-1.12-0.213-1.657-0.997-2.301-1.699c0.131-0.366-0.135-0.767-0.342-1.015c-0.118-1.216-0.637-2.023-1.628-2.378
	c-0.638-0.082-1.717,0.165-2.644,0.207c-0.301-0.313-0.525-0.614-0.678-1.086c-0.148-0.46-0.16-0.933-0.271-1.362
	c0.501-0.814,0.289-2.048,0.206-3.121c-0.041-0.455,0.089-1.063-0.071-1.493c-0.088-0.235-0.471-0.519-0.742-0.808
	c-0.537-0.572-0.844-0.891-1.493-1.15c-1.103-0.13-1.675,0.271-2.584,0.33c-0.194-0.136-0.372-0.307-0.613-0.401
	c-0.112-0.619-0.159-1.162-0.06-1.835c0.029-0.218,0.142-0.572,0.136-0.749c-0.012-0.39-0.313-0.714-0.271-1.085
	c0.053-0.644,0.825-0.95,0.607-1.623c-0.131-0.396-0.225-0.165-0.473-0.342c-0.4-0.271-0.489-0.508-0.271-1.021
	c0.201-0.484,0.331-0.927,0.602-1.286c-0.035-0.437-0.359-0.584-0.406-1.015c0.531-0.302,0.489-1.222,1.092-1.428
	c0.307-0.106,0.478,0.088,0.943,0.07c0.118-0.318,0.584-0.271,0.82-0.478c0.242-0.184,0.46-0.401,0.809-0.473
	c0.295-0.819,1.097-1.415,0.748-2.648c0.201-0.177,0.432-0.136,0.608-0.194c0.259-0.101,0.359-0.147,0.548-0.349
	c0.378-0.395,0.443-1.115,0.337-1.628c-0.142-0.638-0.968-1.068-0.808-1.693c-0.85-0.661-1.328-1.781-1.971-2.714
	c-0.254-0.354-0.561-0.561-0.543-0.885c0.064-1.068,1.41-1.203,2.242-1.558c0.183-0.083,0.354-0.266,0.542-0.342
	c0.242-0.101,0.508-0.106,0.673-0.201c0.867-0.507,1.463-1.711,2.236-2.442c0.318-0.289,0.684-0.478,0.955-0.678
	c0.313-0.236,0.702-0.426,0.75-0.814c-0.113-0.124-0.213-0.248-0.343-0.343c-0.159-0.041-0.431,0.289-0.407,0
	c0.101-0.383,0.473-0.383,0.75-0.542c0.259-0.154,0.489-0.354,0.742-0.543c0.254-0.184,0.479-0.349,0.75-0.543
	c0.689-0.496,0.961-0.944,1.492-1.628c0.708-0.927,1.222-1.782,1.693-2.921c0.213-0.229-0.295-0.324-0.136-0.749
	c0.307-0.083,0.153-0.448,0.271-0.602c0.071-0.101,0.171-0.012,0.266-0.136c0.118-0.142,0.118-0.419,0.342-0.479
	c0.095-0.59,0.283-1.05,0.543-1.427c0.537-0.779,1.604-1.021,1.835-2.101c1.05-0.147,1.469-0.926,2.1-1.486
	c0.36,0.053,0.697-0.13,1.021-0.207c0.324-0.082,0.802-0.012,0.949-0.348c0.425-0.442-0.029-0.75-0.141-0.938
	c-0.148-0.283-0.319-0.696-0.537-0.885c-0.372-0.324-0.962-0.401-1.15-0.82c0.158-0.324,0.141-0.896-0.071-1.215
	c-0.561-0.083-1.38,0.094-1.964,0.206c-0.438-0.018-0.555-0.672-1.086-0.755c-0.313-0.041-0.714,0.242-1.021,0.212
	c-0.453-0.059-0.879-0.489-1.356-0.542c-0.425-0.054-0.53,0.053-0.95,0.13c-0.713-0.644-1.025-1.693-2.035-2.042
	c-0.466-0.094-1.422,0.372-2.035,0.077c-0.153-0.413-0.413-0.726-0.342-1.357c-0.607-0.277-0.762-1.003-1.216-1.428
	c-0.089-1.729-1.853-2.348-2.442-3.799c0.242-0.384,0.896-0.413,1.009-0.944c0.101-0.46-0.289-0.974-0.33-1.569
	c-0.029-0.307,0.095-0.596,0.065-0.879c-0.06-0.448-0.414-0.832-0.479-1.292c-0.142-1.104,0.413-1.977-0.13-2.772
	c0.023-0.343,0.295-0.431,0.2-0.885c-0.4-0.065-0.395-0.413-0.684-0.549c-0.36-0.159-0.702,0.136-1.28-0.065
	c-0.024-1.15,1.368-0.891,1.492-1.894c-0.241-0.254-0.536-0.365-0.813-0.483c-0.301-0.124-0.673-0.118-0.891-0.401
	c-0.137-0.195-0.019-0.207-0.06-0.413c-0.136-0.584-0.991-0.861-1.362-0.879c-0.23-0.006-0.195,0.041-0.402-0.071
	c-0.542-0.271-0.519-0.838-1.091-1.085c-0.13,0.212-0.331,0.059-0.537,0.076c-0.679,0.042-1.31,0.189-1.841,0.401
	c-0.248-0.206-0.648-0.248-1.079-0.271c-0.183-0.407-0.437-0.749-0.608-1.15c0.195-0.873-0.094-1.469-0.342-2.105
	c-0.354-0.897-0.625-1.352-1.699-1.287c-0.242-0.566-0.796-0.837-1.156-1.291c0.142-0.36-0.041-0.572-0.135-0.886
	c-0.331,0.054-0.402-0.177-0.537-0.33c-64.73-0.165-130.334-0.029-195.266-0.077c-0.165-4.318,0.118-8.99-0.064-13.297
	c-0.006-0.195,0.147-0.673-0.201-0.744c-0.023,0-0.047,0-0.076,0c-0.979,0.502-2.053,0.927-2.844,1.629
	c-0.23-0.041-0.348-0.195-0.685-0.136c-0.554,0.524-1.321,0.466-1.964,0.743c-0.307,0.136-0.566,0.466-0.885,0.613
	c-0.449,0.207-0.938,0.266-1.357,0.473c-0.184,0.094-0.295,0.229-0.467,0.342c-0.203,0.124-0.422,0.165-0.616,0.271
	c-1.439,0.784-2.61,1.847-4.136,2.442c-0.336,0.13-0.755,0.188-1.085,0.342c-0.442,0.201-0.814,0.543-1.292,0.75
	c-0.514,0.212-1.021,0.448-1.631,0.466c0.135-0.584,0.501-0.944,0.885-1.286c0.469,0.188,0.938-0.183,1.424-0.207
	c0.641,0.06,0.732-0.442,0.814-0.949c-0.342,0.018-0.743-0.23-1.086-0.201c-0.318,0.03-0.613,0.325-0.949,0.473
	c-0.419,0.188-0.803,0.2-1.018,0.407c-0.28,0.283-0.451,0.825-0.679,1.221c-0.239,0.431-0.403,0.879-0.675,1.222
	c-1.23,0.666-2.522,1.091-3.667,1.834c-1.145,0.744-2.437,1.181-3.661,1.829c-0.315-0.112-0.628,0.035-0.949,0.077
	c-0.336,0.029-0.702-0.036-1.021,0.059c-0.221,0.077-0.568,0.354-0.813,0.543c-0.269,0.206-0.478,0.466-0.747,0.613
	c-0.808,0.442-1.825,0.702-2.713,1.015c-0.186,0.071-0.299,0.213-0.473,0.277c-0.354,0.13-0.811,0.083-1.021,0.473
	C86.814,157.604,86.95,197.604,86.906,237.432z"/>
</svg>
