<svg version="1.1" id="Calque_1" xmlns="http://www.w3.org/2000/svg" xmlns:xlink="http://www.w3.org/1999/xlink" x="0px" y="0px"
	 width="432px" height="332px" viewBox="0 0 432 332" enable-background="new 0 0 432 332" xml:space="preserve" fill="#FFF">
<path fill-rule="evenodd" clip-rule="evenodd" d="M237.158,79.614c-0.023,0-0.047,0-0.076,0c-3.451,0.248-7.203,0.195-10.803,0.354
	c-6.754,0.307-13.574,0.413-20.359,0.696c-5.232,0.224-10.094,0.2-15.162,0.425c-8.465,0.384-17.121,0.519-25.48,0.844
	c0.301,7.003,0.242,14.076,0.561,21.197c0.467,10.684,0.373,21.297,0.844,31.94c0.189,4.383,0.076,8.808,0.283,13.197
	c0.148,3.38,0.131,6.855,0.131,10.389c0,15.398-1.34,29.864-1.818,44.365c-0.076,0.431,0.467,0.23,0.355,0.702
	c-1.098,0.844-2.184-0.454-3.658-0.212c-0.484,0.076-1.191,0.561-1.752,0.914c-0.645,0.407-1.281,0.643-1.688,0.985
	c-0.148,0.124-0.797,0.796-0.844,0.908c-0.102,0.26-0.219,1.734-0.137,2.318c0.061,0.413,0.443,0.731,0.703,1.192
	c0.053,0.105,0.006,0.235,0.07,0.348c0.172,0.324,0.49,0.578,0.561,0.92c0.129,0.644-0.059,1.588-0.141,2.101
	c-0.055,0.307-0.084,0.685-0.137,0.915c-0.076,0.289-0.324,0.584-0.354,0.914c-0.207,2.242,1.834,3.369,0.979,5.121
	c-0.855,1.085-2.248,1.634-3.156,2.672c0.035,0.892-0.359,1.222-0.771,1.753c-0.26,0.336-0.514,0.714-0.844,0.837
	c-0.855,0.337-2.438-0.035-3.439,0.213c-0.289,0.076-0.85,0.501-0.91,0.631c-0.146,0.307-0.012,0.649,0,1.057
	c1.477,0.643,2.65-0.968,4.207-0.496c-0.059,0.242,0.041,0.708,0.283,0.844c0.984-0.194,1.693-0.838,2.313-1.263
	c0.59-0.396,1.311-0.66,1.971-0.914c1.977-0.743,4.313-1.139,6.809-1.54c1.469-0.242,2.783-0.672,4.283-0.844
	c0.471-0.047,1.02-0.212,1.404-0.212c0.465-0.006,1.025,0.218,1.545,0.212c0.908-0.006,2.041-0.336,3.162-0.425
	c0.479-0.029,0.955,0.042,1.398,0c0.902-0.07,1.906-0.295,2.531-0.561c0.725-0.295,1.326-0.867,1.965-1.262
	c0.719-0.442,1.379-0.714,2.24-0.979c3.223-1.021,6.479-2.33,9.553-3.375c0.725-0.242,1.398-0.549,2.1-0.696
	c0.119-0.029,0.189-0.118,0.283-0.142c0.938-0.235,1.9-0.159,3.016-0.277c0.5-0.064,1.002-0.283,1.545-0.424
	c0.537-0.143,1.121-0.207,1.617-0.354c0.984-0.289,1.928-0.79,2.949-0.985c1.752-0.318,3.705,0.101,5.197-0.277
	c0.377-0.094,0.703-0.342,1.121-0.425c0.336-0.059,0.727,0.101,1.057-0.136c0.07-0.4,0.307-0.997,0.064-1.61
	c0.16-0.177,0.189-0.472,0.213-0.772c0.637-1.181,1.15-2.644,1.539-3.936c0.148-0.472,0.377-0.885,0.49-1.333
	c0.117-0.442,0.012-0.927,0.219-1.339c0.365,0.088,0.471-0.007,0.908,0c0.59,0.424,0.307,1.05,0.424,1.622
	c0.096,0.46,0.508,0.813,0.631,1.333c0.09,0.366-0.018,0.779,0,1.191c0.012,0.331,0.119,0.661,0.066,1.057
	c-0.633,1.304-2.09,1.787-2.945,2.873c0.113,0.13,0.029,0.654,0.137,1.05c0.453,0.153,0.779,0.502,1.197,0.702
	c0.438,0.219,0.896,0.39,1.404,0.566c0.66,0.649,0.926,1.693,2.17,1.752c0.219-0.324,0.373-0.524,0.426-0.908
	c0.053-0.419-0.154-0.82-0.137-1.197c0-0.207,0.125-0.566,0.207-0.844c0.213-0.708,0.438-1.098,0.773-1.611
	c0.549-0.819,1.121-1.457,1.682-2.171c0.82-1.05,1.422-2.171,2.182-3.026c-0.012-0.543,0.367-0.749,0.414-1.263
	c0.123-1.108-0.619-2.472-0.414-3.581c0.131-0.749,1.156-1.469,1.895-1.822c0.33-0.154,0.756-0.195,1.051-0.354
	c0.359-0.188,0.531-0.501,0.844-0.696c0.035-0.896,0.506-1.368,0.844-1.964c-0.254-1.003-0.98-2.773,0.07-3.446
	c0.73,0.13,0.943-0.265,1.332-0.489c-0.135-0.407,0.066-0.796,0.137-1.191c-0.26-0.873-0.932-2.029-0.42-2.879
	c-0.73-1.876,0.768-3.121,0.844-4.702c0.125-2.584-0.512-4.514-1.268-6.39c0.029-0.301,0.195-0.466,0.219-0.772
	c-0.178-0.13-0.543-0.071-0.709-0.213c0.148-0.165,0.041-0.507-0.135-0.561c0-0.235,0.365-0.307,0.135-0.561
	c-0.318-1.062-1.811-1.244-1.752-2.454c-0.301-0.454-0.961-0.619-1.262-1.056c-0.143-0.194-0.041-0.489-0.283-0.631
	c0.219-0.136,0.111-0.59,0.213-0.844c1.203,0.33,1.934-0.184,2.807-0.49c0.633-0.218,1.404-0.301,2.102-0.489
	c1.191-0.318,1.982-0.708,2.523-1.404c0.025-0.425,0.102-0.997-0.135-1.475c-0.4-0.283-0.996-0.354-1.475-0.566
	c-0.076-0.271-0.391-0.307-0.49-0.561c0.432-0.809,1.299-1.18,1.965-1.752c-0.254-1.021-1.15-1.381-1.475-2.242
	c0.207-0.006,0.814-0.035,1.121-0.147c0.205-1.038-0.359-1.899-0.484-2.809c-0.07-0.495,0.041-1.026,0-1.545
	c-0.006-0.06-0.135-0.189-0.146-0.277c-0.16-1.039-0.213-1.87,0-2.879c-0.615-0.714-1.941-0.985-2.662-1.617
	c-0.242-0.2-0.082-0.235-0.354-0.277c-0.354-0.059-0.902,0.219-1.262,0.349c-0.426,0.153-0.791,0.318-1.27,0.425
	c-0.111-0.307-0.584-0.26-0.695-0.561c0.041-1.263-0.213-2.225-0.143-3.517c0.75-0.348,1.576-0.018,2.385,0.071
	c1.355,0.159,2.807,0.082,4.146,0.289c0.395-0.171,0.271-0.85,0.697-0.985c0.059,0.673,0.529,0.997,1.055,1.121
	c0.555,0.136,1.156-0.289,1.404,0.218c-0.07,0.602-0.336,1.009-0.418,1.611c0.771,0.689,1.049,1.894,2.66,1.752
	c0.938-0.714,0.266-2.242,0.707-3.304c0.125-0.283,0.449-0.603,0.633-0.838c0.229-0.307,0.506-0.537,0.701-0.844
	c0.07-1.121,0.129-2.885,0-4.212c0.768-0.467,2.076-0.401,2.66-1.051c-0.537-0.814-1.764-0.359-2.66-0.495
	c-1.002-0.142-2.336-0.938-2.461-1.823c-0.029-0.213,0.113-0.637,0.143-1.05c0.035-0.525-0.082-1.121,0-1.481
	c0.123-0.549,0.59-0.643,0.701-1.05c-0.412,0.065-0.26-0.437-0.561-0.489c-0.199-0.16-0.631-0.071-0.707-0.354
	c0.012-0.814-0.4-1.51-0.561-2.313c-0.111-0.625-0.012-1.286-0.135-1.894c-0.055-0.266-0.213-0.514-0.283-0.773
	c-0.213-0.79-0.225-1.599-0.207-2.53c0.295-0.448,0.631-0.861,0.844-1.398c-0.23-0.407-0.449-0.82-0.703-1.198
	c-0.584-0.152-1.084-0.448-1.41-0.908c-0.389-0.561-0.506-1.333-0.844-1.971c-0.229-0.442-0.789-0.678-0.625-1.191
	c0.131-0.289,0.803-0.248,1.121-0.142c0.248-0.384,0.744-0.519,0.703-1.191c1.02-0.106,0.885-1.18,1.262-1.965
	c0.23-0.478,0.566-0.643,0.703-1.056c0.064-1.039,0.453-2.896,1.262-3.652c0.348,0.289,0.803,0.467,0.984,0.915
	c-0.188,0.407-0.018,0.997-0.07,1.469c-0.236,2.153-1.988,3.569-2.105,5.622c-0.732,0.248-0.814,1.15-1.051,1.894
	c0.26,0.803,1.299,1.192,1.895,2.036c0.377,0.542,0.572,1.48,0.844,2.247c0.289,0.85,0.689,1.658,0.625,2.454
	c-0.047,0.655-0.391,1.257-0.484,1.971c0.289,0.525,0.908,0.72,1.398,1.051c-0.006,0.406,0.213,0.59,0.354,0.843
	c-0.254,0.401,0.113,1.127,0.213,1.611c0.219,0.229,0.502-0.201,0.695,0c0.502,0.46,1.145,1.091,1.057,1.899
	c0.236,0.254,0.33-0.318,0.566-0.071c0.508,0.661,0.955,1.381,0.973,2.525c0.379,0.283,0.537,0.838,1.127,0.985
	c0.166,0.041,0.479-0.006,0.703,0c1.445,0.018,2.088,0.442,2.873,0.914c0.088,0.455,0.525,0.756,0.707,1.192
	c0.178,0.413,0.102,0.955,0.49,1.262c0.354,0.048,0.52-0.1,0.773-0.142c0.029-1.439,0.92-2.029,1.262-3.15
	c-0.307-3.51-5.197-3.038-4.354-7.232c-0.064-0.384-0.543-0.348-0.418-0.92c0.535-0.432,1.521-0.419,1.828,0.076
	c0.313,0.514-0.266,1.693,0,2.384c0.277,0.72,1.057,1.575,1.682,1.829c0.324,0.123,0.771,0.129,1.262,0.135
	c0.166-0.53,0.166-1.162,0.426-1.616c0.117-0.2,0.33-0.277,0.488-0.425c0.154-0.136,0.26-0.472,0.49-0.342
	c-0.006,0.26,0.271,0.235,0.496,0.277c0.1,0.625,0.549,1.127,0.561,1.828c0.006,0.603-0.295,1.316-0.354,2.036
	c-0.049,0.685-0.025,1.356-0.143,2.029c-0.348,0.631-0.625,1.263-0.979,1.899c-0.332,0.607-0.773,1.245-0.986,1.965
	c-0.307,1.062,0.047,2.348-0.135,3.793c-0.438,0.52-0.986,1.098-1.41,1.617c-0.402,0.489-0.68,0.926-0.768,1.681
	c-0.1,0.826,0.082,1.817,0.137,2.809c0.277,0.07,0.258,0.442,0.424,0.631c0.438-0.035,0.49,0.302,0.979,0.213
	c0.916-1.08,1.17-2.809,2.391-3.581c0.047,0.229,0.336,0.224,0.631,0.212c0.49,0.979,1.623,1.522,1.895,2.661
	c0.117,0.483,0.223,0.82,0.424,1.269c0.377,0.112,0.484,0.495,0.908,0.561c0.301-0.195,0.584-0.396,0.844-0.632
	c0-0.507,0.189-1.209,0.631-1.475c-0.193-1.646,1.547-1.911,2.455-2.667c0.064-0.472,0.473-0.726,0.496-1.12
	c0.012-0.236-0.189-0.549-0.277-0.844c-0.301-0.927-0.613-1.646-1.057-2.319c-0.631-0.967-1.527-1.764-1.828-2.737
	c-0.16-0.53-0.342-1.563,0.146-1.899c0.396,0.336,0.691,0.861,1.051,1.48c0.33,0.566,0.561,1.328,0.979,1.546
	c0.09,0.035,0.549,0.136,0.633,0.136c0.246,0.006,0.842-0.147,1.049-0.277c0.432-0.271,0.484-0.844,0.637-1.339
	c0.154-0.496,0.467-1.18,0.42-1.61c-0.023-0.242-0.324-0.649-0.561-0.979c-1.463-2.06-3.576-4.578-4.844-6.466
	c-0.406-0.112-0.727-0.354-1.121-0.561c-0.371-0.195-0.896-0.313-1.197-0.561c-0.225-0.188-0.236-0.537-0.49-0.696
	c-0.152-0.106-0.471-0.047-0.701-0.147c-0.213-0.089-0.414-0.378-0.631-0.489c-0.096-0.048-0.295-0.083-0.42-0.143
	c-0.412-0.194-0.514-0.159-0.914-0.212c-2.254-1.197-4.596-2.318-6.809-3.575c0-0.607,0-1.215,0-1.823
	c-0.436-0.69-1.369-0.938-1.688-1.758c-0.213-0.555-0.006-1.145-0.064-1.758c-0.029-0.23-0.207-0.502-0.277-0.773
	c-0.271-0.92-0.561-1.816-0.707-2.66c0.17-0.271,0.578-0.295,0.836-0.638c0.236-0.295,0.797-1.834,0.773-2.171
	c-0.029-0.584-0.637-0.879-0.695-1.41c0.295-0.495,0.494-0.943,0.766-1.475c0.254-0.46,0.738-0.991,0.773-1.54
	c0.023-0.324-0.17-0.813-0.277-1.262c-0.094-0.413-0.188-0.861-0.283-1.269c-0.176-0.814-0.52-1.711-0.561-2.525
	c-0.053-1.032,0.248-1.917,0.277-3.021c-2.76,0.188-5.35,0.543-8,0.844c0.119-8.537,0.336-17.676,0.426-26.254
	C237.254,79.614,237.199,79.614,237.158,79.614z"/>
<path fill-rule="evenodd" clip-rule="evenodd" d="M264.674,174.663c-0.053,0.342,0.248,0.607,0.355,0.985
	c0.129,0.501,0.047,1.079,0.064,1.752c0.277,0.349,0.803,0.378,1.121,0.632c0.164,0.129,0.234,0.336,0.354,0.489
	c0.135,0.183,0.248,0.33,0.418,0.495c0.043,0.632-0.66,1.198-0.625,1.895c0.012,0.301,0.33,0.607,0.42,0.914
	c0.289,0.991,0.158,2.543,1.121,2.873c-0.254,0.915-0.998,1.487-0.844,2.46c0.094,0.608,0.754,1.115,1.127,1.682
	c0.313,0.472,0.783,1.098,0.984,1.546c0.254,0.59,0.135,1.162,0.49,1.752c-0.184,0.896-0.438,1.876-0.709,2.525
	c-0.082,0.229-0.117,0.501-0.205,0.714c-0.137,0.318-0.479,0.572-0.42,0.908c0.277,0.188,0.49,0.448,0.908,0.489
	c0.773-0.377,1.486-1.079,2.455-1.268c0.66-0.118,1.363,0.006,1.965-0.343c-0.078-0.365-0.184-0.702-0.131-1.197
	c0.443,0.047,0.578-0.626,0.975-0.844c0.59,0.035,0.879-0.596,1.41-0.844c0.211-0.095,0.482-0.053,0.701-0.142
	c0.543-0.212,0.844-0.778,1.334-0.979c0.129-0.524,0.625-0.69,0.488-1.475c0.35-0.607,0.721-1.032,1.334-1.333
	c0.637-0.313,1.51-0.266,2.172-0.632c-0.195-0.761,0.082-1.533,0-2.241c-0.049-0.52-0.426-0.974-0.131-1.41
	c-0.389-0.726-0.467-1.729-0.566-2.731c-0.207-2.018-0.418-4.177-0.631-6.325c-0.266-2.607-0.648-4.961-0.697-7.58
	c-0.377-0.702-1.633-1.393-1.834-2.172c-0.123-0.519,0.1-1.067,0-1.828c0.578-1.133,1.293-2.13,1.834-3.298
	c-1.043-1.617-0.018-4.39,0.201-6.177c-2.531-0.396-4.955-0.892-7.434-1.334c-0.023-0.242,0.053-0.572-0.076-0.702
	c-1.705-0.33-2.955-1.091-4.135-1.758c-0.178,0.431-0.254,0.708-0.42,1.197c-0.283,0.779-0.779,1.458-0.914,2.248
	c-0.07,0.366-0.012,0.749-0.076,1.121c-0.184,1.085-0.584,2.124-0.844,3.156c-0.125,0.543-0.012,1.216-0.066,1.829
	c-0.135,1.781-0.17,3.569,0.213,5.397c0.342,0.632,1.004,1.115,0.98,1.829c-0.018,0.425-0.455,0.979-0.703,1.398
	c-0.289,0.489-0.584,0.943-0.773,1.345c0.615,0.832,0.484,2.153,0.633,3.363c0.059,0.454,0.342,0.914,0,1.269
	C265.678,174.298,265.023,174.032,264.674,174.663z"/>
<path fill-rule="evenodd" clip-rule="evenodd" d="M242.002,159.147c0.184,0.33,0.555,0.625,0.908,0.844
	c0.756,0.466,1.445,0.838,2.602,0.844c0.154,0.631,0.549,0.914,0.561,1.545c0.006,0.307-0.141,0.584-0.211,0.915
	c-0.072,0.348-0.102,0.666-0.207,0.979c-0.189,0.536-0.549,1.044-0.709,1.61c-0.1,0.39-0.152,1.232-0.07,1.964
	c0.059,0.49,0.107,1.109,0.213,1.41c0.076,0.201,0.861,0.915,1.057,0.979c0.625,0.219,0.844-0.035,1.332-0.348
	c0.832-0.531,1.092-0.879,1.752-1.688c0.732-0.885,1.092-1.823,1.547-2.944c0.236-0.584,0.537-1.191,0.637-1.616
	c0.371-1.657-0.572-2.177-1.127-3.156c-1.516-0.661-2.791-1.558-4.213-2.318c-0.725-0.826-0.223-2.537-0.418-3.794
	c-0.119-0.755-0.531-1.174-0.914-1.545c-0.324,0-0.656,0-0.986,0c-0.725,0.926-0.188,2.212,0.143,3.304
	C243.088,156.964,241.855,157.365,242.002,159.147z"/>
<path fill-rule="evenodd" clip-rule="evenodd" d="M264.043,155.572c-0.713,0.495-1.002,1.263-1.758,1.752
	c-1.045,0.679-2.549,0.632-3.51,1.475c-0.119,0.136-0.078,0.431-0.207,0.561c-0.213,0.054-0.207-0.124-0.424-0.07
	c-0.408,0.425-0.455,0.943-0.91,1.404c-0.229,0.235-0.578,0.289-0.844,0.489c-0.824,0.637-1.121,1.327-1.268,2.531
	c-0.094,0.838-0.064,1.445-0.277,2.105c-0.295,0.254-0.502,0.62-0.701,0.979c-0.207,0.366-0.479,0.714-0.633,1.05
	c-0.33,0.727-0.395,1.582-0.631,2.325c-0.23,0.702-0.549,1.463-0.914,2.101c-0.365,0.648-0.855,1.132-1.262,1.687
	c-0.438,0.596-0.721,1.239-1.127,1.894c-0.604,1.6-0.791,3.605-0.697,5.895c-0.047,0.165-0.236,0.194-0.277,0.354
	c-0.201,0.012-0.035,0.401-0.283,0.348c-0.482-0.117-1.031-0.183-1.545-0.277c-0.012,0.195-0.354,0.325-0.42,0.561
	c-0.188,0.649,0.361,1.063,0.484,1.623c0.076,0.318-0.041,0.749,0,1.257c0.023,0.235,0.154,0.466,0.148,0.702
	c-0.012,0.66-0.219,1.593-0.148,2.318c0.082,0.695,0.49,1.197,0.566,1.752c0.064,0.501-0.189,0.797,0.07,1.127
	c-0.418,0.147-0.85,0.46-1.332,0.702c-0.584,0.283-1.234,0.749-1.688,0.554c-0.184-0.4-0.225-0.943-0.426-1.327
	c-0.785,0.525-1.32,1.292-2.1,1.823c-0.295,0.336-0.744,0.549-1.121,0.844c-0.383,0.295-0.82,0.666-0.844,1.121
	c-0.018,0.342,0.271,0.737,0.42,1.056c0.164,0.349,0.348,0.619,0.424,1.056c0.371,0.112,0.721,0.26,1.051,0.419
	c0.566-0.566,1.604-0.914,2.389-0.354c0.82-0.626,1.965-0.933,2.738-1.616c1.037,0.295,1.539,1.127,2.66,1.333
	c0.453-0.761,0.383-1.581,0.773-2.313c0.152-0.277,0.553-0.413,0.707-0.702c0.117-0.23,0.064-0.531,0.135-0.844
	c0.178-0.797,0.277-1.575,0.355-2.525c0.453-0.613,1.676-0.578,2.453-0.495c0.391,0.324,0.715,0.667,1.197,0.631
	c0.832-0.047,1.027-1.286,1.754-1.469c1.379,0.283,2.412,0.908,2.949,2.035c-0.1,0.277-0.266,0.479-0.207,0.909
	c0.207,0.142,0.402,0.295,0.768,0.289c0.471-0.626,0.678-1.528,0.844-2.461c-0.354-0.59-0.738-1.139-0.986-1.828
	c0.402-0.626,0.396-1.41,0.633-2.035c0.359-0.933,1.227-1.57,1.609-2.525c0.219-0.537,0.408-1.197,0.496-1.823
	c0.082-0.555-0.088-1.015,0.141-1.688c-0.271-0.354-0.867-0.819-0.984-1.339c-0.148-0.648,0.1-1.604,0-2.525
	c-0.064-0.684-0.336-1.368-0.348-1.964c-0.006-0.585,0.076-1.204,0.141-1.753c0.064-0.596,0.102-1.145,0.207-1.616
	c-0.443-1.05-1.398-1.604-1.469-2.879c-0.047-0.731,0.236-1.292,0.342-1.823c0.236-1.133,0.389-2.224,0.426-3.232
	c0.541-0.537,1.434-0.561,2.176-0.844c0.313-0.112,0.508-0.454,0.844-0.413c0.584-0.72,0.449-2.673,0.283-3.651
	C264.721,157.283,264.875,155.654,264.043,155.572z"/>
<path fill-rule="evenodd" clip-rule="evenodd" d="M254.916,158.935c0.656-0.336,0.891-1.18,0.844-2.029
	c-0.365-0.177-0.648-0.431-1.121-0.489c-0.477,0.389-1.203,0.53-1.332,1.257c0.088,0.241,0.252,0.4,0.205,0.772
	C253.914,158.675,254.332,158.894,254.916,158.935z"/>
<path fill-rule="evenodd" clip-rule="evenodd" d="M233.648,195.507c-0.283,0.838-0.371,1.48,0.076,1.899
	c1.334-0.147,1.859-1.445,1.959-2.596c0.225-0.266,0.572-0.407,0.908-0.561c0.361-0.814,0.307-1.699,0.844-2.39
	c0.391-0.082,0.82,0.018,1.334,0c1.393-0.053,2.324-0.555,1.965-1.965c-0.072-0.318-0.484-0.672-0.625-1.12
	c-0.113-0.349,0.059-0.679-0.213-0.915c0.395-0.838,0.99-1.492,1.332-2.383c-0.188-0.738-0.908-0.997-1.119-1.688
	c-0.195-0.632,0.064-1.15,0.135-1.546c0.201-1.104-0.117-2.425,0-3.581c0.195-0.631,1.033-1.48,0.984-2.531
	c-0.012-0.301-0.295-0.672-0.348-1.05c-0.07-0.431,0.059-0.873,0-1.263c-0.164-1.026-0.742-1.416-1.268-1.894
	c-0.803-0.206-0.803,0.277-1.469,0.142c-0.891,1.127-1.434,2.596-1.9,4.142c0.219,1.056-0.371,1.676-0.277,2.944
	c-0.484,0.949-1.057,2.082-0.844,3.368c0.047,0.295,0.289,0.679,0.42,1.056c0.141,0.401,0.199,0.879,0.354,1.192
	c0.207,0.437,0.543,0.873,0.768,1.269c0.105,0.171,0.182,0.253,0.283,0.418c-0.303,0.62-0.225,1.646-0.207,2.384
	c-1.252,0.188-2.365-0.584-3.016,0.219c-0.242,1.74,0.879,3.545,0.414,5.397C234.055,194.793,233.771,195.158,233.648,195.507z"/>
<path fill-rule="evenodd" clip-rule="evenodd" d="M208.58,256.868c-0.365-0.861-0.914-1.521-1.326-2.248
	c-0.572-1.009-1.27-2.271-1.264-3.723c0.006-0.984,0.52-1.894,0.561-3.091c0.037-0.985-0.164-1.994-0.07-3.086
	c-0.496-0.106-0.689-0.619-1.057-0.914c-0.689-0.543-1.74-1.015-2.596-1.269c-0.873,0.956,0.018,2.454-0.07,3.729
	c-0.07,1.145-0.725,1.746-0.979,2.737c0.625,0.213,0.672,1.009,1.127,1.398c-0.006,0.59,0.383,0.784,0.348,1.41
	c-0.496-0.23-0.732,0.377-1.121,0.483c-0.1-0.495-0.66-0.407-0.99-0.631c-0.438-0.289-0.627-0.891-1.045-1.186
	c-0.119,0.117-0.035,0.43-0.213,0.489c-0.271-0.035-0.342,0.124-0.637,0.07c-0.438,0.88-1.752,1.575-2.1,2.525
	c-0.107,0.277-0.078,0.685-0.143,1.056c-0.064,0.337-0.189,0.685-0.213,0.979c-0.041,0.649,0.061,1.422,0,2.177
	c-0.029,0.384-0.193,0.75-0.141,1.057c0.1,0.561,0.742,1.156,1.127,1.539c0.99-0.183,1.711-0.631,2.736-0.772
	c1.959-1.221,5.971-0.39,7.723-1.823C208.244,257.458,208.311,257.081,208.58,256.868z"/>
</svg>
