<svg version="1.1" id="Calque_1" xmlns="http://www.w3.org/2000/svg" xmlns:xlink="http://www.w3.org/1999/xlink" x="0px" y="0px"
	 width="432px" height="332px" viewBox="0 0 432 332" enable-background="new 0 0 432 332" xml:space="preserve" fill="#FFF">
<path fill-rule="evenodd" clip-rule="evenodd" d="M314.034,161.892c0.094-0.117,0.313,0.1,0.448-0.064
	c0.685-1.258,2.018-1.854,3.003-2.809c0.206,0.041,0.295-0.041,0.448-0.064c0.165-0.402,0.489-0.656,0.761-0.957
	c0.496-0.146,0.814-0.471,1.026-0.896c-0.4-0.496-0.85-0.932-1.28-1.404c-0.431-0.471-0.92-0.926-1.209-1.533
	c-0.478-0.201-0.661-0.695-1.026-1.016c0.059-0.318-0.266-0.246-0.254-0.512c-0.083,0-0.171,0-0.254,0
	c-0.307-0.715-1.103-0.998-1.533-1.6c-0.095-0.129-0.106-0.307-0.189-0.449c-0.206-0.33-0.607-0.625-0.896-0.955
	c-3.794-4.383-7.634-8.742-11.362-13.025c-0.584-0.662-1.311-1.24-1.729-2.041c-1.175-1.057-2.147-2.326-3.192-3.512
	c-7.351-8.371-14.713-16.678-22.022-25.031c-0.023-0.082-0.095-0.119-0.065-0.254c-0.95-0.184-1.062-1.25-1.853-1.469
	c-0.714-0.195-1.982,0-3.062,0c-15.397,0-31.552,0.053-46.419-0.059c-0.158-1.818,0.438-3.506-0.129-4.855
	c0.159-0.613-0.041-1.174-0.318-1.535c-0.195-0.246-0.525-0.336-0.768-0.572c-0.111-0.105-0.147-0.33-0.254-0.447
	c-0.218-0.242-0.555-0.402-0.767-0.637c-0.442-0.484-0.808-0.928-1.216-1.217c-0.029-0.4-0.348-0.602-0.507-0.896
	c-0.054-0.094-0.018-0.277-0.065-0.377c-0.1-0.201-0.348-0.318-0.447-0.514c-0.095-0.184-0.054-0.453-0.189-0.637
	c-0.142-0.189-0.437-0.195-0.643-0.383c-0.33-0.32-0.313-0.68-0.638-0.768c-0.342-0.094-1.015,0.094-1.274,0.189
	c-0.442,0.17-1.038,0.648-1.599,0.961c-0.466,0.254-0.908,0.43-1.085,0.832c-0.384,0-0.768,0-1.145,0
	c-0.242-0.686,0.235-0.867,0.572-1.15c-0.012-0.289,0.064-0.643-0.065-0.891c-0.165-0.318-0.596-0.277-0.702-0.578
	c-0.07-0.438,0.242-0.479,0.254-0.832c-0.195-0.184-0.442,0.289-0.572,0c1.003-0.432,0.566-2.189-0.832-1.848
	c-0.082-0.176-0.283-0.236-0.383-0.389c-0.667-0.207-1.398,0.047-1.723,0.447c0-0.146,0-0.295,0-0.447c-12.861,0-26.271,0-39.139,0
	c-1.982,0-4.371,0.117-5.941-0.123c-0.342-0.055-0.672,0.047-1.02,0.064c-1.676,0.07-3.623,0.059-5.233,0.129
	c-0.153-0.029,0.036,0.283-0.194,0.189c-2.92,0.082-5.906-0.225-8.301,0.318c-0.496,0.59-1.174,1.156-1.977,1.34
	c-0.195,0.041-0.425-0.029-0.637,0c-0.366,0.059-0.838,0.266-1.281,0.383c-1.486,0.4-2.955,0.719-4.4,1.086
	c-1.168,0.295-2.277,0.85-3.387,0.955c-0.242,0.023-0.483-0.047-0.701,0c-0.514,0.131-0.88,0.744-1.404,0.709
	c-0.372,0.648-0.992,1.049-1.6,1.463c-0.99-0.283-2.2-0.307-3.127-0.061c-0.489,0.496-1.386,0.904-2.041,1.016
	c-0.313,0.412-0.873,0.543-1.345,0.768c-0.472,0.236-0.933,0.494-1.404,0.707c-0.124,0-0.253,0-0.384,0
	c-0.796,0.596-1.545,0.955-2.171,1.594c-0.944,0.979-1.28,2.465-2.229,3.32c-2.047,0.361-2.979,1.836-3.705,3.512
	c-1.01,0.4-2.248,0.566-1.977,2.234c-0.064,0.236-0.407,0.189-0.448,0.443c-0.159,0.566-0.354,1.098-0.897,1.279
	c-0.283,0.549-0.348,1.246-0.637,1.918c-0.117,0.277-0.324,0.496-0.448,0.768c-0.124,0.283-0.277,0.607-0.318,0.955
	c-0.03,0.26,0.035,0.561,0,0.826c-0.042,0.318-0.266,0.672-0.254,1.027c0.048,1.238,1.115,1.434,1.593,2.359
	c0.648,0.625,1.6,0.766,2.365,1.273c0.655,0.443,1.01,1.275,2.107,1.156c0.141,0.668,0.896,0.721,1.02,1.404
	c0.248,0.082,0.331-0.035,0.514,0.059c0.076,0.479,0.602,0.508,0.768,0.898c0.047,0.223,0.188,0.359,0.253,0.578
	c0.366,0.07,0.714-0.096,0.892,0.246c0.047,0.266-0.207,0.225-0.125,0.514c0.313,0.449,0.572,0.855,1.275,0.768
	c0.123,0.135,0.182,0.324,0.253,0.514c0.289,0.33,0.632,0.295,1.086,0.506c0.2,0.096,0.36,0.309,0.513,0.385
	c0.065,0.029,0.172,0.023,0.254,0.064c0.596,0.283,0.643-0.082,1.086-0.318c0.371,0.012,0.749,0.023,0.961-0.131
	c0.148,0.166,0.349,0.283,0.703,0.26c0.265,0.012,0.193-0.318,0.507-0.26c0.283,0,0.378,0.178,0.638,0.189
	c0.672-0.555,1.574-0.059,1.916,0.389c0.189,0.242,0.438,0.502,0.572,0.697c0.443,0.637,0.473,1.67,0.709,2.49
	c0.141,0.512,0.555,1.303,0.637,1.729c0.059,0.313-0.041,0.572,0.064,0.766c0.461,0.467,1.192,0.762,1.528,1.34
	c0.296,0.502,0.248,1.063,0.448,1.533c0.143,0.33,0.42,0.832,0.638,1.086c0.212,0.236,0.613,0.402,0.831,0.703
	c0.26,0.354,0.213,0.861,0.385,1.402c0.047,0.143,0.164,0.242,0.188,0.385c0.089,0.52,0,1.133,0.065,1.658
	c0.26,0.336,0.572,0.891,0.384,1.469c0.242,0.506,0.525,0.967,0.637,1.592c0.348,0.271,0.673,0.566,1.215,0.645
	c0.184,0.301,0.502,0.359,0.768,0.701c0.271,0.342,0.342,0.861,0.572,1.15c0.271,0.336,0.602,0.33,0.702,0.701
	c0.083,0.309-0.142,0.662,0,0.957c0.006,0.006,0.241,0.242,0.259,0.26c0.113,0.082,0.343,0.076,0.508,0.188
	c0.184,0.52,0.667,0.744,0.832,1.275c0.561,0.111,0.479,0.459,0.514,0.896c0.041,0.602,0.424,0.809,0.637,1.273
	c0.142,0.332,0.184,0.732,0.318,1.027c0.124,0.26,0.426,0.43,0.318,0.826c0.242,0.201,0.254,0.453,0.514,0.637
	c0.525,0.389,1.445,0.178,1.977,0.578c0.413,0.908,1.133,1.582,1.853,2.172c0.218,0.176,0.425,0.424,0.638,0.572
	c0.123,0.088,0.324,0.094,0.447,0.193c0.39,0.307,0.861,0.85,1.34,1.021c0.425,0.146,0.867,0.018,1.215,0.254
	c0.059,0.041,0.137,0.26,0.189,0.318c0.348,0.371,0.737,0.473,1.085,0.832c0.194,0.041,0.236-0.064,0.384-0.064
	c0.72,0.766,1.74,1.238,2.301,2.17c-0.029,0.307,0.029,0.52,0.124,0.703c0.106,0.111,0.271,0.158,0.513,0.123
	c0.785,0.727,1.705,1.34,2.041,2.496c0.107,0.359,0.012,0.855,0.065,1.15c0.183,0.943,1.476,1.475,1.663,2.295
	c0.042,0.199-0.059,0.395-0.064,0.572c-0.07,1.451,0.838,2.242,2.041,2.43c0.207,0.508,0.514,1.027,1.086,1.021
	c0.377-0.006,0.537-0.385,0.956-0.385c0.854,0.68,1.964,1.109,2.873,1.723c0.584,0.863,1.304,1.594,1.917,2.432
	c-0.053,0.07-0.082,0.166-0.064,0.318c0.283,0.035,0.336,0.307,0.514,0.449c-0.083,0.543,0.152,0.777,0.383,1.014
	c1.021,0.195,1.734,0.697,2.555,1.086c0.111,0.484,0.419,0.779,0.572,1.215c-0.136,0.379-0.714,0.143-0.832,0.637
	c-0.018,0.344,0.336,0.309,0.26,0.709c-0.053,0.012-0.076,0.047-0.064,0.123c-0.271,0.072-0.715-0.088-0.832,0.254
	c0.012,0.414,0.441,0.414,0.572,0.709c-0.301,0.52,0.441,0.803,0.26,1.209c-0.254-0.195-0.715-0.406-0.897,0
	c-0.035,0.441,0.384,0.43,0.448,0.768c0.059,0.289-0.225,0.441-0.064,0.637c0.26,0.195,0.625-0.119,0.896,0.064
	c-0.195,0.613,0.531,0.584,0.384,1.215c0.419,0.119,0.247-0.348,0.507-0.389c0.112,0.377,0.336,0.643,0.768,0.707
	c-0.143,0.143,0.064,0.26,0,0.508c0.389,0.107,0.472-0.389,0.767-0.318c-0.012,0.184-0.006,0.348,0.188,0.318
	c0.189,0.154,0.426-0.453,0.578,0c-0.023,0.26-0.525,0.029-0.643,0.189c-0.378,1.074,1.127,0.73,1.092,1.664
	c-0.154,0-0.301,0-0.449,0c-0.029,0.283,0.018,0.494,0.124,0.637c-0.183-0.012-0.348-0.006-0.318,0.195
	c0.065,0.76,0.891,0.771,1.15,1.338c0.271-0.012,0.454,0.059,0.638,0.131c0.117,0.176,0.1,0.494,0.26,0.637
	c0.395,0.094,0.837,0.4,1.338,0.189c0.195-0.219-0.146-0.438,0-0.572c0.455,0.182,0.549,0.725,0.768,1.15
	c-0.053,0.271-0.313,0.33-0.448,0.506c-0.283,1.83,1.292,2.313,2.041,3.322c0.354-0.053,0.537,0.324,0.832,0.449
	c0.247,0.1,0.607,0.094,0.896,0.193c0.283,0.096,0.531,0.271,0.826,0.318c0.313,0.844,1.511,0.768,2.425,0.697
	c0.059,0.307-0.26,0.459-0.059,0.707c0.371,0.125,0.365-0.354,0.572-0.193c0,0.264-0.219,0.313-0.065,0.572
	c0.2,0.176,0.448,0.059,0.638,0.129c0.412,0.207,0.436,0.803,0.961,0.896c0,0.125,0,0.254,0,0.377
	c0.336,0.23,0.72,0.084,1.021-0.059c-0.006,0.336,0.371,0.438,0.572,0.379c0.035,0.371,0.354,0.459,0.643,0.578
	c-0.283,0.436,0.348,0.436,0.188,0.955c0.331-0.035,0.572-0.248,0.767,0.064c-0.076,0.16-0.389,0.076-0.318,0.383
	c0.059,0.178,0.307,0.16,0.384,0.32c-0.266,0.354-0.248,0.99-0.384,1.469c-0.206-0.018-0.33-0.336-0.578-0.125
	c0.041,0.572,0.242,0.992,0.514,1.34c0,0.146-0.112,0.184-0.064,0.383c0.188,0.318,0.566,0.455,0.766,0.768
	c-0.193,0.4,0.373,0.549,0.189,1.145c0.018,0.225,0.342,0.129,0.383,0.318c-0.182,0.117-0.295,0.307-0.318,0.578
	c0.26,0.496,1.104,0.119,1.281,0.768c-0.083,0.424-0.378,0.648-0.319,1.215c0.337,0.213,0.401-0.123,0.638-0.195
	c-0.047,0.379,0.348,0.467,0.637,0.318c0.118,0.207,0.377,0.26,0.383,0.572c-0.117,0.031-0.383-0.082-0.318,0.131
	c0.06,0.283,0.101,0.578,0.254,0.768c-0.318,0.223-0.2,0.818-0.064,1.15c-0.153,0.217-0.283,0.211-0.189,0.572
	c0.054,0.141,0.331,0.059,0.384,0.188c-0.171,0.137-0.519,0.084-0.513,0.391c0.188,0.234,0.26,0.07,0.447,0.129
	c0.024,0.271,0.373,0.219,0.385,0.508c-0.113,0.188-0.414,0.176-0.319,0.572c0.165,0.213,0.525-0.148,0.572,0.129
	c-0.478,0.408-0.437,1.016-0.384,1.6c-0.271,0.088-0.507,0.213-0.507,0.572c0.171,0.289,0.425,0.508,0.825,0.572
	c0.391,0.637,0.26,1.121,0.065,1.793c0.153,0.1,0.489,0.012,0.514,0.248c-0.378,0.613-1.333,0.531-0.897,1.404
	c0.331,0.666,1.198,1.486,1.6,1.982c0.277,0.023,0.283-0.189,0.507-0.059c0.065,0.188,0.13,0.377,0.194,0.566
	c0.213,0.193,0.277-0.201,0.385-0.061c0.012,0.119-0.071,0.143-0.065,0.254c0.566,0.525,1.558,0.867,2.685,0.645
	c-0.035,0.506,0.524,0.258,0.761,0.377c0.035,1.309,0.879,1.805,1.981,2.041c0.201,0.201-0.212,0.436-0.064,0.578
	c0.566,0.838,1.203,1.605,2.106,2.105c-0.136,0.336-0.507,0.432-0.702,0.703c0,0.188,0.165,0.219,0.195,0.383
	c-0.143,0.053-0.26,0.131-0.26,0.324c-0.125,1.553,1.527,1.582,1.215,3.127c0.201,0.248,0.49,0.402,0.384,0.955
	c0.384,0.02,0.265,0.543,0.572,0.639c-0.089,0.082-0.089,0.301,0,0.383c0.419,0.053,0.478-0.254,0.643-0.441
	c0.112,0.246,0.407,0.307,0.572,0.506c-0.023,0.271-0.301,0.295-0.253,0.639c0.283,0.129,0.301,0.607,0.188,0.955
	c0.366,0.17,0.372,0.695,0.448,1.15c-0.142,0.117-0.26,0.254-0.254,0.514c-0.219,0.035-0.289,0.223-0.514,0.254
	c-0.082,0.246-0.17,0.348-0.447,0.512c-0.054,0.248-0.054,0.318,0,0.572c-0.242,0.055-0.366,0.23-0.384,0.514
	c0.101,0.33,0.431,0.42,0.513,0.768c-0.123,0.064-0.342,0.041-0.254,0.318c0.018,0.236,0.36,0.146,0.508,0.254
	c0.153,0.572,1.021,0.891,0.768,1.469c0.111,0.248,0.441,0.619,0.447,0.768c-0.436-0.107-0.725,0.035-0.767,0.318
	c-0.006,0.023-0.101,0.418,0.319,0.383c0.023-0.195-0.172-0.324,0.064-0.383c0.359,0.182,0.49-0.236,0.832-0.066
	c-0.295,0.621-0.295,1.541-0.832,1.918c0.165,0.402-0.189,0.668,0.124,0.891c0.283,0.09,0.171-0.217,0.384-0.188
	c1.326-0.137,2.247-0.289,3.58-0.385c1.192,0.85,2.42,1.682,3.57,2.49c0.4,0.283,0.855,0.531,1.215,0.826
	c0.13,0.105,0.183,0.289,0.318,0.389c0.277,0.201,0.654,0.342,0.962,0.508c1.091-1.039,2.106-2.148,3.257-3.127
	c0.012,0.131,0.277,0.012,0.318,0.131c0.797-0.627,1.581-1.139,2.424-1.6c0.296-0.16,0.68-0.266,0.957-0.449
	c0.902-0.596,1.539-2.012,2.235-2.807c0.448-0.514,1.003-0.867,0.956-1.729c-0.106-0.025-0.16,0.1-0.189,0
	c-0.159-0.592-0.66-0.65-1.215-1.145c-0.537-0.484-0.732-0.98-1.15-1.086c-0.584-0.154-0.596,0.365-0.891,0.578
	c-0.035-0.426-0.443-0.709-0.768-0.643c-0.023-0.154,0.118-0.137,0.064-0.32c-0.094-0.123-0.199-0.229-0.318-0.318
	c0.178-0.277-0.194-0.643-0.383-1.02c-0.207-0.414-0.248-0.797-0.702-0.832c-0.59,0.266-0.054,1.646-0.702,1.852
	c-0.124-0.152-0.359-0.193-0.383-0.447c0.447-0.059,0.554-0.514,0.447-0.957c0.041-0.217,0.23-0.359,0.254-0.572
	c0.047-0.471-0.23-0.672-0.448-0.961c-0.041-0.236-0.101-0.455-0.188-0.637c-0.283-0.148-0.679-0.178-0.832-0.449
	c0.979-0.289,1.026,0.855,1.533,1.086c0.626-0.395,0.531-1.328,0.189-1.977c0.094-0.123,0.201-0.23,0.318-0.318
	c0.254,0.389,0.473-0.1,0.643-0.07c0.178,0.943,0.773,1.764,1.848,1.604c-0.018,0.143-0.101,0.236-0.06,0.443
	c0.442,0.395,0.956,0.908,1.339,1.527c0.378,0.625,0.762,1.381,1.723,1.027c-0.064-1.287,0.325-2.408-0.383-2.998
	c-0.248-0.211-0.66,0.037-0.637-0.518c-0.012-0.125,0.26-0.213,0.447-0.32c0.042-0.506-0.383-1.428,0.06-1.723
	c0.318,0.096,0.071,0.355,0.13,0.709c0.124,0.189,0.147,0.49,0.13,0.826c-0.118,0.164-0.218,0.33-0.194,0.637
	c0.247,0.201,0.578,0.318,0.896,0.449c0.141-0.332,0.359-0.91,0.637-0.898c0.035,0.402-0.201,0.525-0.383,0.709
	c0.111,0.242-0.06,0.496-0.065,0.768c-0.006,0.365,0.136,0.684,0.194,1.084c0.137,0.945-0.07,2.006,0.124,2.68
	c-0.265,0.047-0.212,0.23-0.253,0.383c1.031,1.092,1.977-0.158,2.555-0.701c0.224-0.969,1.203-1.18,1.403-2.172
	c0.401,0.75-0.566,1.068-0.891,1.594c-0.183,0.289-0.194,0.602-0.194,0.961c0.483,0.172,1.073-0.172,1.404-0.514
	c0.949-0.219,1.326-1.014,2.17-1.338c0.915-0.031,1.34-0.869,2.301-0.645c0.207-1.086-1.244-0.99-1.469-1.846
	c0.685,0.006,0.791,0.879,1.404,0.701c0.242-0.07,0.147-0.271,0.318-0.637c0.289-0.625,0.685-1.311,0.702-2.111
	c0.013-0.385,0.036-1.217-0.448-1.211c-0.313,0.066-0.159,0.609-0.508,0.639c0.131-0.148-0.029-0.148-0.129-0.066
	c-0.018-0.283-0.289-0.535-0.449-0.896c-0.383-0.873-0.33-1.65-1.723-1.404c-0.271-0.371-0.961-0.246-1.339-0.059
	c-0.307-0.248-0.772-0.336-1.216-0.447c-0.17,0.33-0.625,0.164-0.955,0.26c-0.407,0.111-0.672,0.512-0.955,0.441
	c0.088-0.584,0.742-0.49,1.209-0.637c0.531-0.172,0.938-0.484,1.279-0.768c-0.229-0.395-0.146-0.736-0.513-0.891
	c-0.354-0.152-1.15,0.271-1.657,0.059c-0.213-0.082-0.39-0.412-0.384-0.695c-0.597-0.33-1.688,0.035-2.171,0
	c0-0.219,0-0.432,0-0.643c0.371,0.24,0.607-0.137,0.891-0.195c1.28-0.137,1.746,0.768,2.873,0.578c0-0.105,0.053-0.166,0.13-0.189
	c0.006-0.838-0.525-1.133-1.021-1.475c0.111-0.07,0.26-0.117,0.318-0.248c0.023-0.176-0.242-0.389-0.064-0.52
	c0.672-0.082,0.543,0.662,0.701,1.027c0.112,0.248,0.39,0.426,0.514,0.703c0.094,0.217-0.006,0.43,0.189,0.572
	c0.584-0.061,1.025,0.088,1.338-0.189c-0.218-0.672-0.984-0.803-0.955-1.723c-0.207-0.178-0.419-0.686-0.254-1.027
	c0.154-0.023,0.136,0.119,0.318,0.072c0.095,0.578,0.384,0.973,0.384,1.656c0.266,0.313,0.673,0.184,0.956,0.385
	c0.425,0.295,0.448,0.938,0.832,1.273c0.796,0.371,1.574,0.029,2.359-0.129c0.23,0.094,0.377,0.266,0.643,0.318
	c0.572-0.059,0.343-0.934,0.572-1.334c0.195,0.42,0.372,0.596,0.319,0.955c-0.095,0.674-1.15,1.121-0.514,1.658
	c0.549,0.143,1.422-0.146,1.404-0.701c0.584-0.059,0.826-0.455,1.091-0.826c-0.53-0.861-0.754-2.018-2.235-1.924
	c-0.124-0.318-0.437-0.453-0.513-0.826c0.164-0.371,0.336-0.684,0.896-0.506c0.454-0.344,0.111-1.357,0.188-1.982
	c0.042-0.355,0.483-0.945-0.13-0.898c-0.142,0.402-0.561,0.992-1.021,0.514c-0.124-0.537-0.413-1.174,0-1.469
	c0.229-0.07,0.396,0.035,0.644,0.064c-0.018-0.465,0.406-0.488,0.507-0.832c-0.407-0.082-0.968-0.619-0.702-0.955
	c0.225,0.012,0.076,0.389,0.318,0.383c0.178,0.266,0.709,0.184,0.768,0.572c-0.195,0.426-0.432,0.803-0.768,1.086
	c-0.277,0-0.572-0.023-0.767,0.064c-0.147,0.49,0.136,0.762,0.318,1.086c0.431-0.146,0.313-0.561,0.702-0.637
	c0.985-0.207,0.578,0.566,0.514,1.15c-0.083,0.756,0.111,1.203,0.254,1.594c-0.289,0.33-0.756,0.471-1.021,0.824
	c0.266,0.467,0.933,0.52,1.404,0.768c0.118,0.307,0.413,0.443,0.578,0.709c0.118,0.584,0.667,0.73,0.768,1.338
	c-0.029,0.102-0.201,0.053-0.131,0.254c0.213,0.277,0.219,0.756,0.572,0.896c0.23-0.012,0.236-0.236,0.514-0.188
	c-0.018-0.154,0.012-0.248,0.13-0.26c1.381-0.896,2.337-2.219,4.147-2.68c0.254-0.348,0.619-0.578,0.832-0.961
	c0.171-0.146,0.508-0.129,0.572-0.383c0.142-0.131-0.029-0.178,0-0.379c-0.153-0.129-0.313-0.24-0.637-0.193
	c-0.048-0.301-0.349-0.336-0.638-0.385c-0.283-0.313-0.483-0.707-0.644-1.15c-0.436-0.17-0.748-0.477-1.273-0.572
	c-0.065-0.193-0.172-0.342-0.189-0.578c-0.354,0.023-0.637,0.119-0.961,0c-0.143,0.113-0.172,0.344-0.384,0.385
	c-0.13-0.271-0.649-0.16-0.826-0.385c0.106-0.223,0.142-0.531,0.378-0.637c0.225,0.242,0.508,0.289,0.832,0.131
	c0.123,0.023,0.006,0.289,0.254,0.188c0.778-0.266,0.602-1.486,1.663-1.463c0.188-0.195,0.425-0.625,0.318-0.896
	c-0.307-0.129-0.419,0.254-0.513,0.129c-0.137-1.156,1.121-0.518,1.533-1.084c0.023-0.225-0.324-0.248-0.129-0.449
	c0.17,0,0.365,0.023,0.447-0.064c0.166-0.113,0.042-0.514,0.254-0.572c0.047,0.141,0.271,0.105,0.384,0.189
	c0.083-0.154,0.124-0.35,0.324-0.385c0.024,0.184,0.372,0.053,0.442,0.195c0.071,0.561-0.424,0.537-0.701,0.695
	c-0.307,0.189-0.572,0.473-0.892,0.514c-0.006,0.324,0.302,0.336,0.319,0.643c-0.225,0.344-0.779,0.061-1.216,0.061
	c-0.048,0.307,0.101,0.412,0.065,0.701c-0.154,0.406-0.578,0.455-0.703,0.832c-0.1,0.283,0.106,0.607-0.064,1.02
	c-0.225,0.102-0.348-0.064-0.508,0.125c0.172,0.701,1.027,0.719,1.658,0.961c0.07,0.479,0.165,0.939,0.514,1.15
	c0.295,0.096,0.359-0.199,0.507-0.064c0.013,0.148,0.054,0.277,0.13,0.383c0.147,0.213,0.991,1.121,1.15,1.145
	c0,0,0.365-0.117,0.384-0.123c0.301-0.189,0.679-0.797,0.956-1.086c1.811-0.748,3.374-1.428,5.811-1.469
	c0.189,0.166,0.277,0.242,0.572,0.189c0.803-0.131,0.365-1.535-0.572-1.404c-0.395-0.391-1.015-0.271-1.346-0.637
	c0.302,0,0.597,0,0.897,0c0.271-0.756,0.944-1.133,0.956-1.977c0.064,0.254,0.165,0.471,0.26,0.701
	c-0.172,0.236-0.289,0.52-0.644,0.578c-0.006,0.307-0.177,0.461-0.188,0.762c0.047,0.018,0.07,0.053,0.064,0.123
	c0.301,0.289,1.003,0.201,1.209-0.123c0.566,0.012,0.826-0.619,1.216-0.572c-0.095,0.307-0.472,0.342-0.448,0.766
	c0.395,0.049,0.514-0.258,0.832-0.447c0.224-0.131,0.52-0.189,0.767-0.318c0.796-0.438,1.552-1.016,2.171-1.6
	c-0.018-0.242-0.242-0.266-0.254-0.514c0.201-0.047,0.277-0.223,0.443-0.318c0.053-0.447,0.495-1.002,0.578-1.463
	c0.023-0.152,0.188-0.496-0.131-0.578c-0.307,0.053-0.224,0.502-0.513,0.578c-0.065-0.129-0.295-0.094-0.378-0.193
	c0.095-0.633-0.094-0.662-0.129-1.211c-0.738,0.295-1.469,0.096-2.106-0.26c0.035-0.129-0.083-0.418,0.065-0.447
	c0.383,0.318,0.955,0.111,0.955-0.449c0-0.141-0.184-0.225-0.254-0.441c-0.136-0.408-0.412-0.697-0.26-0.891
	c0.195,0-0.006,0.324,0.384,0.246c0.218-0.012,0.054-0.412,0.318-0.377c0.153,0.059,0.313,0.119,0.448,0.189
	c0.023,0.318-0.212,0.383-0.129,0.766c0.418,0.326,0.819-0.053,1.215-0.129c0.289,0.248,0.419,0.648,0.702,0.896
	c0.106,0.107,0.466-0.041,0.448,0.189c-0.171,0.129-0.602,0-0.514,0.389c0.933,0.721,2.053-0.236,2.685-0.768
	c0.083,0,0.171,0,0.254,0c0.632-0.672,1.499-0.801,2.301-1.215c0.112,0.059,0.159,0.178,0.384,0.131
	c0.206-0.041,0.117-0.143,0.188-0.195c0.235,0.195,0.431,0.137,0.702,0.195c-0.064-0.779,0.225-0.934-0.13-1.535
	c0.632,0.143,0.968-0.506,1.15-1.025c-0.089-0.084-0.349-0.324-0.254-0.379c0.153,0.037,0.29,0.096,0.508,0.061
	c0.276-0.189,0.542-0.391,0.831-0.572c0.307-0.184,0.703-0.271,0.897-0.572c0.071-0.355-0.501-0.396-0.319-0.639
	c0.301,0.018,0.313,0.32,0.638,0.32c0.938-0.709,1.965-0.957,3.192-1.404c0.117-0.402,0.424-1.051,0.129-1.477
	c-0.483,0.096-0.689,0.461-1.345,0.391c-0.2,0.225-0.425,0.762-0.826,0.572c0.03-0.313,0.472-0.207,0.507-0.514
	c0.083-0.318-0.193-0.271-0.188-0.508c-0.148-0.053-0.603,0.072-0.578-0.318c0.199-0.012,0.365,0.154,0.513,0
	c-0.337-0.666,0.396-0.943,0.318-1.723c0.313-0.389,0.861-0.543,1.021-1.086c0.053-0.246-0.213-0.307-0.064-0.447
	c0.678-0.496,1.339-1.01,2.171-1.346c0.083-0.201-0.206-0.047-0.124-0.254c0.466-0.1,0.885,0.096,1.21-0.193
	c0.053,0.766,0.767,0.861,0.896,1.533c0.171,0.076,0.377-0.119,0.383,0c-0.171,0.365-0.825,0.248-0.831,0.768
	c0.631,0.217,1.174-0.373,1.853-0.572c0.631-0.184,1.321-0.295,2.105-0.32c0.147-0.064,0.207-0.217,0.448-0.193
	c0.101,0.006,0.048,0.164,0.189,0.129c0.507-0.07,0.861,0.367,1.215,0.064c0.006-0.678-0.625-0.713-1.215-0.643
	c-0.307-0.07-0.354-0.406-0.702-0.441c-0.372,0.029-0.295,0.512-0.638,0.572c-0.177-0.061,0.112-0.225-0.064-0.318
	c-0.188-0.012-0.448,0.188-0.508-0.061c0.525-0.094,0.855-0.377,1.404-0.447c0.254,0.035,0.283,0.307,0.508,0.377
	c0.578-0.152,0.767,0.082,1.15,0.26c0.142-0.178,0.229-0.531,0.13-0.768c-0.248-0.07-0.543-0.094-0.578-0.383
	c-0.289-0.053-0.661-0.018-0.702-0.318c0.437-0.137,0.602,0.23,0.961,0.064c0.124-0.271-0.183-0.441-0.194-0.768
	c0.396-0.264,0.761-0.561,1.28-0.707c0.396-0.484,0.644-0.826,1.469-0.637c0.366-0.26,1.162-0.385,1.08-0.891
	c0.371-0.166,0.607-0.461,0.578-1.021c-0.537-0.891-2.36-0.496-2.938-1.346c1.063-0.129,1.635,0.461,2.62,0.195
	c0.377,0.277,0.873,0.449,1.021,0.961c-0.054,0.266-0.313,0.326-0.318,0.639c0.431,0.158,0.831-0.225,1.085-0.449
	c0.035-0.955-0.607-1.221-0.956-1.787c-0.241-0.041-0.637,0.082-0.767-0.064c0.112-0.379,0.985,0.012,1.086-0.385
	c-0.266-0.672-1.346-0.301-1.47,0.254c-0.259-0.146-0.66-0.141-0.701-0.508c0.802,0.213,1.238-0.395,1.787-0.637
	c0.171,0.143,0.33,0.307,0.384,0.572c0.348,0.137,0.784,0.195,0.955,0.514c0.159,0.744-0.029,1.498,0.065,2.23
	c0.472-0.271,0.318-0.832,0.572-1.217c0.26-0.383,0.755-0.596,1.215-0.76c0.207-0.52,0.891-0.891,0.702-1.6
	c-0.607,0.059-0.384,0.945-0.962,1.027c0.006-0.377,0.354-0.42,0.325-0.838c-0.184-0.313-0.325-0.301-0.384-0.566
	c-0.13-0.578,0.289-1.074,0.188-1.533c-0.105-0.52-0.643-0.773-1.085-0.957c-0.448-0.193-0.791-0.188-1.21-0.324
	c-0.855-0.266-2.188-1.822-1.599-3.002c-0.059-0.236-0.147-0.449-0.194-0.697c0.206-0.572,0.483-1.133,0.383-1.664
	c0.184-0.012,0.154,0.189,0.319,0.189c0.1-0.389,0.266-0.707,0.578-0.891c0.006,0.336-0.083,0.762,0.318,0.701
	c0.23-0.105-0.006-0.684,0.384-0.637c-0.018,0.648-0.201,1.67-0.638,2.107c-0.206-0.09-0.171-0.426-0.513-0.385
	c-0.207,0.354,0.07,0.555,0.194,0.768c-0.277,0.313-0.307,0.496-0.194,0.955c0.289,0.184,0.566,0.402,0.961,0.385
	c0.201-0.006,0.36-0.207,0.572-0.254c0.531-0.113,1.092,0.059,1.534-0.066c0.596,0.254,0.266,0.715,0.188,1.15
	c-0.018,0.113,0.083,0.271,0.065,0.449c-0.012,0.1-0.13,0.236-0.13,0.318c0.029,0.508,0.283,1.01,0.448,1.533
	c0.171,0.531,0.295,1.104,0.448,1.594c0.147,0,0.295,0,0.448,0c-0.053-0.684-0.437-1.334-0.448-1.852
	c-0.006-0.131,0.095-0.283,0.124-0.449c0.095-0.438,0.089-1.039,0.194-1.463c0.184-0.744,0.549-1.369,0.514-2.242
	c-0.277-0.23-0.283-0.738-0.708-0.826c0.2-0.301-0.206-0.967,0.13-1.215c0.348,0.271,0.194,0.602,0.064,1.086
	c0.23,0.129,0.308,0,0.514-0.059c0.023,0.188-0.171,0.318,0.059,0.377c0.632-0.449,0.531-1.641,0.644-2.613
	c0.401-0.639,0.631-1.451,1.145-1.977c-0.054-0.189-0.054-0.201,0-0.391c0.236-0.354,0.489-0.672,0.702-1.084
	c0.088-0.166,0.159-0.324,0.26-0.508c0.313-0.596,0.619-0.961,0.955-1.469c0.236-0.359,0.437-0.727,0.702-0.963
	c0.095-0.076,0.242-0.064,0.318-0.123c0.502-0.371,0.661-1.08,1.086-1.533c0.142-0.043,0.206,0.182,0.194-0.066
	c0.484-1.014,1.245-1.957,1.912-2.742c0.218-0.254,0.395-0.68,0.767-0.703c-0.053-0.295,0.236-0.506,0.384-0.701
	c0.572-0.744,1.091-1.398,1.723-2.047c0.838-0.85,1.835-1.57,2.489-2.549c0.219,0,0.425,0,0.644,0
	C311.379,164.382,312.494,162.925,314.034,161.892z"/>
</svg>
