<?xml version="1.0" encoding="utf-8"?>
<!-- Generator: Adobe Illustrator 16.0.0, SVG Export Plug-In . SVG Version: 6.00 Build 0)  -->
<!DOCTYPE svg PUBLIC "-//W3C//DTD SVG 1.1//EN" "http://www.w3.org/Graphics/SVG/1.1/DTD/svg11.dtd">
<svg version="1.1" id="Calque_1" xmlns="http://www.w3.org/2000/svg" xmlns:xlink="http://www.w3.org/1999/xlink" x="0px" y="0px"
	 width="432px" height="432px" viewBox="0 0 432 432" enable-background="new 0 0 432 432" xml:space="preserve">
<path fill-rule="evenodd" clip-rule="evenodd" d="M329.777,210.946c0.419-0.838,0.802-1.08,1.498-1.617
	c0.313-0.242,0.773-0.727,1.204-0.838c0.967-0.271,2.266,0.006,3.475-0.248c-0.064-26.689-0.147-53.373-0.242-80.039
	c-2.029-0.49-4.064-0.975-6.111-1.439c-0.413-0.803-0.484-1.5-1.015-2.102c-0.407-0.453-1.01-0.885-1.499-1.375
	c-0.578-0.578-1.292-1.055-1.439-1.74c-0.159-0.707-0.472-1.627-0.483-2.277c-0.006-0.482,0.165-1.031,0.241-1.557
	c0.077-0.514,0.142-1.068,0.242-1.557c0.095-0.449,0.803-1.115,1.074-1.434c1.126-1.305,2.926-2.061,4.076-3.115
	c0.478-2.502,0.891-5.068,1.321-7.611c-13.422-0.023-26.938,0.342-39.904,0.596c-1.216,0.023-2.407,0.131-3.593,0.119
	c-2.308-0.018-4.649-0.266-6.956-0.42c-11.593-0.76-23.457-1.115-35.044-1.793c-13.964-0.82-28.034-1.457-42.005-2.277
	c-4.679-0.277-9.333-0.449-13.958-0.785c-9.304-0.666-18.572-0.955-27.8-1.729c-18.053-1.521-36.063-3.621-53.869-5.156
	c-0.07,0.023-0.124,0.076-0.117,0.178c-4.242,42.613-8.566,85.143-12.826,127.744c57.745,2.488,115.502,4.967,173.277,7.428
	c5.457,3.758,10.85,7.563,16.359,11.268c3.781-1.328,7.085-2.672,10.66-3.9c0.638-0.217,1.352-0.277,2.101-0.359
	c1.41-0.152,3.044-0.342,4.378-0.479c0.749-0.082,1.409,0.084,2.153,0.178c0.778,0.105,1.492,0.088,2.094,0.301
	c0.543,0.189,1.074,0.555,1.623,0.838c0.885,0.467,2.059,1.021,3.056,1.799c0.384,0.301,0.891,0.697,1.381,1.074
	c0.419,0.336,1.05,1.086,1.551,1.021c1.163-0.131,3.216-0.355,4.136-0.473c2.962,2.684,5.61,5.693,8.566,8.383
	c0.667-0.572,1.352-1.127,2.101-1.615c1.569-8.178,3.533-15.959,5.51-23.729c-0.873-0.66-1.882-1.18-2.813-1.734
	c-1.009-0.602-1.54-1.48-2.219-2.402c-0.101-1.338-0.442-2.844-0.478-4.252c-0.018-0.721-0.101-1.5,0-2.096
	C329.517,211.505,329.659,211.192,329.777,210.946z"/>
</svg>
