<svg version="1.1" id="Calque_1" xmlns="http://www.w3.org/2000/svg" xmlns:xlink="http://www.w3.org/1999/xlink" x="0px" y="0px"
	width="432px" height="432px" viewBox="0 0 432 432" enable-background="new 0 0 432 432" xml:space="preserve">
	<path fill-rule="evenodd" clip-rule="evenodd" d="M315.208,169.597c-0.026-0.979-0.796-1.222-1.354-1.676
		c0.115-0.2,0.254-0.377,0.242-0.714c-0.256-0.749-0.545-1.469-1.029-1.977c0.18-1.238-1.026-1.822-1.194-2.548
		c-0.163-0.679,0.227-1.363-0.319-1.982c0.466-0.855-0.085-1.387-0.242-1.982c-0.133-0.525-0.059-1.021-0.153-1.511
		c-1.345-0.478-1.947-1.704-2.702-2.772c0.041-4.365,0.153-9.475,0.153-14.926c0-3.475,0.023-6.991-0.153-9.61
		c-0.065-0.938,0.168-2.195,0-2.779c-0.115-0.383-0.773-1.162-1.192-1.273c-1.112-0.289-2.174,0.406-3.097,0.241
		c-0.572-0.106-0.782-0.536-1.51-0.637c-0.204-0.201-0.033-0.543-0.316-0.797c-0.923-0.153-1.59-0.448-2.304-0.714
		c-0.425-0.159-0.876-0.229-1.266-0.389c-0.743-0.319-1.327-1.216-2.622-0.88c-1.009-0.767-1.413-2.142-2.938-2.383
		c-0.295-0.242-0.496-0.561-0.711-0.867c-0.802-0.124-1.307-0.549-2.068-0.714c-0.587,0.307-0.912,0.885-1.431,1.262
		c-0.499-0.105-0.658,0.337-1.109,0.396c-0.555,0.083-1.071-0.271-1.747-0.235c-0.504-0.396-0.835-0.968-1.743-0.956
		c-0.398-0.041-0.266,0.437-0.64,0.396c-0.372,0.218-0.802,0.117-1.269,0.318c-0.315,0.147-0.513,0.466-0.876,0.561
		c-0.961,0.26-2.133-0.029-3.18,0.082c-0.92,0.095-1.723,0.313-2.457,0.549c-0.074,1.115-1.038,1.121-1.826,1.511
		c-0.478,0.241-0.755,0.625-1.112,0.561c-0.457-0.095-0.814-0.826-1.271-1.109c-0.189-0.124-0.487-0.194-0.714-0.318
		c-0.628-0.349-1.065-0.59-1.747-0.644c0.021-0.472-0.006-0.885-0.153-1.191c-0.572,0.07-0.903,0.377-1.354,0.561
		c-0.162,0.478-0.377,0.619-0.796,0.631c-0.38,0.012-0.625-0.59-1.109-0.79c-0.242-0.095-0.569,0-0.797-0.077
		c-0.631-0.242-0.917-1.263-1.664-0.879c-0.31,0.755-0.793,1.321-1.59,1.593c0.156,0.791-0.133,1.829-0.796,2.065
		c-0.357-0.39-0.779-0.443-0.867-1.033c-0.104-0.631,0.478-1.492-0.162-1.988c-0.401,0.042-0.868,0.024-1.428,0.077
		c-0.673,0.301-0.938,1.375-1.906,1.115c-0.283-0.194-0.124-0.832-0.316-1.115c-0.613-0.224-1.368-0.324-1.988-0.549
		c0.021-0.33-0.183-0.79-0.478-1.032c-0.324,0.076-1.133-0.076-1.584,0.076c-0.094,0.378-0.584,0.384-0.956,0.715
		c-0.262,0.235-0.351,0.619-0.631,0.79c-0.528,0.324-1.41,0.401-1.991-0.077c-0.192-0.672-0.218-1.521-0.469-2.141
		c-0.525-0.106-1.003-0.271-1.428-0.479c-0.053-0.549-0.036-1.31-0.325-1.829c-0.578-0.082-0.829,0.178-1.183,0.319
		c-0.171-0.254-0.528-0.325-0.726-0.549c-0.537,0.082-1.188-0.047-2.059,0c-0.183,0.301-0.463,0.142-0.714,0.313
		c-0.52,0.365-0.572,1.221-1.508,1.032c-0.542-0.413-1.091-0.813-1.593-1.263c-0.442,0.16-0.572-0.153-1.029-0.082
		c-0.357,0.041-0.62,0.431-0.95,0.472c-0.894,0.118-1.69-0.631-2.702-0.637c-0.389-0.702-1.717-1.057-2.62-0.549
		c-0.439-0.472-1.495-0.307-1.826-0.879c-0.059-1.481-0.215-1.977-1.109-2.773c-0.623-0.548-1.065-0.985-1.826-0.879
		c-0.23,0.13-0.088,0.72-0.398,0.95c-1.071,0.124-1.413-0.484-2.46-0.396c-0.283,0.012-0.101,0.489-0.396,0.472
		c-3.121,0.307-3.126-3.587-6.038-3.48c0.124-0.555,0.451-0.572,0.555-1.038c0.174-0.773,0-1.947,0-3.021
		c0-10.431-0.142-21.321-0.08-31.439c-15.743,0-31.492,0-47.244,0c0,0.083,0,0.159,0,0.236c0.077,15.946-0.071,33.822-0.071,48.678
		c0,1.05-0.198,2.088-0.242,3.168c-0.147,3.362,0.071,6.85-0.077,10.241c-0.295,6.649,0.283,13.428-0.08,20.171
		c-18.156,0-36.314,0-54.468,0c0,0.879,0,1.746,0,2.619c0.295,0.26,0.469,0.708,0.796,0.95c0.307,0.23,0.705,0.206,1.03,0.401
		c0.174,0.106,0.375,0.354,0.557,0.478c1.289,0.885,2.419,1.899,2.776,3.729c0.835,1.387,1.932,2.514,3.416,3.257
		c0.259,0,0.531,0,0.793,0c0.861,0.483,1.38,1.363,2.142,1.982c0.357,0.289,0.849,0.442,1.194,0.714
		c0.286,0.235,0.504,0.613,0.793,0.879c0.93,0.832,1.738,1.628,2.46,2.613c-0.05,0.26,0.053,0.372,0.08,0.555
		c0.782,1.021,1.873,1.734,2.383,3.021c1.36,0.679,2.885,1.191,3.808,2.307c0.357-0.047,0.599,0.035,0.873,0.077
		c0.505,0.555,1.195,0.92,1.909,1.263c0.207,1.48,1.711,1.675,2.139,2.867c0.26,0.695-0.133,1.262,0,1.982
		c0.103,0.519,0.717,1.091,1.115,1.669c0.183,0.266,0.363,0.596,0.558,0.867c0.239,0.337,0.431,0.549,0.552,0.873
		c0.298,0.797,0.083,1.593,0.083,2.708c0.661,0.756,0.325,1.876,0.634,2.696c0.142,0.36,0.516,0.525,0.793,0.873
		c0.142,0.183,0.248,0.478,0.396,0.714c0.493,0.791,0.752,1.439,0.634,2.861c0.466,0.384,0.811,0.885,1.274,1.269
		c1.124,0.194,1.67,0.933,2.387,1.422c0.389,0.283,0.832,0.448,1.109,0.726c0.39,0.384,0.445,0.838,0.717,1.186
		c0.428,0.572,1.068,1.039,1.578,1.422c1.074,0.826,1.938,0.956,3.578,1.357c0.75,0.183,0.879,0.855,1.428,1.191
		c0.363,0.225,0.855,0.165,1.269,0.318c0.227,0.083,0.552,0.307,0.876,0.466c0.39,0.207,0.867,0.419,1.029,0.561
		c0.676,0.584,1.28,1.257,1.906,1.829c0.513,0.153,0.938,0.213,1.354,0.401c0.413,0.183,0.702,0.613,1.115,0.714
		c0.313,0.07,0.705-0.13,1.186-0.083c0.746-0.519,1.363-1.174,1.587-2.224c0.823-0.213,1.05-1.015,1.428-1.664
		c0.64-0.053,0.944-0.431,1.507-0.561c-0.159-0.336-0.327-0.607-0.233-1.032c0.074-0.307,0.38-0.478,0.552-0.79
		c0.33-0.597,0.372-1.428,0.478-2.225c0.095-0.708,0.511-1.787,0.797-2.378c0.283-0.602,0.997-1.032,1.345-1.434
		c0.15-0.513,0.283-1.038,0.561-1.428c0.693,0.112,1.106-0.542,1.59-0.637c0.841-0.165,1.493-0.029,2.54-0.083
		c0.227-0.672,0.33-1.994,1.109-2.218c1.065-0.313,1.826,1.304,2.779,1.511c0.442,0.094,1.145-0.06,1.749-0.083
		c0.478-0.018,0.936,0.023,1.348,0c0.605-0.035,1.198-0.26,1.823-0.153c0.301,0.041,0.708,0.271,1.032,0.396
		c0.861,0.324,1.832,0.813,2.938,0.395c0.478,0.384,1.212,0.254,1.752,0.555c0.248,0.142,0.363,0.484,0.631,0.714
		c0.457,0.396,0.894,0.425,1.112,0.797c0.021,0.029,0.136,0.313,0.162,0.395c0.163,0.543,0.033,0.826,0.469,1.198
		c0.431,0.029,0.277-0.531,0.717-0.401c0.389,0.112,0.286,0.514,0.558,0.95c0.188,0.342,0.289,0.772,0.48,1.108
		c0.39-0.018,0.726,0.019,1.03,0.083c0.531,0.372,0.867,0.933,1.029,1.67c1.274,0.844,2.183,2.053,3.578,2.778
		c0.08,0.425,0.431,0.566,0.316,1.191c0.437,0.407,0.873,0.938,1.265,1.505c0.31,0.448,0.938,1.304,1.033,1.746
		c0.106,0.46-0.077,0.997,0,1.587c0.483,0.655,0.861,1.422,1.354,2.065c0.042,0.855,0.8,1.368,1.109,2.147
		c0.145,0.359,0.062,0.837,0.236,1.186c0.215,0.431,0.838,0.672,1.03,1.115c0.203,0.448,0.094,0.967,0.245,1.434
		c0.062,0.2,0.274,0.466,0.395,0.708c0.145,0.295,0.189,0.607,0.319,0.873c0.242,0.513,0.693,0.932,0.876,1.434
		c0.174,0.501,0.053,1.091,0.233,1.504c0.381,0.891,2.009,1.204,2.623,1.829c0.133,0.809,1.044,1.104,0.867,1.982
		c0.744,0.666,1.732,1.41,1.593,2.702c1.224,1.604,2.572,3.086,4.362,4.131c-0.018,1.197,1.605,1.545,1.909,2.535
		c0.248,0.826-0.097,1.754-0.077,2.621c0,0.217,0.056,0.596,0.077,0.873c0.027,0.324,0.006,0.795,0.08,1.037
		c0.101,0.301,0.793,0.744,0.95,1.191c0.188,0.52,0.006,1.092,0.079,1.582c0.056,0.324,0.257,0.619,0.319,0.955
		c0.174,0.914,0.153,1.523,0.478,2.143c1.2,0.578,1.953,1.916,1.988,3.422c0.342,0.354,0.643,0.566,0.876,0.943
		c0.112,0.207,0.336,0.613,0.389,0.955c0.094,0.531-0.201,1.121-0.077,1.67c0.171,0.744,1.33,1.104,1.032,2.064
		c0.561,0.502,0.829,0.945,1.664,1.109c0.607,0.125,1.313-0.111,1.908,0c0.711,0.137,0.997,0.744,1.507,0.957
		c0.289,0.824,1.28,1.68,2.068,1.898c0.242,0.07,0.546-0.035,0.796,0c0.396,0.07,0.92,0.42,1.425,0.555
		c0.271,0.076,0.602,0.088,0.796,0.16c0.478,0.188,0.673,0.602,1.03,0.879c0.198,0.146,0.448,0.158,0.634,0.318
		c0.209,0.164,0.298,0.371,0.48,0.549c0.731,0.064,1.156,0.436,1.578,0.797c1.741,0.129,3.62-0.189,5.245,0.158
		c0.504,0.105,0.894,0.414,1.351,0.479c0.46,0.064,0.93-0.07,1.348,0.076c0.271,0.1,0.481,0.4,0.714,0.637
		c0.744,0.715,1.584,1.463,1.988,2.295c0.369-0.064,0.351,0.242,0.552,0.318c0.377-0.053,0.77,0.049,1.191,0
		c0.251-1.066,0.478-1.227,1.51-1.58c0.62-0.213,1.009-0.443,1.67-0.396c0.451-0.424,0.788-0.938,0.634-1.592
		c-0.094-0.389-0.72-0.85-1.112-1.262c-0.457-0.496-0.909-0.898-1.112-1.275c0.404-1.387-0.316-2.525-0.558-3.734
		c-0.41-0.473-1.437-0.625-1.51-1.428c-0.047-0.555,0.655-0.943,0.723-1.504c0.026-0.283-0.15-0.82-0.245-1.191
		c-0.274-1.162-0.545-2.443-0.714-3.652c-0.478-0.402-0.982-0.768-1.265-1.357c0.274-0.371,0.72,0.219,0.87-0.152
		c-0.083-0.609-0.634-0.744-1.029-1.033c0.165-0.254,0.097-0.666,0.233-0.955c0.129-0.26,0.398-0.613,0.557-0.633
		c0.331-0.047,0.36,0.561,0.717,0.396c0.372-1.086-0.115-2.094,0.08-3.252c0.08-0.488,0.525-0.926,0.398-1.51
		c-0.625-0.531-2.035,0.076-2.944-0.082c-0.227-0.041-1.059-0.455-1.032-0.715c0.009-0.053,0.649-0.477,0.876-0.561
		c0.478-0.152,0.997-0.035,1.348-0.234c0.121,0.307,0.298,0.561,0.478,0.795c0.486-0.555,1.064-0.996,1.593-1.51
		c0.678-1.445,0.941-3.043,1.587-4.525c0.162-0.383,0.604-0.678,0.472-1.191c-0.861-0.396-1.752-0.791-2.059-1.746
		c0.516-0.165,0.563-0.814,1.109-0.95c0.289,0.348,0.977,0.354,1.507,0.242c0.109-0.266,0.104-0.638,0.156-0.962
		c0.416-0.407,0.829-0.861,1.271-1.345c0.685-0.738,1.543-1.181,1.51-2.142c0.566-0.366,0.667-1.192,1.112-1.676
		c1.006,0.206,1.191-0.448,1.59-0.791c0.301-0.259,0.672-0.271,0.788-0.637c-0.053-1.133-0.366-2.437-0.472-3.251
		c0.782-0.177,1.133,0.702,1.664,1.033c0.095,0.406,0.077,0.926,0.398,1.108c1.26-0.124,1.696-1.245,2.62-1.746
		c0.439-0.236,0.923-0.271,1.428-0.561c0.021-0.619-0.269-0.938-0.396-1.422c-1.124-0.755-2.035-1.723-2.623-3.021
		c0.21-0.112,0.372-0.271,0.558-0.401c0.104,0.561,0.723,0.608,0.797,1.192c0.675,0.129,0.534,0.879,1.029,1.032
		c0.191,0.059,0.752-0.183,1.032-0.39c0.525-0.396,1.106-1.274,1.752-1.676c0.268-0.165,0.54-0.253,0.788-0.395
		c0.248-0.136,0.463-0.384,0.714-0.313c-0.263,0.707-0.345,1.616-0.39,2.536c0.761-0.029,1.065-0.519,1.743-0.631
		c0.325-0.337,0.903-0.838,1.581-0.561c0.236,0.537-0.348,0.908-0.705,1.115c-0.41,0.235-0.982,0.442-1.354,0.637
		c-0.903,0.472-1.705,1.174-2.62,1.434c-0.398,0.543-1.071,0.826-1.348,1.505c1.853-0.502,2.472-2.236,4.761-2.301
		c0.743-0.909,1.731-1.357,2.858-1.912c1.283-0.625,2.457-1.244,3.496-2.059c2.861-1.54,5.616-3.422,7.858-5.723
		c0.729-0.737,1.61-1.752,2.46-2.071c0.183-0.059,0.357-0.165,0.634-0.064c0.982-1.062,2.345-1.746,2.861-3.269
		c-0.1-0.194-0.389,0.077-0.395-0.064c0.363-0.543,0.841-0.962,1.348-1.357c0.826-0.1,1.204-0.643,1.743-1.032
		c0.977-0.077,1.723-0.619,2.62-1.032c2.593-1.186,4.991-2.644,8.256-2.702c0.602-1.186-0.764-1.552-0.947-2.454
		c0.734-0.826,1.584-1.546,1.906-2.785c0.356-0.584,0.997-0.66,1.345-1.191c0.183-0.271,0.422-0.968,0.481-1.345
		c0.221-1.487-0.726-2.26-0.316-3.416c-0.218-0.454-0.554-0.867-0.478-1.428c0.068-0.502,0.558-0.72,0.711-1.115
		c-0.478-0.531-0.442-1.368-0.315-2.301c0.221-0.277,0.377-0.631,0.634-0.873c0.121-0.696,0.348-1.204,0.64-1.746
		c0.41-0.791,1.071-1.292,0.867-2.543c0.655-0.661,0.628-1.835,0.319-2.855c0.106-0.39,0.383-0.396,0.478-0.796
		c0.201-0.874-0.345-2.019,0.08-2.779C316.063,169.579,315.644,169.573,315.208,169.597z"
	/>
	<path fill-rule="evenodd" clip-rule="evenodd" d="M272.014,220.799c-0.389,0.432-0.782,0.861-1.192,1.274
		c-0.315-0.053-0.451,0.077-0.714,0.077c-0.935,0.572-1.616,1.215-2.383,1.982c-0.743,0.749-1.307,1.781-2.542,1.828
		c-0.997,1.623-2.971,2.271-3.333,4.531c0.525,0.012,0.675-0.336,1.112-0.401c0.404-1.475,1.522-2.177,2.54-3.091
		c0.773-0.702,1.575-1.328,2.304-1.988c0.761-0.69,1.637-1.139,2.46-1.752c0.369-0.271,0.738-0.679,1.118-1.027
		c0.354-0.336,0.982-0.713,0.788-1.351C272.155,220.823,272.108,220.793,272.014,220.799z"
	/>
	<path fill-rule="evenodd" clip-rule="evenodd" d="M257.403,242.958c0.823-2.73,1.637-5.58,2.782-7.939
		c0.283-0.596,0.675-1.145,0.95-1.671c0.13-0.242,0.13-0.525,0.236-0.72c0.08-0.13,0.322-0.194,0.398-0.313
		c0.236-0.349,0.33-0.809,0.162-1.269c-0.431,0.602-1.018,1.044-1.112,1.982c-0.451,0.425-0.702,1.044-0.95,1.671
		c-0.484,0.252-0.64,0.836-0.958,1.262c-0.032,1.057-0.49,1.688-0.95,2.307c0.292,0.762-0.549,1.098-0.711,1.67
		c-0.088,0.283,0.032,0.844,0,1.352C257.188,242.015,256.952,242.569,257.403,242.958z"
	/>
  <path fill-rule="evenodd" clip-rule="evenodd" d="M260.981,263.366c0-0.797,0-1.594,0-2.391c-0.163-0.318-0.46-0.471-0.561-0.797
		c-0.168-0.518-0.021-1.125-0.156-1.656c-0.106-0.408-0.357-0.797-0.478-1.197c-0.336-1.074-0.643-2.189-0.956-3.17
		c-0.127-0.424-0.142-0.777-0.236-1.273c-0.101-0.508-0.363-0.996-0.478-1.51c-0.513-2.283-0.147-5.877-0.867-8.012
		c-0.021-0.07-0.068-0.102-0.166-0.084c-0.094,1.182,0.124,2.219-0.159,3.252c0.209,0.359,0.228,0.826,0.245,1.273
		c0.038,1.203,0.064,2.59,0,3.807c0.165,0.365,0.563,0.701,0.711,1.107c0.067,0.207,0.009,0.479,0.08,0.715
		c0.083,0.289,0.292,0.508,0.398,0.797c0.083,0.23,0,0.477,0.077,0.713c0.112,0.359,0.401,0.578,0.475,0.873
		c0.083,0.342-0.006,0.768,0.083,1.115c0.15,0.584,0.561,1.109,0.714,1.664c0.121,0.461,0.13,0.967,0.236,1.434
		c0.112,0.479,0.363,0.891,0.398,1.268C260.421,262.228,259.934,262.993,260.981,263.366z"
  />
</svg>

