<svg version="1.1" id="Calque_1" xmlns="http://www.w3.org/2000/svg" xmlns:xlink="http://www.w3.org/1999/xlink" x="0px" y="0px"
	 width="432px" height="332px" viewBox="0 0 432 332" enable-background="new 0 0 432 332" xml:space="preserve" fill="#FFF">
<path fill-rule="evenodd" clip-rule="evenodd" d="M334.832,143.465c-0.235-0.036,0.012,0.419-0.241,0.359
	c-14.962,0-30.685,0-45.646,0c-2.147,0-4.318-0.106-6.396,0c-0.271,0.012-0.524,0.112-0.79,0.118
	c-1.817,0.041-3.788-0.07-5.493-0.059c-0.932,0.012-1.858-0.201-2.778-0.236c-0.277-0.018-0.561,0.059-0.844,0.053
	c-0.342,0-0.666-0.117-0.968-0.117c-0.371,0-0.767,0.1-1.145,0.117c-1.026,0.048-2.035-0.117-3.079-0.117
	c-2.832,0-5.752-0.036-8.696-0.184c-0.796-0.041-1.599,0-2.419,0c-0.755,0-1.545,0.065-2.289,0
	c-1.929-0.153-4.188-0.047-6.159-0.301c-1.692-0.218-3.888-0.118-5.799-0.118c-3.593,0-7.092-0.064-10.561-0.064
	c-1.77,0-3.569,0.124-5.315,0c-0.206-0.012-0.46-0.095-0.726-0.118c-2.502-0.188-5.073,0.112-7.61-0.059
	c-0.195-0.012-0.343-0.054-0.537-0.065c-6.041-0.247-12.153-0.147-18.235-0.359c-0.756-0.024-1.487-0.153-2.236-0.177
	c-0.814-0.036-1.64,0-2.472,0c-11.511,0-22.879,0-34.354,0c-0.018-0.366,0.041-0.814-0.064-1.092
	c-1.269-0.136-2.797-0.023-4.166-0.06c0.06,0.88-0.082,1.646,0,2.479c0.042,0.365,0.184,0.726,0.242,1.085
	c0.153,0.991,0.271,1.759-0.301,2.413c-13.145,0.041-27.285-0.076-39.911,0.065c-0.259,0.406-0.896,1.48-1.51,1.445
	c-0.661-0.042-0.543-0.779-0.36-1.511c-0.714,0.06-0.926,0.012-1.752,0c0.006,0.566,0.667,0.514,0.602,1.145
	c-0.041,0.466-0.861,0.649-0.902,1.092c-0.059,0.566,0.797,1.103,0.962,1.811c0.118,0.467,0.112,1.127-0.295,1.452
	c-0.655,0.507-1.676-0.413-2.537,0.117c-0.266,0.655,0.136,1.145,0.419,1.451c0.283,0.396,1.977,0.502,1.752,1.328
	c-0.082,0.289-0.902,0.489-1.451,0.602c-1.233,0.248-2.147-0.496-3.021-0.242c0.064,0.313-0.035,0.431-0.118,0.726
	c0.318,0.549,1.015,0.838,1.511,1.328c0.247,0.241,0.371,0.578,0.602,0.784c0.348,0.307,1.104,0.508,1.085,1.086
	c-0.012,0.519-0.689,0.755-1.085,0.908c-0.479,0.183-1.156,0.39-1.387,0.785c-0.301,0.519,0.023,0.949-0.183,1.687
	c-0.06,0.219-0.318,0.396-0.543,0.667c-0.425,0.52-0.809,1.15-0.661,2.112c0.502,0.495,1.575,0.908,1.988,1.575
	c0.159,0.241,0.401,0.79,0.065,1.145c-1.026-0.106-1.398-0.861-2.537-0.844c-0.525,0.348-0.932,0.631-0.968,1.085
	c-0.018,0.23,0.083,0.572,0.242,0.72c0.236,0.23,0.755,0.213,1.145,0.366s0.791,0.39,0.726,0.784
	c-0.041,0.242-0.749,0.632-0.962,0.667c-0.194,0.029-0.454-0.059-0.666-0.064c-0.295,0-0.572-0.048-0.791,0.064
	c-0.396,0.194-0.383,0.997-0.596,1.263c-0.401,0.495-1.546,0.52-2.236,0.549c-0.259-0.06-0.165,0.235-0.365,0.235
	c-0.295-0.006-0.289-0.313-0.543-0.359c-0.52,0.342-1.067,0.667-1.387,1.209c0.083,0.248,0.13,0.307,0.118,0.543
	c-0.006,0.194-0.142,0.283-0.118,0.478c0.024,0.195,0.449,0.879,0.543,0.974c0.207,0.201,0.454,0.159,0.726,0.301
	c0.142,0.077,0.124,0.207,0.177,0.242c0.69,0.413,0.762-0.531,1.328-0.489c0.212,0.129,0.437,0.318,0.431,0.489
	c-0.018,0.236-0.325,0.59-0.607,0.784c-0.649,0.443-2.349,0.661-2.537,1.387c-0.029,0.112,0.112,0.578,0.183,0.667
	c0.13,0.153,0.401,0.2,0.478,0.359c0.065,0.112-0.206,0.36,0.124,0.301c0.165,0.26,0.602-0.117,0.667,0.242
	c0.188,0.219-0.324,0.124-0.242,0.425c-0.1,0.177-0.076,0.49-0.365,0.478c-0.147-0.147-0.301-0.105-0.419-0.177
	c-0.331-0.194-0.337-0.543-0.543-0.784c-0.124-0.142-0.295-0.112-0.366-0.301c-0.259,0.012-0.684-0.101-1.026-0.184
	c-0.254,0.006-0.212,0.308-0.483,0.301c-0.106,0.236-0.413-0.094-0.419,0.242c-0.213,0.23-0.018,0.514-0.059,0.785
	c-0.03,0.165-0.118,0.076-0.184,0.241c-0.082,0.201,0.118,0.855,0.242,1.027c0.248,0.354,0.778,0.441,1.086,0.79
	c-0.024,0.442-0.16,0.649-0.06,1.079c-0.555,0.337-1.121,0.655-1.693,0.968c-0.111-0.212,0.178-0.33,0-0.602
	c-0.059-0.283-0.324-0.366-0.301-0.726c-0.064-0.366,0.36-0.242,0.242-0.667c0.029-0.289-0.425-0.1-0.425-0.359
	c-0.077-0.201-0.142-0.419-0.483-0.36c-0.331-0.018,0,0.277-0.242,0.301c-0.136,0.101-0.313,0.166-0.484,0.236
	c0.024,0.809-0.802,0.926-1.145,1.333c-0.07,0.083-0.094,0.349-0.183,0.484c-0.13,0.212-0.266,0.266-0.301,0.419
	c-0.023,0.117,0.047,0.33,0.065,0.549c0.006,0.165-0.13,0.418,0.059,0.478c0.348,0.147,0.661-0.301,1.145-0.06
	c-0.136-0.501-0.431-0.808-0.118-1.15c0.188-0.206,0.478-0.035,0.902-0.117c0.189,0.123-0.018,0.371,0.124,0.602
	c0.142,0.271,0.49-0.035,0.479,0.365c0.094,0.219-0.201,0.502-0.301,0.726c-0.248-0.053-0.007-0.602-0.419-0.483
	c-0.195,0.743,0.07,1.534,0.117,2.236c-0.171,0.142-0.365,0.277-0.478,0.483c-0.448,0.077-0.454-0.313-0.85-0.124
	c-0.088,0.236-0.483,0.59-0.425,0.902c0.06,0.289,0.195,0.16,0.425,0.301c0.195,0.166,0.118,0.36,0.183,0.543
	c0.366-0.023,0.803-0.136,1.086,0.065c0.219,0.153,0.324,0.59,0.425,0.784c0.188,0.39,0.165,0.902,0.301,1.387
	c0.177,0.643,0.49,1.038,0.36,1.758c-0.283,0.23-0.337,0.566-0.726,0.596c-0.572,0.048-0.785-0.596-1.328-0.596
	c-0.802-0.012-1.386,0.944-1.386,1.623c-0.006,0.295,0.2,0.584,0.177,0.908c-0.018,0.348-0.165,0.572-0.419,0.85
	c-0.342,0.142-0.803,0.159-1.15,0.301c-0.295-0.147-0.59-0.118-0.962-0.064c-0.289-0.042-0.33-0.189-0.602-0.118
	c-0.307,0.076-0.537,0.448-0.543,0.843c58.241,0,116.481,0,174.729,0c0.065-1.304,0.378-2.513,0.483-3.622
	c0.019-0.177-0.07-0.377-0.064-0.542c0.012-0.195,0.171-0.36,0.183-0.543c0.048-0.555-0.153-1.127-0.059-1.693
	c0.053-0.349,0.342-0.69,0.359-1.086c1.187-0.047,1.311-1.156,2.301-1.393c-0.029,0.467,0.154,0.791,0.479,0.909
	c0.401,0.147,0.708-0.101,1.085-0.183c0.667,0.295,1.269-0.166,1.936-0.236c0.354-0.743,1.77-0.773,1.87-1.693
	c0.029-0.283-0.153-0.514-0.183-0.784c-0.023-0.225-0.036-0.484,0-0.667c0.082-0.407,0.619-0.726,0.666-1.145
	c0.042-0.354-0.313-0.743-0.183-1.092c0.153-0.389,0.537-0.566,0.844-0.844c0.572-0.501,0.902-1.262,1.817-1.327
	c0.194-0.266,0.431-0.489,0.784-0.602c-0.029-0.318-0.029-0.702,0.183-0.908c0.49-0.49,1.109-0.024,1.688-0.242
	c0.46-0.171,0.679-0.755,1.086-1.086c0.283-0.229,0.761-0.513,1.085-0.542c0.219-0.023,0.484,0.117,0.726,0.117
	c0.514,0.006,1.133-0.188,1.693-0.301c0.578-0.111,1.233-0.313,1.746-0.301c0.738,0.018,0.897,0.49,1.393,0.667
	c0.685,0.242,2.071,0.124,2.354-0.118c0.283-0.254,0.224-0.767,0.425-1.026c0.224-0.301,0.53-0.289,0.72-0.549
	c0.082,0.183,0.418,0.106,0.666,0.118c0.525-0.277,0.826-0.773,1.327-1.08c0.148-0.041,0.473-0.035,0.667-0.183
	c0.225-0.142,0.213-0.513,0.36-0.726c0.377,0.064,0.524,0.23,0.85,0.183c0.507-0.076,1.05-0.949,1.504-1.026
	c0.077-1.451,1.451-1.61,2.537-2.053c0.295-0.313,0.454-0.602,0.968-0.785c0.412-0.147,0.902-0.064,1.327-0.183
	c0.336-0.089,0.602-0.425,0.908-0.483c0.974-0.195,1.457,0.406,2.106,0.666c0.543-0.194,0.549-0.772,0.79-1.15
	c0.166-0.26,0.484-0.365,0.661-0.602c0.147-0.188,0.225-0.495,0.366-0.726c0.165-0.26,0.307-0.442,0.418-0.72
	c0.106-0.271,0.136-0.584,0.248-0.85c0.112-0.271,0.36-0.401,0.419-0.726c-0.112-0.254-0.165-0.95,0.124-1.269
	c0.667-0.307,1.215,0.124,1.929,0.124c0.136,0.13-0.059,0.248,0,0.483c0.431-0.229,0.909-0.483,1.086-0.967
	c0.188-0.514,0.112-1.168,0.483-1.569c1.145-0.313,1.629-1.375,2.655-1.812c0.413-0.177,0.873-0.188,1.387-0.359
	c0.247,0.053,0.247,0.359,0.431,0.478c0.206,0.041,0.437,0.029,0.536,0.301c-0.018,0.767,0.219,1.439-0.059,2.236
	c0.33,0.336,0.778,0.565,1.209,0.542c0.72-0.041,1.28-0.844,1.87-0.967c0.248-0.708,1.139-1.003,1.511-1.511
	c0.225-0.301,0.219-0.685,0.36-1.026c0.165-0.39,0.507-0.637,0.607-1.08c0.483-0.183,0.619-0.566,1.145-0.79
	c0.519-0.219,1.162-0.095,1.634-0.301c0.26-0.112,0.324-0.36,0.537-0.484c0.543,0.101,0.861-0.124,1.51-0.059
	c0.219-0.065,0.201-0.366,0.366-0.483c0.219-0.06,0.407-0.16,0.602-0.242c0.242,0.313,0.525,0.514,0.903,0.543
	c0.377,0.029,0.565-0.254,0.973-0.236c-0.064,0.791,0.413,1.215,1.204,1.445c0.578,0.171,1.186,0.213,1.569-0.118
	c0.241-0.212,0.206-0.584,0.425-0.908c0.212-0.324,0.684-0.525,0.902-0.902c0.183-0.313,0.2-0.69,0.366-0.974
	c0.177-0.289,0.519-0.431,0.72-0.72c0.247-0.343,0.46-0.826,0.483-1.269c0.578-0.549,0.696-1.563,1.327-2.053
	c1.286-0.166,1.782-1.971,3.204-1.93c0.726,0.018,1.145,0.479,1.628,0.902c0.236-0.206,0.69-0.023,0.85-0.059
	c-0.708-0.508-0.572-1.888-0.785-2.596c0.195-0.188,0.277-0.49,0.484-0.667c-0.071-0.743,0.584-1.085,0.66-1.687
	c0.042-0.325-0.117-0.502-0.177-0.909c-0.064-0.372-0.018-0.755-0.064-1.085c0.035-0.295,0.259-0.566,0.425-0.844
	c0.277-0.484,0.448-0.867,0.72-1.21c0.041-0.047,0.383-0.295,0.124-0.359C339.623,143.465,337.227,143.465,334.832,143.465z"/>
</svg>
