<svg version="1.1" id="Calque_1" xmlns="http://www.w3.org/2000/svg" xmlns:xlink="http://www.w3.org/1999/xlink" x="0px" y="0px"
	 width="432px" height="432px" viewBox="0 0 432 432" enable-background="new 0 0 432 432" xml:space="preserve">
<path fill-rule="evenodd" clip-rule="evenodd" d="M244.153,84.479c-24.637-3.552-49.156-7.222-73.775-10.797
	c-0.129,0.065,0.106,0.142,0.124,0.171c0.23,0.354-0.189,1.676-0.354,2.514c-0.555,2.761-1.044,5.362-1.522,7.888
	c-1.994,10.596-4.248,21.067-6.195,31.421c-2.619,14.041-5.545,28.07-8.23,41.929c-5.451,28.124-11.097,56.111-16.472,83.881
	c45.917,8.224,91.704,16.584,137.608,24.819c6.348-47.25,12.637-94.559,18.932-141.873c-18.696-3.016-37.38-6.042-56.017-9.104
	C240.188,105.056,242.313,94.667,244.153,84.479z"/>
</svg>
