<?xml version="1.0" encoding="utf-8"?>
<!-- Generator: Adobe Illustrator 16.0.0, SVG Export Plug-In . SVG Version: 6.00 Build 0)  -->
<!DOCTYPE svg PUBLIC "-//W3C//DTD SVG 1.1//EN" "http://www.w3.org/Graphics/SVG/1.1/DTD/svg11.dtd">
<svg version="1.1" id="Calque_1" xmlns="http://www.w3.org/2000/svg" xmlns:xlink="http://www.w3.org/1999/xlink" x="0px" y="0px"
	 width="432px" height="432px" viewBox="0 0 432 432" enable-background="new 0 0 432 432" xml:space="preserve">
<path fill-rule="evenodd" clip-rule="evenodd" d="M157.676,195.886c0.336-0.336,0.519-0.826,0.891-1.139
	c-0.431-1.098,0.407-1.416,0.572-2.105c0.106-0.461-0.195-0.762,0.077-1.223c1.434-0.318,3.711-0.961,4.548,0.324
	c-0.171,0.604-0.047,1.188,0.242,1.547c-0.236,0.643-0.165,1.215-0.159,1.781c0.313,0.076,0.301,0.184,0.643,0.088
	c0.466,0.555,1.186,0.602,1.628,1.133c0.455,0.555,0.685,1.652,0.808,2.271c0.042,0.184,0.083,0.277,0.083,0.408
	c0.041,1.434-0.177,2.914-0.248,4.383c-0.791,18.064-1.563,37.557-2.271,55.445c0.413-0.049,0.655-0.271,1.139-0.242
	c-0.354,2.596-0.896,5.428-1.139,7.875c17.386,0.502,34.524,1.246,51.716,1.947c0.023-0.713-0.761-1.133-0.979-1.787
	c-0.13-0.396-0.012-0.814-0.159-1.139c-0.271-0.59-0.796-0.637-1.221-1.139c-0.207,0.336-0.566,0.514-0.809,0.814
	c-0.513-0.318-0.183-0.762,0-1.217c-0.501-1.072-1.41-1.729-2.112-2.596c0.283-0.441-0.153-0.85-0.242-1.303
	c-0.083-0.408,0.035-0.879-0.083-1.299c-0.1-0.348-0.431-0.672-0.489-1.055c-0.024-0.154,0.083-0.402,0.083-0.65
	c0-0.477-0.171-1.014-0.083-1.375c0.053-0.193,0.283-0.289,0.165-0.488c0.218-0.301,0.891-0.59,1.133-1.057
	c0.13-0.242,0.023-0.672,0.165-1.057c0.041-0.117,0.177-0.217,0.242-0.324c0.348-0.561,0.071-0.879,0.083-1.705
	c0.018-0.826-0.018-1.35-0.407-1.863c0.336-0.371,0.737-0.674,1.139-0.98c1.044,0.043,1.198-0.801,2.354-0.643
	c0.289-0.418,0.791-0.619,0.973-1.145c-0.088-0.236-0.071-0.572-0.159-0.809c0.183-0.488,0.814-0.537,1.215-0.814
	c0.295-1.037-0.785-1.539-0.974-2.348c-0.053-0.217,0.047-0.596,0-0.896c-0.071-0.471-0.336-0.666-0.242-1.057
	c0.112-0.471,0.672-0.848,0.973-1.215c0.36-0.436,0.644-0.838,0.891-1.381c-0.13-0.607-0.478-1.102-0.407-1.621
	c0.065-0.426,0.513-0.602,0.572-0.975c0.106-0.678-0.649-0.92-0.49-1.787c-0.407-0.242-0.772-0.525-0.973-0.973
	c0.372-1.033,0.283-2.443,0.407-3.734c0.791-0.484,0.443-1.369,0.566-2.438c0.053-0.447,0.319-0.873,0.325-1.215
	c0.018-0.637-0.336-1.293-0.165-1.953c0.501-0.75,1.109-1.381,1.71-2.029c0.053-0.248-0.142-0.236-0.082-0.484
	c0.495-0.666,0.596-1.729,0.973-2.518c-0.142-0.633-0.731-1.004-0.731-1.623c0-0.803,0.767-1.299,1.056-1.947
	c-0.466-0.484-1.216-0.479-1.463-1.057c-0.118-0.283,0.024-0.719,0-1.139c0.396-0.199,0.501-0.689,0.897-0.891
	c0-0.307-0.348-0.242-0.242-0.648c0.212-1.568,0.702-3.297,0.809-4.867c0.041-0.631-0.036-1.186,0.242-1.711
	c0.1-0.254,0.307,0.053,0.325-0.318c0.56-1.551-1.109-2.4-0.968-3.576c0.071-0.672,0.791-0.961,1.05-1.627
	c-0.106-0.768,0.006-1.516-0.324-2.189c0.289-0.307,0.442-0.748,0.649-1.133c1.056-0.648,2.383-1.025,2.838-2.271
	c-0.16-0.566-0.449-0.99-0.401-1.545c0.071-0.92,1.021-1.428,1.298-2.111c0.071-0.166,0.006-0.473,0.077-0.732
	c0.065-0.195,0.207-0.395,0.248-0.566c0.266-1.057,0.171-2.006,0.324-2.762c0.26-1.273,1.156-1.893,1.705-2.92
	c0.454-0.225,0.702-0.654,1.381-0.654c0.413-0.502,1.032-0.803,1.457-1.299c0.307-0.826,1.003-1.268,1.545-1.863
	c-0.112-0.949,0.667-1.717,0.979-2.52c-0.331-0.85,0.236-1.889,0.484-2.678c-0.124-0.797-0.36-1.629-0.242-2.432
	c0.514-0.188,0.673-0.73,0.974-1.139c-0.201-0.07-0.354-0.188-0.324-0.488c0.259-0.326,0.619-0.566,0.973-0.809
	c0.437-1.287,1.77-1.693,2.513-2.68c-0.059-0.365,0.242-1.244,0-1.787c0.62-0.666,1.782-1.416,1.139-2.436
	c-0.277-0.018-0.661,0.064-0.814-0.078c0.147-0.891-0.384-2.283,0.572-2.76c0.035-0.26-0.154-0.289-0.083-0.566
	c0.389-0.236,0.554-0.697,0.731-1.145c0.277,0.152,0.383-0.006,0.726,0c-0.023-0.59,0.212-0.928,0.165-1.541
	c0.584-0.631,1.192-1.244,1.623-2.029c-0.083-0.418,0-0.494,0-0.973c0.407,0.207,0.72-0.137,1.139-0.16
	c-0.083-0.383-0.413-0.506-0.49-0.896c0.649-0.018,0.726-0.76,0.49-1.215c-0.171-0.053-0.661,0.172-1.139,0.082
	c-0.578-1.162,0.383-1.924,1.139-2.441c-0.761-1.098-0.301-2.934-1.463-3.646c-0.266-1.098-0.454-2.826,0.248-3.9
	c-0.095-0.613,0.035-1.498,0.159-1.945c-0.454-0.514-0.702-1.404-0.566-2.271c-0.029-0.379-0.46-0.355-0.49-0.732
	c0.36-0.779,0.903-1.375,1.623-1.787c-0.035-0.377,0.224-0.832,0.49-1.139c0.012-0.33-0.142-0.508-0.083-0.891
	c0.448-0.113,0.855-0.006,1.215-0.078c1.015-0.217,1.452-0.996,2.195-1.463c0.802,0.332,1.546-0.188,2.354,0.16
	c0.708-0.295,1.109-1.027,1.87-1.057c0.85-0.029,1.457,0.926,2.271,0.896c0.838-0.205,1.522-0.549,2.029-0.896
	c0.531-0.365,1.121-0.43,1.623-0.809c-0.047-0.672-0.059-1.645,0.165-2.277c0.1-0.105,0.348-0.076,0.566-0.076
	c-0.065-0.383,0.124-0.525,0.083-0.896c0.514-0.584,1.369-0.389,1.947-0.973c0.23,0.229,0.808,0.105,1.056,0.33
	c0.36-0.313,0.832-0.52,1.216-0.814c1.368,0.283,2.365-0.803,3.002-1.545c0.195-0.225,0.301-0.531,0.49-0.727
	c0.266-0.283,0.685-0.342,0.814-0.572c0.224-0.4,0.064-0.844,0.159-1.139c0.271-0.158,0.661-0.201,0.808-0.484
	c0.313-0.549-0.4-0.766,0.083-1.139c0.241-0.064,0.549,0.16,0.979,0c0.094-0.631,0.743-0.707,1.375-0.807
	c0.348-0.271,0.289-0.768,0.566-1.063c0.271-0.271,0.713-0.166,0.896-0.566c-0.065-0.691-0.561-0.949-0.809-1.463
	c0.484-0.402,1.168-0.613,1.215-1.457c-0.206-0.184-0.365-0.455-0.73-0.732c-0.68-0.502-1.216-0.484-0.649-1.381
	c0.667-0.283,0.879-0.082,1.788-0.158c0.241-0.266,0.666-0.359,0.967-0.572c0.064-0.33-0.118-0.414-0.076-0.727
	c0.707-0.023,0.466-0.502,0.73-0.973c-0.2-0.449-0.79-0.596-0.973-1.139c-0.153-0.443,0.053-0.98-0.165-1.541
	c1.421-0.164,0.171-1.078-0.165-1.379c0.183-0.35-0.201-0.744-0.242-1.139c-0.336,0.064-0.384-0.16-0.648-0.166
	c-0.572-0.418-0.674-1.02-0.975-1.699c-0.123-0.289-0.336-0.549-0.406-0.814c-0.077-0.301,0-0.637-0.077-0.973
	c-0.295-1.305-1.475-2.289-1.788-3.41c-0.1-0.354-0.235-0.949-0.164-1.305c0.047-0.199,0.241-0.264,0.489-0.564
	c0.177-0.213,0.277-0.578,0.407-0.727c0.188-0.225,0.489-0.295,0.648-0.49c0.354-0.424,0.413-0.885,0.814-1.215
	c0.23-0.094,0.479-0.172,0.643-0.33c0.23-0.432,0.219-0.566,0.248-0.975c0.012-0.164,0.166-0.313,0.16-0.4
	c-0.007-0.094-0.148-0.254-0.16-0.324c-0.266-1.311,1.08-1.865,1.381-2.684c-0.254-0.125-0.277-0.479-0.33-0.809
	c0.324-0.408,0.441-1.027,0.648-1.541c0.861-0.336,1.092-1.291,1.787-1.787c0.018-1.045,0.861-1.244,1.139-2.029
	c-0.441,0.059-0.277-0.479-0.4-0.73c-0.336-0.42-0.685-0.668-0.814-1.217c-0.142-0.59,0.023-1.393-0.082-2.111
	c-0.131-0.85-1.192-1.564-1.222-2.354c-0.006-0.236,0.26-1.051,0.489-1.305c0.089-0.094,0.425-0.213,0.649-0.318
	c0.784-0.395,0.489-0.16,1.222,0c0.896,0.189,1.291-0.189,1.539-0.896c0.254,0.041,0.33-0.1,0.407-0.242
	c-9.788,0.727-20.076,0.508-30.365,0.973c-6.826,0.314-14.129,0-21.345,0.326c-2.201,0.1-4.661,0.205-6.737,0
	c-1.658-0.166-3.64,0-5.363-0.084c-1.97-0.088-3.834-0.672-5.758-0.809c-1.451-0.1-3.026-0.07-4.466,0
	c-8.454,0.391-17.026-0.059-25.085-0.164c-0.065,0.725,0.029,1.32,0,2.195c-0.655,0.873-2.13,1.799-3.41,0.891
	c0.177-0.566-0.023-0.928,0.165-1.381c0.089-0.213,0.271-0.26,0.325-0.566c0.024-0.148-0.018-0.383,0-0.566
	c-0.207,0.006-0.342-0.047-0.407-0.166c-0.738,0.443-0.72,1.83-2.03,1.463c-0.661,0.385-0.655,1.717-1.623,1.541
	c-0.731,0.785-1.162,1.875-1.463,3.086c0.266,0.33,0.26,0.932,0.649,1.139c0.183,0.188,0.319-0.031,0.566,0
	c0.307-0.184,0.224-0.756,0.655-0.814c0.926,0.236,1.817,0.506,2.271,1.221c-0.378,0.412-0.283,1.492,0,1.947
	c-0.201,0.035-0.289,0.199-0.407,0.324c-0.142,0.654-0.501,1.174-0.731,1.863c-0.454,1.375-0.283,3.021-0.731,4.225
	c0.253,0.537,0.785,0.514,0.896,1.051c0.189,0.949-0.507,0.891-0.649,1.387c-0.147,0.494-0.023,0.961,0.242,1.133
	c0.632,0.141,0.508-0.467,0.649-0.814c0.643-0.189,0.377-1.293,0.891-1.623c1.221-0.207,1.38,0.82,0.974,1.787
	c-0.342,0.242-0.537,0.502-0.726,0.814c-0.195,0.307-0.26,0.738-0.49,1.057c-0.042,0.053-0.301,0.207-0.407,0.324
	c-0.331,0.359-0.708,0.473-0.973,0.809c-0.236,0.301-0.183,0.785-0.407,1.221c-0.165,0.318-0.531,0.537-0.649,0.809
	c-0.077,0.184-0.154,0.525-0.242,0.814c-0.566,1.852-0.602,3.939-0.649,6.248c0.042,0.283,0.218,0.43,0.242,0.73
	c-0.419,0.744-1.493,0.838-2.03,1.463c0.254,0.957,1.109,1.498,0.732,2.838c0.277,0.566,0.737,0.938,1.298,1.221
	c0.531-0.07,0.879-0.313,1.298-0.482c0.13,0.301,0.33,0.537,0.407,0.885c-0.042,0.395-0.478,0.441-0.649,0.814
	c-0.071,0.158,0.012,0.424-0.083,0.572c-0.484,0.725-1.51,0.943-2.029,0.158c-0.342-0.52-0.012-1.977-0.891-1.621
	c-0.041,0.246,0.177,1.055,0,1.297c-0.767,0.225-1.369,0.406-2.029,0.566c-0.672-0.242-1.469-0.225-2.029-0.324
	c-0.077,0.412,0.519,0.49,0.814,0.73c0.224,0.189,0.501,0.543,0.726,0.814c0.555,0.656,1.091,1.658,0.572,2.514
	c0.425,0.195,0.932,0.318,1.298,0.566c0,0.189,0,0.383,0,0.572c0.637,0.313,1.328,0.566,1.298,1.539c0.153,0.078,0.271-0.24,0.324,0
	c-0.012,0.391,0.313,0.449,0.324,0.814c-0.1,0.361-0.489,0.426-0.648,0.732c-0.047,0.383-0.118,0.742-0.083,1.215
	c0.225,0.271,0.596,0.189,0.731,0.648c0.065,0.213-0.018,1.121-0.082,1.547c-0.095,0.625-0.478,1.344-0.732,1.463
	c-0.596-0.461-0.755-1.357-1.215-1.953c0.266-0.248,0.095-0.932,0.242-1.299c-0.962,0.361-0.484,1.541-0.891,2.438
	c-0.271,0.59-0.915,0.896-0.973,1.457c-0.071,0.619,0.359,1.227,0.407,1.871c0.047,0.625-0.207,1.066-0.083,1.705
	c-0.248,0.264-0.372,0.648-0.731,0.813c0.13,1.205-0.861,1.299-0.814,2.432c-0.354,0.318-0.56,0.791-0.483,1.539
	c0.259,0.313,0.944,0.307,1.133,0.248c0.047,0.225,0.124,0.426,0.165,0.648c-0.301,0.543-1.021,0.656-1.215,1.305
	c0.678,0.531,0.72-0.301,1.38-0.414c0.036,0.35,0.49,0.266,0.566,0.572c0.029,0.42-0.307,0.592-0.083,0.975
	c-0.118,0.129-0.419,0.064-0.407,0.324c-0.006,0.4,0.083,0.395,0,0.732c-0.832,0.111-1.74,0.482-2.348,0.566
	c-0.088,0.447-0.501,0.807-0.165,1.215c-0.631,0.342-1.493,0.453-2.029,0.896c-0.224,1.074-1.41,1.186-1.298,2.596
	c0.259,0.254,0.979,0.041,1.056,0.484c-0.224,0.607-0.307,1.043-0.572,1.627c-0.112,0.248-0.336,0.537-0.401,0.814
	c-0.071,0.271,0.088,0.662,0,0.975c-0.171,0.584-0.755,0.873-0.979,1.297c-0.407,0.779-0.053,1.559-0.484,2.432
	c-0.236,0.012-0.531-0.043-0.649,0.082c-0.053,0.484-0.572,0.773-0.731,1.303c-0.177,0.592-0.077,1.434-0.242,2.107
	c-0.065,0.248-0.236,0.383-0.248,0.566c-0.006,0.188,0.289,0.424,0.083,0.572c0.79,0.832,1.94,1.227,1.545,2.844
	c-0.053,0.211-0.472,0.826-0.49,0.973c-0.041,0.377,0.218,0.773,0.165,1.057c-0.07,0.354-0.478,0.531-0.489,0.809
	c0.566,1.367-0.042,3.463,0.814,4.465c-0.496,0.313,0.094,0.803-0.083,1.215c0.743-0.094,0.896,0.402,1.215,0.732
	c0.106,0.891,0.112,1.895,0.49,2.52c-0.266,0.33-0.419,0.766-0.566,1.215c0.519,0.75,0.354,1.238-0.089,1.705
	c-0.342,0.371-0.602,0.631-0.808,1.057c0.313,0.631,1.015,1.127,0.974,1.863c0.442,0.348,0.967,0.408,1.215,0.98
	c0.136,0.295,0.041,0.818,0.165,1.133c0.112,0.277,0.318,0.277,0.407,0.566c-0.271,1.504-1.941,1.986-1.546,3.898
	c-0.212,0.33-0.395,0.686-0.726,0.891c-0.26,0.041-0.289-0.141-0.572-0.082c-0.13,0.955-0.561,1.611-1.05,2.195
	c0.224,1.215-0.779,2.07-0.572,3.244c-0.283,0.283-0.496,0.637-0.732,0.973c-0.012,0.514,0,1.381,0.407,1.705
	c-0.266,0.295-0.442,0.957-0.242,1.463c-0.236,0.391-0.396,0.855-0.572,1.299C156.019,194.888,156.662,195.573,157.676,195.886z"/>
<path fill-rule="evenodd" clip-rule="evenodd" d="M162.137,74.282c0.667,0.037,1.369,0.195,1.87,0.326
	c0.171,0.795,0.513,1.396,0.407,2.27c-0.042,0.344-0.301,0.691-0.325,1.057c-0.077,1.004,0.207,2.088-0.242,3.004
	c0.885,0.572,0.684,2.471,0.242,3.326c0.23,0.625,1.068,0.75,0.973,1.463c0.401-1.174,1.027-2.135,0.974-3.568
	c0.266-0.33,0.342-0.85,0.484-1.299c-0.042-0.336-0.23-0.523-0.242-0.896c0.153-0.389,0.454-0.625,0.648-0.973
	c-0.236-0.479,0.03-0.943,0.166-1.299c-0.024-0.33-0.153-0.549-0.242-0.814c0.46-0.289,1.015-0.748,1.622-0.643
	c0.926-1.049,1.451-2.502,1.705-4.225c-2.808-0.146-5.056,0.102-7.793-0.082c-0.012,0.307,0.407,0.189,0.484,0.408
	c-0.366,0.252,0.165,0.725,0,1.297C162.438,73.663,162.184,73.87,162.137,74.282z"/>
<path fill-rule="evenodd" clip-rule="evenodd" d="M167.818,83.698c0.413-0.289,0.826-0.59,1.062-1.055
	c-0.201-0.887,0.242-2-0.655-2.514c-0.077,0-0.16,0-0.242,0c-0.33,0.59-0.672,1.168-0.891,1.863
	c-0.855,0.367-0.808,1.629-0.974,2.68c-0.271,0.354-0.283,0.961-0.407,1.463c0.283,0.283,0.69,0.447,0.648,1.055
	c0.201,0.043,0.201-0.24,0.242-0.324c0.224-0.453,0.372-0.855,0.566-1.297C167.417,85.003,167.847,84.442,167.818,83.698z"/>
<path fill-rule="evenodd" clip-rule="evenodd" d="M160.679,86.218c0.342,0.578,0.608,1.475,1.38,1.381
	c0.366-0.396,0.437-1.08,0.732-1.547c-0.024-0.631-0.036-0.742,0.077-1.215c-0.023-0.164-0.165-0.219-0.242-0.324
	c0.177-0.336,0.443-0.59,0.649-0.891c0.041-0.689,0.259-1.203,0.324-1.871c-0.885,0.107-0.643-0.926-1.463-0.891
	C161.151,82.147,161.175,84.442,160.679,86.218z"/>
<path fill-rule="evenodd" clip-rule="evenodd" d="M163.11,92.466c0.047,0.354,0.537,0.785,0.738,0.896
	c0.183-0.354,0.289-0.797,0.566-1.057c0.183,0.172,0.171,0.531,0.566,0.49c0.212-0.607,0.649-1.568,0.248-2.277
	c0.354-0.479,0.147-1.098,0-1.623c0.253-0.176,0.478-0.383,0.726-0.572c-0.042-0.283-0.236-0.359-0.083-0.643
	c-0.301-0.076-0.572-0.189-0.891-0.242c-0.212,0.26-0.224,1.098-0.649,0.885c-0.077-0.395,0.266-0.377,0.159-0.807
	c-1.126,0.229-0.501,1.729-0.726,3.168C163.641,91.474,163.051,91.958,163.11,92.466z"/>
<path fill-rule="evenodd" clip-rule="evenodd" d="M165.063,99.935c-0.029-0.732,0.065-1.34,0.407-1.705
	c0.047-0.52,0.183-0.949,0.325-1.381c0.69-0.389,1.475-0.92,1.375-1.705c-0.042-0.383-0.655-0.654-0.891-1.133
	c-0.242-0.494-0.101-0.76-0.242-1.215c-0.018-0.07-0.071-0.1-0.165-0.082c-0.785,0.348-0.525,1.492-0.974,2.029
	c-0.253-0.041-0.283,0.141-0.566,0.076c-0.035-0.152,0.112-0.49-0.165-0.406c-0.472,0.205-0.861,0.488-1.463,0.572
	c-0.401,0.5-0.277,1.127-0.401,1.699c-0.207,0.967-0.932,1.734-0.974,2.844c-0.041,1.031,0.342,1.963,0.159,3.326
	c0.095,0.236,0.171,0.484,0.331,0.654c-0.189,0.084-0.295,0.242-0.331,0.484c0.319,0.143,0.679,0.248,0.974,0.408
	c0.342,0.984,0.991,1.662,1.221,2.76c0.283,0.064,0.46,0.242,0.732,0.324c0.183-0.248,0.218-0.643,0.318-0.973
	c0.301,0,0.602,0,0.896,0c0.354-0.219,0.26-0.666,0.407-1.139s0.531-0.979,0.566-1.457c0.071-0.855-0.36-1.74-0.731-2.119
	c-0.124-0.123-0.224-0.342-0.401-0.318c-0.348,0.82-0.997,2.313-2.112,1.375c-0.042-0.531,0.077-0.949,0-1.297
	C164.325,101.415,164.614,100.601,165.063,99.935z"/>
</svg>
