<svg version="1.1" id="Calque_1" xmlns="http://www.w3.org/2000/svg" xmlns:xlink="http://www.w3.org/1999/xlink" x="0px" y="0px"
	 width="432px" height="432px" viewBox="0 0 432 432" enable-background="new 0 0 432 432" xml:space="preserve">
<path fill-rule="evenodd" clip-rule="evenodd" d="M364.25,172.697c-0.33-0.188,0.107-0.602-0.158-0.602
	c-0.709,0.076-0.908-0.337-1.352-0.531c0.125-1.204,1.168-1.493,1.805-2.183c-0.43,0.13-0.283-0.318-0.607-0.301
	c-1.361,0.111-2.578,0.695-3.904,0.607c-0.791,0.419-1.871,0.13-2.939,0.142c-0.211,0.064-0.377,0.183-0.607,0.229
	c-0.254,0.03-0.412-0.029-0.596-0.076c-0.424,0.283-0.637,0.767-0.902,1.203c0.318,0.543,0.242,1.269-0.383,1.434
	c-0.92-0.483-1.486,0.384-2.479,0.301c-0.43,0.378-0.844,0.762-1.209,1.204c0.496,0.46,1.352-0.048,1.811-0.295
	c0.584,0.041,0.738,0.561,1.057,1.05c-0.271,0.194-0.059,0.478,0,0.755c-0.207,0.242-0.318,0.584-0.531,0.826
	c0.059,0.206,0.248,0.307,0.225,0.596c-0.992-0.336-1.469,0.431-1.959,0.832c0.059,0.442,0.438,0.566,0.455,1.056
	c-1.188,0.715-1.422-1.415-2.484-0.607c-0.354,0.861-0.213,1.499,0.07,2.336c-0.896,0.461-1.475,1.233-2.105,1.959
	c0.236,0.318,0.289,0.661,0.23,0.902c0.176,0.148,0.529,0.118,0.596,0.384c-0.391,0.077-0.791,0.295-1.205,0.52
	c-0.348,0.2-0.83,0.401-1.049,0.679c-0.113,0.141-0.178,0.519-0.301,0.755c-0.307,0.607-0.549,0.896-0.225,1.651
	c-0.129,0.378-0.283,0.649-0.076,0.985c-0.703,0.419-1.027,1.228-1.658,1.734c0.33,0.679-0.479,0.85-0.377,1.729
	c0.908,0.638,1.486-0.425,1.957-0.902c0.137,0.083,0.254,0.188,0.379,0.301c-0.018,0.991-0.648,1.357-1.357,1.652
	c-0.43-0.266-0.861,0.012-1.285,0.153c-0.119,0.448-0.23,0.926-0.367,1.356c0.047,0.177,0.324,0.124,0.225,0.448
	c0.307,0.112,0.365-0.424,0.602-0.147c-0.543,0.608-0.313,1.511-1.051,1.882c0.172,0.095,0.137,0.401,0.225,0.603
	c-0.537,0.519-1.145,0.974-1.355,1.805c0.146,0.26,0.371,0.372,0.223,0.756c0.508,0.029,0.992,0.047,1.051-0.378
	c-0.012,0.313,0.371,0.236,0.307,0.602c-0.277,0.479-0.684,0.826-1.434,0.832c0.023,0.454,0.207,0.631,0,0.974
	c0.189,0.212,0.438,0.365,0.449,0.755c0.289,0.124,0.471-0.225,0.535-0.076c0.113,0.566-0.395,0.507-0.684,0.678
	c0.059,0.407-0.059,0.644-0.146,0.902c0.725,0.927,1.729,1.771,1.35,3.387c0.26,0.112,0.473,0.283,0.832,0.307
	c0.26-0.147,0.373-0.437,0.68-0.53c0.164-1.315-0.248-2.72,0.518-3.688c-0.193-0.483-0.152-1.186-0.365-1.806
	c0.377-0.324,0.525-0.879,0.975-1.127c-0.049-0.424,0.135-0.619,0.301-0.831c-0.332-0.225,0.135-0.442,0-0.903
	c0.023-0.283-0.309-0.2-0.225-0.524c0.33-0.88,1.15-1.257,1.498-2.112c0.166,0.047,0.313-0.136,0.461-0.153
	c0.318-0.029,0.518,0.171,0.748,0.153c0.154-0.012,0.496-0.195,0.602-0.307c0.172-0.153,0.113-0.49,0.379-0.826
	c-0.201-0.271-0.295-0.655-0.602-0.82c0.246-0.241,0.283-0.796,0.146-1.209c0.514-0.502,0.885-1.127,1.658-1.357
	c0.625,0.372,1.758,0.891,1.959-0.224c-0.391-0.396-0.934-0.626-1.357-0.979c0.184-0.52,0.555-0.855,0.832-1.274
	c0.018,0.171,0.23,0.159,0.301,0.295c0.012,0.295,0,0.555-0.076,0.755c0.117,0.307,0.529,0.325,0.529,0.75
	c0.543,0.111,0.762,0.548,1.127,0.831c0.373-0.023,0.691,0.013,0.98,0.071c0.561-1.216,1.238-2.318,1.729-3.61
	c-0.525-0.077-0.709-0.496-0.902-0.909c0.549-0.448,0.803-1.203,0.902-2.1c0.348-0.207,0.502-0.607,0.678-0.985
	c-0.254-0.561-0.447-0.956-0.979-1.352c0.135-0.79,0.531-1.752,1.357-1.203c-0.26,0.366-0.314,0.938-0.525,1.356
	c0.225-0.059,0.271,0.071,0.447,0.071c0.768-1.723,1.711-3.263,2.26-5.197c1.104-0.95,2.006-2.101,2.709-3.458
	c-0.066-0.235-0.248-0.354-0.295-0.602c0.234-0.318,0.824-0.277,1.279-0.377c0.029,0.708,1.787,0.519,1.805,1.056
	c0.006,0.106-0.406,0.142-0.383,0.448c-0.277-0.053-0.525-0.171-0.744-0.076c0.055,0.235-0.211,0.142-0.158,0.377
	c0.283,0.095,0.561,0.195,0.902,0.225c0.732-0.578,1.521-1.086,1.51-2.413c-0.494-0.407-0.465-1.333-0.973-1.729
	C364.895,171.735,364.941,172.585,364.25,172.697z"/>
<path fill-rule="evenodd" clip-rule="evenodd" d="M340.83,172.096c0-0.101,0-0.207,0-0.308c-0.072,0-0.154,0-0.225,0
	C340.641,171.937,340.635,172.119,340.83,172.096z"/>
<path fill-rule="evenodd" clip-rule="evenodd" d="M341.662,171.788c-0.125,0-0.26,0-0.379,0c0.271,0.49-0.199,0.644-0.301,0.985
	C341.596,172.779,341.885,172.214,341.662,171.788z"/>
<path fill-rule="evenodd" clip-rule="evenodd" d="M342.492,171.871c-0.152,0.012-0.17-0.089-0.313-0.083
	c-0.094,0.101-0.07,0.331-0.07,0.531C342.422,172.354,342.469,172.125,342.492,171.871z"/>
<path fill-rule="evenodd" clip-rule="evenodd" d="M345.951,174.88c-0.096-0.301-0.102-0.696-0.225-0.979
	C345.07,173.918,345.391,174.975,345.951,174.88z"/>
<path fill-rule="evenodd" clip-rule="evenodd" d="M342.717,178.42c-0.035-0.572,0.189-1.924-0.307-2.266
	c-0.012,0.218-0.354,0.101-0.301,0.378C342.6,177.045,341.945,178.237,342.717,178.42z"/>
<path fill-rule="evenodd" clip-rule="evenodd" d="M345.951,177.889c-0.178,0.354-0.049,0.985,0.223,1.127
	c0.107-0.219-0.059-0.708,0-1.127C346.098,177.889,346.027,177.889,345.951,177.889z"/>
<path fill-rule="evenodd" clip-rule="evenodd" d="M331.49,185.27c-0.254,0.377-0.064,1.227,0.377,1.351
	C332.217,186.166,332.039,185.435,331.49,185.27z"/>
<path fill-rule="evenodd" clip-rule="evenodd" d="M353.178,192.496c0.254-0.023,0.33-0.224,0.447-0.378
	c-0.205-0.076-0.742-0.188-0.748,0.154C352.9,192.426,353.16,192.349,353.178,192.496z"/>
<path fill-rule="evenodd" clip-rule="evenodd" d="M352.652,192.874c-0.029,0.33,0.207,0.395,0.449,0.454
	c-0.043-0.248,0.053-0.349,0.076-0.531C352.977,192.797,352.746,192.768,352.652,192.874z"/>
<path fill-rule="evenodd" clip-rule="evenodd" d="M354.01,193.098c-0.113,0.266-0.385,0.378-0.68,0.454
	c-0.482,0.721-0.637,1.776-0.979,2.632c-0.094-0.06-0.207-0.101-0.377-0.077c0.006,0.301,0.053,0.555,0.301,0.607
	c0.406-0.253,0.801-0.501,0.826-1.132c0.5-0.626,0.943-1.316,1.131-2.254C354.057,193.346,354.145,193.104,354.01,193.098z"/>
<path fill-rule="evenodd" clip-rule="evenodd" d="M348.889,198.974c0.271,0.006,0.707-0.406,0.832-0.761
	c0.053-0.159-0.059-0.472,0-0.743c0.053-0.307,0.289-0.508,0.295-0.679c0.006-0.224-0.301-0.513-0.148-0.761
	c-0.307,0.053-0.43-0.071-0.684-0.071c0.207,0.572,0.313,1.315,0.23,1.959C349.137,198.172,349.035,198.591,348.889,198.974z"/>
<path fill-rule="evenodd" clip-rule="evenodd" d="M346.174,199.422c0.018,0.26,0.379,0.437,0.307,0.679
	c0.992-0.112,1.246-0.955,1.652-1.651c-0.17-0.153-0.695,0.035-0.754-0.236c0.33-0.413,0.412-0.731,0.229-1.351
	c-0.354,0.006-0.85,0.224-0.979,0.755c-0.064,0.271,0.064,0.561,0,0.832C346.547,198.762,346.156,199.121,346.174,199.422z"/>
<path fill-rule="evenodd" clip-rule="evenodd" d="M349.945,200.024c0.281,0.059,0.689-0.083,0.902-0.225
	c0.193-0.142,0.223-0.401,0.447-0.679c0.537-0.648,1.086-1.062,1.357-1.805c-0.313,0-0.619,0.018-0.826-0.077
	C351.697,198.679,350.463,198.991,349.945,200.024z"/>
<path fill-rule="evenodd" clip-rule="evenodd" d="M347.076,200.401c-0.223,0-0.447,0-0.678,0c-0.561,0.714-0.914,1.641-1.203,2.638
	c0.738,0.53,0.395,1.628,0.23,2.554c0.17,0.195,0.141-0.111,0.377-0.076c0.189,0.271,0.383,0.572,0.826,0.384
	c-0.23-0.584-0.035-0.997,0.146-1.511c-0.129-0.514-0.283-1.021-0.523-1.428c0.123-0.401,0.295-0.761,0.748-0.832
	C347.178,201.587,347.484,200.927,347.076,200.401z"/>
<path fill-rule="evenodd" clip-rule="evenodd" d="M347.832,201.228c0.266,0.041,0.189-0.26,0.449-0.225
	c-0.066-0.235-0.184-0.412-0.373-0.524C347.744,200.585,347.691,201.045,347.832,201.228z"/>
<path fill-rule="evenodd" clip-rule="evenodd" d="M349.49,200.555c-0.154,0.337-0.602,1.428,0,1.575
	c0.543-0.018,0.461-1.256,0.23-1.575C349.643,200.555,349.561,200.555,349.49,200.555z"/>
<path fill-rule="evenodd" clip-rule="evenodd" d="M348.057,203.263c0.023,0.254,0.219,0.337,0.152,0.679
	c0.686-0.041,1.063-0.396,1.352-0.832C349.166,202.768,348.746,203.416,348.057,203.263z"/>
<path fill-rule="evenodd" clip-rule="evenodd" d="M347.986,204.242c-0.137,0.142-0.277,0.271-0.607,0.225
	c-0.078,0.229-0.314,0.59-0.225,0.755c0.66,0.136,0.678-0.372,1.127-0.448C348.197,204.578,348.252,204.248,347.986,204.242z"/>
<path fill-rule="evenodd" clip-rule="evenodd" d="M347.379,206.277c0.607-0.1,0.795-0.607,1.055-1.056
	C347.797,205.28,347.473,205.67,347.379,206.277z"/>
<path fill-rule="evenodd" clip-rule="evenodd" d="M346.629,206.803c-0.242,0.466-0.885,0.52-1.281,0.826c0,0.229,0,0.454,0,0.679
	c0.254-0.048,0.391-0.213,0.75-0.148C346.311,207.812,346.959,207.198,346.629,206.803z"/>
<path fill-rule="evenodd" clip-rule="evenodd" d="M344.746,229.085c0.023-0.678-0.494-0.802-0.453-1.504c-0.102,0-0.201,0-0.301,0
	C343.732,228.301,344.41,228.702,344.746,229.085z"/>
<path fill-rule="evenodd" clip-rule="evenodd" d="M343.391,231.197c-0.066,0.213-0.344,0.207-0.379,0.448
	c0.26,0.042,0.426-0.035,0.607-0.076C343.59,231.393,343.543,231.251,343.391,231.197z"/>
<path fill-rule="evenodd" clip-rule="evenodd" d="M343.914,232.702c0.26,0,0.502,0,0.762,0c0.295-0.354,0.531-0.773,0.672-1.28
	c-0.59,0.188-0.818,0.737-1.504,0.832C343.838,232.431,343.975,232.472,343.914,232.702z"/>
<path fill-rule="evenodd" clip-rule="evenodd" d="M344.971,225.929c-0.395-0.961-1.268-2.271-0.602-3.31
	c-0.449-0.684-0.902-1.421-1.133-2.336c-0.076-0.318-0.023-0.673-0.152-0.985c-0.236-0.637-0.826-1.021-0.904-1.651
	c-0.482-0.042-0.465-0.584-0.896-0.679c-0.584,0.318-1.279,0.053-1.881,0.147c-0.307,0.047-0.578,0.266-0.826,0.307
	c-1.67,0.254-2.467-0.489-3.393-1.127c-0.727-0.513-1.451-0.974-1.805-1.51c0.129-0.313,0.512-0.714,0.377-1.057
	c-0.713-0.253-1.416,0.142-1.889,0.378c0.006-0.23,0.049-0.496-0.223-0.454c-1.305,0.39-1.766,1.197-1.576,2.867
	c0.242,0.247,0.697,0.295,0.826,0.673c-0.473-0.112-0.785-0.378-1.279-0.449c-0.207-0.171-0.295-0.466-0.756-0.377
	c-0.342,0.283-0.414,0.838-0.75,1.127c-0.377-0.39-1.215-0.101-1.959-0.225c-0.412,0.466-1.174,0.985-1.662,1.127
	c0.43-0.613-0.119-0.891,0.152-1.581c-0.053-0.289-0.342-0.354-0.377-0.673c1.197-0.796-0.879-2.059-1.652-2.413
	c-0.543-0.666-1.285-1.12-1.729-1.888c-0.713-0.177-1.93-0.33-2.566-0.82c-0.082-0.731,0.354-1.168,0.383-1.811
	c0.031-1.109-0.801-2.195-0.383-3.54c-0.318-0.336-0.666-1.026-1.127-0.974c-0.359,0.85-0.418,1.988-1.58,2.029
	c-0.502-0.472-0.75-0.666-1.205-1.133c-0.342-0.342-0.678-0.967-1.209-1.203c-0.932-0.419-2.707,0.041-3.609-0.301
	c-0.367-0.136-0.537-0.136-0.602-0.448c-0.113-0.525,0.506-0.962,0.824-1.133c0.779-0.413,1.234,0.118,2.037,0
	c0.264-0.035,0.902-0.584,1.055-0.525c0.354,0.136,0.496,1.127,0.68,1.428c0.313,0.525,0.654,0.649,0.979,1.21
	c0.342-0.118,0.613-0.048,0.973,0c0.107-0.295,0.271-0.537,0.525-0.679c0.537,0.059,0.715-0.248,1.057-0.378
	c0.502,0.236,1.156,0.048,1.811,0.23c0.461,0.631,0.975,1.021,1.051,1.876c0.041,0.442-0.184,0.784-0.148,1.286
	c0.023,0.419,0.318,0.932,0.525,1.274c0.236,0.407,0.52,0.814,0.826,1.056c0.432,0.023,0.648-0.153,1.057-0.147
	c0.365,0.337,0.572,0.826,0.832,1.28c0.838,0.531,1.551,1.198,2.33,1.806c0.07,0.507,0.389,0.755,0.602,1.127
	c1.322,0.247,1.563-0.36,2.184-0.832c0.211-0.153,0.482-0.337,0.76-0.52c1.045-0.731,1.699-0.685,3.605-0.607
	c0.146-0.561-0.131-1.044-0.154-1.505c0-0.188,0.178-0.218,0.154-0.454c-0.041-0.437-0.277-0.578-0.449-0.902
	c-0.395-0.714-0.631-1.228-1.127-1.729c0.143-0.147,0.029-0.354,0-0.525c-0.82-0.289-1.693-0.731-2.482-0.607
	c-0.432-0.348-0.426-1.133-0.68-1.651c-0.377-0.006-0.412-0.349-0.684-0.455c-1.527,0.366-2.572-0.383-3.764-0.602
	c-0.59-0.814-1.445-1.362-2.561-1.657c0.17,0.023,0.289-0.013,0.377-0.077c-0.832-1.021-1.846-2-2.555-3.086
	c-0.248-0.377-0.549-0.755-0.754-1.126c-0.107-0.189-0.107-0.425-0.225-0.603c-0.096-0.147-0.336-0.289-0.455-0.454
	c-0.141-0.188-0.176-0.454-0.301-0.602c-0.479-0.566-1.18-0.908-1.58-1.511c-0.355-0.519-0.525-1.145-0.98-1.574
	c-0.324-0.308-0.73-0.384-1.049-0.75c0.17-0.336-0.236-0.625,0.076-0.908c1.002,0.489,1.699,1.31,2.4,2.106
	c0.438,0.885,0.949,1.841,1.664,2.483c0.23,0.213,0.59,0.318,0.82,0.531c0.607,0.536,1.025,1.374,1.51,1.882
	c1.434,1.522,2.561,3.197,4.443,4.218c0.777-0.124,1.02,0.283,1.504,0.448c0.701-0.472,1.799-0.56,2.484-1.056
	c0.289-1.375-0.992-1.469-0.75-2.555c-0.348-0.537-0.986-0.772-1.209-1.434c-0.727,0.118-0.668-0.708-0.975-1.209
	c-0.17-0.266-0.389-0.242-0.447-0.52c0.266-0.407,0.938-0.413,1.35-0.679c0.277,0.178,0.639,0.266,1.127,0.225
	c0.768,0.667,0.98,1.882,2.338,1.959c0.713,0.566,1.203,1.533,1.875,2.183c0.348,0.336,0.832,0.672,1.281,0.749
	c-0.355-1.486,0.295-2.543,0.76-3.457c-0.254-0.531-0.146-1.416-0.307-2.035c0.248-0.413,0.756-0.561,1.057-0.903
	c-0.496-0.336-1.162-0.501-1.889-0.607c-0.17-0.218-0.254-0.531-0.596-0.596c-0.201-0.13-0.648-0.012-0.826-0.153
	c0.342-0.136,0.324-0.625,0.295-1.127c0.178,0.054,0.703,0.194,0.762-0.083c-0.514-0.313-1.281-0.383-1.594-0.896
	c0.219-0.495,0.916-0.507,1.139-0.979c-0.684-0.33-1.303-0.678-2.041-0.825c-0.607-0.124-1.303-0.018-1.875-0.307
	c-0.496-0.248-0.709-0.962-1.211-1.204c-0.342-0.165-0.943-0.2-1.35-0.224c-0.855-0.054-1.801,0.1-2.715-0.225
	c-0.814-0.938-1.02-2.489-2.029-3.239c0.064-0.265,0.324-0.33,0.307-0.678c-0.412-0.572-0.932-1.033-1.209-1.735
	c-0.383-0.041-0.713-0.141-1.133-0.152c-0.861-0.85-1.799-1.487-2.561-2.325c-1.238-1.397-1.941-3.368-3.309-4.596
	c-0.326-0.295-0.768-0.425-0.98-0.826c3.398-0.153,3.352,3.765,5.646,4.974c0.307-0.018,0.613-0.023,0.832,0.071
	c0.307,0.265,0.477,0.672,0.826,0.902c0.105-0.165,0.412-0.384,0.602-0.23c0.359,0.673,0.85,1.216,1.58,1.511
	c0.367,1.416,1.57,2,1.506,3.835c0.572,0.495,0.748,1.805,1.881,1.28c0.236-0.201-0.26-0.366,0-0.603
	c0.213-0.212,0.336-0.519,0.602-0.678c0.668,0.896,1.617,1.498,2.49,2.183c0.277,0.053,0.318-0.124,0.602-0.071
	c0.324,0.225,0.803,0.295,1.133,0.525c0.266,0.047,0.4-0.047,0.52-0.147c0.012,0.188,0.111,0.289,0.301,0.295
	c0.213-0.212,0.719-0.13,0.908-0.378c0.082-0.235,0.123-0.519,0.23-0.749c-0.365,0.041-0.496,0.318-0.986,0.225
	c0.049-0.219,0.225-0.324,0.154-0.673c-0.207-0.229-0.26-0.602-0.455-0.832c0.449-0.396-0.348-0.755,0.078-1.127
	c0.465-0.023,0.896,0.467,1.209,0.153c0.49-1.209-1.523-1.923-0.986-3.168c0.566-0.1,0.639,0.649,1.057,0.449
	c-0.166-0.525-0.111-1.387,0.225-1.646c-0.213-0.089-0.508-0.101-0.525-0.384c-0.189-0.743-0.473-1.392-0.826-1.958
	c-0.736-0.16-1.74-0.065-2.182-0.52c1.143,0.248,2.984-0.188,3.91,0.225c0.408,0.177,0.318,0.572,0.68,0.749
	c0.33,0.059,0.447-0.101,0.748-0.071c-0.076-0.838,0.348-1.162,0.449-1.811c-0.006-0.289-0.295-0.325-0.449-0.525
	c-0.17-0.23-0.182-0.478-0.371-0.679c-0.189-0.194-0.602-0.377-0.908-0.607s-0.561-0.549-0.82-0.673
	c-0.443-0.218-0.98-0.342-1.439-0.524c-0.242-0.101-0.438-0.189-0.674-0.308c-0.17-0.076-0.389-0.224-0.607-0.224
	c-0.047,0.159,0.102,0.495-0.07,0.531c-0.307-0.407-0.838-0.461-1.209-0.756c-0.383-0.307-0.566-0.802-1.051-0.979
	c-0.26-0.023-0.613,0.06-0.754-0.076c-0.055-0.307,0.24-0.254,0.152-0.596c-0.66-0.596-1.834-0.696-2.938-0.46
	c-0.16-0.189-0.207-0.502-0.301-0.75c0.395-0.271,0.873-0.867,0.832-1.28c-0.09-0.767-2.271-1.717-2.639-2.483
	c0-0.13,0-0.254,0-0.378c-0.5-0.2-0.43-0.967-1.131-0.979c-0.242,0.053-0.014,0.59-0.373,0.524c-0.707-0.271-1.232-0.72-1.959-0.979
	c-0.217,0.413-0.406,0.855-0.678,1.21c-0.996-0.101-1.652-1.18-2.707-1.357c-0.443-0.07-0.867,0.065-1.281,0
	c-1.598-0.229-2.654-1.386-3.994-1.805c-0.33-0.023-0.336,0.224-0.602,0.076c-0.195-0.672,0.088-1.227,0-1.734
	c-0.248-1.475-2.117-1.781-2.631-3.009c0.514-0.714,0.666-2.023,0.295-3.015c-0.455,0.018-0.762-0.478-1.352-0.378
	c-0.441,0.083-0.832,0.862-1.357,0.986c-0.4,0.088-0.844-0.118-1.209,0c-0.543,0.165-0.885,0.825-1.352,0.973
	c-1.402,0.289-2.979,0.797-4.293,0.378c-0.344-0.112-0.592-0.23-0.82-0.448c0.053-0.248,0.566-0.029,0.596-0.307
	c-0.449-0.809-1.133-1.375-1.652-2.106c0.195,0.041,0.584,0.572,0.678,0.224c0.236-0.85-0.088-1.557,0-2.253
	c0.137-1.222,1.127-2.006,1.127-3.321c0.213-0.36,0.502-0.644,0.826-0.903c-0.094-0.555,0.354-0.932,0.455-1.422
	c0.053-0.313-0.078-0.613,0-0.902c0.094-0.372,0.453-0.607,0.525-0.985c0.488,0.018,0.418-0.537,0.824-0.602
	c0.107,0.271,0.219,0.543,0.309,0.826c1.008-0.118,1.951-0.295,2.406-0.974c-0.088-0.419-0.201-0.809-0.301-1.21
	c0.701-0.224,0.891-0.961,1.504-1.279c0.148,0.159,0.105,0.501,0.377,0.53c0.113-0.619,0.844-0.714,1.357-0.53
	c0.537-0.566,0.826-1.139,0.75-2.184c0.371-0.153,0.809-0.248,1.049-0.524c-0.277-0.991-0.92-1.629-0.818-3.015
	c-0.043-0.289,0.307-0.195,0.371-0.372c-0.467-0.561-0.525-1.15-0.902-1.658c-0.467-0.631-1.229-0.914-1.807-1.434
	c-0.672-0.602-1.145-1.469-1.656-2.253c-0.85,0.105-1.547-0.49-2.561-0.455c-0.178-0.301-0.744-0.206-0.902-0.524
	c-0.096-0.649-0.254-1.251-0.455-1.812c-0.943-0.342-1.865-1.315-3.086-1.498c-0.371-0.065-0.748,0.018-1.127,0
	c-0.932-0.071-1.857-0.384-2.861-0.384c-0.105-0.089-0.047-0.354-0.152-0.448c-0.561-0.644-2.307-1.652-2.408-2.637
	c-0.035-0.36,0.242-0.661,0.225-1.127c0.455-0.248,0.844-0.561,1.352-0.756c0.146-0.731,0.809-0.949,0.684-1.651
	c-0.07-0.407-0.92-1.044-1.504-1.28c-0.549-0.225-1.174-0.225-1.658-0.307c-0.105-0.667-0.33-1.228-0.525-1.806
	c-0.4-0.136-1.102-0.089-1.504,0c-0.324-0.224-0.855-0.33-1.357-0.454c-0.477-0.112-0.973-0.301-1.434-0.378
	c-0.33-0.047-0.99-0.136-1.279-0.07c-0.762,0.177-0.902,1.073-1.504,1.504c-0.391,1.31-0.709,2.242-1.434,3.239
	c-0.254,1.298-0.715,2.39-1.352,3.315c-1.238-0.944-2.537-1.835-3.617-2.938c-0.607-0.03-1.002-0.561-1.428-0.909
	c-1.764-1.422-3.734-2.755-5.42-4.142c-1.363-1.108-2.881-1.935-3.988-3.227c-1.188-0.679-2.189-1.534-3.24-2.337
	c-0.289,0.136-0.459-0.159-0.902-0.082c-0.377,0.277-0.207,0.685-0.225,1.056c-0.035,0.431-0.229,0.773-0.229,0.903
	c0.018,0.313,0.223,0.536,0.229,0.825c0,0.308-0.217,0.561-0.229,0.832c0,0.101,0.135,0.159,0.146,0.225
	c0.059,0.371-0.035,0.631,0.225,0.902c-0.52,1.475-1.676,2.289-2.324,3.622c0.607,1.068-0.49,1.759-0.607,2.779
	c0.211,0.371,0.5,0.654,0.678,1.056c-0.695,0.814-1.057,1.864-1.877,2.561c-0.418,0.354-0.996,0.613-1.361,0.902
	c-0.461,0.36-0.627,0.514-0.975,0.903c-0.566,0.625-1.15,1.126-1.51,1.882c0.1,0.259,0.029,0.678,0.154,0.902
	c-0.379,0.454-0.779,0.885-1.139,1.356c-2.266-0.082-2.396,1.971-4.061,2.484c-0.111-0.112-0.023-0.431-0.301-0.378
	c0.029,0.425-0.523,0.343-0.754,0.454c-0.277,0.136-0.514,0.442-0.826,0.449c-1.156,1.085-1.912,2.554-2.561,4.141
	c-0.607,0.042-0.955,1.806-1.504,1.812c-0.078,0-0.596-0.613-0.756-0.761c-0.785-0.673-1.285-1.021-2.029-1.646
	c-0.496-0.425-0.914-0.79-1.357-0.902c-0.43,0.596-1.121,0.932-1.203,1.876c-0.443,0.183-0.832,0.425-1.209,0.673
	c0.059,1.775-1.252,2.566-1.057,4.224c-0.365,0.277-0.377,0.921-0.596,1.357c-0.566-0.266-0.902,0.396-1.203,0.825
	c-0.385,0.543-0.531,0.974-0.756,1.582c-0.277,0.761-0.59,1.215-0.902,1.805c-0.543,1.026-0.996,2.283-1.357,3.239
	c-1.072,0.955-1.822,2.241-3.086,3.015c-1.434-0.525-3.197-0.72-4.441-1.439c-0.313,0.254-0.602,0.018-1.057,0
	c-0.885-1.263-1.604-2.708-2.406-4.06c-0.525-0.224-0.938-0.578-1.281-0.979c-1.133-0.224-1.857-0.849-3.084-0.973
	c-0.691,0.737-1.156,1.923-0.904,3.38c-0.541,0.313-0.783,0.921-1.055,1.505c0.152,0.377,0.643,0.407,0.748,0.832
	c-0.83,1.273-1.656,2.561-1.957,4.365c-0.502,0.136-1.422,0.419-1.877,0.974c-0.111,0.147-0.195,0.472-0.301,0.685
	c-0.432,0.855-0.172,0.92,0.301,1.581c-0.318,0.124-0.141,0.448-0.225,0.679c-0.701,0.295-1.303,0.713-2.035,0.973
	c-0.371,0.985-1.539,1.174-1.881,2.184c-0.201,0.212-0.639,0.183-0.68,0.53c-0.023,1.063-0.496,1.664-0.902,2.337
	c0.123,0.301,0.324,0.519,0.449,0.825c-0.373,0.531-0.691,1.109-1.127,1.581c-0.096,1.009-0.756,1.457-0.832,2.484
	c-1.074,1.133-2.432,1.994-3.381,3.238c-0.189-0.006-0.371-0.012-0.461,0.077c-0.254,1.203-1.445,1.651-2.26,2.407
	c-0.631,0.59-1.049,1.434-1.498,2.105c-0.135,0.207-0.459,0.384-0.383,0.679c0.436,0.106,0.867-0.183,1.133,0
	c-1.381,0.679-2.479,1.634-3.162,3.015c0.012,0.289,0.254,0.349,0.225,0.673c-0.496,0.607-1.033,1.174-1.729,1.581
	c-0.207-0.041-0.189-0.307-0.455-0.295c0.141,0.737,0.678,1.079,1.057,1.575c0.748,0.489,1.775,0.685,2.111,1.581
	c-0.701,1.416-2.602,1.616-3.316,3.015c0.242,0.153,0.107,0.702,0.23,0.979c0.289,0.029,0.779,0.076,0.82,0.454
	c0.102,0.778-2.047,1.333-2.406,1.575c-0.443,0.313-0.768,0.772-1.275,1.056c-0.324,0.177-0.689,0.207-0.984,0.378
	c-0.449,0.254-0.672,0.731-1.057,0.832c-0.424-0.254-1.215-0.142-1.498-0.531c0.266-0.437-0.301-1.032-0.461-1.504
	c-0.537,0.301-1.145,0.194-1.65,0.377c-0.609,0.219-1.145,0.762-1.576,1.051c-0.578,0.383-1.227,0.689-1.816,1.056
	c-0.607,0.372-1.197,0.85-1.959,0.979c-0.438,0.678-1.398,0.855-2.631,0.755c-0.645-0.301-1.08-0.962-1.652-1.362
	c-0.785-0.543-0.809-0.225-1.434,0.307c-0.289,0.241-0.613,0.412-0.678,0.749c-0.143,0.755,0.383,1.221,0.678,1.805
	c-0.184,0.773-0.938,0.968-1.883,0.985c-0.146,0.124-0.018,0.525-0.223,0.602c-0.703,0.372-1.518,0.638-2.715,0.525
	c-0.672,0.277-1.014,0.336-1.959,0.301c-0.494,0.578-1.539,0.479-2.33,0.679c-1.416,0.36-2.479,1.162-3.609,1.806
	c-2.26-0.855-3.594-2.632-5.199-4.136c-0.92,0.437-1.463,1.244-1.951,2.106c-1.223,0.637-2.344,1.374-3.777,1.805
	c-0.4,0.637-0.967,1.215-1.805,1.428c-1.057,0.277-2.809,0.366-3.912,0c-0.861-0.283-1.787-1.298-2.412-1.882
	c-0.195-0.177-0.455-0.442-0.672-0.596c-0.934-0.644-2.355-0.614-3.016-1.057c-0.537-0.365-0.855-1.209-1.279-1.581
	c-1.092-0.483-2.23-2.295-1.807-3.616c0.049-0.307-0.318-0.188-0.301-0.454c0.178-0.225,0.266-0.531,0.379-0.832
	c-0.838-0.194-1.494-0.561-2.184-0.896c-0.33-1.156,0.242-1.115,1.051-1.581c0.441-0.26,0.838-0.413,0.984-0.832
	c-0.271-0.307-0.52-0.638-0.908-0.832c-1.104,0.483-2.047,1.269-2.938,2.041c-1.27,1.092-2.703,2.06-3.688,3.31
	c-1.617,0.968-3.092,2.077-4.219,3.54c-2.035,1.121-3.25,3.063-6.094,3.387c-0.998,0.667-2.543,0.772-3.238,1.734
	c-0.586,0.147-1.098,0.36-1.658,0.525c-0.184,0.111-0.301,0.307-0.455,0.454c-0.779,0.159-1.533,0.914-2.111,1.28
	c-0.773,0.495-1.404,0.72-2.184,1.274c-0.465,0.342-1.02,0.772-1.127,1.209c-0.188,0.791,0.225,1.599,0,2.561
	c-0.52,0.318-1.092,0.596-1.652,0.902c-0.926,0.502-1.975,0.861-2.559,1.581c-0.561-0.035-0.656,0.401-0.98,0.608
	c0.943,3.321-1.775,4.271-4.219,4.961c-0.795,0.23-1.857,0.147-2.707,0.225c-0.549,0.053-0.938,0.726-1.357,0.832
	c0.277,1.227-0.814,1.675-1.273,2.406c-0.018,0.337,0.182,0.473,0.225,0.762c-0.195,0.247-0.426,0.472-0.68,0.672
	c-1.557,0.112-2.561,0.425-3.764,0.832c-1.582,0.52-3.027,0.785-4.443,1.428c-1.273,0.584-2.529,1.327-4.518,0.896
	c-0.939,0.36-1.729,0.614-2.561,0.903c-0.484,0.171-1.045,0.271-1.428,0.454c-0.455,0.218-0.773,0.666-1.209,0.908
	c-0.414,0.23-0.951,0.219-1.127,0.679c20.807,0.171,41.811,0.153,62.795,0.142c0.283-0.13,0.371-0.466,0.672-0.59
	c0.438,0.194,1.004,0.194,1.51,0.224c2.467,0.106,5.393-0.136,7.457,0c0.172,0.366,0.402,0.696,0.674,0.974
	c3.551,0.089,7.068,0.508,10.689,0.679c11.717,0.549,23.693,0.495,34.637,0.979c11.191,0.495,22.584,0.283,33.875,0.301
	c25.086,0.035,50.236,0.041,75.445-0.301c4.359-0.06,8.855,0.206,13.25,0c3.15-0.147,6.619-0.153,9.486-0.153
	c8.178,0,16.725-0.095,24.914-0.071c0.236-0.224-0.271-0.643-0.07-0.832c0.313,0.189,0.531,0.473,0.832,0.679
	c0.295-0.171,0.535,0.023,0.902,0c-0.023-0.472,0.199-0.832,0.377-1.28c-0.377-1.356,0.105-3.079,0.525-4.142
	c0.365-0.029,0.484-0.313,0.826-0.377c0.389,0.542,1.008,1.038,0.607,1.958c0.52,0.537,0.838,1.269,1.197,1.953
	c-0.613,0.661,0.094,1.711,0.383,2.188c-0.105-0.377,0.295-0.247,0.449-0.371c-0.1-2.036-1.098-3.688-1.734-5.505
	C345.107,226.478,345.09,226.218,344.971,225.929z"/>
</svg>
