<svg version="1.1" id="Calque_1" xmlns="http://www.w3.org/2000/svg" xmlns:xlink="http://www.w3.org/1999/xlink" x="0px" y="0px"
	 width="432px" height="332px" viewBox="0 0 432 332" enable-background="new 0 0 432 332" xml:space="preserve" fill="#FFF">
<path fill-rule="evenodd" clip-rule="evenodd" d="M326.293,211.378c0.012,0.054,0.071-0.212,0.06-0.301
	c-0.012-0.194-0.048-0.307-0.06-0.425c0.295-0.791,0.838-1.333,0.667-2.596c-0.36-0.324-0.555-0.814-0.85-1.209
	c0.354-1.063-0.407-1.988-0.784-2.721c-0.838-0.707-1.723-1.374-2.597-2.053c0.449-0.59,1.257-0.855,1.393-1.634
	c0.077-0.454-0.159-0.944-0.188-1.445c-0.035-0.826-0.035-1.817,0-2.72c0.029-0.549,0.153-1.104,0.124-1.629
	c-0.006-0.088-0.101-0.105-0.124-0.188c-0.018-0.089,0.018-0.2,0-0.301c-0.188-1.404,0.006-2.985-0.054-4.466
	c-0.224-5.15,0.242-10.679,0-16.076c-0.129-2.814,0.006-5.605,0-8.271c-0.018-6.142,0-12.225,0-18.371c0-4.708,0-9.693,0-14.077
	c0-0.92-0.047-1.847,0-2.714c0.013-0.254,0.112-0.483,0.118-0.726c0.071-3.232-0.112-6.365,0.06-9.486
	c0.159-2.891,0-5.74,0.183-8.52c-2.832-0.218-5.705-0.123-8.578-0.123c-5.298,0-10.59,0.064-16.012,0.064
	c-4.478,0-8.478-0.064-12.808-0.064c-1.788,0-3.616-0.077-5.381,0c-3.003,0.136-7.114-0.172-9.964,0.064
	c-1.575,0.124-3.187-0.13-4.773-0.064c-3.822,0.171-7.457,0.029-11.12,0c-1.924-0.019-3.87,0-5.8,0c-3.828,0-7.705,0.159-11.475,0
	c-0.79-0.03-1.575-0.036-2.359,0c-4.437,0.2-9.375,0-14.077,0c-4.383,0-9.12,0.064-13.232,0.064c-15.787,0-31.221-0.194-46.76-0.124
	c-0.219,0.136,0.224,0.183,0.059,0.242c-0.407-0.041-0.625,0.1-0.908,0.183c-0.012,0.26,0.301,0.649,0.123,1.026
	c-0.524-0.041-0.607-0.524-1.032-0.666c-0.425,0.336-0.896,0.631-0.844,1.451c0.337,0.212,0.702,0.206,1.027,0
	c0.018,0.448,0.283,0.643,0.424,0.967c-0.418,0.248-0.406,0.555-0.424,1.204c0.478,0.572,1.368,0.619,1.692,1.333
	c0.219,0.473,0.006,1.133,0.425,1.569c0.36,0.331,0.826,0.543,1.204,0.844c-0.189,0.508-0.531,1.439,0,1.634
	c0.295,0.106,0.767-0.359,1.026-0.726c0.307-0.419,0.431-0.973,0.85-1.085c0.489,0.018,1.05-0.012,1.569-0.124
	c0.549,0.242,0.784,0.79,1.091,1.269c-0.271,0.525-0.542,1.835-0.425,2.66c0.054,0.39,0.39,0.685,0.425,0.962
	c0.166,0.207,0.608,0.142,0.962,0.307c0.142,0.065,0.324,0.301,0.483,0.425c0.266,0.201,0.461,0.242,0.484,0.419
	c0.059,0.378-0.295,0.561-0.543,0.85c-0.685,0.089-1.965-0.271-2.478,0.177c0.926,0.484,1.723,1.222,1.451,2.726
	c-0.23,0.39-0.638,0.603-1.092,0.785c-0.26-0.301-0.796-0.331-1.203-0.483c-0.33-0.112-0.188,0.253-0.425,0.241
	c-0.101-0.384-0.006-0.962-0.183-1.274c-0.909-0.171-2.271,0.006-2.537,0.85c0.584,0.619,0.006,2.023,0.483,2.896
	c-0.336,0.667-1.056,0.956-0.902,2.118c-0.59,0.661-1.215,1.28-2,1.752c0.064,0.832-0.313,1.9,0.188,2.597
	c0.325,0.466,0.867,0.561,1.387,0.843c0.578,0.897,1.688,1.257,2.295,2.118c0.065,0.136,0.437-0.029,0.483,0.124
	c0.124,0.861,0.03,1.941,0.06,2.896c0.26,0.708,0.962,0.974,0.968,1.936c0.59,0.047,0.92,0.241,1.451,0.177
	c0.401-0.053,0.702-0.348,1.085-0.242c0.325,0.095,0.614,0.572,0.785,0.909c0.401,0.784,0.307,1.663,1.634,1.386
	c0.384-0.602,1.168-0.755,1.387-1.386c0.301-0.873-0.673-1.393-0.483-2.479c-1.104-0.425-2.242-0.813-2.838-1.752
	c-0.331,0.142-0.962-0.124-1.269,0c-0.283,0.525-0.649,1.074-0.661,1.693c-0.229-0.277-0.643-0.431-0.784-0.844
	c-0.083-0.229-0.089-0.679-0.124-1.091c-0.077-0.861-0.095-2.101-0.307-2.721c-0.473-0.46-0.944-1.032-1.387-1.445
	c-0.572-0.542-1.404-0.607-2.177-1.026c0.507,0.018,0.885-0.082,1.209-0.241c0.142-0.525,0.608-1.092,1.15-1.393
	c0.366,0.419,1.558,0.46,2.354,0.301c0.631-0.124,1.298-0.366,1.333-0.785c-0.495-0.111-0.932-0.283-1.269-0.542
	c-0.229-0.431-0.431-1.057-0.784-1.688c-0.077-0.13-0.225-0.183-0.307-0.307c-0.195-0.289-0.561-1.139-0.543-1.393
	c0.035-0.431,0.613-0.873,1.026-0.908c0.059,0.313,0.124,0.607,0.183,0.908c0.59,0.809,1.352,1.581,2.112,2.177
	c0.39,0.307,0.649,0.626,1.209,0.667c0.302,0.537,1.216,0.873,1.328,1.51c0.094,0.508-0.378,0.832-0.785,1.21
	c-0.761-0.401-1.929-0.029-2.896-0.183c-1.044,1.114-0.289,3.203,0.059,4.348c0.855,0.2,1.369,0.419,1.87,0.844
	c0.537,0.454,0.979,0.979,1.511,1.333c0.153-0.094,0.372-0.118,0.607-0.118c-0.1-0.524-0.607-0.873-1.15-1.333
	c-0.342-0.289-1.215-0.95-1.333-1.327c-0.071-0.248-0.083-0.785-0.053-1.026c0.029-0.271,0.259-0.52,0.359-0.785
	c0.142-0.396,0.101-0.908,0.483-1.026c0.514,0.177,1.352,0.159,1.693,0.478c0.566,0.549,0.219,2.041,0.419,2.844
	c0.054,0.201,0.201,0.442,0.301,0.667c0.271,0.555,0.508,0.844,0.85,1.203c0.614,0.649,0.979,1.098,1.812,1.575
	c0.384,0.023,1.038-0.064,1.269-0.124c0.159,0.289-0.06,0.608-0.178,0.909c-0.271,0.678-0.406,1.351-0.967,1.628
	c-0.283,0.142-0.638,0.077-0.909,0.183c-0.365,0.142-0.513,0.448-0.85,0.607c-0.177,0.826-0.637,1.363-0.596,2.413
	c-0.235,0.213-0.188,0.473-0.365,0.726c-0.349,0.496-1.098,0.814-1.328,1.269c-0.46,0.897,0.313,2.048,0.06,3.439
	c-0.372,0.413-0.419,0.773-0.607,1.328c0.094,0.2,0.342,0.56,0.307,0.973c0.578,0.85,1.899,0.974,1.688,2.537
	c-0.549-0.26-0.809-0.808-1.328-1.091c-0.159,0.436-0.53,0.578-0.542,1.091c-0.013,0.425,0.365,0.979,0.483,1.393
	c0.07,0.26,0.082,0.549,0.177,0.838c0.077,0.235,0.225,0.489,0.307,0.731c0.095,0.295,0.042,0.59,0.124,0.844
	c0.153,0.513,0.655,0.938,0.902,1.451c0.296,0.619,0.296,1.139,0.366,1.876c-0.13,0.171-0.277,0.324-0.366,0.543
	c-1.221,0.454-2.602,0.979-2.602,2.472c-0.472,0.064-0.808-0.33-1.327-0.483c-0.407-0.118-0.908-0.036-1.269-0.178
	c-0.342-0.142-0.578-0.495-0.784-0.731c0.064-0.861-0.095-1.705,0-2.472c0.047-0.396,0.218-0.566,0.301-0.85
	c0.159-0.555,0.106-1.222,0.241-1.628c0.13-0.378,0.578-0.75,0.543-1.145c-0.012-0.201-0.235-0.401-0.359-0.607
	c-0.06-0.095-0.06-0.266-0.118-0.366c-0.112-0.165-0.194-0.159-0.242-0.295c-0.153-0.413-0.053-0.655,0-0.974
	c0.195-0.047,0.26-0.213,0.36-0.359c0.283,0.035,0.643-0.136,0.908-0.302c0.13-0.548-0.384-0.854-0.549-1.327
	c-0.342-0.974,0.153-1.622,0.242-2.537c-0.213-0.224-0.46-0.271-0.667-0.483c-0.147-0.165-0.206-0.378-0.359-0.543
	c0.142-0.188,0.029-0.519,0-0.731c0.772-0.053,1.48-0.171,1.994-0.483c0.023-0.531-0.531-0.879-0.661-1.387
	c-0.07-0.266-0.006-0.584-0.064-0.844c-0.06-0.289-0.213-0.555-0.301-0.85c-0.26-0.885-0.337-1.675-0.661-2.354
	c-0.69-0.171-1.375-0.372-2.118-0.183c0.313,0.819,1.315,1.946,0.661,2.955c-0.479-0.926-1.068,0.153-1.569,0.607
	c-0.437,0.407-0.797,0.82-1.269,0.85c-0.791,0.956-2.106,1.393-1.93,3.322c-0.59,0.726-1.333,1.315-2.177,1.692
	c-0.407,0.178-0.938,0.077-1.392,0.302c-0.219,0.111-0.572,0.578-0.903,0.902c-0.997,0.997-1.958,1.87-2.784,2.844
	c-0.283,0.342-0.472,0.72-0.72,1.15c-0.473,0.808-1.068,1.292-1.693,2.053c-0.561,0.679-1.127,1.003-0.667,1.87
	c0.596,0.39,1.717,0.26,1.876,1.092c-0.501,0.124-1.062-0.071-1.692,0c-0.431,0.519-1.352,0.289-1.452-0.248
	c-0.123-0.685,0.915-1.858,0.667-2.838c0.242-0.82,1.044-1.274,1.511-1.929c0.348-0.496,0.46-1.145,0.602-1.752
	c0.896-1.074,2.047-2.013,3.085-3.269c0.431-0.52,0.791-1.15,1.269-1.87c0.372-0.566,1.115-1.381,1.145-2.054
	s-0.549-1.77,0.06-2.359c0.1,0.772,0.283,1.416,1.032,1.392c0.277-0.631-0.023-1.698,0.235-2.111
	c0.473,0.813,0.838,1.48,0.673,2.838c-0.472,0.684-0.442,1.852-0.673,2.778c0.502-0.041,0.897-0.194,1.092-0.549
	c-0.159-0.879,0.213-1.174,0.419-1.688c0.271-0.643,0.342-1.681,0.667-2.053c0.578-0.171,0.991-0.501,1.451-0.784
	c0.266-0.927,0.891-1.487,1.451-2.118c-0.248-0.354-0.295-0.797-0.483-1.15c-0.136-0.254-0.396-0.419-0.543-0.661
	c-0.207-0.324-0.324-0.673-0.543-0.968c-0.23-0.301-0.501-0.513-0.667-0.843c0.136-0.184-0.224-0.649-0.117-0.785
	c0.442,0.159,0.873,0.525,1.327,0.177c-0.018-0.908-0.26-2.112-0.543-2.962c-0.602-0.105-1.092,0.242-1.451,0.543
	c-0.035,0.384,0.124,1.398-0.183,1.699c-0.366-0.359-0.49-0.968-0.844-1.333c0.13-0.171-0.083-0.525,0-0.844
	c0.142-0.277,0.365-0.442,0.235-0.844c-0.124-0.153-0.348-0.218-0.478-0.366c-1.044,0.131-2.206,0.137-2.661,0.85
	c-0.241,1.47,1.505,1.883,1.753,3.257c-0.337,0.425-0.644,0.885-1.387,0.909c0.089-1.517-0.737-2.13-1.511-2.779
	c0.089-0.2,0.089-0.584,0-0.79c-0.489-0.136-1.015-0.313-1.569-0.236c-0.578,0.071-1.062,0.679-1.698,0.425
	c-0.048-0.625-0.525-0.803-0.72-1.269c-0.572-0.095-0.803-0.637-1.21-0.908c-0.254-0.171-0.613-0.118-0.784-0.425
	c0.153-0.124,0.266-0.295,0.359-0.484c0.165-0.07,0.549-0.129,0.425-0.301c-1.799-0.082-2.342,1.605-3.811,2.054
	c-0.514-0.242-1.163,0.253-1.93,0.241c-0.561-0.006-1.127-0.277-1.693-0.059c-0.112-0.372-0.607-0.354-0.85-0.607
	c-2.313-0.029-4.861,0.324-6.701-0.242c-0.696-0.207-1.216-0.69-1.812-0.785c-0.578-0.088-1.339,0.03-1.93,0.124
	c-0.289,0.042-0.596,0.23-0.85,0.242c-0.295,0.012-0.643-0.136-0.967-0.124c-0.277,0.012-0.543,0.136-0.785,0.124
	c-0.224-0.012-0.454-0.153-0.726-0.183c-0.218-0.023-0.466,0.029-0.666,0c-0.236-0.035-0.438-0.159-0.667-0.184
	c-0.36-0.035-0.731,0.036-1.08,0c-0.767-0.07-1.339-0.4-1.935-0.726c-0.401,0.06-0.909-0.029-1.451,0
	c-0.307-0.224-0.638-0.513-0.603-0.902c-0.896-0.26-1.775-0.85-2.536-1.15c-0.165-0.059-0.396-0.047-0.549-0.124
	c-0.301-0.136-0.437-0.389-0.726-0.419c-0.349-0.035-0.673,0.165-1.026,0.242c-0.791-0.437-1.988-0.466-2.602-1.086
	c-0.673,0.054-1.109-0.229-1.505-0.602c-0.737-0.124-1.321-0.648-1.994-0.974c-0.342-0.165-0.767-0.265-1.15-0.418
	c-0.437-0.178-0.832-0.225-1.269-0.366c-0.513-0.165-0.861-0.602-1.51-0.419c-0.419-0.248-0.892-0.442-1.269-0.726
	c-0.891-0.012-1.493-0.089-1.752,0.483c0.111,0.779,1.752,1.239,1.811,1.93c0.023,0.289-0.177,0.437-0.301,0.666
	c-0.106,0.201-0.194,0.432-0.359,0.608c0.076,0.831-0.354,1.12-0.549,1.628c-0.183,0.478-0.207,0.914-0.177,1.511
	c-0.254,0.395-0.626,0.648-0.608,1.085c0.03,0.496,0.744,0.803,0.667,1.393c0.13,0.13,0.248,0.277,0.359,0.419
	c-0.07,1.139,0.271,2.012,0.432,2.784c0.047,0.26,0.006,0.537,0.053,0.785c0.206,1.009,0.838,1.816,1.327,2.472
	c-0.029,0.478,0.124,0.661,0.366,0.974c-0.159,0.283-0.048,0.602,0.118,0.778c0.301,0.331,0.943,0.26,1.333,0.49
	c0.254,0.147,0.354,0.472,0.602,0.726c0.39,0.377,0.867,0.637,1.393,0.784c0.307,0.266,0.425,0.52,0.543,0.785
	c0.059,0.124,0.123,0.259,0.183,0.359c0.371,0.644,1.091,1.192,1.393,1.753c0.271,0.519,0.241,1.097,0.418,1.634
	c0.124,0.378,0.419,0.708,0.543,1.085c0.124,0.384,0.171,0.803,0.307,1.21c0.118,0.378,0.325,0.731,0.419,1.091
	c0.03,0.118-0.018,0.289,0,0.419c0.042,0.219,0.201,0.455,0.242,0.661c0.153,0.791,0.277,1.652,0.366,2.483
	c0.123,1.222,0.159,2.378,0.478,3.257c0.254,0.685,0.525,1.063,0.85,1.635c0.194,0.354,0.377,0.761,0.537,0.961
	c0.33,0.401,0.943,0.679,1.215,1.092s0.649,1.527,0.72,1.994c0.089,0.59-0.13,1.18,0,1.935c0.136,0.737,0.737,1.369,0.914,1.936
	c0.065,0.218,0.007,0.437,0.054,0.72c0.165,0.985,0.472,1.953,0.242,3.145c-0.112,0.613-0.401,1.174-0.296,1.935
	c0.184,0.095,0.354,0.207,0.479,0.36c0.271-0.047,0.301-0.318,0.483-0.543c0.165-0.2,0.425-0.348,0.484-0.607
	c0.171-0.679-0.343-1.346-0.366-2.054c0.124-0.076,0.206-0.194,0.248-0.359c0.813-0.26,2.271-0.277,2.955,0.118
	c0.378,0.596,0.508,1.428,1.092,1.811c0.508-0.076,1.375-0.111,1.87,0c-0.053,0.136-0.413,0.124-0.242,0.307
	c1.228-0.018,2.378,0.042,3.145,0.479c-1.516,0.283-2.819,0.767-4.295,1.092c-0.478,0.383-1.026,0.695-1.687,0.908
	c0.029,0.23-0.166,0.159-0.302,0.301c-0.289,0.283-0.283,0.685-0.607,0.726c-0.271,0.029-0.254-0.26-0.607-0.301
	c-0.029-0.349-0.142-0.755-0.295-1.026c-0.159-0.277-0.442-0.596-0.667-0.607c0.029,0.235-0.324,0.395-0.183,0.542
	c0.029,0.201,0.483,0.277,0.359,0.425c-0.159,0-0.354-0.035-0.359,0.118c0.2,1.05,0.685,2.065,0.79,3.203
	c0.036,0.473-0.111,0.985,0,1.452c0.054,0.253,0.644,1.021,0.903,1.15c0.755,0.365,1.492,0.637,2.354,0.784
	c-0.076-0.501,0.207-0.643,0.425-0.85c0.49-0.136,0.944,0.089,1.334,0c0.442-0.101,0.442-0.543,0.837-0.667
	c0.325,0.407,1.045,0.413,1.334,0.85c0.012,0.354,0.307,0.744,0.241,0.968c-0.389,0.023-0.637-0.089-0.967-0.124
	c-0.768,0.584-1.357,1.34-2.112,1.936c-0.118,0.118-0.349,0.035-0.484,0c0.13,0.891,0.762,1.292,1.393,1.693
	c0.077,0.295,0.207,0.566,0.301,0.844c0.095,0.307,0.26,0.678,0.242,0.967c-0.029,0.343-0.407,0.891-0.667,1.21
	c-0.295,0.359-0.66,0.702-0.902,0.968c-0.359-0.143-1.026-0.26-1.274-0.308c-0.407,1.705,1.593,2.083,1.086,3.688
	c-0.561-0.318-1.145-0.625-1.511-1.15c-0.035-0.52-0.088-1.073-0.177-1.628c-0.083-0.514-0.26-1.086-0.242-1.629
	c0.006-0.206,0.101-0.4,0.118-0.607c0.083-0.826-0.095-1.688-0.118-2.596c-0.147-0.171-0.254-0.348-0.365-0.607
	c-0.153-0.372-0.065-0.85-0.603-0.726c-0.159,0.442-0.006,0.85,0,1.269c0.019,0.837-0.206,1.574-0.301,2.483
	c-0.188,1.817,0.184,3.758,0.184,5.434c0,0.584,0,1.298-0.184,1.811c-0.177,0.508-0.873,0.797-0.784,1.452
	c0.39,0.059,1.085-0.071,1.51-0.184c0.142-0.165-0.07-0.33,0-0.602c0.449-0.396,0.814-0.844,1.635-0.602
	c0.301,0.26,0.472,0.643,0.72,0.962c0.708-0.283,0.861,0.648,1.387,0.849c0.536,0.201,1.079-0.029,1.876,0.06
	c0.448-0.295,0.961-0.537,1.392-0.844c0.437,0.254,1.121-0.26,1.747-0.242c0.46,0.013,0.666,0.171,0.973,0.484
	c0.378-0.153,0.685,0.218,1.08,0.301c0.183,0.035,0.431-0.023,0.673,0c0.412,0.041,0.761,0.053,1.145,0.059
	c0.229,0.006,0.501,0.124,0.726,0.124c0.767,0,1.581-0.242,2.235-0.425c0.178,0.183,0.555,0.171,0.844,0.242
	c0.714,0.59,1.304,1.315,1.994,1.929c-0.035,0.236,0.053,0.354,0.124,0.49c0.607,0.266,0.956,0.808,1.445,1.203
	c0.206-0.147,0.543,0.006,0.726,0.065c0.283,0.082,0.502,0.235,0.785,0.241c0.619,0.006,1.232-0.395,1.876-0.666
	c0.602-0.254,1.304-0.667,1.811-0.727c0.956-0.1,1.835,0.473,2.479,0.727c0.229,0.088,0.507,0.105,0.66,0.183
	c0.479,0.224,0.915,0.673,1.334,0.968c0.489,0.342,0.984,0.613,1.327,1.026c0.401-0.042,0.507,0.212,0.85,0.241
	c0.371,0.531,0.985,0.756,1.327,1.328c0.112,0.183,0.147,0.454,0.242,0.66c0.501,1.063,1.108,2.136,1.876,2.838
	c-0.041,0.295,0.053,0.584,0.118,0.85c0.07,0.307,0.094,0.644,0.177,0.968c0.112,0.425,0.401,0.861,0.425,1.327
	c0.023,0.437-0.219,0.927-0.183,1.393c0.064,0.784,0.701,1.51,0.849,2.354c0.071,0.413,0.042,0.779,0.124,1.15
	c0.124,0.572,0.396,1.127,0.36,1.629c0.566,0.66,1.245,1.215,1.812,1.876c2.377,0.472,4.761,0.95,6.825,1.569
	c1.251-0.012,2.472,0.212,3.746-0.065c0.266-0.053,0.467-0.247,0.726-0.295c0.153-0.029,0.39,0,0.543,0
	c0.867-0.018,1.899,0.124,2.779,0c0.437-0.059,0.914-0.259,1.392-0.365c0.508-0.106,1.08-0.153,1.511-0.301
	c0.283-0.101,0.513-0.325,0.784-0.419c0.189-0.077,0.413-0.112,0.608-0.189c0.784-0.307,1.48-0.761,2.412-0.72
	c0.172-0.318,0.543-0.359,0.844-0.607c0.337-0.26,0.537-0.702,0.85-0.902c0.201-0.13,0.626-0.301,0.962-0.425
	c0.384-0.136,0.797-0.136,1.215-0.242c0.461-0.118,0.886-0.407,1.269-0.483c0.165-0.03,0.419,0.018,0.661,0
	c0.731-0.054,1.504-0.06,2.301-0.06c1.864,0,3.758-0.283,4.767,0.484c0.743-0.153,1.487,0.206,2.295,0.301
	c0.85,0.1,1.759-0.089,2.661,0.059c0.943,0.75,1.717,1.676,2.596,2.479c0.696,0.088,1.18,0.625,1.876,0.359
	c0.737-0.271,1.558-1.186,2.354-1.321c0.56-0.106,1.227,0.041,1.816,0c1.304-0.106,2.52-0.071,3.864-0.307
	c1.776-0.903,4.194-1.163,5.74-2.295c0.927,0.07,2.112-0.042,3.327,0c0.461,0.359,0.744,0.902,1.204,1.269
	c1.115,0.1,1.888-0.189,2.714-0.302c1.05-0.142,2.047-0.265,3.026-0.483c0.59-0.136,1.156-0.095,1.688-0.183
	c1.327-0.213,1.971-1.175,2.844-1.629c0.885-0.466,1.911-0.389,2.961-0.784c0.649-0.248,1.222-0.861,1.936-1.026
	c0.679-0.165,1.428-0.054,2.112-0.189c0.637-0.124,1.232-0.478,1.87-0.596c0.472-0.094,1.021-0.018,1.569-0.064
	c0.873-0.071,1.723-0.349,2.602-0.242c0.714-0.69,1.362-1.457,2.235-1.994c0.413,0.142,0.773-0.035,1.21-0.059
	c0.619-0.036,1.292,0.076,1.935,0c0.425-0.054,0.838-0.295,1.269-0.366c0.743-0.111,1.587-0.041,2.354-0.177
	c0.596-0.106,1.156-0.396,1.687-0.425c1.393-0.076,2.396,0.737,3.753,0.602c1.64-0.159,3.108-0.832,4.466-1.504
	c0.389-0.384,0.808-0.726,1.209-1.092c0.354,0.101,0.602-0.194,0.909-0.242c0.295-0.047,0.902-0.018,1.268,0
	c2.549,0.136,5.115,0.23,7.729,0.242c4.124,0.018,8.165-0.183,12.266,0c5.64,0.26,11.362-0.194,17.044,0.059
	c6.743,0.308,13.445,0.124,19.935,0.184c-0.266-0.867-0.495-1.623-0.844-2.295C326.594,211.814,326.347,211.566,326.293,211.378z"/>
<path fill-rule="evenodd" clip-rule="evenodd" d="M151.382,111.327c-0.342,1.327,1.203,1.215,1.876,0.849
	c-0.012-0.43-0.242-0.648-0.419-0.908C152.414,111.345,151.937,111.197,151.382,111.327z"/>
<path fill-rule="evenodd" clip-rule="evenodd" d="M154.709,118.701c0.36,0.083,0.401,0.478,0.968,0.36c0-0.118,0-0.242,0-0.36
	C155.317,118.771,154.904,118.583,154.709,118.701z"/>
<path fill-rule="evenodd" clip-rule="evenodd" d="M157.429,119.486c-0.466-0.124-0.914-0.325-1.392-0.124
	c0.259,0.395,0.548,1.05,1.268,0.784c-0.105-0.295-0.466-0.336-0.66-0.543C156.898,119.557,157.358,119.716,157.429,119.486z"/>
<path fill-rule="evenodd" clip-rule="evenodd" d="M158.214,120.271c0.26,0.147,0.66,0.153,0.726-0.177
	C158.68,119.97,158.284,120.028,158.214,120.271z"/>
<path fill-rule="evenodd" clip-rule="evenodd" d="M163.287,121.539c-0.142-0.177-0.159-0.431-0.301-0.607
	c-0.101-0.124-0.295-0.225-0.425-0.36c-0.194-0.2-0.342-0.478-0.543-0.543c-0.029,0.313-0.053,0.626-0.117,0.903
	c0.2,0.277,0.437,0.536,0.902,0.542c0.524,1.074,1.257,1.93,2.295,2.484c-0.047-0.23-0.077-0.49-0.06-0.785
	C164.727,122.371,163.789,122.146,163.287,121.539z"/>
<path fill-rule="evenodd" clip-rule="evenodd" d="M152.055,121.781c0.224,0.07,0.437,0.159,0.66,0.241
	c-0.041,0.225,0.101,0.26,0.06,0.484c0.561-0.159,0.826-0.626,1.091-1.092C153.411,120.713,152.267,121.091,152.055,121.781z"/>
<path fill-rule="evenodd" clip-rule="evenodd" d="M153.134,123.958c0.071,0.177-0.035,0.454,0,0.784
	c0.307,0.023,0.75-0.183,1.216-0.059c-0.006-0.266-0.254-0.596-0.065-0.85c0.903,0.165,1.133,1.003,1.693,1.51
	c0.555,0.018,1.145,0.095,1.752-0.183c0.337-0.997-1.256-1.752-1.15-2.472c0.054-0.342,0.337-0.254,0.667-0.301
	c0.101,0.949,0.555,1.539,1.026,2.111c0.289,0.148,0.549,0.337,0.667,0.661c0.229-0.07,0.384-0.218,0.602-0.301
	c-0.029-0.229,0.112-0.295,0.065-0.543c0.212-0.229,0.472-0.472,0.72-0.726c0.241-0.242,0.572-0.507,0.607-0.784
	c-1.682-0.514-2.525-2.036-4.838-1.569C154.957,121.987,154.202,123.126,153.134,123.958z"/>
<path fill-rule="evenodd" clip-rule="evenodd" d="M164.013,121.598c0.225,0.201,0.384,0.467,0.726,0.549
	c0.159-0.147,0.366-0.242,0.419-0.489c-0.177-0.118-0.295-0.301-0.483-0.419c-0.065,0.153,0.188,0.283,0,0.359
	C164.567,121.521,164.113,121.48,164.013,121.598z"/>
<path fill-rule="evenodd" clip-rule="evenodd" d="M147.152,122.022c0.159,0.69,0.92,1.092,1.51,1.15
	c0.071-0.289-0.472-0.442-0.483-0.85C147.931,122.17,147.518,121.863,147.152,122.022z"/>
<path fill-rule="evenodd" clip-rule="evenodd" d="M149.636,122.984c-0.271-0.124-0.442-0.359-0.726-0.478
	C148.904,122.872,149.364,123.091,149.636,122.984z"/>
<path fill-rule="evenodd" clip-rule="evenodd" d="M150.78,123.893c-0.343-0.437-0.962-0.472-1.511-0.478
	C149.506,123.805,150.226,124.028,150.78,123.893z"/>
<path fill-rule="evenodd" clip-rule="evenodd" d="M163.47,124.92c0.095-0.401-0.029-0.461-0.183-0.721
	c-0.365-0.047-0.59,0.054-0.79,0.178C162.608,124.771,163.039,124.843,163.47,124.92z"/>
<path fill-rule="evenodd" clip-rule="evenodd" d="M149.512,124.56c-0.089,0.968-0.667,1.593-0.543,2.596
	c0.607,1.009,1.416,2.124,2.779,2.177c0.819,0.737,2.111,0.968,3.262,0.968c0.006-0.283-0.229-0.33-0.301-0.549
	c-0.955,0.071-1.351-0.914-1.085-1.688c0.26,0,0.524,0,0.784,0c-0.012-0.229-0.206-0.276-0.183-0.542
	c-0.188-0.03-0.213,0.105-0.425,0.059c-0.236-0.365-0.124-0.714-0.301-1.15c-0.956-0.13-1.18-0.997-2.053-1.203
	C151.335,124.488,150.231,124.123,149.512,124.56z"/>
<path fill-rule="evenodd" clip-rule="evenodd" d="M152.839,124.86c-0.006-0.142,0.101-0.177,0.054-0.36
	c-0.166-0.035-0.313-0.094-0.484-0.123C152.474,124.624,152.68,124.719,152.839,124.86z"/>
<path fill-rule="evenodd" clip-rule="evenodd" d="M148.125,125.769c0.26-0.295,0.927-0.778,0.603-1.269
	C148.456,124.854,148.078,125.097,148.125,125.769z"/>
<path fill-rule="evenodd" clip-rule="evenodd" d="M161.901,127.097c0.336,0.076,0.59,0.029,0.902-0.06
	c0.478-0.726,0.023-1.952-0.726-2.177c-0.242,0.26-0.479,0.531-0.661,0.85C161.6,126.146,161.76,126.612,161.901,127.097z"/>
<path fill-rule="evenodd" clip-rule="evenodd" d="M148.728,125.828c0.117-0.184,0.247-0.354,0.301-0.602
	c-0.077-0.006-0.083-0.077-0.178-0.065C148.745,125.361,148.35,125.681,148.728,125.828z"/>
<path fill-rule="evenodd" clip-rule="evenodd" d="M163.954,125.468c-0.248,0.49-0.118,1.476,0.059,1.93
	c0.136,0.064,0.307,0.101,0.425,0.183c0.318-0.359,1.18,0.064,1.629-0.242c-0.172-0.555-0.809-0.643-1.269-0.908
	C164.515,126.111,164.249,125.769,163.954,125.468z"/>
<path fill-rule="evenodd" clip-rule="evenodd" d="M156.462,126.011c-0.649,0.242-0.944-0.384-1.393-0.483
	c-0.378-0.095-0.832,0.012-1.327,0.059c-0.019,0.077-0.095,0.124,0.059,0.124c0.607,0.396,1.003,1.009,1.693,1.327
	c0.053-0.171,0.018-0.425,0.124-0.543C156.09,126.524,156.249,126.235,156.462,126.011z"/>
<path fill-rule="evenodd" clip-rule="evenodd" d="M160.084,127.155c0.136-0.147,0.224-0.336,0.425-0.419
	c-0.195-0.654-0.915-1.209-1.688-0.908C158.55,126.713,159.24,127.367,160.084,127.155z"/>
<path fill-rule="evenodd" clip-rule="evenodd" d="M159.058,127.58c-0.023,0.213-0.219,0.324-0.236,0.543
	c-0.023,0.212,0.177,0.483,0.177,0.726c0,0.425-0.295,0.743-0.177,1.209c-0.183-0.018-0.194,0.136-0.366,0.124
	c-0.365-0.229-0.235-0.82-0.365-1.269c-0.047-0.177-0.219-0.307-0.242-0.483c-0.035-0.401,0.189-0.743,0.301-1.092
	c-0.466-0.018-0.561-0.4-0.72-0.726c-0.194,0.012-0.26-0.106-0.483-0.059c-0.442,0.507-0.991,0.902-0.968,1.876
	c-0.501,0.336-0.501,0.838-0.301,1.51c0.613,0.289,1.475,0.331,2.053,0.661c-0.313,0.071-0.572,0.194-0.607,0.543
	c0.36,0.313,1.044,0.248,1.511,0.064c0.26,0.213,0.59,0.042,0.908,0c-0.006-0.247-0.006-0.501,0.065-0.672
	c-0.325-0.36-0.531-1.021-0.366-1.688C159.896,128.684,159.7,127.609,159.058,127.58z"/>
<path fill-rule="evenodd" clip-rule="evenodd" d="M162.202,129.149c-0.012,0.153,0.094,0.188,0.117,0.307c0.142,0,0.283,0,0.425,0
	C162.75,129.161,162.521,129.114,162.202,129.149z"/>
<path fill-rule="evenodd" clip-rule="evenodd" d="M162.202,129.816c0.177,0.041,0.241,0.389,0.419,0.241c0-0.076,0-0.159,0-0.241
	C162.491,129.787,162.226,129.609,162.202,129.816z"/>
<path fill-rule="evenodd" clip-rule="evenodd" d="M143.713,208.9c-0.083-0.72-0.861-0.749-1.086-1.328
	c-0.324-0.1-0.437-0.412-0.785-0.483c-0.265,0.832,0.319,1.056,0.785,1.393C142.993,208.747,143.353,209.095,143.713,208.9z"/>
</svg>
