<svg version="1.1" id="Calque_1" xmlns="http://www.w3.org/2000/svg" xmlns:xlink="http://www.w3.org/1999/xlink" x="0px" y="0px"
	 width="432px" height="432px" viewBox="0 0 432 432" enable-background="new 0 0 432 432" xml:space="preserve">
<path fill-rule="evenodd" clip-rule="evenodd" d="M199.074,78.99c-2.412,2.195-4.725,4.525-7.121,6.773
	c-2.324,2.188-4.59,4.437-6.914,6.637c-2.295,2.183-4.619,4.384-6.914,6.631c-2.277,2.23-4.66,4.39-6.908,6.638
	c-2.254,2.247-4.648,4.365-6.908,6.625c-2.277,2.271-4.668,4.377-6.914,6.631c-2.26,2.254-4.65,4.378-6.916,6.625
	c-1.951,1.971-4.006,4-6,5.8c-0.307,0.277-0.713,0.483-0.979,0.772c-0.242,0.254-0.371,0.561-0.619,0.838
	c-0.207,0.207-0.52,0.419-0.566,0.773c0.254,1.062,0.979,1.857,1.256,2.713c0.119,0.366,0.047,0.826,0.213,1.257
	c0.064,0.165,0.248,0.36,0.342,0.555c0.266,0.531,0.455,0.861,0.703,1.263c0.742,1.221,1.639,2.685,2.512,3.628
	c0.084,0.089,0.137,0.201,0.213,0.277c0.867,0.944,1.982,1.746,2.643,2.791c0.621,0.961,1.004,2.018,1.471,3.079
	c0.547,1.197,0.844,2.644,1.469,3.699c0.301,0.496,0.695,0.873,1.186,1.393c0.867,0.908,1.604,1.87,2.447,2.726
	c0.844,0.873,1.848,1.575,2.928,2.301c0.307-0.207,0.625-0.396,0.914-0.632c0.182,0.626,0.736,0.413,1.186,0.632
	c0.578,0.283,1.033,0.902,1.611,1.257c0.141,0.094,0.359,0.111,0.555,0.212c0.176,0.095,0.336,0.289,0.488,0.354
	c0.643,0.247,1.469,0.2,1.813,0.689c0.17,0.23,0.047,0.744,0.342,0.838c1.031,0.307,2-0.053,3.014,0.077
	c0.697,0.076,1.357,0.437,2.012,0.625c0.744,0.2,1.451,0.271,2.029,0.626c1.109-0.101,2.035,0,2.584,0.418
	c0.148,0.112,0.137,0.266,0.283,0.425c0.119,0.118,0.367,0.172,0.49,0.277c0.307,0.266,0.502,0.543,0.697,0.768
	c-0.025,0.702,0.506,1.114,0.27,1.811c1.08,2.089,2.031,4.307,1.959,7.54c0.385,0.749,0.727,1.434,1.057,2.101
	c0.395,0.819,0.92,2.188,1.74,2.442c-0.012,0,0.105-0.16,0.207-0.142c0,0,0.158,0.171,0.207,0.212
	c0.482,0.349,0.678,1.098,0.914,1.599c0.809,0.454,1.439,0.749,2.512,0.844c0.379,0.242,0.615,0.632,0.773,1.115
	c0.42,0.242,0.727,0.431,0.969,0.696c0.365,0.401,1.244,1.67,1.32,2.229c0.131,0.844-0.23,1.652-0.059,2.448
	c0.018,0.112,0.189,0.455,0.277,0.626c0.578,1.139,1.977,0.679,2.377-0.277c-0.111-0.543-0.064-1.245-0.082-1.882
	c0.254-0.219,0.33-0.602,0.637-0.773c0.377,0.219,0.691,0.531,0.975,0.844c0.295-0.018,0.584-0.023,0.701,0.142
	c1.016,1.298,2.277,2.543,3.139,3.977c0.289,0.478,0.654,1.044,0.844,1.528c0.313,0.844,0.342,1.758,0.762,2.654
	c-0.254,0.891-0.078,2.201-0.484,2.938c0.473,1.091,1.18,1.935,1.74,2.932c-0.254,0.171-0.389,0.502-0.49,0.844
	c0.484,1.622,1.434,3.198,1.676,5.026c0.059,0.36,0.012,0.72,0.07,1.109c0.061,0.342,0.207,0.702,0.213,1.044
	c0.006,0.72-0.248,1.641-0.348,2.59c-0.113,1.08-0.814,3.216,0.619,3.063c-0.467,2.183-0.832,4.478-2.648,5.304
	c-1.451-0.153-3.016,0.218-4.324-0.201c-0.361-0.123-0.703-0.454-1.051-0.483c-0.207-0.029-0.584,0.248-0.838,0.065
	c-0.094,0.513-0.236,1.026-0.207,1.604c0.018,0.53,0.266,0.997,0.344,1.469c0.141,0.808,0,1.746,0.771,2.029
	c0.385,0.106,1.229,0.106,1.6,0c0.689,0.938,1.924,1.327,2.313,2.437c0.158,0.466,0.295,1.416,0.283,1.888
	c-0.041,0.702-0.455,1.404-0.566,2.165c-0.029,0.178,0.018,0.378,0,0.549c-0.064,0.655-0.248,1.251-0.42,1.829
	c-0.453,0.448-0.801,0.997-1.113,1.604c0.441,0.814,0.725,1.658,0.973,2.638c0.117,0.472,0.195,0.938,0.283,1.403
	c0.094,0.502,0.152,1.098,0.348,1.47c0.266,0.513,0.932,0.813,1.121,1.327c0.131,0.359-0.041,0.702,0.137,0.968
	c-0.248,0.92-0.531,1.811-0.621,2.873c-0.359,0.749-0.648,1.651-0.771,2.513c-0.072,0.514,0,1.027-0.143,1.528
	c-0.242,0.873-0.719,1.451-0.908,2.454c-0.219,1.139-0.141,2.248-0.141,3.558c0,0.855-0.102,1.775-0.066,2.655
	c0.029,0.701,0.201,1.056,0.42,1.463c0.1,0.188,0.219,0.472,0.418,0.625c0.443,0.018,0.844-0.188,1.191-0.342
	c0.35-0.172,0.779-0.283,1.104-0.502c0.408-0.248,0.908-0.855,1.41-1.327c0.969-0.885,1.793-1.87,2.715-2.714
	c3.451-3.186,6.648-6.354,9.91-9.428c2.85-2.672,5.729-5.434,8.455-8.1c7.48-7.34,15.145-14.454,22.547-21.575
	c7.506-7.209,14.969-14.437,22.479-21.569c3.775-3.587,7.568-7.15,11.238-10.819c3.682-3.682,7.664-7.062,11.238-10.814
	c-30.152-31.609-60.363-63.155-90.475-94.813C199.162,78.99,199.115,78.99,199.074,78.99z"/>
</svg>
