<?xml version="1.0" encoding="utf-8"?>
<!-- Generator: Adobe Illustrator 16.0.0, SVG Export Plug-In . SVG Version: 6.00 Build 0)  -->
<!DOCTYPE svg PUBLIC "-//W3C//DTD SVG 1.1//EN" "http://www.w3.org/Graphics/SVG/1.1/DTD/svg11.dtd">
<svg version="1.1" id="Calque_1" xmlns="http://www.w3.org/2000/svg" xmlns:xlink="http://www.w3.org/1999/xlink" x="0px" y="0px"
	 width="432px" height="432px" viewBox="0 0 432 432" enable-background="new 0 0 432 432" xml:space="preserve">
<path fill-rule="evenodd" clip-rule="evenodd" d="M186.037,249.907c1.511-0.029,1.982,0.508,2.779,1.199
	c0.431,0.377,0.844,1.055,1.28,1.133c0.212,0.035,0.437-0.107,0.825-0.23c0.271-0.084,0.667-0.137,0.903-0.225
	c0.726-0.283,1.222-0.607,1.806-0.902c0.318-0.16,0.666-0.277,0.979-0.449c0.908-0.494,1.729-1.232,2.555-1.729
	c0.295-0.182,0.654-0.271,0.979-0.453c1.168-0.656,2.101-1.699,3.835-1.275c0.088,0.861,0.254,2.088,0.973,2.555
	c0.927-0.105,1.67-0.643,2.407-1.127c0.979-0.643,2.331-1.162,2.855-2.105c0.791-0.137,1.351-0.23,1.806-0.525
	c0.454-0.295,0.791-0.602,1.127-0.979c0.224-0.248,0.472-0.555,0.531-0.826c-0.195-0.16-0.266-0.443-0.531-0.531
	c-0.13-0.172-0.425,0.52-0.602,0.301c-0.608-0.225-0.426-1.293-0.225-1.652c0.188-0.336,1.015-0.73,1.581-1.051
	c0.867-0.494,1.923-1.008,2.33-1.805c-0.124-0.254-0.194-0.555-0.301-0.826c-1.156-0.777-2.366-1.498-3.31-2.482
	c0.419-0.385,0.809-0.797,1.357-1.051c0.253-0.572,0.643-1.01,1.127-1.357c-0.644-1.297,0.542-2.43,1.203-3.156
	c-0.006-0.248-0.13-0.371-0.077-0.678c0.46-0.514,0.743-1.209,1.428-1.498c0.649-0.904,0.991-2.119,1.806-2.861
	c0.206-0.119,0.454-0.201,0.749-0.225c2.2-2.66,5.021-4.709,7.145-7.445c-0.012-0.697,0.549-1.357,0.749-1.953
	c0.059-0.172,0.018-0.455,0.077-0.602c0.142-0.336,0.513-0.537,0.524-0.902c0.307-0.225,0.537-0.52,0.826-0.756
	c-0.183-0.412-0.419-0.773-0.596-1.203c0.908-0.98,1.121-2.561,1.876-3.527c0.495-0.639,0.944-0.91,1.505-1.428
	c0.359-0.344,0.66-0.738,0.979-0.98c0.703-0.531,1.511-0.92,2.178-1.428c0.1-0.537-0.012-0.949-0.071-1.504
	c-0.466-0.064-0.59,0.219-0.979,0.225c0.384-0.496,0.702-1.057,1.127-1.576c0.413-0.502,0.779-1.133,1.28-1.51
	c0.448-0.33,1.044-0.406,1.575-0.75c-0.324-1.551,0.95-2.672,1.581-3.758c-0.13-0.389,0.06-0.814,0.077-1.273
	c0.018-0.637-0.172-1.281-0.077-1.807c0.147-0.848,0.784-1.055,1.204-1.58c-0.531-1.375,0.076-3.057,1.05-3.611
	c0.726,0.307,1.333,0.727,2.259,0.826c0.366,0.543,0.844,0.531,1.352,0.756c0.885,0.389,1.492,1.309,2.029,2.1
	c0.744,1.098,0.985,2.914,2.106,3.611c1.475,0.176,2.366,0.943,3.911,1.055c0.479,0.266,1.156,0.598,1.806,0.75
	c0.448,0.105,1.156,0.225,1.575,0.154c0.767-0.143,1.062-0.896,1.428-1.357c0.932-1.162,2.023-1.77,2.561-3.156
	c0.165-0.432,0.218-0.949,0.448-1.504c0.2-0.479,0.644-0.934,0.902-1.428c0.277-0.525,0.614-1.068,0.826-1.582
	c0.218-0.52,0.235-1.098,0.454-1.574c0.354-0.797,1.039-1.582,1.428-2.26c0.324-0.047,0.419,0.129,0.749,0.076
	c0.36-0.295,0.525-0.773,0.826-1.127c-0.938-2.75,1.41-3.906,1.581-6.018c0.271-0.152,0.484-0.365,0.75-0.52
	c0.141-0.424,0.571-0.637,0.831-0.979c0.343-0.467,0.454-1.203,1.127-1.357c0.82,0.484,1.481,1.168,2.106,1.734
	s1.262,1.145,2.1,1.428c0.184,0.143,0.118,0.531,0.455,0.52c0.235,0.195,0.648,0.213,0.979,0.307
	c0.508-1.074,0.933-2.23,1.729-3.008c0.207-1.121,0.909-1.748,1.127-2.855c1.286-0.697,1.982-2.385,3.311-2.785
	c0.1,0.508-0.225,0.979,0,1.357c0.784-0.502,1.793-0.998,2.33-1.658c0.2-0.248,0.283-0.732,0.525-1.057
	c0.259-0.342,0.891-0.99,1.126-1.051c0.378-0.082,0.743,0.201,1.127,0.309c0.909-0.744,1.64-1.676,2.407-2.561
	c-0.159-0.32-0.365-0.584-0.525-0.904c0.407-0.701,0.791-1.031,1.428-1.574c0.342-0.295,0.69-0.697,0.979-0.832
	c0.289-0.129,0.62-0.041,0.903-0.148c0.471-0.176,0.648-0.578,1.049-0.824c-0.194-0.061-0.318-0.189-0.377-0.379
	c0.749-0.73,1.705-1.256,2.029-2.406c0.437-0.271,0.809-0.602,1.057-1.051c-0.172-0.307-0.52-0.436-0.756-0.678
	c0.06-0.479-0.301-0.727-0.224-1.203c0.064-0.391,0.572-0.613,0.755-1.057c0.301-0.732,0.142-1.293,0-2.178
	c0.861-1.09,1.646-2.26,2.779-3.084c-0.119-0.555,0.176-1.098,0.076-1.5c-0.101-0.389-0.502-0.43-0.602-0.826
	c0.307-0.295,0.448-0.754,0.602-1.203c-0.124-0.377-0.437-0.572-0.525-0.979c0.638-0.697,0.089-2.219,0.673-2.855
	c1.115,0.725,2.106,1.557,3.085,2.324c0.525,0.412,0.921,0.967,1.576,1.133c0.613,0.732,1.463,1.203,2.183,1.805
	c0.365,0.301,0.69,0.607,1.05,0.896c0.378,0.307,0.791,0.543,1.203,0.832c1.553,1.08,3.021,2.355,4.514,3.535
	c2.979,2.348,5.971,4.719,9.021,6.99c0.572-1.033,0.891-2.318,1.581-3.232c-0.124-0.945,0.401-1.24,0.749-1.807
	c0.171-0.264,0.407-0.625,0.531-0.973c0.083-0.242,0.029-0.561,0.147-0.832c0.094-0.219,0.401-0.459,0.525-0.678
	c0.188-0.313,0.395-0.832,0.602-1.275c0.26-0.555,0.566-1.145,0.454-1.504c-0.118-0.371-0.673-0.359-0.902-0.678
	c0.106-0.625-0.165-1.334,0-2.029c0.064-0.283,0.342-0.52,0.378-0.826c0.082-0.791-0.391-1.334-0.68-2.029
	c-0.447-0.178-1.12-0.131-1.58-0.301c0.247-0.797-0.118-1.564-0.301-2.178c0.43-0.449,1.805-0.412,1.279-1.357
	c-0.572-0.129-0.885,0.484-1.356,0.525c-0.525,0.047-1.062-0.418-1.651-0.525c0.354-0.566,0.819-1.15,0.224-1.729
	c-0.472,0.053-0.59,0.467-1.127,0.455c-0.289-0.143-0.241-0.467-0.378-0.686c-0.2-0.318-0.684-0.494-0.602-1.049
	c0.514-0.053,1.469-0.07,1.883-0.449c0.654-0.602,0.383-1.729-0.148-2.336c-0.666-0.059-1.38-0.389-2.105-0.146
	c-0.219,0.012,0.064,0.512-0.154,0.523c-0.406-0.064-0.825-0.123-1.203-0.223c-0.277-0.373-0.448-0.85-1.127-0.826
	c-0.248,0.248-0.088,0.92-0.377,1.127c-0.012-0.289-0.106-0.49-0.372-0.525c-0.702,0.33-1.345,0.631-2.029,0.301
	c-0.407-0.195-0.79-0.963-1.204-1.428c-0.501-0.566-0.943-1.01-1.203-1.434c-0.943-0.438-1.628-1.232-2.708-1.576
	c-0.431-0.135-0.968-0.152-1.504-0.223c-0.903-0.809-1.298,0.258-2.106,0.602c-0.566,0.236-0.955,0.064-1.428,0.371
	c0.082,0.225,0.07,0.537,0.153,0.756c-0.59,0.613-1.145,1.262-1.729,1.875c-1.646-0.053-2.271-0.92-3.911-0.826
	c-0.283,0.295-0.566,0.59-1.057,0.68c0.106,0.24,0.112,0.672-0.07,0.826c-0.625-0.254-1.168-0.592-1.959-0.68
	c0.242,0.391-0.177,0.443-0.225,0.756c0.449,0.453,1.204,1.002,1.428,1.428c-1.097-0.107-1.533-0.467-2.478-0.301
	c-0.247,0.832,0.448,1.344,0.603,2.029c-0.254,0.271-0.354-0.342-0.603-0.076c-0.307,0.529-0.301,1.355-0.755,1.734
	c-1.357,0.035-2.454-0.438-3.835-0.154c-0.513,1.221-2.029,0.684-1.274-0.525c-1.604-0.525-3.032-0.146-4.212-0.748
	c-0.248-0.131-0.489-0.426-0.749-0.602c-0.289-0.201-0.679-0.35-0.902-0.531c-0.225-0.178-0.354-0.555-0.603-0.674
	c-0.548-0.271-1.463,0-1.504-0.908c0.342-0.283,0.92-0.324,1.427-0.447c0-0.201-0.041-0.443,0.148-0.449
	c-0.283-0.584-0.85-0.773-1.505-0.449c-0.224-0.33-0.501-0.602-0.596-1.055c-0.437,0.088-0.679,0.377-0.979,0.602
	c0.012,1.262-0.791,1.717-1.203,2.555c0.188,0.313,0.419,0.59,0.525,0.979c-0.75-0.07-1.204,0.154-1.729,0.295
	c-0.384,0.873-0.762,1.746-1.729,2.035c-0.496,0.879-1.169,1.588-2.03,2.107c0.06,0.283-0.095,0.354-0.077,0.602
	c-0.235,0.26-0.73,0.271-0.825,0.672c-0.13,0.383,0.2,0.697,0.077,0.826c-1.67-0.336-2.591-1.416-3.988-2.029
	c-0.626,0.354-1.717,0.236-2.331,0.602c-0.101,0.248-0.101,0.602-0.147,0.908c-0.631,0.643-1.038,1.51-2.029,1.799
	c-0.053,0.361-0.448,0.467-0.678,0.68c-0.502,0.459-0.915,0.979-1.582,1.203c-0.171,0.354-0.354,0.695-0.602,0.979
	c-0.761,0.061-1.133,0.514-1.729,0.75c-0.419,1.033-1.292,1.611-1.805,2.555c-1.352-0.371-2.106,0.496-2.632,1.203
	c-0.549,0.154-1.079,0.543-1.505,0.902c-0.483,0.414-0.984,0.904-1.428,1.352c-0.289,0.301-0.489,0.727-0.825,0.98
	c-0.466,0.354-1.133,0.66-1.806,0.678c-0.425-0.703-0.266-1.906-0.225-2.861c0.172-3.822,0.06-8.082,0.225-11.799
	c0.195-4.342,0.006-8.896,0.225-12.861c-15.074-0.137-30.896-0.178-46.235-0.295c-0.042-16.826,0.118-32.018,0-48.348
	c-0.384-0.035-1.67,0.254-2.029,0.902c-0.048-0.236-0.36-0.082-0.454-0.076c-0.184,0.018-0.36,0.094-0.602,0.076
	c-0.325-0.023-0.614-0.225-0.903-0.225c-1.28,0-1.994,1.346-2.702,2.029c0.336,1.518,1.546,2.16,1.8,3.76
	c0.501,0.855,1.156,1.775,1.056,2.932c-0.012,0.141-0.183,0.301-0.225,0.525c-0.041,0.217,0.048,0.447,0,0.602
	c-0.07,0.23-0.313,0.459-0.377,0.678c-0.242,0.779-0.283,1.316-0.602,1.805c0.123,0.496,0.778,0.621,0.902,1.127
	c0.064,0.277-0.088,0.727-0.076,1.127c0.018,0.674,0.218,1.381,0.152,1.877c-0.117,0.838-0.778,1.764-0.754,2.713
	c-0.414,0.402-1.121,0.561-1.505,1.051c-0.343,0.441-0.307,0.979-0.603,1.58c-0.152,0.32-0.436,0.615-0.602,0.975
	c-0.171,0.383-0.266,0.914-0.447,1.352c-0.391,0.949-0.744,1.816-0.603,3.162c-0.212,0.684-1.222,1.215-1.351,1.875
	c-0.047,0.225,0.117,0.461,0.147,0.756c0.147,1.521-0.425,2.984-0.147,4.436c-0.396,0.531-0.702,1.156-1.133,1.652
	c0.07,0.672,0.466,1.381,0.377,1.959c-0.772-0.131-1.551-0.584-2.254-0.154c-0.094,1.205,0.785,1.582,0.449,2.633
	c-0.366,0.488-1.292,0.672-1.428,1.273c-0.13,0.59,0.437,1.273,0.153,2.111c-0.372,0.225-0.767,0.566-1.133,0.898
	c-0.39,0.354-0.826,0.76-0.826,1.203c0,0.555,0.62,1.037,0.979,1.504c0.301,0.395,0.49,0.773,0.679,1.203
	c-0.537-0.076-0.442,0.467-0.755,0.602c-1.416,0.514-0.295,3.57-1.576,4.213c-1.492,0.012-2.235,0.455-3.232,1.197
	c-1.032,0.773-1.693,1.492-2.561,2.26c-0.737,0.654-1.533,1.273-2.177,1.953c-0.354,0.377-0.737,0.713-1.056,1.057
	c-0.566,0.607-1.559,2.66-2.254,2.932c-0.484,0.182-0.974,0.035-1.352,0.225c-0.826,0.418-1.026,1.209-1.805,1.875
	c-0.166,0.113,0.041,0.602-0.23,0.602c-0.666,0.33-1.345,0.16-1.953,0.307c-2.094,0.496-3.203,2.762-5.711,1.953
	c-0.018-0.348-0.229-0.701-0.377-1.057c-0.153-0.354-0.207-0.771-0.377-1.049c-0.308-0.508-1.204-1.039-1.729-1.051
	c-1.026-0.035-1.451,0.961-2.029,1.652c-0.513,0.117-0.861,0.543-1.351,0.826c-0.69,0.4-1.428,0.66-1.729,1.279
	c-0.048,1.086-0.33,1.93-0.23,3.156c-1.445,0.662-3.616-0.307-4.961,0.379c-0.172,0.377-0.555,0.541-0.75,0.896
	c0,0.678-0.082,1.51-0.153,1.887c-0.354-0.006-0.566,0.131-0.902,0.148c-0.531,0.543-1.032,1.121-1.505,1.729
	c0.095,1.615,0.879,4.141-0.371,5.332c-0.561,0.283-1.511,0.131-2.106,0c-0.885,2.143,1.971,2.578,1.876,4.289
	c-0.029,0.645-0.613,1.092-0.672,1.729c-0.095,1.004,0.654,1.393,0.672,2.408c-0.838,0.152-1.375-0.619-1.953-0.98
	c-0.194,0.271-0.441-0.035-0.826,0c-0.229,0.295-0.625,0.561-0.754,0.98c-0.119,0.4,0.041,0.867-0.071,1.203
	c-0.242,0.732-1.21,1.027-1.882,1.504c-0.372-0.43-1.352-0.254-1.505-0.902c0.147-0.324,0.378-0.578,0.603-0.902
	c0.164-0.242,0.584-0.689,0.602-0.902c0,0.006-0.473-0.613-0.225-0.826c-0.578-0.902-0.85-2.111-1.652-2.785
	c-0.672-0.059-1.38-0.07-1.881-0.295c-0.236-1.221-1.139-1.816-2.484-1.357c-0.466,0.484-0.654,1.252-0.974,1.877
	c-0.72,0.283-1.263,0.744-1.806,1.203c-0.318,0.969-0.501,1.959-1.056,2.785c-0.265,0.4-0.749,0.59-0.896,0.979
	c-0.396,1.027,0.337,2.514-0.454,3.529c-0.307,0.012-0.419,0.307-0.679,0.453c-1.156,0.691-2.53,1.162-2.177,2.861
	c0.561,0.602,0.896,1.311,1.127,2.324c0.1,0.461,0.295,0.975,0.301,1.357c0,0.248-0.13,0.52-0.153,0.756
	c-0.054,0.578,0.029,1.18,0.153,1.65c0.124,0.479,0.442,0.898,0.448,1.352c0.012,0.691-0.413,1.375-0.673,1.807
	c-1.015,0.488-2.159-0.303-3.162-0.078c-0.59,0.143-0.809,0.686-1.351,0.902c-0.101,0.502-0.206,0.998-0.147,1.658
	c-0.584,0.926-0.289,2.219-0.602,3.305c-0.184,0.625-0.62,1.121-0.602,1.734c-0.591,0.348-1.139,0.777-2.03,0.896
	c-0.59,0.082-1.239-0.154-1.806-0.07c-0.389,0.047-0.648,0.365-0.979,0.371c-0.124,0.16-0.059,0.49-0.225,0.602
	c-0.855,0.484-1.834,0.148-2.855,0.301c-0.737,0.119-1.657,0.66-2.483,0.602c-0.626-0.199-0.985-0.672-1.581-0.902
	c-0.431,1.232-0.076,2.59-0.301,3.912c0.295,0.531,0.979,0.955,1.056,1.729c0.042,0.406-0.229,0.832-0.224,1.279
	c0,0.283,0.146,0.531,0.146,0.826c0.006,0.537-0.164,0.986-0.301,1.428c-0.495,0.154-1.085,0.219-1.279,0.672
	c0.047,0.531,0.572,0.922,0.602,1.512c0.041,0.754-0.431,1.451-0.902,1.875c-0.543,0.012-0.968,0.254-1.051,0.602
	c-0.117,0.496,0.301,0.957,0.448,1.133c0.591,0.674,1.593,1.553,1.959,1.947c0.2,1.027,1.174,1.287,1.729,1.959
	c0.343,1.334,1.038,2.318,1.428,3.611c1.952,0.117,1.817,2.217,0.826,3.303c0.372,0.59,0.685,1.227,1.126,1.734
	c1.074-0.082,1.759,0.449,2.184,1.051c0.731,1.037,0.514,2.809,1.05,4.059c0.188,0.146,0.401-0.16,0.679-0.148
	c-0.112,0.26,0.171,0.332,0.301,0.449c0.437,0.383,1.127,0.572,1.504,0.979c0.432,0.467,0.721,1.334,0.525,2.107
	c0.679,0.236,0.619,1.133,0.902,1.729c0.16,0.336,0.432,0.43,0.525,0.748c0,0.254,0,0.502,0,0.756
	c0.502,0.756,1.387,1.121,2.184,1.576c0.235,0.035,0.17-0.23,0.447-0.148c0.301,0.324,0.75,0.508,0.98,0.902
	c0.012,0.213-0.042,0.49,0.076,0.602c0.448,0.143,1.139,0.219,1.652,0.072c0.224,0.229,0.33,0.578,0.755,0.602
	c0.212,0.359,0.171,0.979,0.372,1.355c0.2,0.148,0.295-0.318,0.754-0.152c0.219,0.213,0.378,0.473,0.525,0.754
	c-0.183,0.32-0.561,0.443-0.678,0.826c0.354,0.172,0.324,0.732,0.678,0.904c0.543-0.236,1.222-0.338,1.953-0.379
	c0.59,0.414,1.044,0.969,1.805,1.203c0.461-0.365,0.944-0.135,1.729-0.152c0.331-0.219,0.75-0.354,1.204-0.449
	c0.478,0.578,1.251,0.855,1.428,1.729c-0.2,0.277-0.277,0.68-0.525,0.904c-0.276-0.049-0.572-0.078-0.825-0.148
	c-0.172,0.307-1.033,0.803-1.051,1.127c-0.006,0.023,0.195,0.189,0.295,0.377c0.443,0.803,1.045,1.404,1.883,1.576
	c0.524,0.844,0.984,1.729,0.524,2.932c0.295,0.436,0.177,0.885,0.378,1.279c0.359,0.709,1.256,0.998,1.651,1.652
	c0.194,0.137,0.372-0.082,0.531,0.154c0.448,0.85,1.05,1.551,1.575,2.33c1.539,0.088,2.955,0.301,3.988,0.902
	c0.218,0.602,0.66,0.99,0.902,1.576c0.555,0.199,0.943,0.559,1.274,0.979c0.896,0.201,1.581,1.186,2.708,0.678
	c0.566,0.289,1.127,0.131,1.581,0.072c1.127-0.137,2.396-0.355,3.003-1.051c1.244-0.023,1.51-0.738,2.183-1.428
	c1.175-0.07,1.812-1.027,3.156-1.057c-0.006-0.436,0.46-0.555,0.679-0.902c0.289-0.455,0.289-1.002,0.678-1.352
	c0.207-0.182,0.525-0.211,0.75-0.377c0.254-0.178,0.307-0.395,0.602-0.525c1.486,1.322,2.584,3.027,4.514,3.912
	c0.318,0.678,1.073,0.932,1.952,1.051c0.603-0.414,1.175-0.855,1.882-1.205c0.773-0.371,1.558-0.494,2.401-0.748
	c0.413-0.125,0.772-0.438,1.204-0.525c0.206-0.047,0.472,0.023,0.678,0c0.679-0.082,1.381-0.301,2.029-0.455
	c0.655-0.152,1.293-0.342,1.883-0.602c-0.048,0.301,0.165,0.336,0.377,0.379c2.631,0.053,3.67-1.494,5.334-2.408
	c-0.03-0.354,0.259-0.395,0.224-0.75c-0.343-0.607-0.891-1.014-1.274-1.58C185.482,251.206,185.802,250.599,186.037,249.907z"/>
</svg>
