<svg version="1.1" id="Calque_1" xmlns="http://www.w3.org/2000/svg" xmlns:xlink="http://www.w3.org/1999/xlink" x="0px" y="0px"
	 width="432px" height="332px" viewBox="0 0 432 332" enable-background="new 0 0 432 332" xml:space="preserve" fill="#FFF">
<path fill-rule="evenodd" clip-rule="evenodd" d="M199.527,81.935c0.908-0.207,0.773-2.313,0.448-2.956
	c-1.257-0.53-1.622,0.632-1.41,1.604c0.095,0.426,0.566,0.744,0.514,1.092C199.409,81.581,199.351,81.87,199.527,81.935z"/>
<path fill-rule="evenodd" clip-rule="evenodd" d="M186.247,81.935c-0.419-0.136-0.536-0.655-0.896-0.708
	c-0.726-0.101-0.572,0.454-0.708,1.026c-0.142,0.619-0.254,0.655,0,1.026C185.787,83.61,186.596,83.073,186.247,81.935z"/>
<path fill-rule="evenodd" clip-rule="evenodd" d="M189.392,82.701c0.525-0.419,0.23-1.114-0.513-0.896
	c-0.709,0.206-0.638,1.115,0,1.15C189.008,82.967,189.321,82.761,189.392,82.701z"/>
<path fill-rule="evenodd" clip-rule="evenodd" d="M190.289,84.306c-0.154,0.195-0.366,0.148-0.384,0.449
	c-0.036,0.678,1.067,1.279,1.669,0.643c0.106-0.555,0.154-1.375,0-2.118c-0.146-0.112-0.359-0.153-0.643-0.13
	c-0.118,0.184-0.313,0.283-0.254,0.644C190.371,83.77,190.43,84.123,190.289,84.306z"/>
<path fill-rule="evenodd" clip-rule="evenodd" d="M194.395,85.527c0.295,0.006,0.431,0.142,0.52,0.124
	c0.566-0.095,1.109-0.879,1.664-0.644c0.059-0.259,0.33-0.307,0.447-0.507c0.036-0.384-0.047-0.644-0.129-0.902
	c-0.508-0.083-1.174-0.219-1.729-0.065c-0.384,0.271-0.892,0.772-1.287,1.098c-0.235,0.188-0.507,0.171-0.513,0.513
	C193.362,85.822,193.976,85.51,194.395,85.527z"/>
<path fill-rule="evenodd" clip-rule="evenodd" d="M266.641,126.394c-0.672-0.648-1.044-1.604-1.669-2.307
	c-0.147-0.047,0.059-0.448-0.188-0.383c-1.334-0.537-3.263-0.803-5.074-0.644c-0.307-0.378-0.613-0.997-1.021-1.286
	c-0.85-0.59-2.384-0.572-3.723-0.896c-0.584-0.136-1.345-0.531-1.8-0.514c-0.206,0.006-0.389,0.147-0.572,0.195
	c-0.336,0.076-0.719,0.094-1.091,0.188c-0.366,0.095-0.749,0.224-1.098,0.26c-1.067,0.1-2.059-0.207-2.819-0.319
	c-0.962-0.146-1.965-0.153-2.891-0.324c-0.838-0.832-2.131-1.168-3.204-1.793c-0.838-0.49-1.558-1.133-2.437-1.481
	c-0.413-0.324-0.726-1.108-1.352-1.28c-0.365-0.1-0.838,0.035-1.215,0c-0.961-0.1-1.775-0.418-2.437-0.707c-0.218,0-0.431,0-0.644,0
	c-2.896-0.773-5.976-1.693-8.984-2.372c-0.467-0.106-0.956-0.142-1.41-0.254c-0.454-0.118-0.867-0.378-1.286-0.513
	c-0.979-0.319-1.971-0.473-2.95-0.709c-1.262-0.307-2.412-0.625-3.533-0.967c-1.439-0.442-2.667-0.679-4.166-1.15
	c-0.507-0.159-1.711-0.484-1.987-0.708c-0.478-0.384-0.46-1.233-0.708-1.988c-0.124-0.39-0.401-0.844-0.578-1.286
	c-0.578-1.451-1.34-2.478-2.372-3.333c-1.233,0.194-2.07-1.181-3.209-1.41c-0.301-0.065-0.614,0.041-0.897,0
	c-0.844-0.124-1.527-0.772-2.501-0.708c-0.36-0.932-1.528-0.667-2.437-1.026c-0.396-0.153-0.737-0.437-1.032-0.644
	c-0.331-0.224-0.655-0.448-0.897-0.767c-0.748-0.212-1.209-0.661-1.793-1.156c-0.472-0.396-1.274-1.121-1.924-1.092
	c-0.336,0.018-0.767,0.354-1.156,0.578c-1.221,0.69-1.911,1.693-3.145,2.183c-0.259-0.313-1.333-0.307-1.475-0.831
	c-0.094-0.337,0.336-1.222,0.572-1.676c0.195-0.366,0.638-1.145,0.838-1.404c0.213-0.289,0.75-0.542,0.832-0.896
	c0.053-0.236-0.076-0.596-0.059-0.903c0.012-0.324,0.053-0.843,0.188-1.156c0.136-0.301,0.536-0.519,0.767-0.772
	c0.791-0.844,1.522-1.675,1.734-2.95c0.148-0.873-0.023-1.162-0.318-1.663c-0.371-0.62-0.838-1.286-1.539-1.416
	c-0.921-0.159-1.44,0.266-2.248,0.454c-0.537,0.118-1.127,0.201-1.54,0.384c-0.46,0.2-0.772,0.578-1.216,0.637
	c-0.549,1.187-1.74,1.735-2.955,2.248c-0.413-0.596-1.387,0.124-2.242-0.188c-0.371,0.224-0.543,0.654-0.967,0.832
	c-0.201,0.029-0.225-0.118-0.449-0.065c-0.666,0.495-1.516,0.867-2.177,1.345c-0.254,0.184-0.454,0.432-0.708,0.52
	c-0.23,0.077-0.543,0.047-0.767,0.124c-0.136,0.047-0.308,0.112-0.454,0.194c-1.187,0.632-2.561,1.156-4.172,1.222
	c-0.678,0.448-1.368,0.607-2.307,0.962c-0.66,0.241-1.368,0.489-2.053,0.701c-0.891,0.277-2.124,0.879-3.015,0.968
	c-0.626,0.054-1.315-0.012-1.994-0.07c-0.619-0.054-1.392,0.012-1.858-0.254c-0.26-0.153-0.442-0.531-0.702-0.708
	c-0.578-0.377-1.351-0.396-1.994-0.702c-0.513-0.247-0.767-0.679-1.28-0.772c-0.336,0.79-0.271,1.87-0.961,2.371
	c-0.52,0.378-1.274,0.366-1.988,0.065c-0.679,0.371-1.528,0.578-2.313,0.837c-0.467,0.998-0.366,2.131-0.384,3.398
	c-0.006,0.401-0.112,0.814-0.13,1.222c-0.082,1.61-0.012,3.31-0.189,4.938c-0.082,0.679-0.276,1.315-0.324,1.994
	c-0.082,1.092-0.076,2.254-0.064,3.333c0.006,0.566,0.159,1.145,0.195,1.729c0.047,0.88-0.06,1.794,0,2.632
	c0.029,0.407,0.146,0.808,0.193,1.222c0.089,0.949,0.065,1.935,0.514,2.761c-0.313,0.218-0.684,0.407-1.032,0.643
	c-0.737,0.502-1.198,0.892-1.54,1.664c-0.076-0.448-0.672-0.448-0.961-0.384c-0.809,0.195-1.187,1.664-1.67,2.118
	c-0.289-0.012-0.201-0.401-0.508-0.384c-0.383,0.213-0.861,0.06-1.221,0.189c-0.455,0.165-0.785,0.707-1.092,0.896
	c-0.442,0.277-0.914,0.389-1.351,0.578c-0.431,0.2-0.82,0.454-1.216,0.708c-0.726,0.46-1.568,0.985-2.117,1.729
	c-0.414,0.561-0.667,1.439-0.897,2.118c-0.212,0.625-0.307,1.393-0.578,1.994c-0.56,1.262-2.401,1.657-2.565,3.333
	c-0.119,0.295,0.229,0.112,0.259,0.26c-0.613,0.819-0.896,2.631-0.324,3.717c-0.054,0.354-0.407,0.413-0.448,0.772
	c0.607,0.737,1.923,0.336,2.949,0.578c0.561,0.13,0.85,0.685,1.222,0.896c0.253,1.222,0.85,2.101,1.216,3.21
	c-0.331,0.313-0.975,0.235-1.281,0.643c-0.218,0.295-0.301,1.127-0.448,1.729c-0.142,0.585-0.419,1.298-0.448,1.8
	c-0.053,0.772,0.219,1.527,0.124,2.183c-0.188,0.13,0.248,0.177,0.194,0.384c-0.229,0.383-0.4,0.844-0.578,1.28
	c0.248,0.885,0.095,2.094,0.195,3.15c0.053,0.548,0.212,1.227,0.129,1.858c-0.135,0.967-0.837,1.699-1.025,2.501
	c-0.195,0.814-0.036,1.688,0.064,2.437c0.088,0.743,0.33,1.434,0.442,2.184c-0.271,0.318-1.257,0.406-1.345,0.961
	c-0.035,0.225,0.348,0.85,0.448,1.156c0.761,2.242,0.407,4.566-0.832,5.965c0.679,0.838,1.746,1.098,2.566,1.734
	c0.519,0.401,0.885,1.009,1.351,1.475c0.479,0.49,1.016,0.861,1.469,1.352c0.479,0.997,1.068,2.229,2.826,1.729
	c1.381,1.381,4.029,0,5.711,0.961c0.248,0.143,0.354,0.413,0.578,0.644c0.473,0.478,0.979,0.714,1.156,1.41c0.254,0,0.508,0,0.768,0
	c0.819,0.784,1.663,1.546,2.183,2.631c0.962,0.39,2.235,0.46,3.203,0.832c0.183,0.638,0.495,1.133,0.962,1.48
	c0.531,1.693,1.917,2.531,2.955,3.717c0.213,0.183,0.201-0.271,0.514-0.188c0.431,0.549,1.026,0.938,1.416,1.54
	c-0.047,1.581,0.207,2.867,0.826,3.781c0.625,0.325,1.439,0.448,2.313,0.514c0.619,0.602,1.257,1.186,1.416,2.247
	c0.508-0.023,1.18-0.123,1.599,0.065c0.844,0.378,1.38,1.911,1.858,2.566c-0.118,0.283-0.277,0.53-0.318,0.896
	c1.191,0.52,2.442,0.985,4.047,1.092c0.188,0.666,0.637,1.286,1.086,1.858c0.637,0.813,1.244,1.723,2.117,2.117
	c0.277,0.13,0.613,0.095,0.896,0.195c0.479,0.159,0.956,0.478,1.416,0.702c0.484,0.247,0.986,0.454,1.41,0.772
	c-0.619,2.307-2.235,4.23-1.929,7.121c0.053,0.478,0.307,0.985,0.39,1.539c0.059,0.39-0.006,0.773,0.064,1.156
	c0.13,0.703,0.377,1.375,0.448,2.119c-0.507,0.707-0.159,1.434-0.064,2.436c0.064,0.626-0.007,1.274,0.064,1.8
	c0.083,0.543,0.46,0.997,0.514,1.469c0.106,0.991-0.337,1.953,0,2.892c0.808,0.241,1.604,0.495,2.247,0.902
	c-0.012,0.838,0.525,1.021,0.572,1.793c0.071,1.039-0.578,1.924-1.021,2.502c-0.188,0.242-0.39,0.507-0.578,0.772
	c-0.359,0.495-0.985,1.156-1.026,1.664c-0.035,0.407,0.201,0.867,0.254,1.286c0.064,0.478,0.076,0.926,0.064,1.539
	c-0.159,0.054-0.442-0.229-0.448,0.065c-0.106,1.339,0.956,2.218,0.962,3.593c0,0.289-0.147,0.708-0.189,1.026
	c-0.053,0.354-0.176,0.767-0.135,1.092c0.035,0.241,0.254,0.584,0.389,0.831c0.467,0.861,1.098,1.428,1.346,2.443
	c0.177,0.713,0.236,1.492,0.324,2.177c0.094,0.714,0.076,1.522,0.384,2.118c0.165,0.318,0.625,0.672,0.962,0.961
	c1.062,0.909,2.53,1.746,3.781,2.184c2.006,0.689,4.301,0.867,6.23,1.729c0.193,0.861,0.825,1.209,1.279,1.864
	c0.566,0.813,0.844,1.729,1.605,2.183c0.047,0.142-0.119,0.495,0.129,0.448c27.888,0,55.775,0,83.662,0
	c0.089-0.39,0.531-0.407,0.773-0.644c-0.059-0.784-0.248-1.516-0.195-2.241c0.018-0.225,0.148-0.483,0.131-0.708
	c-0.024-0.254-0.219-0.667-0.319-0.962c-0.295-0.855-0.507-1.882,0-2.696c-0.277-0.365-0.767-0.519-0.962-0.961
	c0.26-0.378,0.537-0.738,0.832-1.156c0.473-0.673,1.051-1.109,0.832-2.378c-0.561-0.861-1.174-1.682-1.734-2.561
	c0.225-0.784,0.401-1.486,0.26-2.313c-0.07-0.413-0.425-0.737-0.449-1.092c-0.012-0.235,0.143-0.554,0.189-0.831
	c0.189-1.063,0.053-2.048,0.136-3.08c-0.537-0.277-1.345-0.283-2.06-0.383c0.36-1.051,0.372-2,0.131-3.145
	c-0.065-0.319-0.283-0.591-0.319-0.897c-0.047-0.378,0.106-0.85,0-1.156c-0.13-0.378-0.59-0.596-0.708-0.962
	c-0.194-0.613-0.141-1.469,0-1.994c0.077-0.271,0.283-0.483,0.318-0.767c0.03-0.224-0.064-0.489-0.059-0.708
	c0.012-0.666,0.26-1.381,0.448-2.053c0.183-0.673,0.337-1.357,0.572-1.924c0.112-0.253,0.337-0.519,0.454-0.832
	c0.271-0.719,0.343-1.568,0.644-2.117c0.241-0.448,0.696-0.82,0.767-1.222c0.065-0.365-0.064-0.755-0.064-1.156
	c0-0.561,0.194-1.114,0.26-1.663c0.041-0.378-0.06-0.732,0-1.092c0.159-1.08,0.896-1.835,1.41-2.696
	c0.188-1.469,0.707-2.578,0.513-4.041c-0.035-0.289-0.177-0.638-0.254-0.968c-0.082-0.324-0.171-0.702-0.259-1.021
	c-0.189-0.667-0.508-1.368-0.514-1.994c0-0.142,0.111-0.354,0.13-0.507c0.095-0.797,0.083-1.293,0.188-1.93
	c0.07-0.419,0.112-0.832,0.195-1.215c0.064-0.313,0.259-0.602,0.318-0.903c0.041-0.2-0.029-0.442,0-0.637
	c0.064-0.396,0.277-0.803,0.389-1.222c0.248-0.943,0.531-1.787,0.702-2.631c0.089-0.442,0.036-0.943,0.325-1.346
	c0.996,0.119,2.165,0.189,3.145,0c0.324-0.914,1.056-1.428,0.896-2.825c0.371-0.726,0.666-1.356,0.514-2.118
	c-0.06-0.283-0.402-0.613-0.578-1.026c-0.26-0.602-0.42-1.356-0.644-1.794c-0.248-0.489-0.708-0.855-0.772-1.285
	c-0.024-0.207,0.041-0.585,0.064-0.768c0.136-0.902,0.602-1.905,0.708-2.82c0.064-0.555-0.054-1.097,0-1.61
	c0.083-0.761,0.419-1.351,0.708-1.923c0.136-1.451,0.855-2.307,0.896-3.853c-0.66-0.319-0.584-1.381-0.578-2.372
	c0.726-0.513,1.74-0.313,2.377-0.896c0.313-0.289,0.585-0.885,0.832-1.41c0.578-1.215,0.715-2.814,1.222-4.047
	c0.336-0.814,0.749-1.063,1.345-1.599c0.354-0.325,0.727-0.614,0.896-1.032c0.271-0.644,0.131-1.528,0.319-2.242
	c0.053-0.184,0.206-0.336,0.259-0.514c0.219-0.684,0.296-1.362,0.638-1.923c0.254-0.407,0.649-0.679,0.968-1.092
	c0.277-1.12,1.232-1.705,1.286-2.891c0.012-0.349-0.2-0.702-0.136-1.085c0.111-0.591,0.955-0.933,1.221-1.54
	c0.467-1.068,0.201-2.343,0.071-3.15c0.495,0.059,1.162,0.259,1.599,0c0.295-0.785,0.23-2.03-0.064-2.755
	c-0.23-0.143-0.366,0.164-0.514,0.259c-0.466,0.289-0.968,0.425-1.41,0.702c-0.495,0.313-0.973,0.756-1.67,0.773
	c0.36,0.85,0.195,2.271-0.129,3.014c-0.968,0.083-1.233,1.275-2.047,1.476c-0.479,0.118-1.004-0.212-1.476,0.188
	c0.909,2.803-1.457,3.953-2.378,5.522c0.271,0.519,0.432,1.156,0.768,1.604c-0.543,0.413-1.463,0.46-1.924,0.962
	c-0.266,0.879-0.1,1.994,0.195,2.69c-0.438,0.389-1.021,0.336-1.54,0.519c-0.384,0.13-0.802,0.448-1.222,0.702
	c-0.412,0.254-0.902,0.466-1.285,0.708c-0.378,0.248-0.679,0.667-1.086,0.896c-0.195,0.106-0.454,0.136-0.643,0.26
	c-0.566,0.354-1.139,1.115-1.605,1.794c-0.4,0.59-1.127,1.557-1.156,2.247c-0.006,0.147,0.089,0.106,0.13,0.254
	c0.136,0.495-0.048,0.832,0.188,1.156c-0.689,0.407-1.38,0.638-1.982,0.962c-0.678,0.359-0.99,0.561-1.539,1.092
	c-0.768,0.73-1.322,1.764-2.053,2.371c-0.549,0.46-0.98,0.543-1.222,1.156c-0.142,0.359-0.313,0.791-0.514,1.092
	c-0.212,0.318-1.091,1.085-1.54,1.091c-0.778,0.013-1.333-0.991-1.409-1.669c-0.749-0.195-1.327-0.561-1.604-1.216
	c0.519-0.572,0.949-1.015,1.539-1.604c0.36-0.365,1.269-1.28,1.28-1.864c0.012-0.431-0.431-0.896-0.513-1.345
	c-0.307-1.658,0.772-3.198,1.351-4.432c0.413-0.891,1.127-2.094,2.118-2.053c-0.354-0.354-0.13-0.914-0.195-1.41
	c-0.076-0.555-0.406-1.067-0.447-1.539c0.141-0.39,0.637-0.596,1.025-1.15c0.366-0.531,0.514-1.352,1.027-1.476
	c0.318-0.082,0.99,0.054,1.221,0.378c0.39-0.183,0.442-0.525,0.896-0.702c0.933-0.372,2.131,0.065,2.95,0.324
	c0.673-0.914,0.584-2.53,0.708-3.981c0.053-0.709,0.289-1.416-0.064-1.988c-0.438,0.212-0.885,0.277-1.476,0.188
	c-0.118-0.626-0.548-1.062-0.837-1.54c-0.308-0.507-0.655-0.967-0.897-1.539c0.089-0.172,0.337-0.172,0.319-0.449
	c0.047-2.478,1.64-3.41,1.734-5.84c-0.283-0.401-0.85-0.52-1.287-0.768c-0.235-0.047,0.207-0.365-0.123-0.318
	c-1.18,0.625-3.588,1.74-5.197,1.086c0.784-1.676,1.297-3.617,2.241-5.133c-0.206-1.197-0.832-2.324-1.026-3.334
	c0.277,0,0.561,0,0.838,0c0.105-0.478,0.383-0.825,0.324-1.221c-0.118-0.648-1.304-1.074-1.352-1.734
	c0.254-0.59,0.738-0.962,0.773-1.794c-0.502-0.229-0.661-0.796-1.032-1.156c-0.442-0.419-1.003-0.702-1.41-1.15
	c-1.269-0.064-2.236-0.354-3.015-0.968c-0.336-0.253-0.555-0.808-0.968-0.896c-0.283-0.059-0.667,0.112-1.021,0.13
	c-0.572,0.029-1.063-0.035-1.604-0.194c0-0.425,0-0.85,0-1.28C265.898,127.408,266.223,126.86,266.641,126.394z"/>
<path fill-rule="evenodd" clip-rule="evenodd" d="M192.796,87.964c-0.354,0.248-0.632,0.371-1.091,0.384
	c-0.03,0.194-0.543,0.425-0.838,0.831c-0.189,0.277-0.337,0.773-0.514,0.962c-0.679,0.737,0.183,1.622,0.832,0.903
	c1.31,0.194,1.846-0.378,2.313-1.027c0.064-0.266-0.106-0.619,0-0.708c0.213,0,0.431,0,0.643,0c0.543-0.318,1.823-0.377,1.734-1.15
	c-0.111-0.896-2.371-0.39-2.891,0C193.031,87.981,192.85,88.034,192.796,87.964z"/>
<path fill-rule="evenodd" clip-rule="evenodd" d="M301.803,143.468c-0.254-0.118-0.371-0.443-0.708-0.52
	c-0.655-0.142-1.203,0.23-1.41,0.702c-0.006,0.991-0.101,2.07,0.578,2.377c0.219,0.136,0.791,0.071,1.026,0
	c0.06-0.336,0.166-0.896,0-1.085C301.602,144.594,301.921,144.246,301.803,143.468z"/>
<path fill-rule="evenodd" clip-rule="evenodd" d="M287.686,153.278c1.256,0.035,1.044-2.336-0.254-1.858
	C286.646,151.703,286.788,153.255,287.686,153.278z"/>
</svg>
