<svg version="1.1" id="Calque_1" xmlns="http://www.w3.org/2000/svg" xmlns:xlink="http://www.w3.org/1999/xlink" x="0px" y="0px"
	 width="432px" height="432px" viewBox="0 0 432 432" enable-background="new 0 0 432 432" xml:space="preserve">
<path fill-rule="evenodd" clip-rule="evenodd" d="M159.649,236.515c3.693,0.153,7.422,0.183,11.133,0.183
	c5.505,0,11.063,0.313,16.572,0.313c0.902,0,1.793,0.13,2.69,0.13c15.681-0.041,31.976,0,47.657,0c1.828,0,3.669-0.13,5.504-0.13
	c5.711,0,11.244-0.124,16.826-0.124c7.469,0,14.926,0.018,22.329-0.188c3.628-0.101,7.257-0.372,10.879-0.372
	c3.782,0,7.534,0,11.321,0c-1.026-27.869-1.816-55.934-3.191-83.562c-0.761-15.345-1.057-30.755-1.811-45.97
	c-0.054-1.009-0.23-2.295-0.065-3.063c0.06-0.259,0.343-0.483,0.188-0.813c-0.832,0.254-1.711,0.089-2.566,0.124
	c-2.607,0.124-5.121,0.136-7.693,0.254c-3.38,0.152-6.813,0.141-10.253,0.247c-6.902,0.219-13.911,0.366-20.955,0.566
	c-7.05,0.194-14.147,0.159-21.263,0.124c-3.545-0.018-7.085-0.124-10.631-0.124c-3.587,0-7.174,0.06-10.761,0.06
	c-14.437,0-28.654,0.348-42.53-0.313c-5.08-0.242-10.23-0.325-15.445-0.561c-1.263-0.06-2.785-0.166-3.816-0.065
	c-1.162,0.118-2.236,0.749-3.381,0.69c-1.629-0.089-3.398-0.437-5.003-0.378c-0.861,0.036-1.699,0.077-2.561,0.124
	c-0.956,0.059-1.812,0.171-2.631,0.064c-0.649-0.082-1.257-0.478-1.994-0.689c-1.688-0.484-3.563,0.105-5.321-0.124
	c-0.089,0.035-0.154,0.101-0.189,0.188c-0.643,13.563-1.168,27.521-1.811,41.091c-0.266,5.599-0.318,11.073-0.561,16.637
	c-0.248,5.581-0.396,11.062-0.625,16.572c-0.354,8.384-0.467,16.673-0.814,24.955c-0.467,11.015-1.039,21.977-1.439,32.837
	c6.984,0.313,14.047,0.762,21.203,1.063C152.281,236.414,155.969,236.354,159.649,236.515z"/>
</svg>
